<?xml version="1.0" standalone="no"?>
<!DOCTYPE svg PUBLIC "-//W3C//DTD SVG 20010904//EN"
 "http://www.w3.org/TR/2001/REC-SVG-20010904/DTD/svg10.dtd">
<svg version="1.0" xmlns="http://www.w3.org/2000/svg"
 width="1180.000000pt" height="650.000000pt" viewBox="0 0 1180.000000 650.000000"
 preserveAspectRatio="xMidYMid meet">

<g transform="translate(0.000000,650.000000) scale(0.100000,-0.100000)"
fill="#000000" stroke="none">
<path d="M1110 6490 c19 -13 30 -13 30 0 0 6 -10 10 -22 10 -19 0 -20 -2 -8
-10z"/>
<path d="M2060 6466 c-19 -60 16 -106 82 -106 11 0 37 -13 58 -30 21 -16 45
-30 53 -30 23 0 69 -21 88 -40 9 -9 19 -38 23 -64 4 -27 10 -54 13 -61 7 -20
-82 -56 -110 -46 -31 11 -47 3 -47 -25 0 -18 -7 -25 -27 -30 -16 -3 -42 -10
-59 -15 -18 -6 -37 -8 -44 -7 -12 3 -24 -13 -34 -45 -4 -11 -15 -21 -25 -24
-11 -3 -22 -16 -25 -29 -5 -17 -13 -24 -31 -24 -33 0 -38 13 -19 58 8 22 14
55 12 74 -2 27 -8 34 -28 36 -14 2 -34 7 -45 12 -11 5 -31 10 -45 12 -23 3
-25 7 -25 48 0 25 4 63 8 85 6 34 3 45 -18 70 l-25 30 -22 -27 c-13 -14 -42
-36 -65 -47 -46 -23 -49 -30 -32 -63 15 -27 -17 -98 -45 -98 -13 0 -16 -5 -12
-17 4 -9 2 -19 -3 -23 -11 -6 -15 -29 -13 -72 2 -21 7 -28 22 -28 27 0 25 -24
-5 -54 -14 -14 -25 -22 -25 -17 0 4 -22 13 -50 20 -33 8 -56 22 -69 39 -14 20
-27 26 -49 24 -25 -2 -34 4 -52 32 -12 20 -20 47 -18 63 3 23 -3 30 -32 44
-20 9 -42 29 -49 43 -17 31 -19 31 -49 6 -22 -18 -22 -20 -7 -44 9 -13 30 -29
46 -35 16 -5 32 -17 35 -25 3 -9 10 -13 15 -11 16 10 40 -69 45 -149 6 -93 -2
-140 -22 -132 -7 3 -16 1 -19 -4 -4 -6 -28 -10 -54 -10 -38 0 -52 5 -71 25
-25 27 -40 32 -40 13 0 -6 -7 -19 -16 -29 -12 -14 -13 -22 -4 -38 6 -12 16
-21 21 -21 7 0 9 -10 5 -24 -6 -23 -3 -25 38 -31 25 -4 53 -16 62 -26 9 -10
23 -19 29 -19 23 0 63 -40 70 -69 3 -16 17 -39 30 -51 16 -15 21 -27 16 -34
-5 -6 -8 -29 -8 -51 1 -22 -2 -52 -6 -67 -7 -25 -12 -28 -50 -28 -24 0 -48 -5
-54 -11 -7 -7 -17 -7 -29 -1 -11 6 -34 16 -52 23 -53 19 -82 47 -82 79 0 45
-10 60 -39 60 -46 0 -73 27 -69 68 2 26 -1 37 -12 40 -12 2 -15 -8 -16 -45 -1
-74 -17 -103 -57 -103 -44 0 -74 23 -82 63 -6 25 -30 75 -51 105 -1 2 -17 -6
-35 -17 -19 -12 -45 -21 -59 -21 -25 1 -96 55 -102 78 -2 7 -21 32 -43 57 -31
35 -41 41 -48 30 -4 -8 -7 -21 -5 -27 3 -19 -12 -58 -23 -58 -5 0 -9 -6 -9
-14 0 -22 -40 -46 -77 -46 -51 0 -104 -70 -71 -94 8 -6 17 -17 19 -24 3 -10
16 -4 43 17 30 24 49 31 82 31 23 0 46 -5 49 -10 5 -8 11 -7 20 0 10 8 19 9
32 1 16 -9 16 -10 -5 -11 -38 0 -19 -24 24 -31 45 -6 84 -25 84 -41 0 -6 18
-28 40 -48 45 -42 49 -65 20 -112 -27 -44 -25 -52 13 -63 25 -8 33 -16 35 -37
3 -22 -1 -28 -17 -28 -11 0 -31 -11 -45 -25 -20 -20 -23 -31 -19 -67 3 -24 8
-45 10 -48 3 -3 -26 -10 -64 -15 l-68 -10 -5 -90 c-5 -83 -7 -90 -30 -102 -14
-7 -37 -13 -51 -13 -23 0 -29 -8 -47 -57 -31 -84 -45 -160 -39 -205 4 -31 1
-43 -14 -56 -10 -9 -19 -22 -19 -29 0 -7 -3 -13 -8 -13 -11 0 -79 -63 -90 -84
-6 -12 -6 -30 1 -53 8 -26 8 -36 -2 -42 -9 -6 -5 -13 13 -24 14 -10 29 -17 34
-17 4 0 23 -11 42 -25 l34 -25 19 21 c10 11 16 26 14 33 -3 8 0 19 6 25 8 8 7
11 -6 11 -9 0 -17 6 -17 13 0 24 22 35 59 30 43 -7 66 -22 53 -35 -6 -6 0 -19
15 -34 19 -19 22 -28 13 -44 -6 -11 -14 -19 -18 -18 -17 3 -72 -25 -72 -37 0
-18 17 -28 25 -15 4 6 11 8 16 4 18 -11 -1 -20 -48 -23 -26 -1 -53 -7 -59 -12
-7 -5 -42 -9 -79 -7 -62 3 -67 5 -83 33 -9 17 -20 31 -24 33 -4 2 -24 19 -44
38 -21 19 -50 39 -65 46 -14 6 -35 24 -45 40 -11 15 -27 28 -36 28 -17 0 -18
-107 -18 -2110 l0 -2110 2805 0 2804 0 21 66 c11 36 20 76 20 89 0 12 7 36 16
54 9 17 17 37 18 44 2 7 8 25 14 40 7 15 11 31 10 35 -1 4 15 41 35 82 20 41
37 72 37 69 0 -4 -34 -109 -75 -235 -41 -126 -75 -232 -75 -236 0 -5 490 -8
1089 -8 l1089 0 12 34 c12 36 5 86 -12 86 -6 0 -8 13 -6 30 3 16 1 30 -3 30
-3 0 -5 20 -4 45 2 27 0 43 -6 39 -6 -3 -9 10 -8 33 1 21 -1 49 -5 62 -6 16
-5 21 3 17 6 -4 11 -1 11 8 0 8 -7 19 -15 23 -8 5 -16 22 -19 38 -2 17 -7 38
-11 48 -4 9 -4 24 -1 33 4 9 3 22 -2 28 -4 6 -28 58 -52 115 -47 112 -61 121
-36 23 26 -98 18 -93 -18 11 -19 53 -45 114 -58 135 -14 20 -30 54 -37 74 -7
21 -17 40 -21 43 -5 3 -14 25 -21 48 -6 23 -37 96 -68 162 -32 66 -70 154 -85
195 -15 41 -32 85 -37 98 -5 13 -9 32 -9 43 0 11 -15 52 -34 92 -19 40 -38 84
-41 100 -7 26 -25 48 -25 29 0 -5 9 -35 20 -68 11 -32 22 -70 25 -84 2 -14 14
-50 28 -80 36 -82 40 -94 39 -102 -2 -7 22 -62 37 -88 5 -8 21 -53 36 -100 15
-47 38 -112 52 -145 47 -111 54 -131 57 -145 1 -8 9 -44 18 -80 65 -253 90
-372 86 -400 -2 -20 -43 113 -71 235 -1 6 -6 10 -11 10 -8 0 -35 44 -36 58 0
5 6 5 13 1 6 -4 3 2 -8 13 -12 11 -40 60 -64 109 -24 49 -49 100 -57 114 -7
14 -26 50 -41 80 -15 30 -30 57 -34 60 -4 3 -9 19 -12 35 -4 29 -4 29 -6 -5 0
-19 4 -51 9 -70 10 -35 39 -166 45 -205 10 -62 28 -141 35 -150 13 -18 21 -65
10 -65 -5 0 -10 8 -10 18 0 10 -6 26 -13 37 -14 20 -49 132 -62 195 -4 19 -20
76 -35 125 -15 50 -31 103 -34 118 -4 15 -11 25 -16 22 -13 -8 -18 5 -25 60
-3 27 -9 52 -13 55 -4 3 -9 12 -11 20 -14 52 -27 80 -36 76 -6 -2 -11 4 -11
13 -1 9 -3 23 -6 31 -3 8 -3 12 -1 8 3 -5 9 -8 13 -8 10 0 -6 52 -30 95 -9 17
-22 41 -29 54 -10 19 -15 21 -22 10 -6 -10 -9 -7 -9 12 0 30 -29 76 -30 47 0
-28 -20 -21 -20 6 0 14 -5 28 -11 31 -5 4 -8 12 -6 18 2 7 -2 28 -9 47 -22 61
-35 227 -25 315 6 44 13 114 16 155 3 41 6 82 7 90 0 8 0 29 -1 45 -3 30 -3
30 -17 -10 l-14 -40 6 40 c12 71 13 209 3 245 -19 63 -35 170 -27 170 5 0 6 5
3 10 -4 6 -11 8 -16 5 -5 -3 -6 1 -3 10 5 13 2 15 -22 9 -26 -6 -27 -5 -16 8
9 11 10 18 2 23 -5 3 -10 11 -10 16 0 6 5 7 12 3 8 -5 9 -2 3 12 -4 10 -7 35
-6 54 1 22 -2 31 -7 25 -13 -14 -40 -233 -35 -272 3 -18 10 -30 15 -27 6 4 5
-2 -1 -14 -8 -14 -8 -23 -1 -27 6 -4 9 -44 8 -100 -2 -57 -6 -88 -11 -79 -5 9
-6 21 -4 28 3 7 1 19 -5 27 -6 9 -7 -4 -2 -41 12 -102 18 -342 9 -394 -4 -21
-4 -21 11 -1 15 19 16 18 10 -15 -17 -102 -17 -112 1 -156 10 -24 21 -44 26
-44 4 0 7 -5 7 -10 0 -6 -6 -9 -12 -8 -9 2 -14 -13 -16 -42 -2 -24 -7 -47 -12
-50 -5 -3 -5 -30 0 -60 4 -30 8 -47 9 -37 1 15 7 19 27 16 4 0 11 5 16 13 6 9
8 8 6 -7 -2 -16 2 -19 25 -17 15 1 27 -2 27 -8 0 -5 -3 -10 -7 -9 -28 4 -53
-16 -59 -47 -5 -28 -9 -32 -20 -23 -12 9 -14 2 -15 -42 0 -41 -3 -49 -10 -34
-5 12 -7 -60 -4 -193 3 -152 1 -210 -7 -206 -7 5 -8 2 -3 -7 12 -18 16 -209 5
-209 -5 0 -7 -7 -4 -15 3 -8 -1 -29 -10 -46 -9 -18 -16 -45 -16 -61 0 -15 -3
-28 -7 -28 -5 0 -9 -24 -9 -54 -1 -29 -7 -62 -13 -72 -12 -18 -12 -17 -8 4 3
12 1 22 -4 22 -5 0 -9 -6 -9 -14 0 -11 -20 -69 -50 -141 -5 -11 -12 -30 -15
-43 -4 -12 -10 -20 -14 -18 -4 3 -20 -25 -36 -62 -16 -37 -37 -78 -47 -91 -24
-32 -23 -20 2 21 11 18 20 46 20 61 0 16 4 26 10 22 10 -6 12 -1 13 47 1 15 4
25 8 23 3 -3 16 19 28 47 16 39 19 54 10 62 -9 8 -10 8 -6 0 9 -16 -15 -64
-32 -64 -8 0 -11 -3 -8 -6 4 -4 -2 -19 -12 -33 -10 -14 -20 -31 -22 -38 -9
-27 -115 -153 -129 -153 -13 1 -13 2 0 13 47 38 144 182 134 199 -4 7 -3 8 4
4 7 -4 12 -2 12 3 0 20 2 26 12 38 9 11 14 31 21 86 1 10 9 22 17 27 8 5 11
12 8 16 -4 4 -3 15 3 26 6 10 7 29 3 41 -6 19 -9 14 -21 -28 -13 -44 -43 -101
-43 -82 0 4 9 42 20 85 29 114 32 209 9 334 -10 59 -24 119 -30 135 -6 15 -12
35 -14 43 -2 8 -8 26 -14 40 -9 23 -10 21 -12 -20 -4 -72 -8 -111 -19 -180
-16 -109 -9 -285 16 -362 3 -10 1 -18 -4 -18 -5 0 -12 10 -15 23 -32 144 -38
185 -38 280 -1 75 3 112 11 117 7 5 8 10 2 14 -12 7 -3 56 10 53 5 -1 11 20
13 46 3 27 9 64 14 83 5 18 6 46 2 61 -8 27 -9 27 -20 -17 -18 -69 -92 -253
-109 -272 -8 -10 -12 -18 -8 -18 4 0 -2 -9 -12 -20 -11 -12 -27 -40 -37 -63
-10 -23 -28 -65 -41 -93 -12 -28 -28 -71 -34 -95 -6 -24 -25 -83 -40 -131 -22
-65 -28 -100 -25 -140 3 -40 2 -45 -3 -18 -7 32 -9 29 -20 -43 -7 -43 -12 -93
-12 -111 0 -19 -7 -47 -15 -62 -15 -28 -16 -27 -11 31 3 33 9 89 13 125 4 36
8 81 8 102 0 20 3 34 6 32 4 -2 10 3 13 12 4 10 2 13 -6 8 -6 -4 -8 -3 -5 3 4
6 9 36 13 68 5 53 81 255 105 280 5 5 9 14 9 20 -1 5 -12 -3 -26 -20 -25 -29
-25 -29 -18 -5 3 14 9 27 13 30 16 13 52 105 77 195 15 55 32 103 38 107 8 5
7 11 -1 19 -8 8 -14 5 -24 -12 -7 -13 -12 -25 -11 -26 7 -11 -1 -21 -12 -17
-10 4 -20 -6 -30 -30 -20 -48 -48 -49 -30 -1 5 13 8 14 15 3 6 -9 9 -7 9 9 0
12 3 30 6 40 4 13 0 11 -15 -7 l-21 -25 10 35 c13 44 13 53 0 45 -6 -3 -11 0
-12 7 -1 14 -4 30 -8 38 -14 40 -7 88 35 245 16 63 27 133 29 190 2 50 7 110
11 135 11 65 -2 45 -25 -38 -23 -84 -24 -85 -9 -76 7 4 10 1 7 -7 -3 -8 -10
-13 -16 -12 -5 1 -9 -3 -9 -10 1 -34 -4 -48 -15 -41 -8 5 -9 2 -5 -9 3 -9 2
-19 -2 -21 -5 -3 -14 -50 -21 -103 -7 -54 -16 -104 -20 -111 -13 -25 5 225 20
273 45 142 82 331 75 376 -4 22 -3 39 2 39 12 0 12 2 17 114 4 89 4 90 -15 65
-22 -29 -25 -19 -5 19 10 20 13 52 10 112 -5 85 18 230 36 230 7 0 15 -17 30
-70 7 -24 8 -24 9 -2 0 12 6 22 12 22 6 0 9 -9 6 -20 -3 -11 -1 -23 4 -26 5
-3 9 5 9 16 0 21 22 68 46 100 6 8 16 38 22 65 6 28 16 77 24 110 l13 60 6
-40 c3 -23 0 -49 -6 -60 -7 -11 -15 -42 -18 -70 -3 -27 -9 -65 -13 -84 -5 -23
-4 -32 4 -28 11 7 20 55 24 119 1 20 6 34 11 31 9 -5 3 -86 -9 -119 -5 -13 -4
-16 3 -9 16 16 49 136 57 208 6 54 26 107 47 128 20 20 27 65 8 54 -7 -5 -7
-2 0 11 6 11 14 73 18 138 5 73 12 121 19 123 7 2 10 -6 7 -22 -6 -31 13 -34
20 -2 3 12 4 45 1 72 -2 28 0 70 3 95 l7 45 8 -35 c5 -19 9 -78 9 -130 0 -62
4 -88 9 -75 5 11 9 48 9 83 1 35 5 62 11 62 7 0 7 6 0 19 -13 26 -13 44 2 35
7 -5 9 -1 6 13 -3 11 -1 28 4 37 6 10 5 16 -2 16 -5 0 -10 -4 -10 -10 0 -5 -5
-10 -10 -10 -6 0 -3 11 6 25 13 20 18 22 29 11 7 -7 15 -26 18 -43 3 -17 15
-52 28 -79 33 -71 33 -72 0 -34 -17 19 -31 29 -31 23 0 -7 10 -23 21 -34 12
-12 17 -24 12 -28 -11 -8 -9 -59 7 -136 7 -33 13 -73 14 -90 1 -20 6 -29 15
-27 11 2 12 0 4 -10 -15 -18 9 -42 26 -25 16 16 13 -5 -4 -27 -17 -22 -11 -80
13 -136 9 -19 15 -38 14 -42 -1 -4 4 -21 12 -39 l13 -31 7 27 c4 16 2 33 -5
41 -6 8 -11 45 -11 84 0 39 -3 68 -8 65 -17 -11 -17 24 1 78 17 52 18 60 4 99
-8 24 -15 50 -15 59 0 9 -7 22 -15 29 -8 7 -12 16 -9 21 3 5 -8 17 -25 27 -35
20 -38 27 -14 36 11 5 23 0 32 -11 13 -17 13 -17 6 2 -4 11 -8 27 -9 35 -1 9
-6 22 -11 29 -5 10 -4 12 4 7 8 -5 10 -1 7 16 -3 12 -10 50 -17 83 -6 33 -19
85 -29 115 -10 30 -21 69 -23 85 -8 41 -35 164 -45 200 -8 27 -9 23 -15 -32
-4 -35 -14 -79 -22 -99 -8 -20 -15 -49 -15 -65 0 -15 -4 -31 -10 -34 -5 -3
-10 0 -10 7 0 9 -2 10 -8 1 -4 -6 -6 18 -6 53 1 35 -2 64 -6 64 -9 0 -40 -73
-40 -94 0 -19 -30 -76 -40 -76 -4 0 -6 10 -2 22 3 14 2 19 -6 14 -7 -4 -12
-16 -12 -26 0 -10 -5 -22 -10 -25 -6 -3 -10 5 -10 19 0 14 -4 28 -10 31 -5 3
-10 -2 -10 -12 0 -11 -4 -23 -9 -29 -5 -5 -12 -18 -15 -29 -3 -11 -3 3 -1 30
3 29 -1 59 -8 72 -11 20 -15 7 -35 -110 -31 -177 -31 -179 -42 -172 -10 6 -21
-43 -23 -99 0 -19 -3 -33 -6 -30 -5 4 -6 16 -10 82 -1 28 -16 21 -42 -22 l-19
-31 0 34 c0 49 -7 35 -15 -29 -4 -30 -11 -62 -16 -70 -7 -11 -8 -6 -4 15 3 17
12 84 20 150 7 66 21 169 29 229 14 100 14 224 0 247 -3 5 0 9 6 9 8 0 9 7 5
18 -4 9 -11 62 -15 117 -7 105 -46 269 -61 259 -5 -3 -6 2 -3 10 3 8 -2 28
-11 45 -8 17 -18 49 -20 71 -4 42 -23 70 -49 70 -8 0 -18 5 -21 10 -16 25 -22
-5 -9 -42 7 -22 14 -50 14 -62 -1 -31 -39 52 -40 85 0 27 -16 49 -37 49 -9 0
-13 -16 -13 -49 0 -28 -5 -53 -11 -57 -8 -4 -10 12 -7 54 3 54 1 62 -17 66
-37 10 -77 7 -72 -6 2 -7 11 -12 21 -10 9 2 16 -2 16 -8 0 -8 6 -8 20 0 17 9
20 8 19 -7 -2 -37 -15 -68 -23 -55 -4 6 -5 16 -2 21 3 5 0 11 -7 14 -27 10 0
-210 29 -233 7 -7 14 -20 14 -30 0 -9 8 -28 19 -41 10 -13 21 -31 25 -39 3 -8
4 3 1 25 l-4 40 12 -33 c7 -18 16 -30 20 -26 4 4 14 -1 22 -12 14 -18 14 -18
15 4 0 13 4 20 10 17 7 -4 7 3 0 20 -6 15 -9 43 -9 63 l1 37 11 -42 c5 -24 14
-43 18 -43 5 0 6 8 3 18 -4 14 -4 14 4 2 5 -8 12 -39 15 -69 4 -29 10 -58 16
-65 5 -6 14 -37 21 -70 11 -56 22 -63 34 -21 3 11 3 2 1 -20 -2 -22 2 -65 10
-95 20 -76 29 -160 16 -160 -5 0 -12 -12 -14 -27 -4 -25 -4 -24 -6 7 -7 97
-18 71 -17 -40 0 -69 -5 -142 -11 -164 -7 -24 -8 -47 -3 -62 6 -14 5 -24 -2
-26 -6 -2 -10 -30 -9 -65 0 -45 -3 -63 -14 -67 -10 -4 -15 2 -16 17 -1 12 -5
4 -9 -18 l-7 -40 -3 40 c-2 22 -3 47 -2 55 3 27 -27 214 -42 265 -39 132 -95
267 -117 281 -13 7 1 -85 17 -120 16 -33 9 -50 -9 -25 -10 14 -14 14 -25 3 -7
-8 -8 -14 -2 -14 5 0 10 -7 10 -15 0 -8 -4 -15 -9 -15 -15 0 -18 -43 -5 -71 7
-14 13 -39 14 -55 3 -81 4 -84 21 -68 21 19 35 18 19 -1 -7 -8 -9 -15 -6 -15
4 0 2 -9 -4 -20 -9 -16 -8 -22 4 -26 13 -5 12 -9 -7 -25 l-22 -18 25 -1 c20 0
22 -2 10 -10 -8 -5 -15 -15 -15 -22 -1 -7 -6 -12 -13 -11 -7 2 -12 -8 -12 -22
0 -28 -29 -48 -51 -34 -21 13 -32 11 -26 -5 4 -9 -2 -14 -16 -14 -38 -2 -62
-7 -72 -15 -50 -37 -59 -46 -51 -54 5 -4 11 -2 13 5 5 14 53 17 53 2 0 -5 -5
-10 -12 -10 -6 0 -22 -10 -35 -22 -20 -18 -23 -19 -23 -5 0 23 -16 21 -40 -3
-18 -18 -20 -18 -37 -2 -15 15 -16 15 -11 0 5 -12 -2 -20 -25 -29 -18 -7 -38
-17 -46 -23 -13 -10 -22 -13 -73 -23 -16 -3 -28 -10 -28 -15 0 -6 -20 -8 -45
-6 -29 2 -46 -1 -49 -9 -3 -8 -23 -11 -60 -8 -46 4 -56 2 -56 -11 0 -10 -6
-14 -15 -10 -8 3 -15 0 -15 -7 0 -9 -3 -8 -9 1 -7 11 -9 11 -14 -2 -11 -27
-26 -18 -36 22 -15 52 -14 93 5 137 13 33 14 45 3 84 -7 25 -17 52 -22 59 -5
7 -7 15 -4 18 3 3 13 -8 21 -24 16 -31 16 -31 58 -18 24 8 69 21 100 30 57 17
85 36 52 36 -13 0 -14 3 -4 15 7 8 19 15 26 15 8 0 11 6 8 15 -8 20 51 54 109
61 26 4 47 10 47 14 0 17 -49 48 -95 60 -27 8 -78 26 -113 42 -101 47 -136 57
-156 46 -10 -5 -31 -14 -48 -19 -28 -8 -30 -7 -23 14 4 12 11 46 17 76 8 41
13 50 20 38 5 -10 13 -17 18 -17 18 0 48 33 43 46 -6 17 7 18 44 2 15 -6 38
-10 51 -9 12 1 22 -2 22 -8 0 -22 70 -12 95 14 29 28 31 50 9 93 -20 42 -27
45 -47 21 -9 -10 -12 -19 -6 -19 6 0 9 -10 7 -22 -4 -27 -37 -37 -50 -14 -5 9
-16 16 -25 16 -15 0 -79 26 -125 51 -10 5 -32 9 -50 9 -31 -1 -32 -1 -14 -15
11 -8 29 -15 40 -16 19 0 18 -1 -4 -10 -14 -6 -46 -9 -71 -7 -38 2 -46 0 -41
-12 2 -9 -2 -6 -11 5 -32 39 -21 86 36 158 27 34 29 42 21 85 -4 26 -7 75 -5
110 2 34 -1 62 -6 62 -16 0 -41 -32 -61 -80 l-19 -45 -8 57 c-4 31 -5 75 -3
98 4 45 -11 53 -46 22 -20 -16 -20 -16 -7 1 8 10 35 30 60 45 38 22 58 27 114
27 70 0 73 -1 102 -50 10 -16 13 -15 48 5 20 12 37 23 37 25 0 18 -31 69 -44
71 -9 1 -16 -1 -16 -6 0 -4 -9 -10 -19 -13 -19 -5 -19 -2 4 62 46 128 115 282
144 325 17 24 59 69 93 99 51 44 66 65 76 101 6 26 12 55 12 65 0 11 4 21 9
23 6 2 12 23 15 47 5 39 4 42 -9 25 -13 -17 -14 -15 -8 19 3 22 2 37 -5 37 -5
0 -13 12 -18 28 -10 36 -13 97 -4 82 12 -20 30 -1 30 31 0 17 4 28 9 25 5 -3
8 2 7 12 0 11 7 18 22 20 27 4 30 22 3 22 -18 0 -31 18 -31 42 0 13 49 -18 75
-48 30 -33 60 -39 84 -15 12 12 25 21 30 21 5 0 11 8 13 18 3 12 -12 26 -47
48 l-50 30 -2 91 c-3 88 -2 92 23 112 26 20 26 21 10 55 -9 20 -14 46 -11 58
3 13 1 37 -4 53 l-9 30 -7 -32 c-5 -20 -14 -33 -24 -34 -9 0 -25 -2 -36 -4
-11 -2 -37 7 -57 21 -20 14 -41 23 -47 20 -6 -4 -32 -7 -58 -8 -59 -1 -75 19
-79 98 -2 51 2 61 42 120 24 35 44 72 44 82 0 14 -2 14 -9 3 -7 -11 -14 -9
-35 14 -15 16 -24 33 -21 39 3 6 8 19 11 29 4 9 13 17 20 17 8 0 14 5 14 11 0
6 -7 8 -16 5 -9 -3 -18 -6 -20 -6 -2 0 -4 -9 -4 -20 0 -11 -4 -20 -10 -20 -5
0 -10 5 -10 10 0 18 -22 10 -43 -16 -17 -22 -26 -25 -54 -21 -18 3 -33 2 -33
-3 0 -15 -56 -40 -90 -40 -17 0 -39 -7 -47 -16 -9 -8 -24 -14 -33 -11 -15 4
-14 0 4 -33 11 -21 25 -36 31 -34 7 3 9 -10 7 -36 -4 -42 -10 -48 -30 -28 -17
17 -42 -8 -42 -44 0 -105 -115 -129 -165 -35 -24 45 -39 48 -33 6 6 -38 -18
-50 -72 -37 -19 5 -44 11 -54 13 -22 5 -36 23 -36 46 0 16 -90 59 -122 59 -9
0 -29 11 -44 25 -15 14 -35 25 -45 25 -10 0 -38 10 -63 22 l-44 21 -37 -30
c-31 -26 -42 -30 -80 -25 -61 6 -152 -6 -170 -24 -20 -20 -62 -21 -105 -2 -55
24 -141 47 -134 37 8 -14 -48 2 -64 18 -7 7 -22 13 -33 13 -11 0 -17 5 -14 10
3 6 -3 10 -15 10 -11 0 -35 6 -54 14 -37 15 -50 42 -63 131 -6 43 -13 61 -24
63 -14 2 -17 -9 -21 -67 -4 -79 -21 -105 -71 -115 -47 -9 -222 10 -257 28 -21
10 -47 13 -85 9 -49 -5 -59 -3 -81 18 -15 13 -30 35 -36 49 l-9 24 -24 -29
c-23 -29 -25 -30 -102 -27 -43 2 -90 4 -105 6 -16 1 -38 3 -51 4 -19 2 -23 8
-25 41 -2 21 2 51 8 66 14 38 7 41 -33 16 -33 -20 -56 -51 -39 -51 5 0 14 -16
21 -35 11 -32 10 -39 -11 -78 -19 -35 -29 -43 -57 -45 -35 -4 -112 28 -175 72
-24 16 -29 17 -23 4 3 -10 0 -19 -9 -22 -17 -7 -49 7 -49 21 0 4 -24 18 -54
30 -63 26 -70 34 -72 88 -2 78 -10 89 -66 97 -62 9 -103 24 -103 38 0 6 -27
10 -64 10 -64 0 -64 0 -76 -34z m3374 -299 c27 -20 16 -48 -30 -72 -49 -26
-64 -22 -64 18 0 56 51 85 94 54z m-2516 -102 c21 -3 123 -7 227 -10 105 -3
219 -9 255 -15 36 -5 128 -13 205 -16 104 -5 144 -11 158 -22 16 -14 16 -17 1
-33 -9 -10 -29 -21 -45 -24 -16 -4 -31 -11 -34 -16 -4 -5 -14 -9 -24 -9 -10 0
-32 -7 -47 -15 -23 -12 -64 -15 -192 -13 -149 1 -185 -2 -170 -18 4 -3 39 -10
80 -16 40 -5 99 -17 131 -26 88 -25 132 -88 92 -132 -14 -16 -14 -20 2 -48 10
-17 28 -36 40 -43 31 -17 35 -65 8 -97 -21 -24 -24 -25 -186 -26 l-164 -2 -40
38 c-22 21 -48 40 -57 43 -21 7 -31 36 -30 91 1 27 -5 51 -17 66 -10 12 -26
38 -35 56 -21 41 -36 33 -36 -19 0 -27 5 -42 16 -46 13 -5 12 -8 -5 -25 -12
-10 -21 -23 -21 -28 0 -25 -40 -6 -66 31 -34 50 -61 69 -94 69 -45 0 -72 27
-68 68 4 45 24 57 122 70 62 8 73 7 115 -14 28 -15 54 -21 66 -17 22 7 39 11
72 16 26 4 39 13 20 15 -75 6 -129 17 -138 28 -6 8 -22 14 -36 14 -13 0 -35 7
-48 16 -26 17 -45 12 -45 -12 0 -8 -10 -14 -25 -14 -20 0 -25 5 -25 24 0 14
-12 33 -30 47 -16 13 -30 32 -30 41 0 20 29 40 48 33 8 -3 30 -7 50 -10z
m-568 -90 c45 -87 75 -117 124 -125 26 -4 30 -9 28 -30 -2 -14 -15 -37 -29
-52 l-25 -27 25 -25 c15 -14 31 -26 36 -26 6 0 18 -14 26 -31 13 -24 14 -37 6
-60 -11 -32 -34 -59 -50 -59 -5 0 -10 -15 -10 -32 0 -65 -13 -109 -37 -125
-13 -8 -31 -13 -39 -9 -20 7 -20 62 1 74 13 7 14 13 6 29 -8 14 -8 23 0 31 29
29 -89 92 -170 92 -25 0 -32 4 -32 20 0 10 8 24 18 29 16 9 15 12 -10 35 -20
20 -25 33 -23 60 4 42 11 56 30 56 8 0 25 11 39 25 17 17 20 25 11 25 -9 0
-12 6 -9 15 4 8 -1 33 -10 55 -9 22 -16 54 -16 71 0 29 1 30 44 27 41 -3 47
-6 66 -43z m1753 11 c101 -15 122 -31 129 -94 3 -38 1 -43 -24 -53 -51 -21
-208 11 -208 42 0 4 -14 12 -30 19 -17 7 -34 19 -39 27 -6 12 -12 13 -29 4
-35 -19 -23 29 13 50 35 22 70 23 188 5z m310 -55 c-3 -12 -11 -17 -19 -14
-17 6 -18 20 -1 26 22 9 25 7 20 -12z m257 -60 c0 -11 -5 -23 -11 -27 -14 -8
-29 14 -22 33 8 20 33 16 33 -6z m-1940 -61 c13 -9 13 -11 0 -19 -16 -11 -43
5 -34 20 7 11 15 11 34 -1z m-1326 -116 c20 -8 21 -28 2 -43 -8 -7 -12 -21 -9
-31 6 -24 -10 -26 -32 -4 -16 16 -13 46 7 72 12 14 11 14 32 6z m127 -244 c10
-6 19 -18 19 -26 0 -8 7 -28 15 -43 13 -26 13 -30 -3 -44 -9 -8 -28 -17 -42
-20 -24 -4 -24 -4 3 -6 23 -1 28 -5 25 -23 -2 -16 -9 -22 -22 -21 -11 1 -26
-6 -33 -15 -9 -13 -12 -13 -13 -3 0 9 -8 12 -26 8 -22 -4 -25 -1 -22 22 2 21
8 26 28 24 21 -2 22 -1 6 5 -15 7 -19 21 -22 69 -2 54 0 62 19 71 29 14 44 14
68 2z m4159 -1 c0 -5 -9 -9 -20 -9 -11 0 -20 4 -20 8 0 4 9 8 20 9 11 1 20 -2
20 -8z m-2571 -20 c52 -27 59 -48 27 -74 -14 -12 -26 -26 -26 -32 0 -29 -97
-34 -117 -7 -21 27 -9 84 22 112 32 27 44 27 94 1z m2521 16 c0 -2 -10 -10
-22 -16 -21 -11 -22 -11 -9 4 13 16 31 23 31 12z m60 -36 c0 -18 -2 -19 -15
-9 -15 12 -12 30 6 30 5 0 9 -10 9 -21z m-3970 -78 c20 -49 7 -67 -46 -66 -40
0 -48 4 -58 25 -6 14 -15 28 -20 31 -18 13 18 34 64 37 44 3 48 1 60 -27z
m169 -91 c28 -24 35 -38 37 -71 1 -25 8 -46 17 -50 8 -5 22 -19 30 -33 13 -20
14 -29 4 -50 -10 -22 -18 -26 -60 -26 -45 0 -49 2 -79 45 -24 34 -43 48 -80
61 -27 9 -52 22 -55 30 -3 7 4 29 16 47 12 19 21 41 21 50 0 20 15 25 70 26
36 0 52 -6 79 -29z m-444 -10 c3 -5 -3 -10 -15 -10 -12 0 -18 5 -15 10 3 6 10
10 15 10 5 0 12 -4 15 -10z m490 -265 c6 -7 25 -22 43 -35 29 -19 33 -27 30
-59 -3 -33 -5 -36 -33 -34 -16 1 -58 5 -92 7 -63 5 -113 28 -113 52 0 7 9 32
21 54 l21 40 56 -7 c32 -3 62 -12 67 -18z m-411 -24 c3 -5 -1 -14 -9 -21 -8
-7 -15 -19 -15 -26 0 -18 -14 -18 -30 1 -9 10 -9 15 -1 15 6 0 11 9 11 20 0
21 33 29 44 11z m140 -107 c23 -9 20 -34 -4 -34 -13 0 -20 7 -20 20 0 22 1 23
24 14z m2276 -105 c0 -20 -21 -49 -36 -49 -20 0 -29 27 -14 45 14 17 50 20 50
4z m-135 -105 c30 -19 26 -29 -15 -37 -41 -9 -60 1 -60 29 0 19 5 24 25 24 14
0 37 -7 50 -16z m-2921 -15 c30 -23 34 -49 9 -49 -10 0 -34 -3 -54 -6 -34 -6
-37 -4 -47 25 -10 29 -10 31 21 40 18 5 35 10 38 10 4 1 18 -8 33 -20z m-159
-36 c-2 -10 -4 -20 -4 -22 -1 -2 -8 2 -16 9 -16 14 -11 30 10 30 7 0 12 -8 10
-17z m-50 -13 c3 -5 -1 -10 -10 -10 -9 0 -13 5 -10 10 3 6 8 10 10 10 2 0 7
-4 10 -10z m3055 -43 c0 -10 -11 -22 -24 -27 -29 -11 -40 -39 -37 -103 1 -47
1 -47 -26 -41 -38 10 -50 29 -56 88 -3 34 0 54 9 64 8 7 14 17 14 22 0 11 22
15 77 15 35 0 43 -3 43 -18z m-3086 -28 c-17 -19 -34 -17 -34 5 0 22 22 37 37
24 11 -9 11 -14 -3 -29z m5543 -171 c-3 -8 -6 -5 -6 6 -1 11 2 17 5 13 3 -3 4
-12 1 -19z m-5414 -54 c-10 -7 -13 -14 -8 -14 6 0 4 -4 -4 -9 -17 -11 -73 7
-65 21 12 19 68 37 82 26 10 -8 8 -13 -5 -24z m4252 -197 c1 -128 17 -182 69
-222 17 -14 26 -25 20 -25 -7 0 -26 13 -42 28 -38 36 -61 112 -63 209 -1 39
-5 77 -9 84 -8 12 10 52 19 43 3 -3 6 -55 6 -117z m1302 -44 c-3 -10 -5 -2 -5
17 0 19 2 27 5 18 2 -10 2 -26 0 -35z m448 -403 c3 -6 -1 -7 -9 -4 -18 7 -21
14 -7 14 6 0 13 -4 16 -10z m-71 -26 c3 -8 2 -12 -4 -9 -6 3 -10 10 -10 16 0
14 7 11 14 -7z m94 -19 c-3 -3 -9 2 -12 12 -6 14 -5 15 5 6 7 -7 10 -15 7 -18z
m46 -31 c4 -11 2 -12 -14 -1 -11 6 -20 15 -20 19 0 12 28 -3 34 -18z m-2075
-11 c3 -5 26 -21 51 -37 59 -38 160 -119 160 -128 0 -17 -24 -6 -93 42 -157
109 -187 131 -187 140 0 10 60 -5 69 -17z m396 -13 c3 -5 1 -10 -4 -10 -6 0
-11 5 -11 10 0 6 2 10 4 10 3 0 8 -4 11 -10z m95 -76 c0 -29 11 -31 35 -4 10
11 29 20 43 20 24 0 25 0 7 -20 -10 -11 -21 -18 -23 -15 -3 3 -16 -2 -30 -11
-28 -18 -37 -12 -47 35 -5 23 -4 31 4 27 6 -4 11 -18 11 -32z m-184 -17 c50
-77 54 -87 48 -111 l-6 -25 -24 26 c-21 23 -25 32 -24 58 0 3 -6 18 -15 35
-29 56 -13 70 21 17z m324 29 c0 -3 -4 -8 -10 -11 -5 -3 -10 -1 -10 4 0 6 5
11 10 11 6 0 10 -2 10 -4z m970 -176 c0 -5 -2 -10 -4 -10 -3 0 -8 5 -11 10 -3
6 -1 10 4 10 6 0 11 -4 11 -10z m527 -42 c-3 -8 -6 -5 -6 6 -1 11 2 17 5 13 3
-3 4 -12 1 -19z m-830 -90 c-3 -7 -5 -2 -5 12 0 14 2 19 5 13 2 -7 2 -19 0
-25z m-848 -114 c24 -30 27 -54 9 -54 -9 0 -8 -4 2 -10 13 -8 13 -10 -1 -10
-15 0 -49 63 -49 90 0 18 18 10 39 -16z m1711 -47 c0 -1 4 -17 9 -35 12 -40
-3 -33 -17 8 -7 18 -7 30 -1 30 5 0 9 -1 9 -3z m-383 -89 c-3 -8 -6 -5 -6 6
-1 11 2 17 5 13 3 -3 4 -12 1 -19z m-1095 -45 c-2 -16 -11 -35 -19 -45 -15
-17 -13 -20 28 -51 23 -17 35 -57 17 -57 -8 0 -23 7 -34 15 -10 8 -31 15 -46
15 -16 0 -70 7 -120 16 -51 9 -112 14 -135 11 -24 -2 -49 1 -59 7 -14 10 -13
13 8 23 80 37 207 40 255 5 37 -26 43 -27 43 -6 0 9 5 34 12 55 8 30 16 39 33
39 19 0 21 -4 17 -27z m-946 -27 c148 -26 261 -53 359 -85 72 -25 104 -26 111
-6 4 8 11 15 16 15 6 0 8 -6 5 -13 -8 -22 5 -34 56 -51 84 -28 196 -86 207
-107 10 -18 9 -19 -17 -13 -15 4 -66 21 -113 39 -149 56 -165 56 -175 -6 -9
-54 -30 -44 -31 15 -1 26 -5 51 -10 55 -11 10 -247 76 -329 91 -146 28 -275
66 -275 81 0 14 47 11 196 -15z m1045 0 c1 5 1 12 0 17 -2 13 36 8 48 -7 7 -8
21 -12 32 -9 29 8 167 -16 216 -37 28 -12 44 -26 48 -42 2 -13 10 -45 15 -73
6 -27 13 -58 16 -67 4 -13 0 -18 -14 -18 -39 0 -148 43 -186 74 -22 17 -36 24
-31 16 25 -41 142 -110 188 -110 44 0 51 -7 77 -67 12 -29 25 -53 29 -53 3 0
12 -15 20 -32 8 -18 21 -41 29 -50 8 -10 15 -35 16 -58 2 -34 0 -39 -15 -35
-12 4 -18 -1 -21 -19 -3 -14 -3 -28 0 -31 3 -3 7 -11 8 -18 2 -7 6 -23 9 -37
21 -79 26 -127 26 -232 0 -67 -4 -125 -11 -137 -6 -12 -8 -21 -5 -21 4 0 3 -6
-2 -12 -4 -7 -8 -31 -9 -53 -2 -75 -17 -210 -24 -220 -4 -5 -11 -25 -15 -42
-8 -40 -31 -44 -30 -5 0 20 -5 27 -20 27 -16 0 -19 6 -17 28 4 40 -15 33 -22
-8 -4 -19 -11 -35 -15 -35 -4 0 -11 -32 -15 -72 -3 -39 -11 -77 -17 -84 -6 -7
-9 -44 -8 -83 2 -46 -1 -75 -9 -83 -7 -7 -12 -35 -12 -64 0 -35 -8 -65 -25
-98 -13 -25 -24 -49 -24 -53 0 -4 -4 -9 -10 -11 -15 -5 -14 55 4 162 11 67 12
93 3 103 -8 10 -8 20 3 40 9 17 14 58 14 113 0 76 2 86 17 82 13 -3 15 1 11
18 -3 12 -1 25 6 29 8 5 11 30 9 72 -3 62 -3 63 -11 24 -14 -69 -17 -73 -31
-46 -8 13 -11 32 -8 43 2 10 -1 24 -7 32 -17 21 -32 162 -20 187 4 8 2 33 -5
54 -9 25 -11 50 -5 74 5 20 9 60 9 89 0 50 -2 53 -22 50 -13 -2 -23 -7 -23
-13 -1 -20 -18 -60 -31 -75 -7 -9 -18 -37 -24 -64 -6 -27 -15 -56 -19 -65 -16
-30 -20 -188 -5 -208 16 -21 19 -73 4 -73 -5 0 -10 -8 -10 -17 -1 -17 -1 -17
-14 -1 -7 10 -16 15 -19 12 -8 -8 -47 15 -47 29 -1 7 -11 25 -24 41 -18 21
-29 26 -45 21 -21 -6 -29 -25 -11 -25 6 0 13 -7 16 -15 7 -16 -82 -125 -102
-125 -7 0 -15 17 -19 39 -5 30 -10 38 -23 34 -23 -6 -72 13 -72 28 0 16 82 88
101 89 11 0 18 12 23 39 3 21 12 44 20 50 15 12 66 5 66 -9 0 -4 12 -11 28
-15 15 -3 37 -16 50 -28 32 -30 42 -11 42 79 0 44 9 101 24 154 27 90 25 129
-6 169 -23 30 -25 60 -3 41 13 -11 15 -8 15 14 0 25 1 26 16 12 10 -11 12 -21
6 -32 -5 -9 -7 -27 -4 -40 l4 -25 15 21 c9 12 12 31 9 44 -9 35 12 86 32 79
12 -5 14 -2 9 11 -4 10 -1 24 8 32 19 19 19 33 1 40 -9 4 -13 19 -11 49 2 30
0 44 -8 42 -7 -1 -13 13 -15 32 -3 28 -1 33 13 28 24 -10 36 31 19 65 -8 15
-14 42 -14 61 0 37 -15 58 -36 50 -9 -3 -14 2 -14 12 0 21 -55 77 -72 73 -22
-4 -58 21 -52 37 4 8 -6 34 -20 59 -29 49 -25 62 10 39 13 -8 25 -11 25 -7z
m946 -118 c-3 -8 -6 -5 -6 6 -1 11 2 17 5 13 3 -3 4 -12 1 -19z m-1219 -33
c-3 -3 -9 2 -12 12 -6 14 -5 15 5 6 7 -7 10 -15 7 -18z m1540 -4 c-1 -16 -6
-27 -10 -25 -12 7 -10 54 2 54 6 0 9 -13 8 -29z m69 -93 c-3 -8 -6 -5 -6 6 -1
11 2 17 5 13 3 -3 4 -12 1 -19z m-2284 -90 c15 -6 27 -13 27 -17 0 -4 17 -13
38 -20 20 -8 53 -25 72 -37 34 -24 34 -24 9 -24 -15 0 -57 14 -94 31 -83 37
-102 34 -38 -8 58 -38 137 -117 132 -132 -5 -12 -11 -9 -150 71 -53 31 -141
73 -195 93 -55 20 -103 41 -108 46 -16 15 56 10 107 -7 51 -17 101 -16 103 4
1 6 2 15 3 18 1 7 56 -3 94 -18z m974 4 c8 -5 9 -13 3 -22 -19 -30 -10 -60 30
-100 39 -39 52 -65 28 -58 -7 3 -24 21 -37 41 -27 41 -63 56 -86 37 -12 -10
-14 -5 -11 35 2 37 7 49 27 60 30 16 31 16 46 7z m-4163 -48 c19 -7 13 -64
-11 -102 -28 -44 -3 -35 43 16 46 51 67 62 79 43 7 -12 -15 -61 -27 -61 -5 0
-6 -5 -3 -10 4 -6 11 -8 16 -5 5 4 16 -1 25 -10 9 -9 23 -14 30 -11 8 3 14 -1
14 -8 0 -16 66 -28 109 -20 33 7 61 -8 61 -33 0 -16 -14 -15 -94 6 -45 11
-128 -1 -151 -21 -35 -32 -45 -38 -62 -38 -32 0 -44 -16 -50 -61 -3 -25 -16
-57 -29 -72 -34 -40 -30 -47 21 -47 40 0 48 -4 64 -31 11 -17 33 -39 50 -50
27 -16 73 -76 88 -115 3 -8 -3 -16 -13 -20 -11 -3 -31 -12 -46 -20 -36 -19
-72 -18 -92 5 -14 15 -15 24 -7 40 15 27 14 30 -10 24 -16 -5 -19 -11 -14 -30
6 -25 -29 -113 -45 -113 -12 0 -17 44 -8 70 5 13 6 49 2 80 -5 44 -3 59 10 69
21 18 11 31 -23 31 -15 0 -36 6 -46 14 -17 12 -18 16 -5 32 14 16 13 17 -3 11
-43 -16 -68 -19 -81 -7 -12 9 -17 7 -25 -9 -8 -14 -8 -20 0 -23 7 -2 5 -9 -5
-17 -14 -12 -17 -10 -22 18 -5 22 -17 37 -45 53 -21 12 -35 26 -32 31 4 6 1 7
-6 3 -7 -5 -18 0 -26 10 -11 16 -10 21 16 36 33 20 36 30 14 48 -13 10 -15 9
-15 -8 0 -25 -14 -35 -49 -36 -21 -1 -26 -6 -24 -24 3 -20 0 -22 -25 -16 -42
10 -96 34 -103 46 -8 13 22 68 38 68 6 0 15 -4 18 -10 11 -17 23 -11 29 16 4
15 26 46 49 69 23 24 50 55 61 70 15 23 23 26 51 21 27 -5 35 -2 50 20 17 26
33 28 78 9 12 -5 17 -3 17 8 0 30 58 67 105 67 24 0 51 -3 59 -6z m5433 -76
c-3 -7 -5 -2 -5 12 0 14 2 19 5 13 2 -7 2 -19 0 -25z m-540 -89 c-12 -34 -26
-60 -32 -58 -5 2 -9 9 -9 16 2 14 53 103 59 103 2 0 -6 -27 -18 -61z m-40 29
c-3 -8 -6 -5 -6 6 -1 11 2 17 5 13 3 -3 4 -12 1 -19z m573 2 c0 -5 -4 -10 -9
-10 -6 0 -13 5 -16 10 -3 6 1 10 9 10 9 0 16 -4 16 -10z m0 -32 c0 -4 -4 -8
-9 -8 -5 0 -12 -8 -14 -17 -3 -12 -5 -9 -6 8 -1 17 4 26 14 26 8 0 15 -4 15
-9z m-5192 -68 c18 -11 39 -20 47 -20 8 0 15 -4 15 -10 0 -5 -18 -10 -39 -10
-33 0 -43 5 -61 30 -26 36 -11 40 38 10z m4685 -25 c-3 -9 -8 -14 -10 -11 -3
3 -2 9 2 15 9 16 15 13 8 -4z m-27 -21 c-4 -9 -9 -15 -11 -12 -3 3 -3 13 1 22
4 9 9 15 11 12 3 -3 3 -13 -1 -22z m591 -6 c-3 -7 -5 -2 -5 12 0 14 2 19 5 13
2 -7 2 -19 0 -25z m-4768 -8 c24 -17 48 -30 52 -30 5 0 16 -14 24 -31 16 -30
17 -30 36 -13 18 17 19 16 19 -13 0 -17 -6 -36 -14 -42 -24 -20 -14 -117 18
-179 15 -30 25 -56 23 -58 -7 -7 -67 77 -67 93 0 7 -4 13 -8 13 -5 0 -17 17
-28 38 -10 20 -26 48 -36 62 -9 14 -27 46 -40 70 -13 25 -30 55 -38 66 -13 21
-9 54 7 54 4 0 28 -14 52 -30z m234 -12 c34 -24 34 -41 2 -62 -25 -16 -26 -16
-55 16 -32 35 -36 48 -19 65 13 13 32 8 72 -19z m2816 -35 c21 -21 41 -46 44
-56 5 -14 12 -17 29 -11 39 14 78 8 103 -16 l25 -24 41 22 c54 29 95 29 104 1
8 -26 -33 -64 -79 -73 -16 -3 -47 -15 -70 -25 -23 -11 -49 -22 -58 -25 -24 -7
-22 -22 3 -29 19 -5 21 -10 14 -44 -4 -21 -9 -50 -12 -64 -6 -30 21 -47 44
-28 7 7 16 9 19 6 8 -7 -21 -37 -35 -37 -6 0 -8 -6 -6 -12 3 -7 1 -19 -4 -27
-14 -22 -39 3 -43 41 -2 23 -11 35 -36 49 -48 25 -48 26 -19 57 40 42 39 73
-3 94 -19 10 -49 18 -67 18 -32 0 -107 33 -119 51 -9 14 16 39 38 39 10 0 32
-7 48 -15 44 -23 44 -2 0 48 -74 83 -39 136 39 60z m-3145 -12 c38 -22 48 -46
15 -36 -31 10 -70 41 -62 49 9 8 14 7 47 -13z m4793 -13 c-3 -7 -5 -2 -5 12 0
14 2 19 5 13 2 -7 2 -19 0 -25z m-5982 12 c7 -12 -16 -50 -31 -50 -6 0 -18 7
-25 16 -11 14 -10 18 6 30 22 16 41 18 50 4z m3119 -75 c16 -9 36 -13 43 -11
21 8 16 -41 -6 -56 -11 -8 -21 -32 -25 -62 -11 -71 -15 -77 -37 -65 -10 5 -19
16 -19 23 0 21 -59 96 -82 105 -18 7 -16 11 28 44 56 42 59 42 98 22z m-3129
-25 c3 -5 -1 -10 -9 -10 -9 0 -16 5 -16 10 0 6 4 10 9 10 6 0 13 -4 16 -10z
m115 -29 c0 -12 -20 -25 -27 -18 -7 7 6 27 18 27 5 0 9 -4 9 -9z m4099 -39
c47 -43 48 -52 21 -124 -26 -69 -25 -99 5 -132 24 -26 45 -34 45 -17 0 11 38
21 55 15 7 -3 16 -17 20 -31 3 -15 15 -38 26 -51 10 -14 19 -34 19 -46 0 -14
10 -26 30 -34 19 -9 30 -21 30 -34 0 -18 -5 -19 -62 -15 -35 2 -73 7 -85 12
-19 6 -26 2 -40 -24 -10 -18 -24 -29 -31 -26 -7 3 -27 -2 -43 -10 -25 -13 -28
-19 -19 -35 8 -15 17 -19 37 -14 20 5 24 4 19 -7 -3 -8 -9 -22 -12 -31 -4 -10
-10 -18 -15 -18 -5 0 -9 -5 -9 -10 0 -6 10 -8 24 -4 37 9 51 -24 36 -87 -12
-50 -18 -57 -37 -38 -6 6 -26 13 -44 16 -42 6 -45 9 -29 28 20 24 5 30 -40 16
-22 -6 -44 -9 -49 -6 -14 8 -31 65 -20 65 5 0 9 6 9 14 0 8 16 17 37 21 21 4
46 11 55 16 21 11 24 39 5 39 -22 0 -55 34 -58 60 -4 23 -1 25 31 22 19 -2 40
-7 45 -11 17 -12 40 -7 43 11 2 10 19 33 39 53 33 33 35 39 29 77 -4 24 -12
46 -19 50 -20 13 -37 9 -44 -9 -9 -25 -23 -33 -63 -33 -27 0 -51 -12 -99 -50
-36 -28 -68 -50 -71 -50 -17 0 -60 43 -60 60 0 21 36 43 87 54 17 4 36 13 42
20 9 11 1 15 -36 20 -72 10 -75 14 -62 75 13 64 41 86 97 78 l37 -6 0 55 c0
50 3 59 33 85 18 16 36 29 41 29 5 0 27 -17 50 -38z m-4143 -54 c-19 -55 -38
-72 -106 -93 -24 -8 -24 -8 -7 19 11 17 13 26 6 26 -8 0 -6 7 4 18 10 10 17
23 17 29 0 6 17 15 38 21 60 16 61 16 48 -20z m1279 -18 c3 -5 1 -10 -4 -10
-6 0 -11 5 -11 10 0 6 2 10 4 10 3 0 8 -4 11 -10z m-925 -5 c0 -5 -66 -45 -74
-45 -3 0 -6 7 -6 16 0 9 5 12 12 8 7 -5 9 -2 6 7 -4 10 4 14 28 16 19 1 34 0
34 -2z m3929 -71 c13 -11 12 -14 -1 -19 -31 -12 -63 -1 -66 23 -3 20 0 22 25
16 15 -4 34 -13 42 -20z m-2169 -5 c-7 -11 -14 -18 -17 -15 -8 8 5 36 17 36 7
0 7 -6 0 -21z m378 -10 c-8 -5 -27 -26 -43 -49 -29 -42 -45 -51 -45 -25 0 24
69 95 87 88 13 -5 13 -7 1 -14z m-1517 -21 c23 -13 39 -29 39 -40 0 -22 -9
-23 -40 -2 -28 19 -50 44 -50 56 0 12 9 10 51 -14z m-941 -8 c0 -5 -4 -10 -10
-10 -5 0 -10 5 -10 10 0 6 5 10 10 10 6 0 10 -4 10 -10z m1830 -10 c0 -13 -7
-20 -20 -20 -13 0 -20 7 -20 20 0 13 7 20 20 20 13 0 20 -7 20 -20z m4174
-106 c3 -8 2 -12 -4 -9 -6 3 -10 10 -10 16 0 14 7 11 14 -7z m-4240 -36 c-8
-29 -65 -108 -76 -108 -4 0 -8 9 -8 20 0 11 5 20 10 20 6 0 16 12 23 28 10 23
44 60 55 62 2 0 0 -10 -4 -22z m1266 -47 c5 -11 10 -33 10 -48 0 -41 17 -53
76 -53 68 0 102 -13 114 -45 5 -14 14 -25 20 -25 14 0 13 37 -2 46 -7 5 -4 10
11 16 24 9 160 -9 175 -23 6 -5 18 -9 29 -9 10 0 16 -4 13 -9 -3 -5 9 -8 27
-7 22 1 39 -5 53 -21 12 -13 30 -23 40 -23 11 0 28 -7 38 -15 24 -18 18 -18
-60 -4 -64 11 -124 30 -124 39 0 3 -11 6 -25 6 -23 2 -25 -1 -25 -42 0 -50 15
-71 70 -99 18 -10 40 -24 48 -31 7 -8 20 -14 28 -14 20 0 14 -40 -8 -53 -12
-8 -24 -7 -45 3 -47 23 -56 22 -39 -5 9 -14 16 -34 16 -45 0 -20 0 -20 -41 2
-23 13 -44 31 -47 42 -5 17 -12 18 -91 11 -115 -10 -110 -8 -165 -33 -58 -26
-56 -26 -56 -4 0 9 -7 28 -15 42 -33 59 -45 92 -36 108 5 10 11 35 15 57 l7
40 -30 -34 c-27 -31 -35 -35 -85 -36 -36 0 -61 -6 -73 -17 -16 -15 -25 -16
-56 -6 -44 14 -87 -1 -87 -30 0 -17 -8 -20 -61 -21 l-61 -1 6 32 c4 18 8 55
10 81 2 43 8 54 49 94 38 39 48 44 61 34 24 -20 62 -10 58 15 -4 33 41 64 94
64 35 0 46 -5 62 -27 17 -24 22 -25 36 -14 9 8 14 21 11 28 -7 19 12 53 30 53
8 0 19 -9 25 -19z m3080 -22 c0 -6 -4 -7 -10 -4 -5 3 -10 11 -10 16 0 6 5 7
10 4 6 -3 10 -11 10 -16z m-5883 -15 c-3 -3 -12 -4 -19 -1 -8 3 -5 6 6 6 11 1
17 -2 13 -5z m103 -21 c74 -24 49 -27 -30 -4 -36 11 -55 20 -44 20 12 1 45 -7
74 -16z m5800 -11 c0 -15 -2 -15 -10 -2 -13 20 -13 33 0 25 6 -3 10 -14 10
-23z m-1133 -24 c-3 -8 -6 -5 -6 6 -1 11 2 17 5 13 3 -3 4 -12 1 -19z m-4557
2 c13 -9 13 -10 0 -10 -8 0 -22 5 -30 10 -13 9 -13 10 0 10 8 0 22 -5 30 -10z
m4330 -20 c0 -5 -4 -10 -10 -10 -5 0 -10 5 -10 10 0 6 5 10 10 10 6 0 10 -4
10 -10z m-3922 -112 c18 -18 15 -28 -8 -28 -13 0 -20 7 -20 20 0 23 10 26 28
8z m326 -83 c3 -9 0 -15 -9 -15 -8 0 -15 7 -15 15 0 8 4 15 9 15 5 0 11 -7 15
-15z m-731 -2 c-18 -2 -48 -2 -65 0 -18 2 -4 4 32 4 36 0 50 -2 33 -4z m874
-8 c11 -8 24 -27 27 -42 4 -16 9 -36 13 -47 3 -10 1 -17 -5 -15 -9 4 -71 52
-121 96 l-26 22 45 1 c25 0 55 -7 67 -15z m1483 -65 c11 -11 20 -31 20 -44 0
-14 5 -28 10 -31 6 -3 10 4 10 17 0 28 26 68 44 68 7 0 21 -9 31 -20 10 -11
22 -17 28 -13 6 4 8 0 4 -10 -4 -10 -10 -24 -14 -33 -5 -14 0 -15 35 -9 23 4
42 4 42 0 0 -3 -18 -30 -41 -60 -44 -59 -79 -121 -79 -142 0 -24 -30 -26 -54
-4 -12 11 -33 21 -47 21 -36 0 -168 -18 -179 -25 -13 -8 -13 -35 0 -35 6 0 10
-7 10 -15 0 -22 -33 -18 -48 5 -10 17 -8 26 13 60 14 22 30 40 35 40 21 0 8
37 -23 65 -32 30 -39 47 -24 61 4 4 7 20 7 36 0 19 6 30 18 34 9 3 40 16 67
29 61 30 108 32 135 5z m-1640 -10 c0 -5 -5 -10 -11 -10 -5 0 -7 5 -4 10 3 6
8 10 11 10 2 0 4 -4 4 -10z m2895 -16 c31 -14 53 -58 35 -69 -8 -5 -103 61
-108 75 -5 15 36 12 73 -6z m-2865 -4 c0 -5 -2 -10 -4 -10 -3 0 -8 5 -11 10
-3 6 -1 10 4 10 6 0 11 -4 11 -10z m268 -55 c-3 -3 -9 2 -12 12 -6 14 -5 15 5
6 7 -7 10 -15 7 -18z m3904 -31 c3 -12 2 -28 -3 -35 -6 -9 -9 -2 -9 22 0 23
-6 39 -15 43 -8 3 -15 10 -15 16 0 17 37 -23 42 -46z m-2654 -216 c-7 -19 -35
-21 -41 -3 -5 11 0 15 19 15 16 0 24 -5 22 -12z m198 -56 c-9 -8 -26 10 -26
26 1 15 2 15 15 -2 8 -11 13 -21 11 -24z m-68 1 c15 -16 26 -27 24 -26 -2 1
-19 -5 -37 -13 -40 -16 -45 -17 -63 -5 -12 7 -11 14 2 40 20 38 37 39 74 4z
m-2138 1 c0 -9 7 -14 18 -13 20 2 52 -10 52 -20 0 -10 -142 -13 -207 -5 -64 8
-65 23 -2 40 68 18 139 17 139 -2z m4102 -30 c-2 -10 -10 -24 -19 -31 -8 -6
-16 -26 -17 -45 -6 -65 -6 -65 -16 -47 -10 17 0 69 21 118 15 33 36 37 31 5z
m1063 -34 c-4 -28 -9 -49 -12 -47 -2 3 -1 28 3 56 4 28 9 50 11 47 3 -3 2 -28
-2 -56z m-3188 -36 c-3 -3 -12 -4 -19 -1 -8 3 -5 6 6 6 11 1 17 -2 13 -5z
m3170 -56 c-3 -7 -5 -2 -5 12 0 14 2 19 5 13 2 -7 2 -19 0 -25z m-5398 -2 c-9
-8 -99 -13 -99 -5 0 5 23 9 52 9 28 0 49 -2 47 -4z m76 -6 c-3 -5 -18 -10 -33
-10 -21 0 -24 2 -12 10 20 13 53 13 45 0z m5934 -20 c5 -16 8 -30 6 -30 -3 0
-11 14 -20 30 -9 17 -11 30 -6 30 5 0 14 -13 20 -30z m268 -12 c-3 -7 -5 -2
-5 12 0 14 2 19 5 13 2 -7 2 -19 0 -25z m-890 -10 c-3 -8 -6 -5 -6 6 -1 11 2
17 5 13 3 -3 4 -12 1 -19z m-56 -51 c-10 -9 -11 -8 -5 6 3 10 9 15 12 12 3 -3
0 -11 -7 -18z m-121 -5 c0 -10 -7 -19 -14 -19 -11 0 -13 5 -5 19 5 10 12 18
14 18 3 0 5 -8 5 -18z m-810 -2 c0 -5 -5 -10 -11 -10 -5 0 -7 5 -4 10 3 6 8
10 11 10 2 0 4 -4 4 -10z m800 -33 c0 -2 -11 -18 -25 -37 -14 -19 -25 -31 -25
-27 0 5 10 21 22 37 20 27 28 35 28 27z m-381 -148 c-5 -28 -11 -54 -15 -58
-4 -3 -4 9 0 28 3 18 6 44 6 57 0 13 4 24 9 24 4 0 4 -23 0 -51z m307 23 c-17
-16 -18 -16 -5 5 7 12 15 20 18 17 3 -2 -3 -12 -13 -22z m-1076 -35 c0 -5 8
-6 18 -3 37 12 53 -74 17 -88 -8 -3 -15 -14 -15 -25 0 -26 -42 -73 -56 -63
-16 11 -56 111 -60 152 -4 31 -2 36 17 37 12 1 26 6 32 12 10 10 47 -7 47 -22z"/>
<path d="M5627 2803 c-2 -5 5 -21 15 -38 19 -28 20 -28 14 -5 -3 14 -6 31 -6
38 0 13 -16 17 -23 5z"/>
<path d="M5670 2725 c0 -5 5 -17 10 -25 5 -8 10 -10 10 -5 0 6 -5 17 -10 25
-5 8 -10 11 -10 5z"/>
<path d="M5811 1667 c-13 -16 -6 -43 13 -50 8 -3 11 5 10 25 -3 37 -8 42 -23
25z"/>
<path d="M5407 1606 c-3 -8 -3 -17 0 -20 8 -7 43 12 43 24 0 15 -37 12 -43 -4z"/>
<path d="M1102 2198 c3 -19 8 -23 37 -20 35 3 36 -2 17 -49 -5 -10 2 -27 18
-46 19 -23 22 -33 14 -41 -20 -20 1 -13 23 7 17 15 19 27 14 66 -7 60 -6 59
-60 84 -57 27 -67 26 -63 -1z"/>
<path d="M1332 2175 c0 -16 2 -22 5 -12 2 9 2 23 0 30 -3 6 -5 -1 -5 -18z"/>
<path d="M2170 2090 c0 -11 5 -20 10 -20 6 0 10 9 10 20 0 11 -4 20 -10 20 -5
0 -10 -9 -10 -20z"/>
<path d="M5200 1510 c0 -5 5 -10 10 -10 6 0 10 5 10 10 0 6 -4 10 -10 10 -5 0
-10 -4 -10 -10z"/>
<path d="M4010 1365 c-10 -12 -10 -15 4 -15 9 0 16 7 16 15 0 8 -2 15 -4 15
-2 0 -9 -7 -16 -15z"/>
<path d="M3660 1285 c46 -15 57 -14 45 4 -3 6 -25 11 -48 10 l-42 0 45 -14z"/>
<path d="M4000 1295 c0 -15 33 -75 41 -75 11 0 12 31 1 45 -12 16 -42 38 -42
30z"/>
<path d="M4292 1248 c-16 -16 -15 -28 2 -28 16 0 29 27 17 34 -4 3 -13 0 -19
-6z"/>
<path d="M4305 1200 c3 -5 16 -10 28 -9 21 0 21 1 2 9 -28 12 -37 12 -30 0z"/>
<path d="M3627 1045 c3 -14 10 -25 15 -25 13 0 6 43 -8 47 -7 2 -10 -6 -7 -22z"/>
<path d="M2936 6463 c-19 -20 -34 -38 -32 -40 2 -2 25 6 52 18 27 11 65 21 84
21 35 0 60 12 60 29 0 5 -29 9 -64 9 -60 0 -66 -2 -100 -37z"/>
<path d="M6886 6485 c-32 -33 -63 -80 -70 -107 -3 -15 -20 -43 -36 -62 l-31
-34 23 -7 c62 -19 138 -99 138 -146 0 -7 20 -36 45 -65 25 -29 51 -68 57 -86
14 -42 32 -56 63 -50 17 3 27 13 32 31 9 40 40 78 68 85 14 4 41 0 61 -9 23
-9 50 -13 75 -9 49 8 83 -13 99 -60 9 -30 8 -42 -10 -85 -12 -27 -20 -57 -18
-67 3 -18 8 -21 71 -48 41 -17 67 -61 67 -113 1 -34 34 -100 43 -86 4 6 2 25
-4 43 -8 23 -9 47 -1 84 5 28 9 94 8 146 -2 75 -7 103 -24 135 -25 45 -28 92
-7 119 8 11 15 39 15 62 0 31 7 51 24 71 23 26 29 28 93 25 l69 -2 -2 31 c-1
18 -6 34 -11 38 -26 18 -53 68 -53 96 0 25 -8 38 -33 58 l-34 26 -16 -34 c-21
-43 -56 -66 -111 -72 -42 -5 -45 -4 -63 28 -10 19 -20 43 -23 54 -8 27 -65 32
-108 9 -30 -16 -37 -16 -65 -4 -21 9 -80 15 -173 18 -121 3 -144 1 -158 -13z"/>
<path d="M10785 6469 c-22 -16 -50 -37 -62 -45 -12 -9 -40 -49 -62 -89 l-40
-73 14 -49 c8 -26 21 -57 29 -68 20 -26 20 -95 1 -122 -22 -32 -135 -83 -182
-83 -35 0 -41 -4 -71 -50 -22 -33 -41 -84 -58 -152 -13 -57 -29 -120 -35 -140
-7 -30 -6 -44 6 -67 8 -17 15 -37 15 -46 0 -29 39 -73 74 -85 26 -8 38 -21 49
-49 22 -53 37 -63 76 -50 26 9 31 16 31 44 0 74 119 118 157 58 10 -16 20 -30
23 -33 4 -3 23 -24 44 -47 l37 -42 -22 -39 c-20 -34 -21 -42 -10 -56 7 -9 26
-16 42 -16 32 0 39 -19 10 -27 -18 -5 -19 -22 -4 -63 4 -8 5 -19 4 -23 -1 -4
7 -3 18 2 25 14 49 -10 28 -28 -8 -6 -16 -9 -19 -6 -12 12 -94 -28 -134 -65
-57 -52 -110 -55 -172 -10 -47 34 -68 37 -100 14 -34 -23 -30 -73 9 -110 41
-39 64 -78 84 -144 9 -30 24 -70 32 -88 8 -18 13 -40 11 -50 -1 -9 1 -23 6
-30 5 -9 1 -21 -11 -35 -11 -12 -23 -31 -28 -42 -5 -13 -9 -15 -12 -7 -3 9
-14 6 -36 -10 -18 -13 -35 -24 -39 -24 -5 -1 -11 -2 -16 -3 -16 -2 -44 -70
-41 -99 3 -21 -4 -39 -19 -56 -21 -26 -62 -36 -62 -16 0 6 -6 10 -13 10 -8 0
-30 19 -51 41 -28 32 -36 48 -32 68 23 117 28 141 37 146 16 11 10 35 -10 35
-23 0 -45 25 -36 40 4 6 9 47 12 91 l5 79 -36 15 c-47 20 -69 19 -116 -5 -27
-14 -38 -25 -34 -35 4 -8 12 -15 19 -15 11 0 19 -16 57 -107 7 -18 16 -33 20
-33 13 0 9 -80 -6 -108 -31 -59 -135 -86 -144 -37 -2 11 -9 27 -16 35 -25 32
-36 72 -30 112 7 40 50 118 66 118 4 0 8 15 8 33 0 22 -10 42 -31 65 -18 19
-33 48 -37 72 -6 34 -14 45 -47 63 -22 12 -49 38 -59 58 -11 19 -37 45 -58 58
-53 30 -61 57 -53 173 6 85 4 100 -12 125 -10 15 -23 35 -28 44 -6 9 -19 29
-29 44 -15 21 -17 31 -9 44 9 14 5 30 -15 72 l-27 54 -98 2 c-88 2 -102 5
-128 27 -30 25 -67 42 -75 33 -3 -3 -7 -54 -10 -113 -7 -145 -7 -147 -54 -173
-32 -18 -53 -22 -93 -19 l-52 3 0 -61 c0 -43 5 -68 16 -80 41 -48 43 -63 12
-132 -8 -19 -19 -62 -24 -97 -5 -34 -13 -73 -18 -86 -14 -37 -69 -89 -99 -95
-40 -7 -114 33 -131 73 -12 26 -22 34 -65 44 -94 22 -116 43 -116 115 0 33 16
52 69 79 60 30 80 63 81 128 0 50 -4 63 -31 97 -18 22 -36 38 -42 37 -5 -1
-21 14 -34 33 -30 44 -36 46 -70 22 -40 -27 -130 -59 -186 -66 -26 -3 -67 -15
-92 -26 -24 -11 -48 -20 -54 -20 -27 0 -38 -29 -30 -81 5 -29 6 -55 4 -60 -3
-4 -23 -10 -44 -14 -22 -4 -45 -13 -52 -21 -6 -8 -20 -14 -30 -14 -10 0 -22
-7 -27 -16 -11 -19 -76 -43 -120 -44 -41 0 -99 52 -108 97 -3 17 -16 33 -32
41 -35 16 -37 16 -65 -12 -33 -33 -91 -43 -131 -23 -41 20 -102 17 -119 -7
-26 -35 -96 17 -85 62 6 22 -24 45 -47 36 -9 -4 -28 7 -50 29 -37 37 -65 53
-65 37 0 -6 -7 -10 -15 -10 -8 0 -15 7 -15 15 0 8 -9 15 -20 15 -26 0 -25 20
1 54 16 21 20 37 16 74 -4 48 -32 169 -47 209 -5 12 -6 34 -2 50 13 46 4 69
-34 86 -56 27 -65 23 -59 -25 14 -104 13 -114 -9 -168 -22 -54 -23 -55 -63
-56 -41 0 -41 0 -71 65 -17 36 -36 83 -42 104 -13 43 -16 44 -46 16 -20 -19
-26 -20 -58 -9 -19 6 -45 22 -58 35 -35 38 -55 32 -63 -17 -12 -74 -36 -117
-88 -163 -44 -40 -55 -45 -91 -44 -23 1 -54 9 -71 18 -16 8 -39 16 -50 18 -11
2 -27 6 -35 10 -8 3 -21 5 -29 4 -7 -1 -10 2 -7 7 3 6 -1 13 -9 16 -9 3 -18
-1 -21 -9 -4 -8 -17 -15 -30 -15 -13 0 -24 -2 -24 -5 0 -10 55 -90 69 -101 17
-14 27 -109 12 -118 -18 -11 -13 -46 7 -46 33 0 62 12 62 26 0 19 9 18 48 -6
28 -17 32 -23 22 -35 -13 -16 -16 -15 88 -21 23 -1 66 -11 95 -22 76 -28 173
-59 247 -77 64 -16 209 -87 305 -151 52 -35 177 -151 233 -218 19 -22 44 -60
57 -85 13 -25 30 -55 38 -66 14 -19 15 -18 10 10 -2 17 13 -8 33 -55 21 -47
46 -90 55 -97 9 -7 19 -26 22 -42 4 -21 18 -37 48 -54 33 -20 42 -32 44 -56 2
-25 0 -29 -9 -18 -15 19 -46 29 -46 16 0 -6 8 -23 19 -37 10 -15 22 -42 26
-60 8 -37 69 -107 85 -97 5 3 10 -1 10 -10 0 -9 25 -48 55 -87 30 -38 55 -76
55 -83 0 -7 6 -18 14 -24 8 -7 17 -40 21 -74 8 -75 36 -178 47 -171 4 3 5 -1
2 -9 -5 -13 52 -141 88 -197 8 -14 19 -38 22 -53 4 -15 10 -25 15 -22 5 2 12
-2 15 -11 9 -24 7 -28 -9 -14 -20 16 -19 0 1 -28 8 -12 13 -22 10 -22 -2 0 -1
-13 4 -30 5 -19 5 -30 -1 -30 -14 0 -1 -39 22 -69 11 -13 19 -36 19 -52 0 -15
5 -31 10 -34 6 -3 17 -21 26 -38 l16 -32 -31 35 c-17 19 -31 30 -31 25 0 -6 5
-16 12 -23 7 -7 8 -12 3 -12 -5 0 4 -14 21 -32 16 -17 23 -28 17 -24 -18 10
-16 -9 2 -24 8 -7 15 -19 15 -27 0 -17 60 -137 70 -141 4 -2 6 -11 3 -21 -6
-23 76 -213 89 -205 10 6 38 -14 38 -27 0 -5 -7 -6 -15 -3 -21 9 -19 -1 16
-67 18 -32 38 -59 46 -59 8 0 12 -4 8 -10 -3 -5 -12 -7 -20 -4 -9 4 -5 -18 16
-73 16 -43 31 -89 32 -103 2 -17 8 -24 19 -22 9 1 19 -2 23 -8 3 -5 -1 -10 -9
-10 -8 0 -17 -4 -20 -8 -10 -16 83 -289 95 -278 2 2 12 -11 21 -30 10 -19 13
-34 8 -34 -5 0 -2 -9 7 -20 10 -11 25 -20 35 -20 24 0 23 -17 -2 -25 -24 -8
-26 -21 -4 -29 8 -3 13 -10 10 -15 -3 -5 0 -14 8 -20 8 -7 12 -21 9 -31 -3
-11 -1 -26 5 -33 6 -6 15 -38 21 -70 10 -57 38 -117 53 -117 4 0 8 -5 8 -11 0
-6 -6 -9 -14 -6 -21 8 -27 -3 -14 -27 7 -11 11 -24 10 -28 -1 -4 5 -5 13 -2
10 4 15 0 15 -11 0 -12 -6 -16 -20 -12 -16 4 -18 2 -10 -13 5 -10 15 -21 22
-23 10 -4 9 -8 -2 -16 -10 -7 -11 -11 -3 -11 7 0 17 -9 22 -19 9 -16 8 -18
-11 -13 -31 8 -14 -15 25 -33 34 -15 77 -49 77 -60 0 -4 -15 4 -34 19 -42 31
-50 33 -34 5 15 -25 86 -61 102 -52 8 4 8 2 0 -6 -9 -10 -21 -8 -54 9 -44 22
-67 20 -35 -4 10 -7 16 -20 12 -28 -9 -26 19 -56 47 -51 21 4 24 2 19 -16 -3
-11 -2 -29 2 -38 5 -10 7 -23 6 -30 -1 -7 9 -17 21 -24 13 -6 39 -28 59 -48
20 -20 47 -44 60 -53 13 -9 22 -18 19 -21 -7 -8 -103 15 -115 28 -5 5 -22 21
-37 34 -26 23 -27 23 -21 2 3 -11 9 -21 14 -21 5 0 6 -7 3 -15 -4 -9 1 -18 11
-21 9 -4 14 -12 12 -18 -3 -6 20 -29 50 -51 30 -22 49 -41 43 -43 -7 -3 -31 9
-54 25 l-41 29 22 -45 c14 -30 18 -48 11 -52 -7 -4 -1 -17 15 -35 20 -21 24
-32 16 -46 -5 -10 -7 -23 -4 -28 3 -6 1 -10 -4 -10 -15 0 -14 -16 3 -32 7 -8
17 -25 21 -38 4 -14 13 -38 20 -55 7 -16 23 -52 34 -79 l21 -49 -27 29 c-16
16 -34 42 -41 58 -7 16 -15 26 -18 23 -3 -3 6 -28 20 -56 14 -28 22 -51 19
-51 -4 0 7 -15 23 -32 38 -41 67 -88 60 -95 -3 -3 -8 2 -12 11 -3 9 -11 13
-17 9 -6 -3 -7 -1 -3 6 4 6 1 18 -8 26 -10 10 -17 12 -21 4 -5 -6 -12 -4 -21
8 -8 11 -13 13 -14 5 0 -16 68 -82 85 -82 15 0 26 -23 31 -65 3 -27 2 -28 -6
-8 -11 27 -33 31 -28 6 2 -10 13 -22 26 -28 12 -5 23 -17 24 -25 2 -29 4 -35
22 -92 l19 -58 1233 0 1234 0 0 1540 0 1540 -50 0 c-63 0 -117 25 -125 59 -4
15 -2 27 4 29 6 2 11 11 11 20 0 10 16 37 36 62 33 42 35 47 28 97 -8 64 3 81
57 89 l39 7 0 1528 0 1529 -487 -1 -488 -1 -40 -29z m-4355 -959 c0 -5 -2 -10
-4 -10 -3 0 -8 5 -11 10 -3 6 -1 10 4 10 6 0 11 -4 11 -10z m624 -196 c21 -20
20 -32 -3 -70 -16 -26 -24 -31 -48 -26 -33 6 -55 21 -47 33 3 5 1 9 -4 9 -15
0 -24 32 -13 43 5 5 24 11 42 13 18 2 35 6 37 9 9 9 20 5 36 -11z m4426 -42
c13 -38 13 -46 -1 -70 -17 -30 -70 -39 -75 -12 -2 8 -8 34 -15 58 -10 38 -10
44 7 57 11 8 30 14 44 12 20 -1 28 -11 40 -45z m-2860 -27 c24 -29 -15 -105
-41 -78 -14 15 -14 60 0 77 17 20 25 20 41 1z m151 -352 c0 -5 2 -19 5 -31 3
-17 -1 -25 -15 -29 -12 -3 -17 -11 -14 -19 4 -10 -3 -14 -23 -13 -25 0 -26 1
-9 9 11 5 15 9 8 9 -7 1 -10 8 -6 18 4 11 3 14 -5 9 -8 -5 -12 1 -12 18 0 24
12 32 53 35 9 0 17 -2 18 -6z m-912 -611 c1 -7 -3 -10 -9 -7 -5 3 -10 18 -9
33 0 24 1 25 9 7 5 -11 9 -26 9 -33z m1852 -139 c0 -10 2 -27 4 -37 3 -16 2
-17 -10 -5 -22 24 -29 59 -11 59 9 0 16 -8 17 -17z m-581 -413 c17 -16 35 -30
40 -30 4 0 2 -13 -6 -30 -9 -16 -20 -30 -25 -30 -17 0 -24 -2 -44 -16 -27 -19
-52 -17 -75 6 -26 26 -25 44 3 58 12 6 16 11 8 11 -11 1 -11 4 -1 16 7 8 18
15 25 15 7 0 18 7 25 15 16 19 14 20 50 -15z m-863 -334 c-3 -7 0 -19 6 -25 6
-6 7 -11 1 -11 -21 0 -33 22 -21 36 16 17 20 17 14 0z m81 -321 c-3 -3 -9 2
-12 12 -6 14 -5 15 5 6 7 -7 10 -15 7 -18z m2066 -180 c21 -16 15 -29 -29 -67
-27 -24 -32 -23 -50 13 -19 35 -20 33 20 53 36 19 35 19 59 1z m-1332 -922
c26 -23 23 -51 -7 -59 -31 -8 -55 10 -55 41 0 35 33 45 62 18z m27 -74 c-7 -4
-16 -5 -19 -2 -3 3 1 8 8 10 6 3 13 12 13 21 1 14 2 13 6 -2 3 -10 -1 -22 -8
-27z m57 -1226 c-7 -7 -26 7 -26 19 0 6 6 6 15 -2 9 -7 13 -15 11 -17z m169
-503 c3 -6 -1 -7 -9 -4 -18 7 -21 14 -7 14 6 0 13 -4 16 -10z"/>
<path d="M1287 6420 c-4 -18 -9 -19 -33 -10 -36 14 -58 5 -51 -21 5 -17 3 -18
-9 -8 -15 12 -17 9 -27 -35 -1 -5 18 -11 43 -13 25 -3 70 -13 100 -24 30 -11
62 -22 71 -25 12 -4 18 2 23 21 5 21 1 32 -16 49 -13 12 -31 37 -40 54 -19 36
-53 43 -61 12z"/>
<path d="M5537 6356 c-15 -22 -15 -25 0 -30 18 -7 33 9 33 37 0 24 -15 21 -33
-7z"/>
<path d="M1520 6315 c0 -16 6 -25 15 -25 9 0 15 9 15 25 0 16 -6 25 -15 25 -9
0 -15 -9 -15 -25z"/>
<path d="M1074 6315 c22 -17 52 -20 60 -6 7 11 -18 21 -52 21 -26 -1 -26 -1
-8 -15z"/>
<path d="M8315 6310 c-10 -11 -26 -20 -37 -20 -10 0 -36 -5 -57 -12 -31 -10
-41 -19 -49 -44 -9 -32 -9 -33 37 -52 49 -22 71 -16 71 18 0 9 11 29 25 44 27
30 45 59 45 75 0 17 -15 13 -35 -9z"/>
<path d="M5140 6277 c0 -7 14 -28 30 -47 l29 -35 1 32 c0 25 -6 35 -30 47 -21
10 -30 11 -30 3z"/>
<path d="M7920 6239 c-19 -10 -43 -21 -54 -24 -16 -4 -11 -12 30 -52 27 -26
64 -52 82 -59 31 -11 33 -11 73 35 44 50 48 63 23 67 -23 3 -82 33 -89 44 -8
14 -24 11 -65 -11z"/>
<path d="M592 6163 c15 -9 30 -26 33 -37 5 -16 8 -17 12 -7 6 15 -42 61 -62
61 -5 0 2 -8 17 -17z"/>
<path d="M1480 6115 c0 -8 5 -15 10 -15 6 0 10 7 10 15 0 8 -4 15 -10 15 -5 0
-10 -7 -10 -15z"/>
<path d="M6477 6078 c3 -18 6 -33 7 -34 1 -1 16 5 35 13 l34 14 -32 20 c-44
26 -51 24 -44 -13z"/>
<path d="M1488 6070 c-7 -24 -3 -38 8 -28 3 4 4 17 2 30 l-3 23 -7 -25z"/>
<path d="M8306 6038 c-7 -33 5 -55 23 -44 12 8 14 36 5 60 -10 25 -21 19 -28
-16z"/>
<path d="M665 6019 c1 -14 13 -26 35 -35 l34 -15 -20 23 c-48 56 -51 58 -49
27z"/>
<path d="M1442 6018 c-19 -19 -14 -28 18 -28 32 0 42 23 14 34 -20 8 -18 8
-32 -6z"/>
<path d="M7905 6011 c-47 -19 -74 -79 -99 -214 -14 -72 -10 -83 28 -73 16 4
33 -1 51 -15 l26 -22 50 54 c38 41 52 50 61 41 7 -7 24 -12 38 -12 25 0 26 3
28 59 2 39 -2 64 -10 71 -7 6 -23 19 -35 29 -12 10 -27 30 -32 44 -7 17 -18
27 -30 27 -11 0 -23 5 -26 10 -7 12 -22 12 -50 1z"/>
<path d="M6415 5979 c-4 -6 -5 -13 -2 -16 7 -7 27 6 27 18 0 12 -17 12 -25 -2z"/>
<path d="M826 5961 c-19 -7 -31 -61 -14 -61 4 0 15 -14 24 -32 9 -18 23 -38
30 -46 25 -24 8 -67 -22 -55 -9 3 -14 -2 -14 -15 0 -30 -15 -34 -36 -11 -29
33 -51 41 -72 28 -23 -15 -18 -69 7 -69 9 0 31 -9 50 -21 33 -20 35 -20 82 -2
42 14 55 15 82 5 35 -13 36 -13 69 47 14 26 23 31 53 31 26 0 35 4 35 17 0 9
9 26 20 38 l21 22 -26 17 c-26 17 -27 17 -62 -11 -49 -39 -95 -62 -113 -55
-32 11 -50 36 -50 68 0 35 -27 115 -39 113 -3 0 -15 -4 -25 -8z"/>
<path d="M6383 5831 c-21 -18 -22 -21 -9 -82 7 -34 15 -58 18 -53 7 11 22 154
17 154 -2 -1 -14 -9 -26 -19z"/>
<path d="M6555 5826 c-18 -13 -18 -14 3 -20 26 -8 42 -1 42 20 0 18 -21 18
-45 0z"/>
<path d="M6450 5682 c0 -5 5 -13 12 -20 16 -16 29 -15 22 2 -6 16 -34 30 -34
18z"/>
<path d="M8948 5626 c-25 -19 -23 -47 3 -43 24 4 39 24 32 44 -6 16 -13 16
-35 -1z"/>
<path d="M9010 5500 c0 -10 -7 -23 -15 -28 -13 -7 -14 -14 -6 -35 9 -22 17
-27 46 -27 40 0 41 4 19 59 -17 44 -44 63 -44 31z"/>
<path d="M22 5460 c-32 -13 -27 -35 18 -80 22 -22 40 -47 40 -55 0 -10 10 -15
28 -15 36 0 54 13 46 33 -4 11 0 19 10 23 9 3 16 11 16 17 0 6 7 19 17 29 18
20 10 39 -9 20 -19 -19 -58 -14 -90 13 -32 27 -41 29 -76 15z"/>
<path d="M5741 5354 c0 -11 3 -14 6 -6 3 7 2 16 -1 19 -3 4 -6 -2 -5 -13z"/>
<path d="M6040 5276 c0 -2 7 -9 15 -16 9 -7 15 -8 15 -2 0 5 -7 12 -15 16 -8
3 -15 4 -15 2z"/>
<path d="M210 5145 c0 -8 -5 -15 -10 -15 -6 0 -18 -17 -28 -37 -9 -21 -23 -43
-31 -49 -11 -9 -10 -18 8 -58 12 -25 26 -44 31 -41 5 3 8 32 7 65 -2 52 1 62
26 87 30 32 36 63 12 63 -8 0 -15 -7 -15 -15z"/>
<path d="M360 5045 c0 -8 5 -15 10 -15 6 0 10 7 10 15 0 8 -4 15 -10 15 -5 0
-10 -7 -10 -15z"/>
<path d="M50 4884 c-6 -14 -7 -32 -3 -39 13 -22 56 19 48 45 -9 28 -34 25 -45
-6z"/>
<path d="M6216 4867 c3 -10 9 -15 12 -12 3 3 0 11 -7 18 -10 9 -11 8 -5 -6z"/>
<path d="M0 4705 c0 -59 2 -65 20 -65 26 0 36 25 22 53 -6 12 -13 34 -16 50
-11 50 -26 28 -26 -38z"/>
<path d="M6433 4741 c8 -23 13 -28 15 -16 2 10 -3 25 -12 33 -14 15 -15 13 -3
-17z"/>
<path d="M6040 4738 c0 -9 5 -20 10 -23 13 -8 13 5 0 25 -8 13 -10 13 -10 -2z"/>
<path d="M6061 4644 c0 -11 3 -14 6 -6 3 7 2 16 -1 19 -3 4 -6 -2 -5 -13z"/>
<path d="M6165 4641 c-3 -11 -1 -30 5 -41 6 -11 8 -25 5 -30 -12 -19 6 -48 36
-60 29 -12 54 -6 34 8 -6 4 -12 16 -13 27 -5 25 -42 104 -52 110 -5 3 -11 -4
-15 -14z"/>
<path d="M6520 4641 c0 -5 5 -13 10 -16 6 -3 10 -2 10 4 0 5 -4 13 -10 16 -5
3 -10 2 -10 -4z"/>
<path d="M5954 4589 c0 -10 6 -19 13 -19 7 0 13 4 13 9 0 5 -6 13 -13 19 -10
8 -13 6 -13 -9z"/>
<path d="M6090 4593 c0 -12 -7 -23 -15 -27 -8 -3 -15 -1 -15 5 0 6 -5 7 -11 3
-14 -8 -1 -20 33 -28 27 -6 27 -5 21 26 -7 40 -13 49 -13 21z"/>
<path d="M6542 4570 c0 -28 13 -76 35 -130 52 -126 54 -131 49 -89 -2 19 -14
56 -26 82 -12 26 -20 54 -17 62 4 8 2 17 -3 20 -6 4 -10 0 -11 -7 -1 -16 -17
22 -18 42 -1 13 0 13 9 0 17 -27 16 -5 -1 30 l-17 35 0 -45z"/>
<path d="M5715 4580 c-3 -6 1 -7 9 -4 18 7 21 14 7 14 -6 0 -13 -4 -16 -10z"/>
<path d="M6010 4580 c0 -5 5 -10 10 -10 6 0 10 5 10 10 0 6 -4 10 -10 10 -5 0
-10 -4 -10 -10z"/>
<path d="M6137 4560 c-7 -26 -4 -34 11 -29 4 2 5 15 2 29 l-6 25 -7 -25z"/>
<path d="M5760 4552 c0 -6 -11 -22 -24 -35 -16 -16 -21 -29 -16 -38 10 -16 10
-16 33 35 10 21 15 41 12 44 -3 3 -5 0 -5 -6z"/>
<path d="M6950 4534 c0 -6 7 -19 16 -30 14 -18 14 -18 3 6 -14 31 -19 36 -19
24z"/>
<path d="M5930 4512 c0 -36 38 -161 59 -196 12 -20 20 -39 18 -44 -3 -4 10
-34 29 -67 20 -33 32 -49 28 -35 -4 14 -9 34 -10 45 -3 39 -16 101 -40 185
-13 46 -24 94 -24 107 0 19 -5 23 -30 23 -22 0 -30 -5 -30 -18z m17 -14 c-3
-8 -6 -5 -6 6 -1 11 2 17 5 13 3 -3 4 -12 1 -19z"/>
<path d="M5575 4479 c-56 -63 -77 -119 -83 -224 -4 -78 -1 -98 18 -143 29 -67
54 -83 68 -44 6 15 13 45 17 67 4 22 10 45 15 50 4 6 10 48 14 95 3 47 9 101
12 120 l5 35 -22 -25 c-11 -14 -39 -60 -60 -102 -22 -43 -42 -78 -45 -78 -9 0
5 104 21 156 7 23 29 63 50 88 47 57 40 60 -10 5z"/>
<path d="M5767 4503 c-14 -50 -15 -69 -7 -83 8 -12 10 -10 10 8 0 15 5 22 13
19 6 -2 11 -14 10 -26 -2 -11 1 -21 6 -21 5 0 8 24 7 54 0 30 -3 52 -5 50 -2
-2 -10 1 -17 7 -9 7 -14 5 -17 -8z m23 -12 c0 -6 -4 -13 -10 -16 -5 -3 -10 1
-10 9 0 9 5 16 10 16 6 0 10 -4 10 -9z"/>
<path d="M7003 4478 c2 -7 7 -24 11 -38 6 -23 6 -23 -9 3 -9 16 -19 26 -22 23
-8 -8 7 -116 17 -116 15 0 19 -44 5 -71 -13 -24 -13 -29 1 -40 13 -11 14 -9 9
14 -11 43 9 31 34 -20 30 -62 74 -132 84 -133 12 0 8 42 -8 88 -9 24 -17 51
-18 62 -2 10 -8 24 -13 32 -6 7 -16 32 -23 56 -6 23 -16 42 -21 42 -6 0 -10 8
-10 19 0 22 -28 91 -36 91 -3 0 -4 -6 -1 -12z"/>
<path d="M5872 4410 c0 -19 2 -27 5 -17 2 9 2 25 0 35 -3 9 -5 1 -5 -18z"/>
<path d="M6498 4419 c6 -7 12 -24 12 -38 0 -18 3 -22 11 -14 14 14 3 49 -19
58 -14 5 -15 4 -4 -6z"/>
<path d="M5762 4378 c0 -13 -1 -30 -3 -38 -2 -8 2 -14 9 -12 8 1 11 -2 7 -8
-3 -5 -12 -10 -20 -10 -10 0 -13 -9 -10 -31 2 -21 0 -29 -8 -26 -7 3 -13 -6
-14 -20 l-1 -25 32 31 c46 45 55 38 12 -9 -40 -44 -44 -52 -21 -44 13 5 14 2
5 -21 -17 -44 -11 -52 16 -20 30 34 25 23 -24 -53 -56 -88 -129 -116 -187 -70
-15 12 -41 49 -57 82 -23 49 -27 54 -22 26 8 -41 75 -136 104 -145 11 -3 20
-11 20 -16 0 -5 12 -9 26 -9 14 0 33 -9 42 -20 13 -16 36 -23 97 -29 50 -6 82
-6 86 0 3 5 13 7 22 3 10 -4 17 -1 17 6 0 7 7 10 15 7 8 -4 27 6 43 23 27 27
29 33 21 73 -4 25 -21 72 -38 106 -16 34 -25 59 -20 56 5 -4 6 1 3 9 -3 9 -11
13 -16 10 -6 -4 -7 2 -3 16 5 15 4 20 -4 16 -6 -4 -11 -1 -11 7 0 8 -6 20 -13
26 -11 9 -18 3 -32 -29 -10 -22 -25 -46 -33 -52 -8 -7 0 16 18 51 25 50 31 72
26 99 -6 39 -26 65 -33 45 -7 -18 -33 -16 -33 2 0 8 -4 15 -9 15 -5 0 -9 -10
-9 -22z m55 -33 c0 -8 -4 -12 -9 -9 -4 3 -8 9 -8 15 0 5 4 9 8 9 5 0 9 -7 9
-15z"/>
<path d="M5890 4351 c0 -24 68 -166 76 -158 5 5 -61 165 -72 176 -2 2 -4 -6
-4 -18z"/>
<path d="M6527 4356 c-3 -7 -1 -18 5 -24 5 -5 10 -54 10 -108 l0 -99 13 58
c16 73 20 77 22 21 1 -26 -3 -44 -9 -44 -6 0 -3 -8 6 -19 17 -19 14 -71 -5
-71 -12 0 -11 7 3 30 12 19 5 40 -9 26 -11 -11 -7 -132 9 -231 l14 -90 8 48
c5 33 4 53 -5 63 -9 12 -9 23 0 52 9 26 9 45 3 63 -6 15 -7 31 -1 40 6 10 9 5
9 -18 0 -35 16 -45 23 -15 2 9 2 6 0 -8 -13 -71 -14 -98 -5 -104 14 -9 26 129
17 195 -8 60 -42 159 -54 159 -5 0 -14 20 -21 45 -13 46 -24 56 -33 31z m57
-338 c6 -28 2 -48 -8 -37 -8 10 -15 69 -7 69 5 0 11 -14 15 -32z"/>
<path d="M5420 4317 c-16 -8 -27 -24 -31 -47 -3 -19 -11 -48 -18 -64 -6 -16
-10 -31 -8 -33 3 -2 25 19 51 48 32 36 46 60 46 80 0 32 -4 34 -40 16z"/>
<path d="M6631 4294 c0 -11 3 -14 6 -6 3 7 2 16 -1 19 -3 4 -6 -2 -5 -13z"/>
<path d="M6702 4280 c0 -14 2 -19 5 -12 2 6 2 18 0 25 -3 6 -5 1 -5 -13z"/>
<path d="M6970 4291 c0 -5 5 -13 10 -16 6 -3 10 -2 10 4 0 5 -4 13 -10 16 -5
3 -10 2 -10 -4z"/>
<path d="M6923 4271 c0 -11 5 -17 9 -15 11 7 10 34 -1 34 -6 0 -9 -9 -8 -19z"/>
<path d="M6956 4203 c9 -38 14 -42 14 -10 0 14 -5 29 -10 32 -7 4 -8 -3 -4
-22z"/>
<path d="M7042 4190 c0 -14 2 -19 5 -12 2 6 2 18 0 25 -3 6 -5 1 -5 -13z"/>
<path d="M5311 4124 c0 -11 3 -14 6 -6 3 7 2 16 -1 19 -3 4 -6 -2 -5 -13z"/>
<path d="M5705 4090 c-10 -11 -16 -22 -13 -25 3 -3 13 6 22 20 20 30 16 32 -9
5z"/>
<path d="M401 4056 c-10 -12 -8 -13 8 -9 12 3 21 9 21 14 0 14 -16 11 -29 -5z"/>
<path d="M5605 4061 c3 -5 1 -12 -5 -16 -6 -4 -8 -11 -5 -16 8 -12 36 -11 55
1 13 8 12 11 -5 24 -22 17 -49 21 -40 7z"/>
<path d="M7171 4054 c0 -11 3 -14 6 -6 3 7 2 16 -1 19 -3 4 -6 -2 -5 -13z"/>
<path d="M7950 4030 c11 -38 54 -114 57 -103 2 5 -8 35 -21 65 -28 63 -50 86
-36 38z"/>
<path d="M6943 3998 c0 -18 2 -27 5 -20 2 6 8 9 14 6 8 -5 -5 29 -17 44 -1 1
-2 -13 -2 -30z"/>
<path d="M6230 4001 c-12 -23 -1 -60 24 -80 17 -14 46 -68 46 -85 0 -6 -5 -4
-10 4 -7 11 -10 11 -10 2 0 -7 -4 -11 -10 -7 -5 3 -7 12 -4 20 5 13 -33 61
-42 52 -3 -2 4 -28 15 -57 11 -28 23 -76 27 -106 3 -30 10 -54 15 -54 5 0 9
-11 9 -24 0 -14 4 -27 8 -30 4 -2 9 -19 10 -36 2 -19 -2 -29 -8 -25 -7 4 -7
-2 0 -19 6 -17 6 -26 -3 -29 -7 -2 -9 -8 -5 -12 4 -4 11 -4 17 0 16 9 4 340
-15 383 -8 19 -14 45 -14 59 0 13 -4 22 -9 18 -12 -7 -33 29 -24 39 3 3 3 6 0
6 -3 0 -11 -9 -17 -19z"/>
<path d="M6980 3906 c0 -8 4 -17 9 -20 5 -4 7 3 4 14 -6 23 -13 26 -13 6z"/>
<path d="M7208 3874 c6 -11 19 -27 28 -35 16 -13 16 -12 6 7 -6 11 -19 27 -28
35 -16 13 -16 12 -6 -7z"/>
<path d="M6611 3864 c0 -11 3 -14 6 -6 3 7 2 16 -1 19 -3 4 -6 -2 -5 -13z"/>
<path d="M6552 3763 c0 -57 2 -70 8 -50 11 36 11 115 0 122 -5 3 -8 -30 -8
-72z"/>
<path d="M6050 3759 c7 -11 14 -19 16 -16 7 7 -7 37 -17 37 -6 0 -5 -9 1 -21z"/>
<path d="M8031 3755 c0 -5 6 -21 14 -35 8 -14 14 -20 14 -15 0 6 -6 21 -14 35
-8 14 -14 21 -14 15z"/>
<path d="M8061 3663 c11 -34 19 -42 19 -20 0 7 -7 22 -15 33 -13 17 -14 16 -4
-13z"/>
<path d="M8095 3590 c4 -14 14 -32 22 -40 12 -12 11 -7 -2 20 -22 45 -29 52
-20 20z"/>
<path d="M6426 3462 c-10 -17 -18 -87 -8 -77 5 6 13 27 16 48 6 35 3 47 -8 29z"/>
<path d="M7131 3414 c0 -11 3 -14 6 -6 3 7 2 16 -1 19 -3 4 -6 -2 -5 -13z"/>
<path d="M6928 3415 c-7 -7 15 -95 25 -95 5 0 5 -9 2 -21 -4 -13 0 -27 11 -40
19 -21 43 -27 27 -6 -6 6 -11 19 -11 27 -3 34 -11 67 -26 103 -17 38 -19 41
-28 32z"/>
<path d="M6361 3394 c0 -11 3 -14 6 -6 3 7 2 16 -1 19 -3 4 -6 -2 -5 -13z"/>
<path d="M7180 3396 c0 -17 14 -29 23 -20 8 8 -3 34 -14 34 -5 0 -9 -6 -9 -14z"/>
<path d="M6281 3284 c0 -11 3 -14 6 -6 3 7 2 16 -1 19 -3 4 -6 -2 -5 -13z"/>
<path d="M6962 3215 c2 -11 11 -30 20 -43 14 -21 16 -21 22 -6 5 12 -2 26 -19
43 -23 24 -25 24 -23 6z"/>
<path d="M7360 3226 c0 -2 8 -10 18 -17 15 -13 16 -12 3 4 -13 16 -21 21 -21
13z"/>
<path d="M7020 3145 c1 -26 2 -28 11 -12 8 14 8 22 0 30 -8 8 -11 3 -11 -18z"/>
<path d="M7414 3159 c5 -26 18 -49 27 -49 15 0 10 20 -10 42 -11 11 -18 14
-17 7z"/>
<path d="M6995 3108 c-3 -18 -7 -45 -8 -60 -1 -14 -5 -24 -8 -22 -4 2 -10 -3
-13 -12 -9 -23 -7 -31 3 -15 8 12 11 9 16 -12 7 -26 8 -26 20 -10 10 13 12 39
8 88 -3 39 -6 71 -8 73 -1 2 -6 -12 -10 -30z"/>
<path d="M7425 3080 c3 -5 8 -10 11 -10 2 0 4 5 4 10 0 6 -5 10 -11 10 -5 0
-7 -4 -4 -10z"/>
<path d="M7500 3083 c0 -7 5 -15 10 -18 6 -3 10 -17 10 -31 0 -14 4 -22 10
-19 6 3 7 -1 4 -9 -3 -9 -1 -16 5 -16 19 0 12 35 -14 70 -14 19 -25 29 -25 23z"/>
<path d="M7432 3040 c0 -14 2 -19 5 -12 2 6 2 18 0 25 -3 6 -5 1 -5 -13z"/>
<path d="M7121 3030 c0 -8 4 -24 9 -35 5 -13 9 -14 9 -5 0 8 -4 24 -9 35 -5
13 -9 14 -9 5z"/>
<path d="M7570 3024 c0 -6 7 -19 16 -30 14 -18 14 -18 3 6 -14 31 -19 36 -19
24z"/>
<path d="M7430 2990 c0 -5 5 -10 11 -10 5 0 7 5 4 10 -3 6 -8 10 -11 10 -2 0
-4 -4 -4 -10z"/>
<path d="M7601 2929 c-1 -9 8 -27 19 -40 10 -13 19 -19 20 -12 0 6 -5 15 -11
18 -6 4 -14 17 -19 29 -6 15 -9 16 -9 5z"/>
<path d="M6645 2881 c-3 -6 -4 -11 -2 -11 2 0 1 -18 -3 -40 -4 -22 -4 -37 1
-35 9 6 23 84 16 91 -3 3 -8 1 -12 -5z"/>
<path d="M7537 2819 c7 -7 15 -10 18 -7 3 3 -2 9 -12 12 -14 6 -15 5 -6 -5z"/>
<path d="M7021 2784 c0 -11 3 -14 6 -6 3 7 2 16 -1 19 -3 4 -6 -2 -5 -13z"/>
<path d="M7022 2710 c0 -14 2 -19 5 -12 2 6 2 18 0 25 -3 6 -5 1 -5 -13z"/>
<path d="M6915 2708 c-3 -7 2 -38 10 -68 14 -53 14 -53 9 -10 -3 25 -7 55 -7
68 -2 25 -6 28 -12 10z"/>
<path d="M7036 2637 c3 -10 9 -15 12 -12 3 3 0 11 -7 18 -10 9 -11 8 -5 -6z"/>
<path d="M7532 2634 c10 -10 20 -15 24 -12 3 4 -5 12 -18 18 -22 12 -22 12 -6
-6z"/>
<path d="M6496 2625 c-9 -26 -7 -32 5 -12 6 10 9 21 6 23 -2 3 -7 -2 -11 -11z"/>
<path d="M6991 2624 c0 -11 3 -14 6 -6 3 7 2 16 -1 19 -3 4 -6 -2 -5 -13z"/>
<path d="M6782 2605 c0 -16 2 -22 5 -12 2 9 2 23 0 30 -3 6 -5 -1 -5 -18z"/>
<path d="M7525 2610 c3 -5 1 -18 -5 -29 -6 -12 -6 -22 -1 -25 5 -3 7 -23 4
-44 -4 -28 0 -42 16 -59 12 -12 21 -27 21 -33 0 -5 5 -10 11 -10 6 0 7 8 3 23
-4 12 -8 32 -9 44 -1 12 -7 29 -15 38 -7 8 -10 18 -6 22 12 12 26 -13 30 -54
2 -23 9 -49 16 -60 9 -15 10 -11 6 22 -4 28 -2 35 4 25 11 -16 11 -15 15 18 2
16 -2 21 -11 18 -9 -4 -14 2 -15 17 -1 37 -9 71 -19 81 -9 9 -15 -12 -11 -36
2 -13 -6 -9 -20 9 -10 11 -10 14 -1 9 7 -4 12 -2 12 7 0 8 -7 18 -16 21 -8 3
-12 2 -9 -4z"/>
<path d="M6709 2598 c0 -2 -2 -46 -5 -98 -3 -70 -2 -90 6 -77 6 9 9 21 5 26
-3 5 -1 21 4 34 7 18 7 27 -2 30 -9 3 -9 10 1 31 15 33 16 56 2 56 -5 0 -10
-1 -11 -2z"/>
<path d="M6496 2575 c4 -8 8 -15 10 -15 2 0 4 7 4 15 0 8 -4 15 -10 15 -5 0
-7 -7 -4 -15z"/>
<path d="M6471 2554 c0 -11 3 -14 6 -6 3 7 2 16 -1 19 -3 4 -6 -2 -5 -13z"/>
<path d="M7012 2550 c0 -14 2 -19 5 -12 2 6 2 18 0 25 -3 6 -5 1 -5 -13z"/>
<path d="M7041 2554 c0 -11 3 -14 6 -6 3 7 2 16 -1 19 -3 4 -6 -2 -5 -13z"/>
<path d="M6526 2551 c-4 -7 -5 -15 -2 -18 9 -9 19 4 14 18 -4 11 -6 11 -12 0z"/>
<path d="M6488 2527 c-3 -19 -2 -25 4 -19 6 6 8 18 6 28 -3 14 -5 12 -10 -9z"/>
<path d="M7601 2547 c2 -1 12 -9 22 -16 14 -12 17 -11 17 3 0 10 -8 16 -22 16
-12 0 -19 -1 -17 -3z"/>
<path d="M8110 2533 c0 -17 78 -108 89 -105 7 1 10 -2 7 -6 -3 -5 6 -22 19
-38 14 -16 25 -32 25 -35 0 -4 7 -10 16 -13 13 -5 15 -1 10 20 -4 14 -16 35
-26 47 -11 11 -20 26 -20 31 0 6 -8 20 -17 31 -15 20 -15 20 -10 -2 9 -38 -16
-26 -46 22 -29 45 -47 64 -47 48z"/>
<path d="M6461 2514 c0 -11 3 -14 6 -6 3 7 2 16 -1 19 -3 4 -6 -2 -5 -13z"/>
<path d="M8522 2463 c25 -56 29 -73 20 -95 -7 -18 -6 -30 1 -37 17 -17 27 -13
27 9 0 11 -6 20 -12 20 -10 0 -10 2 0 8 15 10 -1 63 -38 125 -33 56 -32 45 2
-30z"/>
<path d="M6801 2504 c0 -11 3 -14 6 -6 3 7 2 16 -1 19 -3 4 -6 -2 -5 -13z"/>
<path d="M7026 2484 c-4 -17 -2 -41 3 -55 9 -20 10 -17 5 16 -8 50 2 43 15
-11 l9 -39 1 41 c1 22 -5 49 -13 59 -13 18 -14 17 -20 -11z"/>
<path d="M8476 2493 c21 -65 47 -118 51 -106 5 13 -41 123 -51 123 -3 0 -3 -8
0 -17z"/>
<path d="M6470 2474 c0 -8 5 -12 10 -9 6 3 10 10 10 16 0 5 -4 9 -10 9 -5 0
-10 -7 -10 -16z"/>
<path d="M7740 2469 c-8 -11 -23 -30 -32 -41 -24 -28 -33 -86 -20 -120 10 -27
-1 -42 -11 -15 -3 6 -6 1 -6 -13 -1 -14 6 -35 14 -46 8 -12 12 -23 10 -26 -3
-2 9 -20 25 -39 l30 -34 -12 30 c-6 17 -17 36 -22 44 -9 12 -7 12 12 2 23 -12
23 -12 8 18 -18 34 -20 45 -6 36 17 -11 32 73 20 111 -6 18 -15 36 -20 39 -5
3 -7 12 -4 20 4 8 10 13 15 10 4 -3 6 -12 2 -20 -3 -8 -1 -15 5 -15 15 0 22
25 14 54 l-7 26 -15 -21z"/>
<path d="M6441 2434 c0 -11 3 -14 6 -6 3 7 2 16 -1 19 -3 4 -6 -2 -5 -13z"/>
<path d="M7278 2413 c-3 -10 0 -30 5 -43 11 -25 11 -24 15 9 4 37 -12 64 -20
34z"/>
<path d="M8225 2320 c3 -5 10 -10 16 -10 5 0 9 5 9 10 0 6 -7 10 -16 10 -8 0
-12 -4 -9 -10z"/>
<path d="M7060 2312 c0 -16 32 -103 37 -99 5 5 -27 107 -33 107 -2 0 -4 -4 -4
-8z"/>
<path d="M8280 2310 l-25 -8 28 -1 c15 -1 27 4 27 9 0 6 -1 10 -2 9 -2 -1 -14
-5 -28 -9z"/>
<path d="M8297 2245 c15 -20 35 -34 43 -33 17 4 27 48 11 48 -6 0 -8 -7 -5
-15 4 -8 1 -15 -5 -15 -6 0 -11 8 -11 19 0 11 -9 21 -22 25 -39 10 -40 7 -11
-29z"/>
<path d="M7055 2238 c4 -13 11 -27 16 -33 5 -5 4 5 -2 23 -12 36 -24 44 -14
10z"/>
<path d="M7030 2211 c0 -18 33 -86 37 -75 2 6 -3 27 -12 47 -15 35 -25 47 -25
28z"/>
<path d="M7950 2200 c0 -5 5 -10 11 -10 5 0 7 5 4 10 -3 6 -8 10 -11 10 -2 0
-4 -4 -4 -10z"/>
<path d="M8361 2184 c0 -11 3 -14 6 -6 3 7 2 16 -1 19 -3 4 -6 -2 -5 -13z"/>
<path d="M6639 2183 c-6 -60 -6 -118 1 -140 6 -20 9 -4 9 60 1 48 -1 87 -4 87
-3 0 -5 -3 -6 -7z"/>
<path d="M6971 2140 c-1 -14 -4 -40 -7 -59 -2 -19 0 -39 6 -46 6 -7 8 -20 4
-29 -3 -9 -2 -16 4 -16 11 0 22 35 21 70 0 23 -1 23 -9 5 -6 -15 -9 -4 -12 40
-2 33 -5 49 -7 35z"/>
<path d="M7980 2152 c0 -14 35 -34 44 -25 3 3 6 2 6 -3 0 -6 -5 -15 -12 -22
-9 -9 -9 -12 0 -12 7 0 12 5 12 11 0 5 5 7 10 4 6 -3 5 6 -2 20 -7 15 -14 22
-16 16 -3 -8 -10 -7 -23 5 -10 9 -19 12 -19 6z"/>
<path d="M8060 2155 c0 -5 5 -17 10 -25 5 -8 10 -10 10 -5 0 6 -5 17 -10 25
-5 8 -10 11 -10 5z"/>
<path d="M7036 2075 c4 -22 11 -45 16 -52 6 -7 4 -13 -4 -15 -10 -4 -10 -10
-1 -29 l12 -24 1 25 c1 14 3 34 5 44 2 11 -5 36 -16 55 l-19 36 6 -40z"/>
<path d="M7389 2066 c38 -40 43 -43 35 -23 -3 8 -19 24 -37 37 l-32 23 34 -37z"/>
<path d="M8030 2071 c0 -6 5 -13 10 -16 6 -3 10 1 10 9 0 9 -4 16 -10 16 -5 0
-10 -4 -10 -9z"/>
<path d="M8117 2015 c9 -19 18 -33 21 -31 4 5 -26 66 -33 66 -3 0 3 -16 12
-35z"/>
<path d="M7370 2034 c0 -16 57 -67 61 -55 2 5 28 -10 58 -35 29 -24 56 -42 59
-39 7 6 -22 33 -63 59 -16 11 -36 28 -43 38 -15 20 -37 25 -26 6 4 -7 -5 -2
-19 11 -15 14 -27 20 -27 15z"/>
<path d="M7070 1995 c0 -5 5 -17 10 -25 5 -8 10 -10 10 -5 0 6 -5 17 -10 25
-5 8 -10 11 -10 5z"/>
<path d="M8090 1995 c0 -13 32 -66 36 -62 6 6 -23 67 -31 67 -3 0 -5 -2 -5 -5z"/>
<path d="M7004 1938 c1 -32 -1 -58 -6 -58 -10 0 -1 -58 12 -75 11 -15 20 -136
9 -129 -11 7 -1 -46 12 -60 4 -5 5 1 2 14 -4 16 -3 21 5 16 7 -4 12 -15 12
-24 0 -10 11 -29 25 -44 14 -15 25 -33 25 -39 0 -7 3 -9 7 -5 4 3 13 -4 20
-16 8 -16 12 -18 13 -7 0 18 -27 106 -41 132 -6 10 -7 28 -4 40 4 15 3 18 -3
9 -8 -11 -10 -11 -15 1 -3 7 3 20 13 27 20 15 20 55 0 87 -10 16 -11 14 -7 -9
2 -15 0 -25 -4 -22 -13 8 -11 -10 3 -24 19 -19 1 -26 -24 -10 -23 15 -54 118
-36 118 5 0 6 9 3 21 -4 11 -11 42 -16 67 l-8 47 3 -57z"/>
<path d="M7031 1934 c0 -11 3 -14 6 -6 3 7 2 16 -1 19 -3 4 -6 -2 -5 -13z"/>
<path d="M7060 1935 c0 -8 5 -15 10 -15 6 0 10 7 10 15 0 8 -4 15 -10 15 -5 0
-10 -7 -10 -15z"/>
<path d="M7080 1879 c0 -15 7 -32 15 -39 20 -17 20 5 0 40 l-14 25 -1 -26z"/>
<path d="M7565 1890 c3 -5 8 -10 11 -10 2 0 4 5 4 10 0 6 -5 10 -11 10 -5 0
-7 -4 -4 -10z"/>
<path d="M7616 1866 c3 -9 11 -16 16 -16 13 0 5 23 -10 28 -7 2 -10 -2 -6 -12z"/>
<path d="M6809 1855 c-1 -5 -3 -30 -4 -55 l-1 -45 14 34 c10 25 11 40 3 55 -5
12 -11 17 -12 11z"/>
<path d="M8160 1851 c0 -6 4 -13 10 -16 6 -3 7 1 4 9 -7 18 -14 21 -14 7z"/>
<path d="M7062 1820 c0 -19 2 -27 5 -17 2 9 2 25 0 35 -3 9 -5 1 -5 -18z"/>
<path d="M7040 1781 c0 -6 4 -13 10 -16 6 -3 7 1 4 9 -7 18 -14 21 -14 7z"/>
<path d="M7240 1739 c0 -5 4 -8 9 -5 5 3 12 -11 16 -31 8 -42 81 -193 94 -193
5 0 11 -18 15 -39 3 -22 11 -43 18 -47 7 -5 8 -3 3 6 -6 9 -4 11 4 6 7 -5 10
-13 8 -20 -3 -6 4 -27 14 -46 22 -43 24 -21 4 46 -8 27 -15 58 -15 69 0 11 -9
28 -20 38 -12 10 -18 22 -15 28 4 5 -3 42 -15 82 -23 74 -39 102 -47 80 -2 -7
-14 -2 -30 13 -28 26 -43 30 -43 13z m95 -60 c11 -17 -1 -21 -15 -4 -8 9 -8
15 -2 15 6 0 14 -5 17 -11z m4 -69 c15 0 33 -52 21 -64 -7 -7 -10 -2 -10 16 0
14 -7 31 -15 38 -8 7 -14 20 -14 29 1 13 2 13 6 -1 2 -10 8 -18 12 -18z"/>
<path d="M7467 1649 c3 -11 10 -19 17 -18 24 3 37 -1 31 -11 -3 -5 -12 -7 -20
-3 -22 8 -18 -20 5 -45 12 -12 16 -22 11 -22 -7 0 -7 -9 1 -25 6 -14 15 -25
20 -25 5 0 6 -5 3 -10 -4 -6 0 -43 9 -83 8 -40 18 -87 21 -104 13 -82 56 -239
75 -278 5 -11 33 -83 61 -160 28 -77 58 -152 65 -167 8 -16 10 -28 5 -28 -5 0
3 -37 16 -82 36 -120 53 -241 58 -418 2 -85 4 -158 5 -162 0 -5 119 -8 264 -8
l264 0 11 48 c5 26 13 61 16 78 9 48 9 240 -1 255 -4 7 -8 44 -9 81 -1 38 -7
74 -13 80 -7 7 -12 34 -12 60 0 52 -15 65 -23 21 -3 -16 -11 -52 -19 -81 -9
-29 -12 -55 -8 -57 4 -2 6 -28 5 -57 -5 -135 -4 -131 -19 -119 -12 10 -15 8
-18 -10 -2 -12 -8 -24 -14 -26 -8 -3 -8 16 3 64 21 99 11 208 -32 367 -6 21
-6 21 9 2 9 -11 16 -32 16 -47 0 -33 16 -47 24 -22 8 28 -1 184 -13 222 -12
39 -34 62 -87 90 -42 23 -74 27 -74 10 0 -12 40 -72 52 -77 4 -2 8 -10 8 -19
0 -8 -30 13 -71 51 -71 66 -89 77 -89 54 0 -7 -5 -5 -12 5 -7 9 -35 24 -62 35
-32 12 -45 22 -37 27 7 4 18 2 24 -4 15 -15 57 -14 57 2 0 7 -26 44 -57 82
-75 89 -125 155 -127 169 -1 6 -5 17 -10 24 -4 7 -5 16 -2 19 3 3 -1 21 -9 40
-8 20 -16 59 -16 87 -2 49 -2 49 -10 -19 -4 -38 -4 -86 0 -107 5 -20 7 -53 4
-73 -2 -21 2 -54 9 -74 7 -20 12 -40 13 -46 0 -5 7 -10 15 -10 9 0 14 -8 12
-19 -2 -11 1 -15 7 -11 7 3 8 0 5 -9 -4 -10 5 -20 26 -31 18 -9 30 -19 27 -21
-6 -7 -77 36 -77 46 0 5 -6 15 -14 23 -8 7 -24 44 -35 81 -22 71 -25 138 -12
264 4 40 4 76 1 81 -5 8 -126 51 -154 55 -7 1 -24 9 -37 19 -18 12 -19 15 -5
10 15 -5 18 -3 13 10 -5 14 -1 14 44 1 28 -9 71 -26 97 -40 l47 -25 -28 24
c-39 33 -174 86 -218 86 -31 -1 -36 -4 -32 -20z m621 -792 c28 -117 25 -359
-7 -497 -34 -145 -44 -193 -56 -270 l-13 -85 0 65 c0 36 4 84 9 108 5 24 12
62 14 85 3 23 13 70 21 104 9 35 13 69 11 75 -3 8 -6 6 -6 -4 -1 -10 -6 -18
-12 -18 -7 0 -9 10 -4 28 16 66 16 221 0 336 -9 65 -14 120 -12 123 3 2 12
-29 20 -69 l16 -73 -4 78 c-4 87 4 91 23 14z m169 -9 c-3 -8 -6 -5 -6 6 -1 11
2 17 5 13 3 -3 4 -12 1 -19z m33 -613 c0 -8 -4 -15 -10 -15 -5 0 -10 7 -10 15
0 8 5 15 10 15 6 0 10 -7 10 -15z"/>
<path d="M6441 1554 c0 -11 3 -14 6 -6 3 7 2 16 -1 19 -3 4 -6 -2 -5 -13z"/>
<path d="M6445 1508 c-4 -13 -9 -32 -10 -43 -2 -11 -6 -33 -10 -49 -7 -26 -6
-28 11 -21 10 4 29 10 42 12 15 4 22 13 22 29 0 12 -4 25 -9 28 -5 4 -7 -2 -4
-13 3 -10 0 -22 -6 -26 -8 -4 -11 8 -9 40 2 53 -15 79 -27 43z"/>
<path d="M7800 1510 c0 -5 11 -12 24 -16 26 -6 68 -49 59 -58 -4 -3 -2 -16 4
-29 6 -12 16 -36 23 -54 7 -18 19 -38 26 -44 12 -10 14 -3 8 47 -4 32 -12 65
-18 73 -9 12 -8 13 7 8 39 -14 13 12 -45 46 -63 37 -88 45 -88 27z"/>
<path d="M7350 1449 c0 -19 43 -132 62 -164 18 -30 26 -19 9 13 -6 9 -22 50
-36 90 -26 69 -35 85 -35 61z"/>
<path d="M6360 1441 c0 -6 5 -13 10 -16 6 -3 10 1 10 9 0 9 -4 16 -10 16 -5 0
-10 -4 -10 -9z"/>
<path d="M7821 1434 c0 -11 3 -14 6 -6 3 7 2 16 -1 19 -3 4 -6 -2 -5 -13z"/>
<path d="M7979 1401 c16 -12 20 -20 12 -25 -7 -5 -9 -12 -3 -19 14 -19 60
-177 66 -228 3 -25 10 -57 15 -71 5 -14 7 -28 5 -31 -9 -9 34 -28 71 -31 19
-2 42 -9 50 -16 9 -7 18 -10 22 -6 10 10 9 85 -2 83 -5 -1 -13 16 -18 38 -5
22 -14 50 -20 62 -6 13 -8 26 -4 29 21 21 -162 234 -201 234 -14 0 -12 -4 7
-19z m162 -176 c8 -16 6 -15 -10 4 -12 13 -21 28 -21 35 0 12 14 -5 31 -39z"/>
<path d="M6491 1374 c-10 -23 -31 -25 -31 -3 0 6 4 8 9 4 5 -3 12 -1 16 5 8
13 -11 13 -38 -1 -28 -15 -38 -30 -33 -49 13 -50 16 -91 7 -85 -6 3 -11 16
-12 28 -1 20 -2 20 -9 -3 -11 -36 -11 -52 0 -45 6 3 10 2 10 -4 0 -6 6 -8 14
-5 11 4 10 -4 -4 -33 -11 -21 -21 -58 -24 -83 -5 -41 -4 -43 9 -26 8 11 15 28
15 37 0 10 4 20 9 24 10 6 3 -26 -18 -78 -14 -37 -14 -41 3 -24 13 12 56 123
56 143 0 4 -8 0 -17 -7 -15 -12 -16 -12 -8 6 4 11 8 29 9 40 1 11 5 26 10 33
5 8 4 18 -2 24 -17 17 6 65 34 72 15 4 24 14 24 26 0 30 -16 32 -29 4z"/>
<path d="M8855 1360 c3 -5 11 -10 16 -10 6 0 7 5 4 10 -3 6 -11 10 -16 10 -6
0 -7 -4 -4 -10z"/>
<path d="M8870 1330 c0 -5 5 -10 11 -10 5 0 7 5 4 10 -3 6 -8 10 -11 10 -2 0
-4 -4 -4 -10z"/>
<path d="M6325 1273 c-8 -20 -13 -38 -10 -41 3 -3 5 -3 5 0 0 3 7 22 15 42 8
20 13 36 10 36 -2 0 -12 -16 -20 -37z"/>
<path d="M6295 1289 c-4 -6 -5 -12 -2 -15 2 -3 7 2 10 11 7 17 1 20 -8 4z"/>
<path d="M6480 1284 c0 -8 5 -12 10 -9 6 3 10 10 10 16 0 5 -4 9 -10 9 -5 0
-10 -7 -10 -16z"/>
<path d="M7247 1275 c6 -32 11 -41 17 -34 2 2 -2 18 -10 34 l-13 30 6 -30z"/>
<path d="M6777 1200 c3 -30 9 -62 13 -69 10 -19 0 77 -11 104 -4 11 -5 -4 -2
-35z"/>
<path d="M7295 1185 c8 -45 12 -55 25 -55 10 0 -8 71 -22 85 -7 7 -8 -3 -3
-30z"/>
<path d="M6635 1153 c3 -26 11 -73 17 -103 6 -30 10 -65 10 -77 0 -13 4 -20 9
-17 10 6 10 163 0 209 -4 18 -14 31 -24 33 -17 3 -18 -1 -12 -45z"/>
<path d="M7331 1104 c0 -11 3 -14 6 -6 3 7 2 16 -1 19 -3 4 -6 -2 -5 -13z"/>
<path d="M7341 1073 c-1 -6 3 -14 8 -18 5 -3 12 -18 16 -34 3 -16 12 -35 20
-41 11 -9 12 -7 8 12 -2 13 -7 30 -10 38 -4 8 -5 18 -5 23 1 4 -4 7 -12 7 -8
0 -17 6 -19 13 -4 9 -6 9 -6 0z"/>
<path d="M7400 946 c0 -7 7 -19 15 -26 12 -10 15 -9 15 8 0 11 -7 22 -15 26
-9 3 -15 0 -15 -8z"/>
<path d="M6741 873 c0 -25 1 -26 9 -8 12 27 12 35 0 35 -5 0 -10 -12 -9 -27z"/>
<path d="M7450 858 c11 -18 20 -43 20 -54 0 -12 7 -27 15 -34 12 -10 13 -8 6
17 -16 53 -40 103 -50 103 -6 0 -2 -15 9 -32z"/>
<path d="M6672 830 c0 -14 2 -19 5 -12 2 6 2 18 0 25 -3 6 -5 1 -5 -13z"/>
<path d="M9050 832 c6 -13 14 -21 18 -18 3 4 -2 14 -12 24 -18 16 -18 16 -6
-6z"/>
<path d="M6738 782 c-3 -31 -9 -66 -13 -77 -7 -19 -6 -19 8 1 18 23 31 120 18
129 -5 2 -11 -21 -13 -53z"/>
<path d="M7680 810 c0 -8 5 -22 10 -30 9 -13 10 -13 10 0 0 8 -5 22 -10 30 -9
13 -10 13 -10 0z"/>
<path d="M7700 735 c0 -8 4 -15 10 -15 5 0 7 7 4 15 -4 8 -8 15 -10 15 -2 0
-4 -7 -4 -15z"/>
<path d="M8332 690 c0 -19 2 -27 5 -17 2 9 2 25 0 35 -3 9 -5 1 -5 -18z"/>
<path d="M8312 600 c0 -14 2 -19 5 -12 2 6 2 18 0 25 -3 6 -5 1 -5 -13z"/>
<path d="M8487 390 c1 -44 7 -97 12 -117 6 -21 11 -45 11 -53 0 -13 -1 -13
-11 0 -8 11 -9 9 -3 -10 11 -37 17 -190 7 -190 -4 0 -9 32 -9 71 -1 39 -6 75
-13 82 -6 6 -11 20 -11 31 0 38 -10 9 -20 -60 -5 -38 -13 -86 -16 -107 l-7
-37 162 0 c98 0 160 4 156 9 -3 5 -1 12 4 16 5 3 10 13 9 23 0 9 3 43 6 75 5
44 4 57 -5 51 -9 -5 -10 1 -6 24 4 19 -1 51 -13 86 -11 30 -20 63 -20 72 0 10
-3 14 -7 11 -3 -4 -6 -28 -5 -54 1 -27 -3 -55 -8 -63 -6 -10 -10 -11 -10 -2 0
6 -4 12 -10 12 -5 0 -10 -11 -10 -25 0 -14 -5 -25 -11 -25 -11 0 -9 -18 7 -67
4 -13 0 -12 -17 7 l-22 25 7 -29 c6 -25 5 -28 -7 -17 -8 6 -20 25 -27 41 -8
18 -20 30 -31 30 -23 0 -25 -28 -3 -45 15 -11 15 -12 1 -18 -21 -8 -41 72 -21
88 7 7 9 17 4 25 -4 8 -11 34 -15 57 -4 24 -10 45 -15 48 -4 3 -6 14 -3 24 5
21 -14 91 -25 91 -4 0 -6 -36 -5 -80z"/>
<path d="M8781 434 c0 -11 3 -14 6 -6 3 7 2 16 -1 19 -3 4 -6 -2 -5 -13z"/>
<path d="M8701 404 c0 -11 3 -14 6 -6 3 7 2 16 -1 19 -3 4 -6 -2 -5 -13z"/>
<path d="M8781 224 c0 -11 3 -14 6 -6 3 7 2 16 -1 19 -3 4 -6 -2 -5 -13z"/>
<path d="M8798 127 c-5 -10 -8 -35 -7 -55 0 -35 1 -35 10 -12 6 13 9 38 7 55
-2 24 -4 26 -10 12z"/>
<path d="M8895 130 c3 -5 8 -10 11 -10 2 0 4 5 4 10 0 6 -5 10 -11 10 -5 0 -7
-4 -4 -10z"/>
<path d="M8886 55 c-4 -17 -1 -31 8 -40 17 -18 24 -5 18 37 -5 35 -18 36 -26
3z"/>
</g>
</svg>
