<?xml version="1.0" standalone="no"?>
<!DOCTYPE svg PUBLIC "-//W3C//DTD SVG 20010904//EN"
 "http://www.w3.org/TR/2001/REC-SVG-20010904/DTD/svg10.dtd">
<svg version="1.0" xmlns="http://www.w3.org/2000/svg"
 width="640.000000pt" height="640.000000pt" viewBox="0 0 640.000000 640.000000"
 preserveAspectRatio="xMidYMid meet">

<g transform="translate(0.000000,640.000000) scale(0.100000,-0.100000)"
fill="#000000" stroke="none">
<path d="M0 6374 c0 -19 4 -24 18 -20 9 3 61 8 114 11 53 4 116 13 140 20 40
13 33 14 -114 14 l-158 1 0 -26z"/>
<path d="M4522 6392 c-43 -2 -65 -7 -69 -17 -6 -18 -69 -21 -75 -4 -4 11 -138
20 -138 9 0 -3 -8 -6 -17 -6 -10 0 -54 -4 -98 -8 -44 -5 -88 -8 -97 -8 -10 0
-18 -3 -18 -9 0 -5 12 -9 26 -9 22 0 25 -2 14 -15 -10 -12 -9 -15 6 -16 11 0
13 -3 7 -6 -7 -2 -27 3 -44 11 -39 19 -95 20 -128 2 l-23 -13 23 -7 c13 -4 88
-10 166 -13 110 -4 164 -2 239 12 75 13 105 15 133 7 20 -6 94 -13 164 -15 78
-2 132 -8 139 -15 9 -9 4 -12 -20 -12 -21 0 -32 -5 -32 -14 0 -19 -60 -25
-138 -15 -35 5 -67 7 -71 4 -4 -2 -43 -7 -87 -11 -43 -4 -81 -8 -83 -10 -4 -4
484 -7 1457 -8 l452 -1 0 -672 0 -673 38 0 c23 0 32 -3 24 -9 -7 -4 -24 -6
-38 -3 l-24 4 1 -165 c0 -159 1 -165 22 -175 l22 -11 -22 0 c-17 -1 -21 -7
-21 -31 l1 -30 76 0 c42 0 83 -5 91 -10 10 -7 -14 -10 -78 -10 l-93 0 3 -27
c3 -27 3 -27 96 -29 l92 -3 0 45 0 44 -52 2 c-29 0 -65 0 -80 -1 -14 -1 -29 3
-33 9 -5 8 17 11 77 9 70 -2 83 0 86 14 3 14 -5 17 -42 17 -25 0 -46 5 -46 10
0 6 20 10 45 10 l45 0 0 940 0 940 -908 -2 c-499 -1 -935 -4 -970 -6z m1838
-1822 c0 -5 -10 -10 -22 -9 -22 0 -22 1 -3 9 11 5 21 9 23 9 1 1 2 -3 2 -9z"/>
<path d="M3780 6340 c0 -5 7 -10 15 -10 8 0 15 5 15 10 0 6 -7 10 -15 10 -8 0
-15 -4 -15 -10z"/>
<path d="M3840 6340 c-11 -7 -4 -10 25 -9 31 0 36 2 20 9 -26 11 -28 11 -45 0z"/>
<path d="M3813 6283 c15 -2 37 -2 50 0 12 2 0 4 -28 4 -27 0 -38 -2 -22 -4z"/>
<path d="M4178 6243 c12 -2 30 -2 40 0 9 3 -1 5 -23 4 -22 0 -30 -2 -17 -4z"/>
<path d="M3340 6219 c-18 -5 -10 -7 28 -8 28 -1 52 1 52 3 0 8 -56 12 -80 5z"/>
<path d="M3787 6213 c18 -2 50 -2 70 0 21 2 7 4 -32 4 -38 0 -55 -2 -38 -4z"/>
<path d="M5277 6184 c-2 -2 -514 -5 -1138 -5 -695 0 -1142 -4 -1154 -10 -19
-9 -18 -9 3 -5 12 2 22 0 22 -4 0 -14 -41 -23 -53 -11 -6 6 -18 11 -26 11 -11
0 -8 -5 8 -16 19 -14 42 -16 142 -11 70 3 121 2 124 -4 4 -5 -1 -9 -10 -9 -15
0 -15 -2 -1 -15 8 -8 21 -15 28 -16 7 0 4 -4 -7 -9 -17 -7 -17 -9 -2 -9 10 -1
17 -9 17 -21 0 -19 7 -20 153 -21 83 -1 163 -5 177 -9 21 -7 22 -8 5 -9 -19
-2 -19 -2 -2 -12 10 -6 34 -9 53 -7 20 2 34 0 34 -7 0 -6 3 -6 8 1 10 16 148
34 245 33 70 -1 76 -2 42 -10 -22 -4 -78 -8 -124 -8 -121 -1 -92 -13 41 -17
101 -3 206 -10 293 -20 37 -4 194 -19 300 -29 50 -5 83 -13 88 -21 4 -8 17
-14 27 -14 13 0 17 -5 14 -14 -7 -19 -35 -25 -56 -12 -13 8 -24 7 -38 -2 -12
-7 -57 -12 -115 -12 -55 0 -94 -4 -91 -9 15 -24 -7 -41 -53 -41 -53 0 -87 -19
-78 -42 4 -12 0 -14 -14 -11 -10 3 -16 10 -12 16 3 6 1 7 -6 3 -9 -6 -9 -11 0
-22 10 -12 9 -13 -4 -9 -8 4 -18 1 -22 -5 -5 -8 16 -10 81 -6 55 3 88 9 87 15
-2 6 2 11 7 11 6 0 10 -6 10 -14 0 -10 20 -16 75 -21 86 -8 99 -21 25 -24 -30
-1 -50 3 -50 9 0 6 -5 8 -11 5 -6 -4 -56 -9 -112 -10 -56 -2 -122 -9 -147 -15
-66 -15 -138 -23 -122 -12 11 8 11 10 -2 15 -10 4 -16 1 -16 -9 0 -24 -363
-15 -434 10 -35 13 -59 15 -85 10 l-36 -8 50 -6 50 -7 -52 -1 c-29 -1 -53 2
-53 6 0 14 -62 13 -79 -2 -11 -10 -42 -14 -104 -13 -55 0 -84 3 -75 9 7 4 42
8 78 7 93 -1 100 0 100 11 0 6 -37 11 -87 12 -78 1 -82 2 -38 8 l50 7 -40 3
c-92 8 -145 7 -145 -1 0 -5 -13 -9 -30 -9 -16 0 -30 -4 -30 -8 0 -5 -14 -6
-31 -4 -22 3 -30 1 -25 -7 4 -6 1 -11 -8 -11 -9 0 -16 -4 -16 -9 0 -5 -48 -9
-107 -9 -60 0 -164 -5 -233 -12 -69 -7 -154 -11 -190 -9 -36 2 -168 2 -295 -1
-322 -7 -1476 -6 -1677 1 l-168 6 0 -228 0 -228 52 -4 53 -3 -52 -2 -53 -2 0
-164 c0 -148 2 -165 18 -169 16 -4 16 -5 0 -6 -16 -1 -18 -17 -18 -182 l0
-181 34 6 c20 4 37 2 41 -4 4 -6 -9 -10 -34 -10 l-41 0 0 -481 c0 -317 3 -478
10 -474 5 3 10 12 10 19 0 10 56 93 90 133 5 7 10 17 10 24 0 16 33 69 43 69
4 0 -9 -30 -29 -67 -21 -38 -42 -77 -48 -88 -24 -43 -66 -104 -76 -110 -6 -4
-10 -59 -10 -143 1 -124 2 -135 15 -112 8 14 14 33 15 42 0 9 3 18 8 20 4 2
21 24 38 50 17 26 34 44 38 41 3 -4 0 -13 -8 -22 -8 -9 -35 -55 -60 -103 -38
-73 -46 -97 -46 -141 0 -51 2 -55 35 -72 19 -11 33 -21 31 -23 -2 -2 -18 4
-35 13 l-31 16 0 -1436 0 -1435 2990 0 2990 0 0 1973 c0 1521 -3 1976 -12
1985 -9 9 -9 12 0 12 7 0 12 6 12 13 0 9 -10 12 -31 9 -22 -3 -30 -1 -25 7 4
6 18 11 32 11 23 0 24 3 24 69 l0 68 -82 6 c-118 10 -220 8 -214 -2 3 -5 -1
-11 -9 -15 -8 -3 -15 -10 -15 -16 0 -6 5 -8 10 -5 6 3 10 2 10 -4 0 -11 -29
-22 -50 -18 -64 12 -88 43 -34 43 19 0 38 4 44 10 6 6 3 10 -10 10 -11 0 -20
-3 -20 -6 0 -4 -14 -5 -31 -2 -21 3 -29 9 -27 21 2 10 11 15 23 12 11 -2 107
-6 213 -8 l192 -5 0 25 0 25 -197 6 c-109 4 -247 8 -306 10 -59 2 -113 8 -118
13 -7 7 60 9 212 5 165 -4 220 -2 215 7 -4 6 -1 11 8 11 9 0 16 -4 16 -10 0
-5 14 -10 31 -10 20 0 28 4 23 12 -4 7 -3 8 5 4 19 -12 89 -18 71 -6 -12 8 -9
10 13 10 16 0 27 5 27 14 0 14 -6 15 -185 29 -22 2 11 4 73 5 l112 2 0 835 0
835 -454 -1 c-250 -1 -457 -3 -459 -5z m-129 -21 c-10 -2 -26 -2 -35 0 -10 3
-2 5 17 5 19 0 27 -2 18 -5z m-1080 -10 c-10 -2 -26 -2 -35 0 -10 3 -2 5 17 5
19 0 27 -2 18 -5z m-761 -79 c-3 -3 -12 -4 -19 -1 -8 3 -5 6 6 6 11 1 17 -2
13 -5z m-40 -10 c-3 -3 -12 -4 -19 -1 -8 3 -5 6 6 6 11 1 17 -2 13 -5z m603
-4 c10 -7 -15 -10 -80 -11 -156 -3 -264 2 -274 12 -13 12 335 11 354 -1z
m1290 -299 c0 -10 -24 -21 -43 -21 -7 0 -3 7 7 15 22 17 36 19 36 6z m-953 -7
c-3 -3 -12 -4 -19 -1 -8 3 -5 6 6 6 11 1 17 -2 13 -5z m103 -4 c0 -5 -4 -10
-10 -10 -5 0 -10 5 -10 10 0 6 5 10 10 10 6 0 10 -4 10 -10z m763 -17 c-7 -2
-21 -2 -30 0 -10 3 -4 5 12 5 17 0 24 -2 18 -5z m-943 -43 c0 -5 -4 -10 -10
-10 -5 0 -10 5 -10 10 0 6 5 10 10 10 6 0 10 -4 10 -10z m35 0 c3 -5 1 -10 -4
-10 -6 0 -11 5 -11 10 0 6 2 10 4 10 3 0 8 -4 11 -10z m-1137 -17 c-27 -2 -69
-2 -95 0 -27 2 -5 3 47 3 52 0 74 -1 48 -3z m-210 -300 c-10 -2 -26 -2 -35 0
-10 3 -2 5 17 5 19 0 27 -2 18 -5z m-321 -69 c-3 -3 -12 -4 -19 -1 -8 3 -5 6
6 6 11 1 17 -2 13 -5z m-1002 -84 c4 -6 -31 -10 -97 -9 -67 0 -96 3 -83 9 28
12 173 12 180 0z m-405 -4 c0 -11 -19 -15 -25 -6 -3 5 1 10 9 10 9 0 16 -2 16
-4z m533 -13 c-7 -2 -19 -2 -25 0 -7 3 -2 5 12 5 14 0 19 -2 13 -5z m-833 -16
c-14 -6 -28 -16 -32 -21 -4 -6 -13 -4 -24 5 -16 13 -14 15 22 20 58 9 61 9 34
-4z m1367 -13 c-3 -3 -12 -4 -19 -1 -8 3 -5 6 6 6 11 1 17 -2 13 -5z m50 0
c-3 -3 -12 -4 -19 -1 -8 3 -5 6 6 6 11 1 17 -2 13 -5z m1076 -21 c-7 -2 -21
-2 -30 0 -10 3 -4 5 12 5 17 0 24 -2 18 -5z m75 0 c-10 -2 -26 -2 -35 0 -10 3
-2 5 17 5 19 0 27 -2 18 -5z m-1601 -9 c-3 -3 -12 -4 -19 -1 -8 3 -5 6 6 6 11
1 17 -2 13 -5z m107 -3 c3 -5 -3 -11 -13 -14 -14 -3 -18 -1 -14 9 6 16 19 18
27 5z m246 -1 c0 -9 -218 -6 -227 4 -2 2 48 4 111 5 74 1 116 -2 116 -9z
m-1152 -7 c-10 -2 -26 -2 -35 0 -10 3 -2 5 17 5 19 0 27 -2 18 -5z m275 0 c-7
-2 -21 -2 -30 0 -10 3 -4 5 12 5 17 0 24 -2 18 -5z m67 -3 c0 -5 -4 -10 -10
-10 -5 0 -10 5 -10 10 0 6 5 10 10 10 6 0 10 -4 10 -10z m704 -12 c-3 -4 -23
-8 -45 -8 -22 0 -38 3 -35 8 2 4 22 7 44 7 23 1 38 -3 36 -7z m-924 -6 c29 -3
32 -5 15 -12 -26 -10 -96 -14 -205 -11 -80 2 -83 3 -50 14 32 11 154 15 240 9z
m290 -2 c0 -5 -4 -10 -10 -10 -5 0 -10 5 -10 10 0 6 5 10 10 10 6 0 10 -4 10
-10z m1765 0 c-3 -5 -13 -10 -21 -10 -8 0 -12 5 -9 10 3 6 13 10 21 10 8 0 12
-4 9 -10z m50 0 c-27 -12 -43 -12 -25 0 8 5 22 9 30 9 10 0 8 -3 -5 -9z m230
2 c-6 -4 -53 -5 -105 -2 l-95 6 105 2 c57 1 100 -2 95 -6z m70 -1 c-3 -6 -14
-9 -25 -8 -24 2 -15 17 11 17 11 0 18 -4 14 -9z m-2995 -19 c0 -4 -18 -6 -40
-4 -22 2 -40 6 -40 8 0 2 18 4 40 4 22 0 40 -3 40 -8z m123 1 c-7 -2 -19 -2
-25 0 -7 3 -2 5 12 5 14 0 19 -2 13 -5z m47 -3 c0 -5 -2 -10 -4 -10 -3 0 -8 5
-11 10 -3 6 -1 10 4 10 6 0 11 -4 11 -10z m1313 3 c-7 -2 -19 -2 -25 0 -7 3
-2 5 12 5 14 0 19 -2 13 -5z m-411 -25 c-5 -5 -27 -8 -48 -6 -37 4 -38 4 -15
14 28 12 77 6 63 -8z m1418 5 c2 -2 -64 -3 -148 -2 -84 0 -152 5 -152 10 0 8
290 1 300 -8z m-1233 1 c-3 -3 -12 -4 -19 -1 -8 3 -5 6 6 6 11 1 17 -2 13 -5z
m1713 -13 c0 -11 -15 -13 -82 -8 -46 4 -102 7 -125 7 -24 0 -43 5 -43 11 0 7
40 9 125 7 99 -2 125 -6 125 -17z m68 12 c-10 -2 -28 -2 -40 0 -13 2 -5 4 17
4 22 1 32 -1 23 -4z m-2881 -9 c-3 -3 -12 -4 -19 -1 -8 3 -5 6 6 6 11 1 17 -2
13 -5z m836 -21 c-13 -2 -35 -2 -50 0 -16 2 -5 4 22 4 28 0 40 -2 28 -4z
m1027 3 c0 -2 -7 -6 -15 -10 -8 -3 -15 -1 -15 4 0 6 7 10 15 10 8 0 15 -2 15
-4z m30 -6 c0 -5 -4 -10 -10 -10 -5 0 -10 5 -10 10 0 6 5 10 10 10 6 0 10 -4
10 -10z m419 -16 c2 -2 -12 -4 -32 -4 -20 0 -37 4 -37 10 0 8 58 3 69 -6z
m-2013 -41 c-7 -7 -77 -5 -85 2 -2 3 17 5 44 5 27 0 45 -3 41 -7z m839 -13 c3
-5 1 -10 -4 -10 -6 0 -11 5 -11 10 0 6 2 10 4 10 3 0 8 -4 11 -10z m-948 -32
c-2 -7 -11 -13 -20 -13 -8 0 -19 -4 -23 -8 -4 -4 -13 -2 -21 5 -11 9 -13 8
-11 -3 2 -10 -7 -14 -29 -15 -18 0 -36 -3 -39 -7 -12 -11 -104 -8 -104 4 0 6
8 8 18 5 10 -4 32 4 52 19 29 20 47 24 108 25 55 0 73 -3 69 -12z m4893 8 c0
-3 -4 -8 -10 -11 -5 -3 -10 -1 -10 4 0 6 5 11 10 11 6 0 10 -2 10 -4z m-5183
-32 c-7 -8 -87 -7 -95 0 -3 3 19 6 48 6 29 0 51 -3 47 -6z m14 -37 c-11 -12
-23 -18 -26 -15 -9 9 27 48 38 41 5 -3 0 -15 -12 -26z m3157 -4 c6 -9 16 -14
25 -10 9 3 19 2 22 -3 11 -18 -40 -10 -65 10 -20 15 -21 20 -8 20 9 0 21 -7
26 -17z m87 -3 c23 -26 8 -26 -25 0 -18 14 -21 20 -9 20 9 0 24 -9 34 -20z
m918 3 c14 -17 13 -18 -16 -19 -18 -1 -24 1 -14 3 14 4 16 8 6 19 -17 20 5 17
24 -3z m57 7 c13 -8 13 -10 -2 -10 -9 0 -20 5 -23 10 -8 13 5 13 25 0z m-4400
-11 c0 -5 -12 -9 -26 -9 -14 0 -23 4 -20 8 7 11 46 12 46 1z m45 1 c3 -5 2
-10 -4 -10 -5 0 -13 5 -16 10 -3 6 -2 10 4 10 5 0 13 -4 16 -10z m180 0 c3 -5
-3 -10 -14 -10 -12 0 -21 5 -21 10 0 6 6 10 14 10 8 0 18 -4 21 -10z m61 3
c-10 -11 -36 -12 -36 -2 0 5 10 9 22 9 12 0 18 -3 14 -7z m411 -9 c-16 -9 -31
-13 -34 -10 -3 3 5 10 18 15 37 15 47 12 16 -5z m-769 -1 c-10 -2 -28 -2 -40
0 -13 2 -5 4 17 4 22 1 32 -1 23 -4z m157 -3 c-3 -5 -11 -10 -16 -10 -6 0 -7
5 -4 10 3 6 11 10 16 10 6 0 7 -4 4 -10z m5055 -23 c8 -4 -10 -5 -40 -3 -30 2
-64 7 -75 12 -18 8 -17 9 10 14 26 5 42 2 105 -23z m183 26 c-7 -2 -21 -2 -30
0 -10 3 -4 5 12 5 17 0 24 -2 18 -5z m-4726 -19 c-3 -3 -12 -4 -19 -1 -8 3 -5
6 6 6 11 1 17 -2 13 -5z m5051 -1 c35 -9 9 -20 -35 -15 -31 4 -34 6 -18 13 26
10 26 10 53 2z m149 1 c-3 -3 -12 -4 -19 -1 -8 3 -5 6 6 6 11 1 17 -2 13 -5z
m-5257 -35 c-51 -23 -56 -23 -36 -4 8 8 19 15 25 15 6 0 11 4 11 9 0 5 9 7 21
4 17 -5 14 -9 -21 -24z m4963 14 c-7 -2 -19 -2 -25 0 -7 3 -2 5 12 5 14 0 19
-2 13 -5z m-5058 -25 c-16 -4 -31 -5 -33 -3 -8 7 42 23 53 17 5 -3 -4 -9 -20
-14z m3970 12 c3 -6 -4 -10 -17 -10 -18 0 -20 2 -8 10 19 12 18 12 25 0z
m-2737 -55 c12 -25 18 -45 14 -45 -6 0 -25 31 -50 83 -2 4 1 7 5 7 5 0 19 -20
31 -45z m3381 29 c2 -2 -30 -4 -72 -4 -41 0 -84 -3 -94 -7 -10 -3 -15 -2 -10
2 17 19 157 25 176 9z m-4689 -4 c11 -7 1 -9 -35 -9 -44 1 -46 2 -20 9 17 4
32 8 35 9 3 0 12 -4 20 -9z m4765 0 c6 0 3 -5 -7 -10 -17 -11 -48 -4 -48 11 0
5 10 7 23 5 12 -3 27 -5 32 -6z m-1488 -14 c-3 -7 -1 -18 4 -23 5 -5 -10 -8
-39 -6 -26 1 -55 2 -65 2 -10 1 -15 5 -12 11 3 5 25 7 50 3 36 -4 46 -2 51 11
3 9 8 16 11 16 3 0 3 -6 0 -14z m56 7 c-7 -2 -21 -2 -30 0 -10 3 -4 5 12 5 17
0 24 -2 18 -5z m70 0 c-7 -2 -21 -2 -30 0 -10 3 -4 5 12 5 17 0 24 -2 18 -5z
m1510 0 c-7 -2 -19 -2 -25 0 -7 3 -2 5 12 5 14 0 19 -2 13 -5z m-5385 -10
c-10 -2 -28 -2 -40 0 -13 2 -5 4 17 4 22 1 32 -1 23 -4z m245 0 c-7 -2 -19 -2
-25 0 -7 3 -2 5 12 5 14 0 19 -2 13 -5z m3611 -22 c10 -11 28 -22 40 -24 13
-3 10 -4 -9 -4 -16 0 -41 -3 -54 -7 -17 -6 -22 -5 -19 5 3 8 15 13 29 10 l24
-3 -25 21 c-14 11 -20 20 -14 21 6 0 19 -9 28 -19z m181 -22 c41 1 76 -3 79
-8 3 -4 -27 -9 -66 -10 -40 -1 -75 -7 -79 -12 -4 -7 -9 -4 -12 5 -4 9 -10 16
-14 15 -20 -3 -27 2 -13 10 8 6 18 7 23 4 5 -3 42 -5 82 -4z m1544 -10 c-10
-6 -2 -9 21 -9 19 0 62 -9 95 -20 l60 -19 -40 0 c-40 -1 -174 32 -204 49 -11
6 -1 9 33 8 31 0 43 -4 35 -9z m-4319 -19 c0 -5 -2 -10 -4 -10 -3 0 -8 5 -11
10 -3 6 -1 10 4 10 6 0 11 -4 11 -10z m560 -15 c7 -8 21 -15 31 -15 11 0 19
-5 19 -11 0 -8 4 -8 14 1 10 8 33 9 70 5 56 -7 75 -19 35 -22 -32 -3 -33 -8
-5 -52 14 -22 26 -43 26 -47 0 -3 20 -32 45 -64 37 -49 52 -60 83 -65 66 -11
68 -14 7 -10 -33 2 -70 6 -82 10 -14 4 -23 3 -23 -3 0 -15 40 -24 100 -22 52
2 66 -10 18 -15 -13 -1 -27 -3 -31 -4 -5 0 9 -27 31 -58 75 -112 92 -139 92
-149 0 -33 171 -54 430 -53 178 1 256 9 252 27 -3 18 26 1 62 -37 25 -26 26
-29 7 -24 -11 3 -21 12 -21 19 0 8 -7 14 -16 14 -8 0 -13 -3 -11 -7 3 -5 -131
-8 -296 -8 -226 0 -308 -3 -324 -13 l-22 -12 19 -33 c11 -17 27 -45 36 -62 9
-16 25 -40 36 -52 11 -12 18 -29 15 -37 -4 -9 1 -20 11 -25 9 -6 14 -11 10
-11 -5 0 -1 -8 7 -17 34 -39 63 -81 94 -138 18 -33 44 -75 58 -93 14 -18 23
-35 22 -36 -31 -26 -97 -34 -117 -14 -8 8 -15 8 -26 -1 -8 -7 -20 -10 -25 -7
-5 4 -12 2 -16 -4 -7 -12 53 -70 72 -70 7 0 13 -5 13 -10 0 -7 -7 -7 -21 0
-11 7 -23 9 -26 7 -7 -8 -96 47 -95 58 0 6 -9 14 -21 19 -22 9 -22 9 3 15 14
4 26 15 27 26 3 20 3 20 -5 1 -8 -18 -9 -19 -15 -2 -4 10 -3 24 3 30 11 14
-20 81 -38 81 -7 0 -19 10 -27 22 -15 21 -15 22 0 17 14 -6 14 -3 3 22 -7 16
-18 33 -25 37 -17 11 -44 63 -36 71 4 3 -1 6 -10 6 -10 0 -17 5 -17 10 0 6 -7
10 -16 10 -9 0 -14 6 -11 13 3 7 -4 24 -14 38 -10 13 -19 28 -19 33 0 20 -44
96 -56 96 -16 0 -46 64 -38 83 10 26 -100 237 -123 237 -7 0 -13 5 -13 11 0 5
5 7 10 4 6 -3 10 -3 10 0 0 15 -73 145 -81 145 -5 0 -9 5 -9 11 0 6 -7 18 -16
26 -12 12 -12 18 -3 23 8 6 6 11 -9 19 -26 14 -56 71 -37 71 7 0 18 -7 25 -15z
m3215 -3 c-3 -3 -11 0 -18 7 -9 10 -8 11 6 5 10 -3 15 -9 12 -12z m-4885 -8
c0 -2 -9 -4 -20 -4 -11 0 -20 4 -20 9 0 5 9 7 20 4 11 -3 20 -7 20 -9z m-66
-3 c4 -5 -23 -11 -60 -13 -36 -1 -68 0 -70 4 -3 4 21 9 53 11 32 2 61 4 65 5
4 1 9 -2 12 -7z m476 5 c0 -3 -4 -8 -10 -11 -5 -3 -10 -1 -10 4 0 6 5 11 10
11 6 0 10 -2 10 -4z m3443 -3 c-7 -2 -19 -2 -25 0 -7 3 -2 5 12 5 14 0 19 -2
13 -5z m1282 -3 c-3 -5 -13 -10 -21 -10 -8 0 -14 5 -14 10 0 6 9 10 21 10 11
0 17 -4 14 -10z m-162 -7 c-7 -2 -21 -2 -30 0 -10 3 -4 5 12 5 17 0 24 -2 18
-5z m368 -21 c-7 -2 -18 1 -23 6 -8 8 -4 9 13 5 13 -4 18 -8 10 -11z m73 -1
c4 -5 -3 -7 -14 -4 -23 6 -26 13 -6 13 8 0 17 -4 20 -9z m-179 -21 c-27 -12
-35 -12 -35 0 0 6 12 10 28 9 24 0 25 -1 7 -9z m-115 -10 c0 -5 -7 -10 -15
-10 -8 0 -15 5 -15 10 0 6 7 10 15 10 8 0 15 -4 15 -10z m-75 -20 c-6 -17 -2
-20 32 -21 21 -1 157 -5 303 -9 l265 -7 -295 1 c-303 2 -347 7 -334 41 9 24
37 19 29 -5z m218 13 c-7 -2 -19 -2 -25 0 -7 3 -2 5 12 5 14 0 19 -2 13 -5z
m100 0 c-7 -2 -19 -2 -25 0 -7 3 -2 5 12 5 14 0 19 -2 13 -5z m100 0 c-7 -2
-19 -2 -25 0 -7 3 -2 5 12 5 14 0 19 -2 13 -5z m82 -3 c3 -5 1 -10 -4 -10 -6
0 -11 5 -11 10 0 6 2 10 4 10 3 0 8 -4 11 -10z m-5019 -32 c-9 -12 -16 -19
-16 -15 0 11 24 47 28 42 2 -2 -3 -14 -12 -27z m4364 20 c0 -12 -118 -10 -125
2 -4 6 18 9 59 7 36 -1 66 -5 66 -9z m517 6 c-3 -3 -12 -4 -19 -1 -8 3 -5 6 6
6 11 1 17 -2 13 -5z m-412 -14 c4 -6 -5 -10 -19 -10 -14 0 -26 -5 -26 -10 0
-6 -12 -10 -27 -9 -16 1 -36 -2 -45 -6 -10 -4 -18 -3 -18 3 0 13 25 22 61 22
16 0 29 5 29 10 0 6 9 10 19 10 11 0 23 -4 26 -10z m-4557 -20 c-7 -10 -14
-17 -17 -15 -4 4 18 35 25 35 2 0 -1 -9 -8 -20z m-311 -6 c-3 -3 -12 -4 -19
-1 -8 3 -5 6 6 6 11 1 17 -2 13 -5z m28 -4 c3 -5 1 -10 -4 -10 -6 0 -11 5 -11
10 0 6 2 10 4 10 3 0 8 -4 11 -10z m5543 3 c-10 -2 -26 -2 -35 0 -10 3 -2 5
17 5 19 0 27 -2 18 -5z m-579 -29 c2 -2 -31 -4 -75 -3 -53 0 -72 3 -59 9 18 8
124 3 134 -6z m410 0 c2 -2 -50 -4 -117 -4 -66 0 -123 4 -127 9 -5 9 234 4
244 -5z m-5606 -14 c16 0 18 -3 8 -9 -15 -10 -48 -3 -58 12 -4 7 0 8 11 4 10
-4 27 -7 39 -7z m457 -10 c0 -5 -5 -10 -11 -10 -5 0 -7 5 -4 10 3 6 8 10 11
10 2 0 4 -4 4 -10z m3697 -11 c17 1 34 -3 38 -9 3 -6 11 -8 16 -5 5 4 9 1 9
-4 0 -6 -10 -11 -22 -11 -12 0 -18 -3 -15 -7 4 -3 2 -12 -4 -19 -7 -8 -7 -14
1 -19 6 -3 8 -11 5 -16 -4 -5 -1 -9 4 -9 19 0 12 -18 -10 -23 -33 -9 -17 -31
27 -39 26 -4 17 -5 -26 -3 -36 2 -83 7 -106 10 -37 6 -42 4 -47 -15 -8 -30
-27 -16 -27 19 0 25 -3 28 -27 23 -25 -5 -25 -6 -8 -13 22 -8 21 -9 -13 -13
-16 -2 -21 2 -18 11 3 8 -2 13 -13 13 -23 0 -33 11 -22 24 7 8 -9 11 -52 13
-45 1 -76 8 -112 27 l-50 25 81 1 c61 0 85 -4 94 -15 7 -8 17 -15 23 -15 8 0
8 3 0 11 -6 6 -9 18 -6 25 4 10 -3 14 -23 14 -15 0 -24 3 -21 7 11 10 186 22
242 16 28 -3 64 -5 82 -4z m1006 4 c-18 -2 -48 -2 -65 0 -18 2 -4 4 32 4 36 0
50 -2 33 -4z m48 -49 c12 -15 11 -16 -11 -9 -35 10 -49 25 -23 25 11 0 27 -7
34 -16z m-1541 -4 c0 -13 -11 -13 -30 0 -12 8 -11 10 8 10 12 0 22 -4 22 -10z
m-1080 -30 c0 -5 -4 -10 -10 -10 -5 0 -10 5 -10 10 0 6 5 10 10 10 6 0 10 -4
10 -10z m1159 -6 c2 -2 2 -7 -1 -10 -4 -3 -19 2 -35 10 l-28 16 30 -6 c17 -4
32 -8 34 -10z m-2529 -40 c0 -8 -5 -12 -10 -9 -6 4 -8 11 -5 16 9 14 15 11 15
-7z m2565 6 c3 -6 -1 -7 -9 -4 -18 7 -21 14 -7 14 6 0 13 -4 16 -10z m1605 0
c0 -5 -5 -10 -11 -10 -5 0 -7 5 -4 10 3 6 8 10 11 10 2 0 4 -4 4 -10z m-1205
-20 c3 -5 1 -10 -4 -10 -6 0 -11 5 -11 10 0 6 2 10 4 10 3 0 8 -4 11 -10z
m1112 4 c-3 -3 -12 -4 -19 -1 -8 3 -5 6 6 6 11 1 17 -2 13 -5z m-4077 -56 c0
-16 -3 -19 -11 -11 -6 6 -8 16 -5 22 11 17 16 13 16 -11z m4404 -8 c36 -16 66
-34 66 -40 0 -6 -12 -5 -32 4 -68 28 -108 50 -108 58 0 11 1 11 74 -22z
m-5224 1 c-5 -11 -15 -23 -21 -27 -6 -3 -3 5 6 20 20 30 30 35 15 7z m737 -3
c-3 -8 -6 -5 -6 6 -1 11 2 17 5 13 3 -3 4 -12 1 -19z m2993 -14 c0 -3 -7 -1
-15 6 -8 7 -15 17 -15 22 0 5 7 3 15 -6 8 -8 15 -18 15 -22z m-56 1 c29 -6 97
-55 77 -55 -5 0 -16 6 -23 13 -17 16 -62 21 -52 5 5 -8 2 -9 -10 -5 -10 4 -22
7 -27 7 -5 0 -9 7 -9 15 0 8 -4 15 -10 15 -5 0 -10 5 -10 11 0 6 8 8 18 6 9
-3 30 -8 46 -12z m-3778 -74 c-25 -39 -56 -90 -68 -112 -31 -57 -38 -67 -79
-130 -20 -30 -51 -80 -70 -111 -18 -32 -39 -58 -46 -58 -20 0 -16 18 7 32 11
7 20 16 20 20 0 4 18 36 40 70 22 35 40 69 40 76 0 6 5 12 10 12 6 0 10 6 10
13 0 8 19 39 43 70 23 31 62 88 86 127 24 39 45 69 48 66 3 -2 -16 -36 -41
-75z m5210 63 c-3 -9 -6 -18 -6 -20 0 -2 -8 -4 -17 -4 -17 1 -17 1 -1 14 10 7
15 16 11 19 -3 4 -1 7 6 7 8 0 11 -6 7 -16z m125 -26 c-18 -6 -19 -11 -11 -33
15 -40 13 -65 -6 -58 -10 4 -14 16 -12 37 2 27 0 31 -20 29 -12 -2 -22 2 -22
7 0 6 11 10 25 10 14 0 25 5 25 10 0 6 -7 10 -15 10 -8 0 -15 7 -15 15 0 13 5
12 36 -2 32 -16 33 -18 15 -25z m-4761 2 c0 -5 -2 -10 -4 -10 -3 0 -8 5 -11
10 -3 6 -1 10 4 10 6 0 11 -4 11 -10z m350 -11 c0 -11 -4 -17 -10 -14 -5 3
-10 13 -10 21 0 8 5 14 10 14 6 0 10 -9 10 -21z m3447 5 c-3 -3 -12 -4 -19 -1
-8 3 -5 6 6 6 11 1 17 -2 13 -5z m1023 -16 c0 -6 -6 -5 -15 2 -8 7 -15 14 -15
16 0 2 7 1 15 -2 8 -4 15 -11 15 -16z m-5279 -11 c-10 -9 -11 -8 -5 6 3 10 9
15 12 12 3 -3 0 -11 -7 -18z m5349 7 c0 -2 -7 -4 -15 -4 -8 0 -15 4 -15 10 0
5 7 7 15 4 8 -4 15 -8 15 -10z m-4620 2 c0 -3 -4 -8 -10 -11 -5 -3 -10 -1 -10
4 0 6 5 11 10 11 6 0 10 -2 10 -4z m3070 -26 c0 -13 -5 -18 -15 -14 -11 5 -12
9 -2 20 16 18 17 17 17 -6z m-3879 -13 c-10 -9 -11 -8 -5 6 3 10 9 15 12 12 3
-3 0 -11 -7 -18z m4654 3 c22 -6 10 -8 -42 -7 -40 1 -73 5 -73 10 0 9 76 7
115 -3z m120 0 c8 -13 -25 -13 -45 0 -12 8 -9 10 12 10 15 0 30 -4 33 -10z
m-4754 -77 c-38 -72 -40 -79 -24 -90 18 -14 14 -17 -11 -7 -9 3 -16 10 -16 14
0 11 80 160 86 160 3 0 -13 -35 -35 -77z m869 52 c0 -14 -4 -25 -10 -25 -11 0
-14 33 -3 43 11 11 13 8 13 -18z m3565 15 c8 -13 -15 -13 -35 0 -12 8 -11 10
7 10 12 0 25 -4 28 -10z m-3658 -42 c-3 -7 -5 -2 -5 12 0 14 2 19 5 13 2 -7 2
-19 0 -25z m-336 -5 c-12 -20 -14 -14 -5 12 4 9 9 14 11 11 3 -2 0 -13 -6 -23z
m4553 11 c12 -5 13 -9 3 -19 -14 -15 -37 -8 -37 11 0 15 10 17 34 8z m-119
-24 c3 -5 4 -10 1 -10 -2 0 -12 -3 -20 -6 -12 -5 -15 -2 -10 10 7 18 20 21 29
6z m-4097 -25 c-1 -14 -6 -25 -11 -25 -5 0 -6 7 -3 16 3 9 6 20 6 25 0 5 2 9
5 9 3 0 4 -11 3 -25z m92 -20 c0 -14 -4 -25 -10 -25 -5 0 -10 11 -10 25 0 14
5 25 10 25 6 0 10 -11 10 -25z m2200 15 c8 -5 11 -12 8 -16 -4 -3 -14 1 -23
10 -18 17 -9 21 15 6z m-2096 -125 c4 -65 3 -93 -3 -78 -12 27 -23 213 -12
193 5 -8 11 -60 15 -115z m1351 115 c8 -13 -5 -13 -25 0 -13 8 -13 10 2 10 9
0 20 -4 23 -10z m-1850 -50 c-3 -5 -16 -10 -28 -10 -18 0 -19 2 -7 10 20 13
43 13 35 0z m395 -51 c0 -17 -4 -28 -10 -24 -5 3 -10 17 -10 31 0 13 5 24 10
24 6 0 10 -14 10 -31z m-972 -54 c-12 -24 -23 -43 -26 -41 -4 5 36 86 43 86 3
0 -5 -20 -17 -45z m5542 35 c-18 -12 -43 -13 -36 -2 2 4 15 8 28 9 18 2 19 0
8 -7z m-5635 -74 c-36 -62 -43 -59 -8 3 15 28 29 48 31 46 2 -2 -8 -24 -23
-49z m958 -118 c-6 -79 -11 -161 -12 -183 -2 -102 -25 -345 -33 -345 -4 0 -6
17 -3 38 3 20 7 96 9 167 3 72 7 150 10 175 6 43 15 205 16 280 0 26 3 31 12
22 8 -8 9 -47 1 -154z m4419 110 c55 -29 110 -63 122 -76 11 -12 54 -41 94
-64 39 -23 72 -46 72 -51 0 -4 -3 -6 -7 -4 -5 3 -48 29 -98 59 -49 29 -107 62
-127 73 -20 10 -36 23 -35 28 1 5 -32 27 -73 48 -41 21 -69 38 -62 39 7 0 58
-24 114 -52z m-4522 32 c0 -5 -10 -10 -22 -10 -19 0 -20 2 -8 10 19 13 30 13
30 0z m3580 -55 c30 -26 69 -59 85 -74 17 -14 66 -55 109 -91 44 -36 98 -82
120 -104 23 -21 6 -10 -38 25 -43 35 -95 78 -116 94 -75 60 -250 208 -250 212
0 8 38 -18 90 -62z m-3370 25 c0 -16 -4 -30 -10 -30 -5 0 -10 14 -10 30 0 17
5 30 10 30 6 0 10 -13 10 -30z m3940 10 c0 -13 -11 -13 -30 0 -12 8 -11 10 8
10 12 0 22 -4 22 -10z m37 4 c-3 -3 -12 -4 -19 -1 -8 3 -5 6 6 6 11 1 17 -2
13 -5z m-3870 -66 c-3 -7 -5 -2 -5 12 0 14 2 19 5 13 2 -7 2 -19 0 -25z
m-1182 -90 c-25 -46 -60 -111 -78 -145 -17 -35 -35 -63 -39 -63 -10 0 -6 7 70
145 68 124 81 145 88 145 3 0 -16 -37 -41 -82z m-72 10 c-19 -35 -48 -87 -65
-117 -62 -111 -138 -236 -138 -227 0 14 227 406 235 406 2 0 -12 -28 -32 -62z
m1147 7 c0 -19 -4 -35 -10 -35 -5 0 -10 16 -10 35 0 19 5 35 10 35 6 0 10 -16
10 -35z m3420 -10 c13 -14 21 -25 18 -25 -2 0 -15 11 -28 25 -13 14 -21 25
-18 25 2 0 15 -11 28 -25z m-3296 -109 c2 -59 0 -104 -4 -99 -11 12 -21 228
-10 217 5 -5 11 -58 14 -118z m-594 104 c0 -5 -4 -10 -10 -10 -5 0 -10 5 -10
10 0 6 5 10 10 10 6 0 10 -4 10 -10z m935 -10 c3 -5 1 -10 -4 -10 -6 0 -11 5
-11 10 0 6 2 10 4 10 3 0 8 -4 11 -10z m-465 -110 c0 -22 -4 -40 -10 -40 -5 0
-10 18 -10 40 0 22 5 40 10 40 6 0 10 -18 10 -40z m2379 -59 c10 -6 10 -10 1
-16 -7 -4 -19 0 -28 9 -14 13 -14 16 -2 16 8 0 21 -4 29 -9z m71 -6 c7 -8 8
-15 2 -15 -5 0 -15 7 -22 15 -7 8 -8 15 -2 15 5 0 15 -7 22 -15z m1215 -15
c10 -11 16 -20 13 -20 -3 0 -13 9 -23 20 -10 11 -16 20 -13 20 3 0 13 -9 23
-20z m-2320 0 c3 -5 -1 -10 -9 -10 -8 0 -18 5 -21 10 -3 6 1 10 9 10 8 0 18
-4 21 -10z m2429 -29 c-3 -3 -15 6 -27 18 l-22 24 27 -19 c14 -10 24 -21 22
-23z m-3964 25 c0 -2 -9 -6 -20 -9 -11 -3 -20 -1 -20 4 0 5 9 9 20 9 11 0 20
-2 20 -4z m2645 -16 c3 -5 -3 -10 -14 -10 -12 0 -21 5 -21 10 0 6 6 10 14 10
8 0 18 -4 21 -10z m-3675 -44 c-30 -49 -36 -46 -8 3 12 22 24 38 26 36 3 -2
-6 -20 -18 -39z m1347 -3 c-3 -10 -5 -2 -5 17 0 19 2 27 5 18 2 -10 2 -26 0
-35z m2990 15 c-3 -8 -6 -5 -6 6 -1 11 2 17 5 13 3 -3 4 -12 1 -19z m-3117
-33 c0 -25 -4 -45 -10 -45 -5 0 -10 20 -10 45 0 25 5 45 10 45 6 0 10 -20 10
-45z m2483 -24 c20 -19 37 -39 37 -44 0 -11 -97 74 -99 86 -1 12 18 -2 62 -42z
m77 -43 c0 -6 -22 9 -50 32 -27 23 -50 46 -50 52 0 5 23 -10 50 -33 28 -23 50
-46 50 -51z m50 0 c0 -11 -17 1 -72 51 -49 44 -30 44 22 1 28 -23 50 -47 50
-52z m-5 42 c27 -27 45 -50 39 -50 -5 0 -32 23 -59 50 -27 28 -45 50 -39 50 5
0 32 -22 59 -50z m-1300 19 c7 -7 0 -8 -20 -3 -16 3 -34 11 -40 17 -7 6 0 7
20 3 17 -4 35 -12 40 -17z m-1166 -119 c0 -22 -2 -30 -8 -22 -4 7 -8 32 -9 55
0 32 1 37 8 22 5 -11 9 -36 9 -55z m2519 33 c-26 -2 -71 -2 -100 0 -29 2 -8 3
47 3 55 0 79 -1 53 -3z m-2658 -94 c0 -27 -4 -49 -10 -49 -5 0 -10 25 -10 56
0 34 4 53 10 49 6 -3 10 -28 10 -56z m-570 47 c0 -3 -4 -8 -10 -11 -5 -3 -10
-1 -10 4 0 6 5 11 10 11 6 0 10 -2 10 -4z m1140 -16 c0 -5 -2 -10 -4 -10 -3 0
-8 5 -11 10 -3 6 -1 10 4 10 6 0 11 -4 11 -10z m-773 -16 c-3 -3 -12 -4 -19
-1 -8 3 -5 6 6 6 11 1 17 -2 13 -5z m346 -56 c-6 -61 -13 -60 -12 0 1 28 5 49
9 47 5 -3 6 -24 3 -47z m2087 -43 c11 -13 10 -14 -4 -9 -9 3 -16 10 -16 15 0
13 6 11 20 -6z m40 -5 c0 -5 -2 -10 -4 -10 -3 0 -8 5 -11 10 -3 6 -1 10 4 10
6 0 11 -4 11 -10z m143 -7 c-7 -2 -21 -2 -30 0 -10 3 -4 5 12 5 17 0 24 -2 18
-5z m-2583 -47 c-6 -8 -28 -24 -48 -36 l-37 -21 40 35 c40 35 68 48 45 22z
m335 -112 c5 -59 4 -76 -5 -68 -6 6 -13 53 -16 105 -5 111 9 85 21 -37z m-165
36 c0 -33 -4 -60 -10 -60 -6 0 -10 27 -10 60 0 33 4 60 10 60 6 0 10 -27 10
-60z m-320 0 c-8 -5 -24 -9 -35 -9 -16 1 -16 2 5 9 35 11 48 11 30 0z m-540
-16 c0 -8 -4 -12 -10 -9 -5 3 -10 10 -10 16 0 5 5 9 10 9 6 0 10 -7 10 -16z
m-77 -41 c-7 -2 -19 -2 -25 0 -7 3 -2 5 12 5 14 0 19 -2 13 -5z m44 1 c-3 -3
-12 -4 -19 -1 -8 3 -5 6 6 6 11 1 17 -2 13 -5z m110 -1 c-39 -3 -50 -9 -59
-29 -6 -13 -15 -24 -20 -24 -12 0 -10 13 8 38 13 18 24 22 67 20 l52 -2 -48
-3z m-434 -30 c-7 -2 -21 -2 -30 0 -10 3 -4 5 12 5 17 0 24 -2 18 -5z m207
-23 c0 -5 -7 -10 -15 -10 -8 0 -15 5 -15 10 0 6 7 10 15 10 8 0 15 -4 15 -10z
m867 -127 c-2 -16 -4 -3 -4 27 0 30 2 43 4 28 2 -16 2 -40 0 -55z m279 4 c3
-39 2 -67 -4 -67 -5 0 -10 32 -11 72 -2 89 7 85 15 -5z m-136 -27 c0 -40 -4
-70 -10 -70 -6 0 -10 30 -10 70 0 40 4 70 10 70 6 0 10 -30 10 -70z m-145 -19
c3 -5 1 -12 -5 -16 -5 -3 -10 1 -10 9 0 18 6 21 15 7z m-48 -38 c-3 -10 -5 -4
-5 12 0 17 2 24 5 18 2 -7 2 -21 0 -30z m-537 -73 c0 -5 -7 -10 -16 -10 -8 0
-12 5 -9 10 3 6 10 10 16 10 5 0 9 -4 9 -10z m-20 -30 c0 -5 -4 -10 -10 -10
-5 0 -10 5 -10 10 0 6 5 10 10 10 6 0 10 -4 10 -10z m30 0 c0 -5 -5 -10 -11
-10 -5 0 -7 5 -4 10 3 6 8 10 11 10 2 0 4 -4 4 -10z m719 -155 c1 -53 -2 -85
-9 -85 -6 0 -10 33 -10 85 0 47 4 85 9 85 5 0 9 -38 10 -85z m2721 -155 c0 -6
-12 -28 -26 -50 -21 -31 -29 -37 -39 -27 -10 10 -10 13 0 19 7 4 18 21 25 38
12 28 40 42 40 20z m-2758 -40 c-4 -25 -9 -30 -33 -30 -18 0 -29 5 -29 14 0
31 13 46 39 46 25 0 27 -3 23 -30z m115 -2 c3 -27 2 -28 -34 -27 -30 2 -32 3
-10 6 15 2 27 7 27 11 0 15 -16 30 -35 35 -11 3 -5 5 14 4 29 -2 35 -6 38 -29z
m-97 -93 c0 -18 5 -25 20 -25 11 0 20 -4 20 -10 0 -11 -20 -13 -44 -4 -18 7
-23 64 -6 64 6 0 10 -11 10 -25z m1486 -26 c18 -20 18 -21 -1 -35 -47 -34 -99
1 -59 40 21 21 37 20 60 -5z m2162 -17 c4 -27 -14 -29 -28 -3 -14 27 -13 33 8
29 9 -2 18 -13 20 -26z m-3635 -57 c4 -27 3 -35 -3 -25 -5 8 -10 28 -10 44 0
39 6 30 13 -19z m2552 -35 c-16 -16 -34 -30 -39 -30 -12 1 49 60 61 60 4 0 -6
-13 -22 -30z m-2639 -21 c-3 -17 -6 -71 -6 -120 0 -81 -2 -89 -19 -89 -26 0
-28 22 -17 143 8 86 12 97 29 97 17 0 19 -5 13 -31z m64 3 c0 -16 -3 -70 -6
-120 -6 -81 -9 -92 -26 -92 -17 0 -18 6 -14 58 2 31 5 85 5 120 1 55 3 62 21
62 15 0 20 -7 20 -28z m90 -92 c0 -113 -1 -120 -20 -120 -19 0 -20 7 -20 120
0 113 1 120 20 120 19 0 20 -7 20 -120z m56 67 c1 -26 8 -55 15 -64 10 -11 10
-14 2 -9 -10 5 -13 -8 -13 -53 0 -54 -2 -61 -19 -61 -17 0 -20 9 -23 83 -5
123 0 159 20 155 12 -2 17 -15 18 -51z m101 -20 c70 -61 70 -61 78 -146 4 -45
6 -83 4 -84 -2 -1 -116 0 -254 3 l-250 6 248 2 249 2 -7 68 c-8 78 -18 97 -80
147 -29 24 -45 45 -44 59 0 21 0 21 9 -2 5 -12 26 -37 47 -55z m2714 10 c-13
-13 -26 -3 -16 12 3 6 11 8 17 5 6 -4 6 -10 -1 -17z m-458 -12 c-10 -13 -25
-24 -33 -25 -9 0 -3 10 15 25 38 31 40 31 18 0z m-63 -59 c0 -7 -12 -26 -27
-40 -37 -37 -44 -13 -7 25 32 33 34 34 34 15z m-1872 -161 c3 -3 -31 -5 -76
-5 -45 0 -82 3 -82 8 0 8 150 5 158 -3z m-108 -34 c0 -17 -15 -19 -28 -5 -11
12 -9 14 8 14 11 0 20 -4 20 -9z m82 -13 c-7 -7 -12 -8 -12 -2 0 6 3 14 7 17
3 4 9 5 12 2 2 -3 -1 -11 -7 -17z m53 2 c3 -5 -1 -10 -9 -10 -9 0 -16 5 -16
10 0 6 4 10 9 10 6 0 13 -4 16 -10z m-300 -209 c-3 -6 -11 -11 -16 -11 -5 0
-4 6 3 14 14 16 24 13 13 -3z m-20 -61 c-3 -5 -12 -10 -18 -10 -7 0 -6 4 3 10
19 12 23 12 15 0z m-1317 -132 c16 -16 15 -25 -2 -31 -9 -4 -12 0 -9 12 4 14
-1 16 -33 13 -25 -3 -35 -1 -30 7 9 15 59 14 74 -1z m-61 -83 c-4 -8 -11 -15
-17 -15 -6 0 -6 7 2 20 14 22 24 19 15 -5z m124 -12 c13 -16 12 -17 -3 -4 -10
7 -18 15 -18 17 0 8 8 3 21 -13z m-71 -18 c0 -26 -14 -33 -25 -15 -9 14 1 40
15 40 5 0 10 -11 10 -25z m170 -37 c0 -6 11 -7 25 -4 18 5 25 2 25 -8 0 -10 6
-13 15 -10 8 4 15 3 15 0 0 -14 -54 -26 -91 -20 -30 5 -39 11 -36 23 2 9 9 15
16 13 8 -2 11 3 8 12 -4 10 -1 13 9 9 7 -3 14 -10 14 -15z m495 10 c13 0 21
-8 22 -19 2 -20 -21 -26 -32 -9 -9 14 -26 13 -23 -2 2 -6 -5 -14 -14 -16 -10
-2 -18 2 -18 8 0 6 5 8 10 5 6 -3 10 -2 10 4 0 21 -23 22 -45 1 -19 -18 -30
-21 -52 -15 -21 6 -23 9 -10 12 29 7 19 23 -15 24 -31 1 -31 2 -8 8 14 4 54 6
90 3 36 -2 74 -4 85 -4z m-570 -8 c4 -6 -12 -10 -39 -10 -25 0 -46 5 -46 10 0
6 18 10 39 10 22 0 43 -4 46 -10z m301 0 c13 0 24 -4 24 -10 0 -5 -20 -10 -45
-10 -42 0 -54 7 -38 24 4 3 13 4 21 1 7 -3 25 -5 38 -5z m79 -20 c3 -5 1 -10
-4 -10 -6 0 -11 5 -11 10 0 6 2 10 4 10 3 0 8 -4 11 -10z m1325 0 c0 -5 -20
-10 -45 -10 -25 0 -45 5 -45 10 0 6 20 10 45 10 25 0 45 -4 45 -10z m1120
-380 c0 -14 -146 -234 -165 -250 -33 -27 -14 29 31 96 96 142 134 185 134 154z
m-790 -316 c0 -14 -21 -19 -33 -7 -9 9 13 34 24 27 5 -3 9 -12 9 -20z"/>
<path d="M725 4930 c3 -5 11 -10 16 -10 6 0 7 5 4 10 -3 6 -11 10 -16 10 -6 0
-7 -4 -4 -10z"/>
<path d="M4420 4430 c0 -5 5 -10 10 -10 6 0 10 5 10 10 0 6 -4 10 -10 10 -5 0
-10 -4 -10 -10z"/>
<path d="M4498 4389 c-24 -14 -23 -29 3 -29 14 0 19 5 16 14 -3 8 -1 17 6 20
7 2 8 5 2 5 -5 0 -18 -4 -27 -10z"/>
<path d="M1490 2261 c0 -12 6 -21 16 -21 9 0 14 7 12 17 -5 25 -28 28 -28 4z"/>
<path d="M1036 1138 c3 -5 10 -6 15 -3 13 9 11 12 -6 12 -8 0 -12 -4 -9 -9z"/>
<path d="M688 6173 c7 -3 16 -2 19 1 4 3 -2 6 -13 5 -11 0 -14 -3 -6 -6z"/>
<path d="M846 6167 c3 -9 21 -14 49 -13 23 1 38 4 32 8 -5 3 1 8 14 11 13 2
-4 5 -38 6 -49 1 -61 -2 -57 -12z"/>
<path d="M2 6082 c-8 -21 3 -24 99 -30 85 -5 91 -4 87 14 -3 16 -15 20 -92 24
-67 4 -90 2 -94 -8z"/>
<path d="M210 6070 c0 -17 9 -19 118 -22 64 -2 121 -1 127 1 18 9 -90 32 -167
36 -72 4 -78 3 -78 -15z"/>
<path d="M171 5968 c-1 -10 -12 -18 -28 -21 l-28 -4 29 -2 c21 -1 27 -5 22
-16 -3 -8 -1 -15 4 -15 14 0 17 13 9 45 -3 17 -7 22 -8 13z"/>
<path d="M214 5945 c0 -39 4 -40 71 -25 l40 9 -47 -4 c-45 -4 -48 -3 -48 19 0
15 7 26 18 29 11 3 8 5 -8 6 -23 1 -26 -3 -26 -34z"/>
<path d="M1330 5961 c0 -5 7 -11 15 -15 8 -3 15 -1 15 3 0 5 -7 11 -15 15 -8
3 -15 1 -15 -3z"/>
<path d="M240 5950 c0 -6 7 -10 15 -10 8 0 15 2 15 4 0 2 -7 6 -15 10 -8 3
-15 1 -15 -4z"/>
<path d="M350 5950 c-8 -5 -10 -10 -5 -10 6 0 3 -5 -5 -10 -12 -8 -9 -10 13
-10 16 0 26 4 22 10 -3 5 19 9 57 9 35 -1 74 0 88 1 23 1 23 2 5 9 -11 5 -25
5 -31 0 -6 -5 -13 -7 -15 -5 -11 9 -116 14 -129 6z"/>
<path d="M1380 5950 c-13 -8 -12 -10 3 -10 9 0 17 5 17 10 0 12 -1 12 -20 0z"/>
<path d="M1605 5950 c-18 -8 -17 -9 8 -9 16 -1 26 3 22 9 -3 6 -7 10 -8 9 -1
0 -11 -4 -22 -9z"/>
<path d="M1428 5943 c7 -3 16 -2 19 1 4 3 -2 6 -13 5 -11 0 -14 -3 -6 -6z"/>
<path d="M7 5923 c-10 -9 -9 -23 2 -23 5 0 11 7 15 15 5 15 -5 20 -17 8z"/>
<path d="M60 5913 c-25 -15 -25 -15 10 -9 19 4 39 11 44 16 16 16 -25 10 -54
-7z"/>
<path d="M4358 5923 c7 -3 16 -2 19 1 4 3 -2 6 -13 5 -11 0 -14 -3 -6 -6z"/>
<path d="M3250 5726 c38 -14 46 -13 35 3 -3 6 -21 11 -38 10 l-32 -1 35 -12z"/>
<path d="M3400 5730 c0 -5 7 -10 15 -10 8 0 15 5 15 10 0 6 -7 10 -15 10 -8 0
-15 -4 -15 -10z"/>
<path d="M2648 5723 c7 -3 16 -2 19 1 4 3 -2 6 -13 5 -11 0 -14 -3 -6 -6z"/>
<path d="M3762 5715 c-7 -8 -25 -15 -39 -15 -15 0 -23 -3 -19 -7 3 -4 48 -8
99 -9 76 -2 86 0 60 8 -18 6 -33 17 -33 24 0 8 -4 14 -10 14 -5 0 -10 -9 -10
-20 0 -11 -4 -20 -10 -20 -5 0 -10 9 -10 20 0 23 -10 25 -28 5z"/>
<path d="M2800 5698 c0 -5 17 -8 37 -8 20 0 33 3 29 8 -4 4 -21 7 -37 7 -16 0
-29 -3 -29 -7z"/>
<path d="M3546 5701 c-10 -15 36 -20 94 -11 l55 8 -61 -1 c-33 0 -65 3 -72 6
-6 4 -13 3 -16 -2z"/>
<path d="M2640 5690 c0 -5 7 -10 15 -10 8 0 15 5 15 10 0 6 -7 10 -15 10 -8 0
-15 -4 -15 -10z"/>
<path d="M2748 5693 c6 -2 18 -2 25 0 6 3 1 5 -13 5 -14 0 -19 -2 -12 -5z"/>
<path d="M2365 5670 c-33 -6 -28 -7 34 -9 41 0 72 2 68 5 -9 10 -57 11 -102 4z"/>
<path d="M2298 5663 c7 -3 16 -2 19 1 4 3 -2 6 -13 5 -11 0 -14 -3 -6 -6z"/>
<path d="M0 5434 c0 -180 3 -224 13 -217 6 6 32 8 56 5 54 -5 35 -22 -26 -22
-24 0 -43 -3 -43 -7 0 -10 137 -9 147 0 3 4 15 7 25 7 17 0 18 12 16 227 l-3
228 -92 2 -93 3 0 -226z"/>
<path d="M83 5173 l-83 -4 0 -2584 0 -2585 3200 0 3200 0 0 2064 0 2064 -58 5
c-31 3 -74 9 -94 12 l-38 7 0 -125 c0 -91 3 -127 12 -130 10 -4 10 -6 1 -6 -8
-1 -13 -15 -13 -36 0 -21 5 -35 13 -35 9 0 9 -2 -1 -9 -10 -6 -13 -32 -12 -92
1 -46 1 -861 1 -1811 l-1 -1728 -3010 0 -3010 0 0 1451 c0 1035 -3 1456 -11
1471 -8 15 -8 19 0 14 6 -4 11 0 11 9 0 9 -4 13 -10 10 -13 -8 -13 4 1 42 5
17 9 55 7 84 l-3 54 -53 -91 c-28 -50 -52 -98 -52 -106 0 -9 12 -28 28 -43 23
-24 24 -26 5 -16 -25 13 -43 41 -43 66 0 9 27 61 61 116 56 92 60 102 57 151
l-3 53 -30 -50 c-16 -27 -34 -57 -40 -65 -5 -9 -19 -31 -30 -49 -28 -47 -67
-93 -72 -87 -6 6 116 199 128 204 5 2 9 8 9 14 0 5 9 21 20 35 19 25 20 41 20
529 l0 503 -35 -6 c-23 -4 -35 -2 -35 6 0 6 16 11 35 11 l35 0 0 274 c0 253
-1 275 -17 279 -17 4 -17 5 0 6 14 1 17 11 17 66 0 46 -4 64 -12 63 -7 -1 -50
-4 -95 -5z m6212 -1583 c3 -5 2 -10 -4 -10 -5 0 -13 5 -16 10 -3 6 -2 10 4 10
5 0 13 -4 16 -10z m45 -32 c0 -6 -6 -5 -15 2 -8 7 -15 14 -15 16 0 2 7 1 15
-2 8 -4 15 -11 15 -16z m45 -26 c-3 -3 -11 0 -18 7 -9 10 -8 11 6 5 10 -3 15
-9 12 -12z"/>
<path d="M6170 4450 c0 -5 5 -10 10 -10 6 0 10 5 10 10 0 6 -4 10 -10 10 -5 0
-10 -4 -10 -10z"/>
<path d="M6212 4265 c0 -47 4 -88 9 -91 6 -3 32 -6 59 -6 27 1 52 -3 55 -9 4
-5 13 -9 21 -9 8 0 12 5 9 10 -3 6 3 10 14 10 19 0 21 6 21 76 0 98 -6 104
-108 104 l-80 0 0 -85z m38 45 c0 -5 -2 -10 -4 -10 -3 0 -8 5 -11 10 -3 6 -1
10 4 10 6 0 11 -4 11 -10z"/>
<path d="M5828 4313 c7 -3 16 -2 19 1 4 3 -2 6 -13 5 -11 0 -14 -3 -6 -6z"/>
</g>
</svg>
