<?xml version="1.0" standalone="no"?>
<!DOCTYPE svg PUBLIC "-//W3C//DTD SVG 20010904//EN"
 "http://www.w3.org/TR/2001/REC-SVG-20010904/DTD/svg10.dtd">
<svg version="1.0" xmlns="http://www.w3.org/2000/svg"
 width="640.000000pt" height="640.000000pt" viewBox="0 0 640.000000 640.000000"
 preserveAspectRatio="xMidYMid meet">

<g transform="translate(0.000000,640.000000) scale(0.100000,-0.100000)"
fill="#000000" stroke="none">
<path d="M4355 6387 c-4 -10 -14 -16 -21 -13 -8 3 -14 1 -14 -4 0 -6 -11 -10
-25 -10 -16 0 -25 -6 -25 -15 0 -11 -7 -14 -24 -9 -24 6 -158 -34 -164 -48 -2
-5 -10 -8 -17 -8 -7 0 -22 -12 -33 -27 -20 -27 -23 -28 -149 -34 -70 -3 424
-6 1100 -7 l1227 -2 2 -97 c0 -54 1 -103 1 -109 0 -7 21 -12 55 -13 30 0 61
-6 69 -13 11 -9 16 -9 23 1 5 9 10 10 14 2 19 -31 24 7 25 204 l2 215 -981 0
c-634 0 -980 -4 -980 -10 0 -6 -7 -10 -15 -10 -8 0 -15 -4 -15 -9 0 -16 -39 0
-43 18 -3 14 -5 14 -12 -2z"/>
<path d="M4395 6390 c-3 -5 -2 -10 4 -10 5 0 13 5 16 10 3 6 2 10 -4 10 -5 0
-13 -4 -16 -10z"/>
<path d="M3815 6171 c44 -3 86 -10 94 -15 10 -6 12 -6 7 3 -6 9 5 11 42 9 39
-2 48 -6 45 -19 -6 -23 17 -36 29 -15 11 20 38 21 38 0 0 -8 4 -13 9 -10 15
10 41 -5 41 -23 0 -9 12 -21 26 -28 22 -10 25 -10 20 3 -4 9 1 14 15 14 11 0
18 -4 14 -9 -3 -5 -1 -12 4 -15 5 -4 12 -2 16 4 8 13 65 13 65 -1 0 -6 6 -9
13 -6 6 2 11 10 9 16 -1 6 9 11 22 11 14 0 26 6 29 13 2 6 2 2 0 -10 -2 -13 1
-23 7 -23 5 0 10 5 10 10 0 6 5 10 11 10 5 0 7 -4 4 -10 -3 -5 -1 -10 4 -10 6
0 11 6 11 13 0 9 2 9 8 -1 5 -6 19 -11 33 -11 13 1 29 1 34 -1 20 -5 36 0 30
10 -3 6 4 10 17 10 17 0 19 -3 9 -9 -21 -14 2 -20 54 -15 33 3 51 0 57 -8 6
-10 8 -10 8 0 0 6 9 12 20 12 11 0 19 3 19 8 -4 21 2 24 14 8 11 -16 17 -17
36 -7 24 13 53 7 76 -15 8 -9 20 -12 26 -8 8 4 7 9 -2 16 -9 6 -2 7 21 3 49
-9 249 -12 244 -4 -2 4 8 9 23 12 24 4 26 4 10 -8 -23 -16 -22 -28 1 -16 11 6
24 6 32 1 8 -5 63 -7 122 -4 97 5 108 4 108 -12 0 -13 3 -14 15 -4 8 7 15 9
15 5 0 -4 7 -2 15 5 11 10 18 10 29 1 8 -7 25 -9 39 -5 14 3 32 2 39 -2 25
-16 48 -14 48 4 0 13 2 14 9 4 5 -8 26 -15 47 -17 22 -1 77 -6 124 -10 47 -4
94 -8 105 -8 11 -1 23 -6 27 -11 5 -7 8 -7 8 2 0 6 7 12 15 12 8 0 15 -4 15
-10 0 -5 12 -10 26 -10 14 0 23 3 21 8 -3 4 15 7 39 7 25 0 43 -4 40 -10 -2
-5 10 -10 26 -11 20 -1 25 2 16 7 -10 7 -10 9 3 9 8 0 20 -5 27 -12 7 -7 12
-8 12 -4 0 5 7 3 15 -4 13 -11 15 0 15 89 l0 101 -1227 -2 c-676 -1 -1192 -4
-1148 -7z"/>
<path d="M4066 6101 c-3 -5 1 -11 9 -15 8 -3 15 -1 15 4 0 13 -18 22 -24 11z"/>
<path d="M4320 6065 c0 -8 2 -15 4 -15 2 0 6 7 10 15 3 8 1 15 -4 15 -6 0 -10
-7 -10 -15z"/>
<path d="M4935 5959 c-339 -14 -575 -39 -785 -84 -55 -12 -55 -12 -18 -16 20
-3 34 -1 32 3 -3 4 2 8 11 8 9 0 14 -4 11 -8 -2 -4 8 -9 24 -10 17 -1 30 4 34
13 6 17 43 20 66 5 9 -5 19 -5 27 1 6 6 21 8 33 4 12 -4 28 -1 36 6 11 9 17
10 22 2 8 -12 43 -13 52 -1 3 3 25 3 49 -2 24 -4 58 -4 75 1 40 12 39 12 32
-7 -5 -13 -3 -14 7 -6 7 6 42 13 77 16 36 3 85 8 109 12 32 5 45 3 52 -7 6 -9
12 -10 17 -4 11 16 62 12 62 -4 0 -11 4 -9 14 5 11 14 17 16 27 7 9 -9 18 -9
36 0 21 9 27 8 39 -8 13 -18 14 -18 34 0 18 16 25 14 21 -7 0 -5 13 -8 29 -8
38 0 39 -17 3 -23 -16 -2 4 -4 42 -4 39 0 53 2 33 4 -24 3 -38 9 -38 18 0 9 6
12 15 9 8 -4 15 -1 15 5 0 6 12 11 26 11 14 0 23 -4 19 -10 -3 -5 -1 -10 5
-10 7 0 10 -6 7 -14 -6 -14 49 -19 413 -32 91 -3 235 -12 320 -20 85 -8 158
-14 163 -14 4 0 7 31 7 68 l0 68 -207 12 c-551 33 -676 35 -1048 21z m395 -99
c0 -5 -4 -10 -9 -10 -6 0 -13 5 -16 10 -3 6 1 10 9 10 9 0 16 -4 16 -10z m70
6 c0 -2 -11 -6 -25 -8 -14 -3 -25 -1 -25 3 0 5 11 9 25 9 14 0 25 -2 25 -4z"/>
<path d="M6210 5859 l0 -68 43 -5 c23 -3 66 -7 95 -10 l52 -5 0 74 0 75 -37 1
c-21 0 -64 2 -95 3 l-58 2 0 -67z"/>
<path d="M4260 5861 c0 -10 26 -9 36 2 4 4 -2 7 -14 7 -12 0 -22 -4 -22 -9z"/>
<path d="M4065 5850 c3 -5 8 -10 11 -10 2 0 4 5 4 10 0 6 -5 10 -11 10 -5 0
-7 -4 -4 -10z"/>
<path d="M3573 4978 c2 -7 10 -13 18 -13 14 0 39 -19 39 -29 0 -11 -65 7 -76
20 -6 8 -16 14 -23 14 -16 0 -13 -27 4 -34 8 -3 15 -10 15 -16 0 -5 -7 -10
-15 -10 -8 0 -15 -4 -15 -10 0 -5 11 -10 24 -10 14 0 28 -5 32 -11 4 -8 -1 -9
-17 -5 l-24 7 24 -20 c20 -18 21 -21 5 -21 -13 0 -15 -3 -7 -11 8 -8 17 -8 32
0 21 12 31 -2 11 -14 -5 -3 -10 -13 -10 -21 0 -11 4 -12 19 -4 11 5 27 10 35
10 14 0 14 -3 -1 -20 -10 -11 -24 -20 -33 -20 -13 0 -13 -1 0 -10 11 -7 18 -5
26 5 14 18 42 20 41 3 -1 -34 4 -48 18 -48 8 0 15 -7 15 -15 0 -8 -4 -15 -10
-15 -5 0 -10 -7 -10 -15 0 -8 5 -15 10 -15 6 0 10 5 10 10 0 6 5 10 11 10 23
0 1 -25 -23 -26 -18 -1 -25 3 -21 13 7 17 -7 16 -30 -1 -13 -10 -15 -15 -5
-19 7 -2 1 -4 -14 -3 -29 1 -37 11 -15 19 6 2 9 7 6 11 -11 11 -38 -5 -32 -20
3 -9 -2 -14 -18 -15 -22 -1 -22 -2 6 -14 l30 -14 -27 -1 c-39 0 -58 10 -58 31
0 12 7 19 19 19 11 0 23 5 26 10 11 17 -23 11 -57 -11 -18 -12 -25 -19 -15
-15 12 4 17 0 17 -13 0 -11 -6 -21 -12 -24 -8 -2 -9 -8 -4 -13 5 -5 10 -4 13
2 5 14 76 0 81 -16 2 -6 11 -17 19 -26 14 -13 14 -17 -1 -33 -23 -25 -20 -32
9 -19 14 6 25 17 25 25 0 7 7 13 15 13 20 0 19 -17 -2 -29 -16 -9 -16 -12 -3
-21 12 -9 9 -10 -10 -4 -23 6 -24 6 -10 -11 11 -14 12 -19 3 -22 -14 -5 -18
-33 -5 -33 14 0 0 -88 -15 -95 -12 -4 -13 -2 -6 7 12 14 11 67 -1 86 -5 9 -12
8 -24 -4 -15 -15 -15 -17 1 -29 14 -10 16 -23 11 -74 -8 -68 -24 -83 -24 -21
0 22 -4 40 -10 40 -5 0 -10 -18 -10 -39 0 -22 -3 -41 -7 -44 -5 -2 -2 -2 6 0
8 2 18 -2 22 -8 5 -9 11 -8 23 3 8 9 13 18 10 21 -3 3 -3 15 1 26 7 25 30 28
39 6 3 -9 22 -23 41 -31 40 -16 39 -16 23 -61 -10 -27 -17 -33 -40 -33 -15 0
-28 -4 -28 -9 0 -15 -33 -22 -42 -9 -6 9 -8 7 -4 -7 5 -19 0 -20 -82 -22 -76
-2 -179 -19 -262 -43 -14 -3 -25 -13 -25 -21 -1 -8 -6 -13 -13 -12 -7 2 -12
-4 -12 -12 0 -8 -6 -12 -14 -9 -18 7 -30 -28 -22 -64 4 -18 4 -22 -2 -13 -13
18 -22 0 -15 -27 6 -23 18 -28 28 -12 4 6 11 8 16 5 5 -4 9 -2 9 2 0 5 21 14
48 20 26 7 67 18 92 24 25 7 52 14 60 17 88 32 247 27 258 -7 6 -17 -29 -53
-45 -47 -7 3 -19 -2 -28 -10 -12 -12 -15 -13 -15 -2 0 8 -9 14 -20 14 -11 0
-20 -4 -20 -9 0 -5 -6 -4 -14 2 -10 9 -16 8 -26 -4 -13 -15 -35 -11 -25 6 4 5
2 9 -4 9 -5 0 -13 -10 -17 -22 l-6 -21 -13 24 -13 24 -10 -35 c-7 -26 -11 -31
-16 -19 -10 24 -45 12 -52 -17 -3 -13 -11 -24 -18 -25 -19 -1 -48 -7 -50 -11
-1 -2 -6 -16 -12 -33 -7 -21 -16 -31 -34 -32 -14 -1 -20 0 -13 3 8 4 7 11 -5
25 -22 25 -30 24 -54 -6 -11 -14 -26 -25 -33 -25 -8 0 -22 -13 -32 -30 -9 -16
-22 -30 -27 -30 -5 0 -6 -3 -3 -6 4 -4 -3 -15 -15 -25 -14 -13 -17 -19 -7 -20
8 0 4 -5 -9 -11 -12 -6 -21 -16 -18 -22 2 -6 -7 -30 -21 -54 -28 -48 -37 -100
-21 -119 16 -19 16 -76 0 -92 -13 -13 -11 -17 9 -34 22 -17 22 -19 4 -17 -33
4 -36 1 -18 -20 21 -25 30 -25 36 -2 3 9 3 -2 0 -25 -4 -27 -2 -43 5 -43 6 0
12 4 14 9 2 5 9 3 16 -5 11 -12 10 -14 -5 -15 -10 -1 -4 -5 12 -9 l30 -7 -25
-11 c-21 -9 -18 -10 25 -7 49 5 49 4 -14 -10 -97 -23 -136 -44 -137 -77 -1
-29 23 -52 61 -60 14 -2 20 -12 20 -28 0 -18 6 -26 23 -28 12 -2 22 -10 22
-18 0 -8 5 -14 10 -14 6 0 10 -11 10 -25 0 -17 -5 -25 -18 -25 -10 0 -22 -4
-27 -9 -6 -6 -21 -12 -35 -14 -14 -2 -33 -7 -42 -11 -9 -4 -22 -5 -28 -1 -5 3
-10 0 -10 -8 0 -8 -7 -17 -15 -21 -43 -16 27 -49 95 -45 94 7 115 4 118 -16 8
-48 14 -50 33 -12 15 29 25 37 47 37 26 0 27 -2 26 -52 -1 -29 -5 -61 -9 -70
-4 -10 -3 -18 1 -18 21 1 29 18 30 61 1 68 47 108 76 65 11 -16 0 -67 -17 -80
-14 -10 -14 -12 6 -13 37 -3 257 63 274 82 17 19 45 26 45 12 0 -7 -17 -20
-37 -29 -44 -18 -227 -75 -263 -82 -14 -3 -55 -12 -93 -21 -90 -21 -247 -27
-247 -8 0 11 -4 11 -20 1 -11 -7 -20 -17 -20 -22 0 -4 6 -3 14 3 11 9 15 8 20
-5 8 -22 9 -22 -16 -19 -13 1 -30 3 -39 4 -12 1 -18 14 -21 49 -5 49 -25 100
-57 141 -26 34 -114 39 -136 8 -8 -11 -24 -21 -37 -22 -13 -1 -22 -8 -20 -14
1 -6 -2 -11 -6 -11 -5 0 -23 -13 -40 -29 -23 -20 -30 -33 -26 -46 5 -11 3 -16
-2 -12 -10 5 -40 -35 -44 -58 -1 -5 -6 -15 -12 -22 -18 -22 -38 -115 -28 -134
15 -28 12 -52 -5 -45 -21 8 -124 -151 -150 -231 -24 -73 -23 -71 -41 -45 -8
12 -20 19 -26 16 -7 -4 -8 -2 -4 4 4 7 3 12 -2 12 -5 0 -9 6 -9 13 0 6 -4 20
-8 29 -14 35 11 17 34 -24 l24 -43 18 40 c10 22 18 45 18 52 1 14 -55 121 -77
146 -8 9 -13 20 -9 23 3 3 11 -4 17 -16 6 -12 14 -19 17 -17 15 15 -106 147
-135 147 -11 0 -8 -198 3 -247 4 -18 12 -33 17 -33 10 0 7 -26 -7 -65 -5 -16
-5 -17 4 -5 8 12 10 7 8 -20 -1 -19 -6 -38 -12 -42 -6 -5 -5 -8 3 -8 9 0 12
-13 10 -40 -3 -50 -13 -51 -28 -2 -12 36 -44 92 -78 134 -51 63 -77 90 -95
100 -18 9 -19 8 -12 -13 4 -13 9 -39 10 -57 1 -19 8 -38 15 -42 7 -4 10 -12 6
-18 -3 -6 -2 -13 4 -17 6 -4 8 -11 5 -16 -4 -5 -1 -9 6 -9 10 0 10 -3 1 -12
-7 -7 -12 -16 -12 -22 0 -5 3 -7 6 -3 3 3 19 -10 36 -29 16 -19 35 -31 41 -27
6 3 7 1 3 -5 -4 -7 14 -31 44 -58 27 -26 48 -49 45 -52 -2 -2 -26 13 -52 34
-75 59 -74 59 -66 39 5 -15 3 -17 -13 -12 -10 4 -1 -9 21 -28 44 -38 102 -60
120 -45 6 5 38 54 71 110 32 55 60 95 62 90 4 -11 -83 -166 -110 -196 -19 -21
-19 -21 27 -34 43 -12 49 -11 113 18 58 27 75 30 131 26 l63 -5 -21 33 c-12
18 -33 56 -46 83 -14 28 -20 41 -13 31 7 -11 35 -52 61 -93 27 -40 58 -78 69
-84 20 -11 20 -9 16 71 -3 79 -5 84 -36 109 -17 15 -32 30 -32 33 0 4 16 12
35 18 30 10 42 9 69 -4 41 -19 59 -20 89 -3 12 6 23 12 23 12 1 0 -4 28 -11
62 -9 42 -23 75 -44 100 l-31 37 37 18 c48 24 89 63 120 116 20 33 28 40 35
30 7 -10 8 -9 4 4 -7 23 27 103 48 111 11 4 16 1 17 -11 0 -10 3 -12 6 -4 8
20 25 13 18 -8 -4 -11 -2 -20 4 -20 6 0 11 5 11 10 0 6 5 10 10 10 6 0 10 -12
10 -26 0 -14 -4 -23 -10 -19 -5 3 -10 -4 -10 -16 0 -17 -3 -19 -14 -9 -8 6
-12 18 -9 27 4 11 2 14 -8 11 -8 -3 -13 -13 -13 -22 1 -11 -6 -16 -23 -16 -33
0 -27 -34 6 -38 13 -2 31 -10 38 -18 8 -8 18 -12 23 -9 10 6 21 -21 26 -64 4
-40 12 -51 23 -32 12 18 32 5 24 -16 -5 -11 -3 -14 6 -9 8 6 7 -2 -3 -22 -21
-41 -20 -49 4 -27 l21 19 -20 -44 c-15 -33 -17 -49 -9 -63 7 -13 7 -22 -1 -30
-8 -8 -11 -3 -11 17 0 24 -2 27 -15 16 -12 -10 -15 -10 -15 1 0 8 -10 -1 -22
-18 -13 -18 -29 -33 -36 -33 -7 0 -20 -7 -28 -15 -9 -8 -11 -15 -5 -15 6 0 11
-4 11 -10 0 -5 -7 -10 -15 -10 -8 0 -15 -4 -15 -9 0 -5 9 -7 20 -4 22 6 28
-12 8 -20 -9 -3 -7 -9 7 -20 12 -9 22 -11 26 -5 4 6 12 3 22 -6 19 -20 77 -33
77 -18 0 6 -4 12 -9 14 -5 2 -2 9 6 17 12 11 14 10 11 -5 -4 -21 26 -31 89
-33 23 -1 45 -6 49 -13 5 -8 33 15 82 68 l75 79 -63 -77 c-61 -76 -68 -96 -32
-93 42 3 113 57 240 181 45 45 82 78 82 73 0 -14 -142 -162 -204 -212 -32 -26
-54 -47 -47 -47 6 0 11 -7 11 -15 0 -32 14 -21 120 95 l32 35 -23 -33 c-13
-18 -35 -47 -49 -64 -19 -24 -25 -44 -25 -82 l0 -50 -45 -17 c-51 -18 -131
-94 -162 -153 -25 -48 -49 -126 -38 -126 4 0 13 21 19 46 11 41 40 96 73 134
22 26 75 50 94 43 10 -4 15 -2 11 4 -4 6 8 10 28 11 l35 1 -15 -35 c-8 -20
-12 -40 -9 -45 3 -5 -2 -6 -10 -3 -9 3 -16 1 -16 -6 0 -6 -4 -9 -9 -6 -5 3
-12 -1 -15 -10 -3 -9 -12 -14 -19 -12 -6 2 -22 -7 -35 -20 -19 -19 -20 -23 -5
-18 10 3 32 8 48 11 27 5 28 4 7 -5 -13 -5 -30 -17 -38 -25 -9 -8 -22 -15 -30
-15 -16 0 -19 -26 -4 -35 6 -3 10 -3 10 2 0 4 23 21 50 38 28 16 50 32 50 35
0 3 10 16 21 30 17 21 20 21 14 5 -7 -22 -1 -17 33 29 12 16 22 25 22 21 0
-35 88 178 110 267 11 42 48 108 61 108 5 0 9 7 9 16 0 9 5 12 12 8 7 -4 8 -3
4 4 -4 6 5 33 19 59 29 52 29 53 -21 -92 -47 -136 -77 -260 -69 -286 4 -12 1
-27 -8 -37 -7 -9 -17 -25 -20 -35 -11 -30 13 -8 44 41 33 52 40 46 8 -7 -11
-18 -19 -35 -17 -37 6 -5 22 10 34 31 6 11 16 20 22 20 6 0 14 3 18 7 4 5 14
8 22 8 12 0 12 -3 2 -15 -7 -8 -16 -12 -21 -10 -4 3 -7 -3 -6 -12 1 -24 -45
-124 -69 -147 -10 -11 -19 -27 -19 -35 0 -9 -4 -15 -8 -13 -13 5 -68 -70 -63
-85 3 -7 -9 -26 -25 -43 -17 -16 -27 -30 -23 -30 13 0 -30 -36 -61 -51 -16 -8
-30 -20 -33 -27 -2 -7 16 0 40 15 161 104 288 235 303 314 2 10 16 35 31 56
14 21 23 29 20 19 -5 -16 -4 -17 9 -6 20 16 19 6 -2 -28 l-16 -27 27 28 c15
15 24 32 21 37 -3 6 -2 10 3 10 5 0 15 15 22 32 7 18 23 49 35 68 13 19 44 89
71 155 53 133 52 131 60 123 3 -3 1 -14 -5 -25 -5 -10 -31 -70 -56 -133 -26
-63 -65 -149 -86 -190 -22 -41 -37 -80 -35 -87 3 -8 -1 -10 -11 -6 -13 5 -15
2 -9 -12 4 -11 4 -16 0 -13 -6 7 -34 -15 -34 -27 0 -13 -53 -84 -60 -80 -4 3
-14 -3 -21 -12 -10 -12 -10 -14 -1 -9 6 4 12 3 12 -3 0 -5 -6 -11 -12 -14 -7
-2 -10 -8 -6 -12 11 -11 145 144 215 249 18 26 33 45 33 41 0 -6 42 70 108
198 19 37 37 65 40 63 2 -3 -22 -53 -53 -113 -32 -59 -65 -121 -73 -137 -8
-16 -23 -37 -33 -47 -10 -10 -26 -30 -36 -46 -30 -47 -145 -197 -164 -213 -26
-24 -29 -56 -4 -52 18 2 18 1 -3 -11 -12 -7 -19 -16 -16 -20 4 -4 1 -7 -7 -7
-16 0 -93 -50 -87 -56 5 -5 135 60 161 80 9 7 17 18 17 25 0 6 3 10 8 9 14 -3
42 14 36 23 -3 5 0 9 5 9 28 0 6 -32 -48 -72 -61 -44 -72 -58 -47 -58 17 0 67
25 62 31 -3 2 6 5 19 5 13 1 38 12 55 24 17 12 37 19 45 17 15 -6 59 6 121 34
23 11 46 19 53 19 6 0 39 12 74 26 131 54 257 85 257 62 0 -6 7 -3 15 8 11 13
13 14 9 3 -3 -10 2 -19 13 -23 10 -3 24 -9 32 -12 9 -4 11 -2 7 5 -4 6 -3 11
3 11 5 0 13 -4 16 -10 7 -12 25 -13 25 -2 0 15 -48 30 -59 19 -8 -8 -11 -6
-11 5 0 21 32 29 48 11 7 -7 27 -13 45 -13 25 0 29 -3 17 -11 -12 -8 -11 -10
5 -7 11 2 29 -6 40 -17 11 -11 29 -25 40 -32 11 -6 19 -16 18 -22 -2 -6 4 -8
12 -5 8 4 17 -1 21 -10 3 -9 11 -16 17 -16 6 0 19 -7 29 -17 16 -14 18 -14 18
-1 0 18 -24 41 -33 31 -4 -3 -7 1 -7 10 0 9 -7 17 -15 17 -9 0 -18 7 -22 16
-3 8 -12 13 -19 10 -8 -3 -14 1 -14 9 0 8 -7 15 -16 15 -8 0 -12 5 -9 10 3 6
-4 15 -17 20 -22 10 -21 10 5 5 18 -4 27 -1 27 7 0 8 5 6 11 -5 5 -9 17 -17
24 -17 8 0 14 -6 12 -12 -1 -7 4 -12 11 -11 17 4 49 -30 44 -47 -3 -9 1 -11
11 -7 10 4 28 -5 48 -24 34 -32 39 -34 39 -19 0 13 -66 80 -79 80 -6 0 -11 5
-11 10 0 6 14 10 30 10 20 0 30 -5 30 -15 0 -8 7 -15 15 -15 8 0 15 -4 15 -8
0 -4 12 -15 28 -24 15 -9 40 -28 56 -43 15 -14 31 -24 34 -21 8 9 -39 56 -55
56 -8 0 -11 5 -8 10 3 6 -1 13 -9 16 -9 3 -16 12 -16 19 0 7 -6 16 -12 18 -7
3 -1 5 14 4 15 -1 25 -3 23 -6 -3 -2 2 -13 12 -23 21 -23 46 -24 39 0 -2 9 -7
28 -11 42 -5 23 -5 23 6 5 19 -32 58 -67 69 -60 6 3 10 -5 10 -19 0 -14 4 -25
9 -23 5 1 32 -23 61 -53 56 -59 55 -55 -9 30 -22 30 -41 61 -41 68 0 6 -4 12
-10 12 -5 0 -10 10 -9 23 0 14 2 17 6 7 3 -8 21 -36 39 -61 19 -26 34 -49 34
-53 0 -6 29 -41 73 -87 15 -16 27 -25 27 -20 0 5 -6 16 -13 23 -7 7 -21 27
-31 43 -18 29 -18 30 0 10 11 -11 30 -29 43 -40 l24 -20 -22 45 -22 45 21 -28
c12 -15 27 -24 33 -20 7 4 8 0 4 -11 -4 -9 -3 -15 1 -12 5 3 21 -2 37 -10 15
-8 30 -12 33 -9 3 3 0 5 -7 5 -7 0 -10 4 -6 9 3 6 17 6 36 -1 17 -6 47 -8 68
-5 38 5 38 4 60 -47 11 -28 21 -57 21 -65 0 -7 18 -34 41 -59 43 -49 79 -111
79 -136 0 -8 5 -18 10 -21 7 -5 9 15 4 59 -5 44 -3 66 4 66 6 0 17 6 24 13 7
7 25 20 39 29 14 9 34 33 44 53 16 35 16 40 0 91 -27 85 -98 182 -121 163 -9
-8 -11 -6 -8 9 3 10 -1 24 -10 31 -12 10 -18 9 -35 -8 -12 -12 -27 -21 -35
-21 -7 0 -19 -7 -26 -15 -7 -8 -21 -15 -32 -15 -16 0 -17 -3 -8 -20 9 -16 8
-18 -6 -13 -14 5 -33 39 -40 71 -1 8 -11 20 -20 27 -12 9 -19 26 -19 53 0 22
3 38 7 36 5 -3 8 -3 8 0 0 11 -25 62 -35 69 -6 5 -3 7 8 3 12 -4 17 0 17 14 0
13 -7 20 -20 20 -11 0 -20 5 -20 11 0 6 7 9 15 6 8 -4 17 -2 20 4 4 5 -1 12
-10 15 -13 5 -13 9 -3 22 11 13 10 15 -4 9 -15 -5 -18 -1 -18 21 0 46 -22 83
-45 75 -27 -8 -42 -11 -32 -6 17 10 5 24 -15 17 -21 -6 -21 -5 -9 10 8 9 20
15 26 12 19 -7 36 9 29 27 -4 12 -14 15 -37 11 -28 -4 -29 -3 -10 5 15 7 21
16 17 26 -7 18 -9 18 -52 6 -20 -6 -32 -6 -32 0 0 5 6 9 14 9 8 0 17 4 20 9 4
5 -4 7 -16 4 -23 -5 -22 -4 2 16 l25 21 -27 0 c-16 0 -28 4 -28 10 0 5 8 7 18
3 11 -4 14 -3 7 4 -5 6 -25 14 -42 18 -31 6 -33 5 -33 -22 0 -15 -5 -35 -10
-43 -6 -10 -9 10 -7 63 1 42 -1 77 -5 77 -8 0 -13 -43 -10 -88 0 -12 -4 -22
-9 -22 -11 0 -6 104 7 169 5 24 4 32 -4 27 -7 -4 -14 4 -17 21 -4 15 -11 36
-16 46 -5 10 -7 22 -4 26 3 5 -2 11 -10 15 -8 3 -15 12 -15 20 0 15 -39 30
-79 31 -19 0 -24 6 -26 32 -2 21 1 30 9 27 16 -6 60 42 51 56 -3 6 -2 9 3 8
14 -4 94 81 87 93 -4 5 -1 8 6 7 20 -5 79 89 147 235 2 4 -3 4 -12 1 -9 -3
-16 -1 -16 5 0 6 5 11 10 11 6 0 10 5 10 11 0 8 -6 7 -16 -2 -15 -12 -16 -11
-10 11 7 24 6 24 -8 6 -18 -22 -21 -40 -6 -31 6 3 10 2 10 -4 0 -5 -9 -9 -20
-8 -15 1 -19 6 -14 22 5 17 3 17 -17 -5 l-21 -25 16 28 c14 24 15 27 1 27 -8
0 -15 -4 -15 -8 0 -12 -41 -54 -47 -48 -3 2 5 18 18 35 23 31 69 44 69 19 0
-6 8 -4 20 7 10 9 26 15 34 12 19 -8 34 11 41 53 3 19 8 36 10 38 2 2 -6 22
-17 44 -30 58 -30 196 1 256 19 37 21 53 16 125 -4 45 -10 96 -15 112 -5 17
-11 50 -15 75 -4 25 -13 67 -22 93 -8 26 -13 53 -10 60 3 8 -20 29 -54 51 -65
42 -81 61 -23 27 20 -12 38 -20 40 -18 9 9 -68 82 -84 79 -14 -3 -14 -2 -2 13
9 11 24 15 42 13 34 -5 34 -3 3 37 -30 40 -52 46 -94 29 -26 -11 -31 -18 -26
-34 5 -15 3 -18 -9 -14 -19 7 -57 -32 -97 -103 -17 -30 -33 -52 -35 -50 -2 2
7 37 20 78 38 123 76 252 82 287 5 24 12 32 28 32 11 0 28 5 36 10 12 8 9 10
-12 10 -16 0 -27 4 -25 9 1 5 -14 29 -33 53 -20 23 -47 59 -60 78 -28 40 -55
73 -87 105 -12 13 -19 26 -15 31 4 4 1 4 -6 0 -10 -6 -10 -11 -2 -21 7 -8 7
-16 2 -19 -9 -6 -27 21 -24 36 1 4 -7 5 -18 3 -11 -2 -17 1 -15 8 6 18 -32 60
-47 52 -7 -4 -4 1 6 9 17 14 17 16 3 16 -9 0 -20 6 -24 13 -5 6 -44 46 -88 87
-43 41 -73 67 -66 58 8 -10 9 -18 4 -18 -17 0 -31 22 -25 39 5 14 4 14 -11 -1
-16 -16 -13 -20 44 -75 66 -62 153 -163 130 -148 -8 4 -28 24 -45 43 -17 20
-69 74 -116 120 -47 47 -79 81 -71 77 8 -4 17 -2 22 6 4 7 11 10 16 6 4 -5 1
-12 -6 -16 -8 -5 -9 -11 -3 -15 5 -3 13 2 16 11 7 18 -17 43 -41 43 -7 0 -13
7 -13 15 0 19 -13 19 -51 0 -26 -14 -36 -14 -84 -1 -30 8 -77 31 -105 51 -28
21 -55 33 -61 29 -7 -4 -9 -3 -5 4 9 15 -5 21 -29 11 -15 -6 -16 -8 -4 -8 9
-1 20 -8 23 -17 4 -12 2 -15 -9 -10 -39 16 -47 16 -20 0 17 -9 34 -22 38 -28
6 -7 7 -5 4 5 -4 12 1 17 17 17 13 0 22 -7 23 -17 1 -9 4 -28 7 -43 4 -27 -3
-36 -17 -21 -4 3 -1 13 6 21 10 13 9 15 -5 9 -13 -4 -15 -2 -11 11 6 14 4 15
-9 4 -13 -10 -18 -9 -28 4 -14 16 -65 45 -71 41 -2 -2 -15 7 -28 20 -13 13
-19 23 -13 23 7 0 12 5 12 11 0 8 -5 7 -15 -1 -9 -7 -19 -10 -22 -6 -4 4 -2
11 5 15 8 5 2 8 -16 8 l-29 0 36 -36 c62 -61 154 -171 148 -177 -3 -4 -26 14
-51 39 -31 30 -54 44 -70 43 -13 0 -22 -5 -19 -9 3 -4 10 -6 16 -4 17 6 47
-11 47 -28 0 -8 10 -21 22 -29 12 -9 17 -16 10 -16 -7 0 -23 11 -36 23 -13 13
-42 33 -65 45 -33 18 -41 19 -41 7 0 -8 7 -15 15 -15 8 0 15 -8 15 -17 0 -13
-8 -9 -32 16 -22 22 -29 35 -20 38 6 3 9 9 6 14 -7 13 -34 -8 -34 -27 0 -7 -4
-16 -10 -19 -6 -4 -6 3 0 21 9 24 7 30 -22 55 -17 16 -35 29 -40 29 -17 0 -7
-17 23 -39 17 -13 28 -25 26 -28 -3 -2 -19 8 -36 23 -22 20 -29 33 -25 47 4
13 2 17 -5 12 -7 -4 -19 -1 -27 6 -19 15 -124 59 -142 59 -8 0 -12 -6 -9 -12z
m139 -68 c8 -21 7 -23 -4 -10 -7 8 -20 21 -28 28 -13 12 -13 13 4 10 10 -1 23
-14 28 -28z m-112 10 c0 -5 -4 -10 -10 -10 -5 0 -10 5 -10 10 0 6 5 10 10 10
6 0 10 -4 10 -10z m55 -10 c3 -5 1 -10 -4 -10 -6 0 -11 5 -11 10 0 6 2 10 4
10 3 0 8 -4 11 -10z m65 -52 c0 -14 -16 -9 -36 13 -19 21 -19 21 9 8 15 -7 27
-16 27 -21z m230 -78 c0 -5 -2 -10 -4 -10 -3 0 -8 5 -11 10 -3 6 -1 10 4 10 6
0 11 -4 11 -10z m499 -85 c61 -55 197 -211 233 -265 16 -25 19 -32 6 -16 -67
87 -127 151 -138 148 -6 -1 -9 2 -6 7 6 9 -57 76 -72 76 -4 0 -13 4 -19 8 -7
5 -18 5 -25 1 -6 -4 -8 -3 -5 3 4 6 0 16 -9 23 -8 7 -13 19 -10 26 3 7 -8 24
-24 38 -17 14 -30 28 -30 31 0 7 23 -12 99 -80z m-573 54 c19 -22 19 -22 -3
-8 -13 8 -23 17 -23 21 0 12 6 9 26 -13z m137 -29 c18 -22 21 -30 10 -30 -11
1 -46 50 -36 50 5 0 16 -9 26 -20z m52 0 c3 -6 -1 -7 -9 -4 -18 7 -21 14 -7
14 6 0 13 -4 16 -10z m479 -46 c5 -14 4 -15 -9 -4 -17 14 -19 20 -6 20 5 0 12
-7 15 -16z m-777 -41 c1 -19 -1 -22 -8 -12 -11 17 -12 39 -1 39 4 0 8 -12 9
-27z m807 11 c3 -8 2 -12 -4 -9 -6 3 -10 10 -10 16 0 14 7 11 14 -7z m-854
-29 c0 -8 -4 -15 -9 -15 -11 0 -26 -39 -23 -60 2 -12 1 -13 -7 -1 -6 9 -18 11
-35 7 -23 -6 -37 6 -18 17 4 2 2 2 -5 1 -16 -4 -26 13 -13 21 6 4 8 10 5 15
-3 4 2 11 11 14 12 4 14 1 9 -14 -5 -16 -2 -20 15 -20 23 0 50 21 50 39 0 6 5
11 10 11 6 0 10 -7 10 -15z m884 -1 c3 -8 2 -12 -4 -9 -6 3 -10 10 -10 16 0
14 7 11 14 -7z m-809 -23 c3 -5 1 -12 -5 -16 -5 -3 -10 1 -10 9 0 18 6 21 15
7z m700 -1 c3 -6 -1 -7 -9 -4 -18 7 -21 14 -7 14 6 0 13 -4 16 -10z m30 -43
c8 -12 15 -28 15 -37 -1 -8 -8 -1 -17 15 -21 40 -23 42 -32 26 -7 -10 -9 -10
-14 1 -8 23 31 19 48 -5z m181 -94 c15 -20 23 -33 16 -29 -13 8 -56 66 -49 66
3 0 17 -17 33 -37z m-1046 -23 c0 -5 -5 -10 -11 -10 -5 0 -7 5 -4 10 3 6 8 10
11 10 2 0 4 -4 4 -10z m28 -61 c-3 -20 -5 -19 -9 9 -3 20 -2 29 4 23 5 -5 7
-19 5 -32z m-18 11 c0 -5 -2 -10 -4 -10 -3 0 -8 5 -11 10 -3 6 -1 10 4 10 6 0
11 -4 11 -10z m64 -15 c3 -8 1 -15 -4 -15 -6 0 -10 7 -10 15 0 8 2 15 4 15 2
0 6 -7 10 -15z m46 -4 c0 -5 -7 -11 -14 -14 -10 -4 -13 -1 -9 9 6 15 23 19 23
5z m-110 -21 c0 -5 -5 -10 -11 -10 -5 0 -7 5 -4 10 3 6 8 10 11 10 2 0 4 -4 4
-10z m22 -60 c6 0 8 -3 5 -6 -10 -11 -38 17 -30 30 5 7 9 5 11 -6 2 -10 8 -18
14 -18z m95 24 c-3 -3 -12 -4 -19 -1 -8 3 -5 6 6 6 11 1 17 -2 13 -5z m960
-36 c11 -13 28 -37 37 -55 17 -33 22 -58 7 -35 -6 10 -12 4 -21 -20 -8 -18
-18 -36 -24 -40 -6 -4 -6 -12 2 -21 12 -14 7 -27 -10 -27 -5 0 -6 5 -3 10 3 6
2 10 -4 10 -5 0 -11 43 -13 100 -2 55 0 100 3 100 3 0 15 -10 26 -22z m83
-142 c0 -8 -13 -16 -30 -18 -18 -3 -29 0 -27 5 2 6 11 11 21 13 10 1 20 5 24
8 9 9 12 7 12 -8z m-1640 -136 c0 -5 -2 -10 -4 -10 -3 0 -8 5 -11 10 -3 6 -1
10 4 10 6 0 11 -4 11 -10z m1853 -109 c7 -8 -7 -2 -30 14 -24 15 -43 30 -43
32 0 7 61 -31 73 -46z m-1390 24 c-3 -9 -8 -14 -10 -11 -3 3 -2 9 2 15 9 16
15 13 8 -4z m-155 -132 c-1 -10 1 -27 5 -38 4 -11 3 -24 -1 -30 -9 -13 -74
-36 -67 -24 4 5 -7 6 -24 3 -16 -3 -36 -2 -45 3 -15 8 -13 13 14 41 17 18 36
30 42 26 7 -4 8 -3 4 4 -7 12 -6 13 32 17 12 1 25 5 29 9 10 10 12 7 11 -11z
m-311 -9 c-3 -3 -12 -4 -19 -1 -8 3 -5 6 6 6 11 1 17 -2 13 -5z m63 -34 c0 -5
-5 -10 -11 -10 -5 0 -7 5 -4 10 3 6 8 10 11 10 2 0 4 -4 4 -10z m208 -88 c4
-14 32 -16 32 -2 0 6 -6 10 -12 11 -10 0 -10 2 -1 6 7 2 19 -2 27 -10 11 -11
12 -17 3 -27 -10 -10 -8 -12 6 -7 9 4 17 3 17 -2 0 -5 15 -16 33 -25 l32 -16
-37 0 c-21 0 -38 -4 -38 -10 0 -5 -11 -10 -24 -10 -35 0 -56 -10 -56 -26 0 -8
-8 -14 -17 -13 -11 0 -13 3 -5 6 6 2 12 11 12 18 0 10 -12 13 -45 10 -24 -3
-47 0 -50 6 -4 5 -16 7 -27 3 -16 -5 -20 -3 -15 9 3 9 -1 21 -9 28 -12 10 -13
9 -8 -7 6 -15 4 -17 -6 -7 -10 9 -17 10 -27 1 -23 -18 -28 1 -6 23 11 11 39
23 62 26 40 6 53 17 29 26 -7 2 18 4 56 3 45 -1 71 -6 74 -14z m147 -42 c-3
-5 -12 -10 -18 -10 -7 0 -6 4 3 10 19 12 23 12 15 0z m-295 -72 c23 3 30 0 30
-12 0 -9 6 -16 14 -16 8 0 16 -6 19 -12 3 -10 7 -10 18 -2 8 7 27 11 42 9 16
-2 50 3 75 11 57 17 55 17 46 3 -6 -11 21 -73 44 -97 15 -16 15 -29 2 -37 -6
-4 -7 -11 -4 -17 5 -8 1 -9 -11 -4 -16 6 -16 4 -4 -11 8 -10 24 -28 37 -41 23
-22 23 -24 7 -42 -10 -11 -20 -18 -24 -16 -3 2 -6 -7 -6 -20 0 -13 4 -24 9
-24 5 0 6 -3 3 -7 -4 -3 -2 -12 4 -20 9 -9 8 -13 0 -13 -6 0 -11 -4 -11 -10 0
-5 7 -10 15 -10 8 0 15 7 15 15 0 8 5 15 10 15 6 0 10 -9 10 -20 0 -14 -7 -20
-22 -20 -19 0 -20 -2 -8 -10 13 -8 12 -10 -5 -11 -17 -1 -17 -2 -2 -6 21 -5
23 -23 2 -23 -21 0 -19 -20 3 -21 13 0 14 -2 2 -6 -25 -10 -30 -27 -13 -45 19
-21 6 -23 -21 -3 -10 8 -15 19 -10 26 5 9 1 11 -14 7 -13 -4 -20 -2 -16 3 7
11 -125 139 -143 139 -8 0 -16 13 -19 30 -4 16 -10 28 -13 25 -4 -2 -20 7 -34
21 -15 14 -36 26 -47 27 -11 1 -20 5 -20 9 0 4 -7 8 -15 8 -8 0 -15 5 -15 11
0 6 -6 9 -14 6 -7 -3 -20 3 -29 14 -17 19 -11 24 22 19 7 -1 24 8 36 20 21 20
24 20 33 5 9 -16 11 -16 36 0 14 10 26 21 26 24 0 16 -14 20 -27 10 -10 -9
-13 -7 -13 10 0 11 -4 21 -9 21 -5 0 -14 20 -20 44 -11 44 -14 71 -5 50 2 -6
18 -8 34 -6z m-40 -70 c0 -6 -7 -5 -15 2 -8 7 -15 17 -15 22 0 6 7 5 15 -2 8
-7 15 -17 15 -22z m405 -208 c3 -5 -1 -10 -9 -10 -9 0 -16 5 -16 10 0 6 4 10
9 10 6 0 13 -4 16 -10z m-398 -22 c-3 -8 -6 -5 -6 6 -1 11 2 17 5 13 3 -3 4
-12 1 -19z m363 2 c0 -5 -7 -10 -16 -10 -8 0 -12 5 -9 10 3 6 10 10 16 10 5 0
9 -4 9 -10z m-327 -25 c4 -8 2 -17 -3 -20 -6 -4 -10 3 -10 14 0 25 6 27 13 6z
m352 -5 c-27 -12 -43 -12 -25 0 8 5 22 9 30 9 10 0 8 -3 -5 -9z m-515 -23 c9
-3 3 -6 -12 -6 -20 -1 -28 4 -28 15 0 12 4 14 13 7 6 -6 19 -13 27 -16z m313
-69 c21 -15 22 -28 2 -28 -8 0 -15 6 -15 13 0 8 -4 7 -11 -3 -9 -12 -10 -10
-6 8 5 19 2 22 -15 16 -15 -4 -18 -3 -13 6 5 9 2 10 -13 6 -16 -5 -21 -1 -27
21 -6 27 -7 28 -22 8 -14 -17 -15 -18 -9 -2 3 10 6 23 6 27 0 8 58 -27 123
-72z m217 62 c0 -5 -5 -10 -11 -10 -5 0 -7 5 -4 10 3 6 8 10 11 10 2 0 4 -4 4
-10z m-35 -140 c-10 -11 -22 -17 -26 -14 -16 10 -9 23 14 27 12 2 24 5 26 6 2
0 -4 -8 -14 -19z m15 -40 c0 -5 -4 -10 -10 -10 -5 0 -10 5 -10 10 0 6 5 10 10
10 6 0 10 -4 10 -10z m180 -115 c-7 -8 -19 -15 -26 -15 -8 0 -14 -4 -14 -10 0
-5 -4 -10 -9 -10 -12 0 -115 -69 -119 -80 -2 -5 -10 -6 -18 -3 -8 3 -14 -1
-14 -11 0 -9 -4 -16 -10 -16 -17 0 -11 40 8 46 30 9 47 22 45 33 -2 6 3 8 11
5 13 -5 39 8 116 54 42 26 47 27 30 7z m-243 -161 c-3 -3 -12 -4 -19 -1 -8 3
-5 6 6 6 11 1 17 -2 13 -5z m-82 -24 c-3 -5 -12 -10 -18 -10 -7 0 -6 4 3 10
19 12 23 12 15 0z m-25 -45 c-14 -8 -32 -14 -40 -14 -8 0 -1 6 15 14 40 18 57
18 25 0z m631 -202 c-12 -20 -14 -14 -5 12 4 9 9 14 11 11 3 -2 0 -13 -6 -23z
m-1074 -15 c-3 -8 -6 -5 -6 6 -1 11 2 17 5 13 3 -3 4 -12 1 -19z m1024 -95
c-11 -21 -20 -35 -21 -31 0 12 33 78 38 74 2 -2 -6 -21 -17 -43z m-1038 12
c-22 -17 -30 -11 -13 10 7 8 17 12 22 9 5 -3 1 -12 -9 -19z m97 21 c0 -2 -7
-9 -15 -16 -13 -11 -14 -10 -9 4 5 14 24 23 24 12z m1027 -38 c-3 -8 -6 -5 -6
6 -1 11 2 17 5 13 3 -3 4 -12 1 -19z m-1067 -2 c0 -2 -7 -19 -15 -37 -14 -34
-20 -23 -9 19 5 18 24 33 24 18z m930 -131 c-18 -47 -37 -88 -43 -92 -6 -4 -8
0 -4 8 14 34 47 117 58 147 6 18 14 31 16 28 3 -3 -10 -43 -27 -91z m-1404 47
c-17 -16 -18 -16 -5 5 7 12 15 20 18 17 3 -2 -3 -12 -13 -22z m994 -15 c-21
-20 -27 -23 -15 -7 35 43 40 48 44 44 3 -3 -10 -19 -29 -37z m90 -11 c0 -3 -4
-8 -10 -11 -5 -3 -10 -1 -10 4 0 6 5 11 10 11 6 0 10 -2 10 -4z m-1139 -65
c-25 -25 -27 -15 -4 19 9 13 18 19 21 12 2 -6 -6 -20 -17 -31z m79 -21 c-28
-22 -40 -25 -40 -10 0 11 53 41 60 33 3 -2 -6 -13 -20 -23z m991 -17 c-12 -20
-14 -14 -5 12 4 9 9 14 11 11 3 -2 0 -13 -6 -23z m-634 -40 c-3 -10 -5 -2 -5
17 0 19 2 27 5 18 2 -10 2 -26 0 -35z m543 24 c0 -2 -12 -14 -27 -28 l-28 -24
24 28 c23 25 31 32 31 24z m-585 -27 c3 -5 -3 -10 -15 -10 -12 0 -18 5 -15 10
3 6 10 10 15 10 5 0 12 -4 15 -10z m2167 -22 c-7 -7 -12 -8 -12 -2 0 14 12 26
19 19 2 -3 -1 -11 -7 -17z m-1060 -10 c-7 -7 -12 -8 -12 -2 0 14 12 26 19 19
2 -3 -1 -11 -7 -17z m-1012 -9 c0 -5 -4 -9 -10 -9 -5 0 -10 7 -10 16 0 8 5 12
10 9 6 -3 10 -10 10 -16z m2090 1 c0 -5 -8 -10 -17 -10 -15 0 -16 2 -3 10 19
12 20 12 20 0z m-109 -23 c-10 -9 -11 -8 -5 6 3 10 9 15 12 12 3 -3 0 -11 -7
-18z m39 -3 c0 -8 -4 -12 -10 -9 -5 3 -10 10 -10 16 0 5 5 9 10 9 6 0 10 -7
10 -16z m-630 -61 c-11 -17 -11 -17 -6 0 3 10 7 26 7 35 1 15 2 15 6 0 2 -10
-1 -25 -7 -35z m696 31 c14 -12 15 -14 3 -11 -9 3 -22 0 -29 -6 -10 -9 -11 -9
-6 1 6 10 1 11 -18 6 -16 -4 -26 -2 -26 4 0 6 10 13 23 15 12 2 25 5 28 6 3 0
14 -6 25 -15z m64 -28 c0 -3 -4 -8 -10 -11 -5 -3 -10 -1 -10 4 0 6 5 11 10 11
6 0 10 -2 10 -4z m-2715 -26 c10 -11 16 -20 13 -20 -3 0 -13 9 -23 20 -10 11
-16 20 -13 20 3 0 13 -9 23 -20z m870 10 c-3 -5 -12 -10 -18 -10 -7 0 -6 4 3
10 19 12 23 12 15 0z m1061 -57 c-10 -10 -19 5 -10 18 6 11 8 11 12 0 2 -7 1
-15 -2 -18z m661 -15 c-3 -7 -5 -2 -5 12 0 14 2 19 5 13 2 -7 2 -19 0 -25z
m-1335 -22 c-15 -24 -36 -50 -47 -57 -17 -10 -18 -10 -9 2 81 108 100 127 56
55z m-22 30 c0 -3 -4 -8 -10 -11 -5 -3 -10 -1 -10 4 0 6 5 11 10 11 6 0 10 -2
10 -4z m-27 -51 c-3 -9 -8 -14 -10 -11 -3 3 -2 9 2 15 9 16 15 13 8 -4z m1231
-12 c-5 -17 -9 -19 -19 -10 -10 9 -9 14 4 24 20 14 22 13 15 -14z m-44 -18 c0
-2 -10 -9 -22 -15 -22 -11 -22 -10 -4 4 21 17 26 19 26 11z m420 -9 c0 -2 -7
-7 -16 -10 -8 -3 -12 -2 -9 4 6 10 25 14 25 6z m-1556 -41 c-4 -8 -11 -15 -16
-15 -6 0 -5 6 2 15 7 8 14 15 16 15 2 0 1 -7 -2 -15z m1336 -30 c0 -19 -4 -35
-8 -35 -4 0 -6 16 -4 35 2 19 6 35 8 35 2 0 4 -16 4 -35z m227 9 c-3 -3 -12
-4 -19 -1 -8 3 -5 6 6 6 11 1 17 -2 13 -5z m-1596 -21 c-15 -28 -40 -59 -41
-50 0 8 41 67 47 67 2 0 -1 -8 -6 -17z m1356 -85 c-2 -13 -4 -5 -4 17 -1 22 1
32 4 23 2 -10 2 -28 0 -40z m-140 0 c-3 -8 -6 -5 -6 6 -1 11 2 17 5 13 3 -3 4
-12 1 -19z m-1277 -11 c0 -2 -10 -12 -22 -23 l-23 -19 19 23 c18 21 26 27 26
19z m1055 -27 c3 -5 1 -10 -4 -10 -6 0 -11 5 -11 10 0 6 2 10 4 10 3 0 8 -4
11 -10z m-1115 -49 c-12 -23 -1 -28 19 -8 10 10 11 9 6 -5 -7 -18 -29 -30 -58
-33 -9 -1 -26 -10 -37 -20 -41 -38 -18 1 28 45 50 49 60 54 42 21z m1175 19
c16 -7 12 -8 -17 -7 -20 1 -34 5 -31 10 5 9 22 8 48 -3z m530 -38 c-3 -3 -11
0 -18 7 -9 10 -8 11 6 5 10 -3 15 -9 12 -12z m-1446 -31 c-13 -11 -26 -17 -29
-14 -6 6 30 33 43 33 5 0 -1 -9 -14 -19z m-297 -23 c-7 -7 -12 -8 -12 -2 0 14
12 26 19 19 2 -3 -1 -11 -7 -17z m1748 5 c0 -15 2 -16 10 -3 9 13 11 13 20 0
5 -8 10 -12 10 -8 0 11 43 -33 62 -64 16 -24 16 -27 1 -32 -21 -9 -83 4 -83
16 0 6 -6 8 -14 5 -11 -4 -15 7 -18 49 -1 30 0 54 5 54 4 0 7 -8 7 -17z m215
-103 c4 -6 -6 -10 -22 -9 -25 0 -26 1 -8 9 11 5 21 9 22 9 1 1 5 -3 8 -9z"/>
<path d="M4410 4701 c0 -5 15 -20 33 -32 l32 -22 -29 31 c-32 34 -36 37 -36
23z"/>
<path d="M3328 3593 c6 -2 18 -2 25 0 6 3 1 5 -13 5 -14 0 -19 -2 -12 -5z"/>
<path d="M3547 3439 c7 -7 15 -10 18 -7 3 3 -2 9 -12 12 -14 6 -15 5 -6 -5z"/>
<path d="M3550 3410 c0 -5 5 -10 11 -10 5 0 7 5 4 10 -3 6 -8 10 -11 10 -2 0
-4 -4 -4 -10z"/>
<path d="M3580 3390 c0 -5 5 -10 10 -10 6 0 10 5 10 10 0 6 -4 10 -10 10 -5 0
-10 -4 -10 -10z"/>
<path d="M3600 3279 c0 -5 5 -7 10 -4 6 3 10 8 10 11 0 2 -4 4 -10 4 -5 0 -10
-5 -10 -11z"/>
<path d="M4025 4940 c-3 -5 1 -10 9 -10 9 0 16 5 16 10 0 6 -4 10 -9 10 -6 0
-13 -4 -16 -10z"/>
<path d="M3926 4855 c4 -8 11 -15 16 -15 6 0 5 6 -2 15 -7 8 -14 15 -16 15 -2
0 -1 -7 2 -15z"/>
<path d="M4451 4826 c8 -7 94 -72 104 -78 6 -4 11 2 11 12 0 10 -4 16 -8 14
-12 -8 -58 27 -51 39 4 6 0 8 -10 4 -10 -3 -17 -2 -17 3 0 6 -7 10 -17 10 -9
0 -14 -2 -12 -4z"/>
<path d="M4580 4731 c0 -4 24 -29 53 -55 28 -26 82 -77 119 -114 37 -36 70
-63 74 -60 3 4 -7 19 -22 34 -16 15 -22 24 -14 19 8 -4 -3 11 -25 34 -38 40
-60 56 -35 26 26 -32 -4 -13 -44 28 -59 59 -106 98 -106 88z m180 -146 c7 -9
8 -15 2 -15 -5 0 -12 7 -16 15 -3 8 -4 15 -2 15 2 0 9 -7 16 -15z"/>
<path d="M3488 4723 c7 -3 16 -2 19 1 4 3 -2 6 -13 5 -11 0 -14 -3 -6 -6z"/>
<path d="M3637 4716 c-4 -9 -14 -12 -25 -9 -22 5 -37 -11 -26 -28 4 -8 9 -7
15 2 8 12 10 12 18 1 8 -14 10 -13 60 15 6 4 -20 33 -29 33 -4 0 -10 -6 -13
-14z"/>
<path d="M4650 4707 c0 -2 15 -16 33 -33 l32 -29 -29 33 c-28 30 -36 37 -36
29z"/>
<path d="M3450 4566 c0 -2 7 -7 16 -10 8 -3 12 -2 9 4 -6 10 -25 14 -25 6z"/>
<path d="M3550 4546 c0 -8 5 -18 10 -21 6 -3 10 1 10 9 0 8 -4 18 -10 21 -5 3
-10 -1 -10 -9z"/>
<path d="M4710 4536 c0 -2 7 -9 15 -16 13 -11 14 -10 9 4 -5 14 -24 23 -24 12z"/>
<path d="M6305 4227 l-89 -112 -3 -135 -2 -135 42 49 c23 27 66 77 95 110 l52
61 0 78 0 79 -35 -44 c-20 -23 -53 -63 -73 -87 -20 -24 -42 -53 -49 -65 -11
-19 -12 -18 -10 14 1 25 13 45 42 75 104 107 116 124 104 148 -11 19 -10 20 2
10 13 -10 15 -6 16 28 1 21 1 39 0 39 -1 -1 -42 -51 -92 -113z m75 18 c0 -2
-6 -5 -13 -8 -8 -3 -14 1 -14 8 0 7 6 11 14 8 7 -3 13 -6 13 -8z m-63 -54 c0
-11 -5 -17 -9 -15 -5 3 -13 -8 -19 -25 -6 -18 -18 -31 -27 -31 -15 1 -15 2 1
11 9 5 17 15 17 20 0 9 31 58 37 59 1 0 1 -9 0 -19z"/>
<path d="M3620 4265 c0 -8 6 -15 13 -15 8 0 7 -4 -3 -11 -12 -9 -12 -10 3 -5
10 3 21 6 23 6 2 0 -1 9 -8 20 -15 24 -28 26 -28 5z"/>
<path d="M3675 4230 c3 -5 8 -10 11 -10 2 0 4 5 4 10 0 6 -5 10 -11 10 -5 0
-7 -4 -4 -10z"/>
<path d="M3640 4211 c0 -6 5 -13 10 -16 6 -3 10 1 10 9 0 9 -4 16 -10 16 -5 0
-10 -4 -10 -9z"/>
<path d="M5025 4120 c0 -34 1 -38 9 -21 5 13 5 29 0 42 -8 17 -9 13 -9 -21z"/>
<path d="M5004 4101 c0 -21 7 -36 16 -38 10 -3 11 -2 3 4 -6 4 -13 22 -16 38
-4 27 -5 27 -3 -4z"/>
<path d="M6177 4074 c-4 -12 -26 -46 -50 -77 -23 -31 -60 -81 -81 -112 -22
-30 -53 -68 -68 -83 -16 -15 -40 -49 -53 -77 -31 -62 -83 -135 -96 -135 -5 0
-9 -6 -9 -13 0 -7 -10 -17 -22 -22 -24 -11 -34 -27 -43 -68 -3 -15 -9 -26 -13
-23 -5 3 -17 -12 -28 -32 -10 -20 -25 -43 -31 -50 -7 -7 -13 -20 -13 -28 0 -8
-4 -14 -9 -14 -5 0 -16 -12 -24 -27 -36 -70 -44 -82 -50 -76 -4 3 -7 1 -7 -5
0 -6 -13 -33 -30 -59 -30 -46 -39 -80 -20 -68 6 4 10 -12 10 -40 0 -38 -5 -52
-29 -76 -19 -19 -40 -29 -58 -29 -16 0 -36 -6 -44 -12 -21 -18 -199 -330 -199
-350 0 -4 12 -11 28 -14 15 -4 32 -11 39 -16 18 -14 26 9 18 59 -8 54 9 78 67
93 l38 11 0 59 c0 70 6 75 98 86 45 5 62 11 62 21 0 17 38 74 57 86 7 4 13 15
13 23 0 9 10 30 22 47 13 17 21 42 19 55 -1 13 9 42 25 65 50 78 226 311 361
479 l134 168 -3 137 c-2 80 -6 129 -11 117z m-111 -271 c-11 -11 -17 4 -9 23
7 18 8 18 11 1 2 -10 1 -21 -2 -24z m-16 -23 c0 -5 -4 -10 -10 -10 -5 0 -10 5
-10 10 0 6 5 10 10 10 6 0 10 -4 10 -10z m-26 -18 c7 -12 -52 -78 -61 -68 -4
4 0 13 10 20 9 7 17 19 17 25 0 7 5 9 10 6 6 -3 10 -2 10 4 0 5 -6 12 -12 14
-8 3 -7 6 4 6 9 1 19 -3 22 -7z"/>
<path d="M3620 3950 c0 -5 4 -10 9 -10 6 0 13 5 16 10 3 6 -1 10 -9 10 -9 0
-16 -4 -16 -10z"/>
<path d="M3118 3903 c5 -21 7 -23 10 -9 2 10 0 22 -6 28 -6 6 -7 0 -4 -19z"/>
<path d="M2640 3728 c0 -10 -12 -18 -34 -22 -19 -4 -37 -12 -40 -19 -3 -9 -7
-8 -15 2 -8 12 -11 10 -16 -12 -4 -15 -16 -32 -26 -38 -15 -8 -17 -14 -9 -29
7 -14 7 -20 0 -20 -5 0 -10 -7 -10 -16 0 -14 2 -15 17 -3 15 12 16 12 10 -3
-5 -15 -1 -18 26 -17 18 1 24 3 14 6 -19 5 -20 44 -2 74 14 22 72 49 106 49
26 0 28 -2 19 -25 -9 -25 2 -36 15 -14 10 15 38 -28 31 -47 -4 -12 -10 -13
-26 -4 -15 8 -20 8 -20 -2 0 -7 12 -18 26 -25 22 -10 25 -10 20 3 -3 7 -1 14
4 14 6 0 10 -5 10 -11 0 -17 79 -4 99 15 13 13 13 20 3 36 -6 11 -12 28 -12
39 0 25 -15 36 -85 59 -37 13 -64 17 -71 11 -6 -5 -15 -4 -22 3 -9 9 -12 8
-12 -4z"/>
<path d="M2841 3654 c0 -11 3 -14 6 -6 3 7 2 16 -1 19 -3 4 -6 -2 -5 -13z"/>
<path d="M2411 3415 c-1 -11 -4 -31 -6 -45 l-6 -25 11 25 c6 13 9 33 7 45 -4
19 -4 19 -6 0z"/>
<path d="M2952 3410 c0 -14 2 -19 5 -12 2 6 2 18 0 25 -3 6 -5 1 -5 -13z"/>
<path d="M5251 3331 c-24 -33 -27 -46 -8 -35 9 6 9 5 0 -8 -7 -8 -9 -18 -5
-22 4 -4 7 -50 7 -101 0 -117 16 -143 40 -64 31 106 29 259 -4 259 -5 0 -19
-13 -30 -29z"/>
<path d="M6392 3285 c0 -16 2 -22 5 -12 2 9 2 23 0 30 -3 6 -5 -1 -5 -18z"/>
<path d="M5210 3198 c1 -40 2 -42 15 -24 20 26 19 66 0 66 -11 0 -15 -11 -15
-42z"/>
<path d="M6327 3110 c-103 -197 -118 -244 -116 -361 1 -54 6 -96 10 -93 4 2 7
17 7 32 -1 49 76 255 138 369 31 55 35 70 32 122 l-3 60 -68 -129z"/>
<path d="M2950 3160 c-8 -5 -28 -10 -45 -11 -16 0 -24 -3 -17 -6 6 -2 12 -11
12 -20 0 -10 6 -12 23 -7 34 11 67 35 61 45 -7 11 -15 11 -34 -1z"/>
<path d="M5220 3069 c7 -11 14 -19 16 -16 7 7 -7 37 -17 37 -6 0 -5 -9 1 -21z"/>
<path d="M2245 3020 c3 -5 8 -10 11 -10 2 0 4 5 4 10 0 6 -5 10 -11 10 -5 0
-7 -4 -4 -10z"/>
<path d="M2296 2950 c3 -47 10 -89 15 -94 17 -19 14 45 -6 124 l-15 55 6 -85z"/>
<path d="M2599 2999 c-9 -9 -22 -34 -29 -55 -7 -22 -16 -44 -21 -50 -5 -6 -7
-13 -4 -15 2 -3 5 -25 6 -49 2 -25 7 -48 13 -52 7 -6 6 -11 -4 -17 -8 -6 -12
-13 -8 -16 17 -17 35 30 41 104 4 45 11 90 17 102 6 11 10 30 8 42 -3 21 -4
21 -19 6z"/>
<path d="M5586 2804 c-3 -9 -6 -25 -6 -37 0 -33 -15 -49 -47 -51 -41 -4 -50
-11 -57 -48 -17 -86 -17 -129 -2 -154 10 -15 12 -23 5 -22 -19 5 -30 -49 -13
-63 11 -9 16 -6 23 12 8 20 10 20 10 5 1 -15 4 -16 16 -6 9 7 15 8 15 2 0 -13
32 -25 39 -14 3 5 14 11 24 15 12 4 17 1 18 -11 0 -14 1 -15 7 -2 11 25 127
173 161 205 l31 29 -11 -32 c-6 -18 -15 -32 -20 -32 -5 0 -9 -5 -9 -11 0 -6
-8 -18 -18 -27 -9 -10 -13 -14 -8 -9 20 15 28 6 11 -13 -10 -11 -21 -17 -26
-14 -5 2 -20 -13 -34 -35 -25 -41 -33 -81 -15 -81 6 0 10 8 10 19 0 28 29 93
39 86 11 -6 131 123 131 141 0 13 -4 16 -32 18 -24 2 -58 49 -64 88 l-7 38
-58 0 c-32 0 -69 4 -82 9 -20 8 -27 6 -31 -5z"/>
<path d="M2606 2795 c-3 -8 -1 -15 4 -15 13 0 22 18 11 24 -5 3 -11 -1 -15 -9z"/>
<path d="M2847 2793 c-3 -5 -2 -15 2 -22 7 -10 10 -10 16 -1 4 6 3 16 -3 22
-5 5 -12 6 -15 1z"/>
<path d="M6160 2727 c-24 -50 -60 -76 -60 -43 0 56 -157 -40 -211 -128 -12
-19 -19 -25 -19 -15 0 14 -6 16 -35 9 -72 -16 -111 -63 -103 -122 4 -24 1 -27
-38 -33 -23 -3 -50 -15 -59 -25 -10 -11 -24 -20 -32 -20 -27 0 -258 -231 -241
-241 14 -9 -22 -50 -36 -42 -6 3 -8 3 -4 -2 4 -4 2 -15 -4 -23 -10 -12 -3 -13
57 -7 66 7 69 6 50 -9 -19 -16 -19 -16 10 -10 21 4 26 3 16 -4 -11 -8 -11 -11
0 -16 8 -3 4 -3 -8 0 -12 3 -30 1 -40 -5 -10 -5 -32 -15 -50 -22 -17 -7 -29
-17 -27 -21 3 -4 -2 -5 -10 -2 -9 3 -16 1 -16 -5 0 -24 32 -22 85 3 64 30 66
31 59 12 -4 -9 5 -15 26 -18 32 -5 32 -4 27 31 -3 20 -3 30 0 23 2 -6 9 -10
14 -6 5 3 9 -2 9 -11 0 -11 32 12 91 62 49 43 103 85 119 94 17 9 36 21 43 27
8 7 18 7 27 2 8 -5 22 -4 33 2 13 7 16 12 8 17 -12 8 -34 71 -25 71 3 0 13 -8
22 -17 16 -16 17 -15 20 9 3 26 24 39 84 52 36 8 85 51 107 95 19 36 41 125
41 162 0 19 -1 19 -16 5 -21 -22 -27 -20 -13 5 6 12 9 32 6 45 -5 30 12 36 74
28 l49 -7 0 77 c0 42 -1 76 -2 76 -2 0 -14 -24 -28 -53z m-133 -129 c-11 -5
-48 -37 -84 -69 -61 -56 -82 -66 -86 -45 -1 5 8 10 21 11 14 1 41 22 69 54 43
49 81 75 93 64 3 -2 -3 -9 -13 -15z m-193 -124 c24 -9 19 -31 -9 -36 -19 -4
-25 -1 -25 12 0 14 8 30 16 30 1 0 9 -3 18 -6z m87 -59 c38 12 17 -18 -44 -64
-15 -12 -17 -12 -11 3 3 9 2 16 -3 16 -6 0 -10 13 -9 29 1 26 3 28 25 20 13
-5 32 -7 42 -4z m87 -30 c-16 -35 -29 -31 -15 4 6 17 14 28 19 25 4 -3 2 -16
-4 -29z m-219 -69 c-12 -11 -129 -53 -129 -46 0 4 15 13 33 20 17 6 41 16 52
20 20 9 52 13 44 6z m-359 -336 c0 -5 -4 -10 -10 -10 -5 0 -10 5 -10 10 0 6 5
10 10 10 6 0 10 -4 10 -10z"/>
<path d="M2378 2674 c-14 -14 -20 -15 -32 -5 -12 10 -14 9 -9 -8 3 -12 9 -21
13 -21 12 0 33 -57 25 -69 -3 -6 -14 -11 -23 -11 -15 0 -15 -1 0 -16 9 -9 28
-16 42 -16 21 0 23 -3 11 -14 -7 -8 -26 -14 -42 -15 -21 0 -23 -2 -11 -7 16
-7 16 -10 3 -36 -8 -15 -15 -35 -15 -42 0 -16 16 -19 25 -4 15 23 43 30 60 14
15 -15 15 -14 9 12 -4 16 -11 37 -16 47 -6 12 -5 16 3 15 14 -4 53 106 39 110
-5 2 -10 15 -10 28 0 28 -8 31 -25 7 -12 -16 -14 -15 -22 15 -8 31 -9 32 -25
16z"/>
<path d="M3100 2671 c0 -11 -3 -26 -6 -35 -5 -12 0 -16 20 -16 29 0 35 14 10
24 -10 4 -14 14 -11 26 3 11 1 20 -4 20 -5 0 -9 -9 -9 -19z"/>
<path d="M850 2560 c-8 -5 -26 -6 -41 -3 -21 4 -34 -2 -59 -26 -18 -17 -36
-31 -41 -31 -4 0 -10 -9 -14 -19 -5 -17 -37 -35 -57 -32 -20 2 -65 -239 -54
-284 5 -20 95 -75 123 -75 7 0 14 -4 17 -9 11 -17 -60 0 -96 24 -21 14 -41 25
-46 25 -7 0 -14 -69 -16 -180 l-1 -45 95 -47 c103 -51 128 -59 91 -28 -28 24
-15 27 17 4 36 -25 48 -11 18 20 -14 16 -26 34 -26 39 0 6 3 7 6 4 4 -3 15 -2
25 4 11 5 19 6 19 2 0 -5 13 -14 30 -20 37 -14 45 -4 53 64 6 56 1 65 -43 71
-14 2 -43 12 -65 22 -36 17 -38 18 -14 19 29 1 137 103 152 144 5 12 10 57 11
99 2 44 9 84 16 93 16 20 -4 20 -24 0 -8 -8 -19 -15 -24 -15 -4 0 -35 -13 -69
-29 -49 -24 -211 -65 -221 -56 -1 1 0 9 4 18 7 19 68 43 146 56 32 6 72 18 90
27 l33 18 -35 7 c-19 4 -38 5 -42 3 -16 -10 -18 19 -1 46 18 32 28 37 38 20 5
-8 11 -7 21 1 7 6 11 16 8 21 -4 6 4 4 17 -2 19 -10 22 -10 12 0 -6 7 -9 19
-6 26 3 8 -1 14 -10 14 -8 0 -17 4 -19 10 -2 6 -9 6 -18 0z m-119 -660 c11 0
19 -3 19 -7 0 -10 -109 -15 -123 -6 -17 10 24 23 57 18 16 -3 37 -5 47 -5z"/>
<path d="M5250 2540 c0 -5 5 -10 11 -10 5 0 7 5 4 10 -3 6 -8 10 -11 10 -2 0
-4 -4 -4 -10z"/>
<path d="M5176 2531 c-4 -6 3 -15 14 -21 23 -12 27 2 6 19 -9 8 -16 8 -20 2z"/>
<path d="M5136 2463 c-11 -11 -6 -23 9 -23 8 0 15 4 15 9 0 13 -16 22 -24 14z"/>
<path d="M5171 2425 c-13 -31 -2 -75 19 -75 12 0 12 56 0 85 -7 18 -9 18 -19
-10z"/>
<path d="M5117 2403 c-4 -3 -7 -11 -7 -17 0 -6 5 -5 12 2 6 6 9 14 7 17 -3 3
-9 2 -12 -2z"/>
<path d="M5481 2374 c-14 -31 -5 -50 15 -33 15 12 20 59 6 59 -5 0 -14 -12
-21 -26z"/>
<path d="M5538 2388 c11 -11 52 -22 52 -14 0 2 -15 9 -32 15 -26 9 -30 9 -20
-1z"/>
<path d="M5040 2378 c0 -9 7 -22 17 -29 15 -13 15 -12 3 11 -17 34 -20 36 -20
18z"/>
<path d="M5145 2360 c3 -5 8 -10 11 -10 2 0 4 5 4 10 0 6 -5 10 -11 10 -5 0
-7 -4 -4 -10z"/>
<path d="M5536 2345 c-3 -8 -12 -15 -20 -15 -20 0 -29 -17 -12 -23 17 -7 62
38 48 47 -6 3 -12 -1 -16 -9z"/>
<path d="M5110 2331 c0 -6 5 -13 11 -16 6 -4 14 -17 19 -29 7 -19 9 -19 15 -3
5 11 1 25 -10 37 -19 21 -35 26 -35 11z"/>
<path d="M2308 2279 c18 -35 28 -46 33 -37 12 18 11 30 -1 23 -5 -3 -17 10
-27 29 -9 20 -20 36 -23 36 -4 0 4 -23 18 -51z"/>
<path d="M5040 2320 c0 -8 5 -22 10 -30 9 -13 10 -13 10 0 0 8 -5 22 -10 30
-9 13 -10 13 -10 0z"/>
<path d="M1952 2200 c0 -14 2 -19 5 -12 2 6 2 18 0 25 -3 6 -5 1 -5 -13z"/>
<path d="M5126 2194 c-4 -9 -4 -19 -1 -22 3 -3 5 1 5 8 0 9 6 7 21 -6 21 -19
21 -19 8 9 -14 31 -24 34 -33 11z"/>
<path d="M5111 2126 c-7 -8 -8 -17 -3 -20 6 -3 13 1 16 10 9 23 2 28 -13 10z"/>
<path d="M5250 2080 c-19 -10 -38 -16 -42 -13 -4 2 -5 -3 -2 -11 5 -12 11 -13
32 -4 29 12 73 49 57 47 -6 -1 -26 -9 -45 -19z"/>
<path d="M877 2072 c-22 -24 -21 -32 3 -32 11 0 20 4 20 9 0 5 3 16 6 25 8 22
-9 20 -29 -2z"/>
<path d="M3602 2021 c-17 -48 -14 -73 4 -32 8 19 13 42 11 50 -1 9 -8 2 -15
-18z"/>
<path d="M1840 2015 c-10 -13 -8 -20 14 -40 30 -27 46 -32 46 -12 0 9 3 8 9
-2 5 -7 11 -9 14 -4 3 4 -12 23 -33 40 -33 28 -40 30 -50 18z"/>
<path d="M2770 2022 c0 -4 -10 -12 -22 -17 -14 -6 -26 -22 -29 -40 -4 -16 -7
-22 -8 -12 -1 12 -10 17 -30 17 -16 0 -36 2 -44 5 -22 9 -17 -153 6 -170 9 -6
14 -15 11 -18 -3 -3 -2 -12 2 -19 6 -9 13 4 20 37 12 50 12 50 13 12 1 -34 3
-37 21 -27 16 9 18 8 14 -5 -4 -8 -10 -15 -14 -15 -4 0 -10 -9 -13 -20 -6 -23
1 -25 24 -7 9 7 14 18 11 26 -3 8 0 11 7 7 6 -4 11 -2 11 3 0 6 7 11 15 11 8
0 15 5 15 11 0 5 3 8 8 6 4 -2 18 7 32 20 l25 25 -25 -7 c-23 -6 -23 -5 5 13
l30 20 27 -30 c14 -17 40 -58 57 -92 17 -35 41 -79 55 -98 13 -20 27 -45 31
-57 12 -38 23 -22 13 20 -7 26 -15 38 -24 35 -7 -3 -13 2 -13 12 0 33 -10 68
-30 114 -26 57 -38 133 -22 142 6 4 11 11 11 16 0 8 -34 24 -55 25 -18 2 -84
36 -96 51 -12 15 -39 19 -39 6z m-13 -54 c-3 -8 -6 -5 -6 6 -1 11 2 17 5 13 3
-3 4 -12 1 -19z m-30 -80 c-3 -7 -5 -2 -5 12 0 14 2 19 5 13 2 -7 2 -19 0 -25z"/>
<path d="M5288 2007 c-33 -13 -34 -18 -8 -35 17 -10 26 -9 58 11 20 13 44 26
52 30 8 3 -5 5 -30 5 -25 0 -57 -5 -72 -11z"/>
<path d="M1985 1921 c-2 -5 7 -12 21 -15 35 -9 40 -2 9 12 -13 6 -27 7 -30 3z"/>
<path d="M3040 1920 c0 -5 5 -10 11 -10 5 0 7 5 4 10 -3 6 -8 10 -11 10 -2 0
-4 -4 -4 -10z"/>
<path d="M1823 1900 c-10 -15 -8 -26 11 -62 12 -24 21 -48 19 -54 -8 -24 152
-68 222 -62 49 4 61 32 21 48 -40 15 -31 26 19 22 25 -2 45 0 45 4 0 5 -15 10
-33 11 -19 1 -54 10 -78 22 -24 11 -72 29 -106 40 -33 10 -72 26 -85 35 -22
14 -24 14 -35 -4z"/>
<path d="M5345 1892 c-7 -5 -7 -17 0 -40 6 -18 14 -30 17 -27 3 4 9 2 13 -4 3
-6 0 -11 -7 -12 -16 -1 21 -17 41 -18 11 -1 11 3 -2 17 -19 21 -11 38 10 20
10 -8 17 -8 25 0 9 9 9 12 -1 12 -10 0 -9 6 3 25 22 33 21 35 -14 35 -17 0
-30 -5 -30 -12 0 -9 -3 -9 -12 0 -14 14 -28 15 -43 4z"/>
<path d="M2365 1852 c-27 -9 -59 -23 -70 -30 -19 -13 -19 -13 3 -8 19 4 21 2
11 -10 -9 -11 -7 -14 12 -16 13 0 29 -2 35 -2 6 -1 26 -14 45 -30 28 -24 35
-26 37 -12 2 9 8 16 14 16 5 0 7 -7 4 -17 -10 -24 24 -49 84 -62 29 -6 55 -10
57 -7 6 6 -59 42 -90 50 -15 3 -27 11 -27 16 0 5 23 1 51 -11 29 -11 56 -18
62 -16 14 4 -49 75 -75 83 -15 4 -17 8 -8 14 8 5 24 2 38 -8 57 -37 62 -13 8
37 -34 32 -120 38 -191 13z"/>
<path d="M5320 1856 c0 -8 4 -17 9 -20 5 -4 7 3 4 14 -6 23 -13 26 -13 6z"/>
<path d="M837 1839 c7 -7 15 -10 18 -7 3 3 -2 9 -12 12 -14 6 -15 5 -6 -5z"/>
<path d="M2205 1790 c3 -5 -5 -15 -19 -22 -14 -6 -26 -17 -26 -25 0 -16 1 -16
34 -3 14 5 26 6 26 2 0 -11 -58 -72 -68 -72 -10 0 -22 -33 -22 -62 0 -10 7
-18 17 -18 15 0 15 -1 0 -18 -30 -33 -21 -49 29 -57 26 -3 53 -9 60 -12 11 -4
14 6 14 38 l0 44 30 -36 c37 -45 75 -44 85 2 8 36 25 48 25 17 0 -18 2 -20 10
-8 8 12 10 12 10 1 0 -8 3 -12 6 -8 8 8 -15 78 -34 100 -19 21 1 23 22 1 15
-14 16 -12 16 18 -1 28 -7 37 -43 60 -65 40 -187 82 -172 58z m132 -252 c-3
-8 -6 -5 -6 6 -1 11 2 17 5 13 3 -3 4 -12 1 -19z"/>
<path d="M5370 1779 c0 -5 5 -7 10 -4 6 3 10 8 10 11 0 2 -4 4 -10 4 -5 0 -10
-5 -10 -11z"/>
<path d="M768 1763 c7 -3 16 -2 19 1 4 3 -2 6 -13 5 -11 0 -14 -3 -6 -6z"/>
<path d="M547 1714 c-3 -27 -4 -50 -2 -52 2 -2 16 3 32 11 15 8 62 23 103 33
l74 18 -34 15 c-19 8 -65 16 -101 19 l-66 4 -6 -48z"/>
<path d="M5375 1750 c3 -5 10 -10 16 -10 5 0 9 5 9 10 0 6 -7 10 -16 10 -8 0
-12 -4 -9 -10z"/>
<path d="M3616 1705 c-11 -19 -23 -32 -27 -29 -5 3 -9 -9 -9 -26 0 -17 -5 -41
-11 -53 -12 -22 -12 -22 10 -3 13 12 19 26 16 36 -3 11 1 20 10 24 8 3 15 11
15 17 0 7 7 20 14 28 8 9 12 22 8 28 -5 8 -14 1 -26 -22z"/>
<path d="M850 1690 c0 -6 7 -10 15 -10 8 0 15 2 15 4 0 2 -7 6 -15 10 -8 3
-15 1 -15 -4z"/>
<path d="M5414 1693 c10 -11 36 -12 36 -2 0 5 -10 9 -22 9 -12 0 -18 -3 -14
-7z"/>
<path d="M658 1655 c-91 -27 -102 -33 -109 -57 -14 -52 -28 -305 -35 -604 -7
-318 -2 -434 21 -434 7 0 44 9 81 21 57 18 79 31 136 87 37 36 76 79 86 96 19
33 18 66 -1 66 -7 0 -3 7 7 15 15 12 21 32 26 96 5 73 4 82 -14 95 -20 14 -20
14 1 14 19 0 21 3 13 29 -4 15 -7 67 -6 114 1 69 -1 83 -12 74 -11 -8 -12 -5
-6 17 13 54 11 59 -35 73 -68 20 -68 29 2 25 l62 -4 -3 85 c-4 93 -7 97 -74
97 -19 0 -28 5 -28 16 0 14 7 15 45 10 l45 -7 0 30 c0 17 0 34 1 39 1 11 -54
38 -79 38 -13 0 -68 -14 -124 -31z m42 -145 c0 -20 -25 -38 -36 -27 -7 6 18
47 28 47 5 0 8 -9 8 -20z"/>
<path d="M2446 1665 c2 -11 4 -25 4 -31 0 -6 13 -11 29 -10 l30 1 -21 22 c-12
12 -24 20 -29 18 -4 -3 -9 0 -12 7 -2 7 -3 4 -1 -7z"/>
<path d="M3550 1650 c-6 -11 -8 -20 -5 -20 3 0 1 -10 -5 -22 -11 -23 -11 -23
9 1 12 13 21 32 21 42 0 24 -7 24 -20 -1z"/>
<path d="M1950 1648 c0 -5 7 -11 15 -14 8 -4 15 -12 15 -19 0 -24 17 -25 43
-5 33 26 45 26 22 0 -17 -19 -18 -22 -2 -37 11 -11 20 -14 26 -8 12 14 25 76
14 74 -4 -1 -15 0 -23 4 -28 10 -110 15 -110 5z"/>
<path d="M3710 1638 c-12 -22 -12 -22 6 -6 10 10 15 20 12 24 -4 3 -12 -5 -18
-18z"/>
<path d="M3427 1624 c-10 -13 -19 -34 -20 -47 -2 -24 -48 -95 -110 -170 -22
-26 -38 -50 -34 -53 3 -3 30 27 60 68 30 40 64 82 76 92 11 11 21 27 21 36 0
9 7 31 16 49 20 40 14 56 -9 25z"/>
<path d="M3515 1609 c-4 -6 -7 -26 -8 -44 0 -19 -5 -31 -9 -29 -5 3 -7 2 -6
-3 1 -4 -6 -23 -15 -40 -10 -18 -16 -33 -14 -33 10 0 58 80 53 88 -3 5 -1 23
4 41 9 31 7 40 -5 20z"/>
<path d="M5440 1600 c0 -5 5 -10 10 -10 6 0 10 5 10 10 0 6 -4 10 -10 10 -5 0
-10 -4 -10 -10z"/>
<path d="M1951 1571 c-12 -22 -5 -27 19 -11 11 7 12 12 3 21 -8 8 -14 6 -22
-10z"/>
<path d="M5370 1580 c0 -5 5 -10 11 -10 5 0 7 5 4 10 -3 6 -8 10 -11 10 -2 0
-4 -4 -4 -10z"/>
<path d="M5400 1580 c0 -5 5 -10 10 -10 6 0 10 5 10 10 0 6 -4 10 -10 10 -5 0
-10 -4 -10 -10z"/>
<path d="M3457 1536 c-22 -64 -21 -71 4 -21 11 22 18 47 16 55 -1 8 -11 -7
-20 -34z"/>
<path d="M2007 1549 c9 -9 10 -16 1 -26 -19 -24 1 -27 23 -4 24 25 23 26 -11
36 -20 6 -23 5 -13 -6z"/>
<path d="M3287 1516 c-21 -13 -46 -34 -55 -47 -9 -13 -18 -26 -22 -29 -8 -7
-65 -82 -75 -98 -6 -12 -3 -12 16 -2 36 19 130 101 136 119 4 9 11 23 18 31
11 14 27 50 22 50 -1 0 -19 -11 -40 -24z"/>
<path d="M4370 1510 c-12 -8 -11 -10 6 -10 12 0 25 -7 28 -16 4 -9 9 -14 12
-11 7 6 -14 47 -24 47 -4 0 -14 -5 -22 -10z"/>
<path d="M4516 1512 c-3 -6 -1 -14 5 -17 15 -10 25 3 12 16 -7 7 -13 7 -17 1z"/>
<path d="M2110 1500 c0 -5 12 -10 28 -10 21 0 24 2 12 10 -20 13 -40 13 -40 0z"/>
<path d="M2725 1480 c10 -11 20 -20 23 -20 3 0 -3 9 -13 20 -10 11 -20 20 -23
20 -3 0 3 -9 13 -20z"/>
<path d="M4430 1490 c0 -5 5 -10 10 -10 6 0 10 5 10 10 0 6 -4 10 -10 10 -5 0
-10 -4 -10 -10z"/>
<path d="M4554 1474 c3 -9 6 -20 6 -24 0 -5 9 -7 20 -5 12 2 24 -3 30 -14 5
-10 24 -24 42 -31 18 -8 45 -22 60 -32 32 -22 39 -23 32 -3 -4 8 -14 15 -24
15 -10 0 -20 7 -24 15 -3 8 -12 15 -19 15 -8 0 -20 7 -27 15 -7 8 -16 13 -20
10 -4 -3 -10 5 -13 16 -4 14 -11 20 -21 16 -8 -3 -17 1 -20 9 -3 8 -10 14 -17
14 -6 0 -8 -7 -5 -16z"/>
<path d="M4455 1470 c-4 -6 -4 -10 -1 -10 2 0 11 -3 20 -6 9 -3 16 -2 16 4 0
14 -28 23 -35 12z"/>
<path d="M4950 1467 c0 -15 29 -57 30 -42 0 6 -3 20 -6 33 -7 24 -24 31 -24 9z"/>
<path d="M5420 1470 c0 -5 7 -10 15 -10 8 0 15 5 15 10 0 6 -7 10 -15 10 -8 0
-15 -4 -15 -10z"/>
<path d="M3362 1445 c-13 -14 -20 -29 -17 -36 5 -6 15 2 27 21 24 40 20 46
-10 15z"/>
<path d="M3608 1445 c-6 -13 -14 -22 -19 -20 -4 3 -10 1 -13 -4 -11 -17 27 -5
40 13 7 10 17 15 23 11 7 -3 8 0 5 9 -9 23 -23 19 -36 -9z"/>
<path d="M4380 1456 c0 -2 7 -9 15 -16 12 -10 15 -10 15 4 0 9 -7 16 -15 16
-8 0 -15 -2 -15 -4z"/>
<path d="M4517 1430 c19 -22 29 -19 20 5 -4 8 -13 15 -22 15 -13 0 -12 -3 2
-20z"/>
<path d="M4315 1430 c3 -5 8 -10 11 -10 2 0 4 5 4 10 0 6 -5 10 -11 10 -5 0
-7 -4 -4 -10z"/>
<path d="M2780 1426 c0 -2 8 -10 18 -17 15 -13 16 -12 3 4 -13 16 -21 21 -21
13z"/>
<path d="M4435 1420 c3 -5 11 -10 16 -10 6 0 7 5 4 10 -3 6 -11 10 -16 10 -6
0 -7 -4 -4 -10z"/>
<path d="M4990 1425 c0 -14 8 -23 75 -85 61 -56 53 -44 -29 45 -25 27 -46 45
-46 40z"/>
<path d="M3623 1408 c-11 -19 -13 -39 -2 -32 15 9 31 44 20 44 -5 0 -13 -6
-18 -12z"/>
<path d="M4360 1410 c0 -5 5 -10 11 -10 5 0 7 5 4 10 -3 6 -8 10 -11 10 -2 0
-4 -4 -4 -10z"/>
<path d="M4562 1400 c14 -22 24 -19 15 5 -4 8 -11 15 -17 15 -6 0 -6 -7 2 -20z"/>
<path d="M4871 1387 c56 -50 93 -76 98 -71 3 2 -6 12 -20 21 -13 10 -39 32
-57 50 -18 18 -38 33 -45 33 -7 0 4 -15 24 -33z"/>
<path d="M4280 1406 c0 -4 7 -14 15 -22 8 -9 15 -11 15 -6 0 5 -7 15 -15 22
-8 7 -15 9 -15 6z"/>
<path d="M4476 1401 c-3 -5 3 -11 15 -14 16 -4 18 -3 8 9 -13 16 -16 17 -23 5z"/>
<path d="M4765 1400 c3 -5 8 -10 11 -10 2 0 4 5 4 10 0 6 -5 10 -11 10 -5 0
-7 -4 -4 -10z"/>
<path d="M3542 1393 c-6 -3 -10 -9 -6 -14 3 -5 0 -9 -6 -9 -6 0 -25 -10 -43
-22 -66 -47 -73 -66 -11 -27 19 11 34 25 34 30 0 5 3 8 8 7 15 -3 42 15 35 25
-3 6 -1 7 6 3 16 -10 -19 -53 -67 -83 -41 -25 -38 -30 5 -11 36 16 79 48 64
48 -7 0 -2 10 11 23 13 12 22 21 20 20 -3 -1 -12 1 -21 6 -9 5 -22 6 -29 4z"/>
<path d="M4390 1390 c-12 -8 -10 -10 8 -10 13 0 20 4 17 10 -7 12 -6 12 -25 0z"/>
<path d="M4600 1390 c0 -5 5 -10 11 -10 5 0 7 5 4 10 -3 6 -8 10 -11 10 -2 0
-4 -4 -4 -10z"/>
<path d="M2837 1372 c12 -11 19 -23 15 -26 -3 -4 2 -4 11 0 10 3 17 7 15 8 -2
1 -16 10 -33 20 -30 17 -30 17 -8 -2z"/>
<path d="M3329 1380 c-1 -8 -3 -19 -3 -25 -1 -5 -5 -16 -9 -22 -17 -27 3 -11
24 19 13 17 18 29 12 25 -6 -4 -14 -1 -16 5 -4 9 -6 9 -8 -2z"/>
<path d="M4814 1377 c3 -10 6 -21 6 -23 0 -2 6 -4 13 -4 6 0 23 -12 36 -25 13
-14 28 -25 35 -25 6 0 -3 14 -21 30 -18 17 -36 30 -42 30 -5 0 -15 8 -21 18
-11 16 -11 16 -6 -1z"/>
<path d="M4325 1370 c3 -5 10 -10 16 -10 5 0 9 5 9 10 0 6 -7 10 -16 10 -8 0
-12 -4 -9 -10z"/>
<path d="M4525 1370 c3 -5 10 -10 16 -10 5 0 9 5 9 10 0 6 -7 10 -16 10 -8 0
-12 -4 -9 -10z"/>
<path d="M3189 1341 c-19 -16 -32 -31 -29 -34 3 -3 21 7 40 23 19 16 32 31 29
34 -3 3 -21 -7 -40 -23z"/>
<path d="M4445 1360 c3 -5 11 -10 16 -10 6 0 7 5 4 10 -3 6 -11 10 -16 10 -6
0 -7 -4 -4 -10z"/>
<path d="M4640 1366 c0 -2 7 -7 16 -10 8 -3 12 -2 9 4 -6 10 -25 14 -25 6z"/>
<path d="M4570 1350 c0 -5 5 -10 10 -10 6 0 10 5 10 10 0 6 -4 10 -10 10 -5 0
-10 -4 -10 -10z"/>
<path d="M4996 1346 c3 -8 13 -17 21 -20 25 -10 23 -3 -3 17 -18 13 -22 14
-18 3z"/>
<path d="M4290 1346 c0 -2 8 -10 18 -17 15 -13 16 -12 3 4 -13 16 -21 21 -21
13z"/>
<path d="M4686 1342 c-2 -4 4 -14 15 -20 19 -12 19 -11 9 8 -12 22 -16 24 -24
12z"/>
<path d="M4765 1340 c3 -5 8 -10 11 -10 2 0 4 5 4 10 0 6 -5 10 -11 10 -5 0
-7 -4 -4 -10z"/>
<path d="M3020 1325 c-24 -14 -24 -14 -4 -15 12 0 24 7 28 15 6 18 7 18 -24 0z"/>
<path d="M3240 1325 c0 -8 4 -15 10 -15 5 0 7 7 4 15 -4 8 -8 15 -10 15 -2 0
-4 -7 -4 -15z"/>
<path d="M4610 1330 c0 -5 5 -10 11 -10 5 0 7 5 4 10 -3 6 -8 10 -11 10 -2 0
-4 -4 -4 -10z"/>
<path d="M3650 1321 c0 -5 -8 -12 -17 -15 -11 -3 -8 -4 6 -3 24 2 44 27 22 27
-6 0 -11 -4 -11 -9z"/>
<path d="M4220 1320 c0 -5 5 -10 11 -10 5 0 7 5 4 10 -3 6 -8 10 -11 10 -2 0
-4 -4 -4 -10z"/>
<path d="M4415 1320 c3 -5 8 -10 11 -10 2 0 4 5 4 10 0 6 -5 10 -11 10 -5 0
-7 -4 -4 -10z"/>
<path d="M4540 1316 c0 -2 7 -9 15 -16 13 -11 14 -10 9 4 -5 14 -24 23 -24 12z"/>
<path d="M4800 1315 c0 -2 10 -10 23 -16 20 -11 21 -11 8 4 -13 16 -31 23 -31
12z"/>
<path d="M5140 1305 c0 -3 12 -18 26 -33 l26 -27 -18 33 c-16 28 -34 42 -34
27z"/>
<path d="M4005 1290 c-3 -5 -1 -10 4 -10 6 0 11 5 11 10 0 6 -2 10 -4 10 -3 0
-8 -4 -11 -10z"/>
<path d="M4920 1290 c0 -6 7 -10 15 -10 8 0 15 2 15 4 0 2 -7 6 -15 10 -8 3
-15 1 -15 -4z"/>
<path d="M5000 1294 c0 -11 40 -47 46 -41 2 2 -7 14 -21 27 -14 13 -25 19 -25
14z"/>
<path d="M5060 1290 c0 -5 5 -10 10 -10 6 0 10 5 10 10 0 6 -4 10 -10 10 -5 0
-10 -4 -10 -10z"/>
<path d="M2924 1276 c20 -9 25 -15 15 -19 -9 -4 -7 -6 6 -6 17 -1 17 -3 5 -11
-13 -9 -13 -10 1 -10 8 0 21 6 27 12 10 10 15 10 22 -2 5 -8 12 -11 16 -7 11
11 -28 36 -45 29 -8 -3 -12 -1 -8 5 3 5 1 10 -6 11 -7 0 -23 3 -37 6 -22 5
-21 4 4 -8z"/>
<path d="M3304 1268 l-19 -23 23 19 c12 11 22 21 22 23 0 8 -8 2 -26 -19z"/>
<path d="M4388 1283 c7 -3 16 -2 19 1 4 3 -2 6 -13 5 -11 0 -14 -3 -6 -6z"/>
<path d="M4850 1280 c0 -5 7 -10 16 -10 8 0 12 5 9 10 -3 6 -10 10 -16 10 -5
0 -9 -4 -9 -10z"/>
<path d="M3880 1270 c0 -5 5 -10 11 -10 5 0 7 5 4 10 -3 6 -8 10 -11 10 -2 0
-4 -4 -4 -10z"/>
<path d="M4710 1270 c0 -5 5 -10 11 -10 5 0 7 5 4 10 -3 6 -8 10 -11 10 -2 0
-4 -4 -4 -10z"/>
<path d="M4975 1250 c10 -11 20 -20 22 -20 2 0 -1 9 -7 20 -6 11 -16 20 -22
20 -6 0 -3 -9 7 -20z"/>
<path d="M2860 1250 c0 -5 5 -10 10 -10 6 0 10 5 10 10 0 6 -4 10 -10 10 -5 0
-10 -4 -10 -10z"/>
<path d="M4888 1253 c7 -3 16 -2 19 1 4 3 -2 6 -13 5 -11 0 -14 -3 -6 -6z"/>
<path d="M3058 1243 c7 -3 16 -2 19 1 4 3 -2 6 -13 5 -11 0 -14 -3 -6 -6z"/>
<path d="M3225 1240 c-3 -6 1 -7 9 -4 18 7 21 14 7 14 -6 0 -13 -4 -16 -10z"/>
<path d="M3920 1235 c-11 -13 -10 -14 4 -9 9 3 16 10 16 15 0 13 -6 11 -20 -6z"/>
<path d="M4110 1240 c0 -5 5 -10 11 -10 5 0 7 5 4 10 -3 6 -8 10 -11 10 -2 0
-4 -4 -4 -10z"/>
<path d="M2810 1236 c0 -2 7 -6 15 -10 8 -3 15 -1 15 4 0 6 -7 10 -15 10 -8 0
-15 -2 -15 -4z"/>
<path d="M2973 1222 c-6 -4 -30 -7 -52 -6 -23 0 -41 -3 -41 -7 0 -4 -8 -9 -17
-12 -10 -2 32 -2 92 1 61 3 119 9 130 14 13 6 3 7 -32 4 -30 -3 -53 -1 -53 4
0 12 -11 13 -27 2z"/>
<path d="M3976 1211 c-3 -5 1 -11 9 -15 9 -3 15 0 15 9 0 16 -16 20 -24 6z"/>
<path d="M4165 1210 c-3 -5 1 -10 10 -10 9 0 13 5 10 10 -3 6 -8 10 -10 10 -2
0 -7 -4 -10 -10z"/>
<path d="M4430 1210 c0 -5 5 -10 11 -10 5 0 7 5 4 10 -3 6 -8 10 -11 10 -2 0
-4 -4 -4 -10z"/>
<path d="M3940 1190 c0 -5 5 -10 10 -10 6 0 10 5 10 10 0 6 -4 10 -10 10 -5 0
-10 -4 -10 -10z"/>
<path d="M2938 1183 c7 -3 16 -2 19 1 4 3 -2 6 -13 5 -11 0 -14 -3 -6 -6z"/>
<path d="M4018 1176 c-26 -19 -22 -26 7 -13 14 7 25 15 25 20 0 11 -13 8 -32
-7z"/>
<path d="M4350 1180 c0 -5 5 -10 10 -10 6 0 10 5 10 10 0 6 -4 10 -10 10 -5 0
-10 -4 -10 -10z"/>
<path d="M4480 1179 c0 -5 5 -7 10 -4 6 3 10 8 10 11 0 2 -4 4 -10 4 -5 0 -10
-5 -10 -11z"/>
<path d="M3835 1159 c-10 -15 3 -25 16 -12 7 7 7 13 1 17 -6 3 -14 1 -17 -5z"/>
<path d="M4405 1160 c-3 -5 1 -10 10 -10 9 0 13 5 10 10 -3 6 -8 10 -10 10 -2
0 -7 -4 -10 -10z"/>
<path d="M2988 1153 c7 -3 16 -2 19 1 4 3 -2 6 -13 5 -11 0 -14 -3 -6 -6z"/>
<path d="M4090 1150 c0 -5 5 -10 11 -10 5 0 7 5 4 10 -3 6 -8 10 -11 10 -2 0
-4 -4 -4 -10z"/>
<path d="M4275 1150 c-3 -5 -1 -10 4 -10 6 0 11 5 11 10 0 6 -2 10 -4 10 -3 0
-8 -4 -11 -10z"/>
<path d="M4530 1150 c19 -13 30 -13 30 0 0 6 -10 10 -22 10 -19 0 -20 -2 -8
-10z"/>
<path d="M4660 1150 c0 -5 5 -10 11 -10 5 0 7 5 4 10 -3 6 -8 10 -11 10 -2 0
-4 -4 -4 -10z"/>
<path d="M3800 1130 c0 -5 5 -10 10 -10 6 0 10 5 10 10 0 6 -4 10 -10 10 -5 0
-10 -4 -10 -10z"/>
<path d="M3884 1126 c-3 -9 -12 -16 -20 -16 -8 0 -14 -4 -14 -10 0 -15 12 -12
39 9 16 12 20 20 12 25 -6 4 -14 0 -17 -8z"/>
<path d="M4775 1130 c3 -5 11 -10 16 -10 6 0 7 5 4 10 -3 6 -11 10 -16 10 -6
0 -7 -4 -4 -10z"/>
<path d="M4140 1121 c0 -6 5 -13 10 -16 6 -3 10 1 10 9 0 9 -4 16 -10 16 -5 0
-10 -4 -10 -9z"/>
<path d="M4465 1120 c3 -5 8 -10 11 -10 2 0 4 5 4 10 0 6 -5 10 -11 10 -5 0
-7 -4 -4 -10z"/>
<path d="M4582 1119 c2 -7 10 -15 17 -17 8 -3 12 1 9 9 -2 7 -10 15 -17 17 -8
3 -12 -1 -9 -9z"/>
<path d="M4320 1104 c0 -9 7 -14 17 -12 25 5 28 28 4 28 -12 0 -21 -6 -21 -16z"/>
<path d="M4710 1111 c0 -5 5 -13 10 -16 6 -3 10 -2 10 4 0 5 -4 13 -10 16 -5
3 -10 2 -10 -4z"/>
<path d="M4110 1099 c0 -5 5 -7 10 -4 6 3 10 8 10 11 0 2 -4 4 -10 4 -5 0 -10
-5 -10 -11z"/>
<path d="M4186 1085 c-11 -8 -16 -18 -13 -22 9 -9 58 18 51 29 -7 11 -16 10
-38 -7z"/>
<path d="M4506 1084 c-3 -9 -6 -17 -6 -18 0 -1 9 -2 20 -3 11 -1 20 0 20 2 0
11 -13 35 -20 35 -4 0 -11 -7 -14 -16z"/>
<path d="M4640 1092 c0 -5 7 -15 15 -22 8 -7 15 -8 15 -2 0 5 -7 15 -15 22 -8
7 -15 8 -15 2z"/>
<path d="M4383 1083 c-19 -7 -16 -20 7 -26 15 -4 20 0 20 14 0 19 -5 21 -27
12z"/>
<path d="M3910 1069 c0 -5 5 -7 10 -4 6 3 10 8 10 11 0 2 -4 4 -10 4 -5 0 -10
-5 -10 -11z"/>
<path d="M3995 1070 c-3 -5 1 -10 10 -10 9 0 13 5 10 10 -3 6 -8 10 -10 10 -2
0 -7 -4 -10 -10z"/>
<path d="M3751 1054 c0 -11 3 -14 6 -6 3 7 2 16 -1 19 -3 4 -6 -2 -5 -13z"/>
<path d="M4875 1060 c3 -5 8 -10 11 -10 2 0 4 5 4 10 0 6 -5 10 -11 10 -5 0
-7 -4 -4 -10z"/>
<path d="M2786 1045 c-11 -8 -15 -15 -10 -15 6 0 19 7 30 15 10 8 15 14 9 14
-5 0 -19 -6 -29 -14z"/>
<path d="M4242 1048 c-7 -7 -12 -19 -12 -27 0 -12 3 -12 12 -3 7 7 20 12 30
12 11 0 15 5 12 15 -7 18 -26 19 -42 3z"/>
<path d="M3960 1040 c0 -5 5 -10 10 -10 6 0 10 5 10 10 0 6 -4 10 -10 10 -5 0
-10 -4 -10 -10z"/>
<path d="M4038 1029 c-10 -10 -18 -25 -18 -31 1 -8 6 -6 14 5 7 9 18 17 25 17
6 0 11 7 11 15 0 20 -11 18 -32 -6z"/>
<path d="M4570 1035 c7 -8 16 -12 21 -9 13 8 1 24 -18 24 -13 0 -13 -3 -3 -15z"/>
<path d="M4680 1040 c0 -5 9 -10 21 -10 11 0 17 5 14 10 -3 6 -13 10 -21 10
-8 0 -14 -4 -14 -10z"/>
<path d="M4427 1033 c-14 -13 -6 -23 18 -23 16 0 25 6 25 15 0 15 -31 21 -43
8z"/>
<path d="M4800 1031 c0 -9 24 -21 42 -21 6 0 6 6 -2 15 -14 16 -40 20 -40 6z"/>
<path d="M3787 1024 c-8 -8 1 -24 14 -24 5 0 9 7 9 15 0 15 -12 20 -23 9z"/>
<path d="M4926 1022 c-3 -6 -1 -14 5 -17 15 -10 25 3 12 16 -7 7 -13 7 -17 1z"/>
<path d="M3020 1000 c-20 -16 -21 -19 -5 -13 22 8 51 33 38 33 -4 0 -19 -9
-33 -20z"/>
<path d="M4113 1007 c-4 -7 -16 -17 -26 -20 -20 -7 -19 -28 1 -35 7 -2 12 3
12 12 0 9 8 16 20 16 11 0 20 6 20 14 0 21 -17 29 -27 13z"/>
<path d="M4300 1005 c-7 -8 -10 -18 -6 -22 3 -3 6 -1 6 6 0 6 6 11 13 9 14 -3
23 15 9 20 -5 1 -15 -4 -22 -13z"/>
<path d="M4606 1005 c-4 -10 2 -19 17 -24 28 -11 31 -8 17 18 -13 25 -26 27
-34 6z"/>
<path d="M3754 996 c-8 -22 3 -33 18 -18 9 9 9 15 0 24 -9 9 -13 7 -18 -6z"/>
<path d="M4737 1003 c-12 -11 -8 -23 8 -23 8 0 15 -5 15 -12 0 -8 3 -9 10 -2
6 6 8 18 4 27 -6 17 -25 22 -37 10z"/>
<path d="M3847 993 c-12 -11 -8 -23 8 -23 8 0 15 7 15 15 0 16 -12 20 -23 8z"/>
<path d="M4475 990 c-10 -17 3 -28 29 -23 16 3 23 10 19 19 -6 16 -39 19 -48
4z"/>
<path d="M4856 986 c7 -19 38 -22 32 -3 -3 6 -12 13 -21 15 -12 2 -15 -1 -11
-12z"/>
<path d="M3036 965 c-10 -15 -23 -24 -31 -21 -9 3 -13 -2 -12 -13 1 -18 3 -18
35 -3 18 9 29 18 22 20 -8 3 -8 8 1 18 7 8 10 17 7 20 -3 2 -13 -7 -22 -21z"/>
<path d="M4350 970 c-20 -15 -22 -20 -9 -25 8 -3 25 -2 37 2 19 7 21 11 10 25
-12 16 -15 16 -38 -2z"/>
<path d="M2900 954 c-13 -13 -20 -24 -14 -24 6 0 21 11 34 25 30 32 13 32 -20
-1z"/>
<path d="M2965 960 c-10 -11 -15 -20 -11 -20 11 0 39 30 34 36 -3 2 -13 -5
-23 -16z"/>
<path d="M3094 964 c-18 -14 -18 -15 4 -4 12 6 22 13 22 15 0 8 -5 6 -26 -11z"/>
<path d="M4165 970 c-7 -12 2 -30 16 -30 5 0 9 9 9 20 0 21 -15 27 -25 10z"/>
<path d="M4975 970 c-3 -5 1 -10 9 -10 9 0 16 5 16 10 0 6 -4 10 -9 10 -6 0
-13 -4 -16 -10z"/>
<path d="M2710 949 c-11 -20 -11 -20 14 -4 30 20 32 25 11 25 -8 0 -19 -9 -25
-21z"/>
<path d="M2765 954 c-40 -21 -117 -85 -110 -92 3 -3 -8 -11 -24 -18 -26 -11
-61 -65 -61 -93 0 -7 74 -41 88 -41 11 0 58 73 107 165 20 39 42 76 47 83 15
17 -10 16 -47 -4z m-133 -136 c-7 -7 -12 -8 -12 -2 0 14 12 26 19 19 2 -3 -1
-11 -7 -17z"/>
<path d="M2836 962 c-3 -5 1 -9 9 -9 8 0 15 4 15 9 0 4 -4 8 -9 8 -6 0 -12 -4
-15 -8z"/>
<path d="M3888 949 c-20 -22 -23 -39 -7 -39 6 0 13 9 16 20 3 11 9 20 14 20 5
0 9 5 9 10 0 15 -13 11 -32 -11z"/>
<path d="M4667 963 c-16 -15 -6 -33 18 -33 23 0 24 2 15 20 -11 21 -22 25 -33
13z"/>
<path d="M4790 957 c0 -7 9 -18 20 -25 16 -10 20 -10 20 1 0 14 -20 37 -32 37
-4 0 -8 -6 -8 -13z"/>
<path d="M4543 953 c-21 -8 -15 -31 10 -35 14 -2 23 -11 25 -25 2 -16 10 -23
26 -23 12 0 26 3 29 7 11 10 -14 33 -36 33 -11 0 -17 3 -14 6 7 8 -10 44 -21
43 -4 0 -13 -3 -19 -6z"/>
<path d="M4900 952 c0 -10 21 -32 32 -32 16 0 8 19 -12 30 -11 6 -20 7 -20 2z"/>
<path d="M4130 929 c0 -24 23 -21 28 4 2 10 -3 17 -12 17 -10 0 -16 -9 -16
-21z"/>
<path d="M3960 925 c0 -9 5 -15 11 -13 6 2 11 8 11 13 0 5 -5 11 -11 13 -6 2
-11 -4 -11 -13z"/>
<path d="M4216 925 c-3 -8 -11 -14 -17 -13 -16 4 -21 -14 -9 -32 9 -13 12 -13
24 3 7 9 18 17 25 17 6 0 11 9 11 20 0 23 -25 27 -34 5z"/>
<path d="M4401 931 c-8 -5 -11 -16 -8 -24 8 -21 59 -10 55 12 -4 19 -27 25
-47 12z"/>
<path d="M5020 930 c0 -5 5 -10 11 -10 5 0 7 5 4 10 -3 6 -8 10 -11 10 -2 0
-4 -4 -4 -10z"/>
<path d="M3630 905 c-13 -14 -21 -28 -17 -31 7 -7 46 35 47 49 0 12 -5 8 -30
-18z"/>
<path d="M2870 904 c0 -8 5 -12 10 -9 6 3 10 10 10 16 0 5 -4 9 -10 9 -5 0
-10 -7 -10 -16z"/>
<path d="M3059 903 c-13 -15 -12 -15 9 -4 23 12 28 21 13 21 -5 0 -15 -7 -22
-17z"/>
<path d="M4710 901 c0 -12 9 -20 24 -23 24 -5 28 5 13 30 -12 19 -37 14 -37
-7z"/>
<path d="M4843 913 c-21 -7 -15 -23 12 -33 15 -6 25 -17 25 -30 0 -13 7 -20
20 -20 15 0 20 -7 20 -24 0 -23 33 -46 47 -33 7 8 -16 47 -28 47 -5 0 -14 11
-19 25 -5 14 -16 25 -25 25 -8 0 -15 6 -15 14 0 18 -22 35 -37 29z"/>
<path d="M2633 898 c-23 -30 -24 -41 -2 -21 12 12 20 25 17 28 -3 3 -10 0 -15
-7z"/>
<path d="M2988 894 c-17 -9 -25 -20 -22 -29 4 -8 2 -15 -2 -15 -5 0 -22 -11
-39 -24 l-30 -24 28 -11 c22 -9 33 -7 60 9 34 21 30 27 -6 9 -19 -9 -19 -8 3
11 19 16 22 23 11 27 -10 4 -5 10 15 19 19 9 21 12 7 8 -31 -7 -29 2 5 20 15
8 20 15 12 15 -8 0 -27 -6 -42 -15z"/>
<path d="M3927 889 c-3 -13 -1 -19 6 -16 15 5 22 37 9 37 -5 0 -12 -9 -15 -21z"/>
<path d="M4003 885 c-13 -12 -23 -27 -23 -34 0 -16 30 -13 36 4 4 8 13 15 21
15 16 0 14 32 -2 36 -5 1 -20 -8 -32 -21z"/>
<path d="M3685 882 c-25 -21 -38 -49 -25 -57 5 -3 14 5 21 17 7 13 18 27 25
31 15 8 19 27 7 27 -5 -1 -17 -8 -28 -18z"/>
<path d="M4960 892 c0 -4 18 -27 40 -51 22 -24 40 -47 40 -51 0 -12 30 -34 36
-27 6 6 -14 35 -74 104 -26 32 -42 41 -42 25z"/>
<path d="M4258 876 c-18 -13 -25 -46 -10 -46 22 0 62 27 60 40 -4 20 -29 23
-50 6z"/>
<path d="M4449 882 c-12 -5 -14 -13 -8 -29 8 -23 29 -32 29 -13 0 5 6 7 14 4
18 -7 28 9 20 30 -6 17 -27 20 -55 8z"/>
<path d="M3743 854 c-26 -30 -33 -55 -15 -61 6 -3 12 3 12 11 0 9 9 24 20 33
20 17 27 43 13 43 -5 0 -18 -12 -30 -26z"/>
<path d="M2880 860 c-8 -5 -12 -12 -9 -15 4 -3 12 1 19 10 14 17 11 19 -10 5z"/>
<path d="M4060 845 c-19 -20 -21 -28 -12 -37 10 -10 18 -7 38 13 21 21 23 28
11 37 -11 9 -19 6 -37 -13z"/>
<path d="M4641 856 c-16 -19 -6 -36 20 -36 22 0 24 9 6 34 -12 16 -14 16 -26
2z"/>
<path d="M4764 858 c-4 -7 2 -18 14 -26 12 -8 22 -22 22 -32 0 -11 10 -20 25
-24 16 -4 25 -13 25 -26 0 -10 9 -22 20 -25 11 -3 20 -13 20 -22 0 -8 11 -24
25 -35 13 -10 24 -24 22 -31 -1 -6 8 -16 21 -22 12 -5 22 -17 22 -26 0 -9 9
-24 20 -34 11 -10 20 -23 20 -29 0 -7 9 -18 20 -26 11 -8 20 -18 20 -23 0 -5
10 -22 23 -37 39 -48 59 -81 100 -162 30 -59 47 -79 59 -72 6 4 6 9 2 13 -5 3
-20 29 -33 56 -14 28 -35 67 -48 87 -13 21 -23 44 -23 52 0 9 -9 20 -20 26
-11 6 -20 16 -20 21 0 10 -21 39 -63 89 -6 8 -16 22 -22 31 -24 40 -51 75 -62
82 -7 4 -13 14 -13 22 0 8 -9 19 -20 25 -11 6 -20 17 -20 25 0 8 -9 19 -20 25
-12 6 -25 22 -30 36 -5 13 -16 24 -23 24 -8 0 -19 11 -25 25 -13 27 -27 32
-38 13z"/>
<path d="M5215 850 c3 -5 8 -10 11 -10 2 0 4 5 4 10 0 6 -5 10 -11 10 -5 0 -7
-4 -4 -10z"/>
<path d="M2811 841 c0 -8 -8 -23 -18 -33 -9 -10 -11 -18 -6 -18 17 0 35 28 30
47 -3 11 -5 12 -6 4z"/>
<path d="M4185 840 c3 -5 8 -10 11 -10 2 0 4 5 4 10 0 6 -5 10 -11 10 -5 0 -7
-4 -4 -10z"/>
<path d="M4318 836 c-21 -15 -24 -46 -5 -46 23 0 56 30 51 45 -7 18 -23 19
-46 1z"/>
<path d="M4505 834 c-15 -11 -17 -18 -9 -32 6 -9 21 -16 32 -14 16 2 21 -3 24
-24 4 -33 17 -39 43 -20 17 12 17 16 6 30 -8 9 -20 15 -28 12 -8 -4 -13 2 -13
17 0 21 -17 47 -29 47 -4 0 -15 -7 -26 -16z"/>
<path d="M3815 830 c-8 -13 4 -32 16 -25 12 8 12 35 0 35 -6 0 -13 -4 -16 -10z"/>
<path d="M4118 809 c-18 -19 -25 -59 -10 -59 13 0 52 48 52 64 0 21 -21 19
-42 -5z"/>
<path d="M5110 821 c0 -5 5 -13 10 -16 6 -3 10 -2 10 4 0 5 -4 13 -10 16 -5 3
-10 2 -10 -4z"/>
<path d="M5240 823 c0 -5 7 -18 15 -29 12 -16 14 -16 15 -3 0 9 -7 22 -15 29
-8 7 -15 8 -15 3z"/>
<path d="M2847 802 c-24 -27 -22 -51 2 -26 10 10 17 22 15 26 -2 3 2 9 8 11 8
3 8 6 2 6 -6 1 -18 -7 -27 -17z"/>
<path d="M3787 804 c-4 -4 -7 -17 -7 -28 0 -19 1 -19 17 -3 12 11 14 20 7 27
-6 6 -13 7 -17 4z"/>
<path d="M3870 796 c0 -9 5 -16 10 -16 6 0 10 4 10 9 0 6 -4 13 -10 16 -5 3
-10 -1 -10 -9z"/>
<path d="M4373 793 c-13 -9 -23 -22 -23 -30 0 -24 28 -26 52 -4 19 19 20 23 8
35 -13 12 -18 12 -37 -1z"/>
<path d="M4684 795 c-8 -21 4 -35 32 -35 27 0 28 3 14 31 -13 22 -38 25 -46 4z"/>
<path d="M4238 793 c7 -3 16 -2 19 1 4 3 -2 6 -13 5 -11 0 -14 -3 -6 -6z"/>
<path d="M4182 774 c-22 -15 -30 -48 -13 -59 5 -3 22 6 37 20 24 23 26 27 13
40 -13 13 -17 13 -37 -1z"/>
<path d="M5370 780 c0 -5 5 -10 11 -10 5 0 7 5 4 10 -3 6 -8 10 -11 10 -2 0
-4 -4 -4 -10z"/>
<path d="M2894 764 c-18 -14 -18 -15 6 -8 31 8 50 24 29 24 -8 0 -24 -7 -35
-16z"/>
<path d="M3555 770 c-3 -5 -1 -10 4 -10 6 0 11 5 11 10 0 6 -2 10 -4 10 -3 0
-8 -4 -11 -10z"/>
<path d="M3921 754 c-16 -17 -21 -30 -16 -46 7 -21 8 -21 22 5 7 15 18 27 23
27 12 0 13 27 2 34 -4 2 -18 -6 -31 -20z"/>
<path d="M2791 744 c-9 -20 -9 -25 0 -22 14 5 32 48 20 48 -4 0 -13 -12 -20
-26z"/>
<path d="M3840 756 c0 -22 17 -28 24 -10 9 22 8 24 -9 24 -8 0 -15 -6 -15 -14z"/>
<path d="M5155 750 c10 -11 20 -20 22 -20 2 0 -1 9 -7 20 -6 11 -16 20 -22 20
-6 0 -3 -9 7 -20z"/>
<path d="M2750 738 c-12 -22 -12 -22 6 -6 10 10 15 20 12 24 -4 3 -12 -5 -18
-18z"/>
<path d="M4495 750 c3 -5 11 -10 16 -10 6 0 7 5 4 10 -3 6 -11 10 -16 10 -6 0
-7 -4 -4 -10z"/>
<path d="M4731 746 c-10 -12 -8 -17 9 -26 28 -15 43 -4 30 21 -13 23 -23 24
-39 5z"/>
<path d="M4967 753 c-9 -9 12 -33 30 -33 10 0 12 -6 8 -20 -5 -15 0 -23 19
-32 15 -6 26 -20 26 -30 0 -10 7 -21 16 -25 8 -3 20 -15 25 -27 19 -40 36 -67
58 -87 11 -11 21 -26 21 -35 0 -8 7 -17 15 -20 8 -4 15 -11 15 -18 0 -13 52
-117 75 -150 49 -69 -30 107 -85 189 -14 22 -29 48 -33 58 -3 9 -11 17 -17 17
-5 0 -10 6 -10 13 0 12 -94 157 -109 167 -4 3 -10 13 -14 23 -6 17 -28 23 -40
10z"/>
<path d="M2885 740 c-34 -14 -68 -51 -57 -62 12 -12 54 14 77 48 16 25 13 28
-20 14z"/>
<path d="M3527 743 c-4 -3 -7 -11 -7 -17 0 -6 5 -5 12 2 6 6 9 14 7 17 -3 3
-9 2 -12 -2z"/>
<path d="M3598 729 c-19 -20 -24 -59 -8 -59 5 0 12 11 16 25 3 14 10 25 15 25
5 0 9 7 9 15 0 20 -11 18 -32 -6z"/>
<path d="M4295 740 c3 -5 10 -10 16 -10 5 0 9 5 9 10 0 6 -7 10 -16 10 -8 0
-12 -4 -9 -10z"/>
<path d="M4418 739 c-22 -12 -24 -49 -4 -49 8 0 26 4 40 9 18 8 23 15 19 30
-6 23 -28 26 -55 10z"/>
<path d="M5080 736 c0 -8 10 -22 22 -30 12 -9 19 -18 15 -22 -3 -4 9 -25 28
-48 19 -23 39 -53 45 -66 5 -14 28 -52 49 -85 22 -33 40 -68 40 -77 1 -16 18
-34 26 -26 2 2 -1 13 -8 25 -7 12 -23 43 -37 70 -14 26 -27 50 -30 53 -3 3
-18 31 -34 63 -16 31 -33 57 -38 57 -4 0 -8 4 -8 9 0 14 -52 91 -62 91 -4 0
-8 -6 -8 -14z"/>
<path d="M3972 715 c-14 -14 -20 -29 -16 -39 8 -20 24 -21 24 -2 0 7 10 20 22
28 12 8 18 19 14 26 -10 16 -17 14 -44 -13z"/>
<path d="M4240 730 c0 -5 -6 -7 -13 -4 -8 3 -13 -5 -15 -21 -3 -34 24 -43 49
-17 25 27 25 52 -1 52 -11 0 -20 -4 -20 -10z"/>
<path d="M4607 733 c-4 -3 -7 -15 -7 -25 0 -13 8 -18 30 -18 31 0 35 6 24 34
-6 16 -35 22 -47 9z"/>
<path d="M845 712 c-11 -9 -27 -26 -35 -37 -15 -19 -14 -19 9 -4 14 8 31 25
39 37 17 26 14 27 -13 4z"/>
<path d="M4095 720 c3 -5 8 -10 11 -10 2 0 4 5 4 10 0 6 -5 10 -11 10 -5 0 -7
-4 -4 -10z"/>
<path d="M5350 720 c0 -5 5 -10 11 -10 5 0 7 5 4 10 -3 6 -8 10 -11 10 -2 0
-4 -4 -4 -10z"/>
<path d="M2553 685 c-8 -25 -8 -37 -1 -42 7 -4 5 -11 -7 -19 -15 -11 -11 -13
26 -11 35 2 43 5 41 19 -1 9 7 22 18 28 11 6 20 14 20 18 0 7 -68 42 -82 42
-2 0 -9 -16 -15 -35z"/>
<path d="M3655 690 c-19 -37 -19 -50 0 -50 8 0 15 5 15 12 0 6 7 19 16 29 16
17 12 39 -6 39 -5 0 -16 -13 -25 -30z"/>
<path d="M2757 703 c-9 -2 -15 -9 -12 -14 9 -14 41 -11 55 6 10 12 9 15 -6 14
-11 -1 -27 -3 -37 -6z"/>
<path d="M4350 700 c0 -5 5 -10 10 -10 6 0 10 5 10 10 0 6 -4 10 -10 10 -5 0
-10 -4 -10 -10z"/>
<path d="M4550 696 c0 -9 5 -16 10 -16 6 0 10 4 10 9 0 6 -4 13 -10 16 -5 3
-10 -1 -10 -9z"/>
<path d="M4770 692 c0 -10 8 -25 18 -33 9 -9 25 -25 34 -35 9 -10 22 -24 28
-30 35 -35 50 -56 50 -68 0 -8 8 -21 18 -28 21 -16 62 -73 62 -87 0 -5 10 -18
23 -28 13 -10 26 -25 30 -33 4 -8 15 -26 25 -40 9 -14 27 -42 40 -62 25 -40
50 -54 66 -38 7 7 5 10 -8 10 -9 0 -15 4 -12 9 3 5 -2 19 -12 32 -9 14 -22 33
-29 44 -6 11 -16 19 -23 17 -6 -1 -9 2 -6 7 7 11 -14 61 -25 61 -4 0 -10 8
-13 18 -3 9 -21 34 -40 54 -19 21 -37 47 -41 58 -3 11 -11 20 -16 20 -5 0 -19
16 -30 35 -12 19 -25 32 -30 29 -5 -3 -9 2 -9 12 0 18 -71 94 -89 94 -6 0 -11
-8 -11 -18z"/>
<path d="M2908 693 c-10 -2 -18 -9 -18 -14 0 -15 36 -10 50 6 13 16 5 18 -32
8z"/>
<path d="M4035 677 c-21 -22 -23 -57 -3 -57 5 0 12 9 15 20 3 11 9 20 14 20 5
0 9 9 9 20 0 26 -10 25 -35 -3z"/>
<path d="M4293 687 c-14 -6 -23 -19 -23 -33 0 -31 20 -41 37 -19 7 11 13 15
13 9 0 -5 5 -1 11 10 16 27 -8 48 -38 33z"/>
<path d="M4473 685 c-19 -21 -16 -31 14 -53 21 -15 27 -27 26 -56 -1 -25 3
-36 13 -36 17 0 19 20 2 21 -7 0 -3 5 8 11 27 12 49 52 39 68 -5 7 -19 10 -39
6 -19 -4 -26 -3 -18 3 20 12 10 46 -13 48 -11 2 -26 -4 -32 -12z"/>
<path d="M3722 665 c-13 -14 -22 -32 -20 -42 4 -24 22 -22 27 2 2 11 11 25 20
32 11 8 13 15 6 22 -7 7 -18 2 -33 -14z"/>
<path d="M4156 682 c-3 -6 -1 -14 5 -17 15 -10 25 3 12 16 -7 7 -13 7 -17 1z"/>
<path d="M4657 679 c-23 -13 -5 -52 20 -42 9 4 14 2 11 -3 -3 -5 -2 -20 3 -33
7 -18 15 -22 34 -19 22 5 24 2 19 -19 -5 -19 -2 -25 15 -30 12 -3 21 -13 21
-24 0 -10 9 -24 20 -31 11 -7 20 -18 20 -25 0 -6 9 -18 19 -25 11 -8 25 -26
32 -42 10 -20 18 -27 35 -23 16 3 20 0 17 -14 -3 -10 12 -38 36 -69 23 -28 41
-55 41 -60 0 -11 49 -19 56 -9 3 5 0 9 -5 9 -6 0 -11 4 -11 10 0 9 -35 64 -58
90 -7 8 -36 46 -63 85 -28 38 -54 72 -58 75 -5 3 -14 16 -20 28 -8 16 -19 22
-31 19 -12 -3 -16 0 -13 12 2 9 -7 27 -21 40 -14 14 -26 30 -26 38 0 11 -12
17 -31 15 -4 -1 -12 12 -19 28 -14 33 -17 34 -43 19z"/>
<path d="M4720 680 c0 -5 5 -10 10 -10 6 0 10 5 10 10 0 6 -4 10 -10 10 -5 0
-10 -4 -10 -10z"/>
<path d="M5380 671 c0 -12 5 -21 10 -21 6 0 10 6 10 14 0 8 -4 18 -10 21 -5 3
-10 -3 -10 -14z"/>
<path d="M2480 670 c0 -5 5 -10 11 -10 5 0 7 5 4 10 -3 6 -8 10 -11 10 -2 0
-4 -4 -4 -10z"/>
<path d="M5260 670 c0 -5 5 -10 11 -10 5 0 7 5 4 10 -3 6 -8 10 -11 10 -2 0
-4 -4 -4 -10z"/>
<path d="M5220 650 c6 -11 13 -20 16 -20 2 0 0 9 -6 20 -6 11 -13 20 -16 20
-2 0 0 -9 6 -20z"/>
<path d="M2716 645 c-11 -8 -17 -17 -14 -20 7 -7 54 11 63 24 9 16 -27 13 -49
-4z"/>
<path d="M3787 640 c-18 -21 -24 -86 -7 -75 6 3 10 13 10 22 0 9 8 25 17 35
11 12 13 22 7 28 -6 6 -16 3 -27 -10z"/>
<path d="M4092 640 c-20 -16 -21 -22 -12 -41 l12 -22 23 28 c13 14 21 33 18
41 -7 18 -13 17 -41 -6z"/>
<path d="M4405 650 c3 -5 10 -10 16 -10 5 0 9 5 9 10 0 6 -7 10 -16 10 -8 0
-12 -4 -9 -10z"/>
<path d="M5450 648 c0 -9 7 -22 17 -29 15 -13 15 -12 3 11 -17 34 -20 36 -20
18z"/>
<path d="M2789 641 c9 -6 10 -11 2 -15 -6 -4 -15 -4 -21 -1 -5 3 -10 2 -10 -3
0 -6 -16 -13 -35 -16 -42 -8 -65 -30 -65 -62 0 -17 -4 -23 -12 -18 -8 5 -9 2
-5 -10 4 -9 3 -14 -2 -11 -5 3 -12 1 -15 -4 -3 -5 3 -11 14 -14 11 -3 22 -1
25 3 3 4 14 6 26 3 15 -4 22 0 26 16 3 11 10 18 16 14 6 -4 8 0 5 9 -4 10 4
23 22 37 34 25 44 27 36 6 -6 -17 9 -21 19 -5 4 6 11 8 16 5 5 -4 9 -1 9 5 0
6 6 10 13 8 6 -2 14 2 16 7 2 6 12 16 22 23 30 21 22 31 -21 30 -38 0 -40 -2
-41 -32 -1 -21 -3 -25 -6 -11 -7 26 -22 45 -37 45 -6 0 -5 -4 3 -9z m-99 -101
c0 -5 -2 -10 -4 -10 -3 0 -8 5 -11 10 -3 6 -1 10 4 10 6 0 11 -4 11 -10z"/>
<path d="M4205 630 c3 -5 13 -10 21 -10 8 0 12 5 9 10 -3 6 -13 10 -21 10 -8
0 -12 -4 -9 -10z"/>
<path d="M4338 629 c-20 -11 -23 -36 -8 -59 9 -13 13 -11 30 10 35 45 21 75
-22 49z"/>
<path d="M5296 627 c3 -10 9 -15 12 -12 3 3 0 11 -7 18 -10 9 -11 8 -5 -6z"/>
<path d="M3854 614 c-4 -10 -13 -23 -21 -27 -15 -9 -18 -47 -3 -47 6 0 13 8
17 18 3 9 13 25 21 35 12 13 13 20 4 29 -8 8 -13 7 -18 -8z"/>
<path d="M5400 621 c0 -5 7 -14 15 -21 8 -7 15 -18 15 -26 0 -7 5 -16 11 -19
5 -4 3 10 -5 30 -9 21 -16 39 -16 41 0 2 -4 4 -10 4 -5 0 -10 -4 -10 -9z"/>
<path d="M5814 616 c-6 -16 28 -102 78 -201 16 -33 43 -87 60 -120 16 -33 33
-67 37 -75 11 -20 52 -24 75 -7 16 12 19 28 19 105 1 89 0 93 -29 124 -17 18
-38 49 -47 69 -22 47 -41 62 -116 93 -76 31 -70 30 -77 12z"/>
<path d="M780 605 c-18 -10 -20 -14 -8 -15 23 0 48 11 48 21 0 12 -11 11 -40
-6z"/>
<path d="M4143 595 c-13 -15 -19 -33 -16 -45 7 -26 22 -26 31 1 5 11 12 20 17
20 13 -1 13 41 0 45 -5 2 -20 -7 -32 -21z"/>
<path d="M3480 600 c0 -5 5 -10 10 -10 6 0 10 5 10 10 0 6 -4 10 -10 10 -5 0
-10 -4 -10 -10z"/>
<path d="M4455 600 c-3 -5 3 -10 15 -10 12 0 18 5 15 10 -3 6 -10 10 -15 10
-5 0 -12 -4 -15 -10z"/>
<path d="M5250 595 c0 -8 4 -15 10 -15 5 0 7 7 4 15 -4 8 -8 15 -10 15 -2 0
-4 -7 -4 -15z"/>
<path d="M4265 591 c-3 -5 -1 -12 5 -16 5 -3 10 1 10 9 0 18 -6 21 -15 7z"/>
<path d="M4393 593 c-23 -4 -29 -25 -17 -57 8 -20 34 -21 34 -2 0 7 9 16 19
19 14 3 18 11 14 26 -5 21 -9 22 -50 14z"/>
<path d="M4578 589 c-25 -14 -22 -37 5 -50 13 -6 28 -24 34 -40 6 -16 15 -28
20 -27 10 3 83 -69 83 -82 0 -6 6 -10 13 -10 6 0 27 -25 46 -55 18 -30 38 -55
43 -55 5 0 14 -13 19 -30 8 -23 19 -31 46 -36 41 -8 73 13 35 22 -12 4 -22 14
-22 23 0 9 -18 35 -39 59 -21 23 -42 49 -45 58 -3 9 -15 18 -26 21 -11 3 -20
13 -20 23 0 21 -25 44 -39 36 -5 -4 -11 6 -13 21 -2 22 -8 28 -26 27 -12 0
-21 4 -19 10 6 16 -12 46 -28 46 -7 0 -15 10 -17 22 -3 26 -24 33 -50 17z"/>
<path d="M5475 590 c-3 -5 -1 -10 4 -10 6 0 11 5 11 10 0 6 -2 10 -4 10 -3 0
-8 -4 -11 -10z"/>
<path d="M3540 575 c0 -8 -7 -15 -15 -15 -16 0 -18 -20 -5 -60 9 -28 10 -27
15 14 2 16 9 34 14 39 14 14 14 37 1 37 -5 0 -10 -7 -10 -15z"/>
<path d="M3895 560 c-8 -16 -15 -36 -15 -45 0 -22 23 -14 26 9 1 10 7 23 13
29 6 6 11 17 11 24 0 23 -19 14 -35 -17z"/>
<path d="M706 560 c-6 -9 -43 -37 -82 -63 -39 -26 -77 -53 -83 -61 -8 -9 -11
-51 -9 -122 l3 -109 133 -3 c119 -2 136 0 160 17 25 18 27 26 28 88 1 154 4
184 15 177 8 -5 8 -1 0 13 -6 11 -7 23 -4 27 3 3 1 6 -5 6 -7 0 -12 -6 -12
-13 0 -8 -9 -24 -20 -37 -11 -13 -20 -30 -20 -39 0 -9 -5 -23 -10 -31 -7 -10
-9 1 -4 37 6 49 5 51 -15 46 -28 -7 -27 -1 9 37 19 20 28 25 24 14 -4 -11 -4
-16 0 -13 4 4 8 16 11 27 4 20 0 22 -52 19 -36 -1 -59 -7 -67 -17z"/>
<path d="M2525 562 c-4 -4 -21 -7 -38 -7 -25 0 -32 -4 -32 -20 0 -15 9 -21 38
-26 33 -5 40 -3 57 22 11 15 20 29 20 31 0 7 -38 7 -45 0z"/>
<path d="M2840 560 c-9 -6 -10 -10 -3 -10 6 0 15 5 18 10 8 12 4 12 -15 0z"/>
<path d="M4195 550 c-15 -17 -16 -24 -6 -47 l12 -27 24 30 c14 16 23 36 22 44
-4 23 -31 23 -52 0z"/>
<path d="M3593 533 c-15 -32 -17 -77 -3 -68 6 3 10 17 10 31 0 14 7 27 15 30
18 7 20 34 3 34 -7 0 -19 -12 -25 -27z"/>
<path d="M3953 536 c-24 -25 -30 -60 -13 -71 6 -3 14 5 19 19 6 13 18 29 28
35 16 9 16 12 3 25 -13 13 -17 13 -37 -8z"/>
<path d="M5270 551 c0 -6 4 -12 8 -15 5 -3 9 1 9 9 0 8 -4 15 -9 15 -4 0 -8
-4 -8 -9z"/>
<path d="M4067 544 c-8 -8 1 -24 14 -24 5 0 9 7 9 15 0 15 -12 20 -23 9z"/>
<path d="M4326 541 c-4 -5 -2 -12 3 -15 5 -4 12 -2 15 3 4 5 2 12 -3 15 -5 4
-12 2 -15 -3z"/>
<path d="M4442 538 c-19 -19 -14 -46 13 -64 14 -9 25 -25 25 -35 0 -22 16 -33
26 -18 4 7 12 -1 20 -20 7 -17 19 -31 27 -31 7 0 20 -11 27 -25 8 -14 19 -24
25 -21 6 2 17 -9 24 -25 7 -16 17 -27 23 -26 6 1 16 -12 21 -29 11 -36 44 -48
107 -38 27 4 37 11 36 22 -2 9 -9 18 -16 20 -9 3 -11 -1 -7 -12 5 -12 3 -16
-5 -12 -7 3 -21 9 -30 12 -10 4 -18 14 -18 23 0 24 -19 41 -38 33 -11 -4 -14
-1 -9 10 7 19 -27 53 -42 43 -7 -3 -11 3 -11 15 0 13 -8 24 -19 27 -11 3 -21
15 -23 27 -2 14 -11 22 -29 24 -22 3 -25 7 -21 27 5 30 -21 44 -45 24 -15 -13
-16 -11 -10 10 10 41 -24 66 -51 39z"/>
<path d="M4690 540 c0 -5 5 -10 10 -10 6 0 10 5 10 10 0 6 -4 10 -10 10 -5 0
-10 -4 -10 -10z"/>
<path d="M5501 534 c0 -11 3 -14 6 -6 3 7 2 16 -1 19 -3 4 -6 -2 -5 -13z"/>
<path d="M2780 525 c-14 -16 -10 -18 14 -9 9 3 16 10 16 15 0 14 -16 11 -30
-6z"/>
<path d="M3655 511 c-17 -34 -20 -81 -5 -81 6 0 10 13 10 29 0 16 6 31 15 35
17 6 20 32 5 41 -5 3 -16 -8 -25 -24z"/>
<path d="M4258 507 c-21 -18 -25 -26 -18 -44 10 -25 30 -31 30 -9 0 7 9 16 20
19 23 6 26 29 7 45 -10 8 -20 5 -39 -11z"/>
<path d="M4560 511 c0 -5 7 -14 15 -21 16 -14 18 -10 9 14 -6 17 -24 22 -24 7z"/>
<path d="M520 501 c0 -10 30 -24 37 -17 3 3 2 9 -2 15 -8 13 -35 15 -35 2z"/>
<path d="M4013 493 c-27 -18 -34 -76 -8 -67 8 4 15 12 15 19 0 8 7 21 16 30
23 23 4 37 -23 18z"/>
<path d="M4370 498 c0 -18 18 -34 28 -24 3 4 -2 14 -11 23 -16 16 -17 16 -17
1z"/>
<path d="M2450 490 c20 -13 33 -13 25 0 -3 6 -14 10 -23 10 -15 0 -15 -2 -2
-10z"/>
<path d="M2495 490 c-3 -5 1 -10 9 -10 9 0 16 5 16 10 0 6 -4 10 -9 10 -6 0
-13 -4 -16 -10z"/>
<path d="M2800 492 c0 -6 -6 -10 -12 -8 -7 1 -10 1 -6 -1 4 -3 0 -16 -9 -29
-17 -27 -48 -25 -70 3 -11 14 -15 14 -37 -1 -24 -15 -25 -15 -19 1 5 14 3 15
-7 6 -7 -6 -19 -9 -26 -6 -8 3 -15 -2 -15 -11 -1 -9 -3 -20 -4 -26 -1 -5 -3
-15 -4 -21 0 -6 -8 -9 -16 -6 -8 4 -17 1 -21 -5 -4 -7 -3 -8 5 -4 17 11 23
-16 12 -62 -11 -50 -5 -51 59 -17 25 14 53 27 63 31 20 7 22 21 5 27 -7 2 -5
3 4 2 10 -2 29 11 43 28 14 18 29 37 34 43 17 22 32 56 27 62 -3 3 -6 0 -6 -6z"/>
<path d="M4122 489 c2 -6 8 -10 13 -10 5 0 11 4 13 10 2 6 -4 11 -13 11 -9 0
-15 -5 -13 -11z"/>
<path d="M3712 478 c-11 -14 -15 -33 -13 -60 2 -28 21 -21 21 6 0 14 5 28 10
31 12 8 13 35 1 35 -5 0 -13 -6 -19 -12z"/>
<path d="M4066 453 c-25 -21 -27 -27 -17 -49 12 -28 31 -24 31 7 0 10 7 19 15
19 15 0 21 35 7 43 -4 3 -20 -6 -36 -20z"/>
<path d="M4322 469 c-29 -11 -37 -32 -22 -59 8 -15 17 -19 31 -15 11 4 19 3
18 -2 -5 -29 3 -43 25 -43 16 0 26 -7 29 -21 3 -11 15 -23 26 -26 12 -3 21
-12 21 -20 0 -8 9 -17 20 -20 10 -3 26 -15 34 -28 17 -26 77 -41 104 -26 15 9
13 11 -14 23 -30 13 -34 17 -34 38 0 6 -9 10 -19 10 -12 0 -23 11 -30 30 -11
33 -22 37 -41 15 -7 -8 -17 -15 -23 -15 -7 0 -7 4 1 12 17 17 15 55 -2 61 -8
3 -20 -1 -26 -9 -14 -16 -40 -19 -40 -4 0 6 6 10 14 10 18 0 27 23 16 40 -7
11 -14 12 -35 2 -35 -16 -37 -15 -24 6 17 28 0 52 -29 41z"/>
<path d="M3766 446 c-18 -28 -21 -72 -6 -81 6 -3 10 -1 10 4 0 21 2 26 18 53
22 38 2 60 -22 24z"/>
<path d="M4183 443 c9 -9 19 -14 23 -11 10 10 -6 28 -24 28 -15 0 -15 -1 1
-17z"/>
<path d="M4600 451 c0 -5 6 -14 14 -20 16 -13 32 2 21 19 -8 12 -35 13 -35 1z"/>
<path d="M4430 440 c0 -5 5 -10 10 -10 6 0 10 5 10 10 0 6 -4 10 -10 10 -5 0
-10 -4 -10 -10z"/>
<path d="M2411 426 c-7 -8 -28 -17 -48 -21 -50 -9 -74 -26 -67 -47 4 -13 1
-16 -10 -12 -11 4 -16 0 -16 -11 0 -9 -6 -15 -12 -13 -7 3 -19 -1 -26 -9 -7
-7 -22 -13 -33 -13 -10 0 -19 -7 -19 -15 0 -9 -9 -15 -21 -15 -17 0 -19 -3
-10 -14 10 -12 44 -23 89 -28 7 -1 11 -7 8 -15 -9 -21 8 -15 45 18 19 17 48
43 65 57 17 15 37 38 44 51 13 26 15 25 -37 4 -7 -3 -13 -1 -13 5 0 9 28 22
55 26 6 1 20 7 32 14 20 11 21 15 10 32 -14 24 -21 25 -36 6z m29 -15 c0 -5
-7 -12 -16 -15 -14 -5 -15 -4 -4 9 14 17 20 19 20 6z m-180 -125 c0 -3 -4 -8
-10 -11 -5 -3 -10 -1 -10 4 0 6 5 11 10 11 6 0 10 -2 10 -4z"/>
<path d="M4121 416 c-17 -18 -22 -32 -17 -50 7 -30 24 -34 33 -8 4 9 12 20 19
25 7 4 11 15 9 25 -2 9 -4 20 -4 25 -2 14 -18 7 -40 -17z"/>
<path d="M5380 433 c0 -4 5 -15 10 -23 8 -13 10 -13 10 2 0 9 -4 20 -10 23 -5
3 -10 3 -10 -2z"/>
<path d="M5530 430 c0 -5 5 -10 11 -10 5 0 7 5 4 10 -3 6 -8 10 -11 10 -2 0
-4 -4 -4 -10z"/>
<path d="M3828 413 c-20 -21 -24 -58 -8 -68 6 -3 10 5 10 19 0 13 5 26 11 28
6 2 10 12 8 22 -4 17 -5 17 -21 -1z"/>
<path d="M4236 405 c4 -8 8 -15 10 -15 2 0 4 7 4 15 0 8 -4 15 -10 15 -5 0 -7
-7 -4 -15z"/>
<path d="M4655 400 c-7 -12 2 -30 16 -30 5 0 9 9 9 20 0 21 -15 27 -25 10z"/>
<path d="M4475 390 c3 -5 10 -10 16 -10 5 0 9 5 9 10 0 6 -7 10 -16 10 -8 0
-12 -4 -9 -10z"/>
<path d="M3878 376 c-18 -13 -25 -46 -10 -46 10 0 42 38 42 50 0 13 -11 12
-32 -4z"/>
<path d="M4176 371 c-10 -11 -16 -29 -14 -42 3 -25 28 -39 28 -15 0 8 7 19 16
24 17 10 16 43 -2 49 -6 2 -18 -5 -28 -16z"/>
<path d="M3472 363 c-5 -10 -6 -26 -3 -37 6 -15 9 -11 18 18 11 37 1 50 -15
19z"/>
<path d="M3536 355 c-18 -27 -22 -85 -6 -85 6 0 10 10 10 23 0 13 7 32 15 43
16 21 19 44 6 44 -5 0 -16 -11 -25 -25z"/>
<path d="M5507 365 c-4 -8 -2 -17 3 -20 6 -4 10 3 10 14 0 25 -6 27 -13 6z"/>
<path d="M2530 353 c-8 -13 -19 -23 -25 -23 -5 -1 -39 -28 -75 -61 l-65 -61
40 5 c45 6 58 9 99 26 37 15 28 25 -9 11 -15 -6 -30 -8 -32 -6 -3 3 14 10 37
17 48 15 53 22 48 75 -3 38 -3 39 -18 17z"/>
<path d="M4290 360 c0 -5 5 -10 10 -10 6 0 10 5 10 10 0 6 -4 10 -10 10 -5 0
-10 -4 -10 -10z"/>
<path d="M3933 337 c-19 -22 -20 -67 -1 -67 5 0 12 9 15 20 3 11 9 20 14 20
11 0 12 37 0 44 -4 3 -17 -5 -28 -17z"/>
<path d="M4525 350 c-7 -12 2 -30 16 -30 5 0 9 9 9 20 0 21 -15 27 -25 10z"/>
<path d="M4705 350 c-10 -17 12 -37 25 -24 8 8 6 15 -4 23 -10 9 -16 9 -21 1z"/>
<path d="M4231 331 c-19 -14 -22 -24 -17 -45 3 -14 12 -26 19 -26 20 1 49 48
42 70 -8 24 -13 25 -44 1z"/>
<path d="M5310 340 c0 -5 5 -10 11 -10 5 0 7 5 4 10 -3 6 -8 10 -11 10 -2 0
-4 -4 -4 -10z"/>
<path d="M3592 320 c-14 -23 -16 -74 -3 -65 5 3 12 19 16 35 4 17 11 30 16 30
6 0 7 5 4 10 -9 15 -19 12 -33 -10z"/>
<path d="M4345 321 c-10 -17 15 -45 29 -31 7 7 5 15 -6 26 -11 11 -18 13 -23
5z"/>
<path d="M3650 301 c-6 -12 -6 -22 -1 -26 6 -3 15 3 21 14 6 12 6 22 1 26 -6
3 -15 -3 -21 -14z"/>
<path d="M3987 305 c-15 -10 -17 -21 -12 -44 7 -32 25 -43 25 -16 0 8 6 24 12
35 17 26 -1 43 -25 25z"/>
<path d="M4095 310 c-3 -6 1 -13 10 -16 19 -8 30 0 20 15 -8 14 -22 14 -30 1z"/>
<path d="M5330 305 c0 -8 4 -15 10 -15 5 0 7 7 4 15 -4 8 -8 15 -10 15 -2 0
-4 -7 -4 -15z"/>
<path d="M3708 277 c-22 -34 -28 -67 -13 -67 8 0 17 9 20 20 3 11 11 20 16 20
12 0 12 37 0 44 -5 3 -15 -4 -23 -17z"/>
<path d="M4280 281 c-5 -11 -9 -31 -8 -44 2 -21 9 -26 43 -32 23 -3 51 -2 63
2 21 8 21 10 6 32 -12 16 -19 20 -27 12 -16 -16 -30 -13 -23 4 15 40 -33 63
-54 26z"/>
<path d="M4566 285 c4 -8 12 -15 20 -15 8 0 14 7 14 15 0 8 -9 15 -20 15 -13
0 -18 -5 -14 -15z"/>
<path d="M4746 291 c-3 -5 1 -14 8 -20 16 -13 32 2 21 19 -8 12 -22 13 -29 1z"/>
<path d="M2636 271 c-15 -10 -26 -22 -24 -26 3 -8 -11 -13 -70 -22 -56 -9 -43
-19 24 -18 64 1 65 2 85 39 11 21 19 40 17 42 -2 2 -16 -5 -32 -15z"/>
<path d="M4052 270 c-12 -10 -22 -28 -22 -39 0 -17 6 -21 29 -21 16 0 35 -2
43 -5 21 -8 45 12 32 25 -9 9 -17 8 -32 -1 -12 -7 -25 -9 -29 -5 -4 5 -2 11 5
13 13 5 17 39 4 46 -4 3 -17 -3 -30 -13z"/>
<path d="M4150 265 c0 -8 5 -15 10 -15 6 0 10 7 10 15 0 8 -4 15 -10 15 -5 0
-10 -7 -10 -15z"/>
<path d="M4405 270 c-7 -12 2 -30 16 -30 12 0 12 27 0 35 -5 3 -12 1 -16 -5z"/>
<path d="M3770 259 c0 -7 -7 -21 -17 -31 -15 -17 -15 -18 6 -18 12 0 19 4 16
10 -3 6 -1 10 4 10 14 0 14 27 1 35 -5 3 -10 1 -10 -6z"/>
<path d="M5490 252 c6 -13 14 -21 18 -18 3 4 -2 14 -12 24 -18 16 -18 16 -6
-6z"/>
<path d="M4625 240 c-3 -5 1 -10 10 -10 9 0 13 5 10 10 -3 6 -8 10 -10 10 -2
0 -7 -4 -10 -10z"/>
<path d="M5290 244 c0 -13 18 -39 24 -34 2 3 -2 14 -10 24 -8 11 -14 16 -14
10z"/>
<path d="M3916 233 c-11 -11 -6 -23 9 -23 8 0 15 4 15 9 0 13 -16 22 -24 14z"/>
<path d="M4206 224 c-4 -9 1 -14 14 -14 23 0 27 15 6 23 -8 3 -17 -1 -20 -9z"/>
<path d="M4430 220 c-21 -7 -18 -8 18 -9 26 -1 41 3 37 9 -7 11 -19 11 -55 0z"/>
<path d="M2174 209 c12 -8 25 -8 40 -1 18 9 16 11 -19 11 -33 0 -37 -1 -21
-10z"/>
<path d="M3800 216 c0 -2 9 -6 20 -9 11 -3 20 -1 20 4 0 5 -9 9 -20 9 -11 0
-20 -2 -20 -4z"/>
<path d="M525 92 l0 -87 176 -3 176 -2 -3 75 c-2 41 -6 79 -9 84 -3 5 1 12 7
14 7 3 -6 6 -29 6 -23 1 -63 -8 -89 -19 -55 -24 -124 -41 -124 -31 0 4 28 17
63 28 l62 21 -115 1 -115 1 0 -88z"/>
<path d="M1988 173 c6 -2 12 -13 12 -22 0 -14 -6 -17 -25 -13 -22 4 -25 1 -25
-22 0 -22 -4 -27 -22 -24 -13 2 -23 -1 -24 -7 -2 -24 -18 -46 -30 -41 -10 4
-11 -1 -5 -17 8 -22 10 -22 281 -25 293 -3 326 2 278 41 -22 17 -22 18 -1 8
12 -6 25 -11 30 -11 18 1 70 59 77 84 6 24 4 27 -14 21 -11 -3 -32 -8 -47 -11
-16 -2 -43 -6 -61 -10 -18 -3 -59 -5 -92 -5 -63 -1 -60 1 -122 -80 -10 -13
-18 -18 -18 -12 0 7 4 14 9 17 8 6 51 81 51 91 0 3 -11 5 -25 5 -38 0 -30 17
13 28 29 7 5 9 -108 10 -80 0 -139 -2 -132 -5z m182 -23 c0 -5 -7 -7 -15 -4
-8 4 -15 8 -15 10 0 2 7 4 15 4 8 0 15 -4 15 -10z"/>
<path d="M2316 165 c-31 -23 -9 -35 57 -30 87 6 135 15 171 31 28 12 20 13
-89 13 -88 0 -125 -3 -139 -14z"/>
<path d="M2578 163 c-25 -30 -31 -43 -14 -37 17 7 51 54 38 54 -5 0 -16 -8
-24 -17z"/>
<path d="M3410 145 c0 -19 5 -35 10 -35 6 0 10 11 10 25 0 13 8 29 18 34 14 9
13 10 -10 11 -25 0 -28 -3 -28 -35z"/>
<path d="M3482 160 c-24 -39 -3 -44 22 -5 12 18 13 25 4 25 -7 0 -19 -9 -26
-20z"/>
<path d="M3618 173 c6 -2 18 -2 25 0 6 3 1 5 -13 5 -14 0 -19 -2 -12 -5z"/>
<path d="M3753 173 c29 -3 37 -9 37 -24 0 -11 7 -19 16 -19 10 0 14 6 10 15
-3 8 2 19 12 24 12 8 -1 10 -48 9 -40 -1 -51 -3 -27 -5z"/>
<path d="M3848 163 c-5 -25 3 -63 13 -63 5 0 9 9 9 20 0 10 10 28 22 40 l22
20 -31 0 c-22 0 -33 -5 -35 -17z"/>
<path d="M3948 173 c12 -2 30 -2 40 0 9 3 -1 5 -23 4 -22 0 -30 -2 -17 -4z"/>
<path d="M4040 173 c19 -3 39 -9 45 -14 12 -12 38 -12 30 1 -3 6 0 10 8 10 10
0 13 -7 10 -20 -5 -20 12 -50 28 -50 5 0 9 9 9 20 0 11 5 20 10 20 6 0 10 7
10 15 0 19 52 20 80 3 15 -9 23 -10 28 -2 4 6 21 11 39 11 25 0 33 -5 37 -23
3 -12 16 -26 27 -29 12 -4 35 -21 50 -39 63 -70 72 -76 106 -76 30 0 34 3 31
23 -2 12 -13 26 -25 32 -12 5 -27 20 -32 33 -6 13 -16 20 -21 17 -6 -3 -10 0
-10 8 0 20 -36 51 -45 38 -9 -16 -25 -13 -25 4 0 21 66 21 74 0 3 -8 10 -15
17 -15 6 0 9 7 5 15 -7 19 3 19 42 -1 18 -8 32 -22 32 -30 0 -7 9 -19 20 -26
11 -7 20 -17 20 -22 0 -5 16 -24 35 -42 27 -27 42 -34 75 -34 22 0 40 5 40 10
0 6 -6 10 -13 10 -7 0 -18 13 -24 30 -6 16 -18 30 -26 30 -8 0 -18 11 -21 25
-6 24 -36 36 -36 15 0 -5 -4 -10 -8 -10 -5 0 -7 14 -4 30 4 28 8 30 44 30 23
0 37 -4 33 -10 -3 -5 0 -8 7 -5 7 2 29 -16 48 -42 69 -92 92 -113 123 -113 29
0 29 1 14 18 -10 10 -17 24 -17 30 0 7 -9 17 -20 24 -11 7 -20 21 -20 31 0 10
-7 20 -15 23 -9 4 -20 14 -25 23 -7 14 -3 17 30 18 33 2 42 -3 67 -35 15 -20
36 -53 46 -72 23 -43 44 -60 74 -60 l22 0 -22 36 c-12 19 -27 45 -34 56 -6 11
-15 23 -21 27 -5 3 -12 16 -16 28 -6 17 -2 22 16 26 13 2 -204 4 -482 4 -278
0 -489 -2 -470 -4z"/>
<path d="M5038 162 c10 -10 29 -39 41 -64 12 -26 29 -52 37 -58 7 -7 14 -19
14 -26 0 -8 9 -14 20 -14 23 0 26 22 6 39 -8 7 -17 23 -20 36 -4 14 -11 25
-16 25 -6 0 -10 6 -10 14 0 7 -7 19 -15 26 -21 17 -19 28 8 33 12 2 -2 5 -30
6 -51 1 -52 0 -35 -17z"/>
<path d="M5142 170 c9 -6 30 -38 47 -73 36 -71 58 -103 67 -94 3 3 -1 18 -9
34 -32 62 -61 128 -59 136 1 4 -13 7 -30 7 -26 -1 -30 -3 -16 -10z"/>
<path d="M5243 163 c8 -10 28 -47 43 -83 15 -36 31 -69 35 -74 14 -16 -2 38
-28 92 -14 29 -22 59 -19 67 4 11 -2 15 -21 15 -24 0 -25 -1 -10 -17z"/>
<path d="M5308 173 c7 -3 16 -2 19 1 4 3 -2 6 -13 5 -11 0 -14 -3 -6 -6z"/>
<path d="M6017 161 c13 -16 19 -17 27 -7 6 8 18 16 26 19 8 3 -4 6 -27 6 -41
1 -42 0 -26 -18z"/>
<path d="M3911 129 c-20 -26 -21 -35 -12 -56 12 -26 31 -23 31 5 0 10 7 28 16
40 14 21 12 42 -5 42 -4 0 -18 -14 -30 -31z"/>
<path d="M4020 151 c0 -6 5 -13 10 -16 6 -3 10 1 10 9 0 9 -4 16 -10 16 -5 0
-10 -4 -10 -9z"/>
<path d="M6350 152 c0 -5 7 -15 15 -22 8 -7 15 -8 15 -2 0 5 -7 15 -15 22 -8
7 -15 8 -15 2z"/>
<path d="M3540 129 c-6 -11 -10 -28 -8 -37 3 -12 8 -7 21 17 20 40 20 41 7 41
-5 0 -14 -9 -20 -21z"/>
<path d="M4208 139 c-30 -17 -20 -79 12 -79 10 0 20 -6 23 -14 7 -17 63 -46
89 -46 22 0 35 27 20 42 -7 7 -20 7 -41 0 -19 -7 -31 -7 -31 -1 0 5 7 9 15 9
17 0 20 27 5 50 -8 12 -13 13 -30 3 -28 -18 -31 -16 -20 11 13 35 -6 47 -42
25z"/>
<path d="M6324 116 c0 -19 3 -30 7 -24 6 9 11 8 23 -1 24 -20 19 0 -7 33 l-23
28 0 -36z"/>
<path d="M4325 130 c-4 -6 -3 -16 3 -22 6 -6 12 -6 17 2 4 6 3 16 -3 22 -6 6
-12 6 -17 -2z"/>
<path d="M4715 130 c-3 -6 1 -13 10 -16 19 -8 30 0 20 15 -8 14 -22 14 -30 1z"/>
<path d="M4880 125 c0 -8 4 -15 10 -15 5 0 7 7 4 15 -4 8 -8 15 -10 15 -2 0
-4 -7 -4 -15z"/>
<path d="M4080 113 c0 -25 15 -38 25 -22 4 6 0 18 -9 27 -15 15 -16 15 -16 -5z"/>
<path d="M4551 116 c-12 -14 -5 -26 16 -26 15 0 18 26 4 34 -5 3 -14 0 -20 -8z"/>
<path d="M3976 101 c-11 -12 -16 -31 -14 -52 3 -36 28 -53 28 -19 0 11 7 32
16 45 26 40 1 61 -30 26z"/>
<path d="M4370 75 c0 -8 7 -15 15 -15 8 0 15 7 15 15 0 8 -7 15 -15 15 -8 0
-15 -7 -15 -15z"/>
<path d="M4765 80 c-8 -13 -1 -24 14 -19 6 3 7 10 2 18 -6 10 -10 10 -16 1z"/>
<path d="M4028 59 c-21 -22 -24 -59 -5 -59 18 1 50 49 43 66 -7 18 -17 17 -38
-7z"/>
<path d="M4590 73 c0 -5 4 -14 9 -22 11 -17 32 -5 24 14 -5 15 -33 21 -33 8z"/>
<path d="M4920 65 c0 -8 5 -15 10 -15 6 0 10 7 10 15 0 8 -4 15 -10 15 -5 0
-10 -7 -10 -15z"/>
<path d="M4132 58 c6 -18 28 -21 28 -4 0 9 -7 16 -16 16 -9 0 -14 -5 -12 -12z"/>
<path d="M3840 45 c0 -8 5 -15 10 -15 6 0 10 7 10 15 0 8 -4 15 -10 15 -5 0
-10 -7 -10 -15z"/>
<path d="M3742 25 c-11 -23 -10 -25 13 -25 20 0 25 5 25 25 0 14 -6 25 -13 25
-8 0 -19 -11 -25 -25z"/>
<path d="M3683 25 c-3 -9 -3 -18 -1 -21 3 -3 8 4 11 16 6 23 -1 27 -10 5z"/>
<path d="M4422 31 c4 -13 18 -16 19 -4 0 4 -5 9 -11 12 -7 2 -11 -2 -8 -8z"/>
<path d="M6270 20 c0 -16 7 -20 35 -20 40 0 41 2 19 24 -22 23 -54 20 -54 -4z"/>
<path d="M4083 23 c-22 -8 -14 -23 12 -23 16 0 25 6 25 15 0 15 -14 18 -37 8z"/>
<path d="M4186 23 c-11 -11 -6 -23 9 -23 8 0 15 4 15 9 0 13 -16 22 -24 14z"/>
<path d="M4802 18 c6 -18 28 -21 28 -4 0 9 -7 16 -16 16 -9 0 -14 -5 -12 -12z"/>
<path d="M3900 10 c0 -5 5 -10 10 -10 6 0 10 5 10 10 0 6 -4 10 -10 10 -5 0
-10 -4 -10 -10z"/>
<path d="M4645 10 c-3 -5 1 -10 9 -10 9 0 16 5 16 10 0 6 -4 10 -9 10 -6 0
-13 -4 -16 -10z"/>
<path d="M2468 3 c6 -2 18 -2 25 0 6 3 1 5 -13 5 -14 0 -19 -2 -12 -5z"/>
<path d="M4388 3 c7 -3 16 -2 19 1 4 3 -2 6 -13 5 -11 0 -14 -3 -6 -6z"/>
</g>
</svg>
