<?xml version="1.0" standalone="no"?>
<!DOCTYPE svg PUBLIC "-//W3C//DTD SVG 20010904//EN"
 "http://www.w3.org/TR/2001/REC-SVG-20010904/DTD/svg10.dtd">
<svg version="1.0" xmlns="http://www.w3.org/2000/svg"
 width="640.000000pt" height="640.000000pt" viewBox="0 0 640.000000 640.000000"
 preserveAspectRatio="xMidYMid meet">

<g transform="translate(0.000000,640.000000) scale(0.100000,-0.100000)"
fill="#000000" stroke="none">
<path d="M3113 6223 c130 -2 344 -2 475 0 130 1 23 2 -238 2 -261 0 -368 -1
-237 -2z"/>
<path d="M6298 5896 l-78 -20 0 -44 c0 -36 3 -43 18 -39 9 3 50 13 90 23 l72
18 0 43 c0 49 5 48 -102 19z"/>
<path d="M6130 5849 c-19 -6 -168 -46 -330 -90 -162 -44 -362 -101 -445 -126
-241 -72 -457 -131 -645 -174 -265 -61 -378 -97 -382 -123 -2 -16 -19 -25 -73
-42 -38 -12 -63 -23 -54 -23 9 -1 26 -10 39 -21 13 -11 32 -20 44 -21 12 0 30
-4 41 -9 14 -6 3 -8 -37 -7 -46 1 -57 4 -55 17 3 20 -51 17 -72 -5 -15 -15
-13 -16 14 -10 28 6 29 5 11 -9 -13 -11 -24 -12 -37 -6 -23 13 -42 13 -34 0 4
-6 -6 -7 -25 -4 -17 4 -30 2 -30 -3 0 -20 77 -23 149 -7 68 16 73 15 85 -1 16
-22 46 -14 53 14 3 11 17 22 31 26 24 6 94 36 258 110 49 22 316 110 424 139
30 8 109 30 175 49 141 40 380 106 515 141 159 42 353 93 398 105 40 11 42 13
42 51 0 43 -3 44 -60 29z m-1513 -485 c-3 -3 -12 -4 -19 -1 -8 3 -5 6 6 6 11
1 17 -2 13 -5z"/>
<path d="M4898 5533 c7 -3 16 -2 19 1 4 3 -2 6 -13 5 -11 0 -14 -3 -6 -6z"/>
<path d="M0 5442 c0 -6 12 -13 28 -15 l27 -4 -27 -2 c-27 -1 -28 -3 -28 -55
l0 -53 61 -7 c34 -3 75 -6 90 -6 l29 0 0 70 0 70 -52 0 c-29 0 -70 3 -90 6
-24 4 -38 3 -38 -4z"/>
<path d="M210 5371 l0 -69 113 -6 c61 -3 209 -11 327 -16 398 -19 863 -50
1220 -82 289 -25 416 -31 680 -33 474 -4 574 -14 586 -60 7 -27 34 -35 34 -10
0 8 -4 15 -10 15 -5 0 -10 4 -10 9 0 10 103 31 148 29 17 -1 32 -5 32 -10 0
-13 55 -9 68 4 10 10 15 10 22 -2 7 -11 13 -12 34 -2 30 13 33 27 9 36 -15 6
-15 9 -3 16 17 11 30 4 30 -17 0 -20 38 -53 62 -53 10 0 27 -5 37 -11 28 -18
68 -3 79 30 16 46 -4 65 -62 59 -25 -3 -49 -1 -52 4 -3 5 -58 6 -130 3 -110
-6 -123 -5 -118 9 3 9 1 16 -5 16 -6 0 -11 9 -11 20 0 18 -7 20 -83 20 -88 0
-104 -5 -86 -27 9 -11 -4 -12 -77 -8 -49 3 -111 10 -139 15 -27 5 -99 14 -160
20 -60 6 -195 19 -300 30 -461 47 -1086 90 -1650 115 -187 8 -395 17 -462 20
l-123 6 0 -70z m1467 -37 c-3 -3 -12 -4 -19 -1 -8 3 -5 6 6 6 11 1 17 -2 13
-5z m151 -11 c-10 -2 -26 -2 -35 0 -10 3 -2 5 17 5 19 0 27 -2 18 -5z m230
-20 c-16 -2 -40 -2 -55 0 -16 2 -3 4 27 4 30 0 43 -2 28 -4z m150 -10 c-15 -2
-42 -2 -60 0 -18 2 -6 4 27 4 33 0 48 -2 33 -4z m110 -10 c-16 -2 -40 -2 -55
0 -16 2 -3 4 27 4 30 0 43 -2 28 -4z m332 -23 c41 -5 115 -12 165 -15 49 -4
92 -8 94 -11 15 -15 -264 4 -454 32 l-90 12 105 -4 c58 -3 139 -9 180 -14z
m505 -68 c-8 -8 -25 10 -19 20 4 6 9 5 15 -3 4 -7 6 -15 4 -17z m375 -13 c0
-6 -4 -7 -10 -4 -5 3 -10 11 -10 16 0 6 5 7 10 4 6 -3 10 -11 10 -16z m115
-32 c7 -7 4 -8 -8 -3 -10 3 -25 6 -33 6 -8 0 -14 5 -14 11 0 12 40 2 55 -14z"/>
<path d="M4189 5375 c-1 -3 -2 -8 -3 -12 -1 -5 -8 -19 -15 -32 -9 -17 -16 -20
-24 -12 -14 14 -54 14 -62 1 -6 -9 35 -14 94 -12 28 2 46 23 28 34 -12 8 0 11
33 9 10 0 11 1 2 5 -6 3 -10 10 -6 15 3 5 -6 9 -20 9 -14 0 -27 -2 -27 -5z"/>
<path d="M3940 5300 c0 -16 -7 -20 -32 -20 -30 0 -98 -32 -98 -45 0 -3 10 1
23 9 12 7 40 17 62 21 22 4 46 11 53 17 14 12 16 38 2 38 -5 0 -10 -9 -10 -20z"/>
<path d="M3985 5310 c-3 -5 1 -10 10 -10 9 0 13 5 10 10 -3 6 -8 10 -10 10 -2
0 -7 -4 -10 -10z"/>
<path d="M4068 5266 c-48 -6 -90 -14 -94 -18 -3 -4 11 -4 31 -1 32 5 37 3 33
-9 -5 -11 2 -15 27 -16 56 -2 127 35 98 51 -5 2 -47 -1 -95 -7z"/>
<path d="M3510 5252 c9 -19 19 -23 53 -22 23 1 56 -1 72 -5 29 -6 29 -6 10 10
-15 12 -33 15 -70 12 -38 -3 -53 -1 -63 12 -11 14 -12 13 -2 -7z"/>
<path d="M3730 5255 c0 -8 5 -15 10 -15 6 0 10 7 10 15 0 8 -4 15 -10 15 -5 0
-10 -7 -10 -15z"/>
<path d="M3330 5250 c0 -5 14 -10 30 -10 17 0 30 5 30 10 0 6 -13 10 -30 10
-16 0 -30 -4 -30 -10z"/>
<path d="M3900 5239 c-50 -14 -110 -40 -142 -62 -28 -18 -28 -18 -28 2 0 13
-5 19 -14 15 -7 -3 -13 -16 -13 -30 0 -14 -9 -34 -18 -44 -10 -11 -15 -23 -12
-27 4 -3 7 0 7 7 0 10 3 11 11 3 14 -14 1 -36 -17 -29 -16 6 -18 -12 -4 -34 9
-13 12 -13 24 3 16 21 32 22 40 1 3 -8 10 -12 16 -9 9 5 15 -23 11 -48 -1 -4
5 -18 14 -30 13 -19 15 -19 15 -3 0 13 5 16 16 12 12 -5 15 -2 10 10 -3 9 -9
27 -12 40 -6 23 -4 24 32 19 51 -6 63 -20 36 -42 -27 -22 -21 -68 7 -53 9 5
39 19 66 31 28 12 53 27 57 33 9 13 50 14 60 2 3 -5 18 0 32 12 l27 20 -23 16
c-20 14 -24 14 -40 -1 -35 -32 -30 0 9 56 1 2 16 -2 33 -9 19 -8 29 -18 26
-26 -7 -18 28 -36 62 -34 62 4 122 -1 122 -10 0 -5 -13 -10 -30 -10 -16 0 -30
-3 -30 -8 0 -11 -58 -34 -72 -29 -7 3 -3 6 10 6 33 1 28 31 -5 31 -40 0 -74
-11 -67 -21 3 -5 10 -7 15 -4 5 4 14 3 20 -1 8 -4 7 -9 -2 -15 -11 -7 -10 -13
7 -30 l22 -21 11 21 c11 19 20 21 125 21 130 0 450 -42 677 -89 178 -37 527
-126 674 -171 74 -24 492 -159 508 -165 16 -7 18 -2 15 51 -3 57 -4 58 -38 67
-19 5 -39 12 -45 17 -13 9 -83 33 -110 35 -11 2 -72 17 -135 35 -266 74 -311
84 -695 161 -137 27 -306 64 -375 83 -69 19 -177 43 -240 55 -74 13 -117 26
-122 36 -5 8 -15 15 -22 15 -8 0 -35 10 -62 21 -26 12 -73 23 -103 24 -53 2
-55 2 -33 -12 12 -9 22 -22 22 -29 0 -16 -11 -18 -25 -5 -6 4 -32 14 -60 20
-27 7 -53 17 -57 24 -4 7 -12 6 -24 -4 -10 -8 -15 -9 -11 -2 12 20 -8 55 -41
69 -29 12 -32 11 -32 -6 0 -10 4 -20 8 -22 5 -1 12 -15 16 -30 6 -26 5 -27
-24 -22 -23 5 -30 3 -30 -10 0 -17 -15 -22 -25 -7 -3 6 1 13 8 18 19 11 30 70
14 76 -9 3 -9 9 1 26 14 24 9 25 -48 10z m3 -110 c-6 -6 -19 -12 -29 -14 -11
-2 -20 -4 -22 -4 -1 -1 2 -10 8 -21 9 -17 8 -20 -10 -20 -13 0 -20 7 -20 20 0
17 -7 20 -46 20 -31 0 -43 4 -38 11 4 7 25 10 59 6 28 -3 58 -1 66 4 21 13 46
12 32 -2z m24 -59 c17 -13 20 -20 11 -20 -8 0 -23 9 -33 20 -10 11 -15 20 -11
20 4 0 19 -9 33 -20z m-87 -14 c0 -3 -4 -8 -10 -11 -5 -3 -10 -1 -10 4 0 6 5
11 10 11 6 0 10 -2 10 -4z m90 -30 c0 -3 -4 -8 -10 -11 -5 -3 -10 -1 -10 4 0
6 5 11 10 11 6 0 10 -2 10 -4z m-144 -53 c-11 -11 -17 4 -9 23 7 18 8 18 11 1
2 -10 1 -21 -2 -24z m771 1 c-3 -3 -12 -4 -19 -1 -8 3 -5 6 6 6 11 1 17 -2 13
-5z"/>
<path d="M3960 5161 c0 -5 5 -13 10 -16 6 -3 10 -2 10 4 0 5 -4 13 -10 16 -5
3 -10 2 -10 -4z"/>
<path d="M3230 5123 c0 -5 4 -14 9 -22 7 -12 12 -11 30 1 11 8 18 18 14 21 -9
9 -53 9 -53 0z"/>
<path d="M3458 5119 c-18 -10 -14 -39 6 -39 7 0 21 7 32 15 16 13 17 16 4 25
-18 12 -21 12 -42 -1z"/>
<path d="M3514 5099 c-8 -14 -5 -16 51 -24 57 -8 53 7 -7 23 -25 7 -40 7 -44
1z"/>
<path d="M3432 5049 c-7 -10 -12 -22 -12 -26 0 -5 5 -1 10 7 7 11 10 8 10 -16
0 -42 33 -84 51 -66 7 6 22 12 32 12 13 0 17 5 13 15 -3 8 -1 15 4 15 6 0 10
5 10 11 0 6 -7 9 -15 5 -8 -3 -15 -2 -15 3 0 5 9 11 20 14 22 6 27 26 8 28
-56 6 -68 4 -67 -11 1 -8 -1 -23 -6 -33 -4 -10 -2 -24 6 -35 13 -15 12 -16 -3
-3 -12 9 -18 27 -18 52 0 44 -11 56 -28 28z"/>
<path d="M3623 5042 c-13 -2 -23 -10 -23 -18 0 -11 6 -13 23 -8 27 8 30 11 26
21 -2 4 -14 7 -26 5z"/>
<path d="M3175 4995 c-33 -19 -69 -45 -80 -59 -20 -24 -61 -45 -140 -71 -92
-31 -474 -186 -660 -268 -312 -137 -1085 -543 -1085 -569 0 -12 30 -10 91 6
52 14 232 95 506 227 67 32 125 59 128 59 3 0 65 29 138 64 162 79 310 140
622 257 318 119 452 176 497 211 20 15 43 25 52 22 9 -3 19 3 26 17 11 20 10
21 -6 14 -42 -17 -57 -18 -52 -5 2 7 31 21 64 30 32 9 69 22 81 28 20 11 21
15 10 32 -6 11 -19 20 -27 19 -10 0 -11 -2 -2 -6 20 -8 14 -20 -15 -26 -35 -7
-63 8 -63 33 0 28 -16 25 -85 -15z m-26 -38 c-8 -7 -18 -20 -22 -29 -7 -19
-27 -25 -27 -9 0 10 48 51 59 51 3 0 -1 -6 -10 -13z m21 -101 c0 -2 -7 -7 -16
-10 -8 -3 -12 -2 -9 4 6 10 25 14 25 6z m-70 -20 c0 -9 -40 -13 -46 -5 -3 5 6
9 20 9 14 0 26 -2 26 -4z"/>
<path d="M3585 4990 c3 -5 8 -10 11 -10 2 0 4 5 4 10 0 6 -5 10 -11 10 -5 0
-7 -4 -4 -10z"/>
<path d="M3710 4970 c0 -5 5 -10 11 -10 17 0 40 -28 29 -35 -5 -3 -10 -12 -10
-19 0 -12 24 -14 73 -7 4 1 7 10 7 21 0 16 -5 19 -23 15 -17 -5 -28 0 -43 19
-19 26 -44 35 -44 16z"/>
<path d="M4036 4953 c-11 -11 -6 -23 9 -23 8 0 15 4 15 9 0 13 -16 22 -24 14z"/>
<path d="M3348 4912 c-20 -4 -23 -17 -7 -28 12 -7 33 10 28 23 -2 5 -12 7 -21
5z"/>
<path d="M3687 4906 c-3 -8 1 -17 9 -20 9 -4 14 1 14 14 0 23 -15 27 -23 6z"/>
<path d="M3750 4775 c0 -19 -3 -35 -7 -35 -17 0 -35 19 -29 29 4 6 0 11 -8 11
-9 0 -16 -5 -16 -11 0 -8 -4 -9 -13 0 -16 13 -27 5 -27 -19 0 -11 9 -17 30
-19 69 -4 70 -4 72 -33 0 -15 1 -32 2 -38 2 -24 -19 -13 -24 12 -6 33 -25 25
-35 -15 l-7 -27 68 0 c86 0 101 8 82 41 -7 13 -20 30 -28 37 -13 12 -13 13 3
8 10 -3 24 -6 31 -6 7 0 17 -12 23 -27 l11 -28 1 28 c1 37 18 34 19 -4 1 -50
12 -47 12 4 0 26 5 47 10 47 6 0 10 7 10 15 0 8 -4 15 -10 15 -5 0 -10 -7 -10
-15 0 -8 -4 -15 -10 -15 -5 0 -10 9 -10 20 0 11 -4 20 -10 20 -5 0 -10 -7 -10
-15 0 -8 -5 -15 -11 -15 -6 0 -8 9 -4 20 7 24 -7 26 -29 5 -8 -8 -24 -15 -35
-15 -17 0 -21 6 -21 30 0 17 -4 30 -10 30 -5 0 -10 -16 -10 -35z"/>
<path d="M3785 4790 c-3 -5 1 -10 9 -10 9 0 16 5 16 10 0 6 -4 10 -9 10 -6 0
-13 -4 -16 -10z"/>
<path d="M4040 4790 c0 -5 5 -10 10 -10 6 0 10 5 10 10 0 6 -4 10 -10 10 -5 0
-10 -4 -10 -10z"/>
<path d="M5151 4757 c-40 -14 -50 -33 -23 -41 10 -4 29 -18 42 -31 18 -20 21
-28 12 -37 -12 -12 -17 -58 -7 -58 8 0 69 43 77 55 13 17 2 30 -20 27 -26 -4
-29 16 -5 33 15 12 16 16 4 39 -16 29 -29 31 -80 13z"/>
<path d="M4037 4734 c-8 -8 1 -24 14 -24 5 0 9 7 9 15 0 15 -12 20 -23 9z"/>
<path d="M5020 4645 c-17 -21 -5 -32 50 -44 40 -9 43 -8 25 5 -11 7 -30 23
-41 34 -19 18 -23 18 -34 5z"/>
<path d="M6220 4580 c0 -33 3 -59 8 -58 7 2 149 -40 165 -49 4 -2 7 20 7 50
l0 55 -47 17 c-27 9 -67 23 -90 31 l-43 13 0 -59z"/>
<path d="M3658 4623 c7 -3 16 -2 19 1 4 3 -2 6 -13 5 -11 0 -14 -3 -6 -6z"/>
<path d="M4605 4600 c-3 -5 -1 -10 4 -10 6 0 11 5 11 10 0 6 -2 10 -4 10 -3 0
-8 -4 -11 -10z"/>
<path d="M3490 4589 c-47 -4 -94 -9 -105 -12 -11 -2 -49 -8 -85 -12 -36 -5
-67 -9 -70 -10 -57 -13 -70 -18 -70 -24 0 -4 -10 -7 -22 -7 -17 1 -24 -5 -26
-23 -3 -17 -6 -20 -12 -12 -5 10 -9 10 -14 2 -5 -7 4 -14 23 -17 16 -4 32 -13
35 -21 5 -13 8 -13 21 0 8 8 47 21 87 28 40 6 80 16 88 21 22 12 -108 -2 -154
-18 -33 -11 -41 -10 -54 2 -17 18 -8 32 11 16 7 -6 18 -8 23 -3 33 30 378 50
635 37 114 -7 137 -11 145 -26 81 -152 119 -238 109 -248 -2 -2 -39 3 -83 12
-43 9 -99 15 -123 15 -24 -1 -35 -3 -24 -6 11 -2 61 -13 110 -24 50 -11 115
-19 145 -17 48 3 55 6 58 25 4 27 -91 272 -119 307 l-20 26 -212 -2 c-117 -1
-250 -5 -297 -9z"/>
<path d="M4695 4571 c6 -6 46 -12 90 -15 57 -4 69 -3 40 3 -84 18 -140 23
-130 12z"/>
<path d="M4494 4538 c-13 -17 -9 -77 5 -91 19 -19 33 7 29 53 -3 45 -18 61
-34 38z"/>
<path d="M3071 4514 c0 -11 3 -14 6 -6 3 7 2 16 -1 19 -3 4 -6 -2 -5 -13z"/>
<path d="M4670 4473 c0 -56 1 -59 30 -70 29 -11 30 -14 30 -72 l0 -61 55 0
c66 0 67 2 63 139 -3 108 3 102 -115 115 l-63 7 0 -58z"/>
<path d="M5158 4503 c6 -2 18 -2 25 0 6 3 1 5 -13 5 -14 0 -19 -2 -12 -5z"/>
<path d="M4912 4384 l3 -119 83 -3 82 -4 0 110 0 109 -52 7 c-29 4 -68 9 -86
13 l-33 5 3 -118z m45 -26 c-2 -18 -4 -6 -4 27 0 33 2 48 4 33 2 -15 2 -42 0
-60z m93 22 c0 -5 -13 -10 -30 -10 -16 0 -30 5 -30 10 0 6 14 10 30 10 17 0
30 -4 30 -10z m-33 -66 c-3 -3 -12 -4 -19 -1 -8 3 -5 6 6 6 11 1 17 -2 13 -5z"/>
<path d="M5248 4493 c7 -3 16 -2 19 1 4 3 -2 6 -13 5 -11 0 -14 -3 -6 -6z"/>
<path d="M5298 4483 c7 -3 16 -2 19 1 4 3 -2 6 -13 5 -11 0 -14 -3 -6 -6z"/>
<path d="M5140 4367 c0 -75 4 -106 13 -109 6 -2 45 -5 85 -7 l73 -3 -3 99 -3
98 -50 6 c-27 4 -65 9 -82 13 l-33 8 0 -105z m73 13 c10 0 15 -4 12 -10 -8
-14 -68 -6 -73 10 -3 9 2 11 19 7 13 -4 32 -7 42 -7z m70 -73 c4 -11 -7 -12
-57 -5 -87 12 -91 16 -15 17 47 1 68 -3 72 -12z"/>
<path d="M5599 4437 c5 -5 19 -7 32 -5 20 3 19 5 -9 9 -20 3 -29 2 -23 -4z"/>
<path d="M5373 4340 l2 -93 83 -4 83 -5 -2 86 c-2 97 4 91 -101 101 l-67 7 2
-92z m57 30 c0 -5 -4 -10 -10 -10 -5 0 -10 5 -10 10 0 6 5 10 10 10 6 0 10 -4
10 -10z"/>
<path d="M5745 4420 c3 -5 8 -10 11 -10 2 0 4 5 4 10 0 6 -5 10 -11 10 -5 0
-7 -4 -4 -10z"/>
<path d="M5600 4322 l0 -79 38 -7 c20 -3 54 -6 74 -6 l36 0 4 75 c3 85 9 80
-89 90 l-63 7 0 -80z"/>
<path d="M3758 4283 c7 -3 16 -2 19 1 4 3 -2 6 -13 5 -11 0 -14 -3 -6 -6z"/>
<path d="M2845 4251 c-55 -23 -115 -130 -115 -205 0 -34 29 -73 37 -49 3 8 12
9 34 1 44 -15 47 -2 9 32 -33 29 -33 29 -20 75 16 55 45 95 70 95 27 0 32 -15
22 -53 -7 -24 -6 -34 2 -34 6 0 18 -2 26 -4 11 -3 17 9 24 45 16 79 -25 124
-89 97z"/>
<path d="M3065 4245 c-29 -15 -75 -62 -75 -77 0 -18 56 -7 68 13 17 26 57 22
57 -6 0 -15 -17 -28 -65 -51 -86 -41 -94 -51 -77 -100 13 -37 15 -38 68 -41
42 -3 57 0 66 14 25 33 16 43 -42 43 -30 0 -55 4 -55 9 0 5 21 17 48 27 70 27
89 41 106 86 20 48 14 71 -20 86 -33 15 -43 15 -79 -3z"/>
<path d="M3274 4253 c-24 -5 -68 -89 -63 -119 2 -11 23 -28 49 -41 50 -24 56
-38 23 -60 -20 -13 -23 -13 -40 6 -10 12 -29 21 -45 21 -25 0 -28 -3 -28 -35
0 -41 20 -55 77 -55 55 0 97 30 118 83 21 56 10 83 -40 93 -46 8 -61 27 -40
48 22 22 42 20 55 -4 6 -11 21 -20 35 -20 31 0 42 33 21 65 -14 21 -24 25 -59
24 -23 -1 -51 -4 -63 -6z"/>
<path d="M4151 4242 c-6 -12 -23 -25 -36 -28 -29 -7 -33 -21 -7 -28 26 -7 328
-19 807 -31 314 -8 351 -12 369 -40 16 -24 66 -143 66 -157 0 -4 -11 -8 -24
-8 -25 0 -62 -28 -51 -38 3 -4 10 0 14 7 7 11 34 12 132 7 68 -4 129 -7 134
-6 98 6 303 5 312 -2 7 -5 14 -5 18 2 8 13 285 14 285 0 0 -5 5 -10 10 -10 6
0 10 17 10 39 0 37 -2 39 -37 45 -21 3 -188 6 -370 6 l-333 0 -14 33 c-43 101
-69 145 -92 156 -29 13 -364 35 -1040 67 -138 7 -142 6 -153 -14z"/>
<path d="M2451 4237 c-6 -8 -22 -43 -35 -78 -14 -35 -26 -59 -27 -54 -1 6 -2
15 -4 20 -1 6 -3 32 -3 59 -2 47 -2 48 -29 42 -34 -9 -48 -25 -69 -85 -9 -25
-25 -67 -35 -93 -24 -60 -24 -70 3 -66 18 2 27 18 48 86 15 45 30 79 33 75 4
-3 7 -29 8 -57 2 -77 11 -101 39 -101 23 0 29 10 67 120 23 66 42 126 42 133
1 16 -24 16 -38 -1z"/>
<path d="M2584 4183 c-84 -98 -82 -96 -89 -125 -7 -28 -7 -28 45 -28 44 0 51
-3 46 -16 -3 -9 -4 -20 0 -25 8 -13 44 9 44 26 0 8 8 15 19 15 11 0 21 9 25
23 9 32 8 37 -8 37 -12 0 -11 11 5 63 11 34 24 70 30 80 8 15 5 17 -25 17 -29
0 -41 -9 -92 -67z m42 -44 c-12 -40 -29 -59 -53 -59 -23 0 -14 23 24 62 20 21
38 38 39 38 1 0 -4 -18 -10 -41z"/>
<path d="M3495 4238 c-17 -46 -85 -254 -85 -260 0 -4 10 -8 23 -8 19 0 27 10
44 58 20 57 20 57 62 58 39 2 42 0 37 -20 -3 -14 1 -25 13 -33 22 -14 28 -5
71 117 30 85 29 105 -6 98 -12 -2 -23 -20 -33 -51 -14 -47 -15 -47 -59 -47
-41 0 -44 2 -38 23 20 68 19 77 -3 77 -12 0 -24 -6 -26 -12z"/>
<path d="M6342 4208 c2 -30 8 -43 18 -43 10 0 16 13 18 43 3 37 1 42 -18 42
-19 0 -21 -5 -18 -42z"/>
<path d="M6084 4149 c-5 -8 -3 -10 6 -4 10 6 12 4 7 -9 -5 -14 -3 -17 8 -12
15 5 20 -10 15 -43 -1 -12 1 -12 13 -3 11 10 16 7 25 -14 15 -31 15 -37 2 -29
-5 3 -10 1 -10 -4 0 -17 30 -13 36 4 4 8 -1 30 -10 49 -9 19 -14 40 -11 48 3
8 -3 13 -17 14 -13 0 -30 4 -39 8 -10 4 -20 2 -25 -5z"/>
<path d="M4595 4140 c-3 -5 -1 -10 4 -10 6 0 11 5 11 10 0 6 -2 10 -4 10 -3 0
-8 -4 -11 -10z"/>
<path d="M4657 4111 c-12 -14 -7 -19 79 -87 26 -20 45 -25 132 -30 99 -6 116
-2 90 24 -9 9 -9 12 0 12 6 0 16 -9 22 -20 8 -15 21 -20 50 -20 l40 0 0 60 c0
33 -1 61 -2 61 -2 1 -92 4 -201 8 -162 5 -201 3 -210 -8z"/>
<path d="M2860 4081 c0 -5 6 -14 14 -20 12 -10 13 -8 9 8 -5 21 -23 30 -23 12z"/>
<path d="M2905 4050 c3 -5 8 -10 11 -10 2 0 4 5 4 10 0 6 -5 10 -11 10 -5 0
-7 -4 -4 -10z"/>
<path d="M2840 4042 c0 -12 19 -26 26 -19 2 2 -2 10 -11 17 -9 8 -15 8 -15 2z"/>
<path d="M3556 4008 c-8 -33 -8 -38 7 -38 9 0 14 12 15 30 1 35 -13 40 -22 8z"/>
<path d="M6222 3980 c0 -19 2 -27 5 -17 2 9 2 25 0 35 -3 9 -5 1 -5 -18z"/>
<path d="M6300 3970 c0 -5 20 -10 45 -10 25 0 45 5 45 10 0 6 -20 10 -45 10
-25 0 -45 -4 -45 -10z"/>
<path d="M2260 3951 c0 -6 -7 -11 -15 -11 -8 0 -15 -4 -15 -8 0 -5 7 -9 15 -9
8 0 15 5 15 10 0 5 5 5 13 -1 7 -6 37 -9 67 -7 30 2 63 4 73 4 9 1 17 6 17 12
0 6 -25 9 -67 8 -38 -2 -76 1 -85 5 -11 5 -18 4 -18 -3z"/>
<path d="M2558 3948 c5 -5 16 -8 23 -6 8 3 3 7 -10 11 -17 4 -21 3 -13 -5z"/>
<path d="M2710 3940 c58 -3 112 -2 120 2 8 4 -39 7 -105 6 l-120 -2 105 -6z"/>
<path d="M1861 3936 c9 -9 359 -14 359 -5 0 5 -79 9 -182 9 -100 0 -179 -2
-177 -4z"/>
<path d="M2960 3920 c0 -19 3 -21 12 -12 9 9 9 15 0 24 -9 9 -12 7 -12 -12z"/>
<path d="M3591 3914 c0 -11 3 -14 6 -6 3 7 2 16 -1 19 -3 4 -6 -2 -5 -13z"/>
<path d="M3791 3902 c1 -15 3 -20 6 -11 4 17 57 15 81 -3 6 -6 12 -6 12 -2 0
5 35 8 78 6 42 -2 88 1 102 7 20 8 5 10 -70 12 -52 1 -105 1 -118 0 -12 -1
-38 2 -57 8 -34 9 -35 8 -34 -17z"/>
<path d="M3710 3908 c0 -5 11 -8 25 -8 14 0 27 0 30 0 3 0 5 3 5 8 0 4 -13 7
-30 7 -16 0 -30 -3 -30 -7z"/>
<path d="M5853 3889 c-7 -7 -109 -9 -292 -7 -154 2 -281 0 -281 -3 0 -21 370
-53 383 -33 3 6 60 6 139 1 134 -8 324 -4 366 9 12 3 22 12 22 20 0 11 -27 12
-143 7 -95 -4 -150 -2 -164 5 -13 8 -23 8 -30 1z"/>
<path d="M6273 3893 c-37 -3 -53 -8 -53 -18 0 -9 8 -12 23 -9 12 2 52 7 90 10
37 4 67 11 67 15 0 9 -22 9 -127 2z"/>
<path d="M2613 3824 c-57 -28 -82 -115 -185 -643 -66 -338 -75 -375 -93 -377
-11 -1 -37 -5 -57 -8 -21 -4 -38 -5 -38 -2 0 2 9 56 20 121 12 65 19 122 17
128 -3 11 -47 -206 -47 -235 0 -9 -4 -19 -8 -22 -8 -5 -163 -23 -407 -47 -131
-12 -619 -39 -624 -33 -2 2 6 27 19 54 18 38 28 49 39 44 31 -13 65 -9 69 8 2
12 -2 15 -17 11 -12 -3 -18 -9 -15 -14 3 -5 0 -9 -6 -9 -6 0 -8 10 -4 27 6 22
4 25 -10 20 -9 -4 -16 -4 -16 -1 0 3 49 103 110 222 60 119 108 218 105 220
-2 2 -36 -60 -76 -139 -101 -203 -128 -252 -152 -271 -12 -9 -21 -27 -22 -40
0 -12 -11 -48 -25 -79 l-25 -56 -65 -2 c-36 0 -135 -5 -220 -9 -85 -5 -162 -5
-171 -1 -9 4 -110 15 -225 24 -115 8 -224 18 -242 21 -33 6 -33 6 -30 -27 3
-29 14 -42 73 -86 154 -115 401 -212 582 -229 l71 -7 11 -37 c6 -21 11 -56 11
-79 0 -24 5 -41 11 -41 8 0 10 21 7 68 -4 53 -2 69 8 72 20 4 244 5 436 2 154
-3 166 -5 171 -23 6 -23 30 -25 51 -3 13 13 37 14 166 8 164 -8 205 -24 60
-24 -75 0 -90 -3 -90 -16 0 -13 15 -15 101 -13 l102 2 13 -29 c11 -22 12 -23
8 -5 -4 17 -3 21 6 16 6 -4 27 1 45 11 32 17 65 12 36 -5 -22 -14 -3 -32 26
-25 23 6 25 5 18 -12 -20 -45 -95 -271 -95 -286 0 -13 8 -18 30 -18 17 0 30 5
30 10 0 6 -6 10 -14 8 -8 -2 -15 2 -15 7 -1 6 35 11 84 13 106 4 113 22 8 21
-43 0 -81 0 -85 0 -10 1 37 133 73 202 29 59 46 78 34 37 -6 -18 -5 -20 11
-12 11 4 40 8 65 9 33 0 45 4 42 13 -8 20 15 14 27 -8 9 -16 8 -20 -5 -20 -14
0 -14 -3 1 -25 9 -14 12 -25 7 -25 -5 0 -8 -14 -5 -30 2 -17 1 -64 -3 -105 -6
-71 -8 -75 -31 -75 -13 0 -24 -4 -24 -10 0 -6 83 -10 228 -10 126 0 263 -3
305 -6 74 -7 75 -7 81 -37 3 -17 5 -31 4 -31 -2 -1 -295 1 -653 4 -357 3 -652
4 -654 3 -2 -2 2 -9 9 -18 10 -12 42 -15 181 -15 157 0 197 -6 174 -28 -4 -4
-10 -1 -12 6 -7 19 -23 14 -33 -10 -7 -18 -9 -19 -9 -5 -1 15 -9 17 -68 13
-38 -2 -92 -5 -122 -5 -48 -1 -52 -3 -40 -17 12 -15 9 -16 -29 -13 -23 3 -43
0 -45 -6 -2 -6 -10 -5 -20 4 -18 14 -27 14 -177 -13 -98 -17 -180 -41 -162
-47 8 -3 5 -9 -8 -16 -17 -11 -18 -10 -13 4 5 14 -1 12 -33 -7 -21 -13 -41
-25 -44 -27 -2 -3 171 -3 385 -1 l389 3 17 50 c13 39 22 50 41 52 12 1 18 0
12 -3 -7 -3 -10 -13 -7 -23 2 -10 -11 -76 -30 -147 -32 -116 -58 -231 -58
-251 0 -4 3 -9 8 -10 11 -4 37 82 37 127 l1 35 120 -2 c66 -2 239 -3 385 -3
l265 -1 -30 -24 c-16 -13 -61 -36 -100 -51 -63 -23 -105 -35 -240 -64 -22 -5
-88 -9 -146 -10 -76 0 -115 -5 -137 -16 -33 -16 -42 -39 -19 -47 6 -2 220 -2
475 1 446 4 462 4 462 -14 0 -18 -19 -19 -482 -21 -807 -3 -851 -3 -913 6 -33
5 -64 6 -70 3 -5 -3 -53 -6 -106 -7 -53 -1 -102 -5 -108 -10 -7 -4 -15 -4 -18
-1 -4 3 0 6 8 7 8 0 -13 6 -46 14 -65 13 -85 11 -85 -11 0 -10 -12 -14 -40
-14 -44 0 -53 -13 -17 -26 12 -4 445 -10 961 -13 l940 -6 19 -70 c10 -38 26
-98 35 -133 18 -69 36 -82 89 -64 23 8 28 14 27 41 -1 17 2 31 8 31 12 0 0 40
-18 61 -9 10 -14 39 -14 77 l0 62 85 0 86 0 -2 -87 c-1 -49 0 -95 4 -103 3 -8
7 -24 9 -34 4 -26 50 -58 71 -50 31 11 45 57 52 165 4 57 8 105 9 106 1 1 158
-1 349 -4 191 -3 346 -8 343 -10 -2 -2 -39 -4 -83 -5 -68 -1 -79 -4 -80 -19
-2 -27 25 -28 132 -2 142 35 189 41 285 38 287 -10 870 -8 870 3 0 4 -14 13
-30 19 -21 8 -28 16 -24 27 8 20 -10 21 -26 1 -10 -12 -16 -13 -26 -4 -11 9
-14 8 -14 -5 0 -17 -16 -22 -22 -7 -2 6 -134 12 -313 15 -298 5 -1286 17
-1332 16 -14 0 -23 6 -23 15 0 12 18 15 98 16 53 1 102 0 107 -1 6 -1 241 -5
523 -7 507 -5 512 -5 512 15 0 21 41 39 61 26 13 -8 41 15 33 28 -9 15 -9 93
1 108 4 7 11 67 14 134 4 66 10 127 15 134 10 16 26 6 26 -16 0 -15 17 -17
182 -15 109 1 189 -2 198 -8 10 -7 -14 -9 -80 -8 -52 2 -139 1 -192 0 l-98 -3
0 -48 c0 -26 7 -85 16 -131 9 -46 14 -100 12 -121 -4 -42 15 -59 67 -59 540
-4 788 -3 791 3 8 13 -39 30 -68 24 -20 -4 -30 -1 -34 9 -7 18 -35 20 -31 3 1
-8 -41 -11 -153 -12 -135 -1 -155 1 -158 15 -2 10 8 21 28 29 17 7 41 26 54
43 29 36 75 44 136 22 52 -18 68 -19 52 -3 -21 21 -13 28 29 28 22 0 84 5 137
10 193 20 289 29 375 36 l88 6 -3 81 -3 81 -180 -2 c-110 -2 -186 1 -195 8
-11 7 1 10 46 10 33 0 122 3 197 7 l137 6 0 62 0 62 -86 7 c-47 3 -141 9 -208
12 -66 3 -161 14 -211 25 -205 44 -297 61 -425 79 -74 11 -195 28 -268 40 -74
11 -136 20 -138 20 -2 0 -4 -11 -4 -25 0 -14 3 -24 8 -24 4 1 34 0 67 -1 50
-1 55 -3 32 -10 -16 -5 -46 -7 -68 -4 -36 4 -39 3 -39 -21 0 -24 2 -25 67 -25
36 0 63 3 59 7 -3 4 -29 6 -56 4 -31 -1 -50 2 -50 8 0 18 251 14 286 -4 16 -8
49 -15 74 -16 49 -1 126 -12 180 -27 40 -11 28 -14 -47 -12 -44 1 -53 -2 -63
-20 l-12 -22 -416 6 c-230 3 -592 9 -807 13 -214 3 -435 6 -490 7 -55 1 -99 4
-97 9 1 4 2 18 2 32 l0 26 130 -2 c74 0 128 -5 124 -10 -3 -5 -17 -9 -32 -9
-23 -1 -25 -2 -9 -11 16 -10 89 -9 779 3 98 2 138 6 138 15 0 8 12 10 38 6 54
-8 64 -23 14 -23 -23 0 -42 -4 -42 -9 0 -5 141 -10 337 -10 212 -1 333 3 327
9 -5 5 -127 10 -281 12 -150 1 -273 6 -273 11 0 5 12 7 27 5 24 -3 28 1 30 26
l2 29 -171 -6 c-145 -6 -176 -4 -204 9 -32 15 -34 18 -28 58 13 86 24 117 50
126 27 11 30 20 12 38 -9 9 -8 12 5 12 9 0 17 5 17 11 0 7 32 9 98 5 181 -10
176 -9 189 -36 13 -25 17 -21 14 13 -1 9 4 17 13 17 9 0 16 -7 16 -15 0 -8 5
-15 11 -15 12 0 3 37 -14 58 -6 8 -11 39 -10 70 1 47 4 57 19 60 130 20 672
136 779 166 28 8 80 23 118 34 39 11 70 16 73 10 3 -5 11 -3 17 6 7 8 32 20
57 26 25 7 87 25 139 42 86 27 96 29 106 14 18 -23 35 -20 35 8 0 18 7 25 30
30 l30 6 0 389 c0 351 -5 434 -24 386 -7 -19 -52 -19 -60 0 -8 23 -26 18 -80
-20 -27 -19 -52 -32 -57 -30 -4 3 -10 1 -14 -5 -3 -5 1 -10 10 -10 9 0 13 -4
10 -10 -3 -5 -17 -10 -30 -10 -13 0 -26 -4 -29 -9 -3 -5 -35 -12 -71 -16 -46
-5 -65 -11 -65 -21 0 -14 -11 -18 -37 -15 -19 3 -16 -16 5 -28 15 -9 15 -10
-5 -11 -12 0 -24 -6 -27 -12 -3 -7 -3 -3 -1 9 6 22 -9 40 -20 24 -3 -6 -12 -8
-20 -4 -9 3 -15 -1 -15 -11 0 -9 4 -16 9 -16 12 0 23 -29 15 -42 -4 -5 -15 7
-25 29 -59 124 -186 159 -277 74 -63 -57 -78 -102 -44 -127 22 -17 32 -17 32
0 0 8 5 27 10 42 l10 26 23 -33 c21 -31 27 -34 66 -31 29 3 41 0 36 -7 -3 -6
-13 -11 -20 -11 -8 0 -22 -14 -30 -30 -9 -17 -20 -28 -26 -25 -5 4 -7 10 -4
15 3 5 0 12 -7 16 -7 4 -10 4 -6 -1 13 -13 -60 -45 -104 -46 -33 0 -38 -2 -23
-9 21 -9 15 -11 -35 -14 -20 -1 -24 -6 -22 -26 1 -14 7 -26 12 -28 6 -2 10 -8
10 -12 0 -5 11 -20 24 -33 18 -19 27 -22 36 -13 8 7 8 3 -1 -11 -13 -21 -29
-22 -29 -2 0 6 -16 26 -35 46 -20 21 -33 29 -29 20 3 -10 1 -17 -5 -17 -6 0
-11 5 -11 11 0 6 -7 3 -16 -5 -8 -9 -24 -16 -35 -16 -10 0 -19 -4 -19 -10 0
-5 -12 -10 -26 -10 -23 0 -25 -2 -13 -16 11 -14 9 -15 -21 -12 -22 2 -35 -2
-38 -11 -4 -11 2 -13 29 -7 19 4 59 10 89 13 71 7 56 -11 -20 -25 -170 -31
-256 -54 -272 -72 -9 -11 -21 -20 -27 -20 -6 0 -11 -4 -11 -9 0 -5 -8 -12 -19
-16 -13 -4 -17 -12 -13 -30 2 -14 0 -25 -5 -25 -15 0 -46 121 -40 162 4 32 2
38 -14 38 -10 0 -19 -7 -19 -15 0 -8 -8 -15 -17 -15 -15 0 -16 -2 -3 -9 8 -6
19 -7 25 -3 5 3 3 -2 -5 -12 -19 -24 -58 -39 -95 -37 -38 2 -24 -13 30 -33 46
-17 39 -18 -88 -16 -62 1 -78 -2 -83 -15 -5 -11 -10 -13 -19 -5 -16 13 -55 -7
-55 -28 0 -7 -4 -10 -10 -7 -5 3 -12 -4 -14 -17 -14 -68 -17 -78 -25 -78 -4 0
-4 21 0 48 49 283 57 364 17 177 -30 -141 -33 -150 -55 -151 -20 -2 -23 2 -18
20 5 18 4 18 -10 -4 l-16 -25 6 35 c3 19 21 122 40 228 18 107 36 196 40 200
3 3 18 8 32 10 15 2 72 15 127 29 56 13 115 24 133 24 17 -1 37 5 45 12 7 8
19 12 26 9 6 -2 33 3 59 11 27 8 122 31 213 51 91 20 194 43 230 51 36 9 101
22 145 30 44 8 157 30 250 49 94 19 230 45 303 57 131 23 149 32 116 59 -12
11 -33 10 -117 -4 -150 -26 -775 -153 -897 -182 -58 -14 -148 -33 -201 -43
-53 -10 -101 -21 -107 -25 -8 -5 -12 4 -12 27 l0 34 -84 7 c-113 8 -116 7
-116 -64 0 -58 0 -59 -27 -56 -16 1 -32 -1 -38 -5 -16 -11 -75 -21 -75 -12 0
4 11 76 25 158 33 199 33 254 -1 294 -14 17 -42 35 -62 40 -20 5 -188 12 -372
16 l-335 7 -13 -42 c-15 -48 -10 -59 15 -39 10 8 14 9 10 2 -6 -9 4 -12 33
-10 29 1 42 6 46 19 6 22 13 22 101 4 37 -7 88 -14 112 -15 24 0 71 -5 105
-11 33 -5 79 -10 100 -10 43 0 42 -11 -1 -15 -185 -17 -219 -23 -206 -35 4 -4
32 -10 61 -13 44 -5 55 -3 72 15 15 17 26 20 56 15 41 -7 55 -21 52 -52 -2
-14 -11 -20 -26 -20 -13 0 -29 -8 -36 -17 -10 -14 -26 -16 -92 -13 -43 2 -92
6 -109 9 -16 4 -43 7 -60 6 -16 0 -60 8 -97 19 -36 11 -69 17 -72 13 -3 -3 -6
2 -6 11 0 13 -7 15 -37 10 -61 -9 -70 -24 -31 -44 18 -10 40 -16 50 -13 9 3
19 0 23 -6 3 -5 -1 -10 -9 -10 -19 0 -22 -20 -3 -20 6 0 46 -5 87 -10 41 -6
149 -12 241 -15 l167 -6 6 26 c8 33 26 23 26 -16 0 -41 11 -36 38 19 16 31 38
56 65 73 65 40 77 42 77 15 0 -20 -7 -25 -37 -30 -67 -12 -72 -16 -78 -54 -4
-20 -14 -59 -23 -87 -9 -27 -16 -64 -17 -82 0 -18 -6 -38 -14 -45 -12 -11 -13
-10 -7 7 7 19 6 19 -10 3 -17 -16 -17 -18 -1 -36 15 -17 16 -21 3 -31 -10 -8
-16 -9 -21 -1 -3 5 -1 10 4 10 6 0 11 5 11 10 0 19 -19 10 -26 -12 -9 -28 -64
-85 -64 -66 0 8 4 18 9 24 5 5 12 20 16 34 10 34 -10 15 -33 -31 -10 -19 -26
-35 -37 -37 -15 -2 -26 -20 -44 -70 -12 -37 -32 -88 -42 -113 -20 -45 -20 -45
-66 -44 -26 0 -48 6 -50 12 -3 7 -11 9 -19 6 -8 -3 -14 1 -14 10 0 9 -5 19
-12 23 -8 5 -9 0 -6 -14 5 -19 2 -22 -23 -22 -27 0 -28 2 -25 33 2 17 4 47 5
65 1 34 31 48 31 15 0 -10 5 -25 11 -33 8 -11 9 -6 5 23 -5 36 -4 37 25 37 28
0 95 32 179 85 35 23 113 96 107 101 -2 2 -32 -5 -68 -15 -35 -11 -55 -20 -44
-21 30 -3 50 1 53 11 2 5 9 9 15 9 6 0 -2 -13 -18 -30 -21 -22 -34 -28 -51
-24 -31 8 -93 -14 -121 -42 -13 -13 -32 -24 -41 -24 -13 1 -11 5 8 16 24 15
23 15 -25 10 -27 -3 -68 -9 -89 -12 -36 -6 -39 -5 -32 11 7 18 6 18 -12 1 -24
-21 -72 -12 -72 13 0 14 -2 14 -10 1 -5 -8 -10 -25 -10 -38 0 -23 2 -23 73
-18 39 4 90 9 112 12 61 8 22 -12 -49 -25 -33 -6 -61 -13 -63 -15 -3 -2 14 -7
37 -11 40 -7 41 -7 35 -43 -16 -98 -8 -89 -88 -94 -40 -2 -74 0 -75 4 -2 5
-11 3 -20 -4 -9 -8 -42 -13 -83 -13 -41 0 -68 -4 -66 -10 2 -11 13 -13 105
-14 39 -1 61 -5 57 -11 -3 -5 -35 -10 -71 -10 -35 0 -64 -3 -64 -7 0 -5 57 -6
126 -4 134 3 154 -2 135 -38 -17 -31 -1 -25 30 12 22 26 30 30 40 20 11 -11
10 -13 -1 -13 -8 0 -25 -12 -38 -27 -30 -35 -51 -37 -58 -7 -3 13 -10 24 -16
24 -5 0 -7 -4 -4 -9 5 -8 -41 -23 -104 -35 -14 -3 5 -3 43 -2 65 4 97 -7 60
-21 -10 -3 -31 -17 -46 -30 -16 -13 -36 -23 -45 -22 -14 0 -13 2 3 9 14 6 2 9
-43 9 -52 1 -65 -3 -80 -20 -33 -40 -44 -49 -53 -44 -14 10 -10 37 7 50 15 11
15 14 1 36 -8 13 -18 47 -21 74 -3 28 -10 69 -15 93 -6 32 -5 42 5 42 7 0 16
-4 19 -10 13 -22 31 -7 53 43 26 60 28 81 6 52 l-16 -20 5 20 c4 11 9 32 13
47 3 16 10 26 14 23 5 -3 11 -1 14 4 3 5 -4 11 -15 14 -18 5 -20 11 -15 39 4
18 8 41 9 50 1 9 5 14 10 11 4 -3 7 -16 5 -28 -6 -46 17 -24 30 27 7 29 26
104 43 166 17 63 29 116 26 118 -2 3 -12 -22 -21 -55 -9 -33 -21 -63 -26 -66
-6 -4 -10 -15 -10 -26 0 -23 -28 -69 -42 -69 -16 0 -36 -25 -40 -51 -3 -21 -7
-19 -45 30 -36 45 -41 57 -36 84 4 18 12 38 20 45 7 8 10 19 6 25 -15 24 18
167 38 167 5 0 9 5 9 10 0 6 -6 10 -14 10 -19 0 -9 44 16 67 11 10 42 20 71
23 61 6 73 26 20 32 -53 6 -105 -7 -125 -32 -23 -28 -43 -102 -64 -235 -10
-60 -19 -112 -21 -114 -2 -3 -21 6 -43 18 -25 14 -40 18 -40 10 0 -8 -4 -9
-13 0 -16 12 -60 6 -66 -10 -1 -5 -14 -14 -27 -19 -13 -5 -38 -31 -54 -57 -17
-26 -30 -45 -30 -42 0 3 15 81 34 174 50 246 51 256 29 284 -23 28 -103 43
-103 18 0 -9 8 -18 18 -20 16 -4 16 -5 0 -6 -11 -1 -18 -9 -18 -20 0 -14 -8
-21 -27 -24 -25 -4 -25 -4 6 -6 25 -1 32 -5 27 -16 -5 -15 -1 -16 49 -19 23
-1 23 3 0 -96 -24 -106 -45 -170 -56 -170 -5 0 -9 -12 -8 -27 l1 -28 9 25 c6
18 8 10 5 -30 -5 -65 -32 -154 -52 -171 -8 -6 -14 -20 -14 -29 0 -29 -11 -50
-26 -50 -8 0 -14 -1 -15 -2 -6 -31 -9 -88 -5 -88 3 0 14 10 25 21 11 12 26 19
35 16 9 -4 20 1 25 11 10 16 10 16 11 0 0 -9 -11 -34 -25 -54 -14 -21 -28 -49
-32 -63 -3 -14 -9 -30 -13 -36 -5 -5 -14 -30 -20 -55 -17 -62 -26 -35 -33 102
-6 114 -15 147 -29 109 -5 -15 -12 -20 -20 -14 -7 4 -20 8 -28 8 -20 0 -27 45
-7 45 9 0 18 -6 20 -12 3 -8 6 -5 6 5 1 13 7 17 24 15 20 -3 23 3 31 59 5 34
5 70 1 80 -4 10 -7 28 -6 41 3 31 -8 27 -20 -7 -8 -22 -18 -31 -44 -35 -19 -4
-39 -14 -44 -23 -7 -13 -11 -2 -16 42 -9 75 -24 105 -26 55 -1 -19 -1 -42 -1
-50 1 -8 -3 -33 -9 -55 -8 -30 -18 -44 -40 -54 -16 -7 -29 -19 -29 -27 0 -8
-22 -37 -49 -64 -27 -27 -52 -57 -55 -67 -3 -10 -22 -36 -42 -58 l-36 -40 7
50 c3 28 11 55 16 60 7 7 9 5 5 -5 -12 -41 -15 -70 -7 -70 6 0 13 17 16 38 3
20 8 47 11 60 5 26 -12 30 -20 5 -9 -29 1 30 40 242 21 110 43 205 49 210 7 6
10 24 7 43 -8 59 18 181 47 215 l25 30 138 -6 c112 -5 138 -4 138 7 0 28 -233
36 -287 10z m1713 -60 c19 -9 34 -20 34 -25 0 -12 -2 -12 -36 5 -18 9 -65 16
-121 17 -129 4 -141 19 -15 19 75 0 113 -4 138 -16z m39 -185 c-1 -18 -9 -36
-20 -41 -9 -6 -26 -19 -36 -29 -31 -31 -19 2 25 68 26 41 33 41 31 2z m1342
-25 c-3 -3 -12 -4 -19 -1 -8 3 -5 6 6 6 11 1 17 -2 13 -5z m387 -75 c-7 -12
-44 -12 -44 0 0 5 6 11 13 14 17 6 38 -3 31 -14z m-2843 -46 c13 -16 12 -17
-3 -4 -17 13 -22 21 -14 21 2 0 10 -8 17 -17z m-131 -12 c0 -5 -7 -11 -15 -15
-15 -5 -20 5 -8 17 9 10 23 9 23 -2z m2393 -48 c-7 -2 -19 -2 -25 0 -7 3 -2 5
12 5 14 0 19 -2 13 -5z m-93 -7 c0 -2 -7 -6 -15 -10 -8 -3 -15 -1 -15 4 0 6 7
10 15 10 8 0 15 -2 15 -4z m-1096 -63 c-4 -21 -16 -51 -27 -67 -16 -23 -18
-32 -9 -47 26 -41 6 -68 -21 -29 -8 11 -16 18 -19 15 -3 -3 1 25 10 62 9 45
22 74 36 85 31 26 38 22 30 -19z m-64 -7 c0 -3 -4 -8 -10 -11 -5 -3 -10 -1
-10 4 0 6 5 11 10 11 6 0 10 -2 10 -4z m-908 -46 c6 0 5 -7 -3 -16 -12 -15
-14 -14 -20 7 -3 13 -3 31 0 39 4 11 7 9 9 -7 2 -13 8 -23 14 -23z m1025 18
c-3 -8 -6 -5 -6 6 -1 11 2 17 5 13 3 -3 4 -12 1 -19z m-1624 -58 c3 -11 1 -20
-4 -20 -5 0 -9 9 -9 20 0 11 2 20 4 20 2 0 6 -9 9 -20z m442 -61 c-38 -54 -42
-49 -8 11 15 27 30 45 32 39 1 -5 -9 -28 -24 -50z m895 52 c0 -5 -6 -14 -14
-20 -12 -10 -13 -8 -9 8 5 21 23 30 23 12z m137 -66 c-9 -6 -19 -23 -22 -38
-4 -15 -13 -27 -20 -27 -8 0 -15 -12 -17 -27 -2 -20 -8 -27 -20 -25 -20 3 -24
-14 -5 -21 6 -3 2 -4 -10 -4 -13 1 -23 3 -23 5 0 17 47 99 75 129 19 21 35 43
35 48 0 6 6 1 12 -9 8 -15 7 -22 -5 -31z m-890 3 c-3 -7 -5 -2 -5 12 0 14 2
19 5 13 2 -7 2 -19 0 -25z m-657 -9 c0 -5 -4 -9 -10 -9 -5 0 -10 7 -10 16 0 8
5 12 10 9 6 -3 10 -10 10 -16z m2790 5 c0 -8 -5 -12 -10 -9 -6 4 -8 11 -5 16
9 14 15 11 15 -7z m-103 -5 c8 -8 20 -9 42 -1 25 9 31 8 31 -2 0 -22 -55 -25
-82 -4 -13 9 -18 18 -12 18 5 0 15 -5 21 -11z m-1348 -68 c-6 -18 -14 -30 -17
-27 -2 3 1 19 8 36 7 17 14 29 16 27 2 -2 -1 -18 -7 -36z m-983 1 c-18 -16
-18 -16 -6 6 6 13 14 21 18 18 3 -4 -2 -14 -12 -24z m50 -27 c-27 -41 -38 -28
-14 15 15 25 24 34 26 24 2 -8 -4 -26 -12 -39z m1175 -28 c-18 -38 -32 -86
-45 -157 -3 -14 -3 2 -1 35 3 58 54 202 63 176 2 -6 -5 -30 -17 -54z m1079 53
c0 -5 -2 -10 -4 -10 -3 0 -8 5 -11 10 -3 6 -1 10 4 10 6 0 11 -4 11 -10z m46
-60 c-14 -22 -29 -40 -32 -40 -4 0 0 10 8 23 8 12 20 33 27 45 7 13 15 21 18
18 3 -3 -6 -24 -21 -46z m64 36 c-7 -7 -14 -6 -21 1 -9 9 -7 12 9 10 14 -1 18
-5 12 -11z m-2410 -15 c-5 -11 -15 -23 -22 -27 -7 -5 -8 -2 -3 7 21 37 44 55
25 20z m2187 -13 c-3 -8 -6 -5 -6 6 -1 11 2 17 5 13 3 -3 4 -12 1 -19z m-2248
-44 c-10 -13 -10 -17 0 -24 9 -5 10 -9 2 -14 -6 -4 -9 -10 -7 -14 2 -4 -16
-19 -40 -34 -24 -15 -44 -24 -44 -20 0 4 15 28 34 55 18 26 40 62 47 80 13 29
14 30 17 9 2 -13 -2 -30 -9 -38z m951 6 c0 -5 -10 -10 -22 -10 -19 0 -20 2 -8
10 19 13 30 13 30 0z m-584 -77 c-2 -3 -13 0 -24 6 -12 6 -38 11 -59 12 -21 0
-31 3 -23 6 8 4 21 14 27 24 8 10 21 15 33 12 13 -3 20 0 21 8 0 8 7 -4 15
-25 8 -22 12 -41 10 -43z m301 71 c-3 -3 -12 -4 -19 -1 -8 3 -5 6 6 6 11 1 17
-2 13 -5z m63 -4 c0 -5 -2 -10 -4 -10 -3 0 -8 5 -11 10 -3 6 -1 10 4 10 6 0
11 -4 11 -10z m150 -2 c0 -15 -18 -17 -36 -3 -18 14 -17 14 9 13 15 -1 27 -6
27 -10z m266 -2 c3 -8 -3 -29 -13 -48 l-18 -33 -3 33 c-2 19 -1 40 2 48 7 18
25 18 32 0z m1366 -18 c-8 -8 -9 -4 -5 13 4 13 8 18 11 10 2 -7 -1 -18 -6 -23z
m-1239 -30 c-3 -18 -10 -37 -15 -43 -7 -7 -8 -1 -3 15 3 14 9 33 11 43 9 29
14 19 7 -15z m1158 9 c-10 -9 -11 -8 -5 6 3 10 9 15 12 12 3 -3 0 -11 -7 -18z
m-2978 -2 c4 -8 2 -17 -3 -20 -6 -4 -10 3 -10 14 0 25 6 27 13 6z m1457 5 c0
-5 12 -10 27 -10 19 0 24 -3 17 -10 -7 -7 -19 -8 -37 -1 -26 10 -37 31 -17 31
6 0 10 -4 10 -10z m-1320 -36 c0 -14 -5 -24 -11 -22 -6 2 -10 7 -10 11 1 4 1
14 1 22 0 8 5 15 10 15 6 0 10 -12 10 -26z m257 -10 c-7 -7 -37 7 -37 17 0 6
9 5 21 -1 11 -7 19 -14 16 -16z m2483 6 c0 -5 -2 -10 -4 -10 -3 0 -8 5 -11 10
-3 6 -1 10 4 10 6 0 11 -4 11 -10z m-43 -22 c-3 -8 -6 -5 -6 6 -1 11 2 17 5
13 3 -3 4 -12 1 -19z m-1497 -8 c0 -5 -5 -10 -11 -10 -5 0 -7 5 -4 10 3 6 8
10 11 10 2 0 4 -4 4 -10z m30 -20 c0 -5 -4 -10 -10 -10 -5 0 -10 5 -10 10 0 6
5 10 10 10 6 0 10 -4 10 -10z m42 -25 c-3 -18 -11 -25 -28 -25 -32 0 -30 16 4
34 15 8 28 15 28 16 1 0 -1 -11 -4 -25z m-102 0 c8 -9 9 -15 2 -15 -6 0 -14 5
-17 10 -9 15 -42 12 -59 -6 -9 -8 -16 -12 -16 -7 0 32 68 45 90 18z m-210 -15
c0 -5 -13 -10 -29 -10 -16 0 -36 -3 -45 -6 -9 -3 -16 -1 -16 4 0 12 22 19 63
21 15 0 27 -3 27 -9z m690 -13 c0 -7 -7 -22 -15 -33 -12 -16 -14 -17 -15 -2 0
23 11 48 21 48 5 0 9 -6 9 -13z m-265 -7 c3 -5 1 -10 -4 -10 -6 0 -11 5 -11
10 0 6 2 10 4 10 3 0 8 -4 11 -10z m550 -4 c36 -5 24 -16 -18 -16 -51 0 -77 7
-77 22 0 6 16 7 40 3 22 -4 47 -8 55 -9z m-1805 -13 c2 -2 -28 -3 -68 -1 -39
1 -66 5 -59 10 11 7 117 0 127 -9z m1610 7 c0 -5 -4 -10 -10 -10 -5 0 -10 5
-10 10 0 6 5 10 10 10 6 0 10 -4 10 -10z m29 -2 c0 -7 -7 -29 -14 -48 -12 -31
-14 -32 -14 -10 -1 34 9 70 20 70 5 0 9 -6 8 -12z m216 2 c3 -5 1 -10 -4 -10
-6 0 -11 5 -11 10 0 6 2 10 4 10 3 0 8 -4 11 -10z m-2212 -49 c-5 -46 -3 -52
26 -82 l32 -31 99 4 c55 2 100 0 100 -4 0 -4 -8 -8 -17 -8 -104 -3 -171 -1
-183 4 -8 3 -28 4 -45 3 -16 -2 -36 3 -44 11 -11 11 -15 11 -22 0 -18 -28 -29
8 -22 74 6 66 6 67 37 71 17 2 34 5 38 5 4 1 4 -20 1 -47z m1930 1 c-7 -7 -13
-18 -13 -23 0 -5 -4 -9 -10 -9 -15 0 -12 16 5 34 8 8 15 23 16 33 0 16 1 16 8
-2 5 -12 3 -25 -6 -33z m-2023 -12 c-6 -19 -10 -47 -10 -62 0 -16 -4 -28 -10
-28 -5 0 -10 -10 -10 -22 0 -12 -2 -19 -5 -16 -6 6 14 158 22 171 13 21 22
-11 13 -43z m2174 24 c-8 -96 -26 -124 -23 -36 1 41 6 61 13 59 6 -2 10 -13
10 -23z m-2210 -6 c-4 -13 -13 -50 -19 -83 -7 -33 -13 -49 -14 -35 -1 22 -3
23 -12 7 -7 -12 -15 -15 -22 -9 -7 5 -48 9 -92 10 -44 1 -101 4 -126 7 -29 4
-49 3 -54 -4 -3 -6 0 -11 7 -12 7 -1 -3 -5 -22 -9 -39 -9 -64 -1 -34 11 10 4
-8 5 -41 2 -33 -3 -66 -10 -72 -15 -9 -7 -15 -5 -19 6 -5 12 -16 15 -40 12
-19 -2 -37 -6 -41 -10 -3 -3 -12 -1 -19 4 -6 6 -35 13 -63 17 -44 5 -51 3 -51
-11 0 -13 -7 -17 -27 -16 -66 5 -124 0 -118 -10 3 -5 -1 -10 -9 -10 -9 0 -16
5 -16 10 0 6 -9 10 -21 10 -13 0 -18 -4 -13 -12 5 -8 2 -9 -9 -5 -12 4 -17 1
-17 -11 0 -12 -8 -8 -30 16 -16 18 -31 40 -31 48 -1 8 -2 20 -3 26 -1 10 77
17 314 31 173 9 396 25 495 36 247 25 228 25 219 -1z m2631 -8 c-3 -5 -26 -8
-53 -8 -43 0 -45 1 -24 12 24 13 85 10 77 -4z m-991 4 c9 -3 16 -10 16 -15 0
-14 -48 -11 -53 4 -4 8 -8 9 -14 1 -4 -5 -30 -11 -58 -12 -46 -1 -48 0 -31 13
20 15 110 21 140 9z m-464 -32 c-25 -4 -35 2 -26 17 5 7 13 7 27 -2 20 -12 20
-12 -1 -15z m-690 -18 c24 -12 22 -13 -32 -15 -32 -2 -72 -3 -88 -4 -17 -1
-33 2 -36 7 -3 4 -25 8 -49 8 -47 0 -75 7 -75 20 0 14 252 -1 280 -16z m1660
16 c0 -5 -2 -10 -4 -10 -3 0 -8 5 -11 10 -3 6 -1 10 4 10 6 0 11 -4 11 -10z
m-3192 -50 l1 -31 -20 23 c-20 23 -20 23 -14 1 5 -18 2 -20 -15 -16 -15 4 -18
9 -10 18 14 17 -37 30 -56 14 -11 -9 -14 -8 -14 4 0 12 13 17 58 19 31 2 60 2
63 1 3 -1 6 -16 7 -33z m1612 30 c0 -5 -7 -10 -16 -10 -8 0 -12 5 -9 10 3 6
10 10 16 10 5 0 9 -4 9 -10z m-1969 -10 c5 0 8 -3 8 -7 -4 -27 3 -45 15 -40 9
4 14 0 14 -11 -1 -9 2 -28 6 -42 6 -23 6 -23 -5 -5 -7 11 -28 42 -47 69 -23
33 -29 47 -17 43 9 -4 21 -7 26 -7z m181 -4 c13 -19 -3 -26 -58 -26 -34 0 -54
4 -54 12 0 6 -2 9 -5 6 -3 -3 -3 -13 1 -22 5 -13 14 -15 34 -11 16 3 31 1 35
-4 4 -7 -4 -11 -19 -11 -23 0 -31 -9 -27 -32 0 -4 -6 -5 -14 -2 -8 4 -12 10
-9 15 3 5 -8 22 -24 37 -16 15 -27 32 -25 38 5 14 155 14 165 0z m38 0 c0 -8
-4 -18 -10 -21 -5 -3 -10 3 -10 14 0 12 5 21 10 21 6 0 10 -6 10 -14z m1860
-16 c0 -18 -44 -33 -91 -31 -25 1 -59 -6 -75 -14 -34 -17 -44 -19 -44 -6 0 5
10 12 23 15 12 2 -2 3 -30 2 -29 -2 -53 1 -53 5 0 5 48 9 108 9 72 0 115 5
132 14 14 8 26 14 28 15 1 1 2 -3 2 -9z m790 2 c0 -8 -67 -12 -242 -15 -109
-2 -117 11 -10 15 202 8 252 8 252 0z m113 1 c-18 -2 -48 -2 -65 0 -18 2 -4 4
32 4 36 0 50 -2 33 -4z m-563 -24 c0 -6 -7 -12 -15 -15 -8 -4 -13 -10 -10 -15
3 -4 -3 -13 -14 -18 -23 -13 -44 7 -39 36 5 28 78 39 78 12z m890 2 c0 -19 -6
-21 -65 -21 -36 0 -65 -3 -65 -7 0 -5 30 -8 67 -8 61 0 68 -2 68 -20 0 -18 -8
-20 -92 -23 -77 -2 -93 0 -93 12 0 8 5 18 11 22 8 4 8 9 0 17 -16 16 -13 35 7
39 9 3 50 5 90 7 67 2 72 1 72 -18z m-1005 0 c-11 -5 -27 -6 -35 -4 -11 3 -10
1 3 -10 24 -20 21 -30 -8 -23 -18 5 -30 1 -41 -13 -10 -11 -22 -17 -29 -15 -7
3 -15 -2 -18 -10 -5 -12 1 -16 26 -17 18 -1 35 -1 40 0 4 0 7 -4 7 -10 0 -7
-10 -9 -25 -5 -23 6 -24 5 -13 -13 20 -33 132 -46 150 -18 6 9 8 9 8 0 0 -7
10 -13 23 -14 12 -1 2 -5 -23 -11 -51 -10 -209 -1 -227 14 -6 5 -14 27 -18 49
-6 34 -3 42 17 59 12 11 28 19 33 19 6 0 0 -8 -12 -18 -30 -25 -29 -36 0 -16
13 8 26 12 30 9 3 -4 4 5 1 20 -5 30 12 35 33 9 13 -17 14 -16 8 5 -6 21 -3
22 42 21 34 0 42 -3 28 -8z m-209 -37 c-4 -12 -10 -14 -17 -7 -5 5 -7 17 -3
27 4 12 10 14 17 7 5 -5 7 -17 3 -27z m1274 26 c0 -5 -4 -10 -10 -10 -5 0 -10
5 -10 10 0 6 5 10 10 10 6 0 10 -4 10 -10z m-2986 -26 c3 -8 2 -12 -4 -9 -6 3
-10 10 -10 16 0 14 7 11 14 -7z m1191 6 c3 -5 1 -10 -4 -10 -6 0 -11 5 -11 10
0 6 2 10 4 10 3 0 8 -4 11 -10z m955 -41 c0 -6 -4 -7 -10 -4 -5 3 -10 11 -10
16 0 6 5 7 10 4 6 -3 10 -11 10 -16z m-2053 5 c-3 -3 -12 -4 -19 -1 -8 3 -5 6
6 6 11 1 17 -2 13 -5z m2053 -49 c-7 -8 -16 -15 -21 -15 -5 0 -1 9 8 20 9 11
19 17 21 15 3 -3 -1 -11 -8 -20z m-415 -27 c4 -18 7 -36 6 -40 0 -4 -3 -22 -5
-40 -12 -84 -17 -98 -37 -88 -10 6 -29 10 -43 10 -22 0 -26 -4 -26 -30 0 -27
3 -30 30 -30 21 0 30 5 30 16 0 8 5 12 10 9 8 -5 8 -11 0 -20 -6 -7 -15 -64
-21 -126 -5 -62 -11 -114 -12 -116 -2 -1 -87 -3 -190 -4 -103 0 -190 -5 -193
-10 -3 -5 80 -9 195 -9 136 0 201 -3 201 -11 0 -7 -69 -9 -223 -7 -278 4 -271
1 -275 116 -3 74 -2 81 18 92 15 8 18 15 11 23 -6 8 -5 18 3 30 12 15 33 17
190 17 l177 0 -18 30 -18 31 -178 -3 c-173 -3 -178 -2 -175 17 3 19 9 20 153
16 83 -2 160 -7 173 -12 31 -12 144 -11 176 1 25 9 25 10 19 90 -4 52 -2 80 4
80 6 0 14 -15 18 -32z m342 -4 c-3 -3 -12 -4 -19 -1 -8 3 -5 6 6 6 11 1 17 -2
13 -5z m-1187 -136 c-36 -29 -69 -33 -85 -12 -8 11 -15 22 -15 25 0 3 28 6 62
6 61 0 61 0 38 -19z m260 -18 c0 -44 -14 -53 -25 -17 -4 13 -8 17 -12 10 -6
-16 -23 -17 -23 -1 0 16 31 48 47 48 9 0 13 -13 13 -40z m2077 -10 c-9 -24
-13 -27 -18 -14 -5 16 -26 17 -200 17 l-194 -1 175 13 c96 7 189 15 205 17 42
5 45 2 32 -32z m134 23 l34 -18 -54 -3 c-59 -3 -66 0 -58 23 8 20 36 19 78 -2z
m216 -8 c0 -8 -4 -12 -9 -9 -5 3 -6 10 -3 15 9 13 12 11 12 -6z m-1030 -11
c-3 -3 -12 -4 -19 -1 -8 3 -5 6 6 6 11 1 17 -2 13 -5z m108 -4 c3 -5 1 -10 -4
-10 -6 0 -11 5 -11 10 0 6 2 10 4 10 3 0 8 -4 11 -10z m890 -50 c3 -5 2 -10
-4 -10 -5 0 -13 5 -16 10 -3 6 -2 10 4 10 5 0 13 -4 16 -10z m-1235 -20 c23 0
51 -38 91 -124 37 -79 50 -92 78 -76 26 13 26 22 1 45 -11 10 -17 22 -14 27 4
5 20 -7 36 -27 39 -46 47 -39 13 11 -17 24 -24 46 -21 60 4 13 0 27 -9 34 -7
6 -11 18 -8 26 3 8 0 21 -7 29 -11 13 -5 15 39 15 48 0 52 -2 75 -39 14 -22
29 -42 35 -45 16 -11 0 32 -20 50 -10 9 -19 20 -19 23 0 7 578 3 599 -5 11 -4
10 -7 -5 -18 -15 -12 -16 -16 -5 -30 10 -12 11 -23 2 -47 -6 -18 -11 -42 -11
-55 0 -12 -4 -24 -8 -26 -4 -1 -15 -21 -23 -43 -8 -22 -21 -41 -29 -41 -8 -1
-19 -3 -25 -4 -5 -1 -13 -2 -17 -1 -4 0 -113 1 -243 2 -139 0 -233 4 -229 10
3 5 105 9 230 9 143 0 224 4 224 10 0 6 -49 10 -127 10 -104 0 -130 3 -145 17
-17 15 -18 15 -18 -1 0 -14 -11 -17 -75 -15 -49 1 -79 6 -86 15 -14 17 -36 18
-41 3 -2 -7 -41 -14 -100 -17 -89 -4 -96 -3 -110 17 -15 22 -15 22 -21 1 -11
-42 -24 -17 -31 57 -7 87 -7 174 1 156 2 -7 13 -13 23 -13z m50 9 c0 -7 11 -9
31 -5 25 5 30 3 27 -11 -2 -9 -11 -21 -21 -27 -14 -9 -20 -7 -28 6 -5 9 -16
24 -25 33 -14 13 -14 15 0 15 9 0 16 -5 16 -11z m84 -154 c3 -8 11 -14 18 -13
6 2 14 -5 16 -14 2 -10 -1 -18 -7 -18 -12 0 -51 40 -51 52 0 14 18 9 24 -7z
m-454 -65 c0 -5 -4 -10 -10 -10 -5 0 -10 5 -10 10 0 6 5 10 10 10 6 0 10 -4
10 -10z m499 -41 c-16 -11 -199 -9 -199 2 0 12 26 14 123 11 61 -2 86 -7 76
-13z m-484 1 c-3 -5 -13 -10 -21 -10 -8 0 -14 5 -14 10 0 6 9 10 21 10 11 0
17 -4 14 -10z m548 3 c-7 -2 -19 -2 -25 0 -7 3 -2 5 12 5 14 0 19 -2 13 -5z
m1345 0 c-16 -2 -40 -2 -55 0 -16 2 -3 4 27 4 30 0 43 -2 28 -4z m-481 -29
c-3 -3 -12 -4 -19 -1 -8 3 -5 6 6 6 11 1 17 -2 13 -5z m40 0 c-3 -3 -12 -4
-19 -1 -8 3 -5 6 6 6 11 1 17 -2 13 -5z m50 0 c-3 -3 -12 -4 -19 -1 -8 3 -5 6
6 6 11 1 17 -2 13 -5z m516 -1 c-7 -2 -21 -2 -30 0 -10 3 -4 5 12 5 17 0 24
-2 18 -5z m64 1 c-3 -3 -12 -4 -19 -1 -8 3 -5 6 6 6 11 1 17 -2 13 -5z m-2063
-30 c15 -38 7 -50 -29 -46 -31 4 -35 8 -35 33 0 25 4 29 29 29 17 0 31 -6 35
-16z m2469 -51 c-7 -2 -19 -2 -25 0 -7 3 -2 5 12 5 14 0 19 -2 13 -5z m157
-19 l25 -15 -25 7 c-14 3 -32 10 -40 15 -13 7 -13 8 0 8 8 0 26 -6 40 -15z
m-3795 -24 c3 -5 1 -10 -4 -10 -6 0 -11 5 -11 10 0 6 2 10 4 10 3 0 8 -4 11
-10z m62 4 c-3 -3 -12 -4 -19 -1 -8 3 -5 6 6 6 11 1 17 -2 13 -5z m50 0 c-3
-3 -12 -4 -19 -1 -8 3 -5 6 6 6 11 1 17 -2 13 -5z m753 -24 c0 -5 -7 -7 -15
-4 -8 4 -12 10 -9 15 6 11 24 2 24 -11z m-1215 -10 c3 -5 1 -10 -4 -10 -6 0
-11 5 -11 10 0 6 2 10 4 10 3 0 8 -4 11 -10z m123 3 c-10 -2 -28 -2 -40 0 -13
2 -5 4 17 4 22 1 32 -1 23 -4z m249 -15 c-3 -8 -6 -5 -6 6 -1 11 2 17 5 13 3
-3 4 -12 1 -19z m3250 -18 c29 -23 53 -46 53 -52 0 -9 -3 -9 -12 0 -7 7 -30
12 -52 12 -37 0 -38 -1 -20 -14 10 -8 29 -12 42 -9 12 3 22 1 22 -6 0 -6 -8
-8 -17 -4 -16 6 -16 4 -5 -9 11 -14 10 -18 -8 -28 -22 -12 -50 1 -50 23 0 5 9
2 20 -8 12 -11 20 -13 20 -6 0 15 -60 51 -86 51 -11 0 -29 9 -38 19 -10 11
-34 28 -54 38 l-37 18 45 6 c105 14 120 11 177 -31z m-3947 -14 c0 -3 -4 -8
-10 -11 -5 -3 -10 -1 -10 4 0 6 5 11 10 11 6 0 10 -2 10 -4z m-80 -36 c0 -5
-2 -10 -4 -10 -3 0 -8 5 -11 10 -3 6 -1 10 4 10 6 0 11 -4 11 -10z m4440 -9
c45 -8 45 -9 10 -12 -19 -1 -44 -2 -55 -1 -11 1 -56 3 -100 4 -69 1 -74 2 -35
8 63 10 128 10 180 1z m-1365 -22 c-42 -8 -86 -2 -67 10 6 3 32 4 59 2 l48 -5
-40 -7z m420 11 c-7 -11 -365 -13 -365 -2 0 4 83 8 185 9 114 1 183 -2 180 -7z
m689 0 c-6 -6 -21 -6 -39 -1 -30 9 -30 9 10 10 25 1 36 -2 29 -9z m-2568 -11
c2 -4 12 -5 22 -2 9 3 14 2 9 -2 -7 -9 -36 -10 -357 -19 -102 -3 -276 -8 -387
-11 -111 -4 -208 -3 -215 1 -27 18 94 25 476 30 215 2 391 6 393 8 7 7 54 3
59 -5z m714 -1 c0 -5 -36 -8 -80 -8 -44 0 -80 4 -80 8 0 4 36 8 80 8 44 -1 80
-4 80 -8z m475 2 l20 -9 -20 0 c-11 0 -27 4 -35 9 -13 9 -13 10 0 9 8 0 24 -4
35 -9z m55 6 c0 -2 -7 -7 -16 -10 -8 -3 -12 -2 -9 4 6 10 25 14 25 6z m126 -4
c-5 -8 -106 -5 -115 3 -2 3 24 5 58 5 34 0 60 -4 57 -8z m-1071 -12 c3 -5 -1
-10 -10 -10 -9 0 -13 5 -10 10 3 6 8 10 10 10 2 0 7 -4 10 -10z m628 3 c-13
-2 -35 -2 -50 0 -16 2 -5 4 22 4 28 0 40 -2 28 -4z m1562 -7 c18 4 23 2 22
-13 -2 -14 4 -18 28 -16 31 3 110 -43 107 -62 -1 -5 -39 -11 -84 -12 -82 -3
-84 -2 -122 32 -25 22 -34 35 -23 35 8 0 22 -7 31 -15 16 -17 36 -20 36 -6 0
5 -11 12 -25 15 -34 9 -32 28 3 21 25 -5 26 -5 4 5 -15 6 -20 14 -16 22 6 9 9
9 12 0 2 -7 13 -10 27 -6z m-2445 -242 l0 -74 -225 0 c-185 0 -225 2 -225 14
0 8 31 24 83 40 45 14 107 41 137 60 51 31 61 34 143 34 l87 0 0 -74z m336 20
c-3 -26 -6 -59 -6 -73 l0 -26 -82 2 c-44 2 -83 5 -86 7 -6 7 -4 94 3 117 6 17
17 19 92 19 l86 0 -7 -46z m639 22 c138 0 306 2 375 4 69 1 188 -1 265 -5
l140 -8 -150 -39 c-82 -21 -157 -40 -165 -42 -90 -25 -112 -26 -126 -9 -13 17
-13 17 -14 -2 0 -20 -6 -20 -302 -18 -167 1 -308 2 -314 3 -7 0 -15 10 -19 23
l-7 22 -7 -24 c-6 -21 -11 -23 -71 -23 -54 0 -65 2 -64 16 0 9 1 39 2 66 l2
51 103 -8 c56 -4 215 -8 352 -7z m1358 -38 c-26 -29 -67 -48 -103 -48 -19 0
-30 -5 -30 -14 0 -20 -89 -34 -100 -16 -5 7 -10 8 -14 2 -7 -11 -136 -13 -136
-2 0 8 16 12 95 30 22 5 74 18 115 30 185 53 207 55 173 18z m-3194 -112 c-2
-2 -18 -8 -34 -11 -21 -5 -27 -4 -20 3 6 5 19 12 30 14 20 4 32 1 24 -6z m491
4 c0 -5 -6 -10 -14 -10 -8 0 -21 -3 -30 -6 -9 -3 -16 -1 -16 4 0 10 19 18 48
21 6 0 12 -3 12 -9z m120 0 c-8 -5 -22 -10 -30 -10 -13 0 -13 1 0 10 8 5 22
10 30 10 13 0 13 -1 0 -10z m590 -55 c0 -22 -3 -24 -19 -15 -29 15 -131 13
-131 -2 0 -9 -4 -8 -10 2 -22 35 -12 40 75 40 84 0 85 0 85 -25z"/>
<path d="M2330 2630 c0 -5 5 -10 11 -10 5 0 7 5 4 10 -3 6 -8 10 -11 10 -2 0
-4 -4 -4 -10z"/>
<path d="M4043 2143 c9 -2 23 -2 30 0 6 3 -1 5 -18 5 -16 0 -22 -2 -12 -5z"/>
<path d="M4120 2130 c41 -9 145 -21 115 -13 -11 3 -24 9 -29 14 -6 5 -35 9
-65 8 -52 -1 -53 -2 -21 -9z"/>
<path d="M4288 2123 c7 -3 16 -2 19 1 4 3 -2 6 -13 5 -11 0 -14 -3 -6 -6z"/>
<path d="M4322 2125 c4 -4 3 -14 -3 -22 -7 -8 -8 -13 -1 -13 15 0 23 28 9 36
-7 4 -9 4 -5 -1z"/>
<path d="M3810 2060 c-6 -11 -8 -20 -6 -20 3 0 10 9 16 20 6 11 8 20 6 20 -3
0 -10 -9 -16 -20z"/>
<path d="M5195 1750 c3 -5 13 -10 21 -10 8 0 12 5 9 10 -3 6 -13 10 -21 10 -8
0 -12 -4 -9 -10z"/>
<path d="M5433 1593 c9 -2 23 -2 30 0 6 3 -1 5 -18 5 -16 0 -22 -2 -12 -5z"/>
<path d="M2040 3823 c-74 -2 -146 -5 -158 -8 -22 -5 -82 -61 -82 -76 0 -6 -42
-78 -80 -136 -17 -27 -38 -30 -47 -7 -3 8 -11 13 -19 10 -15 -6 -37 17 -26 29
4 5 1 5 -6 1 -9 -5 -11 -18 -7 -36 3 -16 2 -31 -4 -35 -6 -3 -11 -11 -11 -18
0 -6 7 -1 16 11 8 12 19 20 24 17 5 -3 12 -1 15 5 5 8 11 7 21 -1 24 -20 23
-21 -71 -194 -194 -357 -209 -399 -160 -447 32 -33 78 -38 323 -38 188 0 194
-1 213 -22 19 -21 20 -21 15 -3 -5 19 -2 20 57 17 56 -3 67 -1 94 22 37 31 32
14 93 350 27 149 58 314 70 366 41 188 27 198 -270 193z m-10 -43 c-20 -13
-110 -13 -110 0 0 6 27 10 63 10 44 0 58 -3 47 -10z m-90 -36 l39 -36 107 12
c59 6 128 15 153 20 25 4 48 7 52 4 3 -2 0 -34 -7 -71 -54 -279 -93 -433 -111
-433 -7 0 -13 -3 -13 -7 -1 -5 -5 -27 -9 -51 -7 -35 -6 -40 5 -31 8 6 14 20
14 30 0 10 4 21 10 24 13 8 7 -40 -10 -80 -6 -16 -12 -40 -12 -52 0 -13 -3
-23 -7 -23 -3 0 -6 -18 -6 -40 -1 -25 -8 -47 -19 -58 -17 -16 -18 -14 -13 48
2 36 10 78 16 93 16 40 13 45 -9 18 -11 -13 -20 -32 -20 -42 0 -26 -21 -69
-31 -63 -5 3 -9 10 -9 15 0 6 5 7 10 4 6 -3 10 -1 10 4 0 9 -112 18 -172 13
-9 -1 -21 5 -28 12 -9 11 0 36 40 115 27 56 46 101 42 101 -5 0 -15 -11 -22
-25 -17 -32 -23 -26 -10 11 l10 29 -23 -26 c-15 -16 -29 -51 -36 -89 -7 -34
-15 -60 -18 -57 -7 8 26 199 37 213 6 6 26 11 46 12 34 1 36 0 30 -26 l-6 -27
15 28 c14 24 21 27 71 27 74 0 69 24 -5 28 -52 3 -53 4 -46 30 l6 27 -16 -22
c-16 -22 -22 -23 -174 -23 -87 0 -161 3 -164 6 -14 14 174 355 210 382 24 17
29 16 73 -24z m-287 -396 c-11 -13 -22 -27 -24 -33 -17 -43 -151 -296 -155
-292 -6 6 142 306 164 330 8 9 20 17 25 17 6 0 1 -10 -10 -22z m180 -4 c25 -5
37 -12 37 -23 0 -23 -65 -126 -78 -124 -19 4 -79 -62 -107 -117 -30 -60 -45
-74 -59 -60 -6 6 -23 10 -38 10 -15 0 -28 2 -28 4 0 3 32 65 70 140 39 74 70
140 70 148 0 26 -30 -19 -98 -152 -39 -74 -76 -136 -83 -139 -11 -3 129 277
153 307 11 13 97 16 161 6z m8 -159 c-10 -34 -19 -51 -25 -45 -9 9 26 100 38
100 2 0 -4 -25 -13 -55z m-99 -110 c-27 -44 -56 -62 -69 -43 -3 7 -1 8 5 4 7
-4 12 -1 12 9 0 8 7 18 15 21 8 4 12 11 8 17 -3 6 -1 7 5 3 7 -4 12 -5 12 -2
0 2 3 12 7 22 4 12 3 15 -5 10 -7 -4 -12 -1 -12 7 0 23 12 28 31 11 16 -15 16
-18 -9 -59z m41 -22 c5 -27 3 -33 -11 -33 -10 0 -23 -5 -30 -12 -18 -18 -15
-2 9 43 23 46 24 46 32 2z m77 -37 c0 -12 7 -13 32 -5 35 9 73 12 51 2 -7 -2
-13 -11 -13 -18 0 -7 6 -16 13 -18 6 -3 -17 -6 -52 -6 -54 -1 -62 1 -57 15 3
9 6 22 6 30 0 8 5 14 10 14 6 0 10 -6 10 -14z m-243 -16 c-1 -19 -7 -21 -51
-18 -62 4 -73 24 -15 26 23 1 45 4 47 7 12 11 21 4 19 -15z m388 10 c3 -5 11
-10 16 -10 6 0 7 5 4 10 -3 6 1 10 10 10 9 0 14 -4 11 -9 -3 -5 5 -12 19 -15
14 -4 25 -11 25 -18 0 -12 -30 -37 -45 -38 -5 0 -4 4 4 9 7 5 10 14 6 21 -5 8
-10 9 -18 1 -17 -17 -50 -14 -44 4 4 8 2 17 -3 20 -13 8 -13 25 -1 25 6 0 13
-4 16 -10z m-195 -30 c0 -5 -7 -10 -16 -10 -8 0 -12 5 -9 10 3 6 10 10 16 10
5 0 9 -4 9 -10z"/>
<path d="M2215 3680 c-27 -7 -28 -8 -5 -8 14 0 34 3 45 8 25 11 2 11 -40 0z"/>
<path d="M2152 3598 c-35 -28 -65 -48 -68 -46 -3 3 1 17 7 32 10 20 10 29 1
38 -9 9 -12 7 -12 -8 0 -12 -9 -29 -20 -39 -11 -10 -20 -24 -20 -31 0 -15 -38
-39 -47 -30 -3 3 2 17 11 32 10 14 16 28 13 30 -3 3 -17 -16 -31 -42 -14 -26
-24 -50 -21 -53 4 -3 10 1 15 9 6 8 10 11 10 7 0 -4 10 -3 21 4 20 10 21 9 17
-15 -7 -34 15 -18 32 24 7 17 18 30 25 30 16 0 116 74 128 95 11 21 10 20 -61
-37z"/>
<path d="M1738 3518 c5 -5 16 -8 23 -6 8 3 3 7 -10 11 -17 4 -21 3 -13 -5z"/>
<path d="M1810 3496 c0 -8 51 -13 56 -5 3 5 -9 9 -25 9 -17 0 -31 -2 -31 -4z"/>
<path d="M1942 3449 c-7 -11 -11 -23 -9 -25 7 -7 29 24 25 36 -2 6 -9 1 -16
-11z"/>
<path d="M2130 3350 c0 -5 7 -10 16 -10 8 0 12 5 9 10 -3 6 -10 10 -16 10 -5
0 -9 -4 -9 -10z"/>
<path d="M2171 3295 c1 -40 1 -40 11 -12 7 21 7 32 -1 40 -8 8 -11 0 -10 -28z"/>
<path d="M1974 3233 c-26 -49 -55 -103 -65 -121 -22 -39 -23 -42 -6 -42 6 0
39 53 72 117 73 144 69 133 56 133 -5 0 -31 -39 -57 -87z"/>
<path d="M3575 3799 c-4 -6 -5 -13 -2 -16 7 -7 27 6 27 18 0 12 -17 12 -25 -2z"/>
<path d="M2782 3759 c-75 -13 -98 -31 -116 -92 -20 -72 -49 -268 -43 -298 4
-21 4 -20 6 6 3 56 41 219 62 261 23 48 56 74 99 77 16 1 32 8 35 15 2 6 9 12
15 12 6 0 10 -6 9 -12 -4 -33 1 -41 16 -28 10 9 15 9 15 1 0 -6 5 -11 10 -11
6 0 10 18 10 40 0 39 -1 40 -32 39 -18 -1 -57 -5 -86 -10z m108 -23 c0 -3 -4
-8 -10 -11 -5 -3 -10 -1 -10 4 0 6 5 11 10 11 6 0 10 -2 10 -4z"/>
<path d="M3460 3746 c7 -7 13 -7 20 0 6 6 3 10 -10 10 -13 0 -16 -4 -10 -10z"/>
<path d="M3818 3733 c7 -3 16 -2 19 1 4 3 -2 6 -13 5 -11 0 -14 -3 -6 -6z"/>
<path d="M6305 3690 c-36 -6 -32 -7 28 -9 39 0 67 3 67 9 0 11 -34 11 -95 0z"/>
<path d="M1490 3669 c0 -18 2 -19 15 -9 8 7 15 16 15 21 0 5 -7 9 -15 9 -9 0
-15 -9 -15 -21z"/>
<path d="M1510 3653 c-24 -26 -30 -38 -20 -41 7 -3 24 7 37 22 13 15 27 25 31
22 4 -2 9 4 9 15 3 29 -18 23 -57 -18z"/>
<path d="M2737 3663 c-4 -3 -7 -15 -7 -25 0 -27 23 -17 25 10 2 22 -6 28 -18
15z"/>
<path d="M6220 3636 c0 -26 -4 -27 135 9 l50 13 -92 1 c-92 1 -93 1 -93 -23z"/>
<path d="M6107 3629 c-24 -28 -17 -32 35 -22 28 6 44 14 46 26 5 26 -58 23
-81 -4z"/>
<path d="M1523 3608 c-22 -32 -24 -46 -4 -33 15 8 44 65 34 65 -5 0 -18 -15
-30 -32z"/>
<path d="M2837 3619 c7 -7 15 -10 18 -7 3 3 -2 9 -12 12 -14 6 -15 5 -6 -5z"/>
<path d="M2870 3581 c0 -17 2 -31 4 -31 8 0 13 51 5 56 -5 3 -9 -9 -9 -25z"/>
<path d="M4492 3580 c0 -14 2 -19 5 -12 2 6 2 18 0 25 -3 6 -5 1 -5 -13z"/>
<path d="M6220 3579 c0 -11 4 -18 10 -14 5 3 7 12 3 20 -7 21 -13 19 -13 -6z"/>
<path d="M2412 3574 c9 -9 24 -14 32 -11 27 11 17 27 -16 27 -30 0 -31 -1 -16
-16z"/>
<path d="M6366 3581 c-5 -8 -123 -36 -138 -33 -5 1 -8 -180 -8 -403 l0 -404
47 20 c66 28 111 57 123 79 6 11 10 163 10 384 0 312 -2 366 -14 366 -8 0 -17
-4 -20 -9z"/>
<path d="M3222 3561 c12 -19 24 -21 46 -8 6 5 18 5 25 1 9 -5 9 -4 -1 7 -7 7
-28 14 -47 16 -31 2 -33 0 -23 -16z"/>
<path d="M6128 3543 c6 -2 18 -2 25 0 6 3 1 5 -13 5 -14 0 -19 -2 -12 -5z"/>
<path d="M4482 3520 c0 -14 2 -19 5 -12 2 6 2 18 0 25 -3 6 -5 1 -5 -13z"/>
<path d="M1557 3468 c-48 -87 -81 -155 -69 -143 13 13 114 205 108 205 -2 0
-20 -28 -39 -62z"/>
<path d="M2865 3520 c-3 -5 1 -10 10 -10 9 0 13 5 10 10 -3 6 -8 10 -10 10 -2
0 -7 -4 -10 -10z"/>
<path d="M3221 3514 c0 -11 3 -14 6 -6 3 7 2 16 -1 19 -3 4 -6 -2 -5 -13z"/>
<path d="M3395 3500 c3 -5 8 -10 11 -10 2 0 4 5 4 10 0 6 -5 10 -11 10 -5 0
-7 -4 -4 -10z"/>
<path d="M4200 3486 c0 -9 5 -16 10 -16 6 0 10 4 10 9 0 6 -4 13 -10 16 -5 3
-10 -1 -10 -9z"/>
<path d="M3570 3486 c0 -2 12 -12 28 -21 l27 -18 -19 21 c-17 20 -36 29 -36
18z"/>
<path d="M4473 3455 c0 -22 2 -30 4 -17 2 12 2 30 0 40 -3 9 -5 -1 -4 -23z"/>
<path d="M2940 3444 c0 -16 4 -35 9 -42 5 -8 7 0 7 22 -2 43 -16 61 -16 20z"/>
<path d="M4161 3404 c-6 -15 -9 -29 -7 -32 3 -2 10 8 16 23 14 36 7 43 -9 9z"/>
<path d="M1347 3391 c-7 -35 -32 -61 -58 -61 -10 0 -19 -4 -19 -10 0 -5 7 -7
15 -4 12 5 15 -2 15 -30 0 -29 -4 -36 -20 -36 -16 0 -20 7 -20 31 0 25 -3 29
-13 20 -8 -6 -16 -9 -19 -6 -3 3 -11 -1 -17 -9 -10 -12 -9 -14 8 -9 27 7 26
-3 -1 -30 -15 -14 -33 -21 -53 -20 l-30 2 28 -12 27 -13 -31 -32 c-17 -18 -37
-32 -44 -32 -7 0 -15 -6 -18 -13 -6 -17 -138 -64 -198 -72 -75 -9 -96 -15
-114 -35 -20 -23 -21 -22 70 -40 33 -6 126 -14 206 -17 l146 -6 107 214 c60
118 112 219 117 225 13 16 0 24 -41 24 -33 0 -38 -3 -43 -29z m25 -13 c-7 -7
-12 -8 -12 -2 0 14 12 26 19 19 2 -3 -1 -11 -7 -17z m-47 -87 c3 -5 1 -12 -5
-16 -5 -3 -10 1 -10 9 0 18 6 21 15 7z"/>
<path d="M4096 3401 c-3 -5 0 -11 8 -14 15 -6 26 1 26 15 0 11 -27 10 -34 -1z"/>
<path d="M4462 3390 c0 -14 2 -19 5 -12 2 6 2 18 0 25 -3 6 -5 1 -5 -13z"/>
<path d="M4055 3390 c-3 -5 1 -10 9 -10 9 0 16 5 16 10 0 6 -4 10 -9 10 -6 0
-13 -4 -16 -10z"/>
<path d="M1245 3380 c-3 -5 -2 -10 4 -10 5 0 13 5 16 10 3 6 2 10 -4 10 -5 0
-13 -4 -16 -10z"/>
<path d="M2920 3375 c0 -8 2 -15 4 -15 2 0 6 7 10 15 3 8 1 15 -4 15 -6 0 -10
-7 -10 -15z"/>
<path d="M2770 3361 c0 -5 7 -15 17 -22 15 -13 15 -12 4 9 -12 23 -21 28 -21
13z"/>
<path d="M1216 3344 c-17 -12 -17 -14 -4 -14 9 0 20 5 23 11 11 17 2 18 -19 3z"/>
<path d="M3548 3353 c7 -3 16 -2 19 1 4 3 -2 6 -13 5 -11 0 -14 -3 -6 -6z"/>
<path d="M4130 3345 c-7 -9 -10 -18 -7 -21 3 -3 10 4 17 15 13 25 8 27 -10 6z"/>
<path d="M1170 3295 c-13 -14 -21 -27 -18 -30 2 -3 15 6 28 20 13 14 21 27 18
30 -2 3 -15 -6 -28 -20z"/>
<path d="M2322 3300 c0 -14 2 -19 5 -12 2 6 2 18 0 25 -3 6 -5 1 -5 -13z"/>
<path d="M655 3300 c-3 -5 -1 -10 4 -10 6 0 11 5 11 10 0 6 -2 10 -4 10 -3 0
-8 -4 -11 -10z"/>
<path d="M55 3290 c-3 -5 -2 -10 4 -10 5 0 13 5 16 10 3 6 2 10 -4 10 -5 0
-13 -4 -16 -10z"/>
<path d="M275 3290 c-16 -7 -17 -9 -3 -9 9 -1 20 4 23 9 7 11 7 11 -20 0z"/>
<path d="M3596 3277 c3 -10 9 -15 12 -12 3 3 0 11 -7 18 -10 9 -11 8 -5 -6z"/>
<path d="M628 3273 c7 -3 16 -2 19 1 4 3 -2 6 -13 5 -11 0 -14 -3 -6 -6z"/>
<path d="M2500 3265 c0 -8 2 -15 4 -15 2 0 6 7 10 15 3 8 1 15 -4 15 -6 0 -10
-7 -10 -15z"/>
<path d="M108 3263 c7 -3 16 -2 19 1 4 3 -2 6 -13 5 -11 0 -14 -3 -6 -6z"/>
<path d="M2312 3240 c0 -14 2 -19 5 -12 2 6 2 18 0 25 -3 6 -5 1 -5 -13z"/>
<path d="M4426 3218 c-3 -13 -5 -34 -5 -48 1 -15 5 -7 10 19 9 47 6 68 -5 29z"/>
<path d="M1088 3203 c7 -3 16 -2 19 1 4 3 -2 6 -13 5 -11 0 -14 -3 -6 -6z"/>
<path d="M2302 3185 c0 -16 2 -22 5 -12 2 9 2 23 0 30 -3 6 -5 -1 -5 -18z"/>
<path d="M4738 3185 c-4 -16 -2 -36 4 -42 13 -16 38 -17 38 -3 0 6 6 10 14 8
8 -2 14 2 13 7 -1 6 -13 10 -27 10 -17 1 -26 8 -30 25 -6 25 -6 24 -12 -5z"/>
<path d="M3495 3181 c-16 -3 -31 -13 -33 -22 -3 -16 28 -18 131 -10 24 1 14
17 -15 24 -13 2 -30 7 -38 10 -8 2 -28 2 -45 -2z"/>
<path d="M1355 3159 c-4 -6 -5 -12 -2 -15 2 -3 7 2 10 11 7 17 1 20 -8 4z"/>
<path d="M2481 3154 c0 -11 3 -14 6 -6 3 7 2 16 -1 19 -3 4 -6 -2 -5 -13z"/>
<path d="M2291 3134 c0 -11 3 -14 6 -6 3 7 2 16 -1 19 -3 4 -6 -2 -5 -13z"/>
<path d="M2331 3124 c0 -11 3 -14 6 -6 3 7 2 16 -1 19 -3 4 -6 -2 -5 -13z"/>
<path d="M4411 3124 c0 -11 3 -14 6 -6 3 7 2 16 -1 19 -3 4 -6 -2 -5 -13z"/>
<path d="M210 3110 c0 -5 5 -10 10 -10 6 0 10 5 10 10 0 6 -4 10 -10 10 -5 0
-10 -4 -10 -10z"/>
<path d="M333 3103 c9 -2 23 -2 30 0 6 3 -1 5 -18 5 -16 0 -22 -2 -12 -5z"/>
<path d="M2281 3074 c0 -11 3 -14 6 -6 3 7 2 16 -1 19 -3 4 -6 -2 -5 -13z"/>
<path d="M2322 3070 c0 -14 2 -19 5 -12 2 6 2 18 0 25 -3 6 -5 1 -5 -13z"/>
<path d="M4738 3045 c-3 -14 -1 -25 3 -25 5 0 9 11 9 25 0 14 -2 25 -4 25 -2
0 -6 -11 -8 -25z"/>
<path d="M2312 3015 c0 -16 2 -22 5 -12 2 9 2 23 0 30 -3 6 -5 -1 -5 -18z"/>
<path d="M2302 2955 c0 -16 2 -22 5 -12 2 9 2 23 0 30 -3 6 -5 -1 -5 -18z"/>
<path d="M4638 2953 c6 -2 18 -2 25 0 6 3 1 5 -13 5 -14 0 -19 -2 -12 -5z"/>
<path d="M3562 2907 c-8 -9 -4 -12 14 -13 26 -2 33 11 10 19 -8 3 -19 0 -24
-6z"/>
<path d="M2273 2885 c4 -9 7 -26 7 -38 1 -19 3 -18 15 8 7 17 14 24 14 16 1
-11 4 -11 16 -1 12 10 15 9 15 -6 0 -16 2 -16 10 -4 11 17 1 24 -49 35 -29 6
-33 5 -28 -10z"/>
<path d="M1807 2883 c-4 -3 -7 -24 -7 -46 0 -32 3 -38 16 -33 9 3 54 6 100 6
60 0 84 3 84 13 0 9 -23 11 -90 9 -78 -3 -91 -1 -97 14 -4 11 1 22 12 30 15
11 16 14 4 14 -9 0 -19 -3 -22 -7z"/>
<path d="M1893 2883 c9 -2 25 -2 35 0 9 3 1 5 -18 5 -19 0 -27 -2 -17 -5z"/>
<path d="M98 2803 c6 -2 18 -2 25 0 6 3 1 5 -13 5 -14 0 -19 -2 -12 -5z"/>
<path d="M660 2771 c0 -5 5 -13 10 -16 6 -3 10 -2 10 4 0 5 -4 13 -10 16 -5 3
-10 2 -10 -4z"/>
<path d="M150 2746 c0 -8 7 -16 15 -20 9 -3 15 0 15 8 0 8 -7 16 -15 20 -9 3
-15 0 -15 -8z"/>
<path d="M1726 2225 c4 -8 10 -15 15 -15 4 0 6 7 3 15 -4 8 -10 15 -15 15 -4
0 -6 -7 -3 -15z"/>
<path d="M2020 2231 c0 -6 4 -13 10 -16 6 -3 7 1 4 9 -7 18 -14 21 -14 7z"/>
<path d="M488 2203 c12 -2 30 -2 40 0 9 3 -1 5 -23 4 -22 0 -30 -2 -17 -4z"/>
<path d="M4821 2174 c0 -11 3 -14 6 -6 3 7 2 16 -1 19 -3 4 -6 -2 -5 -13z"/>
<path d="M4832 2115 c0 -16 2 -22 5 -12 2 9 2 23 0 30 -3 6 -5 -1 -5 -18z"/>
<path d="M4460 2091 c-14 -4 -20 -10 -15 -13 25 -15 289 -56 298 -46 2 1 11
-3 20 -11 15 -12 17 -11 17 7 0 23 -33 33 -127 35 -33 1 -59 5 -57 9 2 4 1 9
-3 11 -16 10 -109 15 -133 8z m70 -11 c0 -12 -8 -12 -35 0 -18 8 -17 9 8 9 15
1 27 -3 27 -9z m40 -10 c0 -5 -2 -10 -4 -10 -3 0 -8 5 -11 10 -3 6 -1 10 4 10
6 0 11 -4 11 -10z"/>
<path d="M1750 2029 c50 -34 158 -79 192 -79 49 0 49 16 0 24 -21 3 -68 19
-105 36 -66 30 -119 42 -87 19z"/>
<path d="M1960 2000 c0 -5 9 -10 20 -10 11 0 20 5 20 10 0 6 -9 10 -20 10 -11
0 -20 -4 -20 -10z"/>
<path d="M2150 1957 c10 -9 31 -12 63 -9 68 6 58 22 -15 22 -53 0 -60 -2 -48
-13z"/>
<path d="M2126 1936 c10 -8 21 -12 24 -10 5 6 -21 24 -34 24 -6 0 -1 -6 10
-14z"/>
<path d="M2500 1920 c0 -5 5 -10 10 -10 6 0 10 5 10 10 0 6 -4 10 -10 10 -5 0
-10 -4 -10 -10z"/>
<path d="M2550 1920 c0 -5 9 -10 20 -10 11 0 20 5 20 10 0 6 -9 10 -20 10 -11
0 -20 -4 -20 -10z"/>
<path d="M2648 1923 c6 -2 18 -2 25 0 6 3 1 5 -13 5 -14 0 -19 -2 -12 -5z"/>
<path d="M4560 1900 c8 -5 20 -10 25 -10 6 0 3 5 -5 10 -8 5 -19 10 -25 10 -5
0 -3 -5 5 -10z"/>
<path d="M6293 1863 l-73 -4 0 -64 0 -65 90 0 90 0 0 70 c0 61 -2 70 -17 68
-10 -1 -51 -4 -90 -5z"/>
<path d="M6220 1623 l0 -83 29 0 c15 0 56 3 90 6 l61 7 0 73 0 73 -90 3 -90 3
0 -82z"/>
<path d="M1447 1644 c-1 -1 -75 -4 -165 -5 -89 -1 -162 -6 -162 -10 0 -8 42
-29 84 -43 49 -17 220 -46 296 -50 47 -3 128 -9 180 -13 52 -4 113 -7 134 -7
l39 0 23 67 23 68 -224 -2 c-124 -1 -226 -3 -228 -5z m-242 -34 c13 -6 15 -9
5 -9 -8 0 -22 4 -30 9 -18 12 -2 12 25 0z m165 -40 c0 -5 -7 -7 -15 -4 -8 4
-15 8 -15 10 0 2 7 4 15 4 8 0 15 -4 15 -10z"/>
<path d="M920 1402 c0 -28 197 -139 214 -122 12 12 -8 30 -34 30 -13 0 -45 18
-172 97 -5 2 -8 0 -8 -5z"/>
<path d="M5710 1370 c0 -5 5 -10 10 -10 6 0 10 5 10 10 0 6 -4 10 -10 10 -5 0
-10 -4 -10 -10z"/>
<path d="M5757 1369 c7 -7 15 -10 18 -7 3 3 -2 9 -12 12 -14 6 -15 5 -6 -5z"/>
<path d="M1263 1343 c-7 -3 -13 -11 -13 -19 0 -11 18 -14 83 -14 45 -1 138 -3
206 -6 97 -5 125 -3 132 8 13 20 11 28 -7 28 -9 0 -12 -5 -8 -12 5 -8 2 -9
-12 -3 -10 4 -91 10 -179 12 -88 2 -167 5 -175 6 -8 2 -21 2 -27 0z"/>
<path d="M5305 1299 c-7 -11 47 -21 57 -11 6 6 -2 11 -22 14 -17 3 -33 1 -35
-3z"/>
<path d="M5603 1293 c9 -9 20 -13 24 -9 4 4 1 11 -7 16 -25 16 -35 11 -17 -7z"/>
<path d="M5760 1301 c0 -17 18 -21 24 -6 3 9 0 15 -9 15 -8 0 -15 -4 -15 -9z"/>
<path d="M5801 1294 c0 -11 3 -14 6 -6 3 7 2 16 -1 19 -3 4 -6 -2 -5 -13z"/>
<path d="M5840 1300 c0 -5 5 -10 11 -10 5 0 7 5 4 10 -3 6 -8 10 -11 10 -2 0
-4 -4 -4 -10z"/>
<path d="M5875 1300 c-3 -5 1 -10 10 -10 9 0 13 5 10 10 -3 6 -8 10 -10 10 -2
0 -7 -4 -10 -10z"/>
<path d="M5925 1300 c-3 -5 3 -10 14 -10 12 0 21 5 21 10 0 6 -6 10 -14 10 -8
0 -18 -4 -21 -10z"/>
<path d="M5205 1290 c3 -5 12 -7 20 -3 21 7 19 13 -6 13 -11 0 -18 -4 -14 -10z"/>
<path d="M5255 1290 c3 -5 10 -10 16 -10 5 0 9 5 9 10 0 6 -7 10 -16 10 -8 0
-12 -4 -9 -10z"/>
<path d="M5388 1293 c7 -3 16 -2 19 1 4 3 -2 6 -13 5 -11 0 -14 -3 -6 -6z"/>
<path d="M5515 1291 c4 -8 2 -17 -6 -22 -9 -6 -10 -9 -2 -9 19 0 27 21 13 33
-10 9 -11 9 -5 -2z"/>
<path d="M5330 1224 c0 -8 10 -14 26 -14 28 0 25 15 -6 23 -13 3 -20 0 -20 -9z"/>
<path d="M5424 1225 c-4 -9 -4 -19 0 -22 3 -4 6 -1 6 6 0 7 5 9 10 6 6 -3 10
-2 10 4 0 18 -20 23 -26 6z"/>
<path d="M5597 1229 c7 -7 15 -10 18 -7 3 3 -2 9 -12 12 -14 6 -15 5 -6 -5z"/>
<path d="M5735 1220 c3 -5 8 -10 11 -10 2 0 4 5 4 10 0 6 -5 10 -11 10 -5 0
-7 -4 -4 -10z"/>
<path d="M6058 1223 c7 -3 16 -2 19 1 4 3 -2 6 -13 5 -11 0 -14 -3 -6 -6z"/>
<path d="M6145 1220 c3 -5 11 -10 16 -10 6 0 7 5 4 10 -3 6 -11 10 -16 10 -6
0 -7 -4 -4 -10z"/>
<path d="M3530 1170 c-10 -6 -2 -7 25 -3 49 7 58 13 19 13 -16 0 -36 -5 -44
-10z"/>
<path d="M3634 1169 c-3 -5 -15 -9 -27 -9 -13 0 -17 -4 -11 -9 10 -11 96 -2
89 9 -8 12 -45 19 -51 9z"/>
<path d="M3755 1170 c3 -5 11 -10 16 -10 6 0 7 5 4 10 -3 6 -11 10 -16 10 -6
0 -7 -4 -4 -10z"/>
<path d="M3840 1170 c0 -5 6 -10 14 -10 8 0 18 5 21 10 3 6 -3 10 -14 10 -12
0 -21 -4 -21 -10z"/>
<path d="M4543 1173 c9 -2 23 -2 30 0 6 3 -1 5 -18 5 -16 0 -22 -2 -12 -5z"/>
<path d="M4610 1176 c0 -8 60 -12 72 -4 8 4 -4 8 -29 8 -24 0 -43 -2 -43 -4z"/>
<path d="M3710 1160 c-13 -8 -13 -10 2 -10 9 0 20 5 23 10 8 13 -5 13 -25 0z"/>
<path d="M3195 1091 c-16 -3 -28 -11 -26 -16 3 -11 9 -10 54 9 34 15 22 18
-28 7z"/>
<path d="M3505 1039 c-4 -5 18 -9 49 -9 72 0 81 16 10 17 -29 1 -56 -3 -59 -8z"/>
<path d="M2940 1030 c0 -5 5 -10 11 -10 5 0 7 5 4 10 -3 6 -8 10 -11 10 -2 0
-4 -4 -4 -10z"/>
<path d="M3180 1010 c0 -5 5 -10 11 -10 5 0 7 5 4 10 -3 6 -8 10 -11 10 -2 0
-4 -4 -4 -10z"/>
<path d="M2750 990 c0 -5 4 -10 9 -10 6 0 13 5 16 10 3 6 -1 10 -9 10 -9 0
-16 -4 -16 -10z"/>
<path d="M4350 993 c-65 -5 -92 -12 -85 -23 4 -6 -6 -5 -20 2 -20 9 -36 9 -71
0 -24 -7 -54 -12 -66 -12 -27 0 -58 -28 -51 -46 3 -8 3 -14 1 -14 -3 0 -54 -9
-114 -20 -76 -15 -173 -23 -316 -27 -141 -4 -208 -9 -208 -17 1 -34 18 -38
156 -41 77 -1 184 -8 238 -15 54 -7 141 -10 192 -8 122 7 139 -3 90 -51 -27
-27 -33 -38 -25 -48 8 -9 8 -13 0 -13 -6 0 -11 4 -11 9 0 15 -81 19 -230 12
-111 -6 -152 -4 -174 6 -16 7 -45 13 -65 13 -54 0 -203 -51 -224 -77 -9 -12
-27 -24 -40 -26 -19 -4 -18 -4 5 -6 15 0 39 4 55 10 30 12 107 16 428 24 116
3 219 10 230 14 39 17 55 20 55 10 0 -6 8 -8 18 -5 9 3 31 2 47 -3 27 -8 24
-9 -25 -11 -50 -2 -52 -3 -22 -10 32 -7 87 0 111 14 6 4 11 15 11 24 0 12 3
13 11 5 9 -9 21 -7 50 7 21 11 60 29 88 40 27 10 70 35 95 53 47 37 32 34 266
53 36 4 67 8 69 10 2 2 -4 14 -15 25 -14 16 -15 21 -4 17 8 -2 19 -14 25 -25
7 -18 15 -21 40 -16 16 3 33 11 37 17 5 8 11 7 20 -2 6 -6 15 -12 19 -12 9 0
23 38 24 60 0 12 16 15 84 16 56 0 86 4 89 12 2 7 -6 12 -21 12 -14 0 -27 4
-29 9 -5 14 -58 25 -58 12 0 -6 -7 -11 -15 -11 -8 0 -15 3 -15 8 0 4 -11 8
-25 8 -14 1 -25 -2 -25 -8 0 -5 -5 -6 -11 -2 -17 10 -99 13 -99 3 0 -9 8 -10
70 -13 37 -1 51 -15 43 -45 -5 -19 -11 -22 -34 -17 -23 4 -29 2 -29 -11 0 -14
-2 -15 -17 -1 -10 9 -25 13 -33 11 -9 -3 -7 1 5 12 20 16 19 16 -7 11 -15 -4
-30 -2 -33 4 -3 5 -1 10 4 10 6 0 11 8 11 18 0 15 -11 17 -99 17 -55 0 -97 -2
-94 -5 7 -7 -227 -29 -244 -23 -8 3 -11 14 -6 31 5 21 3 24 -11 19 -9 -4 -16
-2 -16 3 0 6 14 10 30 10 17 0 30 5 30 10 0 6 -3 9 -7 8 -5 -1 -28 -3 -53 -5z
m-135 -33 c-3 -5 -13 -10 -21 -10 -8 0 -12 5 -9 10 3 6 13 10 21 10 8 0 12 -4
9 -10z m33 -25 c-3 -3 -9 2 -12 12 -6 14 -5 15 5 6 7 -7 10 -15 7 -18z m-83 5
c3 -6 -1 -7 -9 -4 -18 7 -21 14 -7 14 6 0 13 -4 16 -10z m-35 -10 c0 -5 -7
-10 -16 -10 -8 0 -12 5 -9 10 3 6 10 10 16 10 5 0 9 -4 9 -10z m240 -29 c0 -5
-7 -11 -14 -14 -10 -4 -13 -1 -9 9 6 15 23 19 23 5z m380 -72 c-38 -6 -50 -3
-50 12 0 5 8 9 18 7 9 -2 16 2 14 10 -1 8 7 7 25 -5 l27 -18 -34 -6z m-215 21
c3 -5 1 -10 -4 -10 -6 0 -11 5 -11 10 0 6 2 10 4 10 3 0 8 -4 11 -10z m142 -6
c-3 -3 -12 -4 -19 -1 -8 3 -5 6 6 6 11 1 17 -2 13 -5z m-70 -20 c-3 -3 -12 -4
-19 -1 -8 3 -5 6 6 6 11 1 17 -2 13 -5z m-724 -11 c-7 -2 -19 -2 -25 0 -7 3
-2 5 12 5 14 0 19 -2 13 -5z m117 -4 c0 -5 4 -8 9 -4 5 3 12 1 15 -4 3 -5 -10
-9 -29 -8 -27 1 -32 4 -23 14 13 16 28 17 28 2z m65 1 c3 -6 -1 -7 -9 -4 -18
7 -21 14 -7 14 6 0 13 -4 16 -10z m220 -126 c-9 -9 -19 -13 -23 -10 -3 4 0 11
8 16 24 15 33 11 15 -6z m-255 -34 c0 -5 -4 -10 -10 -10 -5 0 -10 5 -10 10 0
6 5 10 10 10 6 0 10 -4 10 -10z"/>
<path d="M3256 965 c-3 -8 -1 -15 4 -15 6 0 10 7 10 15 0 8 -2 15 -4 15 -2 0
-6 -7 -10 -15z"/>
<path d="M2612 960 c-12 -5 -34 -21 -48 -35 -14 -14 -31 -25 -38 -25 -8 0 -20
-8 -27 -17 -12 -15 -12 -16 6 -9 11 5 28 11 38 13 9 3 17 9 17 14 0 5 7 9 15
9 8 0 15 7 15 15 0 8 5 15 10 15 6 0 13 -7 16 -15 10 -25 21 -17 22 15 0 17 0
30 -1 29 -1 0 -12 -4 -25 -9z"/>
<path d="M2667 945 c-23 -16 -22 -25 3 -25 23 0 24 -4 9 -31 -5 -11 -14 -17
-19 -14 -12 7 -61 -5 -56 -14 3 -4 19 -8 38 -9 18 -2 37 -8 43 -13 7 -8 4 -9
-12 -5 -12 4 -24 2 -28 -4 -3 -5 1 -10 9 -10 9 0 16 -4 16 -10 0 -18 17 -10
27 12 9 20 17 22 74 23 49 0 63 3 61 14 -2 9 4 12 18 8 11 -3 22 -2 25 2 2 5
26 6 52 4 34 -3 58 1 84 15 34 17 36 20 24 42 -7 13 -15 18 -19 12 -3 -6 0
-12 6 -15 7 -2 10 -7 7 -11 -4 -4 -14 0 -23 9 -17 18 -36 12 -36 -11 0 -22
-57 -18 -72 5 -9 15 -14 17 -24 6 -9 -8 -29 -11 -57 -8 -24 3 -54 0 -66 -6
-17 -10 -21 -9 -21 4 0 15 16 20 58 16 12 -1 22 3 22 8 0 17 -44 18 -73 2 -26
-15 -30 -15 -41 0 -10 14 -15 15 -29 4z m150 -81 c-3 -3 -12 -4 -19 -1 -8 3
-5 6 6 6 11 1 17 -2 13 -5z"/>
<path d="M2840 944 c0 -8 5 -12 10 -9 6 4 8 11 5 16 -9 14 -15 11 -15 -7z"/>
<path d="M5161 936 c12 -10 59 -15 59 -6 0 5 -14 10 -32 10 -17 0 -29 -2 -27
-4z"/>
<path d="M4865 920 c-4 -6 -4 -10 -1 -10 2 0 11 -3 20 -6 9 -3 16 -2 16 4 0
14 -28 23 -35 12z"/>
<path d="M5240 915 c0 -7 6 -18 14 -22 7 -4 15 -13 17 -20 3 -8 9 -9 18 -4 18
12 5 31 -21 31 -17 0 -18 2 -8 15 10 12 10 15 -4 15 -9 0 -16 -7 -16 -15z"/>
<path d="M4920 898 c0 -19 2 -20 10 -8 13 19 13 30 0 30 -5 0 -10 -10 -10 -22z"/>
<path d="M5150 895 c0 -12 4 -13 19 -5 25 13 44 13 36 0 -3 -5 -2 -10 3 -10 6
0 12 7 16 15 4 12 -3 15 -34 15 -29 0 -40 -4 -40 -15z"/>
<path d="M5317 903 c-3 -5 18 -9 46 -10 33 -1 45 2 36 8 -17 11 -76 12 -82 2z"/>
<path d="M2400 889 c0 -7 -11 -9 -26 -6 -34 6 -110 -13 -93 -24 7 -4 19 -3 26
2 6 6 24 9 40 7 28 -4 25 -8 -24 -23 -14 -5 -12 -9 11 -20 35 -19 42 -19 27
-1 -14 17 4 26 52 26 31 1 67 19 67 34 0 4 -13 5 -30 1 -19 -4 -30 -3 -30 4 0
6 -4 11 -10 11 -5 0 -10 -5 -10 -11z"/>
<path d="M2564 886 c-18 -14 -18 -15 -1 -21 9 -4 24 -2 32 5 33 28 5 42 -31
16z"/>
<path d="M5058 893 c7 -3 16 -2 19 1 4 3 -2 6 -13 5 -11 0 -14 -3 -6 -6z"/>
<path d="M4997 873 c-21 -11 -26 -18 -18 -26 7 -7 18 -3 37 16 29 30 24 33
-19 10z"/>
<path d="M5478 883 c7 -3 16 -2 19 1 4 3 -2 6 -13 5 -11 0 -14 -3 -6 -6z"/>
<path d="M5550 880 c0 -6 11 -8 28 -4 39 10 40 14 4 14 -18 0 -32 -5 -32 -10z"/>
<path d="M5650 880 c8 -5 22 -9 30 -9 10 0 8 3 -5 9 -27 12 -43 12 -25 0z"/>
<path d="M5728 873 c7 -3 16 -2 19 1 4 3 -2 6 -13 5 -11 0 -14 -3 -6 -6z"/>
<path d="M5840 860 c36 -11 52 -11 45 0 -3 6 -21 10 -38 9 -31 -1 -31 -1 -7
-9z"/>
<path d="M5918 858 c6 -6 18 -8 28 -6 14 3 12 5 -9 10 -19 3 -25 2 -19 -4z"/>
<path d="M5010 834 c-23 -12 -23 -14 -4 -14 11 0 24 4 30 9 5 5 23 11 39 14
28 4 28 4 -5 5 -19 0 -46 -6 -60 -14z"/>
<path d="M3190 829 c0 -4 7 -22 14 -41 8 -19 12 -45 9 -56 -4 -18 -13 -22 -52
-23 -25 -1 -52 -1 -60 0 -31 5 2 -17 35 -22 53 -9 94 2 94 24 0 10 9 41 20 69
11 28 20 52 20 53 0 1 -18 2 -40 2 -22 0 -40 -2 -40 -6z"/>
<path d="M5383 823 c9 -2 23 -2 30 0 6 3 -1 5 -18 5 -16 0 -22 -2 -12 -5z"/>
<path d="M2268 813 c7 -3 16 -2 19 1 4 3 -2 6 -13 5 -11 0 -14 -3 -6 -6z"/>
<path d="M3405 800 c3 -5 8 -10 11 -10 2 0 4 5 4 10 0 6 -5 10 -11 10 -5 0 -7
-4 -4 -10z"/>
<path d="M2335 780 c4 -6 11 -8 16 -5 14 9 11 15 -7 15 -8 0 -12 -5 -9 -10z"/>
<path d="M2370 780 c0 -5 5 -10 10 -10 6 0 10 5 10 10 0 6 -4 10 -10 10 -5 0
-10 -4 -10 -10z"/>
<path d="M5620 780 c0 -5 12 -10 28 -9 24 0 25 1 7 9 -27 12 -35 12 -35 0z"/>
<path d="M2115 761 c-6 -11 33 -36 42 -27 7 7 -16 36 -28 36 -4 0 -10 -4 -14
-9z"/>
<path d="M1740 731 c-31 -26 -33 -30 -17 -36 10 -4 21 -4 25 0 4 4 1 10 -6 12
-8 3 -2 14 19 29 18 13 28 24 23 24 -5 0 -25 -13 -44 -29z"/>
<path d="M1995 741 c-6 -11 9 -23 19 -14 9 9 7 23 -3 23 -6 0 -12 -4 -16 -9z"/>
<path d="M1680 715 c-19 -22 -8 -25 13 -3 9 10 13 18 8 18 -5 0 -14 -7 -21
-15z"/>
<path d="M1850 720 c0 -5 5 -10 10 -10 6 0 10 5 10 10 0 6 -4 10 -10 10 -5 0
-10 -4 -10 -10z"/>
<path d="M1560 691 c0 -18 18 -21 30 -6 10 13 9 15 -9 15 -11 0 -21 -4 -21 -9z"/>
<path d="M2160 679 c0 -5 5 -7 10 -4 6 3 10 8 10 11 0 2 -4 4 -10 4 -5 0 -10
-5 -10 -11z"/>
<path d="M1525 670 c3 -5 10 -10 16 -10 5 0 9 5 9 10 0 6 -7 10 -16 10 -8 0
-12 -4 -9 -10z"/>
<path d="M1645 670 c3 -5 8 -10 11 -10 2 0 4 5 4 10 0 6 -5 10 -11 10 -5 0 -7
-4 -4 -10z"/>
<path d="M4055 630 c3 -5 11 -10 16 -10 6 0 7 5 4 10 -3 6 -11 10 -16 10 -6 0
-7 -4 -4 -10z"/>
<path d="M1645 600 c3 -5 11 -10 16 -10 6 0 7 5 4 10 -3 6 -11 10 -16 10 -6 0
-7 -4 -4 -10z"/>
<path d="M311 559 c-13 -5 -22 -11 -20 -14 8 -7 49 7 49 16 0 5 -1 9 -2 8 -2
0 -14 -5 -27 -10z"/>
<path d="M473 563 c-14 -5 -18 -23 -5 -23 5 0 17 7 28 15 14 11 15 14 4 14 -8
0 -21 -3 -27 -6z"/>
<path d="M210 550 c0 -12 17 -12 45 0 17 7 15 9 -12 9 -18 1 -33 -3 -33 -9z"/>
<path d="M1160 549 c0 -5 5 -7 10 -4 6 3 10 8 10 11 0 2 -4 4 -10 4 -5 0 -10
-5 -10 -11z"/>
<path d="M1277 544 c6 -16 19 -18 27 -5 3 5 -3 11 -13 14 -14 3 -18 1 -14 -9z"/>
<path d="M1320 550 c0 -5 7 -10 15 -10 8 0 15 5 15 10 0 6 -7 10 -15 10 -8 0
-15 -4 -15 -10z"/>
<path d="M1240 490 c0 -5 7 -10 16 -10 8 0 12 5 9 10 -3 6 -10 10 -16 10 -5 0
-9 -4 -9 -10z"/>
<path d="M835 420 c-3 -5 1 -10 9 -10 9 0 16 5 16 10 0 6 -4 10 -9 10 -6 0
-13 -4 -16 -10z"/>
<path d="M560 380 c0 -11 2 -20 4 -20 2 0 6 9 9 20 3 11 1 20 -4 20 -5 0 -9
-9 -9 -20z"/>
<path d="M312 379 c-13 -5 -28 -7 -33 -4 -18 12 -47 -14 -42 -36 5 -17 3 -20
-8 -14 -12 7 -12 5 -1 -6 8 -9 15 -10 20 -4 9 12 44 16 36 4 -3 -5 4 -9 16 -9
17 0 20 4 15 20 -5 16 -2 20 19 20 18 0 26 -6 27 -17 0 -15 2 -15 9 2 5 12 9
14 9 6 1 -11 5 -11 19 2 10 10 31 17 47 17 23 0 26 3 17 12 -15 15 -64 17 -75
3 -6 -7 -10 -6 -14 3 -5 14 -28 15 -61 1z"/>
<path d="M502 348 c6 -18 28 -21 28 -4 0 9 -7 16 -16 16 -9 0 -14 -5 -12 -12z"/>
<path d="M720 352 c0 -4 11 -9 25 -10 14 -1 25 3 25 8 0 6 -11 10 -25 10 -14
0 -25 -4 -25 -8z"/>
<path d="M407 344 c-12 -12 4 -24 34 -24 16 0 29 4 29 10 0 5 -6 7 -14 4 -8
-3 -17 -1 -21 5 -7 12 -19 14 -28 5z"/>
<path d="M590 340 c0 -5 5 -10 10 -10 6 0 10 5 10 10 0 6 -4 10 -10 10 -5 0
-10 -4 -10 -10z"/>
<path d="M172 290 c0 -19 2 -27 5 -17 2 9 2 25 0 35 -3 9 -5 1 -5 -18z"/>
<path d="M5212 282 c-17 -5 19 -41 55 -53 28 -9 35 -7 55 11 12 11 28 18 35
16 7 -3 13 -1 13 4 0 6 -8 10 -17 11 -10 0 -43 4 -74 8 -31 4 -61 5 -67 3z"/>
<path d="M311 263 c-7 -15 -4 -18 19 -19 25 -1 27 1 17 17 -15 24 -24 24 -36
2z"/>
<path d="M510 271 c-19 -3 -30 -9 -24 -13 11 -7 84 8 84 17 0 6 -11 5 -60 -4z"/>
<path d="M3270 250 c-12 -8 -11 -10 7 -10 12 0 25 5 28 10 8 13 -15 13 -35 0z"/>
<path d="M172 220 c0 -14 2 -19 5 -12 2 6 2 18 0 25 -3 6 -5 1 -5 -13z"/>
<path d="M0 219 c0 -5 5 -7 10 -4 5 3 10 8 10 11 0 2 -4 4 -10 4 -5 0 -10 -5
-10 -11z"/>
<path d="M198 173 c7 -3 16 -2 19 1 4 3 -2 6 -13 5 -11 0 -14 -3 -6 -6z"/>
<path d="M3747 132 c-15 -2 -25 -8 -22 -13 8 -12 62 -12 69 0 8 12 -12 17 -47
13z"/>
<path d="M6118 133 c6 -2 18 -2 25 0 6 3 1 5 -13 5 -14 0 -19 -2 -12 -5z"/>
<path d="M2946 105 c-17 -17 -36 -20 -36 -5 0 6 -4 10 -10 10 -14 0 -12 -11 5
-34 14 -19 15 -19 40 8 14 15 25 29 25 32 0 8 -9 4 -24 -11z"/>
<path d="M3155 110 c-3 -5 -1 -10 4 -10 6 0 11 5 11 10 0 6 -2 10 -4 10 -3 0
-8 -4 -11 -10z"/>
<path d="M6198 113 c7 -3 16 -2 19 1 4 3 -2 6 -13 5 -11 0 -14 -3 -6 -6z"/>
<path d="M2412 103 c-19 -4 -20 -6 -8 -19 18 -18 26 -18 26 0 0 8 8 17 18 19
22 6 -5 6 -36 0z"/>
<path d="M3080 100 c0 -5 5 -10 10 -10 6 0 10 5 10 10 0 6 -4 10 -10 10 -5 0
-10 -4 -10 -10z"/>
<path d="M1875 90 c-3 -5 3 -10 14 -10 12 0 21 5 21 10 0 6 -6 10 -14 10 -8 0
-18 -4 -21 -10z"/>
<path d="M2119 87 c-9 -7 -18 -21 -21 -32 -3 -19 -4 -19 -23 3 -23 26 -35 28
-35 7 0 -8 -5 -15 -11 -15 -6 0 -9 -8 -7 -17 2 -10 7 -16 12 -15 5 2 12 -2 17
-10 6 -10 11 -10 21 0 6 6 22 12 35 12 20 0 22 4 17 24 -4 16 -1 25 10 29 9 4
16 11 16 17 0 13 -11 12 -31 -3z m-39 -56 c0 -5 -9 -7 -20 -4 -11 3 -20 7 -20
9 0 2 9 4 20 4 11 0 20 -4 20 -9z"/>
<path d="M2165 90 c3 -5 8 -10 11 -10 2 0 4 5 4 10 0 6 -5 10 -11 10 -5 0 -7
-4 -4 -10z"/>
<path d="M2242 80 c-16 -25 -15 -30 3 -30 9 0 12 6 9 15 -4 9 0 15 10 15 9 0
16 5 16 10 0 17 -25 11 -38 -10z"/>
<path d="M6255 90 c3 -5 8 -10 11 -10 2 0 4 5 4 10 0 6 -5 10 -11 10 -5 0 -7
-4 -4 -10z"/>
<path d="M1034 79 c-4 -7 2 -9 16 -7 17 2 24 -3 26 -19 4 -24 -16 -36 -37 -22
-12 7 -12 9 1 9 11 0 11 3 2 12 -9 9 -16 7 -32 -7 -20 -18 -27 -45 -12 -45 4
0 13 5 20 12 9 9 12 9 12 0 0 -18 50 -15 57 4 3 8 12 13 19 10 23 -9 16 12
-13 39 -30 27 -48 31 -59 14z"/>
<path d="M1183 83 c-17 -6 -16 -23 1 -23 7 0 21 -11 30 -25 15 -23 15 -25 1
-25 -9 0 -14 4 -10 9 3 5 1 12 -5 16 -5 3 -10 -3 -10 -14 0 -14 6 -21 20 -21
30 0 38 30 13 49 -11 9 -18 22 -15 29 4 12 -4 14 -25 5z"/>
<path d="M1227 83 c-8 -7 11 -43 22 -43 10 0 3 38 -9 45 -4 2 -10 2 -13 -2z"/>
<path d="M1270 78 c1 -18 29 -53 36 -45 4 4 1 13 -6 22 -7 8 -8 15 -2 15 5 0
12 -7 16 -15 3 -8 15 -15 26 -15 34 0 22 -19 -17 -26 -25 -5 -38 -3 -41 5 -5
16 -22 14 -22 -4 0 -11 13 -15 54 -15 62 0 76 16 44 50 -31 34 -88 52 -88 28z"/>
<path d="M1385 80 c-3 -5 1 -10 9 -10 8 0 18 5 21 10 3 6 -1 10 -9 10 -8 0
-18 -4 -21 -10z"/>
<path d="M1440 84 c0 -3 7 -12 16 -21 14 -14 17 -14 32 2 16 16 16 17 -5 10
-14 -4 -23 -2 -23 4 0 6 -4 11 -10 11 -5 0 -10 -3 -10 -6z"/>
<path d="M1585 80 c3 -5 8 -10 11 -10 2 0 4 5 4 10 0 6 -5 10 -11 10 -5 0 -7
-4 -4 -10z"/>
<path d="M1636 74 c-9 -24 -7 -28 9 -14 17 14 20 30 6 30 -5 0 -12 -7 -15 -16z"/>
<path d="M1670 82 c0 -4 20 -6 45 -4 37 3 44 1 39 -11 -4 -10 -16 -14 -39 -13
-19 2 -32 0 -30 -4 6 -10 56 -7 73 3 6 5 17 5 23 2 5 -4 18 0 27 8 9 8 24 17
32 20 10 4 8 6 -6 6 -12 1 -27 -6 -34 -14 -12 -14 -15 -14 -30 0 -17 15 -100
22 -100 7z"/>
<path d="M1943 83 c9 -2 25 -2 35 0 9 3 1 5 -18 5 -19 0 -27 -2 -17 -5z"/>
<path d="M3440 79 c0 -5 5 -7 10 -4 6 3 10 8 10 11 0 2 -4 4 -10 4 -5 0 -10
-5 -10 -11z"/>
<path d="M6180 80 c-8 -5 -10 -10 -5 -10 6 0 17 5 25 10 8 5 11 10 5 10 -5 0
-17 -5 -25 -10z"/>
<path d="M780 70 c0 -5 12 -10 26 -10 14 0 23 4 19 10 -3 6 -15 10 -26 10 -10
0 -19 -4 -19 -10z"/>
<path d="M850 70 c0 -5 5 -10 10 -10 6 0 10 5 10 10 0 6 -4 10 -10 10 -5 0
-10 -4 -10 -10z"/>
<path d="M950 70 c-9 -6 -10 -10 -3 -10 6 0 15 5 18 10 8 12 4 12 -15 0z"/>
<path d="M990 65 c-7 -8 -9 -15 -6 -15 4 0 14 7 22 15 9 8 11 15 6 15 -5 0
-15 -7 -22 -15z"/>
<path d="M1130 65 c-14 -16 -10 -18 14 -9 9 3 16 10 16 15 0 14 -16 11 -30 -6z"/>
<path d="M1348 73 c7 -3 16 -2 19 1 4 3 -2 6 -13 5 -11 0 -14 -3 -6 -6z"/>
<path d="M1526 71 c-4 -5 3 -7 14 -4 23 6 26 13 6 13 -8 0 -17 -4 -20 -9z"/>
<path d="M2200 70 c0 -5 5 -10 10 -10 6 0 10 5 10 10 0 6 -4 10 -10 10 -5 0
-10 -4 -10 -10z"/>
<path d="M2588 68 c9 -9 15 -9 24 0 9 9 7 12 -12 12 -19 0 -21 -3 -12 -12z"/>
<path d="M2943 50 c-9 -16 -29 -34 -43 -40 l-25 -10 25 6 c14 3 34 7 45 7 11
1 25 5 31 9 6 4 23 5 37 3 14 -3 29 -1 32 5 3 5 0 10 -7 11 -7 0 -24 2 -37 5
-14 2 -28 -1 -32 -8 -13 -21 -21 -1 -9 21 17 32 3 25 -17 -9z"/>
<path d="M3941 64 c0 -11 3 -14 6 -6 3 7 2 16 -1 19 -3 4 -6 -2 -5 -13z"/>
<path d="M5175 70 c3 -5 8 -10 11 -10 2 0 4 5 4 10 0 6 -5 10 -11 10 -5 0 -7
-4 -4 -10z"/>
<path d="M5801 72 c-19 -6 -51 -35 -51 -44 0 -15 17 -8 45 18 28 26 30 35 6
26z"/>
<path d="M90 56 c17 -17 11 -28 -10 -21 -11 4 -20 2 -20 -4 0 -6 -11 -11 -24
-11 -34 0 -40 -15 -8 -17 14 0 32 6 39 15 9 13 12 13 13 3 0 -8 7 -11 20 -8
13 3 18 1 13 -6 -4 -7 0 -8 11 -4 10 4 20 7 22 7 2 0 4 5 4 11 0 5 -4 7 -10 4
-5 -3 -10 -1 -10 4 0 6 4 11 9 11 14 0 31 -26 23 -36 -4 -5 2 -1 14 9 25 21
41 23 25 3 -10 -12 -8 -14 16 -11 15 2 30 5 33 6 3 1 11 3 19 3 8 1 16 7 19
15 3 10 -1 12 -17 8 -14 -3 -21 0 -21 9 0 8 -6 14 -14 14 -8 0 -22 3 -32 7
-13 5 -16 3 -11 -10 3 -9 2 -17 -3 -17 -6 0 -10 4 -10 9 0 5 -22 11 -50 13
-31 2 -46 0 -40 -6z m150 -26 c0 -5 -5 -10 -11 -10 -5 0 -7 5 -4 10 3 6 8 10
11 10 2 0 4 -4 4 -10z"/>
<path d="M290 55 c0 -8 4 -15 9 -15 5 0 14 7 21 15 10 13 9 15 -9 15 -12 0
-21 -6 -21 -15z"/>
<path d="M418 63 c7 -3 16 -2 19 1 4 3 -2 6 -13 5 -11 0 -14 -3 -6 -6z"/>
<path d="M441 50 c-13 -11 -19 -20 -14 -20 6 0 18 9 28 20 23 25 17 25 -14 0z"/>
<path d="M490 60 c0 -5 -10 -18 -22 -30 -12 -11 -18 -20 -12 -20 13 1 50 30
38 31 -5 0 5 7 21 14 l30 14 -27 1 c-16 0 -28 -4 -28 -10z"/>
<path d="M600 60 c0 -5 7 -10 15 -10 8 0 15 5 15 10 0 6 -7 10 -15 10 -8 0
-15 -4 -15 -10z"/>
<path d="M3060 60 c0 -5 5 -10 11 -10 5 0 7 5 4 10 -3 6 -8 10 -11 10 -2 0 -4
-4 -4 -10z"/>
<path d="M3400 55 c0 -8 7 -15 16 -15 14 0 14 3 4 15 -7 8 -14 15 -16 15 -2 0
-4 -7 -4 -15z"/>
<path d="M6109 53 c-13 -17 -13 -17 6 -3 11 8 22 16 24 17 2 2 0 3 -6 3 -6 0
-17 -8 -24 -17z"/>
<path d="M0 43 c0 -14 2 -15 9 -4 5 7 13 11 18 8 5 -3 15 -2 23 4 11 6 6 9
-17 9 -25 0 -33 -4 -33 -17z"/>
<path d="M1390 50 c0 -5 4 -10 9 -10 6 0 13 5 16 10 3 6 -1 10 -9 10 -9 0 -16
-4 -16 -10z"/>
<path d="M1496 51 c-3 -5 1 -14 8 -20 12 -10 13 -8 9 8 -6 23 -9 25 -17 12z"/>
<path d="M1965 45 c-16 -7 -24 -14 -17 -14 7 -1 11 -5 7 -10 -3 -5 0 -13 6
-17 6 -3 15 -1 19 6 4 7 13 9 19 6 6 -4 11 -2 11 3 0 6 -8 11 -17 11 -16 1
-16 2 1 15 24 19 11 19 -29 0z"/>
<path d="M665 40 c-3 -5 1 -10 10 -10 9 0 13 5 10 10 -3 6 -8 10 -10 10 -2 0
-7 -4 -10 -10z"/>
<path d="M710 35 c-8 -9 -8 -15 -2 -15 12 0 26 19 19 26 -2 2 -10 -2 -17 -11z"/>
<path d="M890 35 c0 -8 0 -18 -1 -22 0 -4 3 -9 8 -10 4 -2 9 8 9 22 1 14 -2
25 -7 25 -5 0 -9 -7 -9 -15z"/>
<path d="M1536 41 c-7 -10 22 -37 30 -28 4 3 -1 13 -9 22 -9 8 -18 11 -21 6z"/>
<path d="M1825 40 c-3 -5 1 -10 9 -10 9 0 16 5 16 10 0 6 -4 10 -9 10 -6 0
-13 -4 -16 -10z"/>
<path d="M2790 35 c0 -8 4 -15 10 -15 5 0 7 7 4 15 -4 8 -8 15 -10 15 -2 0 -4
-7 -4 -15z"/>
<path d="M3540 36 c0 -9 5 -16 10 -16 6 0 10 4 10 9 0 6 -4 13 -10 16 -5 3
-10 -1 -10 -9z"/>
<path d="M4712 30 c7 -11 16 -20 20 -20 5 0 3 9 -4 20 -7 11 -16 20 -20 20 -5
0 -3 -9 4 -20z"/>
<path d="M6320 29 c-16 -29 -9 -30 20 -3 20 19 21 24 8 24 -10 0 -22 -9 -28
-21z"/>
<path d="M305 24 c-9 -9 -13 -19 -10 -23 4 -3 12 1 18 9 7 9 20 14 30 12 9 -2
17 1 17 7 0 17 -37 13 -55 -5z"/>
<path d="M780 31 c0 -8 -7 -11 -15 -7 -8 3 -15 1 -15 -4 0 -5 -10 -11 -22 -13
-13 -2 -6 -4 14 -4 34 0 58 20 43 35 -3 3 -5 0 -5 -7z"/>
<path d="M2390 33 c0 -9 31 -35 36 -31 9 9 -7 35 -21 35 -8 0 -15 -2 -15 -4z"/>
<path d="M2640 30 c0 -5 5 -10 11 -10 5 0 7 5 4 10 -3 6 -8 10 -11 10 -2 0 -4
-4 -4 -10z"/>
<path d="M2830 29 c0 -5 5 -7 10 -4 6 3 10 8 10 11 0 2 -4 4 -10 4 -5 0 -10
-5 -10 -11z"/>
<path d="M3660 30 c0 -13 11 -13 30 0 12 8 11 10 -7 10 -13 0 -23 -4 -23 -10z"/>
<path d="M5844 31 c5 -8 3 -17 -5 -22 -10 -6 -8 -9 9 -9 26 0 28 12 5 31 -14
12 -15 12 -9 0z"/>
<path d="M6146 24 c-8 -21 -1 -28 19 -20 9 3 15 11 13 18 -7 19 -25 20 -32 2z"/>
<path d="M6256 25 c-11 -8 -18 -17 -15 -19 7 -7 49 13 49 24 0 14 -11 12 -34
-5z"/>
<path d="M850 20 c0 -5 5 -10 10 -10 6 0 10 5 10 10 0 6 -4 10 -10 10 -5 0
-10 -4 -10 -10z"/>
<path d="M927 15 c-5 -10 0 -15 14 -15 12 0 19 5 17 12 -6 18 -25 20 -31 3z"/>
<path d="M1137 23 c-14 -13 -6 -23 19 -23 23 0 24 2 10 15 -16 17 -20 18 -29
8z"/>
<path d="M1462 19 c2 -7 10 -15 17 -17 8 -3 12 1 9 9 -2 7 -10 15 -17 17 -8 3
-12 -1 -9 -9z"/>
<path d="M1602 16 c13 -14 28 -12 28 5 0 5 -9 9 -20 9 -17 0 -19 -2 -8 -14z"/>
<path d="M1647 17 c-3 -8 8 -13 34 -13 24 -1 39 3 39 11 0 16 -67 18 -73 2z"/>
<path d="M2200 20 c0 -11 48 -25 56 -17 4 3 3 11 -1 17 -6 9 -10 9 -16 -1 -6
-10 -9 -11 -9 -1 0 6 -7 12 -15 12 -8 0 -15 -4 -15 -10z"/>
<path d="M2355 20 c3 -5 8 -10 11 -10 2 0 4 5 4 10 0 6 -5 10 -11 10 -5 0 -7
-4 -4 -10z"/>
<path d="M3080 20 c-8 -5 -11 -12 -7 -16 4 -4 13 -2 19 4 15 15 7 24 -12 12z"/>
<path d="M3230 26 c0 -2 7 -9 15 -16 13 -11 14 -10 9 4 -5 14 -24 23 -24 12z"/>
<path d="M4475 20 c-3 -5 -1 -10 4 -10 6 0 11 5 11 10 0 6 -2 10 -4 10 -3 0
-8 -4 -11 -10z"/>
<path d="M5275 20 c3 -5 13 -10 21 -10 8 0 12 4 9 10 -3 6 -13 10 -21 10 -8 0
-12 -4 -9 -10z"/>
<path d="M5656 15 c-3 -8 -1 -15 3 -15 5 0 11 7 15 15 3 8 1 15 -3 15 -5 0
-11 -7 -15 -15z"/>
<path d="M5805 20 c3 -5 8 -10 11 -10 2 0 4 5 4 10 0 6 -5 10 -11 10 -5 0 -7
-4 -4 -10z"/>
<path d="M6386 21 c-4 -7 -5 -15 -2 -18 9 -9 19 4 14 18 -4 11 -6 11 -12 0z"/>
<path d="M645 10 c-3 -5 -1 -10 4 -10 6 0 11 5 11 10 0 6 -2 10 -4 10 -3 0 -8
-4 -11 -10z"/>
<path d="M1740 9 c0 -5 5 -7 10 -4 6 3 10 8 10 11 0 2 -4 4 -10 4 -5 0 -10 -5
-10 -11z"/>
<path d="M2290 10 c0 -5 5 -10 10 -10 6 0 10 5 10 10 0 6 -4 10 -10 10 -5 0
-10 -4 -10 -10z"/>
<path d="M2525 10 c-3 -5 -1 -10 4 -10 6 0 11 5 11 10 0 6 -2 10 -4 10 -3 0
-8 -4 -11 -10z"/>
<path d="M2560 10 c-13 -8 -13 -10 2 -10 9 0 20 5 23 10 8 13 -5 13 -25 0z"/>
<path d="M3635 10 c3 -5 8 -10 11 -10 2 0 4 5 4 10 0 6 -5 10 -11 10 -5 0 -7
-4 -4 -10z"/>
<path d="M4685 10 c3 -5 8 -10 11 -10 2 0 4 5 4 10 0 6 -5 10 -11 10 -5 0 -7
-4 -4 -10z"/>
<path d="M5575 10 c-30 -8 -30 -8 8 -9 20 0 37 4 37 9 0 11 -2 11 -45 0z"/>
<path d="M5896 9 c6 -11 54 -12 54 -1 0 4 -13 7 -30 8 -16 1 -27 -3 -24 -7z"/>
<path d="M6050 10 c0 -6 7 -10 15 -10 8 0 15 2 15 4 0 2 -7 6 -15 10 -8 3 -15
1 -15 -4z"/>
<path d="M803 3 c9 -2 23 -2 30 0 6 3 -1 5 -18 5 -16 0 -22 -2 -12 -5z"/>
<path d="M1898 3 c6 -2 18 -2 25 0 6 3 1 5 -13 5 -14 0 -19 -2 -12 -5z"/>
<path d="M3688 3 c7 -3 16 -2 19 1 4 3 -2 6 -13 5 -11 0 -14 -3 -6 -6z"/>
<path d="M6098 3 c7 -3 16 -2 19 1 4 3 -2 6 -13 5 -11 0 -14 -3 -6 -6z"/>
</g>
</svg>
