<?xml version="1.0" standalone="no"?>
<!DOCTYPE svg PUBLIC "-//W3C//DTD SVG 20010904//EN"
 "http://www.w3.org/TR/2001/REC-SVG-20010904/DTD/svg10.dtd">
<svg version="1.0" xmlns="http://www.w3.org/2000/svg"
 width="1024.000000pt" height="2288.000000pt" viewBox="0 0 1024.000000 2288.000000"
 preserveAspectRatio="xMidYMid meet">

<g transform="translate(0.000000,2288.000000) scale(0.100000,-0.100000)"
fill="#000000" stroke="none">
<path d="M255 22786 c-67 -29 -105 -106 -90 -183 11 -61 115 -149 115 -98 0 8
-7 15 -15 15 -15 0 -68 51 -60 58 2 2 16 -5 31 -17 21 -17 30 -19 41 -9 12 9
9 13 -16 24 -36 15 -45 41 -36 102 l6 47 89 0 89 0 7 -51 c7 -59 -5 -91 -39
-99 -19 -5 -22 -11 -19 -46 5 -50 21 -50 71 0 126 126 -12 328 -174 257z"/>
</g>
</svg>
