<svg version="1.0" xmlns="http://www.w3.org/2000/svg" width="1573.333" height="866.667" viewBox="0 0 1180 650"><path d="M111 1c1.9 1.3 3 1.3 3 0 0-.6-1-1-2.2-1-1.9 0-2 .2-.8 1zm95 2.4c-1.9 6 1.6 10.6 8.2 10.6 1.1 0 3.7 1.3 5.8 3 2.1 1.6 4.5 3 5.3 3 2.3 0 6.9 2.1 8.8 4 .9.9 1.9 3.8 2.3 6.4.4 2.7 1 5.4 1.3 6.1.7 2-8.2 5.6-11 4.6-3.1-1.1-4.7-.3-4.7 2.5 0 1.8-.7 2.5-2.7 3-1.6.3-4.2 1-5.9 1.5-1.8.6-3.7.8-4.4.7-1.2-.3-2.4 1.3-3.4 4.5-.4 1.1-1.5 2.1-2.5 2.4-1.1.3-2.2 1.6-2.5 2.9-.5 1.7-1.3 2.4-3.1 2.4-3.3 0-3.8-1.3-1.9-5.8.8-2.2 1.4-5.5 1.2-7.4-.2-2.7-.8-3.4-2.8-3.6-1.4-.2-3.4-.7-4.5-1.2s-3.1-1-4.5-1.2c-2.3-.3-2.5-.7-2.5-4.8 0-2.5.4-6.3.8-8.5.6-3.4.3-4.5-1.8-7l-2.5-3-2.2 2.7c-1.3 1.4-4.2 3.6-6.5 4.7-4.6 2.3-4.9 3-3.2 6.3 1.5 2.7-1.7 9.8-4.5 9.8-1.3 0-1.6.5-1.2 1.7.4.9.2 1.9-.3 2.3-1.1.6-1.5 2.9-1.3 7.2.2 2.1.7 2.8 2.2 2.8 2.7 0 2.5 2.4-.5 5.4-1.4 1.4-2.5 2.2-2.5 1.7 0-.4-2.2-1.3-5-2-3.3-.8-5.6-2.2-6.9-3.9-1.4-2-2.7-2.6-4.9-2.4-2.5.2-3.4-.4-5.2-3.2-1.2-2-2-4.7-1.8-6.3.3-2.3-.3-3-3.2-4.4-2-.9-4.2-2.9-4.9-4.3-1.7-3.1-1.9-3.1-4.9-.6-2.2 1.8-2.2 2-.7 4.4.9 1.3 3 2.9 4.6 3.5 1.6.5 3.2 1.7 3.5 2.5.3.9 1 1.3 1.5 1.1 1.6-1 4 6.9 4.5 14.9.6 9.3-.2 14-2.2 13.2-.7-.3-1.6-.1-1.9.4-.4.6-2.8 1-5.4 1-3.8 0-5.2-.5-7.1-2.5-2.5-2.7-4-3.2-4-1.3 0 .6-.7 1.9-1.6 2.9-1.2 1.4-1.3 2.2-.4 3.8.6 1.2 1.6 2.1 2.1 2.1.7 0 .9 1 .5 2.4-.6 2.3-.3 2.5 3.8 3.1 2.5.4 5.3 1.6 6.2 2.6.9 1 2.3 1.9 2.9 1.9 2.3 0 6.3 4 7 6.9.3 1.6 1.7 3.9 3 5.1 1.6 1.5 2.1 2.7 1.6 3.4-.5.6-.8 2.9-.8 5.1.1 2.2-.2 5.2-.6 6.7-.7 2.5-1.2 2.8-5 2.8-2.4 0-4.8.5-5.4 1.1-.7.7-1.7.7-2.9.1-1.1-.6-3.4-1.6-5.2-2.3-5.3-1.9-8.2-4.7-8.2-7.9 0-4.5-1-6-3.9-6-4.6 0-7.3-2.7-6.9-6.8.2-2.6-.1-3.7-1.2-4-1.2-.2-1.5.8-1.6 4.5-.1 7.4-1.7 10.3-5.7 10.3-4.4 0-7.4-2.3-8.2-6.3-.6-2.5-3-7.5-5.1-10.5-.1-.2-1.7.6-3.5 1.7C74 97.1 71.4 98 70 98c-2.5-.1-9.6-5.5-10.2-7.8-.2-.7-2.1-3.2-4.3-5.7-3.1-3.5-4.1-4.1-4.8-3-.4.8-.7 2.1-.5 2.7.3 1.9-1.2 5.8-2.3 5.8-.5 0-.9.6-.9 1.4 0 2.2-4 4.6-7.7 4.6-5.1 0-10.4 7-7.1 9.4.8.6 1.7 1.7 1.9 2.4.3 1 1.6.4 4.3-1.7 3-2.4 4.9-3.1 8.2-3.1 2.3 0 4.6.5 4.9 1 .5.8 1.1.7 2 0 1-.8 1.9-.9 3.2-.1 1.6.9 1.6 1-.5 1.1-3.8 0-1.9 2.4 2.4 3.1 4.5.6 8.4 2.5 8.4 4.1 0 .6 1.8 2.8 4 4.8 4.5 4.2 4.9 6.5 2 11.2-2.7 4.4-2.5 5.2 1.3 6.3 2.5.8 3.3 1.6 3.5 3.7.3 2.2-.1 2.8-1.7 2.8-1.1 0-3.1 1.1-4.5 2.5-2 2-2.3 3.1-1.9 6.7.3 2.4.8 4.5 1 4.8.3.3-2.6 1-6.4 1.5l-6.8 1-.5 9c-.5 8.3-.7 9-3 10.2-1.4.7-3.7 1.3-5.1 1.3-2.3 0-2.9.8-4.7 5.7-3.1 8.4-4.5 16-3.9 20.5.4 3.1.1 4.3-1.4 5.6-1 .9-1.9 2.2-1.9 2.9 0 .7-.3 1.3-.8 1.3-1.1 0-7.9 6.3-9 8.4-.6 1.2-.6 3 .1 5.3.8 2.6.8 3.6-.2 4.2-.9.6-.5 1.3 1.3 2.4 1.4 1 2.9 1.7 3.4 1.7.4 0 2.3 1.1 4.2 2.5l3.4 2.5 1.9-2.1c1-1.1 1.6-2.6 1.4-3.3-.3-.8 0-1.9.6-2.5.8-.8.7-1.1-.6-1.1-.9 0-1.7-.6-1.7-1.3 0-2.4 2.2-3.5 5.9-3 4.3.7 6.6 2.2 5.3 3.5-.6.6 0 1.9 1.5 3.4 1.9 1.9 2.2 2.8 1.3 4.4-.6 1.1-1.4 1.9-1.8 1.8-1.7-.3-7.2 2.5-7.2 3.7 0 1.8 1.7 2.8 2.5 1.5.4-.6 1.1-.8 1.6-.4 1.8 1.1-.1 2-4.8 2.3-2.6.1-5.3.7-5.9 1.2-.7.5-4.2.9-7.9.7-6.2-.3-6.7-.5-8.3-3.3-.9-1.7-2-3.1-2.4-3.3-.4-.2-2.4-1.9-4.4-3.8-2.1-1.9-5-3.9-6.5-4.6-1.4-.6-3.5-2.4-4.5-4-1.1-1.5-2.7-2.8-3.6-2.8C.1 228 0 238.7 0 439v211h560.9l2.1-6.6c1.1-3.6 2-7.6 2-8.9 0-1.2.7-3.6 1.6-5.4.9-1.7 1.7-3.7 1.8-4.4.2-.7.8-2.5 1.4-4 .7-1.5 1.1-3.1 1-3.5-.1-.4 1.5-4.1 3.5-8.2s3.7-7.2 3.7-6.9c0 .4-3.4 10.9-7.5 23.5s-7.5 23.2-7.5 23.6c0 .5 49 .8 108.9.8h108.9l1.2-3.4c1.2-3.6.5-8.6-1.2-8.6-.6 0-.8-1.3-.6-3 .3-1.6.1-3-.3-3-.3 0-.5-2-.4-4.5.2-2.7 0-4.3-.6-3.9-.6.3-.9-1-.8-3.3.1-2.1-.1-4.9-.5-6.2-.6-1.6-.5-2.1.3-1.7.6.4 1.1.1 1.1-.8 0-.8-.7-1.9-1.5-2.3-.8-.5-1.6-2.2-1.9-3.8-.2-1.7-.7-3.8-1.1-4.8-.4-.9-.4-2.4-.1-3.3.4-.9.3-2.2-.2-2.8-.4-.6-2.8-5.8-5.2-11.5-4.7-11.2-6.1-12.1-3.6-2.3 2.6 9.8 1.8 9.3-1.8-1.1-1.9-5.3-4.5-11.4-5.8-13.5-1.4-2-3-5.4-3.7-7.4-.7-2.1-1.7-4-2.1-4.3-.5-.3-1.4-2.5-2.1-4.8-.6-2.3-3.7-9.6-6.8-16.2-3.2-6.6-7-15.4-8.5-19.5s-3.2-8.5-3.7-9.8c-.5-1.3-.9-3.2-.9-4.3 0-1.1-1.5-5.2-3.4-9.2-1.9-4-3.8-8.4-4.1-10-.7-2.6-2.5-4.8-2.5-2.9 0 .5.9 3.5 2 6.8 1.1 3.2 2.2 7 2.5 8.4.2 1.4 1.4 5 2.8 8 3.6 8.2 4 9.4 3.9 10.2-.2.7 2.2 6.2 3.7 8.8.5.8 2.1 5.3 3.6 10s3.8 11.2 5.2 14.5c4.7 11.1 5.4 13.1 5.7 14.5.1.8.9 4.4 1.8 8 6.5 25.3 9 37.2 8.6 40-.2 2-4.3-11.3-7.1-23.5-.1-.6-.6-1-1.1-1-.8 0-3.5-4.4-3.6-5.8 0-.5.6-.5 1.3-.1.6.4.3-.2-.8-1.3-1.2-1.1-4-6-6.4-10.9-2.4-4.9-4.9-10-5.7-11.4-.7-1.4-2.6-5-4.1-8-1.5-3-3-5.7-3.4-6-.4-.3-.9-1.9-1.2-3.5-.4-2.9-.4-2.9-.6.5 0 1.9.4 5.1.9 7 1 3.5 3.9 16.6 4.5 20.5 1 6.2 2.8 14.1 3.5 15 1.3 1.8 2.1 6.5 1 6.5-.5 0-1-.8-1-1.8s-.6-2.6-1.3-3.7c-1.4-2-4.9-13.2-6.2-19.5-.4-1.9-2-7.6-3.5-12.5-1.5-5-3.1-10.3-3.4-11.8-.4-1.5-1.1-2.5-1.6-2.2-1.3.8-1.8-.5-2.5-6-.3-2.7-.9-5.2-1.3-5.5-.4-.3-.9-1.2-1.1-2-1.4-5.2-2.7-8-3.6-7.6-.6.2-1.1-.4-1.1-1.3-.1-.9-.3-2.3-.6-3.1-.3-.8-.3-1.2-.1-.8.3.5.9.8 1.3.8 1 0-.6-5.2-3-9.5-.9-1.7-2.2-4.1-2.9-5.4-1-1.9-1.5-2.1-2.2-1-.6 1-.9.7-.9-1.2 0-3-2.9-7.6-3-4.7 0 2.8-2 2.1-2-.6 0-1.4-.5-2.8-1.1-3.1-.5-.4-.8-1.2-.6-1.8.2-.7-.2-2.8-.9-4.7-2.2-6.1-3.5-22.7-2.5-31.5.6-4.4 1.3-11.4 1.6-15.5.3-4.1.6-8.2.7-9 0-.8 0-2.9-.1-4.5-.3-3-.3-3-1.7 1l-1.4 4 .6-4c1.2-7.1 1.3-20.9.3-24.5-1.9-6.3-3.5-17-2.7-17 .5 0 .6-.5.3-1-.4-.6-1.1-.8-1.6-.5-.5.3-.6-.1-.3-1 .5-1.3.2-1.5-2.2-.9-2.6.6-2.7.5-1.6-.8.9-1.1 1-1.8.2-2.3-.5-.3-1-1.1-1-1.6 0-.6.5-.7 1.2-.3.8.5.9.2.3-1.2-.4-1-.7-3.5-.6-5.4.1-2.2-.2-3.1-.7-2.5-1.3 1.4-4 23.3-3.5 27.2.3 1.8 1 3 1.5 2.7.6-.4.5.2-.1 1.4-.8 1.4-.8 2.3-.1 2.7.6.4.9 4.4.8 10-.2 5.7-.6 8.8-1.1 7.9-.5-.9-.6-2.1-.4-2.8.3-.7.1-1.9-.5-2.7-.6-.9-.7.4-.2 4.1 1.2 10.2 1.8 34.2.9 39.4-.4 2.1-.4 2.1 1.1.1 1.5-1.9 1.6-1.8 1 1.5-1.7 10.2-1.7 11.2.1 15.6 1 2.4 2.1 4.4 2.6 4.4.4 0 .7.5.7 1 0 .6-.6.9-1.2.8-.9-.2-1.4 1.3-1.6 4.2-.2 2.4-.7 4.7-1.2 5-.5.3-.5 3 0 6 .4 3 .8 4.7.9 3.7.1-1.5.7-1.9 2.7-1.6.4 0 1.1-.5 1.6-1.3.6-.9.8-.8.6.7-.2 1.6.2 1.9 2.5 1.7 1.5-.1 2.7.2 2.7.8 0 .5-.3 1-.7.9-2.8-.4-5.3 1.6-5.9 4.7-.5 2.8-.9 3.2-2 2.3-1.2-.9-1.4-.2-1.5 4.2 0 4.1-.3 4.9-1 3.4-.5-1.2-.7 6-.4 19.3.3 15.2.1 21-.7 20.6-.7-.5-.8-.2-.3.7 1.2 1.8 1.6 20.9.5 20.9-.5 0-.7.7-.4 1.5.3.8-.1 2.9-1 4.6-.9 1.8-1.6 4.5-1.6 6.1 0 1.5-.3 2.8-.7 2.8-.5 0-.9 2.4-.9 5.4-.1 2.9-.7 6.2-1.3 7.2-1.2 1.8-1.2 1.7-.8-.4.3-1.2.1-2.2-.4-2.2s-.9.6-.9 1.4c0 1.1-2 6.9-5 14.1-.5 1.1-1.2 3-1.5 4.3-.4 1.2-1 2-1.4 1.8-.4-.3-2 2.5-3.6 6.2s-3.7 7.8-4.7 9.1c-2.4 3.2-2.3 2 .2-2.1 1.1-1.8 2-4.6 2-6.1 0-1.6.4-2.6 1-2.2 1 .6 1.2.1 1.3-4.7.1-1.5.4-2.5.8-2.3.3.3 1.6-1.9 2.8-4.7 1.6-3.9 1.9-5.4 1-6.2-.9-.8-1-.8-.6 0 .9 1.6-1.5 6.4-3.2 6.4-.8 0-1.1.3-.8.6.4.4-.2 1.9-1.2 3.3s-2 3.1-2.2 3.8c-.9 2.7-11.5 15.3-12.9 15.3-1.3-.1-1.3-.2 0-1.3 4.7-3.8 14.4-18.2 13.4-19.9-.4-.7-.3-.8.4-.4s1.2.2 1.2-.3c0-2 .2-2.6 1.2-3.8.9-1.1 1.4-3.1 2.1-8.6.1-1 .9-2.2 1.7-2.7.8-.5 1.1-1.2.8-1.6-.4-.4-.3-1.5.3-2.6.6-1 .7-2.9.3-4.1-.6-1.9-.9-1.4-2.1 2.8-1.3 4.4-4.3 10.1-4.3 8.2 0-.4.9-4.2 2-8.5 2.9-11.4 3.2-20.9.9-33.4-1-5.9-2.4-11.9-3-13.5-.6-1.5-1.2-3.5-1.4-4.3-.2-.8-.8-2.6-1.4-4-.9-2.3-1-2.1-1.2 2-.4 7.2-.8 11.1-1.9 18-1.6 10.9-.9 28.5 1.6 36.2.3 1 .1 1.8-.4 1.8s-1.2-1-1.5-2.3c-3.2-14.4-3.8-18.5-3.8-28-.1-7.5.3-11.2 1.1-11.7.7-.5.8-1 .2-1.4-1.2-.7-.3-5.6 1-5.3.5.1 1.1-2 1.3-4.6.3-2.7.9-6.4 1.4-8.3.5-1.8.6-4.6.2-6.1-.8-2.7-.9-2.7-2 1.7-1.8 6.9-9.2 25.3-10.9 27.2-.8 1-1.2 1.8-.8 1.8.4 0-.2.9-1.2 2-1.1 1.2-2.7 4-3.7 6.3s-2.8 6.5-4.1 9.3c-1.2 2.8-2.8 7.1-3.4 9.5-.6 2.4-2.5 8.3-4 13.1-2.2 6.5-2.8 10-2.5 14 .3 4 .2 4.5-.3 1.8-.7-3.2-.9-2.9-2 4.3-.7 4.3-1.2 9.3-1.2 11.1 0 1.9-.7 4.7-1.5 6.2-1.5 2.8-1.6 2.7-1.1-3.1.3-3.3.9-8.9 1.3-12.5.4-3.6.8-8.1.8-10.2 0-2 .3-3.4.6-3.2.4.2 1-.3 1.3-1.2.4-1 .2-1.3-.6-.8-.6.4-.8.3-.5-.3.4-.6.9-3.6 1.3-6.8.5-5.3 8.1-25.5 10.5-28 .5-.5.9-1.4.9-2-.1-.5-1.2.3-2.6 2-2.5 2.9-2.5 2.9-1.8.5.3-1.4.9-2.7 1.3-3 1.6-1.3 5.2-10.5 7.7-19.5 1.5-5.5 3.2-10.3 3.8-10.7.8-.5.7-1.1-.1-1.9-.8-.8-1.4-.5-2.4 1.2-.7 1.3-1.2 2.5-1.1 2.6.7 1.1-.1 2.1-1.2 1.7-1-.4-2 .6-3 3-2 4.8-4.8 4.9-3 .1.5-1.3.8-1.4 1.5-.3.6.9.9.7.9-.9 0-1.2.3-3 .6-4 .4-1.3 0-1.1-1.5.7l-2.1 2.5 1-3.5c1.3-4.4 1.3-5.3 0-4.5-.6.3-1.1 0-1.2-.7-.1-1.4-.4-3-.8-3.8-1.4-4-.7-8.8 3.5-24.5 1.6-6.3 2.7-13.3 2.9-19 .2-5 .7-11 1.1-13.5 1.1-6.5-.2-4.5-2.5 3.8-2.3 8.4-2.4 8.5-.9 7.6.7-.4 1-.1.7.7-.3.8-1 1.3-1.6 1.2-.5-.1-.9.3-.9 1 .1 3.4-.4 4.8-1.5 4.1-.8-.5-.9-.2-.5.9.3.9.2 1.9-.2 2.1-.5.3-1.4 5-2.1 10.3-.7 5.4-1.6 10.4-2 11.1-1.3 2.5.5-22.5 2-27.3 4.5-14.2 8.2-33.1 7.5-37.6-.4-2.2-.3-3.9.2-3.9 1.2 0 1.2-.2 1.7-11.4.4-8.9.4-9-1.5-6.5-2.2 2.9-2.5 1.9-.5-1.9 1-2 1.3-5.2 1-11.2-.5-8.5 1.8-23 3.6-23 .7 0 1.5 1.7 3 7 .7 2.4.8 2.4.9.2 0-1.2.6-2.2 1.2-2.2s.9.9.6 2c-.3 1.1-.1 2.3.4 2.6.5.3.9-.5.9-1.6 0-2.1 2.2-6.8 4.6-10 .6-.8 1.6-3.8 2.2-6.5.6-2.8 1.6-7.7 2.4-11l1.3-6 .6 4c.3 2.3 0 4.9-.6 6-.7 1.1-1.5 4.2-1.8 7-.3 2.7-.9 6.5-1.3 8.4-.5 2.3-.4 3.2.4 2.8 1.1-.7 2-5.5 2.4-11.9.1-2 .6-3.4 1.1-3.1.9.5.3 8.6-.9 11.9-.5 1.3-.4 1.6.3.9 1.6-1.6 4.9-13.6 5.7-20.8.6-5.4 2.6-10.7 4.7-12.8 2-2 2.7-6.5.8-5.4-.7.5-.7.2 0-1.1.6-1.1 1.4-7.3 1.8-13.8.5-7.3 1.2-12.1 1.9-12.3.7-.2 1 .6.7 2.2-.6 3.1 1.3 3.4 2 .2.3-1.2.4-4.5.1-7.2-.2-2.8 0-7 .3-9.5l.7-4.5.8 3.5c.5 1.9.9 7.8.9 13 0 6.2.4 8.8.9 7.5.5-1.1.9-4.8.9-8.3.1-3.5.5-6.2 1.1-6.2.7 0 .7-.6 0-1.9-1.3-2.6-1.3-4.4.2-3.5.7.5.9.1.6-1.3-.3-1.1-.1-2.8.4-3.7.6-1 .5-1.6-.2-1.6-.5 0-1 .4-1 1 0 .5-.5 1-1 1-.6 0-.3-1.1.6-2.5 1.3-2 1.8-2.2 2.9-1.1.7.7 1.5 2.6 1.8 4.3.3 1.7 1.5 5.2 2.8 7.9 3.3 7.1 3.3 7.2 0 3.4-1.7-1.9-3.1-2.9-3.1-2.3 0 .7 1 2.3 2.1 3.4 1.2 1.2 1.7 2.4 1.2 2.8-1.1.8-.9 5.9.7 13.6.7 3.3 1.3 7.3 1.4 9 .1 2 .6 2.9 1.5 2.7 1.1-.2 1.2 0 .4 1-1.5 1.8.9 4.2 2.6 2.5 1.6-1.6 1.3.5-.4 2.7-1.7 2.2-1.1 8 1.3 13.6.9 1.9 1.5 3.8 1.4 4.2-.1.4.4 2.1 1.2 3.9l1.3 3.1.7-2.7c.4-1.6.2-3.3-.5-4.1-.6-.8-1.1-4.5-1.1-8.4 0-3.9-.3-6.8-.8-6.5-1.7 1.1-1.7-2.4.1-7.8 1.7-5.2 1.8-6 .4-9.9-.8-2.4-1.5-5-1.5-5.9 0-.9-.7-2.2-1.5-2.9-.8-.7-1.2-1.6-.9-2.1.3-.5-.8-1.7-2.5-2.7-3.5-2-3.8-2.7-1.4-3.6 1.1-.5 2.3 0 3.2 1.1 1.3 1.7 1.3 1.7.6-.2-.4-1.1-.8-2.7-.9-3.5-.1-.9-.6-2.2-1.1-2.9-.5-1-.4-1.2.4-.7s1 .1.7-1.6c-.3-1.2-1-5-1.7-8.3-.6-3.3-1.9-8.5-2.9-11.5s-2.1-6.9-2.3-8.5c-.8-4.1-3.5-16.4-4.5-20-.8-2.7-.9-2.3-1.5 3.2-.4 3.5-1.4 7.9-2.2 9.9-.8 2-1.5 4.9-1.5 6.5 0 1.5-.4 3.1-1 3.4-.5.3-1 0-1-.7 0-.9-.2-1-.8-.1-.4.6-.6-1.8-.6-5.3.1-3.5-.2-6.4-.6-6.4-.9 0-4 7.3-4 9.4 0 1.9-3 7.6-4 7.6-.4 0-.6-1-.2-2.2.3-1.4.2-1.9-.6-1.4-.7.4-1.2 1.6-1.2 2.6s-.5 2.2-1 2.5c-.6.3-1-.5-1-1.9s-.4-2.8-1-3.1c-.5-.3-1 .2-1 1.2 0 1.1-.4 2.3-.9 2.9-.5.5-1.2 1.8-1.5 2.9-.3 1.1-.3-.3-.1-3 .3-2.9-.1-5.9-.8-7.2-1.1-2-1.5-.7-3.5 11-3.1 17.7-3.1 17.9-4.2 17.2-1-.6-2.1 4.3-2.3 9.9 0 1.9-.3 3.3-.6 3-.5-.4-.6-1.6-1-8.2-.1-2.8-1.6-2.1-4.2 2.2l-1.9 3.1v-3.4c0-4.9-.7-3.5-1.5 2.9-.4 3-1.1 6.2-1.6 7-.7 1.1-.8.6-.4-1.5.3-1.7 1.2-8.4 2-15 .7-6.6 2.1-16.9 2.9-22.9 1.4-10 1.4-22.4 0-24.7-.3-.5 0-.9.6-.9.8 0 .9-.7.5-1.8-.4-.9-1.1-6.2-1.5-11.7-.7-10.5-4.6-26.9-6.1-25.9-.5.3-.6-.2-.3-1s-.2-2.8-1.1-4.5c-.8-1.7-1.8-4.9-2-7.1-.4-4.2-2.3-7-4.9-7-.8 0-1.8-.5-2.1-1-1.6-2.5-2.2.5-.9 4.2.7 2.2 1.4 5 1.4 6.2-.1 3.1-3.9-5.2-4-8.5 0-2.7-1.6-4.9-3.7-4.9-.9 0-1.3 1.6-1.3 4.9 0 2.8-.5 5.3-1.1 5.7-.8.4-1-1.2-.7-5.4.3-5.4.1-6.2-1.7-6.6-3.7-1-7.7-.7-7.2.6.2.7 1.1 1.2 2.1 1 .9-.2 1.6.2 1.6.8 0 .8.6.8 2 0 1.7-.9 2-.8 1.9.7-.2 3.7-1.5 6.8-2.3 5.5-.4-.6-.5-1.6-.2-2.1s0-1.1-.7-1.4c-2.7-1 0 21 2.9 23.3.7.7 1.4 2 1.4 3 0 .9.8 2.8 1.9 4.1 1 1.3 2.1 3.1 2.5 3.9.3.8.4-.3.1-2.5l-.4-4 1.2 3.3c.7 1.8 1.6 3 2 2.6.4-.4 1.4.1 2.2 1.2 1.4 1.8 1.4 1.8 1.5-.4 0-1.3.4-2 1-1.7.7.4.7-.3 0-2-.6-1.5-.9-4.3-.9-6.3l.1-3.7 1.1 4.2c.5 2.4 1.4 4.3 1.8 4.3.5 0 .6-.8.3-1.8-.4-1.4-.4-1.4.4-.2.5.8 1.2 3.9 1.5 6.9.4 2.9 1 5.8 1.6 6.5.5.6 1.4 3.7 2.1 7 1.1 5.6 2.2 6.3 3.4 2.1.3-1.1.3-.2.1 2-.2 2.2.2 6.5 1 9.5 2 7.6 2.9 16 1.6 16-.5 0-1.2 1.2-1.4 2.7-.4 2.5-.4 2.4-.6-.7-.7-9.7-1.8-7.1-1.7 4 0 6.9-.5 14.2-1.1 16.4-.7 2.4-.8 4.7-.3 6.2.6 1.4.5 2.4-.2 2.6-.6.2-1 3-.9 6.5 0 4.5-.3 6.3-1.4 6.7-1 .4-1.5-.2-1.6-1.7-.1-1.2-.5-.4-.9 1.8l-.7 4-.3-4c-.2-2.2-.3-4.7-.2-5.5.3-2.7-2.7-21.4-4.2-26.5-3.9-13.2-9.5-26.7-11.7-28.1-1.3-.7.1 8.5 1.7 12 1.6 3.3.9 5-.9 2.5-1-1.4-1.4-1.4-2.5-.3-.7.8-.8 1.4-.2 1.4.5 0 1 .7 1 1.5s-.4 1.5-.9 1.5c-1.5 0-1.8 4.3-.5 7.1.7 1.4 1.3 3.9 1.4 5.5.3 8.1.4 8.4 2.1 6.8 2.1-1.9 3.5-1.8 1.9.1-.7.8-.9 1.5-.6 1.5.4 0 .2.9-.4 2-.9 1.6-.8 2.2.4 2.6 1.3.5 1.2.9-.7 2.5l-2.2 1.8 2.5.1c2 0 2.2.2 1 1-.8.5-1.5 1.5-1.5 2.2-.1.7-.6 1.2-1.3 1.1-.7-.2-1.2.8-1.2 2.2 0 2.8-2.9 4.8-5.1 3.4-2.1-1.3-3.2-1.1-2.6.5.4.9-.2 1.4-1.6 1.4-3.8.2-6.2.7-7.2 1.5-5 3.7-5.9 4.6-5.1 5.4.5.4 1.1.2 1.3-.5.5-1.4 5.3-1.7 5.3-.2 0 .5-.5 1-1.2 1-.6 0-2.2 1-3.5 2.2-2 1.8-2.3 1.9-2.3.5 0-2.3-1.6-2.1-4 .3-1.8 1.8-2 1.8-3.7.2-1.5-1.5-1.6-1.5-1.1 0 .5 1.2-.2 2-2.5 2.9-1.8.7-3.8 1.7-4.6 2.3-1.3 1-2.2 1.3-7.3 2.3-1.6.3-2.8 1-2.8 1.5 0 .6-2 .8-4.5.6-2.9-.2-4.6.1-4.9.9-.3.8-2.3 1.1-6 .8-4.6-.4-5.6-.2-5.6 1.1 0 1-.6 1.4-1.5 1-.8-.3-1.5 0-1.5.7 0 .9-.3.8-.9-.1-.7-1.1-.9-1.1-1.4.2-1.1 2.7-2.6 1.8-3.6-2.2-1.5-5.2-1.4-9.3.5-13.7 1.3-3.3 1.4-4.5.3-8.4-.7-2.5-1.7-5.2-2.2-5.9-.5-.7-.7-1.5-.4-1.8.3-.3 1.3.8 2.1 2.4 1.6 3.1 1.6 3.1 5.8 1.8 2.4-.8 6.9-2.1 10-3 5.7-1.7 8.5-3.6 5.2-3.6-1.3 0-1.4-.3-.4-1.5.7-.8 1.9-1.5 2.6-1.5.8 0 1.1-.6.8-1.5-.8-2 5.1-5.4 10.9-6.1 2.6-.4 4.7-1 4.7-1.4 0-1.7-4.9-4.8-9.5-6-2.7-.8-7.8-2.6-11.3-4.2-10.1-4.7-13.6-5.7-15.6-4.6-1 .5-3.1 1.4-4.8 1.9-2.8.8-3 .7-2.3-1.4.4-1.2 1.1-4.6 1.7-7.6.8-4.1 1.3-5 2-3.8.5 1 1.3 1.7 1.8 1.7 1.8 0 4.8-3.3 4.3-4.6-.6-1.7.7-1.8 4.4-.2 1.5.6 3.8 1 5.1.9 1.2-.1 2.2.2 2.2.8 0 2.2 7 1.2 9.5-1.4 2.9-2.8 3.1-5 .9-9.3-2-4.2-2.7-4.5-4.7-2.1-.9 1-1.2 1.9-.6 1.9s.9 1 .7 2.2c-.4 2.7-3.7 3.7-5 1.4-.5-.9-1.6-1.6-2.5-1.6-1.5 0-7.9-2.6-12.5-5.1-1-.5-3.2-.9-5-.9-3.1.1-3.2.1-1.4 1.5 1.1.8 2.9 1.5 4 1.6 1.9 0 1.8.1-.4 1-1.4.6-4.6.9-7.1.7-3.8-.2-4.6 0-4.1 1.2.2.9-.2.6-1.1-.5-3.2-3.9-2.1-8.6 3.6-15.8 2.7-3.4 2.9-4.2 2.1-8.5-.4-2.6-.7-7.5-.5-11 .2-3.4-.1-6.2-.6-6.2-1.6 0-4.1 3.2-6.1 8l-1.9 4.5-.8-5.7c-.4-3.1-.5-7.5-.3-9.8.4-4.5-1.1-5.3-4.6-2.2-2 1.6-2 1.6-.7-.1.8-1 3.5-3 6-4.5 3.8-2.2 5.8-2.7 11.4-2.7 7 0 7.3.1 10.2 5 1 1.6 1.3 1.5 4.8-.5 2-1.2 3.7-2.3 3.7-2.5 0-1.8-3.1-6.9-4.4-7.1-.9-.1-1.6.1-1.6.6 0 .4-.9 1-1.9 1.3-1.9.5-1.9.2.4-6.2 4.6-12.8 11.5-28.2 14.4-32.5 1.7-2.4 5.9-6.9 9.3-9.9 5.1-4.4 6.6-6.5 7.6-10.1.6-2.6 1.2-5.5 1.2-6.5 0-1.1.4-2.1.9-2.3.6-.2 1.2-2.3 1.5-4.7.5-3.9.4-4.2-.9-2.5-1.3 1.7-1.4 1.5-.8-1.9.3-2.2.2-3.7-.5-3.7-.5 0-1.3-1.2-1.8-2.8-1-3.6-1.3-9.7-.4-8.2 1.2 2 3 .1 3-3.1 0-1.7.4-2.8.9-2.5.5.3.8-.2.7-1.2 0-1.1.7-1.8 2.2-2 2.7-.4 3-2.2.3-2.2-1.8 0-3.1-1.8-3.1-4.2 0-1.3 4.9 1.8 7.5 4.8 3 3.3 6 3.9 8.4 1.5 1.2-1.2 2.5-2.1 3-2.1s1.1-.8 1.3-1.8c.3-1.2-1.2-2.6-4.7-4.8l-5-3-.2-9.1c-.3-8.8-.2-9.2 2.3-11.2 2.6-2 2.6-2.1 1-5.5-.9-2-1.4-4.6-1.1-5.8.3-1.3.1-3.7-.4-5.3l-.9-3-.7 3.2c-.5 2-1.4 3.3-2.4 3.4-.9 0-2.5.2-3.6.4s-3.7-.7-5.7-2.1c-2-1.4-4.1-2.3-4.7-2-.6.4-3.2.7-5.8.8-5.9.1-7.5-1.9-7.9-9.8-.2-5.1.2-6.1 4.2-12 2.4-3.5 4.4-7.2 4.4-8.2 0-1.4-.2-1.4-.9-.3-.7 1.1-1.4.9-3.5-1.4-1.5-1.6-2.4-3.3-2.1-3.9.3-.6.8-1.9 1.1-2.9.4-.9 1.3-1.7 2-1.7.8 0 1.4-.5 1.4-1.1 0-.6-.7-.8-1.6-.5-.9.3-1.8.6-2 .6-.2 0-.4.9-.4 2s-.4 2-1 2c-.5 0-1-.5-1-1 0-1.8-2.2-1-4.3 1.6-1.7 2.2-2.6 2.5-5.4 2.1-1.8-.3-3.3-.2-3.3.3 0 1.5-5.6 4-9 4-1.7 0-3.9.7-4.7 1.6-.9.8-2.4 1.4-3.3 1.1-1.5-.4-1.4 0 .4 3.3 1.1 2.1 2.5 3.6 3.1 3.4.7-.3.9 1 .7 3.6-.4 4.2-1 4.8-3 2.8-1.7-1.7-4.2.8-4.2 4.4 0 10.5-11.5 12.9-16.5 3.5-2.4-4.5-3.9-4.8-3.3-.6.6 3.8-1.8 5-7.2 3.7-1.9-.5-4.4-1.1-5.4-1.3-2.2-.5-3.6-2.3-3.6-4.6 0-1.6-9-5.9-12.2-5.9-.9 0-2.9-1.1-4.4-2.5-1.5-1.4-3.5-2.5-4.5-2.5s-3.8-1-6.3-2.2l-4.4-2.1-3.7 3c-3.1 2.6-4.2 3-8 2.5-6.1-.6-15.2.6-17 2.4-2 2-6.2 2.1-10.5.2-5.5-2.4-14.1-4.7-13.4-3.7.8 1.4-4.8-.2-6.4-1.8-.7-.7-2.2-1.3-3.3-1.3-1.1 0-1.7-.5-1.4-1 .3-.6-.3-1-1.5-1-1.1 0-3.5-.6-5.4-1.4-3.7-1.5-5-4.2-6.3-13.1-.6-4.3-1.3-6.1-2.4-6.3-1.4-.2-1.7.9-2.1 6.7-.4 7.9-2.1 10.5-7.1 11.5-4.7.9-22.2-1-25.7-2.8-2.1-1-4.7-1.3-8.5-.9-4.9.5-5.9.3-8.1-1.8-1.5-1.3-3-3.5-3.6-4.9l-.9-2.4-2.4 2.9c-2.3 2.9-2.5 3-10.2 2.7-4.3-.2-9-.4-10.5-.6-1.6-.1-3.8-.3-5.1-.4-1.9-.2-2.3-.8-2.5-4.1-.2-2.1.2-5.1.8-6.6 1.4-3.8.7-4.1-3.3-1.6-3.3 2-5.6 5.1-3.9 5.1.5 0 1.4 1.6 2.1 3.5 1.1 3.2 1 3.9-1.1 7.8-1.9 3.5-2.9 4.3-5.7 4.5-3.5.4-11.2-2.8-17.5-7.2-2.4-1.6-2.9-1.7-2.3-.4.3 1 0 1.9-.9 2.2-1.7.7-4.9-.7-4.9-2.1 0-.4-2.4-1.8-5.4-3-6.3-2.6-7-3.4-7.2-8.8-.2-7.8-1-8.9-6.6-9.7C224.1 3.9 220 2.4 220 1c0-.6-2.7-1-6.4-1-6.4 0-6.4 0-7.6 3.4zm337.4 29.9c2.7 2 1.6 4.8-3 7.2-4.9 2.6-6.4 2.2-6.4-1.8 0-5.6 5.1-8.5 9.4-5.4zM291.8 43.5c2.1.3 12.3.7 22.7 1 10.5.3 21.9.9 25.5 1.5 3.6.5 12.8 1.3 20.5 1.6 10.4.5 14.4 1.1 15.8 2.2 1.6 1.4 1.6 1.7.1 3.3-.9 1-2.9 2.1-4.5 2.4-1.6.4-3.1 1.1-3.4 1.6-.4.5-1.4.9-2.4.9s-3.2.7-4.7 1.5c-2.3 1.2-6.4 1.5-19.2 1.3-14.9-.1-18.5.2-17 1.8.4.3 3.9 1 8 1.6 4 .5 9.9 1.7 13.1 2.6 8.8 2.5 13.2 8.8 9.2 13.2-1.4 1.6-1.4 2 .2 4.8 1 1.7 2.8 3.6 4 4.3 3.1 1.7 3.5 6.5.8 9.7-2.1 2.4-2.4 2.5-18.6 2.6l-16.4.2-4-3.8c-2.2-2.1-4.8-4-5.7-4.3-2.1-.7-3.1-3.6-3-9.1.1-2.7-.5-5.1-1.7-6.6-1-1.2-2.6-3.8-3.5-5.6-2.1-4.1-3.6-3.3-3.6 1.9 0 2.7.5 4.2 1.6 4.6 1.3.5 1.2.8-.5 2.5-1.2 1-2.1 2.3-2.1 2.8 0 2.5-4 .6-6.6-3.1-3.4-5-6.1-6.9-9.4-6.9-4.5 0-7.2-2.7-6.8-6.8.4-4.5 2.4-5.7 12.2-7 6.2-.8 7.3-.7 11.5 1.4 2.8 1.5 5.4 2.1 6.6 1.7 2.2-.7 3.9-1.1 7.2-1.6 2.6-.4 3.9-1.3 2-1.5-7.5-.6-12.9-1.7-13.8-2.8-.6-.8-2.2-1.4-3.6-1.4-1.3 0-3.5-.7-4.8-1.6-2.6-1.7-4.5-1.2-4.5 1.2 0 .8-1 1.4-2.5 1.4-2 0-2.5-.5-2.5-2.4 0-1.4-1.2-3.3-3-4.7-1.6-1.3-3-3.2-3-4.1 0-2 2.9-4 4.8-3.3.8.3 3 .7 5 1zm-56.8 9c4.5 8.7 7.5 11.7 12.4 12.5 2.6.4 3 .9 2.8 3-.2 1.4-1.5 3.7-2.9 5.2l-2.5 2.7 2.5 2.5c1.5 1.4 3.1 2.6 3.6 2.6.6 0 1.8 1.4 2.6 3.1 1.3 2.4 1.4 3.7.6 6-1.1 3.2-3.4 5.9-5 5.9-.5 0-1 1.5-1 3.2 0 6.5-1.3 10.9-3.7 12.5-1.3.8-3.1 1.3-3.9.9-2-.7-2-6.2.1-7.4 1.3-.7 1.4-1.3.6-2.9-.8-1.4-.8-2.3 0-3.1 2.9-2.9-8.9-9.2-17-9.2-2.5 0-3.2-.4-3.2-2 0-1 .8-2.4 1.8-2.9 1.6-.9 1.5-1.2-1-3.5-2-2-2.5-3.3-2.3-6 .4-4.2 1.1-5.6 3-5.6.8 0 2.5-1.1 3.9-2.5 1.7-1.7 2-2.5 1.1-2.5-.9 0-1.2-.6-.9-1.5.4-.8-.1-3.3-1-5.5s-1.6-5.4-1.6-7.1c0-2.9.1-3 4.4-2.7 4.1.3 4.7.6 6.6 4.3zm175.3-1.1c10.1 1.5 12.2 3.1 12.9 9.4.3 3.8.1 4.3-2.4 5.3-5.1 2.1-20.8-1.1-20.8-4.2 0-.4-1.4-1.2-3-1.9-1.7-.7-3.4-1.9-3.9-2.7-.6-1.2-1.2-1.3-2.9-.4-3.5 1.9-2.3-2.9 1.3-5 3.5-2.2 7-2.3 18.8-.5zm31 5.5c-.3 1.2-1.1 1.7-1.9 1.4-1.7-.6-1.8-2-.1-2.6 2.2-.9 2.5-.7 2 1.2zm25.7 6c0 1.1-.5 2.3-1.1 2.7-1.4.8-2.9-1.4-2.2-3.3.8-2 3.3-1.6 3.3.6zM273 69c1.3.9 1.3 1.1 0 1.9-1.6 1.1-4.3-.5-3.4-2 .7-1.1 1.5-1.1 3.4.1zM140.4 80.6c2 .8 2.1 2.8.2 4.3-.8.7-1.2 2.1-.9 3.1.6 2.4-1 2.6-3.2.4-1.6-1.6-1.3-4.6.7-7.2 1.2-1.4 1.1-1.4 3.2-.6zm12.7 24.4c1 .6 1.9 1.8 1.9 2.6s.7 2.8 1.5 4.3c1.3 2.6 1.3 3-.3 4.4-.9.8-2.8 1.7-4.2 2-2.4.4-2.4.4.3.6 2.3.1 2.8.5 2.5 2.3-.2 1.6-.9 2.2-2.2 2.1-1.1-.1-2.6.6-3.3 1.5-.9 1.3-1.2 1.3-1.3.3 0-.9-.8-1.2-2.6-.8-2.2.4-2.5.1-2.2-2.2.2-2.1.8-2.6 2.8-2.4 2.1.2 2.2.1.6-.5-1.5-.7-1.9-2.1-2.2-6.9-.2-5.4 0-6.2 1.9-7.1 2.9-1.4 4.4-1.4 6.8-.2zm415.9.1c0 .5-.9.9-2 .9s-2-.4-2-.8.9-.8 2-.9c1.1-.1 2 .2 2 .8zm-257.1 2c5.2 2.7 5.9 4.8 2.7 7.4-1.4 1.2-2.6 2.6-2.6 3.2 0 2.9-9.7 3.4-11.7.7-2.1-2.7-.9-8.4 2.2-11.2 3.2-2.7 4.4-2.7 9.4-.1zm252.1-1.6c0 .2-1 1-2.2 1.6-2.1 1.1-2.2 1.1-.9-.4 1.3-1.6 3.1-2.3 3.1-1.2zm6 3.6c0 1.8-.2 1.9-1.5.9-1.5-1.2-1.2-3 .6-3 .5 0 .9 1 .9 2.1zm-397 7.8c2 4.9.7 6.7-4.6 6.6-4 0-4.8-.4-5.8-2.5-.6-1.4-1.5-2.8-2-3.1-1.8-1.3 1.8-3.4 6.4-3.7 4.4-.3 4.8-.1 6 2.7zm16.9 9.1c2.8 2.4 3.5 3.8 3.7 7.1.1 2.5.8 4.6 1.7 5 .8.5 2.2 1.9 3 3.3 1.3 2 1.4 2.9.4 5-1 2.2-1.8 2.6-6 2.6-4.5 0-4.9-.2-7.9-4.5-2.4-3.4-4.3-4.8-8-6.1-2.7-.9-5.2-2.2-5.5-3-.3-.7.4-2.9 1.6-4.7 1.2-1.9 2.1-4.1 2.1-5 0-2 1.5-2.5 7-2.6 3.6 0 5.2.6 7.9 2.9zm-44.4 1c.3.5-.3 1-1.5 1s-1.8-.5-1.5-1c.3-.6 1-1 1.5-1s1.2.4 1.5 1zm49 26.5c.6.7 2.5 2.2 4.3 3.5 2.9 1.9 3.3 2.7 3 5.9-.3 3.3-.5 3.6-3.3 3.4-1.6-.1-5.8-.5-9.2-.7-6.3-.5-11.3-2.8-11.3-5.2 0-.7.9-3.2 2.1-5.4l2.1-4 5.6.7c3.2.3 6.2 1.2 6.7 1.8zm-41.1 2.4c.3.5-.1 1.4-.9 2.1-.8.7-1.5 1.9-1.5 2.6 0 1.8-1.4 1.8-3-.1-.9-1-.9-1.5-.1-1.5.6 0 1.1-.9 1.1-2 0-2.1 3.3-2.9 4.4-1.1zm14 10.7c2.3.9 2 3.4-.4 3.4-1.3 0-2-.7-2-2 0-2.2.1-2.3 2.4-1.4zM395 177.1c0 2-2.1 4.9-3.6 4.9-2 0-2.9-2.7-1.4-4.5 1.4-1.7 5-2 5-.4zm-13.5 10.5c3 1.9 2.6 2.9-1.5 3.7-4.1.9-6-.1-6-2.9 0-1.9.5-2.4 2.5-2.4 1.4 0 3.7.7 5 1.6zm-292.1 1.5c3 2.3 3.4 4.9.9 4.9-1 0-3.4.3-5.4.6-3.4.6-3.7.4-4.7-2.5s-1-3.1 2.1-4c1.8-.5 3.5-1 3.8-1 .4-.1 1.8.8 3.3 2zm-15.9 3.6c-.2 1-.4 2-.4 2.2-.1.2-.8-.2-1.6-.9-1.6-1.4-1.1-3 1-3 .7 0 1.2.8 1 1.7zm-5 1.3c.3.5-.1 1-1 1s-1.3-.5-1-1c.3-.6.8-1 1-1 .2 0 .7.4 1 1zm305.5 4.3c0 1-1.1 2.2-2.4 2.7-2.9 1.1-4 3.9-3.7 10.3.1 4.7.1 4.7-2.6 4.1-3.8-1-5-2.9-5.6-8.8-.3-3.4 0-5.4.9-6.4.8-.7 1.4-1.7 1.4-2.2 0-1.1 2.2-1.5 7.7-1.5 3.5 0 4.3.3 4.3 1.8zm-308.6 2.8c-1.7 1.9-3.4 1.7-3.4-.5s2.2-3.7 3.7-2.4c1.1.9 1.1 1.4-.3 2.9zm554.3 17.1c-.3.8-.6.5-.6-.6-.1-1.1.2-1.7.5-1.3.3.3.4 1.2.1 1.9zm-541.4 5.4c-1 .7-1.3 1.4-.8 1.4.6 0 .4.4-.4.9-1.7 1.1-7.3-.7-6.5-2.1 1.2-1.9 6.8-3.7 8.2-2.6 1 .8.8 1.3-.5 2.4zm425.2 19.7c.1 12.8 1.7 18.2 6.9 22.2 1.7 1.4 2.6 2.5 2 2.5-.7 0-2.6-1.3-4.2-2.8-3.8-3.6-6.1-11.2-6.3-20.9-.1-3.9-.5-7.7-.9-8.4-.8-1.2 1-5.2 1.9-4.3.3.3.6 5.5.6 11.7zm130.2 4.4c-.3 1-.5.2-.5-1.7s.2-2.7.5-1.8c.2 1 .2 2.6 0 3.5zm44.8 40.3c.3.6-.1.7-.9.4-1.8-.7-2.1-1.4-.7-1.4.6 0 1.3.4 1.6 1zm-7.1 2.6c.3.8.2 1.2-.4.9-.6-.3-1-1-1-1.6 0-1.4.7-1.1 1.4.7zm9.4 1.9c-.3.3-.9-.2-1.2-1.2-.6-1.4-.5-1.5.5-.6.7.7 1 1.5.7 1.8zm4.6 3.1c.4 1.1.2 1.2-1.4.1-1.1-.6-2-1.5-2-1.9 0-1.2 2.8.3 3.4 1.8zm-207.5 1.1c.3.5 2.6 2.1 5.1 3.7 5.9 3.8 16 11.9 16 12.8 0 1.7-2.4.6-9.3-4.2-15.7-10.9-18.7-13.1-18.7-14 0-1 6 .5 6.9 1.7zm39.6 1.3c.3.5.1 1-.4 1-.6 0-1.1-.5-1.1-1 0-.6.2-1 .4-1 .3 0 .8.4 1.1 1zm9.5 7.6c0 2.9 1.1 3.1 3.5.4 1-1.1 2.9-2 4.3-2 2.4 0 2.5 0 .7 2-1 1.1-2.1 1.8-2.3 1.5-.3-.3-1.6.2-3 1.1-2.8 1.8-3.7 1.2-4.7-3.5-.5-2.3-.4-3.1.4-2.7.6.4 1.1 1.8 1.1 3.2zm-18.4 1.7c5 7.7 5.4 8.7 4.8 11.1l-.6 2.5-2.4-2.6c-2.1-2.3-2.5-3.2-2.4-5.8 0-.3-.6-1.8-1.5-3.5-2.9-5.6-1.3-7 2.1-1.7zm32.4-2.9c0 .3-.4.8-1 1.1-.5.3-1 .1-1-.4 0-.6.5-1.1 1-1.1.6 0 1 .2 1 .4zm97 17.6c0 .5-.2 1-.4 1-.3 0-.8-.5-1.1-1-.3-.6-.1-1 .4-1 .6 0 1.1.4 1.1 1zm52.7 4.2c-.3.8-.6.5-.6-.6-.1-1.1.2-1.7.5-1.3.3.3.4 1.2.1 1.9zm-83 9c-.3.7-.5.2-.5-1.2s.2-1.9.5-1.3c.2.7.2 1.9 0 2.5zm-84.8 11.4c2.4 3 2.7 5.4.9 5.4-.9 0-.8.4.2 1 1.3.8 1.3 1-.1 1-1.5 0-4.9-6.3-4.9-9 0-1.8 1.8-1 3.9 1.6zm171.1 4.7c0 .1.4 1.7.9 3.5 1.2 4-.3 3.3-1.7-.8-.7-1.8-.7-3-.1-3 .5 0 .9.1.9.3zm-38.3 8.9c-.3.8-.6.5-.6-.6-.1-1.1.2-1.7.5-1.3.3.3.4 1.2.1 1.9zm-109.5 4.5c-.2 1.6-1.1 3.5-1.9 4.5-1.5 1.7-1.3 2 2.8 5.1 2.3 1.7 3.5 5.7 1.7 5.7-.8 0-2.3-.7-3.4-1.5-1-.8-3.1-1.5-4.6-1.5-1.6 0-7-.7-12-1.6-5.1-.9-11.2-1.4-13.5-1.1-2.4.2-4.9-.1-5.9-.7-1.4-1-1.3-1.3.8-2.3 8-3.7 20.7-4 25.5-.5 3.7 2.6 4.3 2.7 4.3.6 0-.9.5-3.4 1.2-5.5.8-3 1.6-3.9 3.3-3.9 1.9 0 2.1.4 1.7 2.7zm-94.6 2.7c14.8 2.6 26.1 5.3 35.9 8.5 7.2 2.5 10.4 2.6 11.1.6.4-.8 1.1-1.5 1.6-1.5.6 0 .8.6.5 1.3-.8 2.2.5 3.4 5.6 5.1 8.4 2.8 19.6 8.6 20.7 10.7 1 1.8.9 1.9-1.7 1.3-1.5-.4-6.6-2.1-11.3-3.9-14.9-5.6-16.5-5.6-17.5.6-.9 5.4-3 4.4-3.1-1.5-.1-2.6-.5-5.1-1-5.5-1.1-1-24.7-7.6-32.9-9.1-14.6-2.8-27.5-6.6-27.5-8.1 0-1.4 4.7-1.1 19.6 1.5zm104.5 0c.1-.5.1-1.2 0-1.7-.2-1.3 3.6-.8 4.8.7.7.8 2.1 1.2 3.2.9 2.9-.8 16.7 1.6 21.6 3.7 2.8 1.2 4.4 2.6 4.8 4.2.2 1.3 1 4.5 1.5 7.3.6 2.7 1.3 5.8 1.6 6.7.4 1.3 0 1.8-1.4 1.8-3.9 0-14.8-4.3-18.6-7.4-2.2-1.7-3.6-2.4-3.1-1.6 2.5 4.1 14.2 11 18.8 11 4.4 0 5.1.7 7.7 6.7 1.2 2.9 2.5 5.3 2.9 5.3.3 0 1.2 1.5 2 3.2.8 1.8 2.1 4.1 2.9 5 .8 1 1.5 3.5 1.6 5.8.2 3.4 0 3.9-1.5 3.5-1.2-.4-1.8.1-2.1 1.9-.3 1.4-.3 2.8 0 3.1.3.3.7 1.1.8 1.8.2.7.6 2.3.9 3.7 2.1 7.9 2.6 12.7 2.6 23.2 0 6.7-.4 12.5-1.1 13.7-.6 1.2-.8 2.1-.5 2.1.4 0 .3.6-.2 1.2-.4.7-.8 3.1-.9 5.3-.2 7.5-1.7 21-2.4 22-.4.5-1.1 2.5-1.5 4.2-.8 4-3.1 4.4-3 .5 0-2-.5-2.7-2-2.7-1.6 0-1.9-.6-1.7-2.8.4-4-1.5-3.3-2.2.8-.4 1.9-1.1 3.5-1.5 3.5-.4 0-1.1 3.2-1.5 7.2-.3 3.9-1.1 7.7-1.7 8.4-.6.7-.9 4.4-.8 8.3.2 4.6-.1 7.5-.9 8.3-.7.7-1.2 3.5-1.2 6.4 0 3.5-.8 6.5-2.5 9.8-1.3 2.5-2.4 4.9-2.4 5.3 0 .4-.4.9-1 1.1-1.5.5-1.4-5.5.4-16.2 1.1-6.7 1.2-9.3.3-10.3-.8-1-.8-2 .3-4 .9-1.7 1.4-5.8 1.4-11.3 0-7.6.2-8.6 1.7-8.2 1.3.3 1.5-.1 1.1-1.8-.3-1.2-.1-2.5.6-2.9.8-.5 1.1-3 .9-7.2-.3-6.2-.3-6.3-1.1-2.4-1.4 6.9-1.7 7.3-3.1 4.6-.8-1.3-1.1-3.2-.8-4.3.2-1-.1-2.4-.7-3.2-1.7-2.1-3.2-16.2-2-18.7.4-.8.2-3.3-.5-5.4-.9-2.5-1.1-5-.5-7.4.5-2 .9-6 .9-8.9 0-5-.2-5.3-2.2-5-1.3.2-2.3.7-2.3 1.3-.1 2-1.8 6-3.1 7.5-.7.9-1.8 3.7-2.4 6.4-.6 2.7-1.5 5.6-1.9 6.5-1.6 3-2 18.8-.5 20.8 1.6 2.1 1.9 7.3.4 7.3-.5 0-1 .8-1 1.7-.1 1.7-.1 1.7-1.4.1-.7-1-1.6-1.5-1.9-1.2-.8.8-4.7-1.5-4.7-2.9-.1-.7-1.1-2.5-2.4-4.1-1.8-2.1-2.9-2.6-4.5-2.1-2.1.6-2.9 2.5-1.1 2.5.6 0 1.3.7 1.6 1.5.7 1.6-8.2 12.5-10.2 12.5-.7 0-1.5-1.7-1.9-3.9-.5-3-1-3.8-2.3-3.4-2.3.6-7.2-1.3-7.2-2.8 0-1.6 8.2-8.8 10.1-8.9 1.1 0 1.8-1.2 2.3-3.9.3-2.1 1.2-4.4 2-5 1.5-1.2 6.6-.5 6.6.9 0 .4 1.2 1.1 2.8 1.5 1.5.3 3.7 1.6 5 2.8 3.2 3 4.2 1.1 4.2-7.9 0-4.4.9-10.1 2.4-15.4 2.7-9 2.5-12.9-.6-16.9-2.3-3-2.5-6-.3-4.1 1.3 1.1 1.5.8 1.5-1.4 0-2.5.1-2.6 1.6-1.2 1 1.1 1.2 2.1.6 3.2-.5.9-.7 2.7-.4 4l.4 2.5 1.5-2.1c.9-1.2 1.2-3.1.9-4.4-.9-3.5 1.2-8.6 3.2-7.9 1.2.5 1.4.2.9-1.1-.4-1-.1-2.4.8-3.2 1.9-1.9 1.9-3.3.1-4-.9-.4-1.3-1.9-1.1-4.9.2-3 0-4.4-.8-4.2-.7.1-1.3-1.3-1.5-3.2-.3-2.8-.1-3.3 1.3-2.8 2.4 1 3.6-3.1 1.9-6.5-.8-1.5-1.4-4.2-1.4-6.1 0-3.7-1.5-5.8-3.6-5-.9.3-1.4-.2-1.4-1.2 0-2.1-5.5-7.7-7.2-7.3-2.2.4-5.8-2.1-5.2-3.7.4-.8-.6-3.4-2-5.9-2.9-4.9-2.5-6.2 1-3.9 1.3.8 2.5 1.1 2.5.7zm94.6 11.8c-.3.8-.6.5-.6-.6-.1-1.1.2-1.7.5-1.3.3.3.4 1.2.1 1.9zm-121.9 3.3c-.3.3-.9-.2-1.2-1.2-.6-1.4-.5-1.5.5-.6.7.7 1 1.5.7 1.8zm154 .4c-.1 1.6-.6 2.7-1 2.5-1.2-.7-1-5.4.2-5.4.6 0 .9 1.3.8 2.9zm6.9 9.3c-.3.8-.6.5-.6-.6-.1-1.1.2-1.7.5-1.3.3.3.4 1.2.1 1.9zm-228.4 9c1.5.6 2.7 1.3 2.7 1.7 0 .4 1.7 1.3 3.8 2 2 .8 5.3 2.5 7.2 3.7 3.4 2.4 3.4 2.4.9 2.4-1.5 0-5.7-1.4-9.4-3.1-8.3-3.7-10.2-3.4-3.8.8 5.8 3.8 13.7 11.7 13.2 13.2-.5 1.2-1.1.9-15-7.1-5.3-3.1-14.1-7.3-19.5-9.3-5.5-2-10.3-4.1-10.8-4.6-1.6-1.5 5.6-1 10.7.7s10.1 1.6 10.3-.4c.1-.6.2-1.5.3-1.8.1-.7 5.6.3 9.4 1.8zm97.4-.4c.8.5.9 1.3.3 2.2-1.9 3-1 6 3 10 3.9 3.9 5.2 6.5 2.8 5.8-.7-.3-2.4-2.1-3.7-4.1-2.7-4.1-6.3-5.6-8.6-3.7-1.2 1-1.4.5-1.1-3.5.2-3.7.7-4.9 2.7-6 3-1.6 3.1-1.6 4.6-.7zm-416.3 4.8c1.9.7 1.3 6.4-1.1 10.2-2.8 4.4-.3 3.5 4.3-1.6s6.7-6.2 7.9-4.3c.7 1.2-1.5 6.1-2.7 6.1-.5 0-.6.5-.3 1 .4.6 1.1.8 1.6.5.5-.4 1.6.1 2.5 1 .9.9 2.3 1.4 3 1.1.8-.3 1.4.1 1.4.8 0 1.6 6.6 2.8 10.9 2 3.3-.7 6.1.8 6.1 3.3 0 1.6-1.4 1.5-9.4-.6-4.5-1.1-12.8.1-15.1 2.1-3.5 3.2-4.5 3.8-6.2 3.8-3.2 0-4.4 1.6-5 6.1-.3 2.5-1.6 5.7-2.9 7.2-3.4 4-3 4.7 2.1 4.7 4 0 4.8.4 6.4 3.1 1.1 1.7 3.3 3.9 5 5 2.7 1.6 7.3 7.6 8.8 11.5.3.8-.3 1.6-1.3 2-1.1.3-3.1 1.2-4.6 2-3.6 1.9-7.2 1.8-9.2-.5-1.4-1.5-1.5-2.4-.7-4 1.5-2.7 1.4-3-1-2.4-1.6.5-1.9 1.1-1.4 3 .6 2.5-2.9 11.3-4.5 11.3-1.2 0-1.7-4.4-.8-7 .5-1.3.6-4.9.2-8-.5-4.4-.3-5.9 1-6.9 2.1-1.8 1.1-3.1-2.3-3.1-1.5 0-3.6-.6-4.6-1.4-1.7-1.2-1.8-1.6-.5-3.2 1.4-1.6 1.3-1.7-.3-1.1-4.3 1.6-6.8 1.9-8.1.7-1.2-.9-1.7-.7-2.5.9-.8 1.4-.8 2 0 2.3.7.2.5.9-.5 1.7-1.4 1.2-1.7 1-2.2-1.8-.5-2.2-1.7-3.7-4.5-5.3-2.1-1.2-3.5-2.6-3.2-3.1.4-.6.1-.7-.6-.3-.7.5-1.8 0-2.6-1-1.1-1.6-1-2.1 1.6-3.6 3.3-2 3.6-3 1.4-4.8-1.3-1-1.5-.9-1.5.8 0 2.5-1.4 3.5-4.9 3.6-2.1.1-2.6.6-2.4 2.4.3 2 0 2.2-2.5 1.6-4.2-1-9.6-3.4-10.3-4.6-.8-1.3 2.2-6.8 3.8-6.8.6 0 1.5.4 1.8 1 1.1 1.7 2.3 1.1 2.9-1.6.4-1.5 2.6-4.6 4.9-6.9 2.3-2.4 5-5.5 6.1-7 1.5-2.3 2.3-2.6 5.1-2.1 2.7.5 3.5.2 5-2 1.7-2.6 3.3-2.8 7.8-.9 1.2.5 1.7.3 1.7-.8 0-3 5.8-6.7 10.5-6.7 2.4 0 5.1.3 5.9.6zm543.3 7.6c-.3.7-.5.2-.5-1.2s.2-1.9.5-1.3c.2.7.2 1.9 0 2.5zm-54 8.9c-1.2 3.4-2.6 6-3.2 5.8-.5-.2-.9-.9-.9-1.6.2-1.4 5.3-10.3 5.9-10.3.2 0-.6 2.7-1.8 6.1zm-4-2.9c-.3.8-.6.5-.6-.6-.1-1.1.2-1.7.5-1.3.3.3.4 1.2.1 1.9zm57.3-.2c0 .5-.4 1-.9 1-.6 0-1.3-.5-1.6-1-.3-.6.1-1 .9-1 .9 0 1.6.4 1.6 1zm0 3.2c0 .4-.4.8-.9.8s-1.2.8-1.4 1.7c-.3 1.2-.5.9-.6-.8-.1-1.7.4-2.6 1.4-2.6.8 0 1.5.4 1.5.9zM165.8 429c1.8 1.1 3.9 2 4.7 2 .8 0 1.5.4 1.5 1 0 .5-1.8 1-3.9 1-3.3 0-4.3-.5-6.1-3-2.6-3.6-1.1-4 3.8-1zm468.5 2.5c-.3.9-.8 1.4-1 1.1-.3-.3-.2-.9.2-1.5.9-1.6 1.5-1.3.8.4zm-2.7 2.1c-.4.9-.9 1.5-1.1 1.2-.3-.3-.3-1.3.1-2.2.4-.9.9-1.5 1.1-1.2.3.3.3 1.3-.1 2.2zm59.1.6c-.3.7-.5.2-.5-1.2s.2-1.9.5-1.3c.2.7.2 1.9 0 2.5zm-476.8.8c2.4 1.7 4.8 3 5.2 3 .5 0 1.6 1.4 2.4 3.1 1.6 3 1.7 3 3.6 1.3 1.8-1.7 1.9-1.6 1.9 1.3 0 1.7-.6 3.6-1.4 4.2-2.4 2-1.4 11.7 1.8 17.9 1.5 3 2.5 5.6 2.3 5.8-.7.7-6.7-7.7-6.7-9.3 0-.7-.4-1.3-.8-1.3-.5 0-1.7-1.7-2.8-3.8-1-2-2.6-4.8-3.6-6.2-.9-1.4-2.7-4.6-4-7-1.3-2.5-3-5.5-3.8-6.6-1.3-2.1-.9-5.4.7-5.4.4 0 2.8 1.4 5.2 3zm23.4 1.2c3.4 2.4 3.4 4.1.2 6.2-2.5 1.6-2.6 1.6-5.5-1.6-3.2-3.5-3.6-4.8-1.9-6.5 1.3-1.3 3.2-.8 7.2 1.9zm281.6 3.5c2.1 2.1 4.1 4.6 4.4 5.6.5 1.4 1.2 1.7 2.9 1.1 3.9-1.4 7.8-.8 10.3 1.6l2.5 2.4 4.1-2.2c5.4-2.9 9.5-2.9 10.4-.1.8 2.6-3.3 6.4-7.9 7.3-1.6.3-4.7 1.5-7 2.5-2.3 1.1-4.9 2.2-5.8 2.5-2.4.7-2.2 2.2.3 2.9 1.9.5 2.1 1 1.4 4.4-.4 2.1-.9 5-1.2 6.4-.6 3 2.1 4.7 4.4 2.8.7-.7 1.6-.9 1.9-.6.8.7-2.1 3.7-3.5 3.7-.6 0-.8.6-.6 1.2.3.7.1 1.9-.4 2.7-1.4 2.2-3.9-.3-4.3-4.1-.2-2.3-1.1-3.5-3.6-4.9-4.8-2.5-4.8-2.6-1.9-5.7 4-4.2 3.9-7.3-.3-9.4-1.9-1-4.9-1.8-6.7-1.8-3.2 0-10.7-3.3-11.9-5.1-.9-1.4 1.6-3.9 3.8-3.9 1 0 3.2.7 4.8 1.5 4.4 2.3 4.4.2 0-4.8-7.4-8.3-3.9-13.6 3.9-6zm-314.5 1.2c3.8 2.2 4.8 4.6 1.5 3.6-3.1-1-7-4.1-6.2-4.9.9-.8 1.4-.7 4.7 1.3zm479.3 1.3c-.3.7-.5.2-.5-1.2s.2-1.9.5-1.3c.2.7.2 1.9 0 2.5zM85.5 441c.7 1.2-1.6 5-3.1 5-.6 0-1.8-.7-2.5-1.6-1.1-1.4-1-1.8.6-3 2.2-1.6 4.1-1.8 5-.4zm311.9 7.5c1.6.9 3.6 1.3 4.3 1.1 2.1-.8 1.6 4.1-.6 5.6-1.1.8-2.1 3.2-2.5 6.2-1.1 7.1-1.5 7.7-3.7 6.5-1-.5-1.9-1.6-1.9-2.3 0-2.1-5.9-9.6-8.2-10.5-1.8-.7-1.6-1.1 2.8-4.4 5.6-4.2 5.9-4.2 9.8-2.2zM84.5 451c.3.5-.1 1-.9 1-.9 0-1.6-.5-1.6-1 0-.6.4-1 .9-1 .6 0 1.3.4 1.6 1zm11.5 2.9c0 1.2-2 2.5-2.7 1.8-.7-.7.6-2.7 1.8-2.7.5 0 .9.4.9.9zm409.9 3.9c4.7 4.3 4.8 5.2 2.1 12.4-2.6 6.9-2.5 9.9.5 13.2 2.4 2.6 4.5 3.4 4.5 1.7 0-1.1 3.8-2.1 5.5-1.5.7.3 1.6 1.7 2 3.1.3 1.5 1.5 3.8 2.6 5.1 1 1.4 1.9 3.4 1.9 4.6 0 1.4 1 2.6 3 3.4 1.9.9 3 2.1 3 3.4 0 1.8-.5 1.9-6.2 1.5-3.5-.2-7.3-.7-8.5-1.2-1.9-.6-2.6-.2-4 2.4-1 1.8-2.4 2.9-3.1 2.6-.7-.3-2.7.2-4.3 1-2.5 1.3-2.8 1.9-1.9 3.5.8 1.5 1.7 1.9 3.7 1.4s2.4-.4 1.9.7c-.3.8-.9 2.2-1.2 3.1-.4 1-1 1.8-1.5 1.8s-.9.5-.9 1c0 .6 1 .8 2.4.4 3.7-.9 5.1 2.4 3.6 8.7-1.2 5-1.8 5.7-3.7 3.8-.6-.6-2.6-1.3-4.4-1.6-4.2-.6-4.5-.9-2.9-2.8 2-2.4.5-3-4-1.6-2.2.6-4.4.9-4.9.6-1.4-.8-3.1-6.5-2-6.5.5 0 .9-.6.9-1.4 0-.8 1.6-1.7 3.7-2.1 2.1-.4 4.6-1.1 5.5-1.6 2.1-1.1 2.4-3.9.5-3.9-2.2 0-5.5-3.4-5.8-6-.4-2.3-.1-2.5 3.1-2.2 1.9.2 4 .7 4.5 1.1 1.7 1.2 4 .7 4.3-1.1.2-1 1.9-3.3 3.9-5.3 3.3-3.3 3.5-3.9 2.9-7.7-.4-2.4-1.2-4.6-1.9-5-2-1.3-3.7-.9-4.4.9-.9 2.5-2.3 3.3-6.3 3.3-2.7 0-5.1 1.2-9.9 5-3.6 2.8-6.8 5-7.1 5-1.7 0-6-4.3-6-6 0-2.1 3.6-4.3 8.7-5.4 1.7-.4 3.6-1.3 4.2-2 .9-1.1.1-1.5-3.6-2-7.2-1-7.5-1.4-6.2-7.5 1.3-6.4 4.1-8.6 9.7-7.8l3.7.6v-5.5c0-5 .3-5.9 3.3-8.5 1.8-1.6 3.6-2.9 4.1-2.9.5 0 2.7 1.7 5 3.8zm-414.3 5.4c-1.9 5.5-3.8 7.2-10.6 9.3-2.4.8-2.4.8-.7-1.9 1.1-1.7 1.3-2.6.6-2.6-.8 0-.6-.7.4-1.8 1-1 1.7-2.3 1.7-2.9 0-.6 1.7-1.5 3.8-2.1 6-1.6 6.1-1.6 4.8 2zm127.9 1.8c.3.5.1 1-.4 1-.6 0-1.1-.5-1.1-1 0-.6.2-1 .4-1 .3 0 .8.4 1.1 1zm-92.5.5c0 .5-6.6 4.5-7.4 4.5-.3 0-.6-.7-.6-1.6 0-.9.5-1.2 1.2-.8.7.5.9.2.6-.7-.4-1 .4-1.4 2.8-1.6 1.9-.1 3.4 0 3.4.2zm392.9 7.1c1.3 1.1 1.2 1.4-.1 1.9-3.1 1.2-6.3.1-6.6-2.3-.3-2 0-2.2 2.5-1.6 1.5.4 3.4 1.3 4.2 2zm-216.9.5c-.7 1.1-1.4 1.8-1.7 1.5-.8-.8.5-3.6 1.7-3.6.7 0 .7.6 0 2.1zm37.8 1c-.8.5-2.7 2.6-4.3 4.9-2.9 4.2-4.5 5.1-4.5 2.5 0-2.4 6.9-9.5 8.7-8.8 1.3.5 1.3.7.1 1.4zm-151.7 2.1c2.3 1.3 3.9 2.9 3.9 4 0 2.2-.9 2.3-4 .2-2.8-1.9-5-4.4-5-5.6 0-1.2.9-1 5.1 1.4zM95 477c0 .5-.4 1-1 1-.5 0-1-.5-1-1 0-.6.5-1 1-1 .6 0 1 .4 1 1zm183 1c0 1.3-.7 2-2 2s-2-.7-2-2 .7-2 2-2 2 .7 2 2zm417.4 10.6c.3.8.2 1.2-.4.9-.6-.3-1-1-1-1.6 0-1.4.7-1.1 1.4.7zm-424 3.6c-.8 2.9-6.5 10.8-7.6 10.8-.4 0-.8-.9-.8-2s.5-2 1-2c.6 0 1.6-1.2 2.3-2.8 1-2.3 4.4-6 5.5-6.2.2 0 0 1-.4 2.2zm126.6 4.7c.5 1.1 1 3.3 1 4.8 0 4.1 1.7 5.3 7.6 5.3 6.8 0 10.2 1.3 11.4 4.5.5 1.4 1.4 2.5 2 2.5 1.4 0 1.3-3.7-.2-4.6-.7-.5-.4-1 1.1-1.6 2.4-.9 16 .9 17.5 2.3.6.5 1.8.9 2.9.9 1 0 1.6.4 1.3.9-.3.5.9.8 2.7.7 2.2-.1 3.9.5 5.3 2.1 1.2 1.3 3 2.3 4 2.3 1.1 0 2.8.7 3.8 1.5 2.4 1.8 1.8 1.8-6 .4-6.4-1.1-12.4-3-12.4-3.9 0-.3-1.1-.6-2.5-.6-2.3-.2-2.5.1-2.5 4.2 0 5 1.5 7.1 7 9.9 1.8 1 4 2.4 4.8 3.1.7.8 2 1.4 2.8 1.4 2 0 1.4 4-.8 5.3-1.2.8-2.4.7-4.5-.3-4.7-2.3-5.6-2.2-3.9.5.9 1.4 1.6 3.4 1.6 4.5 0 2 0 2-4.1-.2-2.3-1.3-4.4-3.1-4.7-4.2-.5-1.7-1.2-1.8-9.1-1.1-11.5 1-11 .8-16.5 3.3-5.8 2.6-5.6 2.6-5.6.4 0-.9-.7-2.8-1.5-4.2-3.3-5.9-4.5-9.2-3.6-10.8.5-1 1.1-3.5 1.5-5.7l.7-4-3 3.4c-2.7 3.1-3.5 3.5-8.5 3.6-3.6 0-6.1.6-7.3 1.7-1.6 1.5-2.5 1.6-5.6.6-4.4-1.4-8.7.1-8.7 3 0 1.7-.8 2-6.1 2.1l-6.1.1.6-3.2c.4-1.8.8-5.5 1-8.1.2-4.3.8-5.4 4.9-9.4 3.8-3.9 4.8-4.4 6.1-3.4 2.4 2 6.2 1 5.8-1.5-.4-3.3 4.1-6.4 9.4-6.4 3.5 0 4.6.5 6.2 2.7 1.7 2.4 2.2 2.5 3.6 1.4.9-.8 1.4-2.1 1.1-2.8-.7-1.9 1.2-5.3 3-5.3.8 0 1.9.9 2.5 1.9zm308 2.2c0 .6-.4.7-1 .4-.5-.3-1-1.1-1-1.6 0-.6.5-.7 1-.4.6.3 1 1.1 1 1.6zm-588.3 1.5c-.3.3-1.2.4-1.9.1-.8-.3-.5-.6.6-.6 1.1-.1 1.7.2 1.3.5zm10.3 2.1c7.4 2.4 4.9 2.7-3 .4-3.6-1.1-5.5-2-4.4-2 1.2-.1 4.5.7 7.4 1.6zm580 1.1c0 1.5-.2 1.5-1 .2-1.3-2-1.3-3.3 0-2.5.6.3 1 1.4 1 2.3zm-113.3 2.4c-.3.8-.6.5-.6-.6-.1-1.1.2-1.7.5-1.3.3.3.4 1.2.1 1.9zM139 506c1.3.9 1.3 1 0 1-.8 0-2.2-.5-3-1-1.3-.9-1.3-1 0-1 .8 0 2.2.5 3 1zm433 2c0 .5-.4 1-1 1-.5 0-1-.5-1-1 0-.6.5-1 1-1 .6 0 1 .4 1 1zm-392.2 11.2c1.8 1.8 1.5 2.8-.8 2.8-1.3 0-2-.7-2-2 0-2.3 1-2.6 2.8-.8zm32.6 8.3c.3.9 0 1.5-.9 1.5-.8 0-1.5-.7-1.5-1.5s.4-1.5.9-1.5 1.1.7 1.5 1.5zm-73.1.2c-1.8.2-4.8.2-6.5 0-1.8-.2-.4-.4 3.2-.4s5 .2 3.3.4zm87.4.8c1.1.8 2.4 2.7 2.7 4.2.4 1.6.9 3.6 1.3 4.7.3 1 .1 1.7-.5 1.5-.9-.4-7.1-5.2-12.1-9.6l-2.6-2.2 4.5-.1c2.5 0 5.5.7 6.7 1.5zM375 535c1.1 1.1 2 3.1 2 4.4 0 1.4.5 2.8 1 3.1.6.3 1-.4 1-1.7 0-2.8 2.6-6.8 4.4-6.8.7 0 2.1.9 3.1 2s2.2 1.7 2.8 1.3c.6-.4.8 0 .4 1s-1 2.4-1.4 3.3c-.5 1.4 0 1.5 3.5.9 2.3-.4 4.2-.4 4.2 0 0 .3-1.8 3-4.1 6-4.4 5.9-7.9 12.1-7.9 14.2 0 2.4-3 2.6-5.4.4-1.2-1.1-3.3-2.1-4.7-2.1-3.6 0-16.8 1.8-17.9 2.5-1.3.8-1.3 3.5 0 3.5.6 0 1 .7 1 1.5 0 2.2-3.3 1.8-4.8-.5-1-1.7-.8-2.6 1.3-6 1.4-2.2 3-4 3.5-4 2.1 0 .8-3.7-2.3-6.5-3.2-3-3.9-4.7-2.4-6.1.4-.4.7-2 .7-3.6 0-1.9.6-3 1.8-3.4.9-.3 4-1.6 6.7-2.9 6.1-3 10.8-3.2 13.5-.5zm-164 1c0 .5-.5 1-1.1 1-.5 0-.7-.5-.4-1 .3-.6.8-1 1.1-1 .2 0 .4.4.4 1zm289.5 1.6c3.1 1.4 5.3 5.8 3.5 6.9-.8.5-10.3-6.1-10.8-7.5-.5-1.5 3.6-1.2 7.3.6zM214 538c0 .5-.2 1-.4 1-.3 0-.8-.5-1.1-1-.3-.6-.1-1 .4-1 .6 0 1.1.4 1.1 1zm26.8 5.5c-.3.3-.9-.2-1.2-1.2-.6-1.4-.5-1.5.5-.6.7.7 1 1.5.7 1.8zm390.4 3.1c.3 1.2.2 2.8-.3 3.5-.6.9-.9.2-.9-2.2 0-2.3-.6-3.9-1.5-4.3-.8-.3-1.5-1-1.5-1.6 0-1.7 3.7 2.3 4.2 4.6zm-265.4 21.6c-.7 1.9-3.5 2.1-4.1.3-.5-1.1 0-1.5 1.9-1.5 1.6 0 2.4.5 2.2 1.2zm19.8 5.6c-.9.8-2.6-1-2.6-2.6.1-1.5.2-1.5 1.5.2.8 1.1 1.3 2.1 1.1 2.4zm-6.8-.1c1.5 1.6 2.6 2.7 2.4 2.6-.2-.1-1.9.5-3.7 1.3-4 1.6-4.5 1.7-6.3.5-1.2-.7-1.1-1.4.2-4 2-3.8 3.7-3.9 7.4-.4zm-213.8-.1c0 .9.7 1.4 1.8 1.3 2-.2 5.2 1 5.2 2s-14.2 1.3-20.7.5c-6.4-.8-6.5-2.3-.2-4 6.8-1.8 13.9-1.7 13.9.2zm410.2 3c-.2 1-1 2.4-1.9 3.1-.8.6-1.6 2.6-1.7 4.5-.6 6.5-.6 6.5-1.6 4.7-1-1.7 0-6.9 2.1-11.8 1.5-3.3 3.6-3.7 3.1-.5zm106.3 3.4c-.4 2.8-.9 4.9-1.2 4.7-.2-.3-.1-2.8.3-5.6s.9-5 1.1-4.7c.3.3.2 2.8-.2 5.6zm-318.8 3.6c-.3.3-1.2.4-1.9.1-.8-.3-.5-.6.6-.6 1.1-.1 1.7.2 1.3.5zm317 5.6c-.3.7-.5.2-.5-1.2s.2-1.9.5-1.3c.2.7.2 1.9 0 2.5zm-539.8.2c-.9.8-9.9 1.3-9.9.5 0-.5 2.3-.9 5.2-.9 2.8 0 4.9.2 4.7.4zm7.6.6c-.3.5-1.8 1-3.3 1-2.1 0-2.4-.2-1.2-1 2-1.3 5.3-1.3 4.5 0zm593.4 2c.5 1.6.8 3 .6 3-.3 0-1.1-1.4-2-3-.9-1.7-1.1-3-.6-3 .5 0 1.4 1.3 2 3zm26.8 1.2c-.3.7-.5.2-.5-1.2s.2-1.9.5-1.3c.2.7.2 1.9 0 2.5zm-89 1c-.3.8-.6.5-.6-.6-.1-1.1.2-1.7.5-1.3.3.3.4 1.2.1 1.9zm-5.6 5.1c-1 .9-1.1.8-.5-.6.3-1 .9-1.5 1.2-1.2.3.3 0 1.1-.7 1.8zm-12.1.5c0 1-.7 1.9-1.4 1.9-1.1 0-1.3-.5-.5-1.9.5-1 1.2-1.8 1.4-1.8.3 0 .5.8.5 1.8zm-81 .2c0 .5-.5 1-1.1 1-.5 0-.7-.5-.4-1 .3-.6.8-1 1.1-1 .2 0 .4.4.4 1zm80 3.3c0 .2-1.1 1.8-2.5 3.7-1.4 1.9-2.5 3.1-2.5 2.7 0-.5 1-2.1 2.2-3.7 2-2.7 2.8-3.5 2.8-2.7zm-38.1 14.8c-.5 2.8-1.1 5.4-1.5 5.8-.4.3-.4-.9 0-2.8.3-1.8.6-4.4.6-5.7 0-1.3.4-2.4.9-2.4.4 0 .4 2.3 0 5.1zm30.7-2.3c-1.7 1.6-1.8 1.6-.5-.5.7-1.2 1.5-2 1.8-1.7.3.2-.3 1.2-1.3 2.2zM545 619.3c0 .5.8.6 1.8.3 3.7-1.2 5.3 7.4 1.7 8.8-.8.3-1.5 1.4-1.5 2.5 0 2.6-4.2 7.3-5.6 6.3-1.6-1.1-5.6-11.1-6-15.2-.4-3.1-.2-3.6 1.7-3.7 1.2-.1 2.6-.6 3.2-1.2 1-1 4.7.7 4.7 2.2z"/><path d="M562.7 369.7c-.2.5.5 2.1 1.5 3.8 1.9 2.8 2 2.8 1.4.5-.3-1.4-.6-3.1-.6-3.8 0-1.3-1.6-1.7-2.3-.5zm4.3 7.8c0 .5.5 1.7 1 2.5s1 1 1 .5c0-.6-.5-1.7-1-2.5s-1-1.1-1-.5zm14.1 105.8c-1.3 1.6-.6 4.3 1.3 5 .8.3 1.1-.5 1-2.5-.3-3.7-.8-4.2-2.3-2.5zm-40.4 6.1c-.3.8-.3 1.7 0 2 .8.7 4.3-1.2 4.3-2.4 0-1.5-3.7-1.2-4.3.4zm-430.5-59.2c.3 1.9.8 2.3 3.7 2 3.5-.3 3.6.2 1.7 4.9-.5 1 .2 2.7 1.8 4.6 1.9 2.3 2.2 3.3 1.4 4.1-2 2 .1 1.3 2.3-.7 1.7-1.5 1.9-2.7 1.4-6.6-.7-6-.6-5.9-6-8.4-5.7-2.7-6.7-2.6-6.3.1zm23 2.3c0 1.6.2 2.2.5 1.2.2-.9.2-2.3 0-3-.3-.6-.5.1-.5 1.8zM217 441c0 1.1.5 2 1 2 .6 0 1-.9 1-2s-.4-2-1-2c-.5 0-1 .9-1 2zm303 58c0 .5.5 1 1 1 .6 0 1-.5 1-1 0-.6-.4-1-1-1-.5 0-1 .4-1 1zm-119 14.5c-1 1.2-1 1.5.4 1.5.9 0 1.6-.7 1.6-1.5s-.2-1.5-.4-1.5-.9.7-1.6 1.5zm-35 8c4.6 1.5 5.7 1.4 4.5-.4-.3-.6-2.5-1.1-4.8-1h-4.2l4.5 1.4zm34-1c0 1.5 3.3 7.5 4.1 7.5 1.1 0 1.2-3.1.1-4.5-1.2-1.6-4.2-3.8-4.2-3zm29.2 4.7c-1.6 1.6-1.5 2.8.2 2.8 1.6 0 2.9-2.7 1.7-3.4-.4-.3-1.3 0-1.9.6zm1.3 4.8c.3.5 1.6 1 2.8.9 2.1 0 2.1-.1.2-.9-2.8-1.2-3.7-1.2-3 0zm-67.8 15.5c.3 1.4 1 2.5 1.5 2.5 1.3 0 .6-4.3-.8-4.7-.7-.2-1 .6-.7 2.2zM293.6 3.7c-1.9 2-3.4 3.8-3.2 4 .2.2 2.5-.6 5.2-1.8 2.7-1.1 6.5-2.1 8.4-2.1 3.5 0 6-1.2 6-2.9 0-.5-2.9-.9-6.4-.9-6 0-6.6.2-10 3.7zm395-2.2c-3.2 3.3-6.3 8-7 10.7-.3 1.5-2 4.3-3.6 6.2l-3.1 3.4 2.3.7c6.2 1.9 13.8 9.9 13.8 14.6 0 .7 2 3.6 4.5 6.5s5.1 6.8 5.7 8.6c1.4 4.2 3.2 5.6 6.3 5 1.7-.3 2.7-1.3 3.2-3.1.9-4 4-7.8 6.8-8.5 1.4-.4 4.1 0 6.1.9 2.3.9 5 1.3 7.5.9 4.9-.8 8.3 1.3 9.9 6 .9 3 .8 4.2-1 8.5-1.2 2.7-2 5.7-1.8 6.7.3 1.8.8 2.1 7.1 4.8 4.1 1.7 6.7 6.1 6.7 11.3.1 3.4 3.4 10 4.3 8.6.4-.6.2-2.5-.4-4.3-.8-2.3-.9-4.7-.1-8.4.5-2.8.9-9.4.8-14.6-.2-7.5-.7-10.3-2.4-13.5-2.5-4.5-2.8-9.2-.7-11.9.8-1.1 1.5-3.9 1.5-6.2 0-3.1.7-5.1 2.4-7.1 2.3-2.6 2.9-2.8 9.3-2.5l6.9.2-.2-3.1c-.1-1.8-.6-3.4-1.1-3.8-2.6-1.8-5.3-6.8-5.3-9.6 0-2.5-.8-3.8-3.3-5.8L760.3.1l-1.6 3.4c-2.1 4.3-5.6 6.6-11.1 7.2-4.2.5-4.5.4-6.3-2.8-1-1.9-2-4.3-2.3-5.4-.8-2.7-6.5-3.2-10.8-.9-3 1.6-3.7 1.6-6.5.4-2.1-.9-8-1.5-17.3-1.8-12.1-.3-14.4-.1-15.8 1.3z"/><path d="M1078.5 3.1c-2.2 1.6-5 3.7-6.2 4.5-1.2.9-4 4.9-6.2 8.9l-4 7.3 1.4 4.9c.8 2.6 2.1 5.7 2.9 6.8 2 2.6 2 9.5.1 12.2-2.2 3.2-13.5 8.3-18.2 8.3-3.5 0-4.1.4-7.1 5-2.2 3.3-4.1 8.4-5.8 15.2-1.3 5.7-2.9 12-3.5 14-.7 3-.6 4.4.6 6.7.8 1.7 1.5 3.7 1.5 4.6 0 2.9 3.9 7.3 7.4 8.5 2.6.8 3.8 2.1 4.9 4.9 2.2 5.3 3.7 6.3 7.6 5 2.6-.9 3.1-1.6 3.1-4.4 0-7.4 11.9-11.8 15.7-5.8 1 1.6 2 3 2.3 3.3.4.3 2.3 2.4 4.4 4.7l3.7 4.2-2.2 3.9c-2 3.4-2.1 4.2-1 5.6.7.9 2.6 1.6 4.2 1.6 3.2 0 3.9 1.9 1 2.7-1.8.5-1.9 2.2-.4 6.3.4.8.5 1.9.4 2.3-.1.4.7.3 1.8-.2 2.5-1.4 4.9 1 2.8 2.8-.8.6-1.6.9-1.9.6-1.2-1.2-9.4 2.8-13.4 6.5-5.7 5.2-11 5.5-17.2 1-4.7-3.4-6.8-3.7-10-1.4-3.4 2.3-3 7.3.9 11 4.1 3.9 6.4 7.8 8.4 14.4.9 3 2.4 7 3.2 8.8.8 1.8 1.3 4 1.1 5-.1.9.1 2.3.6 3 .5.9.1 2.1-1.1 3.5-1.1 1.2-2.3 3.1-2.8 4.2-.5 1.3-.9 1.5-1.2.7-.3-.9-1.4-.6-3.6 1-1.8 1.3-3.5 2.4-3.9 2.4-.5.1-1.1.2-1.6.3-1.6.2-4.4 7-4.1 9.9.3 2.1-.4 3.9-1.9 5.6-2.1 2.6-6.2 3.6-6.2 1.6 0-.6-.6-1-1.3-1-.8 0-3-1.9-5.1-4.1-2.8-3.2-3.6-4.8-3.2-6.8 2.3-11.7 2.8-14.1 3.7-14.6 1.6-1.1 1-3.5-1-3.5-2.3 0-4.5-2.5-3.6-4 .4-.6.9-4.7 1.2-9.1l.5-7.9-3.6-1.5c-4.7-2-6.9-1.9-11.6.5-2.7 1.4-3.8 2.5-3.4 3.5.4.8 1.2 1.5 1.9 1.5 1.1 0 1.9 1.6 5.7 10.7.7 1.8 1.6 3.3 2 3.3 1.3 0 .9 8-.6 10.8-3.1 5.9-13.5 8.6-14.4 3.7-.2-1.1-.9-2.7-1.6-3.5-2.5-3.2-3.6-7.2-3-11.2.7-4 5-11.8 6.6-11.8.4 0 .8-1.5.8-3.3 0-2.2-1-4.2-3.1-6.5-1.8-1.9-3.3-4.8-3.7-7.2-.6-3.4-1.4-4.5-4.7-6.3-2.2-1.2-4.9-3.8-5.9-5.8-1.1-1.9-3.7-4.5-5.8-5.8-5.3-3-6.1-5.7-5.3-17.3.6-8.5.4-10-1.2-12.5-1-1.5-2.3-3.5-2.8-4.4-.6-.9-1.9-2.9-2.9-4.4-1.5-2.1-1.7-3.1-.9-4.4.9-1.4.5-3-1.5-7.2l-2.7-5.4-9.8-.2c-8.8-.2-10.2-.5-12.8-2.7-3-2.5-6.7-4.2-7.5-3.3-.3.3-.7 5.4-1 11.3-.7 14.5-.7 14.7-5.4 17.3-3.2 1.8-5.3 2.2-9.3 1.9l-5.2-.3v6.1c0 4.3.5 6.8 1.6 8 4.1 4.8 4.3 6.3 1.2 13.2-.8 1.9-1.9 6.2-2.4 9.7-.5 3.4-1.3 7.3-1.8 8.6-1.4 3.7-6.9 8.9-9.9 9.5-4 .7-11.4-3.3-13.1-7.3-1.2-2.6-2.2-3.4-6.5-4.4-9.4-2.2-11.6-4.3-11.6-11.5 0-3.3 1.6-5.2 6.9-7.9 6-3 8-6.3 8.1-12.8 0-5-.4-6.3-3.1-9.7-1.8-2.2-3.6-3.8-4.2-3.7-.5.1-2.1-1.4-3.4-3.3-3-4.4-3.6-4.6-7-2.2-4 2.7-13 5.9-18.6 6.6-2.6.3-6.7 1.5-9.2 2.6-2.4 1.1-4.8 2-5.4 2-2.7 0-3.8 2.9-3 8.1.5 2.9.6 5.5.4 6-.3.4-2.3 1-4.4 1.4-2.2.4-4.5 1.3-5.2 2.1-.6.8-2 1.4-3 1.4s-2.2.7-2.7 1.6c-1.1 1.9-7.6 4.3-12 4.4-4.1 0-9.9-5.2-10.8-9.7-.3-1.7-1.6-3.3-3.2-4.1-3.5-1.6-3.7-1.6-6.5 1.2-3.3 3.3-9.1 4.3-13.1 2.3-4.1-2-10.2-1.7-11.9.7-2.6 3.5-9.6-1.7-8.5-6.2.6-2.2-2.4-4.5-4.7-3.6-.9.4-2.8-.7-5-2.9-3.7-3.7-6.5-5.3-6.5-3.7 0 .6-.7 1-1.5 1s-1.5-.7-1.5-1.5-.9-1.5-2-1.5c-2.6 0-2.5-2 .1-5.4 1.6-2.1 2-3.7 1.6-7.4-.4-4.8-3.2-16.9-4.7-20.9-.5-1.2-.6-3.4-.2-5 1.3-4.6.4-6.9-3.4-8.6-5.6-2.7-6.5-2.3-5.9 2.5 1.4 10.4 1.3 11.4-.9 16.8s-2.3 5.5-6.3 5.6c-4.1 0-4.1 0-7.1-6.5-1.7-3.6-3.6-8.3-4.2-10.4-1.3-4.3-1.6-4.4-4.6-1.6-2 1.9-2.6 2-5.8.9-1.9-.6-4.5-2.2-5.8-3.5-3.5-3.8-5.5-3.2-6.3 1.7-1.2 7.4-3.6 11.7-8.8 16.3-4.4 4-5.5 4.5-9.1 4.4-2.3-.1-5.4-.9-7.1-1.8-1.6-.8-3.9-1.6-5-1.8-1.1-.2-2.7-.6-3.5-1-.8-.3-2.1-.5-2.9-.4-.7.1-1-.2-.7-.7.3-.6-.1-1.3-.9-1.6-.9-.3-1.8.1-2.1.9-.4.8-1.7 1.5-3 1.5s-2.4.2-2.4.5c0 1 5.5 9 6.9 10.1 1.7 1.4 2.7 10.9 1.2 11.8-1.8 1.1-1.3 4.6.7 4.6 3.3 0 6.2-1.2 6.2-2.6 0-1.9.9-1.8 4.8.6 2.8 1.7 3.2 2.3 2.2 3.5-1.3 1.6-1.6 1.5 8.8 2.1 2.3.1 6.6 1.1 9.5 2.2 7.6 2.8 17.3 5.9 24.7 7.7 6.4 1.6 20.9 8.7 30.5 15.1 5.2 3.5 17.7 15.1 23.3 21.8 1.9 2.2 4.4 6 5.7 8.5 1.3 2.5 3 5.5 3.8 6.6 1.4 1.9 1.5 1.8 1-1-.2-1.7 1.3.8 3.3 5.5 2.1 4.7 4.6 9 5.5 9.7.9.7 1.9 2.6 2.2 4.2.4 2.1 1.8 3.7 4.8 5.4 3.3 2 4.2 3.2 4.4 5.6.2 2.5 0 2.9-.9 1.8-1.5-1.9-4.6-2.9-4.6-1.6 0 .6.8 2.3 1.9 3.7 1 1.5 2.2 4.2 2.6 6 .8 3.7 6.9 10.7 8.5 9.7.5-.3 1 .1 1 1s2.5 4.8 5.5 8.7c3 3.8 5.5 7.6 5.5 8.3 0 .7.6 1.8 1.4 2.4.8.7 1.7 4 2.1 7.4.8 7.5 3.6 17.8 4.7 17.1.4-.3.5.1.2.9-.5 1.3 5.2 14.1 8.8 19.7.8 1.4 1.9 3.8 2.2 5.3.4 1.5 1 2.5 1.5 2.2.5-.2 1.2.2 1.5 1.1.9 2.4.7 2.8-.9 1.4-2-1.6-1.9 0 .1 2.8.8 1.2 1.3 2.2 1 2.2-.2 0-.1 1.3.4 3 .5 1.9.5 3-.1 3-1.4 0-.1 3.9 2.2 6.9 1.1 1.3 1.9 3.6 1.9 5.2 0 1.5.5 3.1 1 3.4.6.3 1.7 2.1 2.6 3.8l1.6 3.2-3.1-3.5c-1.7-1.9-3.1-3-3.1-2.5 0 .6.5 1.6 1.2 2.3.7.7.8 1.2.3 1.2s.4 1.4 2.1 3.2c1.6 1.7 2.3 2.8 1.7 2.4-1.8-1-1.6.9.2 2.4.8.7 1.5 1.9 1.5 2.7 0 1.7 6 13.7 7 14.1.4.2.6 1.1.3 2.1-.6 2.3 7.6 21.3 8.9 20.5 1-.6 3.8 1.4 3.8 2.7 0 .5-.7.6-1.5.3-2.1-.9-1.9.1 1.6 6.7 1.8 3.2 3.8 5.9 4.6 5.9.8 0 1.2.4.8 1-.3.5-1.2.7-2 .4-.9-.4-.5 1.8 1.6 7.3 1.6 4.3 3.1 8.9 3.2 10.3.2 1.7.8 2.4 1.9 2.2.9-.1 1.9.2 2.3.8.3.5-.1 1-.9 1s-1.7.4-2 .8c-1 1.6 8.3 28.9 9.5 27.8.2-.2 1.2 1.1 2.1 3 1 1.9 1.3 3.4.8 3.4s-.2.9.7 2c1 1.1 2.5 2 3.5 2 2.4 0 2.3 1.7-.2 2.5-2.4.8-2.6 2.1-.4 2.9.8.3 1.3 1 1 1.5-.3.5 0 1.4.8 2 .8.7 1.2 2.1.9 3.1-.3 1.1-.1 2.6.5 3.3.6.6 1.5 3.8 2.1 7 1 5.7 3.8 11.7 5.3 11.7.4 0 .8.5.8 1.1 0 .6-.6.9-1.4.6-2.1-.8-2.7.3-1.4 2.7.7 1.1 1.1 2.4 1 2.8-.1.4.5.5 1.3.2 1-.4 1.5 0 1.5 1.1 0 1.2-.6 1.6-2 1.2-1.6-.4-1.8-.2-1 1.3.5 1 1.5 2.1 2.2 2.3 1 .4.9.8-.2 1.6-1 .7-1.1 1.1-.3 1.1.7 0 1.7.9 2.2 1.9.9 1.6.8 1.8-1.1 1.3-3.1-.8-1.4 1.5 2.5 3.3 3.4 1.5 7.7 4.9 7.7 6 0 .4-1.5-.4-3.4-1.9-4.2-3.1-5-3.3-3.4-.5 1.5 2.5 8.6 6.1 10.2 5.2.8-.4.8-.2 0 .6-.9 1-2.1.8-5.4-.9-4.4-2.2-6.7-2-3.5.4 1 .7 1.6 2 1.2 2.8-.9 2.6 1.9 5.6 4.7 5.1 2.1-.4 2.4-.2 1.9 1.6-.3 1.1-.2 2.9.2 3.8.5 1 .7 2.3.6 3-.1.7.9 1.7 2.1 2.4 1.3.6 3.9 2.8 5.9 4.8 2 2 4.7 4.4 6 5.3 1.3.9 2.2 1.8 1.9 2.1-.7.8-10.3-1.5-11.5-2.8-.5-.5-2.2-2.1-3.7-3.4-2.6-2.3-2.7-2.3-2.1-.2.3 1.1.9 2.1 1.4 2.1.5 0 .6.7.3 1.5-.4.9.1 1.8 1.1 2.1.9.4 1.4 1.2 1.2 1.8-.3.6 2 2.9 5 5.1 3 2.2 4.9 4.1 4.3 4.3-.7.3-3.1-.9-5.4-2.5l-4.1-2.9 2.2 4.5c1.4 3 1.8 4.8 1.1 5.2-.7.4-.1 1.7 1.5 3.5 2 2.1 2.4 3.2 1.6 4.6-.5 1-.7 2.3-.4 2.8.3.6.1 1-.4 1-1.5 0-1.4 1.6.3 3.2.7.8 1.7 2.5 2.1 3.8.4 1.4 1.3 3.8 2 5.5.7 1.6 2.3 5.2 3.4 7.9l2.1 4.9-2.7-2.9c-1.6-1.6-3.4-4.2-4.1-5.8-.7-1.6-1.5-2.6-1.8-2.3-.3.3.6 2.8 2 5.6s2.2 5.1 1.9 5.1c-.4 0 .7 1.5 2.3 3.2 3.8 4.1 6.7 8.8 6 9.5-.3.3-.8-.2-1.2-1.1-.3-.9-1.1-1.3-1.7-.9-.6.3-.7.1-.3-.6.4-.6.1-1.8-.8-2.6-1-1-1.7-1.2-2.1-.4-.5.6-1.2.4-2.1-.8-.8-1.1-1.3-1.3-1.4-.5 0 1.6 6.8 8.2 8.5 8.2 1.5 0 2.6 2.3 3.1 6.5.3 2.7.2 2.8-.6.8-1.1-2.7-3.3-3.1-2.8-.6.2 1 1.3 2.2 2.6 2.8 1.2.5 2.3 1.7 2.4 2.5.2 2.9.4 3.5 2.2 9.2l1.9 5.8H1180V342h-5c-6.3 0-11.7-2.5-12.5-5.9-.4-1.5-.2-2.7.4-2.9.6-.2 1.1-1.1 1.1-2 0-1 1.6-3.7 3.6-6.2 3.3-4.2 3.5-4.7 2.8-9.7-.8-6.4.3-8.1 5.7-8.9l3.9-.7V0l-48.7.1-48.8.1-4 2.9zM643 99c0 .5-.2 1-.4 1-.3 0-.8-.5-1.1-1-.3-.6-.1-1 .4-1 .6 0 1.1.4 1.1 1zm62.4 19.6c2.1 2 2 3.2-.3 7-1.6 2.6-2.4 3.1-4.8 2.6-3.3-.6-5.5-2.1-4.7-3.3.3-.5.1-.9-.4-.9-1.5 0-2.4-3.2-1.3-4.3.5-.5 2.4-1.1 4.2-1.3 1.8-.2 3.5-.6 3.7-.9.9-.9 2-.5 3.6 1.1zm442.6 4.2c1.3 3.8 1.3 4.6-.1 7-1.7 3-7 3.9-7.5 1.2-.2-.8-.8-3.4-1.5-5.8-1-3.8-1-4.4.7-5.7 1.1-.8 3-1.4 4.4-1.2 2 .1 2.8 1.1 4 4.5zm-286 2.7c2.4 2.9-1.5 10.5-4.1 7.8-1.4-1.5-1.4-6 0-7.7 1.7-2 2.5-2 4.1-.1zm15.1 35.2c0 .5.2 1.9.5 3.1.3 1.7-.1 2.5-1.5 2.9-1.2.3-1.7 1.1-1.4 1.9.4 1-.3 1.4-2.3 1.3-2.5 0-2.6-.1-.9-.9 1.1-.5 1.5-.9.8-.9-.7-.1-1-.8-.6-1.8.4-1.1.3-1.4-.5-.9-.8.5-1.2-.1-1.2-1.8 0-2.4 1.2-3.2 5.3-3.5.9 0 1.7.2 1.8.6zm-91.2 61.1c.1.7-.3 1-.9.7-.5-.3-1-1.8-.9-3.3 0-2.4.1-2.5.9-.7.5 1.1.9 2.6.9 3.3zm185.2 13.9c0 1 .2 2.7.4 3.7.3 1.6.2 1.7-1 .5-2.2-2.4-2.9-5.9-1.1-5.9.9 0 1.6.8 1.7 1.7zM913 277c1.7 1.6 3.5 3 4 3 .4 0 .2 1.3-.6 3-.9 1.6-2 3-2.5 3-1.7 0-2.4.2-4.4 1.6-2.7 1.9-5.2 1.7-7.5-.6-2.6-2.6-2.5-4.4.3-5.8 1.2-.6 1.6-1.1.8-1.1-1.1-.1-1.1-.4-.1-1.6.7-.8 1.8-1.5 2.5-1.5s1.8-.7 2.5-1.5c1.6-1.9 1.4-2 5 1.5zm-86.3 33.4c-.3.7 0 1.9.6 2.5.6.6.7 1.1.1 1.1-2.1 0-3.3-2.2-2.1-3.6 1.6-1.7 2-1.7 1.4 0zm8.1 32.1c-.3.3-.9-.2-1.2-1.2-.6-1.4-.5-1.5.5-.6.7.7 1 1.5.7 1.8zm206.6 18c2.1 1.6 1.5 2.9-2.9 6.7-2.7 2.4-3.2 2.3-5-1.3-1.9-3.5-2-3.3 2-5.3 3.6-1.9 3.5-1.9 5.9-.1zm-133.2 92.2c2.6 2.3 2.3 5.1-.7 5.9-3.1.8-5.5-1-5.5-4.1 0-3.5 3.3-4.5 6.2-1.8zm2.7 7.4c-.7.4-1.6.5-1.9.2-.3-.3.1-.8.8-1 .6-.3 1.3-1.2 1.3-2.1.1-1.4.2-1.3.6.2.3 1-.1 2.2-.8 2.7zm5.7 122.6c-.7.7-2.6-.7-2.6-1.9 0-.6.6-.6 1.5.2.9.7 1.3 1.5 1.1 1.7zm16.9 50.3c.3.6-.1.7-.9.4-1.8-.7-2.1-1.4-.7-1.4.6 0 1.3.4 1.6 1zM128.7 8c-.4 1.8-.9 1.9-3.3 1-3.6-1.4-5.8-.5-5.1 2.1.5 1.7.3 1.8-.9.8-1.5-1.2-1.7-.9-2.7 3.5-.1.5 1.8 1.1 4.3 1.3 2.5.3 7 1.3 10 2.4 3 1.1 6.2 2.2 7.1 2.5 1.2.4 1.8-.2 2.3-2.1.5-2.1.1-3.2-1.6-4.9-1.3-1.2-3.1-3.7-4-5.4-1.9-3.6-5.3-4.3-6.1-1.2zm425 6.4c-1.5 2.2-1.5 2.5 0 3 1.8.7 3.3-.9 3.3-3.7 0-2.4-1.5-2.1-3.3.7zM152 18.5c0 1.6.6 2.5 1.5 2.5s1.5-.9 1.5-2.5-.6-2.5-1.5-2.5-1.5.9-1.5 2.5zm-44.6 0c2.2 1.7 5.2 2 6 .6.7-1.1-1.8-2.1-5.2-2.1-2.6.1-2.6.1-.8 1.5zm724.1.5c-1 1.1-2.6 2-3.7 2-1 0-3.6.5-5.7 1.2-3.1 1-4.1 1.9-4.9 4.4-.9 3.2-.9 3.3 3.7 5.2 4.9 2.2 7.1 1.6 7.1-1.8 0-.9 1.1-2.9 2.5-4.4 2.7-3 4.5-5.9 4.5-7.5 0-1.7-1.5-1.3-3.5.9zM514 22.3c0 .7 1.4 2.8 3 4.7l2.9 3.5.1-3.2c0-2.5-.6-3.5-3-4.7-2.1-1-3-1.1-3-.3zm278 3.8c-1.9 1-4.3 2.1-5.4 2.4-1.6.4-1.1 1.2 3 5.2 2.7 2.6 6.4 5.2 8.2 5.9 3.1 1.1 3.3 1.1 7.3-3.5 4.4-5 4.8-6.3 2.3-6.7-2.3-.3-8.2-3.3-8.9-4.4-.8-1.4-2.4-1.1-6.5 1.1zM59.2 33.7c1.5.9 3 2.6 3.3 3.7.5 1.6.8 1.7 1.2.7.6-1.5-4.2-6.1-6.2-6.1-.5 0 .2.8 1.7 1.7zm88.8 4.8c0 .8.5 1.5 1 1.5.6 0 1-.7 1-1.5s-.4-1.5-1-1.5c-.5 0-1 .7-1 1.5zm499.7 3.7c.3 1.8.6 3.3.7 3.4.1.1 1.6-.5 3.5-1.3l3.4-1.4-3.2-2c-4.4-2.6-5.1-2.4-4.4 1.3zm-498.9.8c-.7 2.4-.3 3.8.8 2.8.3-.4.4-1.7.2-3l-.3-2.3-.7 2.5z"/><path d="M830.6 46.2c-.7 3.3.5 5.5 2.3 4.4 1.2-.8 1.4-3.6.5-6-1-2.5-2.1-1.9-2.8 1.6zM66.5 48.1c.1 1.4 1.3 2.6 3.5 3.5l3.4 1.5-2-2.3c-4.8-5.6-5.1-5.8-4.9-2.7zm77.7.1c-1.9 1.9-1.4 2.8 1.8 2.8s4.2-2.3 1.4-3.4c-2-.8-1.8-.8-3.2.6zm646.3.7c-4.7 1.9-7.4 7.9-9.9 21.4-1.4 7.2-1 8.3 2.8 7.3 1.6-.4 3.3.1 5.1 1.5l2.6 2.2 5-5.4c3.8-4.1 5.2-5 6.1-4.1.7.7 2.4 1.2 3.8 1.2 2.5 0 2.6-.3 2.8-5.9.2-3.9-.2-6.4-1-7.1-.7-.6-2.3-1.9-3.5-2.9-1.2-1-2.7-3-3.2-4.4-.7-1.7-1.8-2.7-3-2.7-1.1 0-2.3-.5-2.6-1-.7-1.2-2.2-1.2-5-.1zm-149 3.2c-.4.6-.5 1.3-.2 1.6.7.7 2.7-.6 2.7-1.8 0-1.2-1.7-1.2-2.5.2zM82.6 53.9c-1.9.7-3.1 6.1-1.4 6.1.4 0 1.5 1.4 2.4 3.2.9 1.8 2.3 3.8 3 4.6 2.5 2.4.8 6.7-2.2 5.5-.9-.3-1.4.2-1.4 1.5 0 3-1.5 3.4-3.6 1.1-2.9-3.3-5.1-4.1-7.2-2.8-2.3 1.5-1.8 6.9.7 6.9.9 0 3.1.9 5 2.1 3.3 2 3.5 2 8.2.2 4.2-1.4 5.5-1.5 8.2-.5 3.5 1.3 3.6 1.3 6.9-4.7 1.4-2.6 2.3-3.1 5.3-3.1 2.6 0 3.5-.4 3.5-1.7 0-.9.9-2.6 2-3.8l2.1-2.2-2.6-1.7c-2.6-1.7-2.7-1.7-6.2 1.1-4.9 3.9-9.5 6.2-11.3 5.5-3.2-1.1-5-3.6-5-6.8 0-3.5-2.7-11.5-3.9-11.3-.3 0-1.5.4-2.5.8zm555.7 13c-2.1 1.8-2.2 2.1-.9 8.2.7 3.4 1.5 5.8 1.8 5.3.7-1.1 2.2-15.4 1.7-15.4-.2.1-1.4.9-2.6 1.9zm17.2.5c-1.8 1.3-1.8 1.4.3 2 2.6.8 4.2.1 4.2-2 0-1.8-2.1-1.8-4.5 0zM645 81.8c0 .5.5 1.3 1.2 2 1.6 1.6 2.9 1.5 2.2-.2-.6-1.6-3.4-3-3.4-1.8zm249.8 5.6c-2.5 1.9-2.3 4.7.3 4.3 2.4-.4 3.9-2.4 3.2-4.4-.6-1.6-1.3-1.6-3.5.1zM901 100c0 1-.7 2.3-1.5 2.8-1.3.7-1.4 1.4-.6 3.5.9 2.2 1.7 2.7 4.6 2.7 4 0 4.1-.4 1.9-5.9-1.7-4.4-4.4-6.3-4.4-3.1zM2.2 104c-3.2 1.3-2.7 3.5 1.8 8 2.2 2.2 4 4.7 4 5.5 0 1 1 1.5 2.8 1.5 3.6 0 5.4-1.3 4.6-3.3-.4-1.1 0-1.9 1-2.3.9-.3 1.6-1.1 1.6-1.7 0-.6.7-1.9 1.7-2.9 1.8-2 1-3.9-.9-2s-5.8 1.4-9-1.3-4.1-2.9-7.6-1.5zm571.9 10.6c0 1.1.3 1.4.6.6.3-.7.2-1.6-.1-1.9-.3-.4-.6.2-.5 1.3zm29.9 7.8c0 .2.7.9 1.5 1.6.9.7 1.5.8 1.5.2 0-.5-.7-1.2-1.5-1.6-.8-.3-1.5-.4-1.5-.2zM21 135.5c0 .8-.5 1.5-1 1.5-.6 0-1.8 1.7-2.8 3.7-.9 2.1-2.3 4.3-3.1 4.9-1.1.9-1 1.8.8 5.8 1.2 2.5 2.6 4.4 3.1 4.1.5-.3.8-3.2.7-6.5-.2-5.2.1-6.2 2.6-8.7 3-3.2 3.6-6.3 1.2-6.3-.8 0-1.5.7-1.5 1.5zm15 10c0 .8.5 1.5 1 1.5.6 0 1-.7 1-1.5s-.4-1.5-1-1.5c-.5 0-1 .7-1 1.5zM5 161.6c-.6 1.4-.7 3.2-.3 3.9 1.3 2.2 5.6-1.9 4.8-4.5-.9-2.8-3.4-2.5-4.5.6zm616.6 1.7c.3 1 .9 1.5 1.2 1.2.3-.3 0-1.1-.7-1.8-1-.9-1.1-.8-.5.6zM0 179.5c0 5.9.2 6.5 2 6.5 2.6 0 3.6-2.5 2.2-5.3-.6-1.2-1.3-3.4-1.6-5-1.1-5-2.6-2.8-2.6 3.8zm643.3-3.6c.8 2.3 1.3 2.8 1.5 1.6.2-1-.3-2.5-1.2-3.3-1.4-1.5-1.5-1.3-.3 1.7zm-39.3.3c0 .9.5 2 1 2.3 1.3.8 1.3-.5 0-2.5-.8-1.3-1-1.3-1 .2zm2.1 9.4c0 1.1.3 1.4.6.6.3-.7.2-1.6-.1-1.9-.3-.4-.6.2-.5 1.3zm10.4.3c-.3 1.1-.1 3 .5 4.1.6 1.1.8 2.5.5 3-1.2 1.9.6 4.8 3.6 6 2.9 1.2 5.4.6 3.4-.8-.6-.4-1.2-1.6-1.3-2.7-.5-2.5-4.2-10.4-5.2-11-.5-.3-1.1.4-1.5 1.4zm35.5 0c0 .5.5 1.3 1 1.6.6.3 1 .2 1-.4 0-.5-.4-1.3-1-1.6-.5-.3-1-.2-1 .4zm-56.6 5.2c0 1 .6 1.9 1.3 1.9.7 0 1.3-.4 1.3-.9s-.6-1.3-1.3-1.9c-1-.8-1.3-.6-1.3.9zm13.6-.4c0 1.2-.7 2.3-1.5 2.7-.8.3-1.5.1-1.5-.5s-.5-.7-1.1-.3c-1.4.8-.1 2 3.3 2.8 2.7.6 2.7.5 2.1-2.6-.7-4-1.3-4.9-1.3-2.1zm45.2 2.3c0 2.8 1.3 7.6 3.5 13 5.2 12.6 5.4 13.1 4.9 8.9-.2-1.9-1.4-5.6-2.6-8.2-1.2-2.6-2-5.4-1.7-6.2.4-.8.2-1.7-.3-2-.6-.4-1 0-1.1.7-.1 1.6-1.7-2.2-1.8-4.2-.1-1.3 0-1.3.9 0 1.7 2.7 1.6.5-.1-3l-1.7-3.5v4.5zm-82.7-1c-.3.6.1.7.9.4 1.8-.7 2.1-1.4.7-1.4-.6 0-1.3.4-1.6 1zm29.5 0c0 .5.5 1 1 1 .6 0 1-.5 1-1 0-.6-.4-1-1-1-.5 0-1 .4-1 1zm12.7 2c-.7 2.6-.4 3.4 1.1 2.9.4-.2.5-1.5.2-2.9l-.6-2.5-.7 2.5zm-37.7.8c0 .6-1.1 2.2-2.4 3.5-1.6 1.6-2.1 2.9-1.6 3.8 1 1.6 1 1.6 3.3-3.5 1-2.1 1.5-4.1 1.2-4.4-.3-.3-.5 0-.5.6zm119 1.8c0 .6.7 1.9 1.6 3 1.4 1.8 1.4 1.8.3-.6-1.4-3.1-1.9-3.6-1.9-2.4zm-102 2.2c0 3.6 3.8 16.1 5.9 19.6 1.2 2 2 3.9 1.8 4.4-.3.4 1 3.4 2.9 6.7 2 3.3 3.2 4.9 2.8 3.5-.4-1.4-.9-3.4-1-4.5-.3-3.9-1.6-10.1-4-18.5-1.3-4.6-2.4-9.4-2.4-10.7 0-1.9-.5-2.3-3-2.3-2.2 0-3 .5-3 1.8zm1.7 1.4c-.3.8-.6.5-.6-.6-.1-1.1.2-1.7.5-1.3.3.3.4 1.2.1 1.9zm-37.2 1.9c-5.6 6.3-7.7 11.9-8.3 22.4-.4 7.8-.1 9.8 1.8 14.3 2.9 6.7 5.4 8.3 6.8 4.4.6-1.5 1.3-4.5 1.7-6.7.4-2.2 1-4.5 1.5-5 .4-.6 1-4.8 1.4-9.5.3-4.7.9-10.1 1.2-12l.5-3.5-2.2 2.5c-1.1 1.4-3.9 6-6 10.2-2.2 4.3-4.2 7.8-4.5 7.8-.9 0 .5-10.4 2.1-15.6.7-2.3 2.9-6.3 5-8.8 4.7-5.7 4-6-1-.5zm19.2-2.4c-1.4 5-1.5 6.9-.7 8.3.8 1.2 1 1 1-.8 0-1.5.5-2.2 1.3-1.9.6.2 1.1 1.4 1 2.6-.2 1.1.1 2.1.6 2.1s.8-2.4.7-5.4c0-3-.3-5.2-.5-5-.2.2-1-.1-1.7-.7-.9-.7-1.4-.5-1.7.8zm2.3 1.2c0 .6-.4 1.3-1 1.6-.5.3-1-.1-1-.9 0-.9.5-1.6 1-1.6.6 0 1 .4 1 .9zm121.3 1.3c.2.7.7 2.4 1.1 3.8.6 2.3.6 2.3-.9-.3-.9-1.6-1.9-2.6-2.2-2.3-.8.8.7 11.6 1.7 11.6 1.5 0 1.9 4.4.5 7.1-1.3 2.4-1.3 2.9.1 4 1.3 1.1 1.4.9.9-1.4-1.1-4.3.9-3.1 3.4 2 3 6.2 7.4 13.2 8.4 13.3 1.2 0 .8-4.2-.8-8.8-.9-2.4-1.7-5.1-1.8-6.2-.2-1-.8-2.4-1.3-3.2-.6-.7-1.6-3.2-2.3-5.6-.6-2.3-1.6-4.2-2.1-4.2-.6 0-1-.8-1-1.9 0-2.2-2.8-9.1-3.6-9.1-.3 0-.4.6-.1 1.2zM587.2 209c0 1.9.2 2.7.5 1.7.2-.9.2-2.5 0-3.5-.3-.9-.5-.1-.5 1.8zm62.6-.9c.6.7 1.2 2.4 1.2 3.8 0 1.8.3 2.2 1.1 1.4 1.4-1.4.3-4.9-1.9-5.8-1.4-.5-1.5-.4-.4.6z"/><path d="M576.2 212.2c0 1.3-.1 3-.3 3.8-.2.8.2 1.4.9 1.2.8-.1 1.1.2.7.8-.3.5-1.2 1-2 1-1 0-1.3.9-1 3.1.2 2.1 0 2.9-.8 2.6-.7-.3-1.3.6-1.4 2l-.1 2.5 3.2-3.1c4.6-4.5 5.5-3.8 1.2.9-4 4.4-4.4 5.2-2.1 4.4 1.3-.5 1.4-.2.5 2.1-1.7 4.4-1.1 5.2 1.6 2 3-3.4 2.5-2.3-2.4 5.3-5.6 8.8-12.9 11.6-18.7 7-1.5-1.2-4.1-4.9-5.7-8.2-2.3-4.9-2.7-5.4-2.2-2.6.8 4.1 7.5 13.6 10.4 14.5 1.1.3 2 1.1 2 1.6s1.2.9 2.6.9c1.4 0 3.3.9 4.2 2 1.3 1.6 3.6 2.3 9.7 2.9 5 .6 8.2.6 8.6 0 .3-.5 1.3-.7 2.2-.3 1 .4 1.7.1 1.7-.6s.7-1 1.5-.7c.8.4 2.7-.6 4.3-2.3 2.7-2.7 2.9-3.3 2.1-7.3-.4-2.5-2.1-7.2-3.8-10.6-1.6-3.4-2.5-5.9-2-5.6.5.4.6-.1.3-.9-.3-.9-1.1-1.3-1.6-1-.6.4-.7-.2-.3-1.6.5-1.5.4-2-.4-1.6-.6.4-1.1.1-1.1-.7 0-.8-.6-2-1.3-2.6-1.1-.9-1.8-.3-3.2 2.9-1 2.2-2.5 4.6-3.3 5.2-.8.7 0-1.6 1.8-5.1 2.5-5 3.1-7.2 2.6-9.9-.6-3.9-2.6-6.5-3.3-4.5-.7 1.8-3.3 1.6-3.3-.2 0-.8-.4-1.5-.9-1.5s-.9 1-.9 2.2zm5.5 3.3c0 .8-.4 1.2-.9.9-.4-.3-.8-.9-.8-1.5 0-.5.4-.9.8-.9.5 0 .9.7.9 1.5zm7.3-.6c0 2.4 6.8 16.6 7.6 15.8.5-.5-6.1-16.5-7.2-17.6-.2-.2-.4.6-.4 1.8zm63.7-.5c-.3.7-.1 1.8.5 2.4.5.5 1 5.4 1 10.8v9.9l1.3-5.8c1.6-7.3 2-7.7 2.2-2.1.1 2.6-.3 4.4-.9 4.4-.6 0-.3.8.6 1.9 1.7 1.9 1.4 7.1-.5 7.1-1.2 0-1.1-.7.3-3 1.2-1.9.5-4-.9-2.6-1.1 1.1-.7 13.2.9 23.1l1.4 9 .8-4.8c.5-3.3.4-5.3-.5-6.3-.9-1.2-.9-2.3 0-5.2.9-2.6.9-4.5.3-6.3-.6-1.5-.7-3.1-.1-4 .6-1 .9-.5.9 1.8 0 3.5 1.6 4.5 2.3 1.5.2-.9.2-.6 0 .8-1.3 7.1-1.4 9.8-.5 10.4 1.4.9 2.6-12.9 1.7-19.5-.8-6-4.2-15.9-5.4-15.9-.5 0-1.4-2-2.1-4.5-1.3-4.6-2.4-5.6-3.3-3.1zm5.7 33.8c.6 2.8.2 4.8-.8 3.7-.8-1-1.5-6.9-.7-6.9.5 0 1.1 1.4 1.5 3.2zM542 218.3c-1.6.8-2.7 2.4-3.1 4.7-.3 1.9-1.1 4.8-1.8 6.4-.6 1.6-1 3.1-.8 3.3.3.2 2.5-1.9 5.1-4.8 3.2-3.6 4.6-6 4.6-8 0-3.2-.4-3.4-4-1.6zm121.1 2.3c0 1.1.3 1.4.6.6.3-.7.2-1.6-.1-1.9-.3-.4-.6.2-.5 1.3zm7.1 1.4c0 1.4.2 1.9.5 1.2.2-.6.2-1.8 0-2.5-.3-.6-.5-.1-.5 1.3zm26.8-1.1c0 .5.5 1.3 1 1.6.6.3 1 .2 1-.4 0-.5-.4-1.3-1-1.6-.5-.3-1-.2-1 .4zm-4.7 2c0 1.1.5 1.7.9 1.5 1.1-.7 1-3.4-.1-3.4-.6 0-.9.9-.8 1.9zm3.3 6.8c.9 3.8 1.4 4.2 1.4 1 0-1.4-.5-2.9-1-3.2-.7-.4-.8.3-.4 2.2zm8.6 1.3c0 1.4.2 1.9.5 1.2.2-.6.2-1.8 0-2.5-.3-.6-.5-.1-.5 1.3zm-173.1 6.6c0 1.1.3 1.4.6.6.3-.7.2-1.6-.1-1.9-.3-.4-.6.2-.5 1.3z"/><path d="M570.5 241c-1 1.1-1.6 2.2-1.3 2.5.3.3 1.3-.6 2.2-2 2-3 1.6-3.2-.9-.5zm-530.4 3.4c-1 1.2-.8 1.3.8.9 1.2-.3 2.1-.9 2.1-1.4 0-1.4-1.6-1.1-2.9.5zm520.4-.5c.3.5.1 1.2-.5 1.6-.6.4-.8 1.1-.5 1.6.8 1.2 3.6 1.1 5.5-.1 1.3-.8 1.2-1.1-.5-2.4-2.2-1.7-4.9-2.1-4-.7zm156.6.7c0 1.1.3 1.4.6.6.3-.7.2-1.6-.1-1.9-.3-.4-.6.2-.5 1.3zM795 247c1.1 3.8 5.4 11.4 5.7 10.3.2-.5-.8-3.5-2.1-6.5-2.8-6.3-5-8.6-3.6-3.8zm-100.7 3.2c0 1.8.2 2.7.5 2 .2-.6.8-.9 1.4-.6.8.5-.5-2.9-1.7-4.4-.1-.1-.2 1.3-.2 3zm-71.3-.3c-1.2 2.3-.1 6 2.4 8 1.7 1.4 4.6 6.8 4.6 8.5 0 .6-.5.4-1-.4-.7-1.1-1-1.1-1-.2 0 .7-.4 1.1-1 .7-.5-.3-.7-1.2-.4-2 .5-1.3-3.3-6.1-4.2-5.2-.3.2.4 2.8 1.5 5.7 1.1 2.8 2.3 7.6 2.7 10.6.3 3 1 5.4 1.5 5.4s.9 1.1.9 2.4c0 1.4.4 2.7.8 3 .4.2.9 1.9 1 3.6.2 1.9-.2 2.9-.8 2.5-.7-.4-.7.2 0 1.9.6 1.7.6 2.6-.3 2.9-.7.2-.9.8-.5 1.2.4.4 1.1.4 1.7 0 1.6-.9.4-34-1.5-38.3-.8-1.9-1.4-4.5-1.4-5.9 0-1.3-.4-2.2-.9-1.8-1.2.7-3.3-2.9-2.4-3.9.3-.3.3-.6 0-.6s-1.1.9-1.7 1.9zm75 9.5c0 .8.4 1.7.9 2 .5.4.7-.3.4-1.4-.6-2.3-1.3-2.6-1.3-.6zm22.8 3.2c.6 1.1 1.9 2.7 2.8 3.5 1.6 1.3 1.6 1.2.6-.7-.6-1.1-1.9-2.7-2.8-3.5-1.6-1.3-1.6-1.2-.6.7zm-59.7 1c0 1.1.3 1.4.6.6.3-.7.2-1.6-.1-1.9-.3-.4-.6.2-.5 1.3zm-5.9 10.1c0 5.7.2 7 .8 5 1.1-3.6 1.1-11.5 0-12.2-.5-.3-.8 3-.8 7.2zm-50.2.4c.7 1.1 1.4 1.9 1.6 1.6.7-.7-.7-3.7-1.7-3.7-.6 0-.5.9.1 2.1zm198.1.4c0 .5.6 2.1 1.4 3.5.8 1.4 1.4 2 1.4 1.5 0-.6-.6-2.1-1.4-3.5-.8-1.4-1.4-2.1-1.4-1.5zm3 9.2c1.1 3.4 1.9 4.2 1.9 2 0-.7-.7-2.2-1.5-3.3-1.3-1.7-1.4-1.6-.4 1.3zm3.4 7.3c.4 1.4 1.4 3.2 2.2 4 1.2 1.2 1.1.7-.2-2-2.2-4.5-2.9-5.2-2-2zm-166.9 12.8c-1 1.7-1.8 8.7-.8 7.7.5-.6 1.3-2.7 1.6-4.8.6-3.5.3-4.7-.8-2.9zm70.5 4.8c0 1.1.3 1.4.6.6.3-.7.2-1.6-.1-1.9-.3-.4-.6.2-.5 1.3zm-20.3-.1c-.7.7 1.5 9.5 2.5 9.5.5 0 .5.9.2 2.1-.4 1.3 0 2.7 1.1 4 1.9 2.1 4.3 2.7 2.7.6-.6-.6-1.1-1.9-1.1-2.7-.3-3.4-1.1-6.7-2.6-10.3-1.7-3.8-1.9-4.1-2.8-3.2zm-56.7 2.1c0 1.1.3 1.4.6.6.3-.7.2-1.6-.1-1.9-.3-.4-.6.2-.5 1.3zm81.9-.2c0 1.7 1.4 2.9 2.3 2 .8-.8-.3-3.4-1.4-3.4-.5 0-.9.6-.9 1.4zm-89.9 11.2c0 1.1.3 1.4.6.6.3-.7.2-1.6-.1-1.9-.3-.4-.6.2-.5 1.3zm68.1 6.9c.2 1.1 1.1 3 2 4.3 1.4 2.1 1.6 2.1 2.2.6.5-1.2-.2-2.6-1.9-4.3-2.3-2.4-2.5-2.4-2.3-.6zm39.8-1.1c0 .2.8 1 1.8 1.7 1.5 1.3 1.6 1.2.3-.4s-2.1-2.1-2.1-1.3zm-34 8.1c.1 2.6.2 2.8 1.1 1.2.8-1.4.8-2.2 0-3-.8-.8-1.1-.3-1.1 1.8zm39.4-1.4c.5 2.6 1.8 4.9 2.7 4.9 1.5 0 1-2-1-4.2-1.1-1.1-1.8-1.4-1.7-.7zm-41.9 5.1c-.3 1.8-.7 4.5-.8 6-.1 1.4-.5 2.4-.8 2.2-.4-.2-1 .3-1.3 1.2-.9 2.3-.7 3.1.3 1.5.8-1.2 1.1-.9 1.6 1.2.7 2.6.8 2.6 2 1 1-1.3 1.2-3.9.8-8.8-.3-3.9-.6-7.1-.8-7.3-.1-.2-.6 1.2-1 3zm43 2.8c.3.5.8 1 1.1 1 .2 0 .4-.5.4-1 0-.6-.5-1-1.1-1-.5 0-.7.4-.4 1zm7.5-.3c0 .7.5 1.5 1 1.8.6.3 1 1.7 1 3.1 0 1.4.4 2.2 1 1.9.6-.3.7.1.4.9-.3.9-.1 1.6.5 1.6 1.9 0 1.2-3.5-1.4-7-1.4-1.9-2.5-2.9-2.5-2.3zm-6.8 4.3c0 1.4.2 1.9.5 1.2.2-.6.2-1.8 0-2.5-.3-.6-.5-.1-.5 1.3zm-31.1 1c0 .8.4 2.4.9 3.5.5 1.3.9 1.4.9.5 0-.8-.4-2.4-.9-3.5-.5-1.3-.9-1.4-.9-.5zm44.9.6c0 .6.7 1.9 1.6 3 1.4 1.8 1.4 1.8.3-.6-1.4-3.1-1.9-3.6-1.9-2.4zm-14 3.4c0 .5.5 1 1.1 1 .5 0 .7-.5.4-1-.3-.6-.8-1-1.1-1-.2 0-.4.4-.4 1zm17.1 6.1c-.1.9.8 2.7 1.9 4 1 1.3 1.9 1.9 2 1.2 0-.6-.5-1.5-1.1-1.8-.6-.4-1.4-1.7-1.9-2.9-.6-1.5-.9-1.6-.9-.5zm-95.6 4.8c-.3.6-.4 1.1-.2 1.1s.1 1.8-.3 4-.4 3.7.1 3.5c.9-.6 2.3-8.4 1.6-9.1-.3-.3-.8-.1-1.2.5zm89.2 6.2c.7.7 1.5 1 1.8.7.3-.3-.2-.9-1.2-1.2-1.4-.6-1.5-.5-.6.5zm-51.6 3.5c0 1.1.3 1.4.6.6.3-.7.2-1.6-.1-1.9-.3-.4-.6.2-.5 1.3zm.1 7.4c0 1.4.2 1.9.5 1.2.2-.6.2-1.8 0-2.5-.3-.6-.5-.1-.5 1.3zm-10.7.2c-.3.7.2 3.8 1 6.8 1.4 5.3 1.4 5.3.9 1-.3-2.5-.7-5.5-.7-6.8-.2-2.5-.6-2.8-1.2-1zm12.1 7.1c.3 1 .9 1.5 1.2 1.2.3-.3 0-1.1-.7-1.8-1-.9-1.1-.8-.5.6zm49.6.3c1 1 2 1.5 2.4 1.2.3-.4-.5-1.2-1.8-1.8-2.2-1.2-2.2-1.2-.6.6zm-103.6.9c-.9 2.6-.7 3.2.5 1.2.6-1 .9-2.1.6-2.3-.2-.3-.7.2-1.1 1.1zm49.5.1c0 1.1.3 1.4.6.6.3-.7.2-1.6-.1-1.9-.3-.4-.6.2-.5 1.3zm-20.9 1.9c0 1.6.2 2.2.5 1.2.2-.9.2-2.3 0-3-.3-.6-.5.1-.5 1.8zm74.3-.5c.3.5.1 1.8-.5 2.9-.6 1.2-.6 2.2-.1 2.5.5.3.7 2.3.4 4.4-.4 2.8 0 4.2 1.6 5.9 1.2 1.2 2.1 2.7 2.1 3.3 0 .5.5 1 1.1 1 .6 0 .7-.8.3-2.3-.4-1.2-.8-3.2-.9-4.4-.1-1.2-.7-2.9-1.5-3.8-.7-.8-1-1.8-.6-2.2 1.2-1.2 2.6 1.3 3 5.4.2 2.3.9 4.9 1.6 6 .9 1.5 1 1.1.6-2.2-.4-2.8-.2-3.5.4-2.5 1.1 1.6 1.1 1.5 1.5-1.8.2-1.6-.2-2.1-1.1-1.8-.9.4-1.4-.2-1.5-1.7-.1-3.7-.9-7.1-1.9-8.1-.9-.9-1.5 1.2-1.1 3.6.2 1.3-.6.9-2-.9-1-1.1-1-1.4-.1-.9.7.4 1.2.2 1.2-.7 0-.8-.7-1.8-1.6-2.1-.8-.3-1.2-.2-.9.4zm-81.6 1.2c0 .2-.2 4.6-.5 9.8-.3 7-.2 9 .6 7.7.6-.9.9-2.1.5-2.6-.3-.5-.1-2.1.4-3.4.7-1.8.7-2.7-.2-3-.9-.3-.9-1 .1-3.1 1.5-3.3 1.6-5.6.2-5.6-.5 0-1 .1-1.1.2zm-21.3 2.3c.4.8.8 1.5 1 1.5.2 0 .4-.7.4-1.5s-.4-1.5-1-1.5c-.5 0-.7.7-.4 1.5zm-2.5 2.1c0 1.1.3 1.4.6.6.3-.7.2-1.6-.1-1.9-.3-.4-.6.2-.5 1.3zm54.1.4c0 1.4.2 1.9.5 1.2.2-.6.2-1.8 0-2.5-.3-.6-.5-.1-.5 1.3zm2.9-.4c0 1.1.3 1.4.6.6.3-.7.2-1.6-.1-1.9-.3-.4-.6.2-.5 1.3zm-51.5.3c-.4.7-.5 1.5-.2 1.8.9.9 1.9-.4 1.4-1.8-.4-1.1-.6-1.1-1.2 0zm-3.8 2.4c-.3 1.9-.2 2.5.4 1.9.6-.6.8-1.8.6-2.8-.3-1.4-.5-1.2-1 .9zm111.3-2c.2.1 1.2.9 2.2 1.6 1.4 1.2 1.7 1.1 1.7-.3 0-1-.8-1.6-2.2-1.6-1.2 0-1.9.1-1.7.3zm50.9 1.4c0 1.7 7.8 10.8 8.9 10.5.7-.1 1 .2.7.6-.3.5.6 2.2 1.9 3.8 1.4 1.6 2.5 3.2 2.5 3.5 0 .4.7 1 1.6 1.3 1.3.5 1.5.1 1-2-.4-1.4-1.6-3.5-2.6-4.7-1.1-1.1-2-2.6-2-3.1 0-.6-.8-2-1.7-3.1-1.5-2-1.5-2-1 .2.9 3.8-1.6 2.6-4.6-2.2-2.9-4.5-4.7-6.4-4.7-4.8zm-164.9 1.9c0 1.1.3 1.4.6.6.3-.7.2-1.6-.1-1.9-.3-.4-.6.2-.5 1.3zm206.1 5.1c2.5 5.6 2.9 7.3 2 9.5-.7 1.8-.6 3 .1 3.7 1.7 1.7 2.7 1.3 2.7-.9 0-1.1-.6-2-1.2-2-1 0-1-.2 0-.8 1.5-1-.1-6.3-3.8-12.5-3.3-5.6-3.2-4.5.2 3zm-172.1-4.1c0 1.1.3 1.4.6.6.3-.7.2-1.6-.1-1.9-.3-.4-.6.2-.5 1.3zm22.5 2c-.4 1.7-.2 4.1.3 5.5.9 2 1 1.7.5-1.6-.8-5 .2-4.3 1.5 1.1l.9 3.9.1-4.1c.1-2.2-.5-4.9-1.3-5.9-1.3-1.8-1.4-1.7-2 1.1z"/><path d="M847.6 400.7c2.1 6.5 4.7 11.8 5.1 10.6.5-1.3-4.1-12.3-5.1-12.3-.3 0-.3.8 0 1.7zM647 402.6c0 .8.5 1.2 1 .9.6-.3 1-1 1-1.6 0-.5-.4-.9-1-.9-.5 0-1 .7-1 1.6zm127 .5c-.8 1.1-2.3 3-3.2 4.1-2.4 2.8-3.3 8.6-2 12 1 2.7-.1 4.2-1.1 1.5-.3-.6-.6-.1-.6 1.3-.1 1.4.6 3.5 1.4 4.6.8 1.2 1.2 2.3 1 2.6-.3.2.9 2 2.5 3.9l3 3.4-1.2-3c-.6-1.7-1.7-3.6-2.2-4.4-.9-1.2-.7-1.2 1.2-.2 2.3 1.2 2.3 1.2.8-1.8-1.8-3.4-2-4.5-.6-3.6 1.7 1.1 3.2-7.3 2-11.1-.6-1.8-1.5-3.6-2-3.9-.5-.3-.7-1.2-.4-2 .4-.8 1-1.3 1.5-1 .4.3.6 1.2.2 2-.3.8-.1 1.5.5 1.5 1.5 0 2.2-2.5 1.4-5.4l-.7-2.6-1.5 2.1zm-129.9 3.5c0 1.1.3 1.4.6.6.3-.7.2-1.6-.1-1.9-.3-.4-.6.2-.5 1.3zm83.7 2.1c-.3 1 0 3 .5 4.3 1.1 2.5 1.1 2.4 1.5-.9.4-3.7-1.2-6.4-2-3.4zm94.7 9.3c.3.5 1 1 1.6 1 .5 0 .9-.5.9-1 0-.6-.7-1-1.6-1-.8 0-1.2.4-.9 1zm-116.5.8c0 1.6 3.2 10.3 3.7 9.9.5-.5-2.7-10.7-3.3-10.7-.2 0-.4.4-.4.8zm122 .2l-2.5.8 2.8.1c1.5.1 2.7-.4 2.7-.9 0-.6-.1-1-.2-.9-.2.1-1.4.5-2.8.9zm1.7 6.5c1.5 2 3.5 3.4 4.3 3.3 1.7-.4 2.7-4.8 1.1-4.8-.6 0-.8.7-.5 1.5.4.8.1 1.5-.5 1.5s-1.1-.8-1.1-1.9c0-1.1-.9-2.1-2.2-2.5-3.9-1-4-.7-1.1 2.9zm-124.2.7c.4 1.3 1.1 2.7 1.6 3.3.5.5.4-.5-.2-2.3-1.2-3.6-2.4-4.4-1.4-1zm-2.5 2.7c0 1.8 3.3 8.6 3.7 7.5.2-.6-.3-2.7-1.2-4.7-1.5-3.5-2.5-4.7-2.5-2.8zm92 1.1c0 .5.5 1 1.1 1 .5 0 .7-.5.4-1-.3-.6-.8-1-1.1-1-.2 0-.4.4-.4 1zm41.1 1.6c0 1.1.3 1.4.6.6.3-.7.2-1.6-.1-1.9-.3-.4-.6.2-.5 1.3zm-172.2.1c-.6 6-.6 11.8.1 14 .6 2 .9.4.9-6 .1-4.8-.1-8.7-.4-8.7-.3 0-.5.3-.6.7zm33.2 4.3c-.1 1.4-.4 4-.7 5.9-.2 1.9 0 3.9.6 4.6.6.7.8 2 .4 2.9-.3.9-.2 1.6.4 1.6 1.1 0 2.2-3.5 2.1-7 0-2.3-.1-2.3-.9-.5-.6 1.5-.9.4-1.2-4-.2-3.3-.5-4.9-.7-3.5zm100.9-1.2c0 1.4 3.5 3.4 4.4 2.5.3-.3.6-.2.6.3 0 .6-.5 1.5-1.2 2.2-.9.9-.9 1.2 0 1.2.7 0 1.2-.5 1.2-1.1 0-.5.5-.7 1-.4.6.3.5-.6-.2-2-.7-1.5-1.4-2.2-1.6-1.6-.3.8-1 .7-2.3-.5-1-.9-1.9-1.2-1.9-.6zm8-.3c0 .5.5 1.7 1 2.5s1 1 1 .5c0-.6-.5-1.7-1-2.5s-1-1.1-1-.5zm-102.4 8c.4 2.2 1.1 4.5 1.6 5.2.6.7.4 1.3-.4 1.5-1 .4-1 1-.1 2.9l1.2 2.4.1-2.5c.1-1.4.3-3.4.5-4.4.2-1.1-.5-3.6-1.6-5.5l-1.9-3.6.6 4zm35.3.9c3.8 4 4.3 4.3 3.5 2.3-.3-.8-1.9-2.4-3.7-3.7l-3.2-2.3 3.4 3.7zm64.1-.5c0 .6.5 1.3 1 1.6.6.3 1-.1 1-.9 0-.9-.4-1.6-1-1.6-.5 0-1 .4-1 .9zm8.7 5.6c.9 1.9 1.8 3.3 2.1 3.1.4-.5-2.6-6.6-3.3-6.6-.3 0 .3 1.6 1.2 3.5zm-74.7-1.9c0 1.6 5.7 6.7 6.1 5.5.2-.5 2.8 1 5.8 3.5 2.9 2.4 5.6 4.2 5.9 3.9.7-.6-2.2-3.3-6.3-5.9-1.6-1.1-3.6-2.8-4.3-3.8-1.5-2-3.7-2.5-2.6-.6.4.7-.5.2-1.9-1.1-1.5-1.4-2.7-2-2.7-1.5zm-30 3.9c0 .5.5 1.7 1 2.5s1 1 1 .5c0-.6-.5-1.7-1-2.5s-1-1.1-1-.5zm102 0c0 1.3 3.2 6.6 3.6 6.2.6-.6-2.3-6.7-3.1-6.7-.3 0-.5.2-.5.5zm-108.6 5.7c.1 3.2-.1 5.8-.6 5.8-1 0-.1 5.8 1.2 7.5 1.1 1.5 2 13.6.9 12.9-1.1-.7-.1 4.6 1.2 6 .4.5.5-.1.2-1.4-.4-1.6-.3-2.1.5-1.6.7.4 1.2 1.5 1.2 2.4 0 1 1.1 2.9 2.5 4.4 1.4 1.5 2.5 3.3 2.5 3.9 0 .7.3.9.7.5.4-.3 1.3.4 2 1.6.8 1.6 1.2 1.8 1.3.7 0-1.8-2.7-10.6-4.1-13.2-.6-1-.7-2.8-.4-4 .4-1.5.3-1.8-.3-.9-.8 1.1-1 1.1-1.5-.1-.3-.7.3-2 1.3-2.7 2-1.5 2-5.5 0-8.7-1-1.6-1.1-1.4-.7.9.2 1.5 0 2.5-.4 2.2-1.3-.8-1.1 1 .3 2.4 1.9 1.9.1 2.6-2.4 1-2.3-1.5-5.4-11.8-3.6-11.8.5 0 .6-.9.3-2.1-.4-1.1-1.1-4.2-1.6-6.7l-.8-4.7.3 5.7z"/><path d="M703.1 456.6c0 1.1.3 1.4.6.6.3-.7.2-1.6-.1-1.9-.3-.4-.6.2-.5 1.3zm2.9-.1c0 .8.5 1.5 1 1.5.6 0 1-.7 1-1.5s-.4-1.5-1-1.5c-.5 0-1 .7-1 1.5zm2 5.6c0 1.5.7 3.2 1.5 3.9 2 1.7 2-.5 0-4l-1.4-2.5-.1 2.6zm48.5-1.1c.3.5.8 1 1.1 1 .2 0 .4-.5.4-1 0-.6-.5-1-1.1-1-.5 0-.7.4-.4 1zm5.1 2.4c.3.9 1.1 1.6 1.6 1.6 1.3 0 .5-2.3-1-2.8-.7-.2-1 .2-.6 1.2zm-80.7 1.1c-.1.5-.3 3-.4 5.5l-.1 4.5 1.4-3.4c1-2.5 1.1-4 .3-5.5-.5-1.2-1.1-1.7-1.2-1.1zm135.1.4c0 .6.4 1.3 1 1.6.6.3.7-.1.4-.9-.7-1.8-1.4-2.1-1.4-.7zM706.2 468c0 1.9.2 2.7.5 1.7.2-.9.2-2.5 0-3.5-.3-.9-.5-.1-.5 1.8zm-2.2 3.9c0 .6.4 1.3 1 1.6.6.3.7-.1.4-.9-.7-1.8-1.4-2.1-1.4-.7zm20 4.2c0 .5.4.8.9.5.5-.3 1.2 1.1 1.6 3.1.8 4.2 8.1 19.3 9.4 19.3.5 0 1.1 1.8 1.5 3.9.3 2.2 1.1 4.3 1.8 4.7.7.5.8.3.3-.6-.6-.9-.4-1.1.4-.6.7.5 1 1.3.8 2-.3.6.4 2.7 1.4 4.6 2.2 4.3 2.4 2.1.4-4.6-.8-2.7-1.5-5.8-1.5-6.9 0-1.1-.9-2.8-2-3.8-1.2-1-1.8-2.2-1.5-2.8.4-.5-.3-4.2-1.5-8.2-2.3-7.4-3.9-10.2-4.7-8-.2.7-1.4.2-3-1.3-2.8-2.6-4.3-3-4.3-1.3zm9.5 6c1.1 1.7-.1 2.1-1.5.4-.8-.9-.8-1.5-.2-1.5.6 0 1.4.5 1.7 1.1zm.4 6.9c1.5 0 3.3 5.2 2.1 6.4-.7.7-1 .2-1-1.6 0-1.4-.7-3.1-1.5-3.8-.8-.7-1.4-2-1.4-2.9.1-1.3.2-1.3.6.1.2 1 .8 1.8 1.2 1.8zm12.8-3.9c.3 1.1 1 1.9 1.7 1.8 2.4-.3 3.7.1 3.1 1.1-.3.5-1.2.7-2 .3-2.2-.8-1.8 2 .5 4.5 1.2 1.2 1.6 2.2 1.1 2.2-.7 0-.7.9.1 2.5.6 1.4 1.5 2.5 2 2.5s.6.5.3 1c-.4.6 0 4.3.9 8.3.8 4 1.8 8.7 2.1 10.4 1.3 8.2 5.6 23.9 7.5 27.8.5 1.1 3.3 8.3 6.1 16 2.8 7.7 5.8 15.2 6.5 16.7.8 1.6 1 2.8.5 2.8s.3 3.7 1.6 8.2c3.6 12 5.3 24.1 5.8 41.8.2 8.5.4 15.8.5 16.2 0 .5 11.9.8 26.4.8h26.4l1.1-4.8c.5-2.6 1.3-6.1 1.6-7.8.9-4.8.9-24-.1-25.5-.4-.7-.8-4.4-.9-8.1-.1-3.8-.7-7.4-1.3-8-.7-.7-1.2-3.4-1.2-6 0-5.2-1.5-6.5-2.3-2.1-.3 1.6-1.1 5.2-1.9 8.1-.9 2.9-1.2 5.5-.8 5.7.4.2.6 2.8.5 5.7-.5 13.5-.4 13.1-1.9 11.9-1.2-1-1.5-.8-1.8 1-.2 1.2-.8 2.4-1.4 2.6-.8.3-.8-1.6.3-6.4 2.1-9.9 1.1-20.8-3.2-36.7-.6-2.1-.6-2.1.9-.2.9 1.1 1.6 3.2 1.6 4.7 0 3.3 1.6 4.7 2.4 2.2.8-2.8-.1-18.4-1.3-22.2-1.2-3.9-3.4-6.2-8.7-9-4.2-2.3-7.4-2.7-7.4-1 0 1.2 4 7.2 5.2 7.7.4.2.8 1 .8 1.9 0 .8-3-1.3-7.1-5.1-7.1-6.6-8.9-7.7-8.9-5.4 0 .7-.5.5-1.2-.5-.7-.9-3.5-2.4-6.2-3.5-3.2-1.2-4.5-2.2-3.7-2.7.7-.4 1.8-.2 2.4.4 1.5 1.5 5.7 1.4 5.7-.2 0-.7-2.6-4.4-5.7-8.2-7.5-8.9-12.5-15.5-12.7-16.9-.1-.6-.5-1.7-1-2.4-.4-.7-.5-1.6-.2-1.9.3-.3-.1-2.1-.9-4-.8-2-1.6-5.9-1.6-8.7-.2-4.9-.2-4.9-1 1.9-.4 3.8-.4 8.6 0 10.7.5 2 .7 5.3.4 7.3-.2 2.1.2 5.4.9 7.4s1.2 4 1.3 4.6c0 .5.7 1 1.5 1 .9 0 1.4.8 1.2 1.9-.2 1.1.1 1.5.7 1.1.7-.3.8 0 .5.9-.4 1 .5 2 2.6 3.1 1.8.9 3 1.9 2.7 2.1-.6.7-7.7-3.6-7.7-4.6 0-.5-.6-1.5-1.4-2.3-.8-.7-2.4-4.4-3.5-8.1-2.2-7.1-2.5-13.8-1.2-26.4.4-4 .4-7.6.1-8.1-.5-.8-12.6-5.1-15.4-5.5-.7-.1-2.4-.9-3.7-1.9-1.8-1.2-1.9-1.5-.5-1 1.5.5 1.8.3 1.3-1-.5-1.4-.1-1.4 4.4-.1 2.8.9 7.1 2.6 9.7 4l4.7 2.5-2.8-2.4c-3.9-3.3-17.4-8.6-21.8-8.6-3.1.1-3.6.4-3.2 2zm62.1 79.2c2.8 11.7 2.5 35.9-.7 49.7-3.4 14.5-4.4 19.3-5.6 27l-1.3 8.5V643c0-3.6.4-8.4.9-10.8.5-2.4 1.2-6.2 1.4-8.5.3-2.3 1.3-7 2.1-10.4.9-3.5 1.3-6.9 1.1-7.5-.3-.8-.6-.6-.6.4-.1 1-.6 1.8-1.2 1.8-.7 0-.9-1-.4-2.8 1.6-6.6 1.6-22.1 0-33.6-.9-6.5-1.4-12-1.2-12.3.3-.2 1.2 2.9 2 6.9l1.6 7.3-.4-7.8c-.4-8.7.4-9.1 2.3-1.4zm16.9.9c-.3.8-.6.5-.6-.6-.1-1.1.2-1.7.5-1.3.3.3.4 1.2.1 1.9zm3.3 61.3c0 .8-.4 1.5-1 1.5-.5 0-1-.7-1-1.5s.5-1.5 1-1.5c.6 0 1 .7 1 1.5zM644.1 494.6c0 1.1.3 1.4.6.6.3-.7.2-1.6-.1-1.9-.3-.4-.6.2-.5 1.3zm.4 4.6c-.4 1.3-.9 3.2-1 4.3-.2 1.1-.6 3.3-1 4.9-.7 2.6-.6 2.8 1.1 2.1 1-.4 2.9-1 4.2-1.2 1.5-.4 2.2-1.3 2.2-2.9 0-1.2-.4-2.5-.9-2.8-.5-.4-.7.2-.4 1.3.3 1 0 2.2-.6 2.6-.8.4-1.1-.8-.9-4 .2-5.3-1.5-7.9-2.7-4.3z"/><path d="M780 499c0 .5 1.1 1.2 2.4 1.6 2.6.6 6.8 4.9 5.9 5.8-.4.3-.2 1.6.4 2.9.6 1.2 1.6 3.6 2.3 5.4.7 1.8 1.9 3.8 2.6 4.4 1.2 1 1.4.3.8-4.7-.4-3.2-1.2-6.5-1.8-7.3-.9-1.2-.8-1.3.7-.8 3.9 1.4 1.3-1.2-4.5-4.6-6.3-3.7-8.8-4.5-8.8-2.7zm-45 6.1c0 1.9 4.3 13.2 6.2 16.4 1.8 3 2.6 1.9.9-1.3-.6-.9-2.2-5-3.6-9-2.6-6.9-3.5-8.5-3.5-6.1zm-99 .8c0 .6.5 1.3 1 1.6.6.3 1-.1 1-.9 0-.9-.4-1.6-1-1.6-.5 0-1 .4-1 .9zm146.1.7c0 1.1.3 1.4.6.6.3-.7.2-1.6-.1-1.9-.3-.4-.6.2-.5 1.3zm15.8 3.3c1.6 1.2 2 2 1.2 2.5-.7.5-.9 1.2-.3 1.9 1.4 1.9 6 17.7 6.6 22.8.3 2.5 1 5.7 1.5 7.1.5 1.4.7 2.8.5 3.1-.9.9 3.4 2.8 7.1 3.1 1.9.2 4.2.9 5 1.6.9.7 1.8 1 2.2.6 1-1 .9-8.5-.2-8.3-.5.1-1.3-1.6-1.8-3.8-.5-2.2-1.4-5-2-6.2-.6-1.3-.8-2.6-.4-2.9 2.1-2.1-16.2-23.4-20.1-23.4-1.4 0-1.2.4.7 1.9zm16.2 17.6c.8 1.6.6 1.5-1-.4-1.2-1.3-2.1-2.8-2.1-3.5 0-1.2 1.4.5 3.1 3.9zm-165-14.9c-1 2.3-3.1 2.5-3.1.3 0-.6.4-.8.9-.4.5.3 1.2.1 1.6-.5.8-1.3-1.1-1.3-3.8.1-2.8 1.5-3.8 3-3.3 4.9 1.3 5 1.6 9.1.7 8.5-.6-.3-1.1-1.6-1.2-2.8-.1-2-.2-2-.9.3-1.1 3.6-1.1 5.2 0 4.5.6-.3 1-.2 1 .4 0 .6.6.8 1.4.5 1.1-.4 1 .4-.4 3.3-1.1 2.1-2.1 5.8-2.4 8.3-.5 4.1-.4 4.3.9 2.6.8-1.1 1.5-2.8 1.5-3.7 0-1 .4-2 .9-2.4 1-.6.3 2.6-1.8 7.8-1.4 3.7-1.4 4.1.3 2.4 1.3-1.2 5.6-12.3 5.6-14.3 0-.4-.8 0-1.7.7-1.5 1.2-1.6 1.2-.8-.6.4-1.1.8-2.9.9-4 .1-1.1.5-2.6 1-3.3.5-.8.4-1.8-.2-2.4-1.7-1.7.6-6.5 3.4-7.2 1.5-.4 2.4-1.4 2.4-2.6 0-3-1.6-3.2-2.9-.4zm236.4 1.4c.3.5 1.1 1 1.6 1 .6 0 .7-.5.4-1-.3-.6-1.1-1-1.6-1-.6 0-.7.4-.4 1zm1.5 3c0 .5.5 1 1.1 1 .5 0 .7-.5.4-1-.3-.6-.8-1-1.1-1-.2 0-.4.4-.4 1zm-254.5 5.7c-.8 2-1.3 3.8-1 4.1.3.3.5.3.5 0s.7-2.2 1.5-4.2 1.3-3.6 1-3.6c-.2 0-1.2 1.6-2 3.7zm-3-1.6c-.4.6-.5 1.2-.2 1.5.2.3.7-.2 1-1.1.7-1.7.1-2-.8-.4z"/><path d="M648 521.6c0 .8.5 1.2 1 .9.6-.3 1-1 1-1.6 0-.5-.4-.9-1-.9-.5 0-1 .7-1 1.6zm76.7.9c.6 3.2 1.1 4.1 1.7 3.4.2-.2-.2-1.8-1-3.4l-1.3-3 .6 3zm-47 7.5c.3 3 .9 6.2 1.3 6.9 1 1.9 0-7.7-1.1-10.4-.4-1.1-.5.4-.2 3.5zm51.8 1.5c.8 4.5 1.2 5.5 2.5 5.5 1 0-.8-7.1-2.2-8.5-.7-.7-.8.3-.3 3zm-66 3.2c.3 2.6 1.1 7.3 1.7 10.3.6 3 1 6.5 1 7.7 0 1.3.4 2 .9 1.7 1-.6 1-16.3 0-20.9-.4-1.8-1.4-3.1-2.4-3.3-1.7-.3-1.8.1-1.2 4.5zm69.6 4.9c0 1.1.3 1.4.6.6.3-.7.2-1.6-.1-1.9-.3-.4-.6.2-.5 1.3zm1 3.1c-.1.6.3 1.4.8 1.8.5.3 1.2 1.8 1.6 3.4.3 1.6 1.2 3.5 2 4.1 1.1.9 1.2.7.8-1.2-.2-1.3-.7-3-1-3.8-.4-.8-.5-1.8-.5-2.3.1-.4-.4-.7-1.2-.7-.8 0-1.7-.6-1.9-1.3-.4-.9-.6-.9-.6 0zm5.9 12.7c0 .7.7 1.9 1.5 2.6 1.2 1 1.5.9 1.5-.8 0-1.1-.7-2.2-1.5-2.6-.9-.3-1.5 0-1.5.8zm-65.9 7.3c0 2.5.1 2.6.9.8 1.2-2.7 1.2-3.5 0-3.5-.5 0-1 1.2-.9 2.7zm70.9 1.5c1.1 1.8 2 4.3 2 5.4 0 1.2.7 2.7 1.5 3.4 1.2 1 1.3.8.6-1.7-1.6-5.3-4-10.3-5-10.3-.6 0-.2 1.5.9 3.2zm-77.8 2.8c0 1.4.2 1.9.5 1.2.2-.6.2-1.8 0-2.5-.3-.6-.5-.1-.5 1.3zm237.8-.2c.6 1.3 1.4 2.1 1.8 1.8.3-.4-.2-1.4-1.2-2.4-1.8-1.6-1.8-1.6-.6.6zm-231.2 5c-.3 3.1-.9 6.6-1.3 7.7-.7 1.9-.6 1.9.8-.1 1.8-2.3 3.1-12 1.8-12.9-.5-.2-1.1 2.1-1.3 5.3zM768 569c0 .8.5 2.2 1 3 .9 1.3 1 1.3 1 0 0-.8-.5-2.2-1-3-.9-1.3-1-1.3-1 0zm2 7.5c0 .8.4 1.5 1 1.5.5 0 .7-.7.4-1.5-.4-.8-.8-1.5-1-1.5-.2 0-.4.7-.4 1.5zm63.2 4.5c0 1.9.2 2.7.5 1.7.2-.9.2-2.5 0-3.5-.3-.9-.5-.1-.5 1.8zm-2 9c0 1.4.2 1.9.5 1.2.2-.6.2-1.8 0-2.5-.3-.6-.5-.1-.5 1.3zm17.5 21c.1 4.4.7 9.7 1.2 11.7.6 2.1 1.1 4.5 1.1 5.3 0 1.3-.1 1.3-1.1 0-.8-1.1-.9-.9-.3 1 1.1 3.7 1.7 19 .7 19-.4 0-.9-3.2-.9-7.1-.1-3.9-.6-7.5-1.3-8.2-.6-.6-1.1-2-1.1-3.1 0-3.8-1-.9-2 6-.5 3.8-1.3 8.6-1.6 10.7l-.7 3.7h16.2c9.8 0 16-.4 15.6-.9-.3-.5-.1-1.2.4-1.6.5-.3 1-1.3.9-2.3 0-.9.3-4.3.6-7.5.5-4.4.4-5.7-.5-5.1-.9.5-1-.1-.6-2.4.4-1.9-.1-5.1-1.3-8.6-1.1-3-2-6.3-2-7.2 0-1-.3-1.4-.7-1.1-.3.4-.6 2.8-.5 5.4.1 2.7-.3 5.5-.8 6.3-.6 1-1 1.1-1 .2 0-.6-.4-1.2-1-1.2-.5 0-1 1.1-1 2.5s-.5 2.5-1.1 2.5c-1.1 0-.9 1.8.7 6.7.4 1.3 0 1.2-1.7-.7l-2.2-2.5.7 2.9c.6 2.5.5 2.8-.7 1.7-.8-.6-2-2.5-2.7-4.1-.8-1.8-2-3-3.1-3-2.3 0-2.5 2.8-.3 4.5 1.5 1.1 1.5 1.2.1 1.8-2.1.8-4.1-7.2-2.1-8.8.7-.7.9-1.7.4-2.5-.4-.8-1.1-3.4-1.5-5.7-.4-2.4-1-4.5-1.5-4.8-.4-.3-.6-1.4-.3-2.4.5-2.1-1.4-9.1-2.5-9.1-.4 0-.6 3.6-.5 8zm29.4-4.4c0 1.1.3 1.4.6.6.3-.7.2-1.6-.1-1.9-.3-.4-.6.2-.5 1.3zm-8 3c0 1.1.3 1.4.6.6.3-.7.2-1.6-.1-1.9-.3-.4-.6.2-.5 1.3zm8 18c0 1.1.3 1.4.6.6.3-.7.2-1.6-.1-1.9-.3-.4-.6.2-.5 1.3zm1.7 9.7c-.5 1-.8 3.5-.7 5.5 0 3.5.1 3.5 1 1.2.6-1.3.9-3.8.7-5.5-.2-2.4-.4-2.6-1-1.2zm9.7-.3c.3.5.8 1 1.1 1 .2 0 .4-.5.4-1 0-.6-.5-1-1.1-1-.5 0-.7.4-.4 1zm-.9 7.5c-.4 1.7-.1 3.1.8 4 1.7 1.8 2.4.5 1.8-3.7-.5-3.5-1.8-3.6-2.6-.3z"/></svg>