<svg version="1.0" xmlns="http://www.w3.org/2000/svg" width="853.333" height="853.333" viewBox="0 0 640 640"><path d="M0 2.6c0 1.9.4 2.4 1.8 2 .9-.3 6.1-.8 11.4-1.1 5.3-.4 11.6-1.3 14-2C31.2.2 30.5.1 15.8.1L0 0v2.6zM452.2.8c-4.3.2-6.5.7-6.9 1.7-.6 1.8-6.9 2.1-7.5.4-.4-1.1-13.8-2-13.8-.9 0 .3-.8.6-1.7.6-1 0-5.4.4-9.8.8-4.4.5-8.8.8-9.7.8-1 0-1.8.3-1.8.9 0 .5 1.2.9 2.6.9 2.2 0 2.5.2 1.4 1.5-1 1.2-.9 1.5.6 1.6 1.1 0 1.3.3.7.6-.7.2-2.7-.3-4.4-1.1-3.9-1.9-9.5-2-12.8-.2l-2.3 1.3 2.3.7c1.3.4 8.8 1 16.6 1.3 11 .4 16.4.2 23.9-1.2 7.5-1.3 10.5-1.5 13.3-.7 2 .6 9.4 1.3 16.4 1.5 7.8.2 13.2.8 13.9 1.5.9.9.4 1.2-2 1.2-2.1 0-3.2.5-3.2 1.4 0 1.9-6 2.5-13.8 1.5-3.5-.5-6.7-.7-7.1-.4-.4.2-4.3.7-8.7 1.1-4.3.4-8.1.8-8.3 1-.4.4 48.4.7 145.7.8l45.2.1V154h3.8c2.3 0 3.2.3 2.4.9-.7.4-2.4.6-3.8.3l-2.4-.4.1 16.5c0 15.9.1 16.5 2.2 17.5l2.2 1.1h-2.2c-1.7.1-2.1.7-2.1 3.1l.1 3h7.6c4.2 0 8.3.5 9.1 1 1 .7-1.4 1-7.8 1h-9.3l.3 2.7c.3 2.7.3 2.7 9.6 2.9l9.2.3V195l-5.2-.2c-2.9 0-6.5 0-8 .1-1.4.1-2.9-.3-3.3-.9-.5-.8 1.7-1.1 7.7-.9 7 .2 8.3 0 8.6-1.4.3-1.4-.5-1.7-4.2-1.7-2.5 0-4.6-.5-4.6-1 0-.6 2-1 4.5-1h4.5V0l-90.8.2c-49.9.1-93.5.4-97 .6zM636 183c0 .5-1 1-2.2.9-2.2 0-2.2-.1-.3-.9 1.1-.5 2.1-.9 2.3-.9.1-.1.2.3.2.9zM378 6c0 .5.7 1 1.5 1s1.5-.5 1.5-1c0-.6-.7-1-1.5-1s-1.5.4-1.5 1zm6 0c-1.1.7-.4 1 2.5.9 3.1 0 3.6-.2 2-.9-2.6-1.1-2.8-1.1-4.5 0zm-2.7 5.7c1.5.2 3.7.2 5 0 1.2-.2 0-.4-2.8-.4-2.7 0-3.8.2-2.2.4z"/><path d="M417.8 15.7c1.2.2 3 .2 4 0 .9-.3-.1-.5-2.3-.4-2.2 0-3 .2-1.7.4zM334 18.1c-1.8.5-1 .7 2.8.8 2.8.1 5.2-.1 5.2-.3 0-.8-5.6-1.2-8-.5zm44.7.6c1.8.2 5 .2 7 0 2.1-.2.7-.4-3.2-.4-3.8 0-5.5.2-3.8.4zm149 2.9c-.2.2-51.4.5-113.8.5-69.5 0-114.2.4-115.4 1-1.9.9-1.8.9.3.5 1.2-.2 2.2 0 2.2.4 0 1.4-4.1 2.3-5.3 1.1-.6-.6-1.8-1.1-2.6-1.1-1.1 0-.8.5.8 1.6 1.9 1.4 4.2 1.6 14.2 1.1 7-.3 12.1-.2 12.4.4.4.5-.1.9-1 .9-1.5 0-1.5.2-.1 1.5.8.8 2.1 1.5 2.8 1.6.7 0 .4.4-.7.9-1.7.7-1.7.9-.2.9 1 .1 1.7.9 1.7 2.1 0 1.9.7 2 15.3 2.1 8.3.1 16.3.5 17.7.9 2.1.7 2.2.8.5.9-1.9.2-1.9.2-.2 1.2 1 .6 3.4.9 5.3.7 2-.2 3.4 0 3.4.7 0 .6.3.6.8-.1 1-1.6 14.8-3.4 24.5-3.3 7 .1 7.6.2 4.2 1-2.2.4-7.8.8-12.4.8-12.1.1-9.2 1.3 4.1 1.7 10.1.3 20.6 1 29.3 2 3.7.4 19.4 1.9 30 2.9 5 .5 8.3 1.3 8.8 2.1.4.8 1.7 1.4 2.7 1.4 1.3 0 1.7.5 1.4 1.4-.7 1.9-3.5 2.5-5.6 1.2-1.3-.8-2.4-.7-3.8.2-1.2.7-5.7 1.2-11.5 1.2-5.5 0-9.4.4-9.1.9 1.5 2.4-.7 4.1-5.3 4.1-5.3 0-8.7 1.9-7.8 4.2.4 1.2 0 1.4-1.4 1.1-1-.3-1.6-1-1.2-1.6.3-.6.1-.7-.6-.3-.9.6-.9 1.1 0 2.2 1 1.2.9 1.3-.4.9-.8-.4-1.8-.1-2.2.5-.5.8 1.6 1 8.1.6 5.5-.3 8.8-.9 8.7-1.5-.2-.6.2-1.1.7-1.1.6 0 1 .6 1 1.4 0 1 2 1.6 7.5 2.1 8.6.8 9.9 2.1 2.5 2.4-3 .1-5-.3-5-.9 0-.6-.5-.8-1.1-.5-.6.4-5.6.9-11.2 1-5.6.2-12.2.9-14.7 1.5-6.6 1.5-13.8 2.3-12.2 1.2 1.1-.8 1.1-1-.2-1.5-1-.4-1.6-.1-1.6.9 0 2.4-36.3 1.5-43.4-1-3.5-1.3-5.9-1.5-8.5-1l-3.6.8 5 .6 5 .7-5.2.1c-2.9.1-5.3-.2-5.3-.6 0-1.4-6.2-1.3-7.9.2-1.1 1-4.2 1.4-10.4 1.3-5.5 0-8.4-.3-7.5-.9.7-.4 4.2-.8 7.8-.7 9.3.1 10 0 10-1.1 0-.6-3.7-1.1-8.7-1.2-7.8-.1-8.2-.2-3.8-.8l5-.7-4-.3c-9.2-.8-14.5-.7-14.5.1 0 .5-1.3.9-3 .9-1.6 0-3 .4-3 .8 0 .5-1.4.6-3.1.4-2.2-.3-3-.1-2.5.7.4.6.1 1.1-.8 1.1s-1.6.4-1.6.9-4.8.9-10.7.9c-6 0-16.4.5-23.3 1.2-6.9.7-15.4 1.1-19 .9-3.6-.2-16.8-.2-29.5.1-32.2.7-147.6.6-167.7-.1L21 74.3v45.6l5.2.4 5.3.3-5.2.2-5.3.2v16.4c0 14.8.2 16.5 1.8 16.9 1.6.4 1.6.5 0 .6-1.6.1-1.8 1.7-1.8 18.2v18.1l3.4-.6c2-.4 3.7-.2 4.1.4.4.6-.9 1-3.4 1H21v48.1c0 31.7.3 47.8 1 47.4.5-.3 1-1.2 1-1.9 0-1 5.6-9.3 9-13.3.5-.7 1-1.7 1-2.4 0-1.6 3.3-6.9 4.3-6.9.4 0-.9 3-2.9 6.7-2.1 3.8-4.2 7.7-4.8 8.8-2.4 4.3-6.6 10.4-7.6 11-.6.4-1 5.9-1 14.3.1 12.4.2 13.5 1.5 11.2.8-1.4 1.4-3.3 1.5-4.2 0-.9.3-1.8.8-2 .4-.2 2.1-2.4 3.8-5 1.7-2.6 3.4-4.4 3.8-4.1.3.4 0 1.3-.8 2.2-.8.9-3.5 5.5-6 10.3-3.8 7.3-4.6 9.7-4.6 14.1 0 5.1.2 5.5 3.5 7.2 1.9 1.1 3.3 2.1 3.1 2.3-.2.2-1.8-.4-3.5-1.3l-3.1-1.6V620h598V422.7c0-152.1-.3-197.6-1.2-198.5-.9-.9-.9-1.2 0-1.2.7 0 1.2-.6 1.2-1.3 0-.9-1-1.2-3.1-.9-2.2.3-3 .1-2.5-.7.4-.6 1.8-1.1 3.2-1.1 2.3 0 2.4-.3 2.4-6.9v-6.8l-8.2-.6c-11.8-1-22-.8-21.4.2.3.5-.1 1.1-.9 1.5-.8.3-1.5 1-1.5 1.6 0 .6.5.8 1 .5.6-.3 1-.2 1 .4 0 1.1-2.9 2.2-5 1.8-6.4-1.2-8.8-4.3-3.4-4.3 1.9 0 3.8-.4 4.4-1 .6-.6.3-1-1-1-1.1 0-2 .3-2 .6 0 .4-1.4.5-3.1.2-2.1-.3-2.9-.9-2.7-2.1.2-1 1.1-1.5 2.3-1.2 1.1.2 10.7.6 21.3.8l19.2.5v-5l-19.7-.6c-10.9-.4-24.7-.8-30.6-1-5.9-.2-11.3-.8-11.8-1.3-.7-.7 6-.9 21.2-.5 16.5.4 22 .2 21.5-.7-.4-.6-.1-1.1.8-1.1s1.6.4 1.6 1c0 .5 1.4 1 3.1 1 2 0 2.8-.4 2.3-1.2-.4-.7-.3-.8.5-.4 1.9 1.2 8.9 1.8 7.1.6-1.2-.8-.9-1 1.3-1 1.6 0 2.7-.5 2.7-1.4 0-1.4-.6-1.5-18.5-2.9-2.2-.2 1.1-.4 7.3-.5l11.2-.2V21l-45.4.1c-25 .1-45.7.3-45.9.5zm-12.9 2.1c-1 .2-2.6.2-3.5 0-1-.3-.2-.5 1.7-.5s2.7.2 1.8.5zm-108 1c-1 .2-2.6.2-3.5 0-1-.3-.2-.5 1.7-.5s2.7.2 1.8.5zm-76.1 7.9c-.3.3-1.2.4-1.9.1-.8-.3-.5-.6.6-.6 1.1-.1 1.7.2 1.3.5zm-4 1c-.3.3-1.2.4-1.9.1-.8-.3-.5-.6.6-.6 1.1-.1 1.7.2 1.3.5zm60.3.4c1 .7-1.5 1-8 1.1-15.6.3-26.4-.2-27.4-1.2-1.3-1.2 33.5-1.1 35.4.1zm129 29.9c0 1-2.4 2.1-4.3 2.1-.7 0-.3-.7.7-1.5 2.2-1.7 3.6-1.9 3.6-.6zm-95.3.7c-.3.3-1.2.4-1.9.1-.8-.3-.5-.6.6-.6 1.1-.1 1.7.2 1.3.5zm10.3.4c0 .5-.4 1-1 1-.5 0-1-.5-1-1 0-.6.5-1 1-1 .6 0 1 .4 1 1zm76.3 1.7c-.7.2-2.1.2-3 0-1-.3-.4-.5 1.2-.5 1.7 0 2.4.2 1.8.5zM413 71c0 .5-.4 1-1 1-.5 0-1-.5-1-1 0-.6.5-1 1-1 .6 0 1 .4 1 1zm3.5 0c.3.5.1 1-.4 1-.6 0-1.1-.5-1.1-1 0-.6.2-1 .4-1 .3 0 .8.4 1.1 1zm-113.7 1.7c-2.7.2-6.9.2-9.5 0-2.7-.2-.5-.3 4.7-.3s7.4.1 4.8.3zm-21 30c-1 .2-2.6.2-3.5 0-1-.3-.2-.5 1.7-.5s2.7.2 1.8.5zm-32.1 6.9c-.3.3-1.2.4-1.9.1-.8-.3-.5-.6.6-.6 1.1-.1 1.7.2 1.3.5zM149.5 118c.4.6-3.1 1-9.7.9-6.7 0-9.6-.3-8.3-.9 2.8-1.2 17.3-1.2 18 0zm-40.5.4c0 1.1-1.9 1.5-2.5.6-.3-.5.1-1 .9-1 .9 0 1.6.2 1.6.4zm53.3 1.3c-.7.2-1.9.2-2.5 0-.7-.3-.2-.5 1.2-.5s1.9.2 1.3.5zM79 121.3c-1.4.6-2.8 1.6-3.2 2.1-.4.6-1.3.4-2.4-.5-1.6-1.3-1.4-1.5 2.2-2 5.8-.9 6.1-.9 3.4.4zm136.7 1.3c-.3.3-1.2.4-1.9.1-.8-.3-.5-.6.6-.6 1.1-.1 1.7.2 1.3.5zm5 0c-.3.3-1.2.4-1.9.1-.8-.3-.5-.6.6-.6 1.1-.1 1.7.2 1.3.5zm107.6 2.1c-.7.2-2.1.2-3 0-1-.3-.4-.5 1.2-.5 1.7 0 2.4.2 1.8.5zm7.5 0c-1 .2-2.6.2-3.5 0-1-.3-.2-.5 1.7-.5s2.7.2 1.8.5zm-160.1.9c-.3.3-1.2.4-1.9.1-.8-.3-.5-.6.6-.6 1.1-.1 1.7.2 1.3.5zm10.7.3c.3.5-.3 1.1-1.3 1.4-1.4.3-1.8.1-1.4-.9.6-1.6 1.9-1.8 2.7-.5zm24.6.1c0 .9-21.8.6-22.7-.4-.2-.2 4.8-.4 11.1-.5 7.4-.1 11.6.2 11.6.9zm-115.2.7c-1 .2-2.6.2-3.5 0-1-.3-.2-.5 1.7-.5s2.7.2 1.8.5zm27.5 0c-.7.2-2.1.2-3 0-1-.3-.4-.5 1.2-.5 1.7 0 2.4.2 1.8.5zm6.7.3c0 .5-.4 1-1 1-.5 0-1-.5-1-1 0-.6.5-1 1-1 .6 0 1 .4 1 1zm70.4 1.2c-.3.4-2.3.8-4.5.8s-3.8-.3-3.5-.8c.2-.4 2.2-.7 4.4-.7 2.3-.1 3.8.3 3.6.7zm-92.4.6c2.9.3 3.2.5 1.5 1.2-2.6 1-9.6 1.4-20.5 1.1-8-.2-8.3-.3-5-1.4 3.2-1.1 15.4-1.5 24-.9zm29 .2c0 .5-.4 1-1 1-.5 0-1-.5-1-1 0-.6.5-1 1-1 .6 0 1 .4 1 1zm176.5 0c-.3.5-1.3 1-2.1 1s-1.2-.5-.9-1c.3-.6 1.3-1 2.1-1s1.2.4.9 1zm5 0c-2.7 1.2-4.3 1.2-2.5 0 .8-.5 2.2-.9 3-.9 1 0 .8.3-.5.9zm23-.2c-.6.4-5.3.5-10.5.2l-9.5-.6 10.5-.2c5.7-.1 10 .2 9.5.6zm7 .1c-.3.6-1.4.9-2.5.8-2.4-.2-1.5-1.7 1.1-1.7 1.1 0 1.8.4 1.4.9zM49 130.8c0 .4-1.8.6-4 .4-2.2-.2-4-.6-4-.8 0-.2 1.8-.4 4-.4s4 .3 4 .8zm12.3-.1c-.7.2-1.9.2-2.5 0-.7-.3-.2-.5 1.2-.5s1.9.2 1.3.5zm4.7.3c0 .5-.2 1-.4 1-.3 0-.8-.5-1.1-1-.3-.6-.1-1 .4-1 .6 0 1.1.4 1.1 1zm131.3-.3c-.7.2-1.9.2-2.5 0-.7-.3-.2-.5 1.2-.5s1.9.2 1.3.5zm-41.1 2.5c-.5.5-2.7.8-4.8.6-3.7-.4-3.8-.4-1.5-1.4 2.8-1.2 7.7-.6 6.3.8zm141.8-.5c.2.2-6.4.3-14.8.2-8.4 0-15.2-.5-15.2-1 0-.8 29-.1 30 .8zm-123.3-.1c-.3.3-1.2.4-1.9.1-.8-.3-.5-.6.6-.6 1.1-.1 1.7.2 1.3.5zm171.3 1.3c0 1.1-1.5 1.3-8.2.8-4.6-.4-10.2-.7-12.5-.7-2.4 0-4.3-.5-4.3-1.1 0-.7 4-.9 12.5-.7 9.9.2 12.5.6 12.5 1.7zm6.8-1.2c-1 .2-2.8.2-4 0-1.3-.2-.5-.4 1.7-.4 2.2-.1 3.2.1 2.3.4zm-288.1.9c-.3.3-1.2.4-1.9.1-.8-.3-.5-.6.6-.6 1.1-.1 1.7.2 1.3.5zm83.6 2.1c-1.3.2-3.5.2-5 0-1.6-.2-.5-.4 2.2-.4 2.8 0 4 .2 2.8.4zm102.7-.3c0 .2-.7.6-1.5 1-.8.3-1.5.1-1.5-.4 0-.6.7-1 1.5-1s1.5.2 1.5.4zm3 .6c0 .5-.4 1-1 1-.5 0-1-.5-1-1 0-.6.5-1 1-1 .6 0 1 .4 1 1zm41.9 1.6c.2.2-1.2.4-3.2.4s-3.7-.4-3.7-1c0-.8 5.8-.3 6.9.6zm-201.3 4.1c-.7.7-7.7.5-8.5-.2-.2-.3 1.7-.5 4.4-.5s4.5.3 4.1.7zm83.9 1.3c.3.5.1 1-.4 1-.6 0-1.1-.5-1.1-1 0-.6.2-1 .4-1 .3 0 .8.4 1.1 1zm-94.8 3.2c-.2.7-1.1 1.3-2 1.3-.8 0-1.9.4-2.3.8-.4.4-1.3.2-2.1-.5-1.1-.9-1.3-.8-1.1.3.2 1-.7 1.4-2.9 1.5-1.8 0-3.6.3-3.9.7-1.2 1.1-10.4.8-10.4-.4 0-.6.8-.8 1.8-.5 1 .4 3.2-.4 5.2-1.9 2.9-2 4.7-2.4 10.8-2.5 5.5 0 7.3.3 6.9 1.2zm489.3-.8c0 .3-.4.8-1 1.1-.5.3-1 .1-1-.4 0-.6.5-1.1 1-1.1.6 0 1 .2 1 .4zm-518.3 3.2c-.7.8-8.7.7-9.5 0-.3-.3 1.9-.6 4.8-.6s5.1.3 4.7.6zm1.4 3.7c-1.1 1.2-2.3 1.8-2.6 1.5-.9-.9 2.7-4.8 3.8-4.1.5.3 0 1.5-1.2 2.6zm315.7.4c.6.9 1.6 1.4 2.5 1 .9-.3 1.9-.2 2.2.3 1.1 1.8-4 1-6.5-1-2-1.5-2.1-2-.8-2 .9 0 2.1.7 2.6 1.7zm8.7.3c2.3 2.6.8 2.6-2.5 0-1.8-1.4-2.1-2-.9-2 .9 0 2.4.9 3.4 2zm91.8-.3c1.4 1.7 1.3 1.8-1.6 1.9-1.8.1-2.4-.1-1.4-.3 1.4-.4 1.6-.8.6-1.9-1.7-2 .5-1.7 2.4.3zm5.7-.7c1.3.8 1.3 1-.2 1-.9 0-2-.5-2.3-1-.8-1.3.5-1.3 2.5 0zm-440 1.1c0 .5-1.2.9-2.6.9-1.4 0-2.3-.4-2-.8.7-1.1 4.6-1.2 4.6-.1zm4.5-.1c.3.5.2 1-.4 1-.5 0-1.3-.5-1.6-1-.3-.6-.2-1 .4-1 .5 0 1.3.4 1.6 1zm18 0c.3.5-.3 1-1.4 1-1.2 0-2.1-.5-2.1-1 0-.6.6-1 1.4-1 .8 0 1.8.4 2.1 1zm6.1-.3c-1 1.1-3.6 1.2-3.6.2 0-.5 1-.9 2.2-.9 1.2 0 1.8.3 1.4.7zm41.1.9c-1.6.9-3.1 1.3-3.4 1-.3-.3.5-1 1.8-1.5 3.7-1.5 4.7-1.2 1.6.5zm-76.9.1c-1 .2-2.8.2-4 0-1.3-.2-.5-.4 1.7-.4 2.2-.1 3.2.1 2.3.4zm15.7.3c-.3.5-1.1 1-1.6 1-.6 0-.7-.5-.4-1 .3-.6 1.1-1 1.6-1 .6 0 .7.4.4 1zm505.5 2.3c.8.4-1 .5-4 .3s-6.4-.7-7.5-1.2c-1.8-.8-1.7-.9 1-1.4 2.6-.5 4.2-.2 10.5 2.3zm18.3-2.6c-.7.2-2.1.2-3 0-1-.3-.4-.5 1.2-.5 1.7 0 2.4.2 1.8.5zm-472.6 1.9c-.3.3-1.2.4-1.9.1-.8-.3-.5-.6.6-.6 1.1-.1 1.7.2 1.3.5zm505.1.1c3.5.9.9 2-3.5 1.5-3.1-.4-3.4-.6-1.8-1.3 2.6-1 2.6-1 5.3-.2zm14.9-.1c-.3.3-1.2.4-1.9.1-.8-.3-.5-.6.6-.6 1.1-.1 1.7.2 1.3.5zM92 159.1c-5.1 2.3-5.6 2.3-3.6.4.8-.8 1.9-1.5 2.5-1.5.6 0 1.1-.4 1.1-.9s.9-.7 2.1-.4c1.7.5 1.4.9-2.1 2.4zm496.3-1.4c-.7.2-1.9.2-2.5 0-.7-.3-.2-.5 1.2-.5s1.9.2 1.3.5zm-505.8 2.5c-1.6.4-3.1.5-3.3.3-.8-.7 4.2-2.3 5.3-1.7.5.3-.4.9-2 1.4zm397-1.2c.3.6-.4 1-1.7 1-1.8 0-2-.2-.8-1 1.9-1.2 1.8-1.2 2.5 0zm-273.7 5.5c1.2 2.5 1.8 4.5 1.4 4.5-.6 0-2.5-3.1-5-8.3-.2-.4.1-.7.5-.7.5 0 1.9 2 3.1 4.5zm338.1-2.9c.2.2-3 .4-7.2.4-4.1 0-8.4.3-9.4.7-1 .3-1.5.2-1-.2 1.7-1.9 15.7-2.5 17.6-.9zM75 162c1.1.7.1.9-3.5.9-4.4-.1-4.6-.2-2-.9 1.7-.4 3.2-.8 3.5-.9.3 0 1.2.4 2 .9zm476.5 0c.6 0 .3.5-.7 1-1.7 1.1-4.8.4-4.8-1.1 0-.5 1-.7 2.3-.5 1.2.3 2.7.5 3.2.6zm-148.8 1.4c-.3.7-.1 1.8.4 2.3.5.5-1 .8-3.9.6-2.6-.1-5.5-.2-6.5-.2-1-.1-1.5-.5-1.2-1.1.3-.5 2.5-.7 5-.3 3.6.4 4.6.2 5.1-1.1.3-.9.8-1.6 1.1-1.6.3 0 .3.6 0 1.4zm5.6-.7c-.7.2-2.1.2-3 0-1-.3-.4-.5 1.2-.5 1.7 0 2.4.2 1.8.5zm7 0c-.7.2-2.1.2-3 0-1-.3-.4-.5 1.2-.5 1.7 0 2.4.2 1.8.5zm151 0c-.7.2-1.9.2-2.5 0-.7-.3-.2-.5 1.2-.5s1.9.2 1.3.5zm-538.5 1c-1 .2-2.8.2-4 0-1.3-.2-.5-.4 1.7-.4 2.2-.1 3.2.1 2.3.4zm24.5 0c-.7.2-1.9.2-2.5 0-.7-.3-.2-.5 1.2-.5s1.9.2 1.3.5zm361.1 2.2c1 1.1 2.8 2.2 4 2.4 1.3.3 1 .4-.9.4-1.6 0-4.1.3-5.4.7-1.7.6-2.2.5-1.9-.5.3-.8 1.5-1.3 2.9-1l2.4.3-2.5-2.1c-1.4-1.1-2-2-1.4-2.1.6 0 1.9.9 2.8 1.9zm18.1 2.2c4.1-.1 7.6.3 7.9.8.3.4-2.7.9-6.6 1-4 .1-7.5.7-7.9 1.2-.4.7-.9.4-1.2-.5-.4-.9-1-1.6-1.4-1.5-2 .3-2.7-.2-1.3-1 .8-.6 1.8-.7 2.3-.4.5.3 4.2.5 8.2.4zm154.4 1c-1 .6-.2.9 2.1.9 1.9 0 6.2.9 9.5 2l6 1.9h-4c-4 .1-17.4-3.2-20.4-4.9-1.1-.6-.1-.9 3.3-.8 3.1 0 4.3.4 3.5.9zM154 171c0 .5-.2 1-.4 1-.3 0-.8-.5-1.1-1-.3-.6-.1-1 .4-1 .6 0 1.1.4 1.1 1zm56 1.5c.7.8 2.1 1.5 3.1 1.5 1.1 0 1.9.5 1.9 1.1 0 .8.4.8 1.4-.1 1-.8 3.3-.9 7-.5 5.6.7 7.5 1.9 3.5 2.2-3.2.3-3.3.8-.5 5.2 1.4 2.2 2.6 4.3 2.6 4.7 0 .3 2 3.2 4.5 6.4 3.7 4.9 5.2 6 8.3 6.5 6.6 1.1 6.8 1.4.7 1-3.3-.2-7-.6-8.2-1-1.4-.4-2.3-.3-2.3.3 0 1.5 4 2.4 10 2.2 5.2-.2 6.6 1 1.8 1.5-1.3.1-2.7.3-3.1.4-.5 0 .9 2.7 3.1 5.8 7.5 11.2 9.2 13.9 9.2 14.9 0 3.3 17.1 5.4 43 5.3 17.8-.1 25.6-.9 25.2-2.7-.3-1.8 2.6-.1 6.2 3.7 2.5 2.6 2.6 2.9.7 2.4-1.1-.3-2.1-1.2-2.1-1.9 0-.8-.7-1.4-1.6-1.4-.8 0-1.3.3-1.1.7.3.5-13.1.8-29.6.8-22.6 0-30.8.3-32.4 1.3l-2.2 1.2 1.9 3.3c1.1 1.7 2.7 4.5 3.6 6.2.9 1.6 2.5 4 3.6 5.2 1.1 1.2 1.8 2.9 1.5 3.7-.4.9.1 2 1.1 2.5.9.6 1.4 1.1 1 1.1-.5 0-.1.8.7 1.7 3.4 3.9 6.3 8.1 9.4 13.8 1.8 3.3 4.4 7.5 5.8 9.3 1.4 1.8 2.3 3.5 2.2 3.6-3.1 2.6-9.7 3.4-11.7 1.4-.8-.8-1.5-.8-2.6.1-.8.7-2 1-2.5.7-.5-.4-1.2-.2-1.6.4-.7 1.2 5.3 7 7.2 7 .7 0 1.3.5 1.3 1 0 .7-.7.7-2.1 0-1.1-.7-2.3-.9-2.6-.7-.7.8-9.6-4.7-9.5-5.8 0-.6-.9-1.4-2.1-1.9-2.2-.9-2.2-.9.3-1.5 1.4-.4 2.6-1.5 2.7-2.6.3-2 .3-2-.5-.1-.8 1.8-.9 1.9-1.5.2-.4-1-.3-2.4.3-3 1.1-1.4-2-8.1-3.8-8.1-.7 0-1.9-1-2.7-2.2-1.5-2.1-1.5-2.2 0-1.7 1.4.6 1.4.3.3-2.2-.7-1.6-1.8-3.3-2.5-3.7-1.7-1.1-4.4-6.3-3.6-7.1.4-.3-.1-.6-1-.6-1 0-1.7-.5-1.7-1 0-.6-.7-1-1.6-1-.9 0-1.4-.6-1.1-1.3.3-.7-.4-2.4-1.4-3.8-1-1.3-1.9-2.8-1.9-3.3 0-2-4.4-9.6-5.6-9.6-1.6 0-4.6-6.4-3.8-8.3 1-2.6-10-23.7-12.3-23.7-.7 0-1.3-.5-1.3-1.1 0-.5.5-.7 1-.4.6.3 1 .3 1 0 0-1.5-7.3-14.5-8.1-14.5-.5 0-.9-.5-.9-1.1 0-.6-.7-1.8-1.6-2.6-1.2-1.2-1.2-1.8-.3-2.3.8-.6.6-1.1-.9-1.9-2.6-1.4-5.6-7.1-3.7-7.1.7 0 1.8.7 2.5 1.5zm321.5.3c-.3.3-1.1 0-1.8-.7-.9-1-.8-1.1.6-.5 1 .3 1.5.9 1.2 1.2zm-488.5.8c0 .2-.9.4-2 .4s-2-.4-2-.9.9-.7 2-.4c1.1.3 2 .7 2 .9zm-6.6.3c.4.5-2.3 1.1-6 1.3-3.6.1-6.8 0-7-.4-.3-.4 2.1-.9 5.3-1.1 3.2-.2 6.1-.4 6.5-.5.4-.1.9.2 1.2.7zm47.6-.5c0 .3-.4.8-1 1.1-.5.3-1 .1-1-.4 0-.6.5-1.1 1-1.1.6 0 1 .2 1 .4zm344.3.3c-.7.2-1.9.2-2.5 0-.7-.3-.2-.5 1.2-.5s1.9.2 1.3.5zm128.2.3c-.3.5-1.3 1-2.1 1s-1.4-.5-1.4-1c0-.6.9-1 2.1-1 1.1 0 1.7.4 1.4 1zm-16.2.7c-.7.2-2.1.2-3 0-1-.3-.4-.5 1.2-.5 1.7 0 2.4.2 1.8.5zm36.8 2.1c-.7.2-1.8-.1-2.3-.6-.8-.8-.4-.9 1.3-.5 1.3.4 1.8.8 1 1.1zm7.3.1c.4.5-.3.7-1.4.4-2.3-.6-2.6-1.3-.6-1.3.8 0 1.7.4 2 .9zm-17.9 2.1c-2.7 1.2-3.5 1.2-3.5 0 0-.6 1.2-1 2.8-.9 2.4 0 2.5.1.7.9zm-11.5 1c0 .5-.7 1-1.5 1s-1.5-.5-1.5-1c0-.6.7-1 1.5-1s1.5.4 1.5 1zm-7.5 2c-.6 1.7-.2 2 3.2 2.1 2.1.1 15.7.5 30.3.9l26.5.7-29.5-.1c-30.3-.2-34.7-.7-33.4-4.1.9-2.4 3.7-1.9 2.9.5zm21.8-1.3c-.7.2-1.9.2-2.5 0-.7-.3-.2-.5 1.2-.5s1.9.2 1.3.5zm10 0c-.7.2-1.9.2-2.5 0-.7-.3-.2-.5 1.2-.5s1.9.2 1.3.5zm10 0c-.7.2-1.9.2-2.5 0-.7-.3-.2-.5 1.2-.5s1.9.2 1.3.5zm8.2.3c.3.5.1 1-.4 1-.6 0-1.1-.5-1.1-1 0-.6.2-1 .4-1 .3 0 .8.4 1.1 1zm-501.9 3.2c-.9 1.2-1.6 1.9-1.6 1.5 0-1.1 2.4-4.7 2.8-4.2.2.2-.3 1.4-1.2 2.7zm436.4-2c0 1.2-11.8 1-12.5-.2-.4-.6 1.8-.9 5.9-.7 3.6.1 6.6.5 6.6.9zm51.7-.6c-.3.3-1.2.4-1.9.1-.8-.3-.5-.6.6-.6 1.1-.1 1.7.2 1.3.5zm-41.2 1.4c.4.6-.5 1-1.9 1s-2.6.5-2.6 1c0 .6-1.2 1-2.7.9-1.6-.1-3.6.2-4.5.6-1 .4-1.8.3-1.8-.3 0-1.3 2.5-2.2 6.1-2.2 1.6 0 2.9-.5 2.9-1 0-.6.9-1 1.9-1 1.1 0 2.3.4 2.6 1zm-455.7 2c-.7 1-1.4 1.7-1.7 1.5-.4-.4 1.8-3.5 2.5-3.5.2 0-.1.9-.8 2zm-31.1.6c-.3.3-1.2.4-1.9.1-.8-.3-.5-.6.6-.6 1.1-.1 1.7.2 1.3.5zm2.8.4c.3.5.1 1-.4 1-.6 0-1.1-.5-1.1-1 0-.6.2-1 .4-1 .3 0 .8.4 1.1 1zm554.3-.3c-1 .2-2.6.2-3.5 0-1-.3-.2-.5 1.7-.5s2.7.2 1.8.5zm-57.9 2.9c.2.2-3.1.4-7.5.3-5.3 0-7.2-.3-5.9-.9 1.8-.8 12.4-.3 13.4.6zm41 0c.2.2-5 .4-11.7.4-6.6 0-12.3-.4-12.7-.9-.5-.9 23.4-.4 24.4.5zM35.3 190c1.6 0 1.8.3.8.9-1.5 1-4.8.3-5.8-1.2-.4-.7 0-.8 1.1-.4 1 .4 2.7.7 3.9.7zm45.7 1c0 .5-.5 1-1.1 1-.5 0-.7-.5-.4-1 .3-.6.8-1 1.1-1 .2 0 .4.4.4 1zm369.7 1.1c1.7-.1 3.4.3 3.8.9.3.6 1.1.8 1.6.5.5-.4.9-.1.9.4 0 .6-1 1.1-2.2 1.1-1.2 0-1.8.3-1.5.7.4.3.2 1.2-.4 1.9-.7.8-.7 1.4.1 1.9.6.3.8 1.1.5 1.6-.4.5-.1.9.4.9 1.9 0 1.2 1.8-1 2.3-3.3.9-1.7 3.1 2.7 3.9 2.6.4 1.7.5-2.6.3-3.6-.2-8.3-.7-10.6-1-3.7-.6-4.2-.4-4.7 1.5-.8 3-2.7 1.6-2.7-1.9 0-2.5-.3-2.8-2.7-2.3-2.5.5-2.5.6-.8 1.3 2.2.8 2.1.9-1.3 1.3-1.6.2-2.1-.2-1.8-1.1.3-.8-.2-1.3-1.3-1.3-2.3 0-3.3-1.1-2.2-2.4.7-.8-.9-1.1-5.2-1.3-4.5-.1-7.6-.8-11.2-2.7l-5-2.5 8.1-.1c6.1 0 8.5.4 9.4 1.5.7.8 1.7 1.5 2.3 1.5.8 0 .8-.3 0-1.1-.6-.6-.9-1.8-.6-2.5.4-1-.3-1.4-2.3-1.4-1.5 0-2.4-.3-2.1-.7 1.1-1 18.6-2.2 24.2-1.6 2.8.3 6.4.5 8.2.4zm100.6-.4c-1.8.2-4.8.2-6.5 0-1.8-.2-.4-.4 3.2-.4s5 .2 3.3.4zm4.8 4.9c1.2 1.5 1.1 1.6-1.1.9-3.5-1-4.9-2.5-2.3-2.5 1.1 0 2.7.7 3.4 1.6zM402 197c0 1.3-1.1 1.3-3 0-1.2-.8-1.1-1 .8-1 1.2 0 2.2.4 2.2 1zm-108 3c0 .5-.4 1-1 1-.5 0-1-.5-1-1 0-.6.5-1 1-1 .6 0 1 .4 1 1zm115.9.6c.2.2.2.7-.1 1-.4.3-1.9-.2-3.5-1l-2.8-1.6 3 .6c1.7.4 3.2.8 3.4 1zm-252.9 4c0 .8-.5 1.2-1 .9-.6-.4-.8-1.1-.5-1.6.9-1.4 1.5-1.1 1.5.7zm256.5-.6c.3.6-.1.7-.9.4-1.8-.7-2.1-1.4-.7-1.4.6 0 1.3.4 1.6 1zm160.5 0c0 .5-.5 1-1.1 1-.5 0-.7-.5-.4-1 .3-.6.8-1 1.1-1 .2 0 .4.4.4 1zm-120.5 2c.3.5.1 1-.4 1-.6 0-1.1-.5-1.1-1 0-.6.2-1 .4-1 .3 0 .8.4 1.1 1zm111.2-.4c-.3.3-1.2.4-1.9.1-.8-.3-.5-.6.6-.6 1.1-.1 1.7.2 1.3.5zM157 211.2c0 1.6-.3 1.9-1.1 1.1-.6-.6-.8-1.6-.5-2.2 1.1-1.7 1.6-1.3 1.6 1.1zm440.4.8c3.6 1.6 6.6 3.4 6.6 4 0 .6-1.2.5-3.2-.4-6.8-2.8-10.8-5-10.8-5.8 0-1.1.1-1.1 7.4 2.2zM75 211.9c-.5 1.1-1.5 2.3-2.1 2.7-.6.3-.3-.5.6-2 2-3 3-3.5 1.5-.7zm73.7.3c-.3.8-.6.5-.6-.6-.1-1.1.2-1.7.5-1.3.3.3.4 1.2.1 1.9zm299.3 1.4c0 .3-.7.1-1.5-.6s-1.5-1.7-1.5-2.2c0-.5.7-.3 1.5.6.8.8 1.5 1.8 1.5 2.2zm-5.6-.1c2.9.6 9.7 5.5 7.7 5.5-.5 0-1.6-.6-2.3-1.3-1.7-1.6-6.2-2.1-5.2-.5.5.8.2.9-1 .5-1-.4-2.2-.7-2.7-.7s-.9-.7-.9-1.5-.4-1.5-1-1.5c-.5 0-1-.5-1-1.1 0-.6.8-.8 1.8-.6.9.3 3 .8 4.6 1.2zm-377.8 7.4c-2.5 3.9-5.6 9-6.8 11.2-3.1 5.7-3.8 6.7-7.9 13-2 3-5.1 8-7 11.1-1.8 3.2-3.9 5.8-4.6 5.8-2 0-1.6-1.8.7-3.2 1.1-.7 2-1.6 2-2 0-.4 1.8-3.6 4-7 2.2-3.5 4-6.9 4-7.6 0-.6.5-1.2 1-1.2.6 0 1-.6 1-1.3 0-.8 1.9-3.9 4.3-7 2.3-3.1 6.2-8.8 8.6-12.7 2.4-3.9 4.5-6.9 4.8-6.6.3.2-1.6 3.6-4.1 7.5zm521-6.3c-.3.9-.6 1.8-.6 2 0 .2-.8.4-1.7.4-1.7-.1-1.7-.1-.1-1.4 1-.7 1.5-1.6 1.1-1.9-.3-.4-.1-.7.6-.7.8 0 1.1.6.7 1.6zm12.5 2.6c-1.8.6-1.9 1.1-1.1 3.3 1.5 4 1.3 6.5-.6 5.8-1-.4-1.4-1.6-1.2-3.7.2-2.7 0-3.1-2-2.9-1.2.2-2.2-.2-2.2-.7 0-.6 1.1-1 2.5-1s2.5-.5 2.5-1c0-.6-.7-1-1.5-1s-1.5-.7-1.5-1.5c0-1.3.5-1.2 3.6.2 3.2 1.6 3.3 1.8 1.5 2.5zM122 217c0 .5-.2 1-.4 1-.3 0-.8-.5-1.1-1-.3-.6-.1-1 .4-1 .6 0 1.1.4 1.1 1zm35 1.1c0 1.1-.4 1.7-1 1.4-.5-.3-1-1.3-1-2.1s.5-1.4 1-1.4c.6 0 1 .9 1 2.1zm344.7-.5c-.3.3-1.2.4-1.9.1-.8-.3-.5-.6.6-.6 1.1-.1 1.7.2 1.3.5zm102.3 1.6c0 .6-.6.5-1.5-.2-.8-.7-1.5-1.4-1.5-1.6 0-.2.7-.1 1.5.2.8.4 1.5 1.1 1.5 1.6zm-527.9 1.1c-1 .9-1.1.8-.5-.6.3-1 .9-1.5 1.2-1.2.3.3 0 1.1-.7 1.8zm534.9-.7c0 .2-.7.4-1.5.4s-1.5-.4-1.5-1c0-.5.7-.7 1.5-.4.8.4 1.5.8 1.5 1zm-462-.2c0 .3-.4.8-1 1.1-.5.3-1 .1-1-.4 0-.6.5-1.1 1-1.1.6 0 1 .2 1 .4zm307 2.6c0 1.3-.5 1.8-1.5 1.4-1.1-.5-1.2-.9-.2-2 1.6-1.8 1.7-1.7 1.7.6zm-387.9 1.3c-1 .9-1.1.8-.5-.6.3-1 .9-1.5 1.2-1.2.3.3 0 1.1-.7 1.8zm465.4-.3c2.2.6 1 .8-4.2.7-4-.1-7.3-.5-7.3-1 0-.9 7.6-.7 11.5.3zm12 0c.8 1.3-2.5 1.3-4.5 0-1.2-.8-.9-1 1.2-1 1.5 0 3 .4 3.3 1zm-475.4 7.7c-3.8 7.2-4 7.9-2.4 9 1.8 1.4 1.4 1.7-1.1.7-.9-.3-1.6-1-1.6-1.4 0-1.1 8-16 8.6-16 .3 0-1.3 3.5-3.5 7.7zm86.9-5.2c0 1.4-.4 2.5-1 2.5-1.1 0-1.4-3.3-.3-4.3 1.1-1.1 1.3-.8 1.3 1.8zm356.5-1.5c.8 1.3-1.5 1.3-3.5 0-1.2-.8-1.1-1 .7-1 1.2 0 2.5.4 2.8 1zm-365.8 4.2c-.3.7-.5.2-.5-1.2s.2-1.9.5-1.3c.2.7.2 1.9 0 2.5zm-33.6.5c-1.2 2-1.4 1.4-.5-1.2.4-.9.9-1.4 1.1-1.1.3.2 0 1.3-.6 2.3zm455.3-1.1c1.2.5 1.3.9.3 1.9-1.4 1.5-3.7.8-3.7-1.1 0-1.5 1-1.7 3.4-.8zm-11.9 2.4c.3.5.4 1 .1 1-.2 0-1.2.3-2 .6-1.2.5-1.5.2-1-1 .7-1.8 2-2.1 2.9-.6zm-409.7 2.5c-.1 1.4-.6 2.5-1.1 2.5-.5 0-.6-.7-.3-1.6.3-.9.6-2 .6-2.5s.2-.9.5-.9.4 1.1.3 2.5zm9.2 2c0 1.4-.4 2.5-1 2.5-.5 0-1-1.1-1-2.5s.5-2.5 1-2.5c.6 0 1 1.1 1 2.5zm220-1.5c.8.5 1.1 1.2.8 1.6-.4.3-1.4-.1-2.3-1-1.8-1.7-.9-2.1 1.5-.6zm-209.6 12.5c.4 6.5.3 9.3-.3 7.8-1.2-2.7-2.3-21.3-1.2-19.3.5.8 1.1 6 1.5 11.5zM302.5 234c.8 1.3-.5 1.3-2.5 0-1.3-.8-1.3-1 .2-1 .9 0 2 .4 2.3 1zm-185 5c-.3.5-1.6 1-2.8 1-1.8 0-1.9-.2-.7-1 2-1.3 4.3-1.3 3.5 0zm39.5 5.1c0 1.7-.4 2.8-1 2.4-.5-.3-1-1.7-1-3.1 0-1.3.5-2.4 1-2.4.6 0 1 1.4 1 3.1zm-97.2 5.4c-1.2 2.4-2.3 4.3-2.6 4.1-.4-.5 3.6-8.6 4.3-8.6.3 0-.5 2-1.7 4.5zM614 246c-1.8 1.2-4.3 1.3-3.6.2.2-.4 1.5-.8 2.8-.9 1.8-.2 1.9 0 .8.7zm-563.5 7.4c-3.6 6.2-4.3 5.9-.8-.3 1.5-2.8 2.9-4.8 3.1-4.6.2.2-.8 2.4-2.3 4.9zm95.8 11.8c-.6 7.9-1.1 16.1-1.2 18.3-.2 10.2-2.5 34.5-3.3 34.5-.4 0-.6-1.7-.3-3.8.3-2 .7-9.6.9-16.7.3-7.2.7-15 1-17.5.6-4.3 1.5-20.5 1.6-28 0-2.6.3-3.1 1.2-2.2.8.8.9 4.7.1 15.4zm441.9-11c5.5 2.9 11 6.3 12.2 7.6 1.1 1.2 5.4 4.1 9.4 6.4 3.9 2.3 7.2 4.6 7.2 5.1 0 .4-.3.6-.7.4-.5-.3-4.8-2.9-9.8-5.9-4.9-2.9-10.7-6.2-12.7-7.3-2-1-3.6-2.3-3.5-2.8.1-.5-3.2-2.7-7.3-4.8-4.1-2.1-6.9-3.8-6.2-3.9.7 0 5.8 2.4 11.4 5.2zM136 251c0 .5-1 1-2.2 1-1.9 0-2-.2-.8-1 1.9-1.3 3-1.3 3 0zm358 5.5c3 2.6 6.9 5.9 8.5 7.4 1.7 1.4 6.6 5.5 10.9 9.1 4.4 3.6 9.8 8.2 12 10.4 2.3 2.1.6 1-3.8-2.5-4.3-3.5-9.5-7.8-11.6-9.4-7.5-6-25-20.8-25-21.2 0-.8 3.8 1.8 9 6.2zM157 254c0 1.6-.4 3-1 3-.5 0-1-1.4-1-3 0-1.7.5-3 1-3 .6 0 1 1.3 1 3zm394-1c0 1.3-1.1 1.3-3 0-1.2-.8-1.1-1 .8-1 1.2 0 2.2.4 2.2 1zm3.7-.4c-.3.3-1.2.4-1.9.1-.8-.3-.5-.6.6-.6 1.1-.1 1.7.2 1.3.5zm-387 6.6c-.3.7-.5.2-.5-1.2s.2-1.9.5-1.3c.2.7.2 1.9 0 2.5zm-118.2 9c-2.5 4.6-6 11.1-7.8 14.5-1.7 3.5-3.5 6.3-3.9 6.3-1 0-.6-.7 7-14.5 6.8-12.4 8.1-14.5 8.8-14.5.3 0-1.6 3.7-4.1 8.2zm-7.2-1c-1.9 3.5-4.8 8.7-6.5 11.7C29.6 290 22 302.5 22 301.6c0-1.4 22.7-40.6 23.5-40.6.2 0-1.2 2.8-3.2 6.2zm114.7-.7c0 1.9-.4 3.5-1 3.5-.5 0-1-1.6-1-3.5s.5-3.5 1-3.5c.6 0 1 1.6 1 3.5zm342 1c1.3 1.4 2.1 2.5 1.8 2.5-.2 0-1.5-1.1-2.8-2.5-1.3-1.4-2.1-2.5-1.8-2.5.2 0 1.5 1.1 2.8 2.5zm-329.6 10.9c.2 5.9 0 10.4-.4 9.9-1.1-1.2-2.1-22.8-1-21.7.5.5 1.1 5.8 1.4 11.8zM110 268c0 .5-.4 1-1 1-.5 0-1-.5-1-1 0-.6.5-1 1-1 .6 0 1 .4 1 1zm93.5 1c.3.5.1 1-.4 1-.6 0-1.1-.5-1.1-1 0-.6.2-1 .4-1 .3 0 .8.4 1.1 1zM157 280c0 2.2-.4 4-1 4-.5 0-1-1.8-1-4s.5-4 1-4c.6 0 1 1.8 1 4zm237.9 5.9c1 .6 1 1 .1 1.6-.7.4-1.9 0-2.8-.9-1.4-1.3-1.4-1.6-.2-1.6.8 0 2.1.4 2.9.9zm7.1.6c.7.8.8 1.5.2 1.5-.5 0-1.5-.7-2.2-1.5-.7-.8-.8-1.5-.2-1.5.5 0 1.5.7 2.2 1.5zm121.5 1.5c1 1.1 1.6 2 1.3 2-.3 0-1.3-.9-2.3-2-1-1.1-1.6-2-1.3-2 .3 0 1.3.9 2.3 2zm-232 0c.3.5-.1 1-.9 1s-1.8-.5-2.1-1c-.3-.6.1-1 .9-1s1.8.4 2.1 1zm242.9 2.9c-.3.3-1.5-.6-2.7-1.8l-2.2-2.4 2.7 1.9c1.4 1 2.4 2.1 2.2 2.3zM138 288.4c0 .2-.9.6-2 .9-1.1.3-2 .1-2-.4s.9-.9 2-.9 2 .2 2 .4zm264.5 1.6c.3.5-.3 1-1.4 1-1.2 0-2.1-.5-2.1-1 0-.6.6-1 1.4-1 .8 0 1.8.4 2.1 1zM35 294.4c-3 4.9-3.6 4.6-.8-.3 1.2-2.2 2.4-3.8 2.6-3.6.3.2-.6 2-1.8 3.9zm134.7.3c-.3 1-.5.2-.5-1.7s.2-2.7.5-1.8c.2 1 .2 2.6 0 3.5zm299-1.5c-.3.8-.6.5-.6-.6-.1-1.1.2-1.7.5-1.3.3.3.4 1.2.1 1.9zM157 296.5c0 2.5-.4 4.5-1 4.5-.5 0-1-2-1-4.5s.5-4.5 1-4.5c.6 0 1 2 1 4.5zm248.3 2.4c2 1.9 3.7 3.9 3.7 4.4 0 1.1-9.7-7.4-9.9-8.6-.1-1.2 1.8.2 6.2 4.2zm7.7 4.3c0 .6-2.2-.9-5-3.2-2.7-2.3-5-4.6-5-5.2 0-.5 2.3 1 5 3.3 2.8 2.3 5 4.6 5 5.1zm5 0c0 1.1-1.7-.1-7.2-5.1-4.9-4.4-3-4.4 2.2-.1 2.8 2.3 5 4.7 5 5.2zm-.5-4.2c2.7 2.7 4.5 5 3.9 5-.5 0-3.2-2.3-5.9-5-2.7-2.8-4.5-5-3.9-5 .5 0 3.2 2.2 5.9 5zm-130-1.9c.7.7 0 .8-2 .3-1.6-.3-3.4-1.1-4-1.7-.7-.6 0-.7 2-.3 1.7.4 3.5 1.2 4 1.7zM170.9 309c0 2.2-.2 3-.8 2.2-.4-.7-.8-3.2-.9-5.5 0-3.2.1-3.7.8-2.2.5 1.1.9 3.6.9 5.5zm251.9-3.3c-2.6.2-7.1.2-10 0-2.9-.2-.8-.3 4.7-.3s7.9.1 5.3.3zM157 315.1c0 2.7-.4 4.9-1 4.9-.5 0-1-2.5-1-5.6 0-3.4.4-5.3 1-4.9.6.3 1 2.8 1 5.6zm-57-4.7c0 .3-.4.8-1 1.1-.5.3-1 .1-1-.4 0-.6.5-1.1 1-1.1.6 0 1 .2 1 .4zm114 1.6c0 .5-.2 1-.4 1-.3 0-.8-.5-1.1-1-.3-.6-.1-1 .4-1 .6 0 1.1.4 1.1 1zm-77.3 1.6c-.3.3-1.2.4-1.9.1-.8-.3-.5-.6.6-.6 1.1-.1 1.7.2 1.3.5zm34.6 5.6c-.6 6.1-1.3 6-1.2 0 .1-2.8.5-4.9.9-4.7.5.3.6 2.4.3 4.7zm208.7 4.3c1.1 1.3 1 1.4-.4.9-.9-.3-1.6-1-1.6-1.5 0-1.3.6-1.1 2 .6zm4 .5c0 .5-.2 1-.4 1-.3 0-.8-.5-1.1-1-.3-.6-.1-1 .4-1 .6 0 1.1.4 1.1 1zm14.3.7c-.7.2-2.1.2-3 0-1-.3-.4-.5 1.2-.5 1.7 0 2.4.2 1.8.5zM140 329.4c-.6.8-2.8 2.4-4.8 3.6l-3.7 2.1 4-3.5c4-3.5 6.8-4.8 4.5-2.2zm33.5 11.2c.5 5.9.4 7.6-.5 6.8-.6-.6-1.3-5.3-1.6-10.5-.5-11.1.9-8.5 2.1 3.7zM157 337c0 3.3-.4 6-1 6s-1-2.7-1-6 .4-6 1-6 1 2.7 1 6zm-32 0c-.8.5-2.4.9-3.5.9-1.6-.1-1.6-.2.5-.9 3.5-1.1 4.8-1.1 3 0zm-54 1.6c0 .8-.4 1.2-1 .9-.5-.3-1-1-1-1.6 0-.5.5-.9 1-.9.6 0 1 .7 1 1.6zm-7.7 4.1c-.7.2-1.9.2-2.5 0-.7-.3-.2-.5 1.2-.5s1.9.2 1.3.5zm4.4-.1c-.3.3-1.2.4-1.9.1-.8-.3-.5-.6.6-.6 1.1-.1 1.7.2 1.3.5zm11 .1c-3.9.3-5 .9-5.9 2.9-.6 1.3-1.5 2.4-2 2.4-1.2 0-1-1.3.8-3.8 1.3-1.8 2.4-2.2 6.7-2l5.2.2-4.8.3zm-43.4 3c-.7.2-2.1.2-3 0-1-.3-.4-.5 1.2-.5 1.7 0 2.4.2 1.8.5zM56 348c0 .5-.7 1-1.5 1s-1.5-.5-1.5-1c0-.6.7-1 1.5-1s1.5.4 1.5 1zm86.7 12.7c-.2 1.6-.4.3-.4-2.7s.2-4.3.4-2.8c.2 1.6.2 4 0 5.5zm27.9-.4c.3 3.9.2 6.7-.4 6.7-.5 0-1-3.2-1.1-7.2-.2-8.9.7-8.5 1.5.5zM157 363c0 4-.4 7-1 7s-1-3-1-7 .4-7 1-7 1 3 1 7zm-14.5 1.9c.3.5.1 1.2-.5 1.6-.5.3-1-.1-1-.9 0-1.8.6-2.1 1.5-.7zm-4.8 3.8c-.3 1-.5.4-.5-1.2 0-1.7.2-2.4.5-1.8.2.7.2 2.1 0 3zM84 376c0 .5-.7 1-1.6 1-.8 0-1.2-.5-.9-1 .3-.6 1-1 1.6-1 .5 0 .9.4.9 1zm-2 3c0 .5-.4 1-1 1-.5 0-1-.5-1-1 0-.6.5-1 1-1 .6 0 1 .4 1 1zm3 0c0 .5-.5 1-1.1 1-.5 0-.7-.5-.4-1 .3-.6.8-1 1.1-1 .2 0 .4.4.4 1zm71.9 15.5c.1 5.3-.2 8.5-.9 8.5-.6 0-1-3.3-1-8.5 0-4.7.4-8.5.9-8.5s.9 3.8 1 8.5zM429 410c0 .6-1.2 2.8-2.6 5-2.1 3.1-2.9 3.7-3.9 2.7s-1-1.3 0-1.9c.7-.4 1.8-2.1 2.5-3.8 1.2-2.8 4-4.2 4-2zm-275.8 4c-.4 2.5-.9 3-3.3 3-1.8 0-2.9-.5-2.9-1.4 0-3.1 1.3-4.6 3.9-4.6 2.5 0 2.7.3 2.3 3zm11.5.2c.3 2.7.2 2.8-3.4 2.7-3-.2-3.2-.3-1-.6 1.5-.2 2.7-.7 2.7-1.1 0-1.5-1.6-3-3.5-3.5-1.1-.3-.5-.5 1.4-.4 2.9.2 3.5.6 3.8 2.9zm-9.7 9.3c0 1.8.5 2.5 2 2.5 1.1 0 2 .4 2 1 0 1.1-2 1.3-4.4.4-1.8-.7-2.3-6.4-.6-6.4.6 0 1 1.1 1 2.5zm148.6 2.6c1.8 2 1.8 2.1-.1 3.5-4.7 3.4-9.9-.1-5.9-4 2.1-2.1 3.7-2 6 .5zm216.2 1.7c.4 2.7-1.4 2.9-2.8.3-1.4-2.7-1.3-3.3.8-2.9.9.2 1.8 1.3 2 2.6zm-363.5 5.7c.4 2.7.3 3.5-.3 2.5-.5-.8-1-2.8-1-4.4 0-3.9.6-3 1.3 1.9zm255.2 3.5c-1.6 1.6-3.4 3-3.9 3-1.2-.1 4.9-6 6.1-6 .4 0-.6 1.3-2.2 3zm-263.9 2.1c-.3 1.7-.6 7.1-.6 12 0 8.1-.2 8.9-1.9 8.9-2.6 0-2.8-2.2-1.7-14.3.8-8.6 1.2-9.7 2.9-9.7s1.9.5 1.3 3.1zm6.4-.3c0 1.6-.3 7-.6 12-.6 8.1-.9 9.2-2.6 9.2-1.7 0-1.8-.6-1.4-5.8.2-3.1.5-8.5.5-12 .1-5.5.3-6.2 2.1-6.2 1.5 0 2 .7 2 2.8zm9 9.2c0 11.3-.1 12-2 12s-2-.7-2-12 .1-12 2-12 2 .7 2 12zm5.6-6.7c.1 2.6.8 5.5 1.5 6.4 1 1.1 1 1.4.2.9-1-.5-1.3.8-1.3 5.3 0 5.4-.2 6.1-1.9 6.1s-2-.9-2.3-8.3c-.5-12.3 0-15.9 2-15.5 1.2.2 1.7 1.5 1.8 5.1zm10.1 2c7 6.1 7 6.1 7.8 14.6.4 4.5.6 8.3.4 8.4-.2.1-11.6 0-25.4-.3l-25-.6 24.8-.2 24.9-.2-.7-6.8c-.8-7.8-1.8-9.7-8-14.7-2.9-2.4-4.5-4.5-4.4-5.9 0-2.1 0-2.1.9.2.5 1.2 2.6 3.7 4.7 5.5zm271.4-1c-1.3 1.3-2.6.3-1.6-1.2.3-.6 1.1-.8 1.7-.5.6.4.6 1-.1 1.7zm-45.8 1.2c-1 1.3-2.5 2.4-3.3 2.5-.9 0-.3-1 1.5-2.5 3.8-3.1 4-3.1 1.8 0zm-6.3 5.9c0 .7-1.2 2.6-2.7 4-3.7 3.7-4.4 1.3-.7-2.5 3.2-3.3 3.4-3.4 3.4-1.5zm-187.2 16.1c.3.3-3.1.5-7.6.5s-8.2-.3-8.2-.8c0-.8 15-.5 15.8.3zm-10.8 3.4c0 1.7-1.5 1.9-2.8.5-1.1-1.2-.9-1.4.8-1.4 1.1 0 2 .4 2 .9zm8.2 1.3c-.7.7-1.2.8-1.2.2 0-.6.3-1.4.7-1.7.3-.4.9-.5 1.2-.2.2.3-.1 1.1-.7 1.7zm5.3-.2c.3.5-.1 1-.9 1-.9 0-1.6-.5-1.6-1 0-.6.4-1 .9-1 .6 0 1.3.4 1.6 1zm-30 20.9c-.3.6-1.1 1.1-1.6 1.1s-.4-.6.3-1.4c1.4-1.6 2.4-1.3 1.3.3zm-2 6.1c-.3.5-1.2 1-1.8 1-.7 0-.6-.4.3-1 1.9-1.2 2.3-1.2 1.5 0zM49.8 510.2c1.6 1.6 1.5 2.5-.2 3.1-.9.4-1.2 0-.9-1.2.4-1.4-.1-1.6-3.3-1.3-2.5.3-3.5.1-3-.7.9-1.5 5.9-1.4 7.4.1zm-6.1 8.3c-.4.8-1.1 1.5-1.7 1.5-.6 0-.6-.7.2-2 1.4-2.2 2.4-1.9 1.5.5zm12.4 1.2c1.3 1.6 1.2 1.7-.3.4-1-.7-1.8-1.5-1.8-1.7 0-.8.8-.3 2.1 1.3zm-7.1 1.8c0 2.6-1.4 3.3-2.5 1.5-.9-1.4.1-4 1.5-4 .5 0 1 1.1 1 2.5zm17 3.7c0 .6 1.1.7 2.5.4 1.8-.5 2.5-.2 2.5.8s.6 1.3 1.5 1c.8-.4 1.5-.3 1.5 0 0 1.4-5.4 2.6-9.1 2-3-.5-3.9-1.1-3.6-2.3.2-.9.9-1.5 1.6-1.3.8.2 1.1-.3.8-1.2-.4-1-.1-1.3.9-.9.7.3 1.4 1 1.4 1.5zm49.5-1c1.3 0 2.1.8 2.2 1.9.2 2-2.1 2.6-3.2.9-.9-1.4-2.6-1.3-2.3.2.2.6-.5 1.4-1.4 1.6-1 .2-1.8-.2-1.8-.8 0-.6.5-.8 1-.5.6.3 1 .2 1-.4 0-2.1-2.3-2.2-4.5-.1-1.9 1.8-3 2.1-5.2 1.5-2.1-.6-2.3-.9-1-1.2 2.9-.7 1.9-2.3-1.5-2.4-3.1-.1-3.1-.2-.8-.8 1.4-.4 5.4-.6 9-.3 3.6.2 7.4.4 8.5.4zm-57 .8c.4.6-1.2 1-3.9 1-2.5 0-4.6-.5-4.6-1 0-.6 1.8-1 3.9-1 2.2 0 4.3.4 4.6 1zm30.1 0c1.3 0 2.4.4 2.4 1 0 .5-2 1-4.5 1-4.2 0-5.4-.7-3.8-2.4.4-.3 1.3-.4 2.1-.1.7.3 2.5.5 3.8.5zm7.9 2c.3.5.1 1-.4 1-.6 0-1.1-.5-1.1-1 0-.6.2-1 .4-1 .3 0 .8.4 1.1 1zm132.5 0c0 .5-2 1-4.5 1s-4.5-.5-4.5-1c0-.6 2-1 4.5-1s4.5.4 4.5 1zm112 38c0 1.4-14.6 23.4-16.5 25-3.3 2.7-1.4-2.9 3.1-9.6 9.6-14.2 13.4-18.5 13.4-15.4zm-79 31.6c0 1.4-2.1 1.9-3.3.7-.9-.9 1.3-3.4 2.4-2.7.5.3.9 1.2.9 2z"/><path d="M72.5 147c.3.5 1.1 1 1.6 1 .6 0 .7-.5.4-1-.3-.6-1.1-1-1.6-1-.6 0-.7.4-.4 1zM442 197c0 .5.5 1 1 1 .6 0 1-.5 1-1 0-.6-.4-1-1-1-.5 0-1 .4-1 1zm7.8 4.1c-2.4 1.4-2.3 2.9.3 2.9 1.4 0 1.9-.5 1.6-1.4-.3-.8-.1-1.7.6-2 .7-.2.8-.5.2-.5-.5 0-1.8.4-2.7 1zM149 413.9c0 1.2.6 2.1 1.6 2.1.9 0 1.4-.7 1.2-1.7-.5-2.5-2.8-2.8-2.8-.4zm-45.4 112.3c.3.5 1 .6 1.5.3 1.3-.9 1.1-1.2-.6-1.2-.8 0-1.2.4-.9.9zM68.8 22.7c.7.3 1.6.2 1.9-.1.4-.3-.2-.6-1.3-.5-1.1 0-1.4.3-.6.6zm15.8.6c.3.9 2.1 1.4 4.9 1.3 2.3-.1 3.8-.4 3.2-.8-.5-.3.1-.8 1.4-1.1 1.3-.2-.4-.5-3.8-.6-4.9-.1-6.1.2-5.7 1.2zM.2 31.8c-.8 2.1.3 2.4 9.9 3 8.5.5 9.1.4 8.7-1.4-.3-1.6-1.5-2-9.2-2.4-6.7-.4-9-.2-9.4.8zM21 33c0 1.7.9 1.9 11.8 2.2 6.4.2 12.1.1 12.7-.1 1.8-.9-9-3.2-16.7-3.6-7.2-.4-7.8-.3-7.8 1.5zm-3.9 10.2c-.1 1-1.2 1.8-2.8 2.1l-2.8.4 2.9.2c2.1.1 2.7.5 2.2 1.6-.3.8-.1 1.5.4 1.5 1.4 0 1.7-1.3.9-4.5-.3-1.7-.7-2.2-.8-1.3zm4.3 2.3c0 3.9.4 4 7.1 2.5l4-.9-4.7.4c-4.5.4-4.8.3-4.8-1.9 0-1.5.7-2.6 1.8-2.9 1.1-.3.8-.5-.8-.6-2.3-.1-2.6.3-2.6 3.4zM133 43.9c0 .5.7 1.1 1.5 1.5.8.3 1.5.1 1.5-.3 0-.5-.7-1.1-1.5-1.5-.8-.3-1.5-.1-1.5.3z"/><path d="M24 45c0 .6.7 1 1.5 1s1.5-.2 1.5-.4-.7-.6-1.5-1c-.8-.3-1.5-.1-1.5.4zm11 0c-.8.5-1 1-.5 1 .6 0 .3.5-.5 1-1.2.8-.9 1 1.3 1 1.6 0 2.6-.4 2.2-1-.3-.5 1.9-.9 5.7-.9 3.5.1 7.4 0 8.8-.1 2.3-.1 2.3-.2.5-.9-1.1-.5-2.5-.5-3.1 0-.6.5-1.3.7-1.5.5-1.1-.9-11.6-1.4-12.9-.6zm103 0c-1.3.8-1.2 1 .3 1 .9 0 1.7-.5 1.7-1 0-1.2-.1-1.2-2 0zm22.5 0c-1.8.8-1.7.9.8.9 1.6.1 2.6-.3 2.2-.9-.3-.6-.7-1-.8-.9-.1 0-1.1.4-2.2.9zm-17.7.7c.7.3 1.6.2 1.9-.1.4-.3-.2-.6-1.3-.5-1.1 0-1.4.3-.6.6zM.7 47.7c-1 .9-.9 2.3.2 2.3.5 0 1.1-.7 1.5-1.5.5-1.5-.5-2-1.7-.8zm5.3 1c-2.5 1.5-2.5 1.5 1 .9 1.9-.4 3.9-1.1 4.4-1.6 1.6-1.6-2.5-1-5.4.7zm429.8-1c.7.3 1.6.2 1.9-.1.4-.3-.2-.6-1.3-.5-1.1 0-1.4.3-.6.6zM325 67.4c3.8 1.4 4.6 1.3 3.5-.3-.3-.6-2.1-1.1-3.8-1l-3.2.1 3.5 1.2zm15-.4c0 .5.7 1 1.5 1s1.5-.5 1.5-1c0-.6-.7-1-1.5-1s-1.5.4-1.5 1zm-75.2.7c.7.3 1.6.2 1.9-.1.4-.3-.2-.6-1.3-.5-1.1 0-1.4.3-.6.6zm111.4.8c-.7.8-2.5 1.5-3.9 1.5-1.5 0-2.3.3-1.9.7.3.4 4.8.8 9.9.9 7.6.2 8.6 0 6-.8-1.8-.6-3.3-1.7-3.3-2.4 0-.8-.4-1.4-1-1.4-.5 0-1 .9-1 2s-.4 2-1 2c-.5 0-1-.9-1-2 0-2.3-1-2.5-2.8-.5zM280 70.2c0 .5 1.7.8 3.7.8s3.3-.3 2.9-.8c-.4-.4-2.1-.7-3.7-.7s-2.9.3-2.9.7zm74.6-.3c-1 1.5 3.6 2 9.4 1.1l5.5-.8-6.1.1c-3.3 0-6.5-.3-7.2-.6-.6-.4-1.3-.3-1.6.2zM264 71c0 .5.7 1 1.5 1s1.5-.5 1.5-1c0-.6-.7-1-1.5-1s-1.5.4-1.5 1zm10.8-.3c.6.2 1.8.2 2.5 0 .6-.3.1-.5-1.3-.5-1.4 0-1.9.2-1.2.5zM236.5 73c-3.3.6-2.8.7 3.4.9 4.1 0 7.2-.2 6.8-.5-.9-1-5.7-1.1-10.2-.4zm-6.7.7c.7.3 1.6.2 1.9-.1.4-.3-.2-.6-1.3-.5-1.1 0-1.4.3-.6.6zM0 96.6c0 18 .3 22.4 1.3 21.7.6-.6 3.2-.8 5.6-.5 5.4.5 3.5 2.2-2.6 2.2-2.4 0-4.3.3-4.3.7 0 1 13.7.9 14.7 0 .3-.4 1.5-.7 2.5-.7 1.7 0 1.8-1.2 1.6-22.7l-.3-22.8-9.2-.2L0 74v22.6zm8.3 26.1l-8.3.4V640h640V227.2l-5.8-.5c-3.1-.3-7.4-.9-9.4-1.2l-3.8-.7v12.5c0 9.1.3 12.7 1.2 13 1 .4 1 .6.1.6-.8.1-1.3 1.5-1.3 3.6s.5 3.5 1.3 3.5c.9 0 .9.2-.1.9-1 .6-1.3 3.2-1.2 9.2.1 4.6.1 86.1.1 181.1L621 622H19V476.9c0-103.5-.3-145.6-1.1-147.1s-.8-1.9 0-1.4c.6.4 1.1 0 1.1-.9s-.4-1.3-1-1c-1.3.8-1.3-.4.1-4.2.5-1.7.9-5.5.7-8.4l-.3-5.4-5.3 9.1c-2.8 5-5.2 9.8-5.2 10.6 0 .9 1.2 2.8 2.8 4.3 2.3 2.4 2.4 2.6.5 1.6-2.5-1.3-4.3-4.1-4.3-6.6 0-.9 2.7-6.1 6.1-11.6 5.6-9.2 6-10.2 5.7-15.1l-.3-5.3-3 5c-1.6 2.7-3.4 5.7-4 6.5-.5.9-1.9 3.1-3 4.9-2.8 4.7-6.7 9.3-7.2 8.7-.6-.6 11.6-19.9 12.8-20.4.5-.2.9-.8.9-1.4 0-.5.9-2.1 2-3.5 1.9-2.5 2-4.1 2-52.9v-50.3l-3.5.6c-2.3.4-3.5.2-3.5-.6 0-.6 1.6-1.1 3.5-1.1H19v-27.4c0-25.3-.1-27.5-1.7-27.9-1.7-.4-1.7-.5 0-.6 1.4-.1 1.7-1.1 1.7-6.6 0-4.6-.4-6.4-1.2-6.3-.7.1-5 .4-9.5.5zM629.5 281c.3.5.2 1-.4 1-.5 0-1.3-.5-1.6-1-.3-.6-.2-1 .4-1 .5 0 1.3.4 1.6 1zm4.5 3.2c0 .6-.6.5-1.5-.2-.8-.7-1.5-1.4-1.5-1.6 0-.2.7-.1 1.5.2.8.4 1.5 1.1 1.5 1.6zm4.5 2.6c-.3.3-1.1 0-1.8-.7-.9-1-.8-1.1.6-.5 1 .3 1.5.9 1.2 1.2zM617 195c0 .5.5 1 1 1 .6 0 1-.5 1-1 0-.6-.4-1-1-1-.5 0-1 .4-1 1zm4.2 18.5c0 4.7.4 8.8.9 9.1.6.3 3.2.6 5.9.6 2.7-.1 5.2.3 5.5.9.4.5 1.3.9 2.1.9s1.2-.5.9-1c-.3-.6.3-1 1.4-1 1.9 0 2.1-.6 2.1-7.6 0-9.8-.6-10.4-10.8-10.4h-8v8.5zm3.8-4.5c0 .5-.2 1-.4 1-.3 0-.8-.5-1.1-1-.3-.6-.1-1 .4-1 .6 0 1.1.4 1.1 1zm-42.2-.3c.7.3 1.6.2 1.9-.1.4-.3-.2-.6-1.3-.5-1.1 0-1.4.3-.6.6z"/></svg>