<svg version="1.0" xmlns="http://www.w3.org/2000/svg" width="853.333" height="853.333" viewBox="0 0 640 640"><path d="M311.3 17.7c13 .2 34.4.2 47.5 0 13-.1 2.3-.2-23.8-.2s-36.8.1-23.7.2zm318.5 32.7l-7.8 2v4.4c0 3.6.3 4.3 1.8 3.9.9-.3 5-1.3 9-2.3l7.2-1.8v-4.3c0-4.9.5-4.8-10.2-1.9zM613 55.1c-1.9.6-16.8 4.6-33 9s-36.2 10.1-44.5 12.6c-24.1 7.2-45.7 13.1-64.5 17.4-26.5 6.1-37.8 9.7-38.2 12.3-.2 1.6-1.9 2.5-7.3 4.2-3.8 1.2-6.3 2.3-5.4 2.3.9.1 2.6 1 3.9 2.1 1.3 1.1 3.2 2 4.4 2.1 1.2 0 3 .4 4.1.9 1.4.6.3.8-3.7.7-4.6-.1-5.7-.4-5.5-1.7.3-2-5.1-1.7-7.2.5-1.5 1.5-1.3 1.6 1.4 1 2.8-.6 2.9-.5 1.1.9-1.3 1.1-2.4 1.2-3.7.6-2.3-1.3-4.2-1.3-3.4 0 .4.6-.6.7-2.5.4-1.7-.4-3-.2-3 .3 0 2 7.7 2.3 14.9.7 6.8-1.6 7.3-1.5 8.5.1 1.6 2.2 4.6 1.4 5.3-1.4.3-1.1 1.7-2.2 3.1-2.6 2.4-.6 9.4-3.6 25.8-11 4.9-2.2 31.6-11 42.4-13.9 3-.8 10.9-3 17.5-4.9 14.1-4 38-10.6 51.5-14.1 15.9-4.2 35.3-9.3 39.8-10.5 4-1.1 4.2-1.3 4.2-5.1 0-4.3-.3-4.4-6-2.9zm-151.3 48.5c-.3.3-1.2.4-1.9.1-.8-.3-.5-.6.6-.6 1.1-.1 1.7.2 1.3.5zm28.1-16.9c.7.3 1.6.2 1.9-.1.4-.3-.2-.6-1.3-.5-1.1 0-1.4.3-.6.6zM0 95.8c0 .6 1.2 1.3 2.8 1.5l2.7.4-2.7.2c-2.7.1-2.8.3-2.8 5.5v5.3l6.1.7c3.4.3 7.5.6 9 .6H18V96h-5.2c-2.9 0-7-.3-9-.6-2.4-.4-3.8-.3-3.8.4zm21 7.1v6.9l11.3.6c6.1.3 20.9 1.1 32.7 1.6 39.8 1.9 86.3 5 122 8.2 28.9 2.5 41.6 3.1 68 3.3 47.4.4 57.4 1.4 58.6 6 .7 2.7 3.4 3.5 3.4 1 0-.8-.4-1.5-1-1.5-.5 0-1-.4-1-.9 0-1 10.3-3.1 14.8-2.9 1.7.1 3.2.5 3.2 1 0 1.3 5.5.9 6.8-.4 1-1 1.5-1 2.2.2.7 1.1 1.3 1.2 3.4.2 3-1.3 3.3-2.7.9-3.6-1.5-.6-1.5-.9-.3-1.6 1.7-1.1 3-.4 3 1.7 0 2 3.8 5.3 6.2 5.3 1 0 2.7.5 3.7 1.1 2.8 1.8 6.8.3 7.9-3 1.6-4.6-.4-6.5-6.2-5.9-2.5.3-4.9.1-5.2-.4-.3-.5-5.8-.6-13-.3-11 .6-12.3.5-11.8-.9.3-.9.1-1.6-.5-1.6s-1.1-.9-1.1-2c0-1.8-.7-2-8.3-2-8.8 0-10.4.5-8.6 2.7.9 1.1-.4 1.2-7.7.8-4.9-.3-11.1-1-13.9-1.5-2.7-.5-9.9-1.4-16-2-6-.6-19.5-1.9-30-3-46.1-4.7-108.6-9-165-11.5-18.7-.8-39.5-1.7-46.2-2L21 95.9v7zm146.7 3.7c-.3.3-1.2.4-1.9.1-.8-.3-.5-.6.6-.6 1.1-.1 1.7.2 1.3.5zm15.1 1.1c-1 .2-2.6.2-3.5 0-1-.3-.2-.5 1.7-.5s2.7.2 1.8.5zm23 2c-1.6.2-4 .2-5.5 0-1.6-.2-.3-.4 2.7-.4s4.3.2 2.8.4zm15 1c-1.5.2-4.2.2-6 0-1.8-.2-.6-.4 2.7-.4 3.3 0 4.8.2 3.3.4zm11 1c-1.6.2-4 .2-5.5 0-1.6-.2-.3-.4 2.7-.4s4.3.2 2.8.4zM265 114c4.1.5 11.5 1.2 16.5 1.5 4.9.4 9.2.8 9.4 1.1 1.5 1.5-26.4-.4-45.4-3.2l-9-1.2 10.5.4c5.8.3 13.9.9 18 1.4zm50.5 6.8c-.8.8-2.5-1-1.9-2 .4-.6.9-.5 1.5.3.4.7.6 1.5.4 1.7zm37.5 1.3c0 .6-.4.7-1 .4-.5-.3-1-1.1-1-1.6 0-.6.5-.7 1-.4.6.3 1 1.1 1 1.6zm11.5 3.2c.7.7.4.8-.8.3-1-.3-2.5-.6-3.3-.6-.8 0-1.4-.5-1.4-1.1 0-1.2 4-.2 5.5 1.4zm54.4-22.8c-.1.3-.2.8-.3 1.2-.1.5-.8 1.9-1.5 3.2-.9 1.7-1.6 2-2.4 1.2-1.4-1.4-5.4-1.4-6.2-.1-.6.9 3.5 1.4 9.4 1.2 2.8-.2 4.6-2.3 2.8-3.4-1.2-.8 0-1.1 3.3-.9 1 0 1.1-.1.2-.5-.6-.3-1-1-.6-1.5.3-.5-.6-.9-2-.9s-2.7.2-2.7.5zM394 110c0 1.6-.7 2-3.2 2-3 0-9.8 3.2-9.8 4.5 0 .3 1-.1 2.3-.9 1.2-.7 4-1.7 6.2-2.1 2.2-.4 4.6-1.1 5.3-1.7 1.4-1.2 1.6-3.8.2-3.8-.5 0-1 .9-1 2zm4.5-1c-.3.5.1 1 1 1s1.3-.5 1-1c-.3-.6-.8-1-1-1-.2 0-.7.4-1 1z"/><path d="M406.8 113.4c-4.8.6-9 1.4-9.4 1.8-.3.4 1.1.4 3.1.1 3.2-.5 3.7-.3 3.3.9-.5 1.1.2 1.5 2.7 1.6 5.6.2 12.7-3.5 9.8-5.1-.5-.2-4.7.1-9.5.7zm-55.8 1.4c.9 1.9 1.9 2.3 5.3 2.2 2.3-.1 5.6.1 7.2.5 2.9.6 2.9.6 1-1-1.5-1.2-3.3-1.5-7-1.2-3.8.3-5.3.1-6.3-1.2-1.1-1.4-1.2-1.3-.2.7zm22-.3c0 .8.5 1.5 1 1.5.6 0 1-.7 1-1.5s-.4-1.5-1-1.5c-.5 0-1 .7-1 1.5zm-40 .5c0 .5 1.4 1 3 1 1.7 0 3-.5 3-1 0-.6-1.3-1-3-1-1.6 0-3 .4-3 1z"/><path d="M390 116.1c-5 1.4-11 4-14.2 6.2-2.8 1.8-2.8 1.8-2.8-.2 0-1.3-.5-1.9-1.4-1.5-.7.3-1.3 1.6-1.3 3s-.9 3.4-1.8 4.4c-1 1.1-1.5 2.3-1.2 2.7.4.3.7 0 .7-.7 0-1 .3-1.1 1.1-.3 1.4 1.4.1 3.6-1.7 2.9-1.6-.6-1.8 1.2-.4 3.4.9 1.3 1.2 1.3 2.4-.3 1.6-2.1 3.2-2.2 4-.1.3.8 1 1.2 1.6.9.9-.5 1.5 2.3 1.1 4.8-.1.4.5 1.8 1.4 3 1.3 1.9 1.5 1.9 1.5.3 0-1.3.5-1.6 1.6-1.2 1.2.5 1.5.2 1-1-.3-.9-.9-2.7-1.2-4-.6-2.3-.4-2.4 3.2-1.9 5.1.6 6.3 2 3.6 4.2-2.7 2.2-2.1 6.8.7 5.3.9-.5 3.9-1.9 6.6-3.1 2.8-1.2 5.3-2.7 5.7-3.3.9-1.3 5-1.4 6-.2.3.5 1.8 0 3.2-1.2l2.7-2-2.3-1.6c-2-1.4-2.4-1.4-4 .1-3.5 3.2-3 0 .9-5.6.1-.2 1.6.2 3.3.9 1.9.8 2.9 1.8 2.6 2.6-.7 1.8 2.8 3.6 6.2 3.4 6.2-.4 12.2.1 12.2 1 0 .5-1.3 1-3 1-1.6 0-3 .3-3 .8 0 1.1-5.8 3.4-7.2 2.9-.7-.3-.3-.6 1-.6 3.3-.1 2.8-3.1-.5-3.1-4 0-7.4 1.1-6.7 2.1.3.5 1 .7 1.5.4.5-.4 1.4-.3 2 .1.8.4.7.9-.2 1.5-1.1.7-1 1.3.7 3l2.2 2.1 1.1-2.1c1.1-1.9 2-2.1 12.5-2.1 13 0 45 4.2 67.7 8.9 17.8 3.7 52.7 12.6 67.4 17.1 7.4 2.4 49.2 15.9 50.8 16.5 1.6.7 1.8.2 1.5-5.1-.3-5.7-.4-5.8-3.8-6.7-1.9-.5-3.9-1.2-4.5-1.7-1.3-.9-8.3-3.3-11-3.5-1.1-.2-7.2-1.7-13.5-3.5-26.6-7.4-31.1-8.4-69.5-16.1-13.7-2.7-30.6-6.4-37.5-8.3-6.9-1.9-17.7-4.3-24-5.5-7.4-1.3-11.7-2.6-12.2-3.6-.5-.8-1.5-1.5-2.2-1.5-.8 0-3.5-1-6.2-2.1-2.6-1.2-7.3-2.3-10.3-2.4-5.3-.2-5.5-.2-3.3 1.2 1.2.9 2.2 2.2 2.2 2.9 0 1.6-1.1 1.8-2.5.5-.6-.4-3.2-1.4-6-2-2.7-.7-5.3-1.7-5.7-2.4-.4-.7-1.2-.6-2.4.4-1 .8-1.5.9-1.1.2 1.2-2-.8-5.5-4.1-6.9-2.9-1.2-3.2-1.1-3.2.6 0 1 .4 2 .8 2.2.5.1 1.2 1.5 1.6 3 .6 2.6.5 2.7-2.4 2.2-2.3-.5-3-.3-3 1 0 1.7-1.5 2.2-2.5.7-.3-.6.1-1.3.8-1.8 1.9-1.1 3-7 1.4-7.6-.9-.3-.9-.9.1-2.6 1.4-2.4.9-2.5-4.8-1zm.3 11c-.6.6-1.9 1.2-2.9 1.4-1.1.2-2 .4-2.2.4-.1.1.2 1 .8 2.1.9 1.7.8 2-1 2-1.3 0-2-.7-2-2 0-1.7-.7-2-4.6-2-3.1 0-4.3-.4-3.8-1.1.4-.7 2.5-1 5.9-.6 2.8.3 5.8.1 6.6-.4 2.1-1.3 4.6-1.2 3.2.2zm2.4 5.9c1.7 1.3 2 2 1.1 2-.8 0-2.3-.9-3.3-2s-1.5-2-1.1-2c.4 0 1.9.9 3.3 2zm-8.7 1.4c0 .3-.4.8-1 1.1-.5.3-1 .1-1-.4 0-.6.5-1.1 1-1.1.6 0 1 .2 1 .4zm9 3c0 .3-.4.8-1 1.1-.5.3-1 .1-1-.4 0-.6.5-1.1 1-1.1.6 0 1 .2 1 .4zm-14.4 5.3c-1.1 1.1-1.7-.4-.9-2.3.7-1.8.8-1.8 1.1-.1.2 1 .1 2.1-.2 2.4zm77.1-.1c-.3.3-1.2.4-1.9.1-.8-.3-.5-.6.6-.6 1.1-.1 1.7.2 1.3.5z"/><path d="M396 123.9c0 .5.5 1.3 1 1.6.6.3 1 .2 1-.4 0-.5-.4-1.3-1-1.6-.5-.3-1-.2-1 .4zm-73 3.8c0 .5.4 1.4.9 2.2.7 1.2 1.2 1.1 3-.1 1.1-.8 1.8-1.8 1.4-2.1-.9-.9-5.3-.9-5.3 0zm22.8.4c-1.8 1-1.4 3.9.6 3.9.7 0 2.1-.7 3.2-1.5 1.6-1.3 1.7-1.6.4-2.5-1.8-1.2-2.1-1.2-4.2.1zm5.6 2c-.8 1.4-.5 1.6 5.1 2.4 5.7.8 5.3-.7-.7-2.3-2.5-.7-4-.7-4.4-.1zm-8.2 5c-.7 1-1.2 2.2-1.2 2.6 0 .5.5.1 1-.7.7-1.1 1-.8 1 1.6 0 4.2 3.3 8.4 5.1 6.6.7-.6 2.2-1.2 3.2-1.2 1.3 0 1.7-.5 1.3-1.5-.3-.8-.1-1.5.4-1.5.6 0 1-.5 1-1.1 0-.6-.7-.9-1.5-.5-.8.3-1.5.2-1.5-.3s.9-1.1 2-1.4c2.2-.6 2.7-2.6.8-2.8-5.6-.6-6.8-.4-6.7 1.1.1.8-.1 2.3-.6 3.3-.4 1-.2 2.4.6 3.5 1.3 1.5 1.2 1.6-.3.3-1.2-.9-1.8-2.7-1.8-5.2 0-4.4-1.1-5.6-2.8-2.8zm19.1.7c-1.3.2-2.3 1-2.3 1.8 0 1.1.6 1.3 2.3.8 2.7-.8 3-1.1 2.6-2.1-.2-.4-1.4-.7-2.6-.5zm-44.8 4.7c-3.3 1.9-6.9 4.5-8 5.9-2 2.4-6.1 4.5-14 7.1-9.2 3.1-47.4 18.6-66 26.8C198.3 194 121 234.6 121 237.2c0 1.2 3 1 9.1-.6 5.2-1.4 23.2-9.5 50.6-22.7 6.7-3.2 12.5-5.9 12.8-5.9.3 0 6.5-2.9 13.8-6.4 16.2-7.9 31-14 62.2-25.7 31.8-11.9 45.2-17.6 49.7-21.1 2-1.5 4.3-2.5 5.2-2.2.9.3 1.9-.3 2.6-1.7 1.1-2 1-2.1-.6-1.4-4.2 1.7-5.7 1.8-5.2.5.2-.7 3.1-2.1 6.4-3 3.2-.9 6.9-2.2 8.1-2.8 2-1.1 2.1-1.5 1-3.2-.6-1.1-1.9-2-2.7-1.9-1 0-1.1.2-.2.6 2 .8 1.4 2-1.5 2.6-3.5.7-6.3-.8-6.3-3.3 0-2.8-1.6-2.5-8.5 1.5zm-2.6 3.8c-.8.7-1.8 2-2.2 2.9-.7 1.9-2.7 2.5-2.7.9 0-1 4.8-5.1 5.9-5.1.3 0-.1.6-1 1.3zm2.1 10.1c0 .2-.7.7-1.6 1-.8.3-1.2.2-.9-.4.6-1 2.5-1.4 2.5-.6zm-7 2c0 .9-4 1.3-4.6.5-.3-.5.6-.9 2-.9s2.6.2 2.6.4zm48.5-15.4c.3.5.8 1 1.1 1 .2 0 .4-.5.4-1 0-.6-.5-1-1.1-1-.5 0-.7.4-.4 1zm12.5 2c0 .5.5 1 1.1 1 1.7 0 4 2.8 2.9 3.5-.5.3-1 1.2-1 1.9 0 1.2 2.4 1.4 7.3.7.4-.1.7-1 .7-2.1 0-1.6-.5-1.9-2.3-1.5-1.7.5-2.8 0-4.3-1.9-1.9-2.6-4.4-3.5-4.4-1.6zm32.6 1.7c-1.1 1.1-.6 2.3.9 2.3.8 0 1.5-.4 1.5-.9 0-1.3-1.6-2.2-2.4-1.4zm-68.8 4.1c-2 .4-2.3 1.7-.7 2.8 1.2.7 3.3-1 2.8-2.3-.2-.5-1.2-.7-2.1-.5zm33.9.6c-.3.8.1 1.7.9 2 .9.4 1.4-.1 1.4-1.4 0-2.3-1.5-2.7-2.3-.6zm6.3 13.1c0 1.9-.3 3.5-.7 3.5-1.7 0-3.5-1.9-2.9-2.9.4-.6 0-1.1-.8-1.1-.9 0-1.6.5-1.6 1.1 0 .8-.4.9-1.3 0-1.6-1.3-2.7-.5-2.7 1.9 0 1.1.9 1.7 3 1.9 6.9.4 7 .4 7.2 3.3 0 1.5.1 3.2.2 3.8.2 2.4-1.9 1.3-2.4-1.2-.6-3.3-2.5-2.5-3.5 1.5l-.7 2.7h6.8c8.6 0 10.1-.8 8.2-4.1-.7-1.3-2-3-2.8-3.7-1.3-1.2-1.3-1.3.3-.8 1 .3 2.4.6 3.1.6.7 0 1.7 1.2 2.3 2.7l1.1 2.8.1-2.8c.1-3.7 1.8-3.4 1.9.4.1 5 1.2 4.7 1.2-.4 0-2.6.5-4.7 1-4.7.6 0 1-.7 1-1.5s-.4-1.5-1-1.5c-.5 0-1 .7-1 1.5s-.4 1.5-1 1.5c-.5 0-1-.9-1-2s-.4-2-1-2c-.5 0-1 .7-1 1.5s-.5 1.5-1.1 1.5c-.6 0-.8-.9-.4-2 .7-2.4-.7-2.6-2.9-.5-.8.8-2.4 1.5-3.5 1.5-1.7 0-2.1-.6-2.1-3 0-1.7-.4-3-1-3-.5 0-1 1.6-1 3.5z"/><path d="M378.5 161c-.3.5.1 1 .9 1 .9 0 1.6-.5 1.6-1 0-.6-.4-1-.9-1-.6 0-1.3.4-1.6 1zm25.5 0c0 .5.5 1 1 1 .6 0 1-.5 1-1 0-.6-.4-1-1-1-.5 0-1 .4-1 1zm111.1 3.3c-4 1.4-5 3.3-2.3 4.1 1 .4 2.9 1.8 4.2 3.1 1.8 2 2.1 2.8 1.2 3.7-1.2 1.2-1.7 5.8-.7 5.8.8 0 6.9-4.3 7.7-5.5 1.3-1.7.2-3-2-2.7-2.6.4-2.9-1.6-.5-3.3 1.5-1.2 1.6-1.6.4-3.9-1.6-2.9-2.9-3.1-8-1.3zm-111.4 2.3c-.8.8.1 2.4 1.4 2.4.5 0 .9-.7.9-1.5 0-1.5-1.2-2-2.3-.9zm98.3 8.9c-1.7 2.1-.5 3.2 5 4.4 4 .9 4.3.8 2.5-.5-1.1-.7-3-2.3-4.1-3.4-1.9-1.8-2.3-1.8-3.4-.5zm120 6.5c0 3.3.3 5.9.8 5.8.7-.2 14.9 4 16.5 4.9.4.2.7-2 .7-5v-5.5l-4.7-1.7c-2.7-.9-6.7-2.3-9-3.1l-4.3-1.3v5.9zm-256.2-4.3c.7.3 1.6.2 1.9-.1.4-.3-.2-.6-1.3-.5-1.1 0-1.4.3-.6.6zm94.7 2.3c-.3.5-.1 1 .4 1 .6 0 1.1-.5 1.1-1 0-.6-.2-1-.4-1-.3 0-.8.4-1.1 1zM349 181.1c-4.7.4-9.4.9-10.5 1.2-1.1.2-4.9.8-8.5 1.2-3.6.5-6.7.9-7 1-5.7 1.3-7 1.8-7 2.4 0 .4-1 .7-2.2.7-1.7-.1-2.4.5-2.6 2.3-.3 1.7-.6 2-1.2 1.2-.5-1-.9-1-1.4-.2-.5.7.4 1.4 2.3 1.7 1.6.4 3.2 1.3 3.5 2.1.5 1.3.8 1.3 2.1 0 .8-.8 4.7-2.1 8.7-2.8 4-.6 8-1.6 8.8-2.1 2.2-1.2-10.8.2-15.4 1.8-3.3 1.1-4.1 1-5.4-.2-1.7-1.8-.8-3.2 1.1-1.6.7.6 1.8.8 2.3.3 3.3-3 37.8-5 63.5-3.7 11.4.7 13.7 1.1 14.5 2.6 8.1 15.2 11.9 23.8 10.9 24.8-.2.2-3.9-.3-8.3-1.2-4.3-.9-9.9-1.5-12.3-1.5-2.4.1-3.5.3-2.4.6 1.1.2 6.1 1.3 11 2.4 5 1.1 11.5 1.9 14.5 1.7 4.8-.3 5.5-.6 5.8-2.5.4-2.7-9.1-27.2-11.9-30.7l-2-2.6-21.2.2c-11.7.1-25 .5-29.7.9zm120.5 1.8c.6.6 4.6 1.2 9 1.5 5.7.4 6.9.3 4-.3-8.4-1.8-14-2.3-13-1.2zm-20.1 3.3c-1.3 1.7-.9 7.7.5 9.1 1.9 1.9 3.3-.7 2.9-5.3-.3-4.5-1.8-6.1-3.4-3.8zm-142.3 2.4c0 1.1.3 1.4.6.6.3-.7.2-1.6-.1-1.9-.3-.4-.6.2-.5 1.3zm159.9 4.1c0 5.6.1 5.9 3 7 2.9 1.1 3 1.4 3 7.2v6.1h5.5c6.6 0 6.7-.2 6.3-13.9-.3-10.8.3-10.2-11.5-11.5l-6.3-.7v5.8zm48.8-3c.6.2 1.8.2 2.5 0 .6-.3.1-.5-1.3-.5-1.4 0-1.9.2-1.2.5zm-24.6 11.9l.3 11.9 8.3.3 8.2.4v-21.9l-5.2-.7c-2.9-.4-6.8-.9-8.6-1.3l-3.3-.5.3 11.8zm4.5 2.6c-.2 1.8-.4.6-.4-2.7 0-3.3.2-4.8.4-3.3s.2 4.2 0 6zm9.3-2.2c0 .5-1.3 1-3 1-1.6 0-3-.5-3-1 0-.6 1.4-1 3-1 1.7 0 3 .4 3 1zm-3.3 6.6c-.3.3-1.2.4-1.9.1-.8-.3-.5-.6.6-.6 1.1-.1 1.7.2 1.3.5zm23.1-17.9c.7.3 1.6.2 1.9-.1.4-.3-.2-.6-1.3-.5-1.1 0-1.4.3-.6.6zm5 1c.7.3 1.6.2 1.9-.1.4-.3-.2-.6-1.3-.5-1.1 0-1.4.3-.6.6zM514 203.3c0 7.5.4 10.6 1.3 10.9.6.2 4.5.5 8.5.7l7.3.3-.3-9.9-.3-9.8-5-.6c-2.7-.4-6.5-.9-8.2-1.3l-3.3-.8v10.5zm7.3-1.3c1 0 1.5.4 1.2 1-.8 1.4-6.8.6-7.3-1-.3-.9.2-1.1 1.9-.7 1.3.4 3.2.7 4.2.7zm7 7.3c.4 1.1-.7 1.2-5.7.5-8.7-1.2-9.1-1.6-1.5-1.7 4.7-.1 6.8.3 7.2 1.2zm31.6-13c.5.5 1.9.7 3.2.5 2-.3 1.9-.5-.9-.9-2-.3-2.9-.2-2.3.4zm-22.6 9.7l.2 9.3 8.3.4 8.3.5-.2-8.6c-.2-9.7.4-9.1-10.1-10.1l-6.7-.7.2 9.2zm5.7-3c0 .5-.4 1-1 1-.5 0-1-.5-1-1 0-.6.5-1 1-1 .6 0 1 .4 1 1zm31.5-5c.3.5.8 1 1.1 1 .2 0 .4-.5.4-1 0-.6-.5-1-1.1-1-.5 0-.7.4-.4 1zm-14.5 9.8v7.9l3.8.7c2 .3 5.4.6 7.4.6h3.6l.4-7.5c.3-8.5.9-8-8.9-9l-6.3-.7v8zm-184.2 3.9c.7.3 1.6.2 1.9-.1.4-.3-.2-.6-1.3-.5-1.1 0-1.4.3-.6.6zm-91.3 3.2c-5.5 2.3-11.5 13-11.5 20.5 0 3.4 2.9 7.3 3.7 4.9.3-.8 1.2-.9 3.4-.1 4.4 1.5 4.7.2.9-3.2-3.3-2.9-3.3-2.9-2-7.5 1.6-5.5 4.5-9.5 7-9.5 2.7 0 3.2 1.5 2.2 5.3-.7 2.4-.6 3.4.2 3.4.6 0 1.8.2 2.6.4 1.1.3 1.7-.9 2.4-4.5 1.6-7.9-2.5-12.4-8.9-9.7zm22 .6c-2.9 1.5-7.5 6.2-7.5 7.7 0 1.8 5.6.7 6.8-1.3 1.7-2.6 5.7-2.2 5.7.6 0 1.5-1.7 2.8-6.5 5.1-8.6 4.1-9.4 5.1-7.7 10 1.3 3.7 1.5 3.8 6.8 4.1 4.2.3 5.7 0 6.6-1.4 2.5-3.3 1.6-4.3-4.2-4.3-3 0-5.5-.4-5.5-.9s2.1-1.7 4.8-2.7c7-2.7 8.9-4.1 10.6-8.6 2-4.8 1.4-7.1-2-8.6-3.3-1.5-4.3-1.5-7.9.3zm20.9-.8c-2.4.5-6.8 8.9-6.3 11.9.2 1.1 2.3 2.8 4.9 4.1 5 2.4 5.6 3.8 2.3 6-2 1.3-2.3 1.3-4-.6-1-1.2-2.9-2.1-4.5-2.1-2.5 0-2.8.3-2.8 3.5 0 4.1 2 5.5 7.7 5.5 5.5 0 9.7-3 11.8-8.3 2.1-5.6 1-8.3-4-9.3-4.6-.8-6.1-2.7-4-4.8 2.2-2.2 4.2-2 5.5.4.6 1.1 2.1 2 3.5 2 3.1 0 4.2-3.3 2.1-6.5-1.4-2.1-2.4-2.5-5.9-2.4-2.3.1-5.1.4-6.3.6zm87.7 1.1c-.6 1.2-2.3 2.5-3.6 2.8-2.9.7-3.3 2.1-.7 2.8 2.6.7 32.8 1.9 80.7 3.1 31.4.8 35.1 1.2 36.9 4 1.6 2.4 6.6 14.3 6.6 15.7 0 .4-1.1.8-2.4.8-2.5 0-6.2 2.8-5.1 3.8.3.4 1 0 1.4-.7.7-1.1 3.4-1.2 13.2-.7 6.8.4 12.9.7 13.4.6 9.8-.6 30.3-.5 31.2.2.7.5 1.4.5 1.8-.2.8-1.3 28.5-1.4 28.5 0 0 .5.5 1 1 1 .6 0 1-1.7 1-3.9 0-3.7-.2-3.9-3.7-4.5-2.1-.3-18.8-.6-37-.6H545l-1.4-3.3c-4.3-10.1-6.9-14.5-9.2-15.6-2.9-1.3-36.4-3.5-104-6.7-13.8-.7-14.2-.6-15.3 1.4zm-170 .5c-.6.8-2.2 4.3-3.5 7.8-1.4 3.5-2.6 5.9-2.7 5.4-.1-.6-.2-1.5-.4-2-.1-.6-.3-3.2-.3-5.9-.2-4.7-.2-4.8-2.9-4.2-3.4.9-4.8 2.5-6.9 8.5-.9 2.5-2.5 6.7-3.5 9.3-2.4 6-2.4 7 .3 6.6 1.8-.2 2.7-1.8 4.8-8.6 1.5-4.5 3-7.9 3.3-7.5.4.3.7 2.9.8 5.7.2 7.7 1.1 10.1 3.9 10.1 2.3 0 2.9-1 6.7-12 2.3-6.6 4.2-12.6 4.2-13.3.1-1.6-2.4-1.6-3.8.1zm13.3 5.4c-8.4 9.8-8.2 9.6-8.9 12.5-.7 2.8-.7 2.8 4.5 2.8 4.4 0 5.1.3 4.6 1.6-.3.9-.4 2 0 2.5.8 1.3 4.4-.9 4.4-2.6 0-.8.8-1.5 1.9-1.5 1.1 0 2.1-.9 2.5-2.3.9-3.2.8-3.7-.8-3.7-1.2 0-1.1-1.1.5-6.3 1.1-3.4 2.4-7 3-8 .8-1.5.5-1.7-2.5-1.7-2.9 0-4.1.9-9.2 6.7zm4.2 4.4c-1.2 4-2.9 5.9-5.3 5.9-2.3 0-1.4-2.3 2.4-6.2 2-2.1 3.8-3.8 3.9-3.8.1 0-.4 1.8-1 4.1zm86.9-9.9c-1.7 4.6-8.5 25.4-8.5 26 0 .4 1 .8 2.3.8 1.9 0 2.7-1 4.4-5.8 2-5.7 2-5.7 6.2-5.8 3.9-.2 4.2 0 3.7 2-.3 1.4.1 2.5 1.3 3.3 2.2 1.4 2.8.5 7.1-11.7 3-8.5 2.9-10.5-.6-9.8-1.2.2-2.3 2-3.3 5.1-1.4 4.7-1.5 4.7-5.9 4.7-4.1 0-4.4-.2-3.8-2.3 2-6.8 1.9-7.7-.3-7.7-1.2 0-2.4.6-2.6 1.2zm284.7 3c.2 3 .8 4.3 1.8 4.3s1.6-1.3 1.8-4.3c.3-3.7.1-4.2-1.8-4.2-1.9 0-2.1.5-1.8 4.2zm-25.8 5.9c-.5.8-.3 1 .6.4 1-.6 1.2-.4.7.9-.5 1.4-.3 1.7.8 1.2 1.5-.5 2 1 1.5 4.3-.1 1.2.1 1.2 1.3.3 1.1-1 1.6-.7 2.5 1.4 1.5 3.1 1.5 3.7.2 2.9-.5-.3-1-.1-1 .4 0 1.7 3 1.3 3.6-.4.4-.8-.1-3-1-4.9-.9-1.9-1.4-4-1.1-4.8.3-.8-.3-1.3-1.7-1.4-1.3 0-3-.4-3.9-.8-1-.4-2-.2-2.5.5z"/><path d="M459.5 226c-.3.5-.1 1 .4 1 .6 0 1.1-.5 1.1-1 0-.6-.2-1-.4-1-.3 0-.8.4-1.1 1zm6.2 2.9c-1.2 1.4-.7 1.9 7.9 8.7 2.6 2 4.5 2.5 13.2 3 9.9.6 11.6.2 9-2.4-.9-.9-.9-1.2 0-1.2.6 0 1.6.9 2.2 2 .8 1.5 2.1 2 5 2h4v-6c0-3.3-.1-6.1-.2-6.1-.2-.1-9.2-.4-20.1-.8-16.2-.5-20.1-.3-21 .8zm-179.7 3c0 .5.6 1.4 1.4 2 1.2 1 1.3.8.9-.8-.5-2.1-2.3-3-2.3-1.2zm4.5 3.1c.3.5.8 1 1.1 1 .2 0 .4-.5.4-1 0-.6-.5-1-1.1-1-.5 0-.7.4-.4 1zm-6.5.8c0 1.2 1.9 2.6 2.6 1.9.2-.2-.2-1-1.1-1.7-.9-.8-1.5-.8-1.5-.2zm71.6 3.4c-.8 3.3-.8 3.8.7 3.8.9 0 1.4-1.2 1.5-3 .1-3.5-1.3-4-2.2-.8zm266.6 2.8c0 1.9.2 2.7.5 1.7.2-.9.2-2.5 0-3.5-.3-.9-.5-.1-.5 1.8zm7.8 1c0 .5 2 1 4.5 1s4.5-.5 4.5-1c0-.6-2-1-4.5-1s-4.5.4-4.5 1zm-404 1.9c0 .6-.7 1.1-1.5 1.1s-1.5.4-1.5.8c0 .5.7.9 1.5.9s1.5-.5 1.5-1 .5-.5 1.3.1c.7.6 3.7.9 6.7.7 3-.2 6.3-.4 7.3-.4.9-.1 1.7-.6 1.7-1.2s-2.5-.9-6.7-.8c-3.8.2-7.6-.1-8.5-.5-1.1-.5-1.8-.4-1.8.3zm29.8.3c.5.5 1.6.8 2.3.6.8-.3.3-.7-1-1.1-1.7-.4-2.1-.3-1.3.5zm15.2.8c5.8.3 11.2.2 12-.2.8-.4-3.9-.7-10.5-.6l-12 .2 10.5.6zm-84.9.4c.9.9 35.9 1.4 35.9.5 0-.5-7.9-.9-18.2-.9-10 0-17.9.2-17.7.4zM296 248c0 1.9.3 2.1 1.2 1.2.9-.9.9-1.5 0-2.4-.9-.9-1.2-.7-1.2 1.2zm63.1.6c0 1.1.3 1.4.6.6.3-.7.2-1.6-.1-1.9-.3-.4-.6.2-.5 1.3zm20 1.2c.1 1.5.3 2 .6 1.1.4-1.7 5.7-1.5 8.1.3.6.6 1.2.6 1.2.2 0-.5 3.5-.8 7.8-.6 4.2.2 8.8-.1 10.2-.7 2-.8.5-1-7-1.2-5.2-.1-10.5-.1-11.8 0-1.2.1-3.8-.2-5.7-.8-3.4-.9-3.5-.8-3.4 1.7zm-8.1-.6c0 .5 1.1.8 2.5.8h3c.3 0 .5-.3.5-.8 0-.4-1.3-.7-3-.7-1.6 0-3 .3-3 .7zm214.3 1.9c-.7.7-10.9.9-29.2.7-15.4-.2-28.1 0-28.1.3 0 2.1 37 5.3 38.3 3.3.3-.6 6-.6 13.9-.1 13.4.8 32.4.4 36.6-.9 1.2-.3 2.2-1.2 2.2-2 0-1.1-2.7-1.2-14.3-.7-9.5.4-15 .2-16.4-.5-1.3-.8-2.3-.8-3-.1zm42-.4c-3.7.3-5.3.8-5.3 1.8 0 .9.8 1.2 2.3.9 1.2-.2 5.2-.7 9-1 3.7-.4 6.7-1.1 6.7-1.5 0-.9-2.2-.9-12.7-.2zm-366 6.9c-5.7 2.8-8.2 11.5-18.5 64.3-6.6 33.8-7.5 37.5-9.3 37.7-1.1.1-3.7.5-5.7.8-2.1.4-3.8.5-3.8.2 0-.2.9-5.6 2-12.1 1.2-6.5 1.9-12.2 1.7-12.8-.3-1.1-4.7 20.6-4.7 23.5 0 .9-.4 1.9-.8 2.2-.8.5-16.3 2.3-40.7 4.7-13.1 1.2-61.9 3.9-62.4 3.3-.2-.2.6-2.7 1.9-5.4 1.8-3.8 2.8-4.9 3.9-4.4 3.1 1.3 6.5.9 6.9-.8.2-1.2-.2-1.5-1.7-1.1-1.2.3-1.8.9-1.5 1.4.3.5 0 .9-.6.9s-.8-1-.4-2.7c.6-2.2.4-2.5-1-2-.9.4-1.6.4-1.6.1 0-.3 4.9-10.3 11-22.2 6-11.9 10.8-21.8 10.5-22-.2-.2-3.6 6-7.6 13.9-10.1 20.3-12.8 25.2-15.2 27.1-1.2.9-2.1 2.7-2.2 4 0 1.2-1.1 4.8-2.5 7.9l-2.5 5.6-6.5.2c-3.6 0-13.5.5-22 .9-8.5.5-16.2.5-17.1.1-.9-.4-11-1.5-22.5-2.4-11.5-.8-22.4-1.8-24.2-2.1-3.3-.6-3.3-.6-3 2.7.3 2.9 1.4 4.2 7.3 8.6 15.4 11.5 40.1 21.2 58.2 22.9l7.1.7 1.1 3.7c.6 2.1 1.1 5.6 1.1 7.9 0 2.4.5 4.1 1.1 4.1.8 0 1-2.1.7-6.8-.4-5.3-.2-6.9.8-7.2 2-.4 24.4-.5 43.6-.2 15.4.3 16.6.5 17.1 2.3.6 2.3 3 2.5 5.1.3 1.3-1.3 3.7-1.4 16.6-.8 16.4.8 20.5 2.4 6 2.4-7.5 0-9 .3-9 1.6s1.5 1.5 10.1 1.3l10.2-.2 1.3 2.9c1.1 2.2 1.2 2.3.8.5-.4-1.7-.3-2.1.6-1.6.6.4 2.7-.1 4.5-1.1 3.2-1.7 6.5-1.2 3.6.5-2.2 1.4-.3 3.2 2.6 2.5 2.3-.6 2.5-.5 1.8 1.2-2 4.5-9.5 27.1-9.5 28.6 0 1.3.8 1.8 3 1.8 1.7 0 3-.5 3-1 0-.6-.6-1-1.4-.8-.8.2-1.5-.2-1.5-.7-.1-.6 3.5-1.1 8.4-1.3 10.6-.4 11.3-2.2.8-2.1h-8.5c-1-.1 3.7-13.3 7.3-20.2 2.9-5.9 4.6-7.8 3.4-3.7-.6 1.8-.5 2 1.1 1.2 1.1-.4 4-.8 6.5-.9 3.3 0 4.5-.4 4.2-1.3-.8-2 1.5-1.4 2.7.8.9 1.6.8 2-.5 2-1.4 0-1.4.3.1 2.5.9 1.4 1.2 2.5.7 2.5s-.8 1.4-.5 3c.2 1.7.1 6.4-.3 10.5-.6 7.1-.8 7.5-3.1 7.5-1.3 0-2.4.4-2.4 1s8.3 1 22.8 1c12.6 0 26.3.3 30.5.6 7.4.7 7.5.7 8.1 3.7.3 1.7.5 3.1.4 3.1-.2.1-29.5-.1-65.3-.4-35.7-.3-65.2-.4-65.4-.3-.2.2.2.9.9 1.8 1 1.2 4.2 1.5 18.1 1.5 15.7 0 19.7.6 17.4 2.8-.4.4-1 .1-1.2-.6-.7-1.9-2.3-1.4-3.3 1-.7 1.8-.9 1.9-.9.5-.1-1.5-.9-1.7-6.8-1.3-3.8.2-9.2.5-12.2.5-4.8.1-5.2.3-4 1.7 1.2 1.5.9 1.6-2.9 1.3-2.3-.3-4.3 0-4.5.6-.2.6-1 .5-2-.4-1.8-1.4-2.7-1.4-17.7 1.3-9.8 1.7-18 4.1-16.2 4.7.8.3.5.9-.8 1.6-1.7 1.1-1.8 1-1.3-.4s-.1-1.2-3.3.7c-2.1 1.3-4.1 2.5-4.4 2.7-.2.3 17.1.3 38.5.1l38.9-.3 1.7-5c1.3-3.9 2.2-5 4.1-5.2 1.2-.1 1.8 0 1.2.3-.7.3-1 1.3-.7 2.3.2 1-1.1 7.6-3 14.7-3.2 11.6-5.8 23.1-5.8 25.1 0 .4.3.9.8 1 1.1.4 3.7-8.2 3.7-12.7l.1-3.5 12 .2c6.6.2 23.9.3 38.5.3l26.5.1-3 2.4c-1.6 1.3-6.1 3.6-10 5.1-6.3 2.3-10.5 3.5-24 6.4-2.2.5-8.8.9-14.6 1-7.6 0-11.5.5-13.7 1.6-3.3 1.6-4.2 3.9-1.9 4.7.6.2 22 .2 47.5-.1 44.6-.4 46.2-.4 46.2 1.4 0 1.8-1.9 1.9-48.2 2.1-80.7.3-85.1.3-91.3-.6-3.3-.5-6.4-.6-7-.3-.5.3-5.3.6-10.6.7-5.3.1-10.2.5-10.8 1-.7.4-1.5.4-1.8.1-.4-.3 0-.6.8-.7.8 0-1.3-.6-4.6-1.4-6.5-1.3-8.5-1.1-8.5 1.1 0 1-1.2 1.4-4 1.4-4.4 0-5.3 1.3-1.7 2.6 1.2.4 44.5 1 96.1 1.3l94 .6 1.9 7c1 3.8 2.6 9.8 3.5 13.3 1.8 6.9 3.6 8.2 8.9 6.4 2.3-.8 2.8-1.4 2.7-4.1-.1-1.7.2-3.1.8-3.1 1.2 0 0-4-1.8-6.1-.9-1-1.4-3.9-1.4-7.7V519h17.1l-.2 8.7c-.1 4.9 0 9.5.4 10.3.3.8.7 2.4.9 3.4.4 2.6 5 5.8 7.1 5 3.1-1.1 4.5-5.7 5.2-16.5.4-5.7.8-10.5.9-10.6.1-.1 15.8.1 34.9.4 19.1.3 34.6.8 34.3 1-.2.2-3.9.4-8.3.5-6.8.1-7.9.4-8 1.9-.2 2.7 2.5 2.8 13.2.2 14.2-3.5 18.9-4.1 28.5-3.8 28.7 1 87 .8 87-.3 0-.4-1.4-1.3-3-1.9-2.1-.8-2.8-1.6-2.4-2.7.8-2-1-2.1-2.6-.1-1 1.2-1.6 1.3-2.6.4-1.1-.9-1.4-.8-1.4.5 0 1.7-1.6 2.2-2.2.7-.2-.6-13.4-1.2-31.3-1.5-29.8-.5-128.6-1.7-133.2-1.6-1.4 0-2.3-.6-2.3-1.5 0-1.2 1.8-1.5 9.8-1.6 5.3-.1 10.2 0 10.7.1.6.1 24.1.5 52.3.7 50.7.5 51.2.5 51.2-1.5 0-2.1 4.1-3.9 6.1-2.6 1.3.8 4.1-1.5 3.3-2.8-.9-1.5-.9-9.3.1-10.8.4-.7 1.1-6.7 1.4-13.4.4-6.6 1-12.7 1.5-13.4 1-1.6 2.6-.6 2.6 1.6 0 1.5 1.7 1.7 18.2 1.5 10.9-.1 18.9.2 19.8.8 1 .7-1.4.9-8 .8-5.2-.2-13.9-.1-19.2 0l-9.8.3v4.8c0 2.6.7 8.5 1.6 13.1.9 4.6 1.4 10 1.2 12.1-.4 4.2 1.5 5.9 6.7 5.9 54 .4 78.8.3 79.1-.3.8-1.3-3.9-3-6.8-2.4-2 .4-3 .1-3.4-.9-.7-1.8-3.5-2-3.1-.3.1.8-4.1 1.1-15.3 1.2-13.5.1-15.5-.1-15.8-1.5-.2-1 .8-2.1 2.8-2.9 1.7-.7 4.1-2.6 5.4-4.3 2.9-3.6 7.5-4.4 13.6-2.2 5.2 1.8 6.8 1.9 5.2.3-2.1-2.1-1.3-2.8 2.9-2.8 2.2 0 8.4-.5 13.7-1 19.3-2 28.9-2.9 37.5-3.6l8.8-.6-.3-8.1-.3-8.1-18 .2c-11 .2-18.6-.1-19.5-.8-1.1-.7.1-1 4.6-1 3.3 0 12.2-.3 19.7-.7l13.7-.6v-12.4l-8.6-.7c-4.7-.3-14.1-.9-20.8-1.2-6.6-.3-16.1-1.4-21.1-2.5-20.5-4.4-29.7-6.1-42.5-7.9-7.4-1.1-19.5-2.8-26.8-4-7.4-1.1-13.6-2-13.8-2-.2 0-.4 1.1-.4 2.5s.3 2.4.8 2.4c.4-.1 3.4 0 6.7.1 5 .1 5.5.3 3.2 1-1.6.5-4.6.7-6.8.4-3.6-.4-3.9-.3-3.9 2.1s.2 2.5 6.7 2.5c3.6 0 6.3-.3 5.9-.7-.3-.4-2.9-.6-5.6-.4-3.1.1-5-.2-5-.8 0-1.8 25.1-1.4 28.6.4 1.6.8 4.9 1.5 7.4 1.6 4.9.1 12.6 1.2 18 2.7 4 1.1 2.8 1.4-4.7 1.2-4.4-.1-5.3.2-6.3 2l-1.2 2.2-41.6-.6c-23-.3-59.2-.9-80.7-1.3-21.4-.3-43.5-.6-49-.7-5.5-.1-9.9-.4-9.7-.9.1-.4.2-1.8.2-3.2v-2.6l13 .2c7.4 0 12.8.5 12.4 1-.3.5-1.7.9-3.2.9-2.3.1-2.5.2-.9 1.1 1.6 1 8.9.9 77.9-.3 9.8-.2 13.8-.6 13.8-1.5 0-.8 1.2-1 3.8-.6 5.4.8 6.4 2.3 1.4 2.3-2.3 0-4.2.4-4.2.9s14.1 1 33.7 1c21.2.1 33.3-.3 32.7-.9-.5-.5-12.7-1-28.1-1.2-15-.1-27.3-.6-27.3-1.1 0-.5 1.2-.7 2.7-.5 2.4.3 2.8-.1 3-2.6l.2-2.9-17.1.6c-14.5.6-17.6.4-20.4-.9-3.2-1.5-3.4-1.8-2.8-5.8 1.3-8.6 2.4-11.7 5-12.6 2.7-1.1 3-2 1.2-3.8-.9-.9-.8-1.2.5-1.2.9 0 1.7-.5 1.7-1.1 0-.7 3.2-.9 9.8-.5 18.1 1 17.6.9 18.9 3.6 1.3 2.5 1.7 2.1 1.4-1.3-.1-.9.4-1.7 1.3-1.7s1.6.7 1.6 1.5.5 1.5 1.1 1.5c1.2 0 .3-3.7-1.4-5.8-.6-.8-1.1-3.9-1-7 .1-4.7.4-5.7 1.9-6 13-2 67.2-13.6 77.9-16.6 2.8-.8 8-2.3 11.8-3.4 3.9-1.1 7-1.6 7.3-1 .3.5 1.1.3 1.7-.6.7-.8 3.2-2 5.7-2.6 2.5-.7 8.7-2.5 13.9-4.2 8.6-2.7 9.6-2.9 10.6-1.4 1.8 2.3 3.5 2 3.5-.8 0-1.8.7-2.5 3-3l3-.6v-38.9c0-35.1-.5-43.4-2.4-38.6-.7 1.9-5.2 1.9-6 0-.8-2.3-2.6-1.8-8 2-2.7 1.9-5.2 3.2-5.7 3-.4-.3-1-.1-1.4.5-.3.5.1 1 1 1s1.3.4 1 1c-.3.5-1.7 1-3 1s-2.6.4-2.9.9c-.3.5-3.5 1.2-7.1 1.6-4.6.5-6.5 1.1-6.5 2.1 0 1.4-1.1 1.8-3.7 1.5-1.9-.3-1.6 1.6.5 2.8 1.5.9 1.5 1-.5 1.1-1.2 0-2.4.6-2.7 1.2-.3.7-.3.3-.1-.9.6-2.2-.9-4-2-2.4-.3.6-1.2.8-2 .4-.9-.3-1.5.1-1.5 1.1 0 .9.4 1.6.9 1.6 1.2 0 2.3 2.9 1.5 4.2-.4.5-1.5-.7-2.5-2.9-5.9-12.4-18.6-15.9-27.7-7.4-6.3 5.7-7.8 10.2-4.4 12.7 2.2 1.7 3.2 1.7 3.2 0 0-.8.5-2.7 1-4.2l1-2.6 2.3 3.3c2.1 3.1 2.7 3.4 6.6 3.1 2.9-.3 4.1 0 3.6.7-.3.6-1.3 1.1-2 1.1-.8 0-2.2 1.4-3 3-.9 1.7-2 2.8-2.6 2.5-.5-.4-.7-1-.4-1.5.3-.5 0-1.2-.7-1.6-.7-.4-1-.4-.6.1 1.3 1.3-6 4.5-10.4 4.6-3.3 0-3.8.2-2.3.9 2.1.9 1.5 1.1-3.5 1.4-2 .1-2.4.6-2.2 2.6.1 1.4.7 2.6 1.2 2.8.6.2 1 .8 1 1.2 0 .5 1.1 2 2.4 3.3 1.8 1.9 2.7 2.2 3.6 1.3.8-.7.8-.3-.1 1.1-1.3 2.1-2.9 2.2-2.9.2 0-.6-1.6-2.6-3.5-4.6-2-2.1-3.3-2.9-2.9-2 .3 1 .1 1.7-.5 1.7s-1.1-.5-1.1-1.1c0-.6-.7-.3-1.6.5-.8.9-2.4 1.6-3.5 1.6-1 0-1.9.4-1.9 1 0 .5-1.2 1-2.6 1-2.3 0-2.5.2-1.3 1.6 1.1 1.4.9 1.5-2.1 1.2-2.2-.2-3.5.2-3.8 1.1-.4 1.1.2 1.3 2.9.7 1.9-.4 5.9-1 8.9-1.3 7.1-.7 5.6 1.1-2 2.5-17 3.1-25.6 5.4-27.2 7.2-.9 1.1-2.1 2-2.7 2-.6 0-1.1.4-1.1.9s-.8 1.2-1.9 1.6c-1.3.4-1.7 1.2-1.3 3 .2 1.4 0 2.5-.5 2.5-1.5 0-4.6-12.1-4-16.2.4-3.2.2-3.8-1.4-3.8-1 0-1.9.7-1.9 1.5s-.8 1.5-1.7 1.5c-1.5 0-1.6.2-.3.9.8.6 1.9.7 2.5.3.5-.3.3.2-.5 1.2-1.9 2.4-5.8 3.9-9.5 3.7-3.8-.2-2.4 1.3 3 3.3 4.6 1.7 3.9 1.8-8.8 1.6-6.2-.1-7.8.2-8.3 1.5-.5 1.1-1 1.3-1.9.5-1.6-1.3-5.5.7-5.5 2.8 0 .7-.4 1-1 .7-.5-.3-1.2.4-1.4 1.7-1.4 6.8-1.7 7.8-2.5 7.8-.4 0-.4-2.1 0-4.8 4.9-28.3 5.7-36.4 1.7-17.7-3 14.1-3.3 15-5.5 15.1-2 .2-2.3-.2-1.8-2 .5-1.8.4-1.8-1 .4l-1.6 2.5.6-3.5c.3-1.9 2.1-12.2 4-22.8 1.8-10.7 3.6-19.6 4-20 .3-.3 1.8-.8 3.2-1 1.5-.2 7.2-1.5 12.7-2.9 5.6-1.3 11.5-2.4 13.3-2.4 1.7.1 3.7-.5 4.5-1.2.7-.8 1.9-1.2 2.6-.9.6.2 3.3-.3 5.9-1.1 2.7-.8 12.2-3.1 21.3-5.1 9.1-2 19.4-4.3 23-5.1 3.6-.9 10.1-2.2 14.5-3 4.4-.8 15.7-3 25-4.9 9.4-1.9 23-4.5 30.3-5.7 13.1-2.3 14.9-3.2 11.6-5.9-1.2-1.1-3.3-1-11.7.4-15 2.6-77.5 15.3-89.7 18.2-5.8 1.4-14.8 3.3-20.1 4.3-5.3 1-10.1 2.1-10.7 2.5-.8.5-1.2-.4-1.2-2.7v-3.4l-8.4-.7c-11.3-.8-11.6-.7-11.6 6.4 0 5.8 0 5.9-2.7 5.6-1.6-.1-3.2.1-3.8.5-1.6 1.1-7.5 2.1-7.5 1.2 0-.4 1.1-7.6 2.5-15.8 3.3-19.9 3.3-25.4-.1-29.4-1.4-1.7-4.2-3.5-6.2-4s-18.8-1.2-37.2-1.6l-33.5-.7-1.3 4.2c-1.5 4.8-1 5.9 1.5 3.9 1-.8 1.4-.9 1-.2-.6.9.4 1.2 3.3 1 2.9-.1 4.2-.6 4.6-1.9.6-2.2 1.3-2.2 10.1-.4 3.7.7 8.8 1.4 11.2 1.5 2.4 0 7.1.5 10.5 1.1 3.3.5 7.9 1 10 1 4.3 0 4.2 1.1-.1 1.5-18.5 1.7-21.9 2.3-20.6 3.5.4.4 3.2 1 6.1 1.3 4.4.5 5.5.3 7.2-1.5 1.5-1.7 2.6-2 5.6-1.5 4.1.7 5.5 2.1 5.2 5.2-.2 1.4-1.1 2-2.6 2-1.3 0-2.9.8-3.6 1.7-1 1.4-2.6 1.6-9.2 1.3-4.3-.2-9.2-.6-10.9-.9-1.6-.4-4.3-.7-6-.6-1.6 0-6-.8-9.7-1.9-3.6-1.1-6.9-1.7-7.2-1.3-.3.3-.6-.2-.6-1.1 0-1.3-.7-1.5-3.7-1-6.1.9-7 2.4-3.1 4.4 1.8 1 4 1.6 5 1.3.9-.3 1.9 0 2.3.6.3.5-.1 1-.9 1-1.9 0-2.2 2-.3 2 .6 0 4.6.5 8.7 1 4.1.6 14.9 1.2 24.1 1.5l16.7.6.6-2.6c.8-3.3 2.6-2.3 2.6 1.6 0 4.1 1.1 3.6 3.8-1.9 1.6-3.1 3.8-5.6 6.5-7.3 6.5-4 7.7-4.2 7.7-1.5 0 2-.7 2.5-3.7 3-6.7 1.2-7.2 1.6-7.8 5.4-.4 2-1.4 5.9-2.3 8.7-.9 2.7-1.6 6.4-1.7 8.2 0 1.8-.6 3.8-1.4 4.5-1.2 1.1-1.3 1-.7-.7.7-1.9.6-1.9-1-.3-1.7 1.6-1.7 1.8-.1 3.6 1.5 1.7 1.6 2.1.3 3.1-1 .8-1.6.9-2.1.1-.3-.5-.1-1 .4-1 .6 0 1.1-.5 1.1-1 0-1.9-1.9-1-2.6 1.2-.9 2.8-6.4 8.5-6.4 6.6 0-.8.4-1.8.9-2.4.5-.5 1.2-2 1.6-3.4 1-3.4-1-1.5-3.3 3.1-1 1.9-2.6 3.5-3.7 3.7-1.5.2-2.6 2-4.4 7-1.2 3.7-3.2 8.8-4.2 11.3-2 4.5-2 4.5-6.6 4.4-2.6 0-4.8-.6-5-1.2-.3-.7-1.1-.9-1.9-.6-.8.3-1.4-.1-1.4-1s-.5-1.9-1.2-2.3c-.8-.5-.9 0-.6 1.4.5 1.9.2 2.2-2.3 2.2-2.7 0-2.8-.2-2.5-3.3.2-1.7.4-4.7.5-6.5.1-3.4 3.1-4.8 3.1-1.5 0 1 .5 2.5 1.1 3.3.8 1.1.9.6.5-2.3-.5-3.6-.4-3.7 2.5-3.7 2.8 0 9.5-3.2 17.9-8.5 3.5-2.3 11.3-9.6 10.7-10.1-.2-.2-3.2.5-6.8 1.5-3.5 1.1-5.5 2-4.4 2.1 3 .3 5-.1 5.3-1.1.2-.5.9-.9 1.5-.9s-.2 1.3-1.8 3c-2.1 2.2-3.4 2.8-5.1 2.4-3.1-.8-9.3 1.4-12.1 4.2-1.3 1.3-3.2 2.4-4.1 2.4-1.3-.1-1.1-.5.8-1.6 2.4-1.5 2.3-1.5-2.5-1-2.7.3-6.8.9-8.9 1.2-3.6.6-3.9.5-3.2-1.1.7-1.8.6-1.8-1.2-.1-2.4 2.1-7.2 1.2-7.2-1.3 0-1.4-.2-1.4-1-.1-.5.8-1 2.5-1 3.8 0 2.3.2 2.3 7.3 1.8 3.9-.4 9-.9 11.2-1.2 6.1-.8 2.2 1.2-4.9 2.5-3.3.6-6.1 1.3-6.3 1.5-.3.2 1.4.7 3.7 1.1 4 .7 4.1.7 3.5 4.3-1.6 9.8-.8 8.9-8.8 9.4-4 .2-7.4 0-7.5-.4-.2-.5-1.1-.3-2 .4-.9.8-4.2 1.3-8.3 1.3-4.1 0-6.8.4-6.6 1 .2 1.1 1.3 1.3 10.5 1.4 3.9.1 6.1.5 5.7 1.1-.3.5-3.5 1-7.1 1-3.5 0-6.4.3-6.4.7 0 .5 5.7.6 12.6.4 13.4-.3 15.4.2 13.5 3.8-1.7 3.1-.1 2.5 3-1.2 2.2-2.6 3-3 4-2 1.1 1.1 1 1.3-.1 1.3-.8 0-2.5 1.2-3.8 2.7-3 3.5-5.1 3.7-5.8.7-.3-1.3-1-2.4-1.6-2.4-.5 0-.7.4-.4.9.5.8-4.1 2.3-10.4 3.5-1.4.3.5.3 4.3.2 6.5-.4 9.7.7 6 2.1-1 .3-3.1 1.7-4.6 3-1.6 1.3-3.6 2.3-4.5 2.2-1.4 0-1.3-.2.3-.9 1.4-.6.2-.9-4.3-.9-5.2-.1-6.5.3-8 2-3.3 4-4.4 4.9-5.3 4.4-1.4-1-1-3.7.7-5 1.5-1.1 1.5-1.4.1-3.6-.8-1.3-1.8-4.7-2.1-7.4-.3-2.8-1-6.9-1.5-9.3-.6-3.2-.5-4.2.5-4.2.7 0 1.6.4 1.9 1 1.3 2.2 3.1.7 5.3-4.3 2.6-6 2.8-8.1.6-5.2l-1.6 2 .5-2c.4-1.1.9-3.2 1.3-4.7.3-1.6 1-2.6 1.4-2.3.5.3 1.1.1 1.4-.4.3-.5-.4-1.1-1.5-1.4-1.8-.5-2-1.1-1.5-3.9.4-1.8.8-4.1.9-5 .1-.9.5-1.4 1-1.1.4.3.7 1.6.5 2.8-.6 4.6 1.7 2.4 3-2.7.7-2.9 2.6-10.4 4.3-16.6 1.7-6.3 2.9-11.6 2.6-11.8-.2-.3-1.2 2.2-2.1 5.5-.9 3.3-2.1 6.3-2.6 6.6-.6.4-1 1.5-1 2.6 0 2.3-2.8 6.9-4.2 6.9-1.6 0-3.6 2.5-4 5.1-.3 2.1-.7 1.9-4.5-3-3.6-4.5-4.1-5.7-3.6-8.4.4-1.8 1.2-3.8 2-4.5.7-.8 1-1.9.6-2.5-1.5-2.4 1.8-16.7 3.8-16.7.5 0 .9-.5.9-1 0-.6-.6-1-1.4-1-1.9 0-.9-4.4 1.6-6.7 1.1-1 4.2-2 7.1-2.3 6.1-.6 7.3-2.6 2-3.2-5.3-.6-10.5.7-12.5 3.2-2.3 2.8-4.3 10.2-6.4 23.5-1 6-1.9 11.2-2.1 11.4-.2.3-2.1-.6-4.3-1.8-2.5-1.4-4-1.8-4-1s-.4.9-1.3 0c-1.6-1.2-6-.6-6.6 1-.1.5-1.4 1.4-2.7 1.9-1.3.5-3.8 3.1-5.4 5.7-1.7 2.6-3 4.5-3 4.2 0-.3 1.5-8.1 3.4-17.4 5-24.6 5.1-25.6 2.9-28.4-2.3-2.8-10.3-4.3-10.3-1.8 0 .9.8 1.8 1.8 2 1.6.4 1.6.5 0 .6-1.1.1-1.8.9-1.8 2 0 1.4-.8 2.1-2.7 2.4-2.5.4-2.5.4.6.6 2.5.1 3.2.5 2.7 1.6-.5 1.5-.1 1.6 4.9 1.9 2.3.1 2.3-.3 0 9.6-2.4 10.6-4.5 17-5.6 17-.5 0-.9 1.2-.8 2.7l.1 2.8.9-2.5c.6-1.8.8-1 .5 3-.5 6.5-3.2 15.4-5.2 17.1-.8.6-1.4 2-1.4 2.9 0 2.9-1.1 5-2.6 5-.8 0-1.4.1-1.5.2-.6 3.1-.9 8.8-.5 8.8.3 0 1.4-1 2.5-2.1 1.1-1.2 2.6-1.9 3.5-1.6.9.4 2-.1 2.5-1.1 1-1.6 1-1.6 1.1 0 0 .9-1.1 3.4-2.5 5.4-1.4 2.1-2.8 4.9-3.2 6.3-.3 1.4-.9 3-1.3 3.6-.5.5-1.4 3-2 5.5-1.7 6.2-2.6 3.5-3.3-10.2-.6-11.4-1.5-14.7-2.9-10.9-.5 1.5-1.2 2-2 1.4-.7-.4-2-.8-2.8-.8-2 0-2.7-4.5-.7-4.5.9 0 1.8.6 2 1.2.3.8.6.5.6-.5.1-1.3.7-1.7 2.4-1.5 2 .3 2.3-.3 3.1-5.9.5-3.4.5-7 .1-8s-.7-2.8-.6-4.1c.3-3.1-.8-2.7-2 .7-.8 2.2-1.8 3.1-4.4 3.5-1.9.4-3.9 1.4-4.4 2.3-.7 1.3-1.1.2-1.6-4.2-.9-7.5-2.4-10.5-2.6-5.5-.1 1.9-.1 4.2-.1 5 .1.8-.3 3.3-.9 5.5-.8 3-1.8 4.4-4 5.4-1.6.7-2.9 1.9-2.9 2.7 0 .8-2.2 3.7-4.9 6.4s-5.2 5.7-5.5 6.7c-.3 1-2.2 3.6-4.2 5.8l-3.6 4 .7-5c.3-2.8 1.1-5.5 1.6-6 .7-.7.9-.5.5.5-1.2 4.1-1.5 7-.7 7 .6 0 1.3-1.7 1.6-3.8.3-2 .8-4.7 1.1-6 .5-2.6-1.2-3-2-.5-.9 2.9.1-3 4-24.2 2.1-11 4.3-20.5 4.9-21 .7-.6 1-2.4.7-4.3-.8-5.9 1.8-18.1 4.7-21.5l2.5-3 13.8.6c11.2.5 13.8.4 13.8-.7 0-2.8-23.3-3.6-28.7-1zm171.3 6c1.9.9 3.4 2 3.4 2.5 0 1.2-.2 1.2-3.6-.5-1.8-.9-6.5-1.6-12.1-1.7-12.9-.4-14.1-1.9-1.5-1.9 7.5 0 11.3.4 13.8 1.6zm3.9 18.5c-.1 1.8-.9 3.6-2 4.1-.9.6-2.6 1.9-3.6 2.9-3.1 3.1-1.9-.2 2.5-6.8 2.6-4.1 3.3-4.1 3.1-.2zm134.2 2.5c-.3.3-1.2.4-1.9.1-.8-.3-.5-.6.6-.6 1.1-.1 1.7.2 1.3.5zm38.7 7.5c-.7 1.2-4.4 1.2-4.4 0 0-.5.6-1.1 1.3-1.4 1.7-.6 3.8.3 3.1 1.4zm-284.3 4.6c1.3 1.6 1.2 1.7-.3.4-1.7-1.3-2.2-2.1-1.4-2.1.2 0 1 .8 1.7 1.7zm-13.1 1.2c0 .5-.7 1.1-1.5 1.5-1.5.5-2-.5-.8-1.7.9-1 2.3-.9 2.3.2zm239.3 4.8c-.7.2-1.9.2-2.5 0-.7-.3-.2-.5 1.2-.5s1.9.2 1.3.5zm-9.3.7c0 .2-.7.6-1.5 1-.8.3-1.5.1-1.5-.4 0-.6.7-1 1.5-1s1.5.2 1.5.4zm-109.6 6.3c-.4 2.1-1.6 5.1-2.7 6.7-1.6 2.3-1.8 3.2-.9 4.7 2.6 4.1.6 6.8-2.1 2.9-.8-1.1-1.6-1.8-1.9-1.5-.3.3.1-2.5 1-6.2.9-4.5 2.2-7.4 3.6-8.5 3.1-2.6 3.8-2.2 3 1.9zm-6.4.7c0 .3-.4.8-1 1.1-.5.3-1 .1-1-.4 0-.6.5-1.1 1-1.1.6 0 1 .2 1 .4zm-90.8 4.6c.6 0 .5.7-.3 1.6-1.2 1.5-1.4 1.4-2-.7-.3-1.3-.3-3.1 0-3.9.4-1.1.7-.9.9.7.2 1.3.8 2.3 1.4 2.3zm102.5-1.8c-.3.8-.6.5-.6-.6-.1-1.1.2-1.7.5-1.3.3.3.4 1.2.1 1.9zM275.3 319c.3 1.1.1 2-.4 2s-.9-.9-.9-2 .2-2 .4-2 .6.9.9 2zm44.2 6.1c-3.8 5.4-4.2 4.9-.8-1.1 1.5-2.7 3-4.5 3.2-3.9.1.5-.9 2.8-2.4 5zm89.5-5.2c0 .5-.6 1.4-1.4 2-1.2 1-1.3.8-.9-.8.5-2.1 2.3-3 2.3-1.2zm13.7 6.6c-.9.6-1.9 2.3-2.2 3.8-.4 1.5-1.3 2.7-2 2.7-.8 0-1.5 1.2-1.7 2.7-.2 2-.8 2.7-2 2.5-2-.3-2.4 1.4-.5 2.1.6.3.2.4-1 .4-1.3-.1-2.3-.3-2.3-.5 0-1.7 4.7-9.9 7.5-12.9 1.9-2.1 3.5-4.3 3.5-4.8 0-.6.6-.1 1.2.9.8 1.5.7 2.2-.5 3.1zm-89-.3c-.3.7-.5.2-.5-1.2s.2-1.9.5-1.3c.2.7.2 1.9 0 2.5zm-65.7.9c0 .5-.4.9-1 .9-.5 0-1-.7-1-1.6 0-.8.5-1.2 1-.9.6.3 1 1 1 1.6zm279-.5c0 .8-.5 1.2-1 .9-.6-.4-.8-1.1-.5-1.6.9-1.4 1.5-1.1 1.5.7zm-10.3.5c.8.8 2 .9 4.2.1 2.5-.9 3.1-.8 3.1.2 0 2.2-5.5 2.5-8.2.4-1.3-.9-1.8-1.8-1.2-1.8.5 0 1.5.5 2.1 1.1zm-134.8 6.8c-.6 1.8-1.4 3-1.7 2.7-.2-.3.1-1.9.8-3.6.7-1.7 1.4-2.9 1.6-2.7.2.2-.1 1.8-.7 3.6zm-98.3-.1c-1.8 1.6-1.8 1.6-.6-.6.6-1.3 1.4-2.1 1.8-1.8.3.4-.2 1.4-1.2 2.4zm5 2.7c-2.7 4.1-3.8 2.8-1.4-1.5 1.5-2.5 2.4-3.4 2.6-2.4.2.8-.4 2.6-1.2 3.9zm117.5 2.8c-1.8 3.8-3.2 8.6-4.5 15.7-.3 1.4-.3-.2-.1-3.5.3-5.8 5.4-20.2 6.3-17.6.2.6-.5 3-1.7 5.4zM534 334c0 .5-.2 1-.4 1-.3 0-.8-.5-1.1-1-.3-.6-.1-1 .4-1 .6 0 1.1.4 1.1 1zm4.6 6c-1.4 2.2-2.9 4-3.2 4-.4 0 0-1 .8-2.3.8-1.2 2-3.3 2.7-4.5.7-1.3 1.5-2.1 1.8-1.8.3.3-.6 2.4-2.1 4.6zm6.4-3.6c-.7.7-1.4.6-2.1-.1-.9-.9-.7-1.2.9-1 1.4.1 1.8.5 1.2 1.1zm-241 1.5c-.5 1.1-1.5 2.3-2.2 2.7-.7.5-.8.2-.3-.7 2.1-3.7 4.4-5.5 2.5-2zm218.7 1.3c-.3.8-.6.5-.6-.6-.1-1.1.2-1.7.5-1.3.3.3.4 1.2.1 1.9zm-224.8 4.4c-1 1.3-1 1.7 0 2.4.9.5 1 .9.2 1.4-.6.4-.9 1-.7 1.4.2.4-1.6 1.9-4 3.4s-4.4 2.4-4.4 2c0-.4 1.5-2.8 3.4-5.5 1.8-2.6 4-6.2 4.7-8 1.3-2.9 1.4-3 1.7-.9.2 1.3-.2 3-.9 3.8zm95.1-.6c0 .5-1 1-2.2 1-1.9 0-2-.2-.8-1 1.9-1.3 3-1.3 3 0zm-58.4 7.7c-.2.3-1.3 0-2.4-.6-1.2-.6-3.8-1.1-5.9-1.2-2.1 0-3.1-.3-2.3-.6.8-.4 2.1-1.4 2.7-2.4.8-1 2.1-1.5 3.3-1.2 1.3.3 2 0 2.1-.8 0-.8.7.4 1.5 2.5.8 2.2 1.2 4.1 1 4.3zm30.1-7.1c-.3.3-1.2.4-1.9.1-.8-.3-.5-.6.6-.6 1.1-.1 1.7.2 1.3.5zm6.3.4c0 .5-.2 1-.4 1-.3 0-.8-.5-1.1-1-.3-.6-.1-1 .4-1 .6 0 1.1.4 1.1 1zm15 .2c0 1.5-1.8 1.7-3.6.3s-1.7-1.4.9-1.3c1.5.1 2.7.6 2.7 1zm26.6.2c.3.8-.3 2.9-1.3 4.8l-1.8 3.3-.3-3.3c-.2-1.9-.1-4 .2-4.8.7-1.8 2.5-1.8 3.2 0zm136.6 1.8c-.8.8-.9.4-.5-1.3.4-1.3.8-1.8 1.1-1 .2.7-.1 1.8-.6 2.3zm-123.9 3c-.3 1.8-1 3.7-1.5 4.3-.7.7-.8.1-.3-1.5.3-1.4.9-3.3 1.1-4.3.9-2.9 1.4-1.9.7 1.5zm115.8-.9c-1 .9-1.1.8-.5-.6.3-1 .9-1.5 1.2-1.2.3.3 0 1.1-.7 1.8zm-297.8.2c.4.8.2 1.7-.3 2-.6.4-1-.3-1-1.4 0-2.5.6-2.7 1.3-.6zM389 348c0 .5 1.2 1 2.7 1 1.9 0 2.4.3 1.7 1s-1.9.8-3.7.1c-2.6-1-3.7-3.1-1.7-3.1.6 0 1 .4 1 1zm-132 3.6c0 1.4-.5 2.4-1.1 2.2-.6-.2-1-.7-1-1.1.1-.4.1-1.4.1-2.2 0-.8.5-1.5 1-1.5.6 0 1 1.2 1 2.6zm25.7 1c-.7.7-3.7-.7-3.7-1.7 0-.6.9-.5 2.1.1 1.1.7 1.9 1.4 1.6 1.6zM531 352c0 .5-.2 1-.4 1-.3 0-.8-.5-1.1-1-.3-.6-.1-1 .4-1 .6 0 1.1.4 1.1 1zm-4.3 2.2c-.3.8-.6.5-.6-.6-.1-1.1.2-1.7.5-1.3.3.3.4 1.2.1 1.9zM377 355c0 .5-.5 1-1.1 1-.5 0-.7-.5-.4-1 .3-.6.8-1 1.1-1 .2 0 .4.4.4 1zm3 2c0 .5-.4 1-1 1-.5 0-1-.5-1-1 0-.6.5-1 1-1 .6 0 1 .4 1 1zm4.2 2.5c-.3 1.8-1.1 2.5-2.8 2.5-3.2 0-3-1.6.4-3.4 1.5-.8 2.8-1.5 2.8-1.6.1 0-.1 1.1-.4 2.5zm-10.2 0c.8.9.9 1.5.2 1.5-.6 0-1.4-.5-1.7-1-.9-1.5-4.2-1.2-5.9.6-.9.8-1.6 1.2-1.6.7 0-3.2 6.8-4.5 9-1.8zm-21 1.5c0 .5-1.3 1-2.9 1-1.6 0-3.6.3-4.5.6-.9.3-1.6.1-1.6-.4 0-1.2 2.2-1.9 6.3-2.1 1.5 0 2.7.3 2.7.9zm69 1.3c0 .7-.7 2.2-1.5 3.3-1.2 1.6-1.4 1.7-1.5.2 0-2.3 1.1-4.8 2.1-4.8.5 0 .9.6.9 1.3zm-26.5.7c.3.5.1 1-.4 1-.6 0-1.1-.5-1.1-1 0-.6.2-1 .4-1 .3 0 .8.4 1.1 1zm55 .4c3.6.5 2.4 1.6-1.8 1.6-5.1 0-7.7-.7-7.7-2.2 0-.6 1.6-.7 4-.3 2.2.4 4.7.8 5.5.9zM270 364.7c.2.2-2.8.3-6.8.1-3.9-.1-6.6-.5-5.9-1 1.1-.7 11.7 0 12.7.9zm161-.7c0 .5-.4 1-1 1-.5 0-1-.5-1-1 0-.6.5-1 1-1 .6 0 1 .4 1 1zm2.9.2c0 .7-.7 2.9-1.4 4.8-1.2 3.1-1.4 3.2-1.4 1-.1-3.4.9-7 2-7 .5 0 .9.6.8 1.2zm21.6-.2c.3.5.1 1-.4 1-.6 0-1.1-.5-1.1-1 0-.6.2-1 .4-1 .3 0 .8.4 1.1 1zm-221.2 4.9c-.5 4.6-.3 5.2 2.6 8.2l3.2 3.1 9.9-.4c5.5-.2 10 0 10 .4s-.8.8-1.7.8c-10.4.3-17.1.1-18.3-.4-.8-.3-2.8-.4-4.5-.3-1.6.2-3.6-.3-4.4-1.1-1.1-1.1-1.5-1.1-2.2 0-1.8 2.8-2.9-.8-2.2-7.4.6-6.6.6-6.7 3.7-7.1 1.7-.2 3.4-.5 3.8-.5.4-.1.4 2 .1 4.7zm193-.1c-.7.7-1.3 1.8-1.3 2.3 0 .5-.4.9-1 .9-1.5 0-1.2-1.6.5-3.4.8-.8 1.5-2.3 1.6-3.3 0-1.6.1-1.6.8.2.5 1.2.3 2.5-.6 3.3zM225 370c-.6 1.9-1 4.7-1 6.2 0 1.6-.4 2.8-1 2.8-.5 0-1 1-1 2.2 0 1.2-.2 1.9-.5 1.6-.6-.6 1.4-15.8 2.2-17.1 1.3-2.1 2.2 1.1 1.3 4.3zm217.4-2.4c-.8 9.6-2.6 12.4-2.3 3.6.1-4.1.6-6.1 1.3-5.9.6.2 1 1.3 1 2.3zm-221 .6c-.4 1.3-1.3 5-1.9 8.3-.7 3.3-1.3 4.9-1.4 3.5-.1-2.2-.3-2.3-1.2-.7-.7 1.2-1.5 1.5-2.2.9-.7-.5-4.8-.9-9.2-1-4.4-.1-10.1-.4-12.6-.7-2.9-.4-4.9-.3-5.4.4-.3.6 0 1.1.7 1.2.7.1-.3.5-2.2.9-3.9.9-6.4.1-3.4-1.1 1-.4-.8-.5-4.1-.2s-6.6 1-7.2 1.5c-.9.7-1.5.5-1.9-.6-.5-1.2-1.6-1.5-4-1.2-1.9.2-3.7.6-4.1 1-.3.3-1.2.1-1.9-.4-.6-.6-3.5-1.3-6.3-1.7-4.4-.5-5.1-.3-5.1 1.1 0 1.3-.7 1.7-2.7 1.6-6.6-.5-12.4 0-11.8 1 .3.5-.1 1-.9 1-.9 0-1.6-.5-1.6-1 0-.6-.9-1-2.1-1-1.3 0-1.8.4-1.3 1.2.5.8.2.9-.9.5-1.2-.4-1.7-.1-1.7 1.1 0 1.2-.8.8-3-1.6-1.6-1.8-3.1-4-3.1-4.8-.1-.8-.2-2-.3-2.6-.1-1 7.7-1.7 31.4-3.1 17.3-.9 39.6-2.5 49.5-3.6 24.7-2.5 22.8-2.5 21.9.1zm263.1.8c-.3.5-2.6.8-5.3.8-4.3 0-4.5-.1-2.4-1.2 2.4-1.3 8.5-1 7.7.4zm-99.1-.4c.9.3 1.6 1 1.6 1.5 0 1.4-4.8 1.1-5.3-.4-.4-.8-.8-.9-1.4-.1-.4.5-3 1.1-5.8 1.2-4.6.1-4.8 0-3.1-1.3 2-1.5 11-2.1 14-.9zm-46.4 3.2c-2.5.4-3.5-.2-2.6-1.7.5-.7 1.3-.7 2.7.2 2 1.2 2 1.2-.1 1.5zm-69 1.8c2.4 1.2 2.2 1.3-3.2 1.5-3.2.2-7.2.3-8.8.4-1.7.1-3.3-.2-3.6-.7-.3-.4-2.5-.8-4.9-.8-4.7 0-7.5-.7-7.5-2 0-1.4 25.2.1 28 1.6zm166-1.6c0 .5-.2 1-.4 1-.3 0-.8-.5-1.1-1-.3-.6-.1-1 .4-1 .6 0 1.1.4 1.1 1zm-319.2 5l.1 3.1-2-2.3c-2-2.3-2-2.3-1.4-.1.5 1.8.2 2-1.5 1.6-1.5-.4-1.8-.9-1-1.8 1.4-1.7-3.7-3-5.6-1.4-1.1.9-1.4.8-1.4-.4 0-1.2 1.3-1.7 5.8-1.9 3.1-.2 6-.2 6.3-.1.3.1.6 1.6.7 3.3zm161.2-3c0 .5-.7 1-1.6 1-.8 0-1.2-.5-.9-1 .3-.6 1-1 1.6-1 .5 0 .9.4.9 1zm-196.9 1c.5 0 .8.3.8.7-.4 2.7.3 4.5 1.5 4 .9-.4 1.4 0 1.4 1.1-.1.9.2 2.8.6 4.2.6 2.3.6 2.3-.5.5-.7-1.1-2.8-4.2-4.7-6.9-2.3-3.3-2.9-4.7-1.7-4.3.9.4 2.1.7 2.6.7zm18.1.4c1.3 1.9-.3 2.6-5.8 2.6-3.4 0-5.4-.4-5.4-1.2 0-.6-.2-.9-.5-.6-.3.3-.3 1.3.1 2.2.5 1.3 1.4 1.5 3.4 1.1 1.6-.3 3.1-.1 3.5.4.4.7-.4 1.1-1.9 1.1-2.3 0-3.1.9-2.7 3.2 0 .4-.6.5-1.4.2-.8-.4-1.2-1-.9-1.5.3-.5-.8-2.2-2.4-3.7-1.6-1.5-2.7-3.2-2.5-3.8.5-1.4 15.5-1.4 16.5 0zm3.8 0c0 .8-.4 1.8-1 2.1-.5.3-1-.3-1-1.4 0-1.2.5-2.1 1-2.1.6 0 1 .6 1 1.4zm186 1.6c0 1.8-4.4 3.3-9.1 3.1-2.5-.1-5.9.6-7.5 1.4-3.4 1.7-4.4 1.9-4.4.6 0-.5 1-1.2 2.3-1.5 1.2-.2-.2-.3-3-.2-2.9.2-5.3-.1-5.3-.5 0-.5 4.8-.9 10.8-.9 7.2 0 11.5-.5 13.2-1.4 1.4-.8 2.6-1.4 2.8-1.5.1-.1.2.3.2.9zm79-.2c0 .8-6.7 1.2-24.2 1.5-10.9.2-11.7-1.1-1-1.5 20.2-.8 25.2-.8 25.2 0zm11.3-.1c-1.8.2-4.8.2-6.5 0-1.8-.2-.4-.4 3.2-.4s5 .2 3.3.4zm-56.3 2.4c0 .6-.7 1.2-1.5 1.5-.8.4-1.3 1-1 1.5.3.4-.3 1.3-1.4 1.8-2.3 1.3-4.4-.7-3.9-3.6.5-2.8 7.8-3.9 7.8-1.2zm89-.2c0 1.9-.6 2.1-6.5 2.1-3.6 0-6.5.3-6.5.7 0 .5 3 .8 6.7.8 6.1 0 6.8.2 6.8 2s-.8 2-9.2 2.3c-7.7.2-9.3 0-9.3-1.2 0-.8.5-1.8 1.1-2.2.8-.4.8-.9 0-1.7-1.6-1.6-1.3-3.5.7-3.9.9-.3 5-.5 9-.7 6.7-.2 7.2-.1 7.2 1.8zm-100.5 0c-1.1.5-2.7.6-3.5.4-1.1-.3-1-.1.3 1 2.4 2 2.1 3-.8 2.3-1.8-.5-3-.1-4.1 1.3-1 1.1-2.2 1.7-2.9 1.5-.7-.3-1.5.2-1.8 1-.5 1.2.1 1.6 2.6 1.7 1.8.1 3.5.1 4 0 .4 0 .7.4.7 1 0 .7-1 .9-2.5.5-2.3-.6-2.4-.5-1.3 1.3 2 3.3 13.2 4.6 15 1.8.6-.9.8-.9.8 0 0 .7 1 1.3 2.3 1.4 1.2.1.2.5-2.3 1.1-5.1 1-20.9.1-22.7-1.4-.6-.5-1.4-2.7-1.8-4.9-.6-3.4-.3-4.2 1.7-5.9 1.2-1.1 2.8-1.9 3.3-1.9.6 0 0 .8-1.2 1.8-3 2.5-2.9 3.6 0 1.6 1.3-.8 2.6-1.2 3-.9.3.4.4-.5.1-2-.5-3 1.2-3.5 3.3-.9 1.3 1.7 1.4 1.6.8-.5-.6-2.1-.3-2.2 4.2-2.1 3.4 0 4.2.3 2.8.8zm-20.9 3.7c-.4 1.2-1 1.4-1.7.7-.5-.5-.7-1.7-.3-2.7.4-1.2 1-1.4 1.7-.7.5.5.7 1.7.3 2.7zM418 380c0 .5-.4 1-1 1-.5 0-1-.5-1-1 0-.6.5-1 1-1 .6 0 1 .4 1 1zm-298.6 2.6c.3.8.2 1.2-.4.9-.6-.3-1-1-1-1.6 0-1.4.7-1.1 1.4.7zm119.1-.6c.3.5.1 1-.4 1-.6 0-1.1-.5-1.1-1 0-.6.2-1 .4-1 .3 0 .8.4 1.1 1zm95.5 4.1c0 .6-.4.7-1 .4-.5-.3-1-1.1-1-1.6 0-.6.5-.7 1-.4.6.3 1 1.1 1 1.6zm-205.3-.5c-.3.3-1.2.4-1.9.1-.8-.3-.5-.6.6-.6 1.1-.1 1.7.2 1.3.5zm205.3 4.9c-.7.8-1.6 1.5-2.1 1.5s-.1-.9.8-2 1.9-1.7 2.1-1.5c.3.3-.1 1.1-.8 2zm-41.5 2.7c.4 1.8.7 3.6.6 4 0 .4-.3 2.2-.5 4-1.2 8.4-1.7 9.8-3.7 8.8-1-.6-2.9-1-4.3-1-2.2 0-2.6.4-2.6 3 0 2.7.3 3 3 3 2.1 0 3-.5 3-1.6 0-.8.5-1.2 1-.9.8.5.8 1.1 0 2-.6.7-1.5 6.4-2.1 12.6-.5 6.2-1.1 11.4-1.2 11.6-.2.1-8.7.3-19 .4-10.3 0-19 .5-19.3 1-.3.5 8 .9 19.5.9 13.6 0 20.1.3 20.1 1.1 0 .7-6.9.9-22.3.7-27.8-.4-27.1-.1-27.5-11.6-.3-7.4-.2-8.1 1.8-9.2 1.5-.8 1.8-1.5 1.1-2.3-.6-.8-.5-1.8.3-3 1.2-1.5 3.3-1.7 19-1.7h17.7l-1.8-3-1.8-3.1-17.8.3c-17.3.3-17.8.2-17.5-1.7.3-1.9.9-2 15.3-1.6 8.3.2 16 .7 17.3 1.2 3.1 1.2 14.4 1.1 17.6-.1 2.5-.9 2.5-1 1.9-9-.4-5.2-.2-8 .4-8 .6 0 1.4 1.5 1.8 3.2zm34.2.4c-.3.3-1.2.4-1.9.1-.8-.3-.5-.6.6-.6 1.1-.1 1.7.2 1.3.5zM208 407.2c-3.6 2.9-6.9 3.3-8.5 1.2-.8-1.1-1.5-2.2-1.5-2.5 0-.3 2.8-.6 6.2-.6 6.1 0 6.1 0 3.8 1.9zm26 1.8c0 4.4-1.4 5.3-2.5 1.7-.4-1.3-.8-1.7-1.2-1-.6 1.6-2.3 1.7-2.3.1 0-1.6 3.1-4.8 4.7-4.8.9 0 1.3 1.3 1.3 4zm207.7 1c-.9 2.4-1.3 2.7-1.8 1.4-.5-1.6-2.6-1.7-20-1.7l-19.4.1 17.5-1.3c9.6-.7 18.9-1.5 20.5-1.7 4.2-.5 4.5-.2 3.2 3.2zm13.4-2.3l3.4 1.8-5.4.3c-5.9.3-6.6 0-5.8-2.3.8-2 3.6-1.9 7.8.2zm21.6.8c0 .8-.4 1.2-.9.9-.5-.3-.6-1-.3-1.5.9-1.3 1.2-1.1 1.2.6zm-103 1.1c-.3.3-1.2.4-1.9.1-.8-.3-.5-.6.6-.6 1.1-.1 1.7.2 1.3.5zm10.8.4c.3.5.1 1-.4 1-.6 0-1.1-.5-1.1-1 0-.6.2-1 .4-1 .3 0 .8.4 1.1 1zm89 5c.3.5.2 1-.4 1-.5 0-1.3-.5-1.6-1-.3-.6-.2-1 .4-1 .5 0 1.3.4 1.6 1zM350 417c2.3 0 5.1 3.8 9.1 12.4 3.7 7.9 5 9.2 7.8 7.6 2.6-1.3 2.6-2.2.1-4.5-1.1-1-1.7-2.2-1.4-2.7.4-.5 2 .7 3.6 2.7 3.9 4.6 4.7 3.9 1.3-1.1-1.7-2.4-2.4-4.6-2.1-6 .4-1.3 0-2.7-.9-3.4-.7-.6-1.1-1.8-.8-2.6.3-.8 0-2.1-.7-2.9-1.1-1.3-.5-1.5 3.9-1.5 4.8 0 5.2.2 7.5 3.9 1.4 2.2 2.9 4.2 3.5 4.5 1.6 1.1 0-3.2-2-5-1-.9-1.9-2-1.9-2.3 0-.7 57.8-.3 59.9.5 1.1.4 1 .7-.5 1.8-1.5 1.2-1.6 1.6-.5 3 1 1.2 1.1 2.3.2 4.7-.6 1.8-1.1 4.2-1.1 5.5 0 1.2-.4 2.4-.8 2.6-.4.1-1.5 2.1-2.3 4.3-.8 2.2-2.1 4.1-2.9 4.1-.8.1-1.9.3-2.5.4-.5.1-1.3.2-1.7.1-.4 0-11.3-.1-24.3-.2-13.9 0-23.3-.4-22.9-1 .3-.5 10.5-.9 23-.9 14.3 0 22.4-.4 22.4-1s-4.9-1-12.7-1c-10.4 0-13-.3-14.5-1.7-1.7-1.5-1.8-1.5-1.8.1 0 1.4-1.1 1.7-7.5 1.5-4.9-.1-7.9-.6-8.6-1.5-1.4-1.7-3.6-1.8-4.1-.3-.2.7-4.1 1.4-10 1.7-8.9.4-9.6.3-11-1.7-1.5-2.2-1.5-2.2-2.1-.1-1.1 4.2-2.4 1.7-3.1-5.7-.7-8.7-.7-17.4.1-15.6.2.7 1.3 1.3 2.3 1.3zm5-.9c0 .7 1.1.9 3.1.5 2.5-.5 3-.3 2.7 1.1-.2.9-1.1 2.1-2.1 2.7-1.4.9-2 .7-2.8-.6-.5-.9-1.6-2.4-2.5-3.3-1.4-1.3-1.4-1.5 0-1.5.9 0 1.6.5 1.6 1.1zm8.4 15.4c.3.8 1.1 1.4 1.8 1.3.6-.2 1.4.5 1.6 1.4.2 1-.1 1.8-.7 1.8-1.2 0-5.1-4-5.1-5.2 0-1.4 1.8-.9 2.4.7zM318 438c0 .5-.4 1-1 1-.5 0-1-.5-1-1 0-.6.5-1 1-1 .6 0 1 .4 1 1zm49.9 4.1c-1.6 1.1-19.9.9-19.9-.2 0-1.2 2.6-1.4 12.3-1.1 6.1.2 8.6.7 7.6 1.3zm-48.4-.1c-.3.5-1.3 1-2.1 1s-1.4-.5-1.4-1c0-.6.9-1 2.1-1 1.1 0 1.7.4 1.4 1zm54.8-.3c-.7.2-1.9.2-2.5 0-.7-.3-.2-.5 1.2-.5s1.9.2 1.3.5zm134.5 0c-1.6.2-4 .2-5.5 0-1.6-.2-.3-.4 2.7-.4s4.3.2 2.8.4zm-48.1 2.9c-.3.3-1.2.4-1.9.1-.8-.3-.5-.6.6-.6 1.1-.1 1.7.2 1.3.5zm4 0c-.3.3-1.2.4-1.9.1-.8-.3-.5-.6.6-.6 1.1-.1 1.7.2 1.3.5zm5 0c-.3.3-1.2.4-1.9.1-.8-.3-.5-.6.6-.6 1.1-.1 1.7.2 1.3.5zm51.6.1c-.7.2-2.1.2-3 0-1-.3-.4-.5 1.2-.5 1.7 0 2.4.2 1.8.5zm6.4-.1c-.3.3-1.2.4-1.9.1-.8-.3-.5-.6.6-.6 1.1-.1 1.7.2 1.3.5zm-206.3 3c1.5 3.8.7 5-2.9 4.6-3.1-.4-3.5-.8-3.5-3.3s.4-2.9 2.9-2.9c1.7 0 3.1.6 3.5 1.6zm246.9 5.1c-.7.2-1.9.2-2.5 0-.7-.3-.2-.5 1.2-.5s1.9.2 1.3.5zm15.7 1.9l2.5 1.5-2.5-.7c-1.4-.3-3.2-1-4-1.5-1.3-.7-1.3-.8 0-.8.8 0 2.6.6 4 1.5zM204.5 457c.3.5.1 1-.4 1-.6 0-1.1-.5-1.1-1 0-.6.2-1 .4-1 .3 0 .8.4 1.1 1zm6.2-.4c-.3.3-1.2.4-1.9.1-.8-.3-.5-.6.6-.6 1.1-.1 1.7.2 1.3.5zm5 0c-.3.3-1.2.4-1.9.1-.8-.3-.5-.6.6-.6 1.1-.1 1.7.2 1.3.5zM291 459c0 .5-.7.7-1.5.4-.8-.4-1.2-1-.9-1.5.6-1.1 2.4-.2 2.4 1.1zm-121.5 1c.3.5.1 1-.4 1-.6 0-1.1-.5-1.1-1 0-.6.2-1 .4-1 .3 0 .8.4 1.1 1zm12.3-.3c-1 .2-2.8.2-4 0-1.3-.2-.5-.4 1.7-.4 2.2-.1 3.2.1 2.3.4zm24.9 1.5c-.3.8-.6.5-.6-.6-.1-1.1.2-1.7.5-1.3.3.3.4 1.2.1 1.9zm325 1.8c2.9 2.3 5.3 4.6 5.3 5.2 0 .9-.3.9-1.2 0-.7-.7-3-1.2-5.2-1.2-3.7 0-3.8.1-2 1.4 1 .8 2.9 1.2 4.2.9 1.2-.3 2.2-.1 2.2.6 0 .6-.8.8-1.7.4-1.6-.6-1.6-.4-.5.9 1.1 1.4 1 1.8-.8 2.8-2.2 1.2-5-.1-5-2.3 0-.5.9-.2 2 .8 1.2 1.1 2 1.3 2 .6 0-1.5-6-5.1-8.6-5.1-1.1 0-2.9-.9-3.8-1.9-1-1.1-3.4-2.8-5.4-3.8l-3.7-1.8 4.5-.6c10.5-1.4 12-1.1 17.7 3.1zM137 464.4c0 .3-.4.8-1 1.1-.5.3-1 .1-1-.4 0-.6.5-1.1 1-1.1.6 0 1 .2 1 .4zm-8 3.6c0 .5-.2 1-.4 1-.3 0-.8-.5-1.1-1-.3-.6-.1-1 .4-1 .6 0 1.1.4 1.1 1zm444 .9c4.5.8 4.5.9 1 1.2-1.9.1-4.4.2-5.5.1-1.1-.1-5.6-.3-10-.4-6.9-.1-7.4-.2-3.5-.8 6.3-1 12.8-1 18-.1zm-136.5 2.2c-4.2.8-8.6.2-6.7-1 .6-.3 3.2-.4 5.9-.2l4.8.5-4 .7zm42-1.1c-.7 1.1-36.5 1.3-36.5.2 0-.4 8.3-.8 18.5-.9 11.4-.1 18.3.2 18 .7zm68.9 0c-.6.6-2.1.6-3.9.1-3-.9-3-.9 1-1 2.5-.1 3.6.2 2.9.9zm-256.8 1.1c.2.4 1.2.5 2.2.2.9-.3 1.4-.2.9.2-.7.9-3.6 1-35.7 1.9-10.2.3-27.6.8-38.7 1.1-11.1.4-20.8.3-21.5-.1-2.7-1.8 9.4-2.5 47.6-3 21.5-.2 39.1-.6 39.3-.8.7-.7 5.4-.3 5.9.5zm71.4.1c0 .5-3.6.8-8 .8s-8-.4-8-.8 3.6-.8 8-.8c4.4.1 8 .4 8 .8zm47.5-.2l2 .9h-2c-1.1 0-2.7-.4-3.5-.9-1.3-.9-1.3-1 0-.9.8 0 2.4.4 3.5.9zm5.5-.6c0 .2-.7.7-1.6 1-.8.3-1.2.2-.9-.4.6-1 2.5-1.4 2.5-.6zm12.6.4c-.5.8-10.6.5-11.5-.3-.2-.3 2.4-.5 5.8-.5s6 .4 5.7.8zM320.5 472c.3.5-.1 1-1 1s-1.3-.5-1-1c.3-.6.8-1 1-1 .2 0 .7.4 1 1zm62.8-.3c-1.3.2-3.5.2-5 0-1.6-.2-.5-.4 2.2-.4 2.8 0 4 .2 2.8.4zm156.2.7c1.8-.4 2.3-.2 2.2 1.3-.2 1.4.4 1.8 2.8 1.6 3.1-.3 11 4.3 10.7 6.2-.1.5-3.9 1.1-8.4 1.2-8.2.3-8.4.2-12.2-3.2-2.5-2.2-3.4-3.5-2.3-3.5.8 0 2.2.7 3.1 1.5 1.6 1.7 3.6 2 3.6.6 0-.5-1.1-1.2-2.5-1.5-3.4-.9-3.2-2.8.3-2.1 2.5.5 2.6.5.4-.5-1.5-.6-2-1.4-1.6-2.2.6-.9.9-.9 1.2 0 .2.7 1.3 1 2.7.6zM295 496.6v7.4h-22.5c-18.5 0-22.5-.2-22.5-1.4 0-.8 3.1-2.4 8.3-4 4.5-1.4 10.7-4.1 13.7-6 5.1-3.1 6.1-3.4 14.3-3.4h8.7v7.4zm33.6-2c-.3 2.6-.6 5.9-.6 7.3v2.6l-8.2-.2c-4.4-.2-8.3-.5-8.6-.7-.6-.7-.4-9.4.3-11.7.6-1.7 1.7-1.9 9.2-1.9h8.6l-.7 4.6zm63.9-2.2c13.8 0 30.6-.2 37.5-.4 6.9-.1 18.8.1 26.5.5l14 .8-15 3.9c-8.2 2.1-15.7 4-16.5 4.2-9 2.5-11.2 2.6-12.6.9-1.3-1.7-1.3-1.7-1.4.2 0 2-.6 2-30.2 1.8-16.7-.1-30.8-.2-31.4-.3-.7 0-1.5-1-1.9-2.3l-.7-2.2-.7 2.4c-.6 2.1-1.1 2.3-7.1 2.3-5.4 0-6.5-.2-6.4-1.6 0-.9.1-3.9.2-6.6l.2-5.1 10.3.8c5.6.4 21.5.8 35.2.7zm135.8 3.8c-2.6 2.9-6.7 4.8-10.3 4.8-1.9 0-3 .5-3 1.4 0 2-8.9 3.4-10 1.6-.5-.7-1-.8-1.4-.2-.7 1.1-13.6 1.3-13.6.2 0-.8 1.6-1.2 9.5-3 2.2-.5 7.4-1.8 11.5-3 18.5-5.3 20.7-5.5 17.3-1.8zm-319.4 11.2c-.2.2-1.8.8-3.4 1.1-2.1.5-2.7.4-2-.3.6-.5 1.9-1.2 3-1.4 2-.4 3.2-.1 2.4.6zm49.1-.4c0 .5-.6 1-1.4 1-.8 0-2.1.3-3 .6-.9.3-1.6.1-1.6-.4 0-1 1.9-1.8 4.8-2.1.6 0 1.2.3 1.2.9zm12 0c-.8.5-2.2 1-3 1-1.3 0-1.3-.1 0-1 .8-.5 2.2-1 3-1 1.3 0 1.3.1 0 1zm59 5.5c0 2.2-.3 2.4-1.9 1.5-2.9-1.5-13.1-1.3-13.1.2 0 .9-.4.8-1-.2-2.2-3.5-1.2-4 7.5-4 8.4 0 8.5 0 8.5 2.5z"/><path d="M233 377c0 .5.5 1 1.1 1 .5 0 .7-.5.4-1-.3-.6-.8-1-1.1-1-.2 0-.4.4-.4 1zm171.3 48.7c.9.2 2.3.2 3 0 .6-.3-.1-.5-1.8-.5-1.6 0-2.2.2-1.2.5zm7.7 1.3c4.1.9 14.5 2.1 11.5 1.3-1.1-.3-2.4-.9-2.9-1.4-.6-.5-3.5-.9-6.5-.8-5.2.1-5.3.2-2.1.9zm16.8.7c.7.3 1.6.2 1.9-.1.4-.3-.2-.6-1.3-.5-1.1 0-1.4.3-.6.6zm3.4-.2c.4.4.3 1.4-.3 2.2-.7.8-.8 1.3-.1 1.3 1.5 0 2.3-2.8.9-3.6-.7-.4-.9-.4-.5.1zM381 434c-.6 1.1-.8 2-.6 2 .3 0 1-.9 1.6-2 .6-1.1.8-2 .6-2-.3 0-1 .9-1.6 2zm138.5 31c.3.5 1.3 1 2.1 1s1.2-.5.9-1c-.3-.6-1.3-1-2.1-1s-1.2.4-.9 1zm23.8 15.7c.9.2 2.3.2 3 0 .6-.3-.1-.5-1.8-.5-1.6 0-2.2.2-1.2.5zM204 257.7c-7.4.2-14.6.5-15.8.8-2.2.5-8.2 6.1-8.2 7.6 0 .6-4.2 7.8-8 13.6-1.7 2.7-3.8 3-4.7.7-.3-.8-1.1-1.3-1.9-1-1.5.6-3.7-1.7-2.6-2.9.4-.5.1-.5-.6-.1-.9.5-1.1 1.8-.7 3.6.3 1.6.2 3.1-.4 3.5-.6.3-1.1 1.1-1.1 1.8 0 .6.7.1 1.6-1.1.8-1.2 1.9-2 2.4-1.7.5.3 1.2.1 1.5-.5.5-.8 1.1-.7 2.1.1 2.4 2 2.3 2.1-7.1 19.4-19.4 35.7-20.9 39.9-16 44.7 3.2 3.3 7.8 3.8 32.3 3.8 18.8 0 19.4.1 21.3 2.2 1.9 2.1 2 2.1 1.5.3-.5-1.9-.2-2 5.7-1.7 5.6.3 6.7.1 9.4-2.2 3.7-3.1 3.2-1.4 9.3-35 2.7-14.9 5.8-31.4 7-36.6 4.1-18.8 2.7-19.8-27-19.3zm-1 4.3c-2 1.3-11 1.3-11 0 0-.6 2.7-1 6.3-1 4.4 0 5.8.3 4.7 1zm-9 3.6l3.9 3.6 10.7-1.2c5.9-.6 12.8-1.5 15.3-2 2.5-.4 4.8-.7 5.2-.4.3.2 0 3.4-.7 7.1-5.4 27.9-9.3 43.3-11.1 43.3-.7 0-1.3.3-1.3.7-.1.5-.5 2.7-.9 5.1-.7 3.5-.6 4 .5 3.1.8-.6 1.4-2 1.4-3s.4-2.1 1-2.4c1.3-.8.7 4-1 8-.6 1.6-1.2 4-1.2 5.2 0 1.3-.3 2.3-.7 2.3-.3 0-.6 1.8-.6 4-.1 2.5-.8 4.7-1.9 5.8-1.7 1.6-1.8 1.4-1.3-4.8.2-3.6 1-7.8 1.6-9.3 1.6-4 1.3-4.5-.9-1.8-1.1 1.3-2 3.2-2 4.2 0 2.6-2.1 6.9-3.1 6.3-.5-.3-.9-1-.9-1.5 0-.6.5-.7 1-.4.6.3 1 .1 1-.4 0-.9-11.2-1.8-17.2-1.3-.9.1-2.1-.5-2.8-1.2-.9-1.1 0-3.6 4-11.5 2.7-5.6 4.6-10.1 4.2-10.1-.5 0-1.5 1.1-2.2 2.5-1.7 3.2-2.3 2.6-1-1.1l1-2.9-2.3 2.6c-1.5 1.6-2.9 5.1-3.6 8.9-.7 3.4-1.5 6-1.8 5.7-.7-.8 2.6-19.9 3.7-21.3.6-.6 2.6-1.1 4.6-1.2 3.4-.1 3.6 0 3 2.6l-.6 2.7 1.5-2.8c1.4-2.4 2.1-2.7 7.1-2.7 7.4 0 6.9-2.4-.5-2.8-5.2-.3-5.3-.4-4.6-3l.6-2.7-1.6 2.2c-1.6 2.2-2.2 2.3-17.4 2.3-8.7 0-16.1-.3-16.4-.6-1.4-1.4 17.4-35.5 21-38.2 2.4-1.7 2.9-1.6 7.3 2.4zm-28.7 39.6c-1.1 1.3-2.2 2.7-2.4 3.3-1.7 4.3-15.1 29.6-15.5 29.2-.6-.6 14.2-30.6 16.4-33 .8-.9 2-1.7 2.5-1.7.6 0 .1 1-1 2.2zm18 .4c2.5.5 3.7 1.2 3.7 2.3 0 2.3-6.5 12.6-7.8 12.4-1.9-.4-7.9 6.2-10.7 11.7-3 6-4.5 7.4-5.9 6-.6-.6-2.3-1-3.8-1s-2.8-.2-2.8-.4c0-.3 3.2-6.5 7-14 3.9-7.4 7-14 7-14.8 0-2.6-3 1.9-9.8 15.2-3.9 7.4-7.6 13.6-8.3 13.9-1.1.3 12.9-27.7 15.3-30.7 1.1-1.3 9.7-1.6 16.1-.6zm.8 15.9c-1 3.4-1.9 5.1-2.5 4.5-.9-.9 2.6-10 3.8-10 .2 0-.4 2.5-1.3 5.5zm-9.9 11c-2.7 4.4-5.6 6.2-6.9 4.3-.3-.7-.1-.8.5-.4.7.4 1.2.1 1.2-.9 0-.8.7-1.8 1.5-2.1.8-.4 1.2-1.1.8-1.7-.3-.6-.1-.7.5-.3.7.4 1.2.5 1.2.2 0-.2.3-1.2.7-2.2.4-1.2.3-1.5-.5-1-.7.4-1.2.1-1.2-.7 0-2.3 1.2-2.8 3.1-1.1 1.6 1.5 1.6 1.8-.9 5.9zm4.1 2.2c.5 2.7.3 3.3-1.1 3.3-1 0-2.3.5-3 1.2-1.8 1.8-1.5.2.9-4.3 2.3-4.6 2.4-4.6 3.2-.2zm7.7 3.7c0 1.2.7 1.3 3.2.5 3.5-.9 7.3-1.2 5.1-.2-.7.2-1.3 1.1-1.3 1.8s.6 1.6 1.3 1.8c.6.3-1.7.6-5.2.6-5.4.1-6.2-.1-5.7-1.5.3-.9.6-2.2.6-3 0-.8.5-1.4 1-1.4.6 0 1 .6 1 1.4zm-24.3 1.6c-.1 1.9-.7 2.1-5.1 1.8-6.2-.4-7.3-2.4-1.5-2.6 2.3-.1 4.5-.4 4.7-.7 1.2-1.1 2.1-.4 1.9 1.5zm38.8-1c.3.5 1.1 1 1.6 1 .6 0 .7-.5.4-1-.3-.6.1-1 1-1s1.4.4 1.1.9c-.3.5.5 1.2 1.9 1.5 1.4.4 2.5 1.1 2.5 1.8 0 1.2-3 3.7-4.5 3.8-.5 0-.4-.4.4-.9.7-.5 1-1.4.6-2.1-.5-.8-1-.9-1.8-.1-1.7 1.7-5 1.4-4.4-.4.4-.8.2-1.7-.3-2-1.3-.8-1.3-2.5-.1-2.5.6 0 1.3.4 1.6 1zm-19.5 3c0 .5-.7 1-1.6 1-.8 0-1.2-.5-.9-1 .3-.6 1-1 1.6-1 .5 0 .9.4.9 1z"/><path d="M221.5 272c-2.7.7-2.8.8-.5.8 1.4 0 3.4-.3 4.5-.8 2.5-1.1.2-1.1-4 0zm-6.3 8.2c-3.5 2.8-6.5 4.8-6.8 4.6-.3-.3.1-1.7.7-3.2 1-2 1-2.9.1-3.8-.9-.9-1.2-.7-1.2.8 0 1.2-.9 2.9-2 3.9s-2 2.4-2 3.1c0 1.5-3.8 3.9-4.7 3-.3-.3.2-1.7 1.1-3.2 1-1.4 1.6-2.8 1.3-3-.3-.3-1.7 1.6-3.1 4.2-1.4 2.6-2.4 5-2.1 5.3.4.3 1-.1 1.5-.9.6-.8 1-1.1 1-.7 0 .4 1 .3 2.1-.4 2-1 2.1-.9 1.7 1.5-.7 3.4 1.5 1.8 3.2-2.4.7-1.7 1.8-3 2.5-3 1.6 0 11.6-7.4 12.8-9.5 1.1-2.1 1-2-6.1 3.7zm-41.4 8c.5.5 1.6.8 2.3.6.8-.3.3-.7-1-1.1-1.7-.4-2.1-.3-1.3.5zm7.2 2.2c0 .8 5.1 1.3 5.6.5.3-.5-.9-.9-2.5-.9-1.7 0-3.1.2-3.1.4zm13.2 4.7c-.7 1.1-1.1 2.3-.9 2.5.7.7 2.9-2.4 2.5-3.6-.2-.6-.9-.1-1.6 1.1zM213 305c0 .5.7 1 1.6 1 .8 0 1.2-.5.9-1-.3-.6-1-1-1.6-1-.5 0-.9.4-.9 1zm4.1 5.5c.1 4 .1 4 1.1 1.2.7-2.1.7-3.2-.1-4-.8-.8-1.1 0-1 2.8zm-19.7 6.2c-2.6 4.9-5.5 10.3-6.5 12.1-2.2 3.9-2.3 4.2-.6 4.2.6 0 3.9-5.3 7.2-11.7 7.3-14.4 6.9-13.3 5.6-13.3-.5 0-3.1 3.9-5.7 8.7zm160.1-56.6c-.4.6-.5 1.3-.2 1.6.7.7 2.7-.6 2.7-1.8 0-1.2-1.7-1.2-2.5.2zm-79.3 4c-7.5 1.3-9.8 3.1-11.6 9.2-2 7.2-4.9 26.8-4.3 29.8.4 2.1.4 2 .6-.6.3-5.6 4.1-21.9 6.2-26.1 2.3-4.8 5.6-7.4 9.9-7.7 1.6-.1 3.2-.8 3.5-1.5.2-.6.9-1.2 1.5-1.2s1 .6.9 1.2c-.4 3.3.1 4.1 1.6 2.8 1-.9 1.5-.9 1.5-.1 0 .6.5 1.1 1 1.1.6 0 1-1.8 1-4 0-3.9-.1-4-3.2-3.9-1.8.1-5.7.5-8.6 1zm10.8 2.3c0 .3-.4.8-1 1.1-.5.3-1 .1-1-.4 0-.6.5-1.1 1-1.1.6 0 1 .2 1 .4zm57-1c.7.7 1.3.7 2 0 .6-.6.3-1-1-1s-1.6.4-1 1zm35.8 1.3c.7.3 1.6.2 1.9-.1.4-.3-.2-.6-1.3-.5-1.1 0-1.4.3-.6.6zm248.7 4.3c-3.6.6-3.2.7 2.8.9 3.9 0 6.7-.3 6.7-.9 0-1.1-3.4-1.1-9.5 0zM149 273.1c0 1.8.2 1.9 1.5.9.8-.7 1.5-1.6 1.5-2.1s-.7-.9-1.5-.9c-.9 0-1.5.9-1.5 2.1zm2 1.6c-2.4 2.6-3 3.8-2 4.1.7.3 2.4-.7 3.7-2.2 1.3-1.5 2.7-2.5 3.1-2.2.4.2.9-.4.9-1.5.3-2.9-1.8-2.3-5.7 1.8z"/><path d="M273.7 273.7c-.4.3-.7 1.5-.7 2.5 0 2.7 2.3 1.7 2.5-1 .2-2.2-.6-2.8-1.8-1.5zm348.3 2.7c0 2.6-.4 2.7 13.5-.9l5-1.3-9.2-.1c-9.2-.1-9.3-.1-9.3 2.3zm-11.3.7c-2.4 2.8-1.7 3.2 3.5 2.2 2.8-.6 4.4-1.4 4.6-2.6.5-2.6-5.8-2.3-8.1.4zm-458.4 2.1c-2.2 3.2-2.4 4.6-.4 3.3 1.5-.8 4.4-6.5 3.4-6.5-.5 0-1.8 1.5-3 3.2zm131.4-1.1c.7.7 1.5 1 1.8.7.3-.3-.2-.9-1.2-1.2-1.4-.6-1.5-.5-.6.5zm3.3 3.8c0 1.7.2 3.1.4 3.1.8 0 1.3-5.1.5-5.6-.5-.3-.9.9-.9 2.5zm162.2.1c0 1.4.2 1.9.5 1.2.2-.6.2-1.8 0-2.5-.3-.6-.5-.1-.5 1.3zm172.8.1c0 1.1.4 1.8 1 1.4.5-.3.7-1.2.3-2-.7-2.1-1.3-1.9-1.3.6zm-380.8.5c.9.9 2.4 1.4 3.2 1.1 2.7-1.1 1.7-2.7-1.6-2.7-3 0-3.1.1-1.6 1.6zm395.4-.7c-.5.8-12.3 3.6-13.8 3.3-.5-.1-.8 18-.8 40.3v40.4l4.7-2c6.6-2.8 11.1-5.7 12.3-7.9.6-1.1 1-16.3 1-38.4 0-31.2-.2-36.6-1.4-36.6-.8 0-1.7.4-2 .9zm-314.4 2c1.2 1.9 2.4 2.1 4.6.8.6-.5 1.8-.5 2.5-.1.9.5.9.4-.1-.7-.7-.7-2.8-1.4-4.7-1.6-3.1-.2-3.3 0-2.3 1.6zm290.6 1.8c.6.2 1.8.2 2.5 0 .6-.3.1-.5-1.3-.5-1.4 0-1.9.2-1.2.5zM448.2 288c0 1.4.2 1.9.5 1.2.2-.6.2-1.8 0-2.5-.3-.6-.5-.1-.5 1.3zm-292.5 5.2c-4.8 8.7-8.1 15.5-6.9 14.3 1.3-1.3 11.4-20.5 10.8-20.5-.2 0-2 2.8-3.9 6.2zm130.8-5.2c-.3.5.1 1 1 1s1.3-.5 1-1c-.3-.6-.8-1-1-1-.2 0-.7.4-1 1zm35.6.6c0 1.1.3 1.4.6.6.3-.7.2-1.6-.1-1.9-.3-.4-.6.2-.5 1.3zm17.4 1.4c.3.5.8 1 1.1 1 .2 0 .4-.5.4-1 0-.6-.5-1-1.1-1-.5 0-.7.4-.4 1zm80.5 1.4c0 .9.5 1.6 1 1.6.6 0 1-.4 1-.9 0-.6-.4-1.3-1-1.6-.5-.3-1 .1-1 .9zm-63 0c0 .2 1.2 1.2 2.8 2.1l2.7 1.8-1.9-2.1c-1.7-2-3.6-2.9-3.6-1.8zm90.3 3.1c0 2.2.2 3 .4 1.7.2-1.2.2-3 0-4-.3-.9-.5.1-.4 2.3zM294 295.6c0 1.6.4 3.5.9 4.2.5.8.7 0 .7-2.2-.2-4.3-1.6-6.1-1.6-2zm122.1 4c-.6 1.5-.9 2.9-.7 3.2.3.2 1-.8 1.6-2.3 1.4-3.6.7-4.3-.9-.9zm-281.4 1.3c-.7 3.5-3.2 6.1-5.8 6.1-1 0-1.9.4-1.9 1 0 .5.7.7 1.5.4 1.2-.5 1.5.2 1.5 3 0 2.9-.4 3.6-2 3.6s-2-.7-2-3.1c0-2.5-.3-2.9-1.3-2-.8.6-1.6.9-1.9.6-.3-.3-1.1.1-1.7.9-1 1.2-.9 1.4.8.9 2.7-.7 2.6.3-.1 3-1.5 1.4-3.3 2.1-5.3 2l-3-.2 2.8 1.2 2.7 1.3-3.1 3.2c-1.7 1.8-3.7 3.2-4.4 3.2-.7 0-1.5.6-1.8 1.3-.6 1.7-13.8 6.4-19.8 7.2-7.5.9-9.6 1.5-11.4 3.5-2 2.3-2.1 2.2 7 4 3.3.6 12.6 1.4 20.6 1.7l14.6.6 10.7-21.4c6-11.8 11.2-21.9 11.7-22.5 1.3-1.6 0-2.4-4.1-2.4-3.3 0-3.8.3-4.3 2.9zm2.5 1.3c-.7.7-1.2.8-1.2.2 0-1.4 1.2-2.6 1.9-1.9.2.3-.1 1.1-.7 1.7zm-4.7 8.7c.3.5.1 1.2-.5 1.6-.5.3-1-.1-1-.9 0-1.8.6-2.1 1.5-.7zm277.1-11c-.3.5 0 1.1.8 1.4 1.5.6 2.6-.1 2.6-1.5 0-1.1-2.7-1-3.4.1zm36.6 1.1c0 1.4.2 1.9.5 1.2.2-.6.2-1.8 0-2.5-.3-.6-.5-.1-.5 1.3zm-40.7 0c-.3.5.1 1 .9 1 .9 0 1.6-.5 1.6-1 0-.6-.4-1-.9-1-.6 0-1.3.4-1.6 1zm-281 1c-.3.5-.2 1 .4 1 .5 0 1.3-.5 1.6-1 .3-.6.2-1-.4-1-.5 0-1.3.4-1.6 1zm167.5.5c0 .8.2 1.5.4 1.5s.6-.7 1-1.5c.3-.8.1-1.5-.4-1.5-.6 0-1 .7-1 1.5zm-15 1.4c0 .5.7 1.5 1.7 2.2 1.5 1.3 1.5 1.2.4-.9-1.2-2.3-2.1-2.8-2.1-1.3zm-155.4 1.7c-1.7 1.2-1.7 1.4-.4 1.4.9 0 2-.5 2.3-1.1 1.1-1.7.2-1.8-1.9-.3zm233.2-.9c.7.3 1.6.2 1.9-.1.4-.3-.2-.6-1.3-.5-1.1 0-1.4.3-.6.6zm58.2.8c-.7.9-1 1.8-.7 2.1.3.3 1-.4 1.7-1.5 1.3-2.5.8-2.7-1-.6z"/><path d="M117 310.5c-1.3 1.4-2.1 2.7-1.8 3 .2.3 1.5-.6 2.8-2 1.3-1.4 2.1-2.7 1.8-3-.2-.3-1.5.6-2.8 2zm115.2-.5c0 1.4.2 1.9.5 1.2.2-.6.2-1.8 0-2.5-.3-.6-.5-.1-.5 1.3zm-166.7 0c-.3.5-.1 1 .4 1 .6 0 1.1-.5 1.1-1 0-.6-.2-1-.4-1-.3 0-.8.4-1.1 1zm-60 1c-.3.5-.2 1 .4 1 .5 0 1.3-.5 1.6-1 .3-.6.2-1-.4-1-.5 0-1.3.4-1.6 1zm22 0c-1.6.7-1.7.9-.3.9.9.1 2-.4 2.3-.9.7-1.1.7-1.1-2 0zm332.1 1.3c.3 1 .9 1.5 1.2 1.2.3-.3 0-1.1-.7-1.8-1-.9-1.1-.8-.5.6zm-296.8.4c.7.3 1.6.2 1.9-.1.4-.3-.2-.6-1.3-.5-1.1 0-1.4.3-.6.6zm187.2.8c0 .8.2 1.5.4 1.5s.6-.7 1-1.5c.3-.8.1-1.5-.4-1.5-.6 0-1 .7-1 1.5zm-239.2.2c.7.3 1.6.2 1.9-.1.4-.3-.2-.6-1.3-.5-1.1 0-1.4.3-.6.6zm220.4 2.3c0 1.4.2 1.9.5 1.2.2-.6.2-1.8 0-2.5-.3-.6-.5-.1-.5 1.3zm211.4 2.2c-.3 1.3-.5 3.4-.5 4.8.1 1.5.5.7 1-1.9.9-4.7.6-6.8-.5-2.9zm-333.8 1.5c.7.3 1.6.2 1.9-.1.4-.3-.2-.6-1.3-.5-1.1 0-1.4.3-.6.6zm121.4 1.8c0 1.6.2 2.2.5 1.2.2-.9.2-2.3 0-3-.3-.6-.5.1-.5 1.8zm243.6 0c-.4 1.6-.2 3.6.4 4.2 1.3 1.6 3.8 1.7 3.8.3 0-.6.6-1 1.4-.8.8.2 1.4-.2 1.3-.7-.1-.6-1.3-1-2.7-1-1.7-.1-2.6-.8-3-2.5-.6-2.5-.6-2.4-1.2.5zm-124.3.4c-1.6.3-3.1 1.3-3.3 2.2-.3 1.6 2.8 1.8 13.1 1 2.4-.1 1.4-1.7-1.5-2.4-1.3-.2-3-.7-3.8-1-.8-.2-2.8-.2-4.5.2zm-214 2.2c-.4.6-.5 1.2-.2 1.5.2.3.7-.2 1-1.1.7-1.7.1-2-.8-.4zm112.6.5c0 1.1.3 1.4.6.6.3-.7.2-1.6-.1-1.9-.3-.4-.6.2-.5 1.3zm-19 2c0 1.1.3 1.4.6.6.3-.7.2-1.6-.1-1.9-.3-.4-.6.2-.5 1.3zm4 1c0 1.1.3 1.4.6.6.3-.7.2-1.6-.1-1.9-.3-.4-.6.2-.5 1.3zm208 0c0 1.1.3 1.4.6.6.3-.7.2-1.6-.1-1.9-.3-.4-.6.2-.5 1.3zM21 329c0 .5.5 1 1 1 .6 0 1-.5 1-1 0-.6-.4-1-1-1-.5 0-1 .4-1 1zm12.3.7c.9.2 2.3.2 3 0 .6-.3-.1-.5-1.8-.5-1.6 0-2.2.2-1.2.5zm194.8 2.9c0 1.1.3 1.4.6.6.3-.7.2-1.6-.1-1.9-.3-.4-.6.2-.5 1.3zm4.1.4c0 1.4.2 1.9.5 1.2.2-.6.2-1.8 0-2.5-.3-.6-.5-.1-.5 1.3zm241.6 2.5c-.3 1.4-.1 2.5.3 2.5.5 0 .9-1.1.9-2.5s-.2-2.5-.4-2.5-.6 1.1-.8 2.5zm-242.6 3c0 1.6.2 2.2.5 1.2.2-.9.2-2.3 0-3-.3-.6-.5.1-.5 1.8zm-1 6c0 1.6.2 2.2.5 1.2.2-.9.2-2.3 0-3-.3-.6-.5.1-.5 1.8zm233.6.2c.6.2 1.8.2 2.5 0 .6-.3.1-.5-1.3-.5-1.4 0-1.9.2-1.2.5zm-107.6 4.6c-.8.9-.4 1.2 1.4 1.3 2.6.2 3.3-1.1 1-1.9-.8-.3-1.9 0-2.4.6zm-128.9 2.2c.4.9.7 2.6.7 3.8.1 1.9.3 1.8 1.5-.8.7-1.7 1.4-2.4 1.4-1.6.1 1.1.4 1.1 1.6.1 1.2-1 1.5-.9 1.5.6 0 1.6.2 1.6 1 .4 1.1-1.7.1-2.4-4.9-3.5-2.9-.6-3.3-.5-2.8 1zm-46.6.2c-.4.3-.7 2.4-.7 4.6 0 3.2.3 3.8 1.6 3.3.9-.3 5.4-.6 10-.6 6 0 8.4-.3 8.4-1.3 0-.9-2.3-1.1-9-.9-7.8.3-9.1.1-9.7-1.4-.4-1.1.1-2.2 1.2-3 1.5-1.1 1.6-1.4.4-1.4-.9 0-1.9.3-2.2.7zm8.6 0c.9.2 2.5.2 3.5 0 .9-.3.1-.5-1.8-.5-1.9 0-2.7.2-1.7.5zm-179.5 8c.6.2 1.8.2 2.5 0 .6-.3.1-.5-1.3-.5-1.4 0-1.9.2-1.2.5zm56.2 3.2c0 .5.5 1.3 1 1.6.6.3 1 .2 1-.4 0-.5-.4-1.3-1-1.6-.5-.3-1-.2-1 .4zm-51 2.5c0 .8.7 1.6 1.5 2 .9.3 1.5 0 1.5-.8s-.7-1.6-1.5-2c-.9-.3-1.5 0-1.5.8zm157.6 52.1c.4.8 1 1.5 1.5 1.5.4 0 .6-.7.3-1.5-.4-.8-1-1.5-1.5-1.5-.4 0-.6.7-.3 1.5zm29.4-.6c0 .6.4 1.3 1 1.6.6.3.7-.1.4-.9-.7-1.8-1.4-2.1-1.4-.7zm-153.2 2.8c1.2.2 3 .2 4 0 .9-.3-.1-.5-2.3-.4-2.2 0-3 .2-1.7.4zm433.3 2.9c0 1.1.3 1.4.6.6.3-.7.2-1.6-.1-1.9-.3-.4-.6.2-.5 1.3zm1.1 5.9c0 1.6.2 2.2.5 1.2.2-.9.2-2.3 0-3-.3-.6-.5.1-.5 1.8zm-37.2 2.4c-1.4.4-2 1-1.5 1.3 2.5 1.5 28.9 5.6 29.8 4.6.2-.1 1.1.3 2 1.1 1.5 1.2 1.7 1.1 1.7-.7 0-2.3-3.3-3.3-12.7-3.5-3.3-.1-5.9-.5-5.7-.9.2-.4.1-.9-.3-1.1-1.6-1-10.9-1.5-13.3-.8zm7 1.1c0 1.2-.8 1.2-3.5 0-1.8-.8-1.7-.9.8-.9 1.5-.1 2.7.3 2.7.9zm4 1c0 .5-.2 1-.4 1-.3 0-.8-.5-1.1-1-.3-.6-.1-1 .4-1 .6 0 1.1.4 1.1 1zm-282 4.1c5 3.4 15.8 7.9 19.2 7.9 4.9 0 4.9-1.6 0-2.4-2.1-.3-6.8-1.9-10.5-3.6-6.6-3-11.9-4.2-8.7-1.9zm21 2.9c0 .5.9 1 2 1s2-.5 2-1c0-.6-.9-1-2-1s-2 .4-2 1zm19 4.3c1 .9 3.1 1.2 6.3.9 6.8-.6 5.8-2.2-1.5-2.2-5.3 0-6 .2-4.8 1.3zm-2.4 2.1c1 .8 2.1 1.2 2.4 1 .5-.6-2.1-2.4-3.4-2.4-.6 0-.1.6 1 1.4zM250 448c0 .5.5 1 1 1 .6 0 1-.5 1-1 0-.6-.4-1-1-1-.5 0-1 .4-1 1zm5 0c0 .5.9 1 2 1s2-.5 2-1c0-.6-.9-1-2-1s-2 .4-2 1zm9.8-.3c.6.2 1.8.2 2.5 0 .6-.3.1-.5-1.3-.5-1.4 0-1.9.2-1.2.5zM456 450c.8.5 2 1 2.5 1 .6 0 .3-.5-.5-1s-1.9-1-2.5-1c-.5 0-.3.5.5 1zm173.3 3.7l-7.3.4V467h18v-7c0-6.1-.2-7-1.7-6.8-1 .1-5.1.4-9 .5zm-7.3 24v8.3h2.9c1.5 0 5.6-.3 9-.6l6.1-.7v-14.6l-9-.3-9-.3v8.2zm-477.3-2.1c-.1.1-7.5.4-16.5.5-8.9.1-16.2.6-16.2 1 0 .8 4.2 2.9 8.4 4.3 4.9 1.7 22 4.6 29.6 5 4.7.3 12.8.9 18 1.3 5.2.4 11.3.7 13.4.7h3.9l2.3-6.7 2.3-6.8-22.4.2c-12.4.1-22.6.3-22.8.5zm-24.2 3.4c1.3.6 1.5.9.5.9-.8 0-2.2-.4-3-.9-1.8-1.2-.2-1.2 2.5 0zm16.5 4c0 .5-.7.7-1.5.4-.8-.4-1.5-.8-1.5-1 0-.2.7-.4 1.5-.4s1.5.4 1.5 1zm-45 16.8c0 2.8 19.7 13.9 21.4 12.2 1.2-1.2-.8-3-3.4-3-1.3 0-4.5-1.8-17.2-9.7-.5-.2-.8 0-.8.5zm479 3.2c0 .5.5 1 1 1 .6 0 1-.5 1-1 0-.6-.4-1-1-1-.5 0-1 .4-1 1zm4.7.1c.7.7 1.5 1 1.8.7.3-.3-.2-.9-1.2-1.2-1.4-.6-1.5-.5-.6.5zm-449.4 2.6c-.7.3-1.3 1.1-1.3 1.9 0 1.1 1.8 1.4 8.3 1.4 4.5.1 13.8.3 20.6.6 9.7.5 12.5.3 13.2-.8 1.3-2 1.1-2.8-.7-2.8-.9 0-1.2.5-.8 1.2.5.8.2.9-1.2.3-1-.4-9.1-1-17.9-1.2-8.8-.2-16.7-.5-17.5-.6-.8-.2-2.1-.2-2.7 0zm404.2 4.4c-.7 1.1 4.7 2.1 5.7 1.1.6-.6-.2-1.1-2.2-1.4-1.7-.3-3.3-.1-3.5.3zm29.8.6c.9.9 2 1.3 2.4.9.4-.4.1-1.1-.7-1.6-2.5-1.6-3.5-1.1-1.7.7zm15.7-.8c0 1.7 1.8 2.1 2.4.6.3-.9 0-1.5-.9-1.5-.8 0-1.5.4-1.5.9zm4.1.7c0 1.1.3 1.4.6.6.3-.7.2-1.6-.1-1.9-.3-.4-.6.2-.5 1.3zm3.9-.6c0 .5.5 1 1.1 1 .5 0 .7-.5.4-1-.3-.6-.8-1-1.1-1-.2 0-.4.4-.4 1zm3.5 0c-.3.5.1 1 1 1s1.3-.5 1-1c-.3-.6-.8-1-1-1-.2 0-.7.4-1 1zm5 0c-.3.5.3 1 1.4 1 1.2 0 2.1-.5 2.1-1 0-.6-.6-1-1.4-1-.8 0-1.8.4-2.1 1zm-72 1c.3.5 1.2.7 2 .3 2.1-.7 1.9-1.3-.6-1.3-1.1 0-1.8.4-1.4 1zm5 0c.3.5 1 1 1.6 1 .5 0 .9-.5.9-1 0-.6-.7-1-1.6-1-.8 0-1.2.4-.9 1zm13.3-.3c.7.3 1.6.2 1.9-.1.4-.3-.2-.6-1.3-.5-1.1 0-1.4.3-.6.6zm12.7.2c.4.8.2 1.7-.6 2.2-.9.6-1 .9-.2.9 1.9 0 2.7-2.1 1.3-3.3-1-.9-1.1-.9-.5.2zm-18.5 6.7c0 .8 1 1.4 2.6 1.4 2.8 0 2.5-1.5-.6-2.3-1.3-.3-2 0-2 .9zm9.4-.1c-.4.9-.4 1.9 0 2.2.3.4.6.1.6-.6s.5-.9 1-.6c.6.3 1 .2 1-.4 0-1.8-2-2.3-2.6-.6zm17.3-.4c.7.7 1.5 1 1.8.7.3-.3-.2-.9-1.2-1.2-1.4-.6-1.5-.5-.6.5zm13.8.9c.3.5.8 1 1.1 1 .2 0 .4-.5.4-1 0-.6-.5-1-1.1-1-.5 0-.7.4-.4 1zm32.3-.3c.7.3 1.6.2 1.9-.1.4-.3-.2-.6-1.3-.5-1.1 0-1.4.3-.6.6zm8.7.3c.3.5 1.1 1 1.6 1 .6 0 .7-.5.4-1-.3-.6-1.1-1-1.6-1-.6 0-.7.4-.4 1zM353 523c-1 .6-.2.7 2.5.3 4.9-.7 5.8-1.3 1.9-1.3-1.6 0-3.6.5-4.4 1zm10.4.1c-.3.5-1.5.9-2.7.9-1.3 0-1.7.4-1.1.9 1 1.1 9.6.2 8.9-.9-.8-1.2-4.5-1.9-5.1-.9zm12.1-.1c.3.5 1.1 1 1.6 1 .6 0 .7-.5.4-1-.3-.6-1.1-1-1.6-1-.6 0-.7.4-.4 1zm8.5 0c0 .5.6 1 1.4 1 .8 0 1.8-.5 2.1-1 .3-.6-.3-1-1.4-1-1.2 0-2.1.4-2.1 1zm70.3-.3c.9.2 2.3.2 3 0 .6-.3-.1-.5-1.8-.5-1.6 0-2.2.2-1.2.5zm6.7-.3c0 .8 6 1.2 7.2.4.8-.4-.4-.8-2.9-.8-2.4 0-4.3.2-4.3.4zm-90 1.6c-1.3.8-1.3 1 .2 1 .9 0 2-.5 2.3-1 .8-1.3-.5-1.3-2.5 0zm-51.5 6.9c-1.6.3-2.8 1.1-2.6 1.6.3 1.1.9 1 5.4-.9 3.4-1.5 2.2-1.8-2.8-.7zm31 5.2c-.4.5 1.8.9 4.9.9 7.2 0 8.1-1.6 1-1.7-2.9-.1-5.6.3-5.9.8zm-56.5.9c0 .5.5 1 1.1 1 .5 0 .7-.5.4-1-.3-.6-.8-1-1.1-1-.2 0-.4.4-.4 1zm24 2c0 .5.5 1 1.1 1 .5 0 .7-.5.4-1-.3-.6-.8-1-1.1-1-.2 0-.4.4-.4 1zm-43 2c0 .5.4 1 .9 1 .6 0 1.3-.5 1.6-1 .3-.6-.1-1-.9-1-.9 0-1.6.4-1.6 1zm160-.3c-6.5.5-9.2 1.2-8.5 2.3.4.6-.6.5-2-.2-2-.9-3.6-.9-7.1 0-2.4.7-5.4 1.2-6.6 1.2-2.7 0-5.8 2.8-5.1 4.6.3.8.3 1.4.1 1.4-.3 0-5.4.9-11.4 2-7.6 1.5-17.3 2.3-31.6 2.7-14.1.4-20.8.9-20.8 1.7.1 3.4 1.8 3.8 15.6 4.1 7.7.1 18.4.8 23.8 1.5 5.4.7 14.1 1 19.2.8 12.2-.7 13.9.3 9 5.1-2.7 2.7-3.3 3.8-2.5 4.8.8.9.8 1.3 0 1.3-.6 0-1.1-.4-1.1-.9 0-1.5-8.1-1.9-23-1.2-11.1.6-15.2.4-17.4-.6-1.6-.7-4.5-1.3-6.5-1.3-5.4 0-20.3 5.1-22.4 7.7-.9 1.2-2.7 2.4-4 2.6-1.9.4-1.8.4.5.6 1.5 0 3.9-.4 5.5-1 3-1.2 10.7-1.6 42.8-2.4 11.6-.3 21.9-1 23-1.4 3.9-1.7 5.5-2 5.5-1 0 .6.8.8 1.8.5.9-.3 3.1-.2 4.7.3 2.7.8 2.4.9-2.5 1.1-5 .2-5.2.3-2.2 1 3.2.7 8.7 0 11.1-1.4.6-.4 1.1-1.5 1.1-2.4 0-1.2.3-1.3 1.1-.5.9.9 2.1.7 5-.7 2.1-1.1 6-2.9 8.8-4 2.7-1 7-3.5 9.5-5.3 4.7-3.7 3.2-3.4 26.6-5.3 3.6-.4 6.7-.8 6.9-1 .2-.2-.4-1.4-1.5-2.5-1.4-1.6-1.5-2.1-.4-1.7.8.2 1.9 1.4 2.5 2.5.7 1.8 1.5 2.1 4 1.6 1.6-.3 3.3-1.1 3.7-1.7.5-.8 1.1-.7 2 .2.6.6 1.5 1.2 1.9 1.2.9 0 2.3-3.8 2.4-6 0-1.2 1.6-1.5 8.4-1.6 5.6 0 8.6-.4 8.9-1.2.2-.7-.6-1.2-2.1-1.2-1.4 0-2.7-.4-2.9-.9-.5-1.4-5.8-2.5-5.8-1.2 0 .6-.7 1.1-1.5 1.1s-1.5-.3-1.5-.8c0-.4-1.1-.8-2.5-.8-1.4-.1-2.5.2-2.5.8 0 .5-.5.6-1.1.2-1.7-1-9.9-1.3-9.9-.3 0 .9.8 1 7 1.3 3.7.1 5.1 1.5 4.3 4.5-.5 1.9-1.1 2.2-3.4 1.7-2.3-.4-2.9-.2-2.9 1.1 0 1.4-.2 1.5-1.7.1-1-.9-2.5-1.3-3.3-1.1-.9.3-.7-.1.5-1.2 2-1.6 1.9-1.6-.7-1.1-1.5.4-3 .2-3.3-.4-.3-.5-.1-1 .4-1 .6 0 1.1-.8 1.1-1.8 0-1.5-1.1-1.7-9.9-1.7-5.5 0-9.7.2-9.4.5.7.7-22.7 2.9-24.4 2.3-.8-.3-1.1-1.4-.6-3.1.5-2.1.3-2.4-1.1-1.9-.9.4-1.6.2-1.6-.3 0-.6 1.4-1 3-1 1.7 0 3-.5 3-1 0-.6-.3-.9-.7-.8-.5.1-2.8.3-5.3.5zm-13.5 3.3c-.3.5-1.3 1-2.1 1s-1.2-.5-.9-1c.3-.6 1.3-1 2.1-1s1.2.4.9 1zm3.3 2.5c-.3.3-.9-.2-1.2-1.2-.6-1.4-.5-1.5.5-.6.7.7 1 1.5.7 1.8zm-8.3-.5c.3.6-.1.7-.9.4-1.8-.7-2.1-1.4-.7-1.4.6 0 1.3.4 1.6 1zm-3.5 1c0 .5-.7 1-1.6 1-.8 0-1.2-.5-.9-1 .3-.6 1-1 1.6-1 .5 0 .9.4.9 1zm24 2.9c0 .5-.7 1.1-1.4 1.4-1 .4-1.3.1-.9-.9.6-1.5 2.3-1.9 2.3-.5zm38 7.2c-3.8.6-5 .3-5-1.2 0-.5.8-.9 1.8-.7.9.2 1.6-.2 1.4-1-.1-.8.7-.7 2.5.5l2.7 1.8-3.4.6zm-21.5-2.1c.3.5.1 1-.4 1-.6 0-1.1-.5-1.1-1 0-.6.2-1 .4-1 .3 0 .8.4 1.1 1zm14.2.6c-.3.3-1.2.4-1.9.1-.8-.3-.5-.6.6-.6 1.1-.1 1.7.2 1.3.5zm-7 2c-.3.3-1.2.4-1.9.1-.8-.3-.5-.6.6-.6 1.1-.1 1.7.2 1.3.5zm-72.4 1.1c-.7.2-1.9.2-2.5 0-.7-.3-.2-.5 1.2-.5s1.9.2 1.3.5zm11.7.4c0 .5.4.8.9.4.5-.3 1.2-.1 1.5.4.3.5-1 .9-2.9.8-2.7-.1-3.2-.4-2.3-1.4 1.3-1.6 2.8-1.7 2.8-.2zm6.5-.1c.3.6-.1.7-.9.4-1.8-.7-2.1-1.4-.7-1.4.6 0 1.3.4 1.6 1zm22 12.6c-.9.9-1.9 1.3-2.3 1-.3-.4 0-1.1.8-1.6 2.4-1.5 3.3-1.1 1.5.6zM403 575c0 .5-.4 1-1 1-.5 0-1-.5-1-1 0-.6.5-1 1-1 .6 0 1 .4 1 1zm-77.4-31.5c-.3.8-.1 1.5.4 1.5.6 0 1-.7 1-1.5s-.2-1.5-.4-1.5-.6.7-1 1.5zm-64.4.5c-1.2.5-3.4 2.1-4.8 3.5s-3.1 2.5-3.8 2.5c-.8 0-2 .8-2.7 1.7-1.2 1.5-1.2 1.6.6.9 1.1-.5 2.8-1.1 3.8-1.3.9-.3 1.7-.9 1.7-1.4 0-.5.7-.9 1.5-.9s1.5-.7 1.5-1.5.5-1.5 1-1.5c.6 0 1.3.7 1.6 1.5 1 2.5 2.1 1.7 2.2-1.5 0-1.7 0-3-.1-2.9-.1 0-1.2.4-2.5.9z"/><path d="M266.7 545.5c-2.3 1.6-2.2 2.5.3 2.5 2.3 0 2.4.4.9 3.1-.5 1.1-1.4 1.7-1.9 1.4-1.2-.7-6.1.5-5.6 1.4.3.4 1.9.8 3.8.9 1.8.2 3.7.8 4.3 1.3.7.8.4.9-1.2.5-1.2-.4-2.4-.2-2.8.4-.3.5.1 1 .9 1 .9 0 1.6.4 1.6 1 0 1.8 1.7 1 2.7-1.2.9-2 1.7-2.2 7.4-2.3 4.9 0 6.3-.3 6.1-1.4-.2-.9.4-1.2 1.8-.8 1.1.3 2.2.2 2.5-.2.2-.5 2.6-.6 5.2-.4 3.4.3 5.8-.1 8.4-1.5 3.4-1.7 3.6-2 2.4-4.2-.7-1.3-1.5-1.8-1.9-1.2-.3.6 0 1.2.6 1.5.7.2 1 .7.7 1.1-.4.4-1.4 0-2.3-.9-1.7-1.8-3.6-1.2-3.6 1.1 0 2.2-5.7 1.8-7.2-.5-.9-1.5-1.4-1.7-2.4-.6-.9.8-2.9 1.1-5.7.8-2.4-.3-5.4 0-6.6.6-1.7 1-2.1.9-2.1-.4 0-1.5 1.6-2 5.8-1.6 1.2.1 2.2-.3 2.2-.8 0-1.7-4.4-1.8-7.3-.2-2.6 1.5-3 1.5-4.1 0-1-1.4-1.5-1.5-2.9-.4zm15 8.1c-.3.3-1.2.4-1.9.1-.8-.3-.5-.6.6-.6 1.1-.1 1.7.2 1.3.5z"/><path d="M284 545.6c0 .8.5 1.2 1 .9.6-.4.8-1.1.5-1.6-.9-1.4-1.5-1.1-1.5.7zm232.1.8c1.2 1 5.9 1.5 5.9.6 0-.5-1.4-1-3.2-1-1.7 0-2.9.2-2.7.4zm-29.6 1.6c-.4.6-.4 1-.1 1 .2 0 1.1.3 2 .6.9.3 1.6.2 1.6-.4 0-1.4-2.8-2.3-3.5-1.2zm37.5.5c0 .7.6 1.8 1.4 2.2.7.4 1.5 1.3 1.7 2 .3.8.9.9 1.8.4 1.8-1.2.5-3.1-2.1-3.1-1.7 0-1.8-.2-.8-1.5 1-1.2 1-1.5-.4-1.5-.9 0-1.6.7-1.6 1.5zm-32 1.7c0 1.9.2 2 1 .8 1.3-1.9 1.3-3 0-3-.5 0-1 1-1 2.2zm23 .3c0 1.2.4 1.3 1.9.5 2.5-1.3 4.4-1.3 3.6 0-.3.5-.2 1 .3 1 .6 0 1.2-.7 1.6-1.5.4-1.2-.3-1.5-3.4-1.5-2.9 0-4 .4-4 1.5zm16.7-.8c-.3.5 1.8.9 4.6 1 3.3.1 4.5-.2 3.6-.8-1.7-1.1-7.6-1.2-8.2-.2zM240 551.1c0 .7-1.1.9-2.6.6-3.4-.6-11 1.3-9.3 2.4.7.4 1.9.3 2.6-.2.6-.6 2.4-.9 4-.7 2.8.4 2.5.8-2.4 2.3-1.4.5-1.2.9 1.1 2 3.5 1.9 4.2 1.9 2.7.1-1.4-1.7.4-2.6 5.2-2.6 3.1-.1 6.7-1.9 6.7-3.4 0-.4-1.3-.5-3-.1-1.9.4-3 .3-3-.4 0-.6-.4-1.1-1-1.1-.5 0-1 .5-1 1.1zm16.4.3c-1.8 1.4-1.8 1.5-.1 2.1.9.4 2.4.2 3.2-.5 3.3-2.8.5-4.2-3.1-1.6zm249.4-.7c.7.3 1.6.2 1.9-.1.4-.3-.2-.6-1.3-.5-1.1 0-1.4.3-.6.6zm-6.1 2c-2.1 1.1-2.6 1.8-1.8 2.6.7.7 1.8.3 3.7-1.6 2.9-3 2.4-3.3-1.9-1zm48.1-1c.7.3 1.6.2 1.9-.1.4-.3-.2-.6-1.3-.5-1.1 0-1.4.3-.6.6zm7.2.3c0 .6 1.1.8 2.8.4 3.9-1 4-1.4.4-1.4-1.8 0-3.2.5-3.2 1zm10 0c.8.5 2.2.9 3 .9 1 0 .8-.3-.5-.9-2.7-1.2-4.3-1.2-2.5 0zm7.8.7c.7.3 1.6.2 1.9-.1.4-.3-.2-.6-1.3-.5-1.1 0-1.4.3-.6.6zM584 554c3.6 1.1 5.2 1.1 4.5 0-.3-.6-2.1-1-3.8-.9-3.1.1-3.1.1-.7.9zm7.8.2c.6.6 1.8.8 2.8.6 1.4-.3 1.2-.5-.9-1-1.9-.3-2.5-.2-1.9.4zm-90.8 2.4c-2.3 1.2-2.3 1.4-.4 1.4 1.1 0 2.4-.4 3-.9.5-.5 2.3-1.1 3.9-1.4 2.8-.4 2.8-.4-.5-.5-1.9 0-4.6.6-6 1.4zm-182 .5c0 .4.7 2.2 1.4 4.1.8 1.9 1.2 4.5.9 5.6-.4 1.8-1.3 2.2-5.2 2.3-2.5.1-5.2.1-6 0-3.1-.5.2 1.7 3.5 2.2 5.3.9 9.4-.2 9.4-2.4 0-1 .9-4.1 2-6.9 1.1-2.8 2-5.2 2-5.3 0-.1-1.8-.2-4-.2s-4 .2-4 .6zm219.3.6c.9.2 2.3.2 3 0 .6-.3-.1-.5-1.8-.5-1.6 0-2.2.2-1.2.5zm-311.5 1c.7.3 1.6.2 1.9-.1.4-.3-.2-.6-1.3-.5-1.1 0-1.4.3-.6.6zm113.7 1.3c.3.5.8 1 1.1 1 .2 0 .4-.5.4-1 0-.6-.5-1-1.1-1-.5 0-.7.4-.4 1zm-107 2c.4.6 1.1.8 1.6.5 1.4-.9 1.1-1.5-.7-1.5-.8 0-1.2.5-.9 1zm3.5 0c0 .5.5 1 1 1 .6 0 1-.5 1-1 0-.6-.4-1-1-1-.5 0-1 .4-1 1zm325 0c0 .5 1.2 1 2.8.9 2.4 0 2.5-.1.7-.9-2.7-1.2-3.5-1.2-3.5 0zm-350.5 1.9c-.6 1.1 3.3 3.6 4.2 2.7.7-.7-1.6-3.6-2.8-3.6-.4 0-1 .4-1.4.9zm-37.5 3c-3.1 2.6-3.3 3-1.7 3.6 1 .4 2.1.4 2.5 0 .4-.4.1-1-.6-1.2-.8-.3-.2-1.4 1.9-2.9 1.8-1.3 2.8-2.4 2.3-2.4s-2.5 1.3-4.4 2.9zm25.5-1c-.6 1.1.9 2.3 1.9 1.4.9-.9.7-2.3-.3-2.3-.6 0-1.2.4-1.6.9zm-31.5 2.6c-1.9 2.2-.8 2.5 1.3.3.9-1 1.3-1.8.8-1.8s-1.4.7-2.1 1.5zm17-.5c0 .5.5 1 1 1 .6 0 1-.5 1-1 0-.6-.4-1-1-1-.5 0-1 .4-1 1zm-29 2.9c0 1.8 1.8 2.1 3 .6 1-1.3.9-1.5-.9-1.5-1.1 0-2.1.4-2.1.9zm60 1.2c0 .5.5.7 1 .4.6-.3 1-.8 1-1.1 0-.2-.4-.4-1-.4-.5 0-1 .5-1 1.1zm-63.5.9c.3.5 1 1 1.6 1 .5 0 .9-.5.9-1 0-.6-.7-1-1.6-1-.8 0-1.2.4-.9 1zm12 0c.3.5.8 1 1.1 1 .2 0 .4-.5.4-1 0-.6-.5-1-1.1-1-.5 0-.7.4-.4 1zm241 4c.3.5 1.1 1 1.6 1 .6 0 .7-.5.4-1-.3-.6-1.1-1-1.6-1-.6 0-.7.4-.4 1zm-241 3c.3.5 1.1 1 1.6 1 .6 0 .7-.5.4-1-.3-.6-1.1-1-1.6-1-.6 0-.7.4-.4 1zm-133.4 4.1c-1.3.5-2.2 1.1-2 1.4.8.7 4.9-.7 4.9-1.6 0-.5-.1-.9-.2-.8-.2 0-1.4.5-2.7 1zm16.2-.4c-1.4.5-1.8 2.3-.5 2.3.5 0 1.7-.7 2.8-1.5 1.4-1.1 1.5-1.4.4-1.4-.8 0-2.1.3-2.7.6zM21 585c0 1.2 1.7 1.2 4.5 0 1.7-.7 1.5-.9-1.2-.9-1.8-.1-3.3.3-3.3.9zm95 .1c0 .5.5.7 1 .4.6-.3 1-.8 1-1.1 0-.2-.4-.4-1-.4-.5 0-1 .5-1 1.1zm11.7.5c.6 1.6 1.9 1.8 2.7.5.3-.5-.3-1.1-1.3-1.4-1.4-.3-1.8-.1-1.4.9zm4.3-.6c0 .5.7 1 1.5 1s1.5-.5 1.5-1c0-.6-.7-1-1.5-1s-1.5.4-1.5 1zm-8 6c0 .5.7 1 1.6 1 .8 0 1.2-.5.9-1-.3-.6-1-1-1.6-1-.5 0-.9.4-.9 1zm-40.5 7c-.3.5.1 1 .9 1 .9 0 1.6-.5 1.6-1 0-.6-.4-1-.9-1-.6 0-1.3.4-1.6 1zM56 602c0 1.1.2 2 .4 2s.6-.9.9-2c.3-1.1.1-2-.4-2s-.9.9-.9 2zm-24.8.1c-1.3.5-2.8.7-3.3.4-1.8-1.2-4.7 1.4-4.2 3.6.5 1.7.3 2-.8 1.4-1.2-.7-1.2-.5-.1.6.8.9 1.5 1 2 .4.9-1.2 4.4-1.6 3.6-.4-.3.5.4.9 1.6.9 1.7 0 2-.4 1.5-2s-.2-2 1.9-2c1.8 0 2.6.6 2.7 1.7 0 1.5.2 1.5.9-.2.5-1.2.9-1.4.9-.6.1 1.1.5 1.1 1.9-.2 1-1 3.1-1.7 4.7-1.7 2.3 0 2.6-.3 1.7-1.2-1.5-1.5-6.4-1.7-7.5-.3-.6.7-1 .6-1.4-.3-.5-1.4-2.8-1.5-6.1-.1zm19 3.1c.6 1.8 2.8 2.1 2.8.4 0-.9-.7-1.6-1.6-1.6-.9 0-1.4.5-1.2 1.2zm21.8-.4c0 .4 1.1.9 2.5 1 1.4.1 2.5-.3 2.5-.8 0-.6-1.1-1-2.5-1s-2.5.4-2.5.8z"/><path d="M40.7 605.6c-1.2 1.2.4 2.4 3.4 2.4 1.6 0 2.9-.4 2.9-1 0-.5-.6-.7-1.4-.4-.8.3-1.7.1-2.1-.5-.7-1.2-1.9-1.4-2.8-.5zm18.3.4c0 .5.5 1 1 1 .6 0 1-.5 1-1 0-.6-.4-1-1-1-.5 0-1 .4-1 1zm-41.8 5c0 1.9.2 2.7.5 1.7.2-.9.2-2.5 0-3.5-.3-.9-.5-.1-.5 1.8zm504 .8c-1.7.5 1.9 4.1 5.5 5.3 2.8.9 3.5.7 5.5-1.1 1.2-1.1 2.8-1.8 3.5-1.6.7.3 1.3.1 1.3-.4 0-.6-.8-1-1.7-1.1-1 0-4.3-.4-7.4-.8-3.1-.4-6.1-.5-6.7-.3zm-490.1 1.9c-.7 1.5-.4 1.8 1.9 1.9 2.5.1 2.7-.1 1.7-1.7-1.5-2.4-2.4-2.4-3.6-.2zm19.9-.8c-1.9.3-3 .9-2.4 1.3 1.1.7 8.4-.8 8.4-1.7 0-.6-1.1-.5-6 .4zm276 2.1c-1.2.8-1.1 1 .7 1 1.2 0 2.5-.5 2.8-1 .8-1.3-1.5-1.3-3.5 0zm-309.8 3c0 1.4.2 1.9.5 1.2.2-.6.2-1.8 0-2.5-.3-.6-.5-.1-.5 1.3zm-17.2.1c0 .5.5.7 1 .4.5-.3 1-.8 1-1.1 0-.2-.4-.4-1-.4-.5 0-1 .5-1 1.1zm19.8 4.6c.7.3 1.6.2 1.9-.1.4-.3-.2-.6-1.3-.5-1.1 0-1.4.3-.6.6zm354.9 4.1c-1.5.2-2.5.8-2.2 1.3.8 1.2 6.2 1.2 6.9 0 .8-1.2-1.2-1.7-4.7-1.3zm237.1-.1c.6.2 1.8.2 2.5 0 .6-.3.1-.5-1.3-.5-1.4 0-1.9.2-1.2.5zm-317.2 2.8c-1.7 1.7-3.6 2-3.6.5 0-.6-.4-1-1-1-1.4 0-1.2 1.1.5 3.4 1.4 1.9 1.5 1.9 4-.8 1.4-1.5 2.5-2.9 2.5-3.2 0-.8-.9-.4-2.4 1.1zm20.9-.5c-.3.5-.1 1 .4 1 .6 0 1.1-.5 1.1-1 0-.6-.2-1-.4-1-.3 0-.8.4-1.1 1zm304.3-.3c.7.3 1.6.2 1.9-.1.4-.3-.2-.6-1.3-.5-1.1 0-1.4.3-.6.6zm-378.6 1c-1.9.4-2 .6-.8 1.9 1.8 1.8 2.6 1.8 2.6 0 0-.8.8-1.7 1.8-1.9 2.2-.6-.5-.6-3.6 0zm66.8.3c0 .5.5 1 1 1 .6 0 1-.5 1-1 0-.6-.4-1-1-1-.5 0-1 .4-1 1zm-120.5 1c-.3.5.3 1 1.4 1 1.2 0 2.1-.5 2.1-1 0-.6-.6-1-1.4-1-.8 0-1.8.4-2.1 1zm24.4.3c-.9.7-1.8 2.1-2.1 3.2-.3 1.9-.4 1.9-2.3-.3-2.3-2.6-3.5-2.8-3.5-.7 0 .8-.5 1.5-1.1 1.5-.6 0-.9.8-.7 1.7.2 1 .7 1.6 1.2 1.5.5-.2 1.2.2 1.7 1 .6 1 1.1 1 2.1 0 .6-.6 2.2-1.2 3.5-1.2 2 0 2.2-.4 1.7-2.4-.4-1.6-.1-2.5 1-2.9.9-.4 1.6-1.1 1.6-1.7 0-1.3-1.1-1.2-3.1.3zm-3.9 5.6c0 .5-.9.7-2 .4-1.1-.3-2-.7-2-.9 0-.2.9-.4 2-.4s2 .4 2 .9zm8.5-5.9c.3.5.8 1 1.1 1 .2 0 .4-.5.4-1 0-.6-.5-1-1.1-1-.5 0-.7.4-.4 1zm7.7 1c-1.6 2.5-1.5 3 .3 3 .9 0 1.2-.6.9-1.5-.4-.9 0-1.5 1-1.5.9 0 1.6-.5 1.6-1 0-1.7-2.5-1.1-3.8 1zm401.3-1c.3.5.8 1 1.1 1 .2 0 .4-.5.4-1 0-.6-.5-1-1.1-1-.5 0-.7.4-.4 1zm-522.1 1.1c-.4.7.2.9 1.6.7 1.7-.2 2.4.3 2.6 1.9.4 2.4-1.6 3.6-3.7 2.2-1.2-.7-1.2-.9.1-.9 1.1 0 1.1-.3.2-1.2-.9-.9-1.6-.7-3.2.7-2 1.8-2.7 4.5-1.2 4.5.4 0 1.3-.5 2-1.2.9-.9 1.2-.9 1.2 0 0 1.8 5 1.5 5.7-.4.3-.8 1.2-1.3 1.9-1 2.3.9 1.6-1.2-1.3-3.9-3-2.7-4.8-3.1-5.9-1.4zm14.9-.4c-1.7.6-1.6 2.3.1 2.3.7 0 2.1 1.1 3 2.5 1.5 2.3 1.5 2.5.1 2.5-.9 0-1.4-.4-1-.9.3-.5.1-1.2-.5-1.6-.5-.3-1 .3-1 1.4 0 1.4.6 2.1 2 2.1 3 0 3.8-3 1.3-4.9-1.1-.9-1.8-2.2-1.5-2.9.4-1.2-.4-1.4-2.5-.5zm4.4 0c-.8.7 1.1 4.3 2.2 4.3 1 0 .3-3.8-.9-4.5-.4-.2-1-.2-1.3.2zm4.3.5c.1 1.8 2.9 5.3 3.6 4.5.4-.4.1-1.3-.6-2.2-.7-.8-.8-1.5-.2-1.5.5 0 1.2.7 1.6 1.5.3.8 1.5 1.5 2.6 1.5 3.4 0 2.2 1.9-1.7 2.6-2.5.5-3.8.3-4.1-.5-.5-1.6-2.2-1.4-2.2.4 0 1.1 1.3 1.5 5.4 1.5 6.2 0 7.6-1.6 4.4-5-3.1-3.4-8.8-5.2-8.8-2.8zm11.5-.2c-.3.5.1 1 .9 1s1.8-.5 2.1-1c.3-.6-.1-1-.9-1s-1.8.4-2.1 1zm5.5-.4c0 .3.7 1.2 1.6 2.1 1.4 1.4 1.7 1.4 3.2-.2 1.6-1.6 1.6-1.7-.5-1-1.4.4-2.3.2-2.3-.4 0-.6-.4-1.1-1-1.1-.5 0-1 .3-1 .6zm14.5.4c.3.5.8 1 1.1 1 .2 0 .4-.5.4-1 0-.6-.5-1-1.1-1-.5 0-.7.4-.4 1zm5.1.6c-.9 2.4-.7 2.8.9 1.4 1.7-1.4 2-3 .6-3-.5 0-1.2.7-1.5 1.6zm3.4-.8c0 .4 2 .6 4.5.4 3.7-.3 4.4-.1 3.9 1.1-.4 1-1.6 1.4-3.9 1.3-1.9-.2-3.2 0-3 .4.6 1 5.6.7 7.3-.3.6-.5 1.7-.5 2.3-.2.5.4 1.8 0 2.7-.8.9-.8 2.4-1.7 3.2-2 1-.4.8-.6-.6-.6-1.2-.1-2.7.6-3.4 1.4-1.2 1.4-1.5 1.4-3 0-1.7-1.5-10-2.2-10-.7zm27.3-.1c.9.2 2.5.2 3.5 0 .9-.3.1-.5-1.8-.5-1.9 0-2.7.2-1.7.5zm149.7.4c0 .5.5.7 1 .4.6-.3 1-.8 1-1.1 0-.2-.4-.4-1-.4-.5 0-1 .5-1 1.1zm274-.1c-.8.5-1 1-.5 1 .6 0 1.7-.5 2.5-1s1.1-1 .5-1c-.5 0-1.7.5-2.5 1zm-540 1c0 .5 1.2 1 2.6 1 1.4 0 2.3-.4 1.9-1-.3-.6-1.5-1-2.6-1-1 0-1.9.4-1.9 1zm7 0c0 .5.5 1 1 1 .6 0 1-.5 1-1 0-.6-.4-1-1-1-.5 0-1 .4-1 1zm10 0c-.9.6-1 1-.3 1 .6 0 1.5-.5 1.8-1 .8-1.2.4-1.2-1.5 0zm4 .5c-.7.8-.9 1.5-.6 1.5.4 0 1.4-.7 2.2-1.5.9-.8 1.1-1.5.6-1.5-.5 0-1.5.7-2.2 1.5zm14 0c-1.4 1.6-1 1.8 1.4.9.9-.3 1.6-1 1.6-1.5 0-1.4-1.6-1.1-3 .6zm21.8-.8c.7.3 1.6.2 1.9-.1.4-.3-.2-.6-1.3-.5-1.1 0-1.4.3-.6.6zm17.8.2c-.4.5.3.7 1.4.4 2.3-.6 2.6-1.3.6-1.3-.8 0-1.7.4-2 .9zm67.4.1c0 .5.5 1 1 1 .6 0 1-.5 1-1 0-.6-.4-1-1-1-.5 0-1 .4-1 1zm38.8.2c.9.9 1.5.9 2.4 0 .9-.9.7-1.2-1.2-1.2s-2.1.3-1.2 1.2zm35.5 1.8c-.9 1.6-2.9 3.4-4.3 4l-2.5 1 2.5-.6c1.4-.3 3.4-.7 4.5-.7 1.1-.1 2.5-.5 3.1-.9.6-.4 2.3-.5 3.7-.3 1.4.3 2.9.1 3.2-.5.3-.5 0-1-.7-1.1-.7 0-2.4-.2-3.7-.5-1.4-.2-2.8.1-3.2.8-1.3 2.1-2.1.1-.9-2.1 1.7-3.2.3-2.5-1.7.9zm99.8-1.4c0 1.1.3 1.4.6.6.3-.7.2-1.6-.1-1.9-.3-.4-.6.2-.5 1.3zm123.4-.6c.3.5.8 1 1.1 1 .2 0 .4-.5.4-1 0-.6-.5-1-1.1-1-.5 0-.7.4-.4 1zm62.6-.2c-1.9.6-5.1 3.5-5.1 4.4 0 1.5 1.7.8 4.5-1.8s3-3.5.6-2.6zM9 634.4c1.7 1.7 1.1 2.8-1 2.1-1.1-.4-2-.2-2 .4 0 .6-1.1 1.1-2.4 1.1-3.4 0-4 1.5-.8 1.7 1.4 0 3.2-.6 3.9-1.5.9-1.3 1.2-1.3 1.3-.3 0 .8.7 1.1 2 .8 1.3-.3 1.8-.1 1.3.6-.4.7 0 .8 1.1.4 1-.4 2-.7 2.2-.7.2 0 .4-.5.4-1.1 0-.5-.4-.7-1-.4-.5.3-1 .1-1-.4 0-.6.4-1.1.9-1.1 1.4 0 3.1 2.6 2.3 3.6-.4.5.2.1 1.4-.9 2.5-2.1 4.1-2.3 2.5-.3-1 1.2-.8 1.4 1.6 1.1 1.5-.2 3-.5 3.3-.6.3-.1 1.1-.3 1.9-.3.8-.1 1.6-.7 1.9-1.5.3-1-.1-1.2-1.7-.8-1.4.3-2.1 0-2.1-.9 0-.8-.6-1.4-1.4-1.4-.8 0-2.2-.3-3.2-.7-1.3-.5-1.6-.3-1.1 1 .3.9.2 1.7-.3 1.7-.6 0-1-.4-1-.9s-2.2-1.1-5-1.3c-3.1-.2-4.6 0-4 .6zm15 2.6c0 .5-.5 1-1.1 1-.5 0-.7-.5-.4-1 .3-.6.8-1 1.1-1 .2 0 .4.4.4 1zm5-2.5c0 .8.4 1.5.9 1.5s1.4-.7 2.1-1.5c1-1.3.9-1.5-.9-1.5-1.2 0-2.1.6-2.1 1.5zm12.8-.8c.7.3 1.6.2 1.9-.1.4-.3-.2-.6-1.3-.5-1.1 0-1.4.3-.6.6zm2.3 1.3c-1.3 1.1-1.9 2-1.4 2 .6 0 1.8-.9 2.8-2 2.3-2.5 1.7-2.5-1.4 0zm4.9-1c0 .5-1 1.8-2.2 3-1.2 1.1-1.8 2-1.2 2 1.3-.1 5-3 3.8-3.1-.5 0 .5-.7 2.1-1.4l3-1.4-2.7-.1c-1.6 0-2.8.4-2.8 1zm11 0c0 .5.7 1 1.5 1s1.5-.5 1.5-1c0-.6-.7-1-1.5-1s-1.5.4-1.5 1zm246 0c0 .5.5 1 1.1 1 .5 0 .7-.5.4-1-.3-.6-.8-1-1.1-1-.2 0-.4.4-.4 1zm34 .5c0 .8.7 1.5 1.6 1.5 1.4 0 1.4-.3.4-1.5-.7-.8-1.4-1.5-1.6-1.5-.2 0-.4.7-.4 1.5zm270.9.2c-1.3 1.7-1.3 1.7.6.3 1.1-.8 2.2-1.6 2.4-1.7.2-.2 0-.3-.6-.3s-1.7.8-2.4 1.7zM0 635.7c0 1.4.2 1.5.9.4.5-.7 1.3-1.1 1.8-.8.5.3 1.5.2 2.3-.4 1.1-.6.6-.9-1.7-.9-2.5 0-3.3.4-3.3 1.7zm139-.7c0 .5.4 1 .9 1 .6 0 1.3-.5 1.6-1 .3-.6-.1-1-.9-1-.9 0-1.6.4-1.6 1zm10.6-.1c-.3.5.1 1.4.8 2 1.2 1 1.3.8.9-.8-.6-2.3-.9-2.5-1.7-1.2zm46.9.6c-1.6.7-2.4 1.4-1.7 1.4.7.1 1.1.5.7 1-.3.5 0 1.3.6 1.7.6.3 1.5.1 1.9-.6.4-.7 1.3-.9 1.9-.6.6.4 1.1.2 1.1-.3 0-.6-.8-1.1-1.7-1.1-1.6-.1-1.6-.2.1-1.5 2.4-1.9 1.1-1.9-2.9 0zm-130 .5c-.3.5.1 1 1 1s1.3-.5 1-1c-.3-.6-.8-1-1-1-.2 0-.7.4-1 1zm4.5.5c-.8.9-.8 1.5-.2 1.5 1.2 0 2.6-1.9 1.9-2.6-.2-.2-1 .2-1.7 1.1zm18 0c0 .8 0 1.8-.1 2.2 0 .4.3.9.8 1 .4.2.9-.8.9-2.2.1-1.4-.2-2.5-.7-2.5-.5 0-.9.7-.9 1.5zm64.6-.6c-.7 1 2.2 3.7 3 2.8.4-.3-.1-1.3-.9-2.2-.9-.8-1.8-1.1-2.1-.6zm28.9.1c-.3.5.1 1 .9 1 .9 0 1.6-.5 1.6-1 0-.6-.4-1-.9-1-.6 0-1.3.4-1.6 1zm96.5.5c0 .8.4 1.5 1 1.5.5 0 .7-.7.4-1.5-.4-.8-.8-1.5-1-1.5-.2 0-.4.7-.4 1.5zm75-.1c0 .9.5 1.6 1 1.6.6 0 1-.4 1-.9 0-.6-.4-1.3-1-1.6-.5-.3-1 .1-1 .9zm117.2.6c.7 1.1 1.6 2 2 2 .5 0 .3-.9-.4-2s-1.6-2-2-2c-.5 0-.3.9.4 2zm160.8.1c-1.6 2.9-.9 3 2 .3 2-1.9 2.1-2.4.8-2.4-1 0-2.2.9-2.8 2.1zm-601.5.5c-.9.9-1.3 1.9-1 2.3.4.3 1.2-.1 1.8-.9.7-.9 2-1.4 3-1.2.9.2 1.7-.1 1.7-.7 0-1.7-3.7-1.3-5.5.5zm47.5-.7c0 .8-.7 1.1-1.5.7-.8-.3-1.5-.1-1.5.4s-1 1.1-2.2 1.3c-1.3.2-.6.4 1.4.4 3.4 0 5.8-2 4.3-3.5-.3-.3-.5 0-.5.7zm161-.2c0 .9 3.1 3.5 3.6 3.1.9-.9-.7-3.5-2.1-3.5-.8 0-1.5.2-1.5.4zm25 .3c0 .5.5 1 1.1 1 .5 0 .7-.5.4-1-.3-.6-.8-1-1.1-1-.2 0-.4.4-.4 1zm19 .1c0 .5.5.7 1 .4.6-.3 1-.8 1-1.1 0-.2-.4-.4-1-.4-.5 0-1 .5-1 1.1zm83-.1c0 1.3 1.1 1.3 3 0 1.2-.8 1.1-1-.7-1-1.3 0-2.3.4-2.3 1zm218.4-.1c.5.8.3 1.7-.5 2.2-1 .6-.8.9.9.9 2.6 0 2.8-1.2.5-3.1-1.4-1.2-1.5-1.2-.9 0zm30.2.7c-.8 2.1-.1 2.8 1.9 2 .9-.3 1.5-1.1 1.3-1.8-.7-1.9-2.5-2-3.2-.2zm11-.1c-1.1.8-1.8 1.7-1.5 1.9.7.7 4.9-1.3 4.9-2.4 0-1.4-1.1-1.2-3.4.5zM85 638c0 .5.5 1 1 1 .6 0 1-.5 1-1 0-.6-.4-1-1-1-.5 0-1 .4-1 1zm7.7.5c-.5 1 0 1.5 1.4 1.5 1.2 0 1.9-.5 1.7-1.2-.6-1.8-2.5-2-3.1-.3zm21-.8c-1.4 1.3-.6 2.3 1.9 2.3 2.3 0 2.4-.2 1-1.5-1.6-1.7-2-1.8-2.9-.8zm32.5.4c.2.7 1 1.5 1.7 1.7.8.3 1.2-.1.9-.9-.2-.7-1-1.5-1.7-1.7-.8-.3-1.2.1-.9.9zm14 .3c1.3 1.4 2.8 1.2 2.8-.5 0-.5-.9-.9-2-.9-1.7 0-1.9.2-.8 1.4zm4.5-.1c-.3.8.8 1.3 3.4 1.3 2.4.1 3.9-.3 3.9-1.1 0-1.6-6.7-1.8-7.3-.2zm55.3-.3c0 1.1 4.8 2.5 5.6 1.7.4-.3.3-1.1-.1-1.7-.6-.9-1-.9-1.6.1-.6 1-.9 1.1-.9.1 0-.6-.7-1.2-1.5-1.2s-1.5.4-1.5 1zm15.5 0c.3.5.8 1 1.1 1 .2 0 .4-.5.4-1 0-.6-.5-1-1.1-1-.5 0-.7.4-.4 1zm72.5 0c-.8.5-1.1 1.2-.7 1.6.4.4 1.3.2 1.9-.4 1.5-1.5.7-2.4-1.2-1.2zm15-.6c0 .2.7.9 1.5 1.6 1.3 1.1 1.4 1 .9-.4-.5-1.4-2.4-2.3-2.4-1.2zm124.5.6c-.3.5-.1 1 .4 1 .6 0 1.1-.5 1.1-1 0-.6-.2-1-.4-1-.3 0-.8.4-1.1 1zm80 0c.3.5 1.3 1 2.1 1s1.2-.4.9-1c-.3-.6-1.3-1-2.1-1s-1.2.4-.9 1zm38.1.5c-.3.8-.1 1.5.3 1.5.5 0 1.1-.7 1.5-1.5.3-.8.1-1.5-.3-1.5-.5 0-1.1.7-1.5 1.5zm14.9-.5c.3.5.8 1 1.1 1 .2 0 .4-.5.4-1 0-.6-.5-1-1.1-1-.5 0-.7.4-.4 1zm58.1-.1c-.4.7-.5 1.5-.2 1.8.9.9 1.9-.4 1.4-1.8-.4-1.1-.6-1.1-1.2 0zM64.5 639c-.3.5-.1 1 .4 1 .6 0 1.1-.5 1.1-1 0-.6-.2-1-.4-1-.3 0-.8.4-1.1 1zm109.5.1c0 .5.5.7 1 .4.6-.3 1-.8 1-1.1 0-.2-.4-.4-1-.4-.5 0-1 .5-1 1.1zm55-.1c0 .5.5 1 1 1 .6 0 1-.5 1-1 0-.6-.4-1-1-1-.5 0-1 .4-1 1zm23.5 0c-.3.5-.1 1 .4 1 .6 0 1.1-.5 1.1-1 0-.6-.2-1-.4-1-.3 0-.8.4-1.1 1zm3.5 0c-1.3.8-1.3 1 .2 1 .9 0 2-.5 2.3-1 .8-1.3-.5-1.3-2.5 0zm107.5 0c.3.5.8 1 1.1 1 .2 0 .4-.5.4-1 0-.6-.5-1-1.1-1-.5 0-.7.4-.4 1zm105 0c.3.5.8 1 1.1 1 .2 0 .4-.5.4-1 0-.6-.5-1-1.1-1-.5 0-.7.4-.4 1zm89 0c-3 .8-3 .8.8.9 2 0 3.7-.4 3.7-.9 0-1.1-.2-1.1-4.5 0zm32.1.1c.6 1.1 5.4 1.2 5.4.1 0-.4-1.3-.7-3-.8-1.6-.1-2.7.3-2.4.7zm15.4-.1c0 .6.7 1 1.5 1s1.5-.2 1.5-.4-.7-.6-1.5-1c-.8-.3-1.5-.1-1.5.4zm-524.7.7c.9.2 2.3.2 3 0 .6-.3-.1-.5-1.8-.5-1.6 0-2.2.2-1.2.5zm109.5 0c.6.2 1.8.2 2.5 0 .6-.3.1-.5-1.3-.5-1.4 0-1.9.2-1.2.5zm179 0c.7.3 1.6.2 1.9-.1.4-.3-.2-.6-1.3-.5-1.1 0-1.4.3-.6.6zm241 0c.7.3 1.6.2 1.9-.1.4-.3-.2-.6-1.3-.5-1.1 0-1.4.3-.6.6z"/></svg>