<svg version="1.0" xmlns="http://www.w3.org/2000/svg" width="853.333" height="853.333" viewBox="0 0 640 640"><path d="M435.5 1.3c-.4 1-1.4 1.6-2.1 1.3-.8-.3-1.4-.1-1.4.4 0 .6-1.1 1-2.5 1-1.6 0-2.5.6-2.5 1.5 0 1.1-.7 1.4-2.4.9-2.4-.6-15.8 3.4-16.4 4.8-.2.5-1 .8-1.7.8s-2.2 1.2-3.3 2.7c-2 2.7-2.3 2.8-14.9 3.4-7 .3 42.4.6 110 .7L621 19l.2 9.7c0 5.4.1 10.3.1 10.9 0 .7 2.1 1.2 5.5 1.3 3 0 6.1.6 6.9 1.3 1.1.9 1.6.9 2.3-.1.5-.9 1-1 1.4-.2 1.9 3.1 2.4-.7 2.5-20.4l.2-21.5H542c-63.4 0-98 .4-98 1s-.7 1-1.5 1-1.5.4-1.5.9c0 1.6-3.9 0-4.3-1.8-.3-1.4-.5-1.4-1.2.2z"/><path d="M439.5 1c-.3.5-.2 1 .4 1 .5 0 1.3-.5 1.6-1 .3-.6.2-1-.4-1-.5 0-1.3.4-1.6 1zm-58 21.9c4.4.3 8.6 1 9.4 1.5 1 .6 1.2.6.7-.3-.6-.9.5-1.1 4.2-.9 3.9.2 4.8.6 4.5 1.9-.6 2.3 1.7 3.6 2.9 1.5 1.1-2 3.8-2.1 3.8 0 0 .8.4 1.3.9 1 1.5-1 4.1.5 4.1 2.3 0 .9 1.2 2.1 2.6 2.8 2.2 1 2.5 1 2-.3-.4-.9.1-1.4 1.5-1.4 1.1 0 1.8.4 1.4.9-.3.5-.1 1.2.4 1.5.5.4 1.2.2 1.6-.4.8-1.3 6.5-1.3 6.5.1 0 .6.6.9 1.3.6.6-.2 1.1-1 .9-1.6-.1-.6.9-1.1 2.2-1.1 1.4 0 2.6-.6 2.9-1.3.2-.6.2-.2 0 1-.2 1.3.1 2.3.7 2.3.5 0 1-.5 1-1 0-.6.5-1 1.1-1 .5 0 .7.4.4 1-.3.5-.1 1 .4 1 .6 0 1.1-.6 1.1-1.3 0-.9.2-.9.8.1.5.6 1.9 1.1 3.3 1.1 1.3-.1 2.9-.1 3.4.1 2 .5 3.6 0 3-1-.3-.6.4-1 1.7-1 1.7 0 1.9.3.9.9-2.1 1.4.2 2 5.4 1.5 3.3-.3 5.1 0 5.7.8.6 1 .8 1 .8 0 0-.6.9-1.2 2-1.2s1.9-.3 1.9-.8c-.4-2.1.2-2.4 1.4-.8 1.1 1.6 1.7 1.7 3.6.7 2.4-1.3 5.3-.7 7.6 1.5.8.9 2 1.2 2.6.8.8-.4.7-.9-.2-1.6-.9-.6-.2-.7 2.1-.3 4.9.9 24.9 1.2 24.4.4-.2-.4.8-.9 2.3-1.2 2.4-.4 2.6-.4 1 .8-2.3 1.6-2.2 2.8.1 1.6 1.1-.6 2.4-.6 3.2-.1.8.5 6.3.7 12.2.4 9.7-.5 10.8-.4 10.8 1.2 0 1.3.3 1.4 1.5.4.8-.7 1.5-.9 1.5-.5s.7.2 1.5-.5c1.1-1 1.8-1 2.9-.1.8.7 2.5.9 3.9.5 1.4-.3 3.2-.2 3.9.2 2.5 1.6 4.8 1.4 4.8-.4 0-1.3.2-1.4.9-.4.5.8 2.6 1.5 4.7 1.7 2.2.1 7.7.6 12.4 1s9.4.8 10.5.8c1.1.1 2.3.6 2.7 1.1.5.7.8.7.8-.2 0-.6.7-1.2 1.5-1.2s1.5.4 1.5 1c0 .5 1.2 1 2.6 1 1.4 0 2.3-.3 2.1-.8-.3-.4 1.5-.7 3.9-.7 2.5 0 4.3.4 4 1-.2.5 1 1 2.6 1.1 2 .1 2.5-.2 1.6-.7-1-.7-1-.9.3-.9.8 0 2 .5 2.7 1.2.7.7 1.2.8 1.2.4 0-.5.7-.3 1.5.4 1.3 1.1 1.5 0 1.5-8.9V22l-122.7.2c-67.6.1-119.2.4-114.8.7z"/><path d="M406.6 29.9c-.3.5.1 1.1.9 1.5.8.3 1.5.1 1.5-.4 0-1.3-1.8-2.2-2.4-1.1zm25.4 3.6c0 .8.2 1.5.4 1.5s.6-.7 1-1.5c.3-.8.1-1.5-.4-1.5-.6 0-1 .7-1 1.5zm61.5 10.6C459.6 45.5 436 48 415 52.5c-5.5 1.2-5.5 1.2-1.8 1.6 2 .3 3.4.1 3.2-.3-.3-.4.2-.8 1.1-.8.9 0 1.4.4 1.1.8-.2.4.8.9 2.4 1 1.7.1 3-.4 3.4-1.3.6-1.7 4.3-2 6.6-.5.9.5 1.9.5 2.7-.1.6-.6 2.1-.8 3.3-.4 1.2.4 2.8.1 3.6-.6 1.1-.9 1.7-1 2.2-.2.8 1.2 4.3 1.3 5.2.1.3-.3 2.5-.3 4.9.2 2.4.4 5.8.4 7.5-.1 4-1.2 3.9-1.2 3.2.7-.5 1.3-.3 1.4.7.6.7-.6 4.2-1.3 7.7-1.6 3.6-.3 8.5-.8 10.9-1.2 3.2-.5 4.5-.3 5.2.7.6.9 1.2 1 1.7.4 1.1-1.6 6.2-1.2 6.2.4 0 1.1.4.9 1.4-.5 1.1-1.4 1.7-1.6 2.7-.7.9.9 1.8.9 3.6 0 2.1-.9 2.7-.8 3.9.8 1.3 1.8 1.4 1.8 3.4 0 1.8-1.6 2.5-1.4 2.1.7 0 .5 1.3.8 2.9.8 3.8 0 3.9 1.7.3 2.3-1.6.2.4.4 4.2.4 3.9 0 5.3-.2 3.3-.4-2.4-.3-3.8-.9-3.8-1.8s.6-1.2 1.5-.9c.8.4 1.5.1 1.5-.5s1.2-1.1 2.6-1.1c1.4 0 2.3.4 1.9 1-.3.5-.1 1 .5 1 .7 0 1 .6.7 1.4-.6 1.4 4.9 1.9 41.3 3.2 9.1.3 23.5 1.2 32 2s15.8 1.4 16.3 1.4c.4 0 .7-3.1.7-6.8v-6.8l-20.7-1.2c-55.1-3.3-67.6-3.5-104.8-2.1zM533 54c0 .5-.4 1-.9 1-.6 0-1.3-.5-1.6-1-.3-.6.1-1 .9-1 .9 0 1.6.4 1.6 1zm7-.6c0 .2-1.1.6-2.5.8-1.4.3-2.5.1-2.5-.3 0-.5 1.1-.9 2.5-.9s2.5.2 2.5.4zm81 .7v6.8l4.3.5c2.3.3 6.6.7 9.5 1l5.2.5V48l-3.7-.1c-2.1 0-6.4-.2-9.5-.3l-5.8-.2v6.7z"/><path d="M426 53.9c0 1 2.6.9 3.6-.2.4-.4-.2-.7-1.4-.7s-2.2.4-2.2.9zM406.5 55c.3.5.8 1 1.1 1 .2 0 .4-.5.4-1 0-.6-.5-1-1.1-1-.5 0-.7.4-.4 1zm-49.2 87.2c.2.7 1 1.3 1.8 1.3 1.4 0 3.9 1.9 3.9 2.9 0 1.1-6.5-.7-7.6-2-.6-.8-1.6-1.4-2.3-1.4-1.6 0-1.3 2.7.4 3.4.8.3 1.5 1 1.5 1.6 0 .5-.7 1-1.5 1s-1.5.4-1.5 1c0 .5 1.1 1 2.4 1 1.4 0 2.8.5 3.2 1.1.4.8-.1.9-1.7.5l-2.4-.7 2.4 2c2 1.8 2.1 2.1.5 2.1-1.3 0-1.5.3-.7 1.1s1.7.8 3.2 0c2.1-1.2 3.1.2 1.1 1.4-.5.3-1 1.3-1 2.1 0 1.1.4 1.2 1.9.4 1.1-.5 2.7-1 3.5-1 1.4 0 1.4.3-.1 2-1 1.1-2.4 2-3.3 2-1.3 0-1.3.1 0 1 1.1.7 1.8.5 2.6-.5 1.4-1.8 4.2-2 4.1-.3-.1 3.4.4 4.8 1.8 4.8.8 0 1.5.7 1.5 1.5s-.4 1.5-1 1.5c-.5 0-1 .7-1 1.5s.5 1.5 1 1.5c.6 0 1-.5 1-1 0-.6.5-1 1.1-1 2.3 0 .1 2.5-2.3 2.6-1.8.1-2.5-.3-2.1-1.3.7-1.7-.7-1.6-3 .1-1.3 1-1.5 1.5-.5 1.9.7.2.1.4-1.4.3-2.9-.1-3.7-1.1-1.5-1.9.6-.2.9-.7.6-1.1-1.1-1.1-3.8.5-3.2 2 .3.9-.2 1.4-1.8 1.5-2.2.1-2.2.2.6 1.4l3 1.4-2.7.1c-3.9 0-5.8-1-5.8-3.1 0-1.2.7-1.9 1.9-1.9 1.1 0 2.3-.5 2.6-1 1.1-1.7-2.3-1.1-5.7 1.1-1.8 1.2-2.5 1.9-1.5 1.5 1.2-.4 1.7 0 1.7 1.3 0 1.1-.6 2.1-1.2 2.4-.8.2-.9.8-.4 1.3s1 .4 1.3-.2c.5-1.4 7.6 0 8.1 1.6.2.6 1.1 1.7 1.9 2.6 1.4 1.3 1.4 1.7-.1 3.3-2.3 2.5-2 3.2.9 1.9 1.4-.6 2.5-1.7 2.5-2.5 0-.7.7-1.3 1.5-1.3 2 0 1.9 1.7-.2 2.9-1.6.9-1.6 1.2-.3 2.1 1.2.9.9 1-1 .4-2.3-.6-2.4-.6-1 1.1 1.1 1.4 1.2 1.9.3 2.2-1.4.5-1.8 3.3-.5 3.3 1.4 0 0 8.8-1.5 9.5-1.2.4-1.3.2-.6-.7 1.2-1.4 1.1-6.7-.1-8.6-.5-.9-1.2-.8-2.4.4-1.5 1.5-1.5 1.7.1 2.9 1.4 1 1.6 2.3 1.1 7.4-.8 6.8-2.4 8.3-2.4 2.1 0-2.2-.4-4-1-4-.5 0-1 1.8-1 3.9 0 2.2-.3 4.1-.7 4.4-.5.2-.2.2.6 0s1.8.2 2.2.8c.5.9 1.1.8 2.3-.3.8-.9 1.3-1.8 1-2.1-.3-.3-.3-1.5.1-2.6.7-2.5 3-2.8 3.9-.6.3.9 2.2 2.3 4.1 3.1 4 1.6 3.9 1.6 2.3 6.1-1 2.7-1.7 3.3-4 3.3-1.5 0-2.8.4-2.8.9 0 1.5-3.3 2.2-4.2.9-.6-.9-.8-.7-.4.7.5 1.9 0 2-8.2 2.2-7.6.2-17.9 1.9-26.2 4.3-1.4.3-2.5 1.3-2.5 2.1-.1.8-.6 1.3-1.3 1.2-.7-.2-1.2.4-1.2 1.2 0 .8-.6 1.2-1.4.9-1.8-.7-3 2.8-2.2 6.4.4 1.8.4 2.2-.2 1.3-1.3-1.8-2.2 0-1.5 2.7.6 2.3 1.8 2.8 2.8 1.2.4-.6 1.1-.8 1.6-.5.5.4.9.2.9-.2 0-.5 2.1-1.4 4.8-2 2.6-.7 6.7-1.8 9.2-2.4 2.5-.7 5.2-1.4 6-1.7 8.8-3.2 24.7-2.7 25.8.7.6 1.7-2.9 5.3-4.5 4.7-.7-.3-1.9.2-2.8 1-1.2 1.2-1.5 1.3-1.5.2 0-.8-.9-1.4-2-1.4s-2 .4-2 .9-.6.4-1.4-.2c-1-.9-1.6-.8-2.6.4-1.3 1.5-3.5 1.1-2.5-.6.4-.5.2-.9-.4-.9-.5 0-1.3 1-1.7 2.2l-.6 2.1-1.3-2.4-1.3-2.4-1 3.5c-.7 2.6-1.1 3.1-1.6 1.9-1-2.4-4.5-1.2-5.2 1.7-.3 1.3-1.1 2.4-1.8 2.5-1.9.1-4.8.7-5 1.1-.1.2-.6 1.6-1.2 3.3-.7 2.1-1.6 3.1-3.4 3.2-1.4.1-2 0-1.3-.3.8-.4.7-1.1-.5-2.5-2.2-2.5-3-2.4-5.4.6-1.1 1.4-2.6 2.5-3.3 2.5-.8 0-2.2 1.3-3.2 3-.9 1.6-2.2 3-2.7 3s-.6.3-.3.6c.4.4-.3 1.5-1.5 2.5-1.4 1.3-1.7 1.9-.7 2 .8 0 .4.5-.9 1.1-1.2.6-2.1 1.6-1.8 2.2.2.6-.7 3-2.1 5.4-2.8 4.8-3.7 10-2.1 11.9 1.6 1.9 1.6 7.6 0 9.2-1.3 1.3-1.1 1.7.9 3.4 2.2 1.7 2.2 1.9.4 1.7-3.3-.4-3.6-.1-1.8 2 2.1 2.5 3 2.5 3.6.2.3-.9.3.2 0 2.5-.4 2.7-.2 4.3.5 4.3.6 0 1.2-.4 1.4-.9.2-.5.9-.3 1.6.5 1.1 1.2 1 1.4-.5 1.5-1 .1-.4.5 1.2.9l3 .7-2.5 1.1c-2.1.9-1.8 1 2.5.7 4.9-.5 4.9-.4-1.4 1-9.7 2.3-13.6 4.4-13.7 7.7-.1 2.9 2.3 5.2 6.1 6 1.4.2 2 1.2 2 2.8 0 1.8.6 2.6 2.3 2.8 1.2.2 2.2 1 2.2 1.8s.5 1.4 1 1.4c.6 0 1 1.1 1 2.5 0 1.7-.5 2.5-1.8 2.5-1 0-2.2.4-2.7.9-.6.6-2.1 1.2-3.5 1.4-1.4.2-3.3.7-4.2 1.1-.9.4-2.2.5-2.8.1-.5-.3-1 0-1 .8s-.7 1.7-1.5 2.1c-4.3 1.6 2.7 4.9 9.5 4.5 9.4-.7 11.5-.4 11.8 1.6.8 4.8 1.4 5 3.3 1.2 1.5-2.9 2.5-3.7 4.7-3.7 2.6 0 2.7.2 2.6 5.2-.1 2.9-.5 6.1-.9 7-.4 1-.3 1.8.1 1.8 2.1-.1 2.9-1.8 3-6.1.1-6.8 4.7-10.8 7.6-6.5 1.1 1.6 0 6.7-1.7 8-1.4 1-1.4 1.2.6 1.3 3.7.3 25.7-6.3 27.4-8.2 1.7-1.9 4.5-2.6 4.5-1.2 0 .7-1.7 2-3.7 2.9-4.4 1.8-22.7 7.5-26.3 8.2-1.4.3-5.5 1.2-9.3 2.1-9 2.1-24.7 2.7-24.7.8 0-1.1-.4-1.1-2-.1-1.1.7-2 1.7-2 2.2 0 .4.6.3 1.4-.3 1.1-.9 1.5-.8 2 .5.8 2.2.9 2.2-1.6 1.9-1.3-.1-3-.3-3.9-.4-1.2-.1-1.8-1.4-2.1-4.9-.5-4.9-2.5-10-5.7-14.1-2.6-3.4-11.4-3.9-13.6-.8-.8 1.1-2.4 2.1-3.7 2.2-1.3.1-2.2.8-2 1.4.1.6-.2 1.1-.6 1.1-.5 0-2.3 1.3-4 2.9-2.3 2-3 3.3-2.6 4.6.5 1.1.3 1.6-.2 1.2-1-.5-4 3.5-4.4 5.8-.1.5-.6 1.5-1.2 2.2-1.8 2.2-3.8 11.5-2.8 13.4 1.5 2.8 1.2 5.2-.5 4.5-2.1-.8-12.4 15.1-15 23.1-2.4 7.3-2.3 7.1-4.1 4.5-.8-1.2-2-1.9-2.6-1.6-.7.4-.8.2-.4-.4.4-.7.3-1.2-.2-1.2s-.9-.6-.9-1.3c0-.6-.4-2-.8-2.9-1.4-3.5 1.1-1.7 3.4 2.4l2.4 4.3 1.8-4c1-2.2 1.8-4.5 1.8-5.2.1-1.4-5.5-12.1-7.7-14.6-.8-.9-1.3-2-.9-2.3.3-.3 1.1.4 1.7 1.6.6 1.2 1.4 1.9 1.7 1.7 1.5-1.5-10.6-14.7-13.5-14.7-1.1 0-.8 19.8.3 24.7.4 1.8 1.2 3.3 1.7 3.3 1 0 .7 2.6-.7 6.5-.5 1.6-.5 1.7.4.5.8-1.2 1-.7.8 2-.1 1.9-.6 3.8-1.2 4.2-.6.5-.5.8.3.8.9 0 1.2 1.3 1 4-.3 5-1.3 5.1-2.8.2-1.2-3.6-4.4-9.2-7.8-13.4-5.1-6.3-7.7-9-9.5-10-1.8-.9-1.9-.8-1.2 1.3.4 1.3.9 3.9 1 5.7.1 1.9.8 3.8 1.5 4.2.7.4 1 1.2.6 1.8-.3.6-.2 1.3.4 1.7.6.4.8 1.1.5 1.6-.4.5-.1.9.6.9 1 0 1 .3.1 1.2-.7.7-1.2 1.6-1.2 2.2 0 .5.3.7.6.3.3-.3 1.9 1 3.6 2.9 1.6 1.9 3.5 3.1 4.1 2.7.6-.3.7-.1.3.5-.4.7 1.4 3.1 4.4 5.8 2.7 2.6 4.8 4.9 4.5 5.2-.2.2-2.6-1.3-5.2-3.4-7.5-5.9-7.4-5.9-6.6-3.9.5 1.5.3 1.7-1.3 1.2-1-.4-.1.9 2.1 2.8 4.4 3.8 10.2 6 12 4.5.6-.5 3.8-5.4 7.1-11 3.2-5.5 6-9.5 6.2-9 .4 1.1-8.3 16.6-11 19.6-1.9 2.1-1.9 2.1 2.7 3.4 4.3 1.2 4.9 1.1 11.3-1.8 5.8-2.7 7.5-3 13.1-2.6l6.3.5-2.1-3.3c-1.2-1.8-3.3-5.6-4.6-8.3-1.4-2.8-2-4.1-1.3-3.1.7 1.1 3.5 5.2 6.1 9.3 2.7 4 5.8 7.8 6.9 8.4 2 1.1 2 .9 1.6-7.1-.3-7.9-.5-8.4-3.6-10.9-1.7-1.5-3.2-3-3.2-3.3 0-.4 1.6-1.2 3.5-1.8 3-1 4.2-.9 6.9.4 4.1 1.9 5.9 2 8.9.3 1.2-.6 2.3-1.2 2.3-1.2.1 0-.4-2.8-1.1-6.2-.9-4.2-2.3-7.5-4.4-10l-3.1-3.7 3.7-1.8c4.8-2.4 8.9-6.3 12-11.6 2-3.3 2.8-4 3.5-3 .7 1 .8.9.4-.4-.7-2.3 2.7-10.3 4.8-11.1 1.1-.4 1.6-.1 1.7 1.1 0 1 .3 1.2.6.4.8-2 2.5-1.3 1.8.8-.4 1.1-.2 2 .4 2 .6 0 1.1-.5 1.1-1 0-.6.5-1 1-1 .6 0 1 1.2 1 2.6 0 1.4-.4 2.3-1 1.9-.5-.3-1 .4-1 1.6 0 1.7-.3 1.9-1.4.9-.8-.6-1.2-1.8-.9-2.7.4-1.1.2-1.4-.8-1.1-.8.3-1.3 1.3-1.3 2.2.1 1.1-.6 1.6-2.3 1.6-3.3 0-2.7 3.4.6 3.8 1.3.2 3.1 1 3.8 1.8.8.8 1.8 1.2 2.3.9 1-.6 2.1 2.1 2.6 6.4.4 4 1.2 5.1 2.3 3.2 1.2-1.8 3.2-.5 2.4 1.6-.5 1.1-.3 1.4.6.9.8-.6.7.2-.3 2.2-2.1 4.1-2 4.9.4 2.7l2.1-1.9-2 4.4c-1.5 3.3-1.7 4.9-.9 6.3.7 1.3.7 2.2-.1 3-.8.8-1.1.3-1.1-1.7 0-2.4-.2-2.7-1.5-1.6-1.2 1-1.5 1-1.5-.1 0-.8-1 .1-2.2 1.8-1.3 1.8-2.9 3.3-3.6 3.3-.7 0-2 .7-2.8 1.5-.9.8-1.1 1.5-.5 1.5.6 0 1.1.4 1.1 1 0 .5-.7 1-1.5 1s-1.5.4-1.5.9.9.7 2 .4c2.2-.6 2.8 1.2.8 2-.9.3-.7.9.7 2 1.2.9 2.2 1.1 2.6.5.4-.6 1.2-.3 2.2.6 1.9 2 7.7 3.3 7.7 1.8 0-.6-.4-1.2-.9-1.4-.5-.2-.2-.9.6-1.7 1.2-1.1 1.4-1 1.1.5-.4 2.1 2.6 3.1 8.9 3.3 2.3.1 4.5.6 4.9 1.3.5.8 3.3-1.5 8.2-6.8l7.5-7.9-6.3 7.7c-6.1 7.6-6.8 9.6-3.2 9.3 4.2-.3 11.3-5.7 24-18.1 4.5-4.5 8.2-7.8 8.2-7.3 0 1.4-14.2 16.2-20.4 21.2-3.2 2.6-5.4 4.7-4.7 4.7.6 0 1.1.7 1.1 1.5 0 3.2 1.4 2.1 12-9.5l3.2-3.5-2.3 3.3c-1.3 1.8-3.5 4.7-4.9 6.4-1.9 2.4-2.5 4.4-2.5 8.2v5l-4.5 1.7c-5.1 1.8-13.1 9.4-16.2 15.3-2.5 4.8-4.9 12.6-3.8 12.6.4 0 1.3-2.1 1.9-4.6 1.1-4.1 4-9.6 7.3-13.4 2.2-2.6 7.5-5 9.4-4.3 1 .4 1.5.2 1.1-.4-.4-.6.8-1 2.8-1.1l3.5-.1-1.5 3.5c-.8 2-1.2 4-.9 4.5.3.5-.2.6-1 .3-.9-.3-1.6-.1-1.6.6 0 .6-.4.9-.9.6-.5-.3-1.2.1-1.5 1-.3.9-1.2 1.4-1.9 1.2-.6-.2-2.2.7-3.5 2-1.9 1.9-2 2.3-.5 1.8 1-.3 3.2-.8 4.8-1.1 2.7-.5 2.8-.4.7.5-1.3.5-3 1.7-3.8 2.5-.9.8-2.2 1.5-3 1.5-1.6 0-1.9 2.6-.4 3.5.6.3 1 .3 1-.2 0-.4 2.3-2.1 5-3.8 2.8-1.6 5-3.2 5-3.5 0-.3 1-1.6 2.1-3 1.7-2.1 2-2.1 1.4-.5-.7 2.2-.1 1.7 3.3-2.9 1.2-1.6 2.2-2.5 2.2-2.1 0 3.5 8.8-17.8 11-26.7 1.1-4.2 4.8-10.8 6.1-10.8.5 0 .9-.7.9-1.6 0-.9.5-1.2 1.2-.8.7.4.8.3.4-.4-.4-.6.5-3.3 1.9-5.9 2.9-5.2 2.9-5.3-2.1 9.2-4.7 13.6-7.7 26-6.9 28.6.4 1.2.1 2.7-.8 3.7-.7.9-1.7 2.5-2 3.5-1.1 3 1.3.8 4.4-4.1 3.3-5.2 4-4.6.8.7-1.1 1.8-1.9 3.5-1.7 3.7.6.5 2.2-1 3.4-3.1.6-1.1 1.6-2 2.2-2 .6 0 1.4-.3 1.8-.7.4-.5 1.4-.8 2.2-.8 1.2 0 1.2.3.2 1.5-.7.8-1.6 1.2-2.1 1-.4-.3-.7.3-.6 1.2.1 2.4-4.5 12.4-6.9 14.7-1 1.1-1.9 2.7-1.9 3.5 0 .9-.4 1.5-.8 1.3-1.3-.5-6.8 7-6.3 8.5.3.7-.9 2.6-2.5 4.3-1.7 1.6-2.7 3-2.3 3 1.3 0-3 3.6-6.1 5.1-1.6.8-3 2-3.3 2.7-.2.7 1.6 0 4-1.5 16.1-10.4 28.8-23.5 30.3-31.4.2-1 1.6-3.5 3.1-5.6 1.4-2.1 2.3-2.9 2-1.9-.5 1.6-.4 1.7.9.6 2-1.6 1.9-.6-.2 2.8l-1.6 2.7 2.7-2.8c1.5-1.5 2.4-3.2 2.1-3.7-.3-.6-.2-1 .3-1s1.5-1.5 2.2-3.2c.7-1.8 2.3-4.9 3.5-6.8 1.3-1.9 4.4-8.9 7.1-15.5 5.3-13.3 5.2-13.1 6-12.3.3.3.1 1.4-.5 2.5-.5 1-3.1 7-5.6 13.3-2.6 6.3-6.5 14.9-8.6 19-2.2 4.1-3.7 8-3.5 8.7.3.8-.1 1-1.1.6-1.3-.5-1.5-.2-.9 1.2.4 1.1.4 1.6 0 1.3-.6-.7-3.4 1.5-3.4 2.7 0 1.3-5.3 8.4-6 8-.4-.3-1.4.3-2.1 1.2-1 1.2-1 1.4-.1.9.6-.4 1.2-.3 1.2.3 0 .5-.6 1.1-1.2 1.4-.7.2-1 .8-.6 1.2 1.1 1.1 14.5-14.4 21.5-24.9 1.8-2.6 3.3-4.5 3.3-4.1 0 .6 4.2-7 10.8-19.8 1.9-3.7 3.7-6.5 4-6.3.2.3-2.2 5.3-5.3 11.3-3.2 5.9-6.5 12.1-7.3 13.7-.8 1.6-2.3 3.7-3.3 4.7s-2.6 3-3.6 4.6c-3 4.7-14.5 19.7-16.4 21.3-2.6 2.4-2.9 5.6-.4 5.2 1.8-.2 1.8-.1-.3 1.1-1.2.7-1.9 1.6-1.6 2 .4.4.1.7-.7.7-1.6 0-9.3 5-8.7 5.6.5.5 13.5-6 16.1-8 .9-.7 1.7-1.8 1.7-2.5 0-.6.3-1 .8-.9 1.4.3 4.2-1.4 3.6-2.3-.3-.5 0-.9.5-.9 2.8 0 .6 3.2-4.8 7.2-6.1 4.4-7.2 5.8-4.7 5.8 1.7 0 6.7-2.5 6.2-3.1-.3-.2.6-.5 1.9-.5 1.3-.1 3.8-1.2 5.5-2.4 1.7-1.2 3.7-1.9 4.5-1.7 1.5.6 5.9-.6 12.1-3.4 2.3-1.1 4.6-1.9 5.3-1.9.6 0 3.9-1.2 7.4-2.6 13.1-5.4 25.7-8.5 25.7-6.2 0 .6.7.3 1.5-.8 1.1-1.3 1.3-1.4.9-.3-.3 1 .2 1.9 1.3 2.3 1 .3 2.4.9 3.2 1.2.9.4 1.1.2.7-.5-.4-.6-.3-1.1.3-1.1.5 0 1.3.4 1.6 1 .7 1.2 2.5 1.3 2.5.2 0-1.5-4.8-3-5.9-1.9-.8.8-1.1.6-1.1-.5 0-2.1 3.2-2.9 4.8-1.1.7.7 2.7 1.3 4.5 1.3 2.5 0 2.9.3 1.7 1.1s-1.1 1 .5.7c1.1-.2 2.9.6 4 1.7s2.9 2.5 4 3.2c1.1.6 1.9 1.6 1.8 2.2-.2.6.4.8 1.2.5.8-.4 1.7.1 2.1 1 .3.9 1.1 1.6 1.7 1.6.6 0 1.9.7 2.9 1.7 1.6 1.4 1.8 1.4 1.8.1 0-1.8-2.4-4.1-3.3-3.1-.4.3-.7-.1-.7-1s-.7-1.7-1.5-1.7c-.9 0-1.8-.7-2.2-1.6-.3-.8-1.2-1.3-1.9-1-.8.3-1.4-.1-1.4-.9s-.7-1.5-1.6-1.5c-.8 0-1.2-.5-.9-1 .3-.6-.4-1.5-1.7-2-2.2-1-2.1-1 .5-.5 1.8.4 2.7.1 2.7-.7 0-.8.5-.6 1.1.5.5.9 1.7 1.7 2.4 1.7.8 0 1.4.6 1.2 1.2-.1.7.4 1.2 1.1 1.1 1.7-.4 4.9 3 4.4 4.7-.3.9.1 1.1 1.1.7 1-.4 2.8.5 4.8 2.4 3.4 3.2 3.9 3.4 3.9 1.9 0-1.3-6.6-8-7.9-8-.6 0-1.1-.5-1.1-1 0-.6 1.4-1 3-1 2 0 3 .5 3 1.5 0 .8.7 1.5 1.5 1.5s1.5.4 1.5.8 1.2 1.5 2.8 2.4c1.5.9 4 2.8 5.6 4.3 1.5 1.4 3.1 2.4 3.4 2.1.8-.9-3.9-5.6-5.5-5.6-.8 0-1.1-.5-.8-1 .3-.6-.1-1.3-.9-1.6-.9-.3-1.6-1.2-1.6-1.9s-.6-1.6-1.2-1.8c-.7-.3-.1-.5 1.4-.4 1.5.1 2.5.3 2.3.6-.3.2.2 1.3 1.2 2.3 2.1 2.3 4.6 2.4 3.9 0-.2-.9-.7-2.8-1.1-4.2-.5-2.3-.5-2.3.6-.5 1.9 3.2 5.8 6.7 6.9 6 .6-.3 1 .5 1 1.9s.4 2.5.9 2.3c.5-.1 3.2 2.3 6.1 5.3 5.6 5.9 5.5 5.5-.9-3-2.2-3-4.1-6.1-4.1-6.8 0-.6-.4-1.2-1-1.2-.5 0-1-1-.9-2.3 0-1.4.2-1.7.6-.7.3.8 2.1 3.6 3.9 6.1 1.9 2.6 3.4 4.9 3.4 5.3 0 .6 2.9 4.1 7.3 8.7 1.5 1.6 2.7 2.5 2.7 2s-.6-1.6-1.3-2.3c-.7-.7-2.1-2.7-3.1-4.3-1.8-2.9-1.8-3 0-1 1.1 1.1 3 2.9 4.3 4l2.4 2-2.2-4.5-2.2-4.5 2.1 2.8c1.2 1.5 2.7 2.4 3.3 2 .7-.4.8 0 .4 1.1-.4.9-.3 1.5.1 1.2.5-.3 2.1.2 3.7 1 1.5.8 3 1.2 3.3.9.3-.3 0-.5-.7-.5s-1-.4-.6-.9c.3-.6 1.7-.6 3.6.1 1.7.6 4.7.8 6.8.5 3.8-.5 3.8-.4 6 4.7 1.1 2.8 2.1 5.7 2.1 6.5 0 .7 1.8 3.4 4.1 5.9 4.3 4.9 7.9 11.1 7.9 13.6 0 .8.5 1.8 1 2.1.7.5.9-1.5.4-5.9s-.3-6.6.4-6.6c.6 0 1.7-.6 2.4-1.3.7-.7 2.5-2 3.9-2.9 1.4-.9 3.4-3.3 4.4-5.3 1.6-3.5 1.6-4 0-9.1-2.7-8.5-9.8-18.2-12.1-16.3-.9.8-1.1.6-.8-.9.3-1-.1-2.4-1-3.1-1.2-1-1.8-.9-3.5.8-1.2 1.2-2.7 2.1-3.5 2.1-.7 0-1.9.7-2.6 1.5-.7.8-2.1 1.5-3.2 1.5-1.6 0-1.7.3-.8 2 .9 1.6.8 1.8-.6 1.3s-3.3-3.9-4-7.1c-.1-.8-1.1-2-2-2.7-1.2-.9-1.9-2.6-1.9-5.3 0-2.2.3-3.8.7-3.6.5.3.8.3.8 0 0-1.1-2.5-6.2-3.5-6.9-.6-.5-.3-.7.8-.3 1.2.4 1.7 0 1.7-1.4 0-1.3-.7-2-2-2-1.1 0-2-.5-2-1.1 0-.6.7-.9 1.5-.6.8.4 1.7.2 2-.4.4-.5-.1-1.2-1-1.5-1.3-.5-1.3-.9-.3-2.2 1.1-1.3 1-1.5-.4-.9-1.5.5-1.8.1-1.8-2.1 0-4.6-2.2-8.3-4.5-7.5-2.7.8-4.2 1.1-3.2.6 1.7-1 .5-2.4-1.5-1.7-2.1.6-2.1.5-.9-1 .8-.9 2-1.5 2.6-1.2 1.9.7 3.6-.9 2.9-2.7-.4-1.2-1.4-1.5-3.7-1.1-2.8.4-2.9.3-1-.5 1.5-.7 2.1-1.6 1.7-2.6-.7-1.8-.9-1.8-5.2-.6-2 .6-3.2.6-3.2 0 0-.5.6-.9 1.4-.9.8 0 1.7-.4 2-.9.4-.5-.4-.7-1.6-.4-2.3.5-2.2.4.2-1.6l2.5-2.1h-2.7c-1.6 0-2.8-.4-2.8-1 0-.5.8-.7 1.8-.3 1.1.4 1.4.3.7-.4-.5-.6-2.5-1.4-4.2-1.8-3.1-.6-3.3-.5-3.3 2.2 0 1.5-.5 3.5-1 4.3-.6 1-.9-1-.7-6.3.1-4.2-.1-7.7-.5-7.7-.8 0-1.3 4.3-1 8.8 0 1.2-.4 2.2-.9 2.2-1.1 0-.6-10.4.7-16.9.5-2.4.4-3.2-.4-2.7-.7.4-1.4-.4-1.7-2.1-.4-1.5-1.1-3.6-1.6-4.6-.5-1-.7-2.2-.4-2.6.3-.5-.2-1.1-1-1.5-.8-.3-1.5-1.2-1.5-2 0-1.5-3.9-3-7.9-3.1-1.9 0-2.4-.6-2.6-3.2-.2-2.1.1-3 .9-2.7 1.6.6 6-4.2 5.1-5.6-.3-.6-.2-.9.3-.8 1.4.4 9.4-8.1 8.7-9.3-.4-.5-.1-.8.6-.7 2 .5 7.9-8.9 14.7-23.5.2-.4-.3-.4-1.2-.1-.9.3-1.6.1-1.6-.5s.5-1.1 1-1.1c.6 0 1-.5 1-1.1 0-.8-.6-.7-1.6.2-1.5 1.2-1.6 1.1-1-1.1.7-2.4.6-2.4-.8-.6-1.8 2.2-2.1 4-.6 3.1.6-.3 1-.2 1 .4 0 .5-.9.9-2 .8-1.5-.1-1.9-.6-1.4-2.2.5-1.7.3-1.7-1.7.5l-2.1 2.5 1.6-2.8c1.4-2.4 1.5-2.7.1-2.7-.8 0-1.5.4-1.5.8 0 1.2-4.1 5.4-4.7 4.8-.3-.2.5-1.8 1.8-3.5 2.3-3.1 6.9-4.4 6.9-1.9 0 .6.8.4 2-.7 1-.9 2.6-1.5 3.4-1.2 1.9.8 3.4-1.1 4.1-5.3.3-1.9.8-3.6 1-3.8.2-.2-.6-2.2-1.7-4.4-3-5.8-3-19.6.1-25.6 1.9-3.7 2.1-5.3 1.6-12.5-.4-4.5-1-9.6-1.5-11.2-.5-1.7-1.1-5-1.5-7.5-.4-2.5-1.3-6.7-2.2-9.3-.8-2.6-1.3-5.3-1-6 .3-.8-2-2.9-5.4-5.1-6.5-4.2-8.1-6.1-2.3-2.7 2 1.2 3.8 2 4 1.8.9-.9-6.8-8.2-8.4-7.9-1.4.3-1.4.2-.2-1.3.9-1.1 2.4-1.5 4.2-1.3 3.4.5 3.4.3.3-3.7-3-4-5.2-4.6-9.4-2.9-2.6 1.1-3.1 1.8-2.6 3.4.5 1.5.3 1.8-.9 1.4-1.9-.7-5.7 3.2-9.7 10.3-1.7 3-3.3 5.2-3.5 5-.2-.2.7-3.7 2-7.8 3.8-12.3 7.6-25.2 8.2-28.7.5-2.4 1.2-3.2 2.8-3.2 1.1 0 2.8-.5 3.6-1 1.2-.8.9-1-1.2-1-1.6 0-2.7-.4-2.5-.9.1-.5-1.4-2.9-3.3-5.3-2-2.3-4.7-5.9-6-7.8-2.8-4-5.5-7.3-8.7-10.5-1.2-1.3-1.9-2.6-1.5-3.1.4-.4.1-.4-.6 0-1 .6-1 1.1-.2 2.1.7.8.7 1.6.2 1.9-.9.6-2.7-2.1-2.4-3.6.1-.4-.7-.5-1.8-.3s-1.7-.1-1.5-.8c.6-1.8-3.2-6-4.7-5.2-.7.4-.4-.1.6-.9 1.7-1.4 1.7-1.6.3-1.6-.9 0-2-.6-2.4-1.3-.5-.6-4.4-4.6-8.8-8.7-4.3-4.1-7.3-6.7-6.6-5.8.8 1 .9 1.8.4 1.8-1.7 0-3.1-2.2-2.5-3.9.5-1.4.4-1.4-1.1.1-1.6 1.6-1.3 2 4.4 7.5 6.6 6.2 15.3 16.3 13 14.8-.8-.4-2.8-2.4-4.5-4.3-1.7-2-6.9-7.4-11.6-12-4.7-4.7-7.9-8.1-7.1-7.7.8.4 1.7.2 2.2-.6.4-.7 1.1-1 1.6-.6.4.5.1 1.2-.6 1.6-.8.5-.9 1.1-.3 1.5.5.3 1.3-.2 1.6-1.1.7-1.8-1.7-4.3-4.1-4.3-.7 0-1.3-.7-1.3-1.5 0-1.9-1.3-1.9-5.1 0-2.6 1.4-3.6 1.4-8.4.1-3-.8-7.7-3.1-10.5-5.1-2.8-2.1-5.5-3.3-6.1-2.9-.7.4-.9.3-.5-.4.9-1.5-.5-2.1-2.9-1.1-1.5.6-1.6.8-.4.8.9.1 2 .8 2.3 1.7.4 1.2.2 1.5-.9 1-3.9-1.6-4.7-1.6-2 0 1.7.9 3.4 2.2 3.8 2.8.6.7.7.5.4-.5-.4-1.2.1-1.7 1.7-1.7 1.3 0 2.2.7 2.3 1.7.1.9.4 2.8.7 4.3.4 2.7-.3 3.6-1.7 2.1-.4-.3-.1-1.3.6-2.1 1-1.3.9-1.5-.5-.9-1.3.4-1.5.2-1.1-1.1.6-1.4.4-1.5-.9-.4-1.3 1-1.8.9-2.8-.4-1.4-1.6-6.5-4.5-7.1-4.1-.2.2-1.5-.7-2.8-2-1.3-1.3-1.9-2.3-1.3-2.3.7 0 1.2-.5 1.2-1.1 0-.8-.5-.7-1.5.1-.9.7-1.9 1-2.2.6-.4-.4-.2-1.1.5-1.5.8-.5.2-.8-1.6-.8h-2.9l3.6 3.6c6.2 6.1 15.4 17.1 14.8 17.7-.3.4-2.6-1.4-5.1-3.9-3.1-3-5.4-4.4-7-4.3-1.3 0-2.2.5-1.9.9.3.4 1 .6 1.6.4 1.7-.6 4.7 1.1 4.7 2.8 0 .8 1 2.1 2.2 2.9 1.2.9 1.7 1.6 1 1.6s-2.3-1.1-3.6-2.3c-1.3-1.3-4.2-3.3-6.5-4.5-3.3-1.8-4.1-1.9-4.1-.7 0 .8.7 1.5 1.5 1.5s1.5.8 1.5 1.7c0 1.3-.8.9-3.2-1.6-2.2-2.2-2.9-3.5-2-3.8.6-.3.9-.9.6-1.4-.7-1.3-3.4.8-3.4 2.7 0 .7-.4 1.6-1 1.9-.6.4-.6-.3 0-2.1.9-2.4.7-3-2.2-5.5-1.7-1.6-3.5-2.9-4-2.9-1.7 0-.7 1.7 2.3 3.9 1.7 1.3 2.8 2.5 2.6 2.8-.3.2-1.9-.8-3.6-2.3-2.2-2-2.9-3.3-2.5-4.7.4-1.3.2-1.7-.5-1.2-.7.4-1.9.1-2.7-.6-1.9-1.5-12.4-5.9-14.2-5.9-.8 0-1.2.6-.9 1.2zm13.9 6.8c.8 2.1.7 2.3-.4 1-.7-.8-2-2.1-2.8-2.8-1.3-1.2-1.3-1.3.4-1 1 .1 2.3 1.4 2.8 2.8zm-11.2-1c0 .5-.4 1-1 1-.5 0-1-.5-1-1 0-.6.5-1 1-1 .6 0 1 .4 1 1zm5.5 1c.3.5.1 1-.4 1-.6 0-1.1-.5-1.1-1 0-.6.2-1 .4-1 .3 0 .8.4 1.1 1zm6.5 5.2c0 1.4-1.6.9-3.6-1.3-1.9-2.1-1.9-2.1.9-.8 1.5.7 2.7 1.6 2.7 2.1zm23 7.8c0 .5-.2 1-.4 1-.3 0-.8-.5-1.1-1-.3-.6-.1-1 .4-1 .6 0 1.1.4 1.1 1zm49.9 8.5c6.1 5.5 19.7 21.1 23.3 26.5 1.6 2.5 1.9 3.2.6 1.6-6.7-8.7-12.7-15.1-13.8-14.8-.6.1-.9-.2-.6-.7.6-.9-5.7-7.6-7.2-7.6-.4 0-1.3-.4-1.9-.8-.7-.5-1.8-.5-2.5-.1-.6.4-.8.3-.5-.3.4-.6 0-1.6-.9-2.3-.8-.7-1.3-1.9-1-2.6.3-.7-.8-2.4-2.4-3.8-1.7-1.4-3-2.8-3-3.1 0-.7 2.3 1.2 9.9 8zm-57.3-5.4c1.9 2.2 1.9 2.2-.3.8-1.3-.8-2.3-1.7-2.3-2.1 0-1.2.6-.9 2.6 1.3zm13.7 2.9c1.8 2.2 2.1 3 1 3-1.1-.1-4.6-5-3.6-5 .5 0 1.6.9 2.6 2zm5.2 0c.3.6-.1.7-.9.4-1.8-.7-2.1-1.4-.7-1.4.6 0 1.3.4 1.6 1zm47.9 4.6c.5 1.4.4 1.5-.9.4-1.7-1.4-1.9-2-.6-2 .5 0 1.2.7 1.5 1.6zm-77.7 4.1c.1 1.9-.1 2.2-.8 1.2-1.1-1.7-1.2-3.9-.1-3.9.4 0 .8 1.2.9 2.7zm80.7-1.1c.3.8.2 1.2-.4.9-.6-.3-1-1-1-1.6 0-1.4.7-1.1 1.4.7zm-85.4 2.9c0 .8-.4 1.5-.9 1.5-1.1 0-2.6 3.9-2.3 6 .2 1.2.1 1.3-.7.1-.6-.9-1.8-1.1-3.5-.7-2.3.6-3.7-.6-1.8-1.7.4-.2.2-.2-.5-.1-1.6.4-2.6-1.3-1.3-2.1.6-.4.8-1 .5-1.5-.3-.4.2-1.1 1.1-1.4 1.2-.4 1.4-.1.9 1.4-.5 1.6-.2 2 1.5 2 2.3 0 5-2.1 5-3.9 0-.6.5-1.1 1-1.1.6 0 1 .7 1 1.5zm88.4.1c.3.8.2 1.2-.4.9-.6-.3-1-1-1-1.6 0-1.4.7-1.1 1.4.7zm-80.9 2.3c.3.5.1 1.2-.5 1.6-.5.3-1-.1-1-.9 0-1.8.6-2.1 1.5-.7zm70 .1c.3.6-.1.7-.9.4-1.8-.7-2.1-1.4-.7-1.4.6 0 1.3.4 1.6 1zm3 4.3c.8 1.2 1.5 2.8 1.5 3.7-.1.8-.8.1-1.7-1.5-2.1-4-2.3-4.2-3.2-2.6-.7 1-.9 1-1.4-.1-.8-2.3 3.1-1.9 4.8.5zm18.1 9.4c1.5 2 2.3 3.3 1.6 2.9-1.3-.8-5.6-6.6-4.9-6.6.3 0 1.7 1.7 3.3 3.7zM366 197c0 .5-.5 1-1.1 1-.5 0-.7-.5-.4-1 .3-.6.8-1 1.1-1 .2 0 .4.4.4 1zm2.8 6.1c-.3 2-.5 1.9-.9-.9-.3-2-.2-2.9.4-2.3.5.5.7 1.9.5 3.2zM367 202c0 .5-.2 1-.4 1-.3 0-.8-.5-1.1-1-.3-.6-.1-1 .4-1 .6 0 1.1.4 1.1 1zm6.4 1.5c.3.8.1 1.5-.4 1.5-.6 0-1-.7-1-1.5s.2-1.5.4-1.5.6.7 1 1.5zm4.6.4c0 .5-.7 1.1-1.4 1.4-1 .4-1.3.1-.9-.9.6-1.5 2.3-1.9 2.3-.5zm-11 2.1c0 .5-.5 1-1.1 1-.5 0-.7-.5-.4-1 .3-.6.8-1 1.1-1 .2 0 .4.4.4 1zm2.2 6c.6 0 .8.3.5.6-1 1.1-3.8-1.7-3-3 .5-.7.9-.5 1.1.6.2 1 .8 1.8 1.4 1.8zm9.5-2.4c-.3.3-1.2.4-1.9.1-.8-.3-.5-.6.6-.6 1.1-.1 1.7.2 1.3.5zm96 3.6c1.1 1.3 2.8 3.7 3.7 5.5 1.7 3.3 2.2 5.8.7 3.5-.6-1-1.2-.4-2.1 2-.8 1.8-1.8 3.6-2.4 4-.6.4-.6 1.2.2 2.1 1.2 1.4.7 2.7-1 2.7-.5 0-.6-.5-.3-1 .3-.6.2-1-.4-1-.5 0-1.1-4.3-1.3-10-.2-5.5 0-10 .3-10s1.5 1 2.6 2.2zm8.3 14.2c0 .8-1.3 1.6-3 1.8-1.8.3-2.9 0-2.7-.5.2-.6 1.1-1.1 2.1-1.3 1-.1 2-.5 2.4-.8.9-.9 1.2-.7 1.2.8zM319 241c0 .5-.2 1-.4 1-.3 0-.8-.5-1.1-1-.3-.6-.1-1 .4-1 .6 0 1.1.4 1.1 1zm185.3 10.9c.7.8-.7.2-3-1.4-2.4-1.5-4.3-3-4.3-3.2 0-.7 6.1 3.1 7.3 4.6zm-139-2.4c-.3.9-.8 1.4-1 1.1-.3-.3-.2-.9.2-1.5.9-1.6 1.5-1.3.8.4zm-15.5 13.2c-.1 1 .1 2.7.5 3.8.4 1.1.3 2.4-.1 3-.9 1.3-7.4 3.6-6.7 2.4.4-.5-.7-.6-2.4-.3-1.6.3-3.6.2-4.5-.3-1.5-.8-1.3-1.3 1.4-4.1 1.7-1.8 3.6-3 4.2-2.6.7.4.8.3.4-.4-.7-1.2-.6-1.3 3.2-1.7 1.2-.1 2.5-.5 2.9-.9 1-1 1.2-.7 1.1 1.1zm-31.1.9c-.3.3-1.2.4-1.9.1-.8-.3-.5-.6.6-.6 1.1-.1 1.7.2 1.3.5zm6.3 3.4c0 .5-.5 1-1.1 1-.5 0-.7-.5-.4-1 .3-.6.8-1 1.1-1 .2 0 .4.4.4 1zm20.8 8.8c.4 1.4 3.2 1.6 3.2.2 0-.6-.6-1-1.2-1.1-1 0-1-.2-.1-.6.7-.2 1.9.2 2.7 1 1.1 1.1 1.2 1.7.3 2.7-1 1-.8 1.2.6.7.9-.4 1.7-.3 1.7.2s1.5 1.6 3.3 2.5l3.2 1.6h-3.7c-2.1 0-3.8.4-3.8 1 0 .5-1.1 1-2.4 1-3.5 0-5.6 1-5.6 2.6 0 .8-.8 1.4-1.7 1.3-1.1 0-1.3-.3-.5-.6.6-.2 1.2-1.1 1.2-1.8 0-1-1.2-1.3-4.5-1-2.4.3-4.7 0-5-.6-.4-.5-1.6-.7-2.7-.3-1.6.5-2 .3-1.5-.9.3-.9-.1-2.1-.9-2.8-1.2-1-1.3-.9-.8.7.6 1.5.4 1.7-.6.7-1-.9-1.7-1-2.7-.1-2.3 1.8-2.8-.1-.6-2.3 1.1-1.1 3.9-2.3 6.2-2.6 4-.6 5.3-1.7 2.9-2.6-.7-.2 1.8-.4 5.6-.3 4.5.1 7.1.6 7.4 1.4zm14.7 4.2c-.3.5-1.2 1-1.8 1-.7 0-.6-.4.3-1 1.9-1.2 2.3-1.2 1.5 0zm-29.5 7.2c2.3-.3 3 0 3 1.2 0 .9.6 1.6 1.4 1.6.8 0 1.6.6 1.9 1.2.3 1 .7 1 1.8.2.8-.7 2.7-1.1 4.2-.9 1.6.2 5-.3 7.5-1.1 5.7-1.7 5.5-1.7 4.6-.3-.6 1.1 2.1 7.3 4.4 9.7 1.5 1.6 1.5 2.9.2 3.7-.6.4-.7 1.1-.4 1.7.5.8.1.9-1.1.4-1.6-.6-1.6-.4-.4 1.1.8 1 2.4 2.8 3.7 4.1 2.3 2.2 2.3 2.4.7 4.2-1 1.1-2 1.8-2.4 1.6-.3-.2-.6.7-.6 2s.4 2.4.9 2.4.6.3.3.7c-.4.3-.2 1.2.4 2 .9.9.8 1.3 0 1.3-.6 0-1.1.4-1.1 1 0 .5.7 1 1.5 1s1.5-.7 1.5-1.5.5-1.5 1-1.5c.6 0 1 .9 1 2 0 1.4-.7 2-2.2 2-1.9 0-2 .2-.8 1 1.3.8 1.2 1-.5 1.1-1.7.1-1.7.2-.2.6 2.1.5 2.3 2.3.2 2.3-2.1 0-1.9 2 .3 2.1 1.3 0 1.4.2.2.6-2.5 1-3 2.7-1.3 4.5 1.9 2.1.6 2.3-2.1.3-1-.8-1.5-1.9-1-2.6.5-.9.1-1.1-1.4-.7-1.3.4-2 .2-1.6-.3.7-1.1-12.5-13.9-14.3-13.9-.8 0-1.6-1.3-1.9-3-.4-1.6-1-2.8-1.3-2.5-.4.2-2-.7-3.4-2.1-1.5-1.4-3.6-2.6-4.7-2.7-1.1-.1-2-.5-2-.9s-.7-.8-1.5-.8-1.5-.5-1.5-1.1c0-.6-.6-.9-1.4-.6-.7.3-2-.3-2.9-1.4-1.7-1.9-1.1-2.4 2.2-1.9.7.1 2.4-.8 3.6-2 2.1-2 2.4-2 3.3-.5.9 1.6 1.1 1.6 3.6 0 1.4-1 2.6-2.1 2.6-2.4 0-1.6-1.4-2-2.7-1-1 .9-1.3.7-1.3-1 0-1.1-.4-2.1-.9-2.1s-1.4-2-2-4.4c-1.1-4.4-1.4-7.1-.5-5 .2.6 1.8.8 3.4.6zm-4 7c0 .6-.7.5-1.5-.2s-1.5-1.7-1.5-2.2c0-.6.7-.5 1.5.2s1.5 1.7 1.5 2.2zm40.5 20.8c.3.5-.1 1-.9 1-.9 0-1.6-.5-1.6-1 0-.6.4-1 .9-1 .6 0 1.3.4 1.6 1zm-39.8 2.2c-.3.8-.6.5-.6-.6-.1-1.1.2-1.7.5-1.3.3.3.4 1.2.1 1.9zm36.3-.2c0 .5-.7 1-1.6 1-.8 0-1.2-.5-.9-1 .3-.6 1-1 1.6-1 .5 0 .9.4.9 1zm-32.7 2.5c.4.8.2 1.7-.3 2-.6.4-1-.3-1-1.4 0-2.5.6-2.7 1.3-.6zm35.2.5c-2.7 1.2-4.3 1.2-2.5 0 .8-.5 2.2-.9 3-.9 1 0 .8.3-.5.9zm-51.5 2.3c.9.3.3.6-1.2.6-2 .1-2.8-.4-2.8-1.5 0-1.2.4-1.4 1.3-.7.6.6 1.9 1.3 2.7 1.6zm31.3 6.9c2.1 1.5 2.2 2.8.2 2.8-.8 0-1.5-.6-1.5-1.3 0-.8-.4-.7-1.1.3-.9 1.2-1 1-.6-.8.5-1.9.2-2.2-1.5-1.6-1.5.4-1.8.3-1.3-.6.5-.9.2-1-1.3-.6-1.6.5-2.1.1-2.7-2.1-.6-2.7-.7-2.8-2.2-.8-1.4 1.7-1.5 1.8-.9.2.3-1 .6-2.3.6-2.7 0-.8 5.8 2.7 12.3 7.2zM368 323c0 .5-.5 1-1.1 1-.5 0-.7-.5-.4-1 .3-.6.8-1 1.1-1 .2 0 .4.4.4 1zm-3.5 14c-1 1.1-2.2 1.7-2.6 1.4-1.6-1-.9-2.3 1.4-2.7 1.2-.2 2.4-.5 2.6-.6.2 0-.4.8-1.4 1.9zm1.5 4c0 .5-.4 1-1 1-.5 0-1-.5-1-1 0-.6.5-1 1-1 .6 0 1 .4 1 1zm18 11.5c-.7.8-1.9 1.5-2.6 1.5-.8 0-1.4.4-1.4 1 0 .5-.4 1-.9 1-1.2 0-11.5 6.9-11.9 8-.2.5-1 .6-1.8.3s-1.4.1-1.4 1.1c0 .9-.4 1.6-1 1.6-1.7 0-1.1-4 .8-4.6 3-.9 4.7-2.2 4.5-3.3-.2-.6.3-.8 1.1-.5 1.3.5 3.9-.8 11.6-5.4 4.2-2.6 4.7-2.7 3-.7zm-24.3 16.1c-.3.3-1.2.4-1.9.1-.8-.3-.5-.6.6-.6 1.1-.1 1.7.2 1.3.5zm-8.2 2.4c-.3.5-1.2 1-1.8 1-.7 0-.6-.4.3-1 1.9-1.2 2.3-1.2 1.5 0zm-2.5 4.5c-1.4.8-3.2 1.4-4 1.4-.8 0-.1-.6 1.5-1.4 4-1.8 5.7-1.8 2.5 0zm63.1 20.2c-1.2 2-1.4 1.4-.5-1.2.4-.9.9-1.4 1.1-1.1.3.2 0 1.3-.6 2.3zm-107.4 1.5c-.3.8-.6.5-.6-.6-.1-1.1.2-1.7.5-1.3.3.3.4 1.2.1 1.9zm102.4 9.5c-1.1 2.1-2 3.5-2.1 3.1 0-1.2 3.3-7.8 3.8-7.4.2.2-.6 2.1-1.7 4.3zm-103.8-1.2c-2.2 1.7-3 1.1-1.3-1 .7-.8 1.7-1.2 2.2-.9.5.3.1 1.2-.9 1.9zm9.7-2.1c0 .2-.7.9-1.5 1.6-1.3 1.1-1.4 1-.9-.4.5-1.4 2.4-2.3 2.4-1.2zm102.7 3.8c-.3.8-.6.5-.6-.6-.1-1.1.2-1.7.5-1.3.3.3.4 1.2.1 1.9zm-106.7.2c0 .2-.7 1.9-1.5 3.7-1.4 3.4-2 2.3-.9-1.9.5-1.8 2.4-3.3 2.4-1.8zm93 13.1c-1.8 4.7-3.7 8.8-4.3 9.2-.6.4-.8 0-.4-.8 1.4-3.4 4.7-11.7 5.8-14.7.6-1.8 1.4-3.1 1.6-2.8.3.3-1 4.3-2.7 9.1zm-140.4-4.7c-1.7 1.6-1.8 1.6-.5-.5.7-1.2 1.5-2 1.8-1.7.3.2-.3 1.2-1.3 2.2zm99.4 1.5c-2.1 2-2.7 2.3-1.5.7 3.5-4.3 4-4.8 4.4-4.4.3.3-1 1.9-2.9 3.7zm9 1.1c0 .3-.4.8-1 1.1-.5.3-1 .1-1-.4 0-.6.5-1.1 1-1.1.6 0 1 .2 1 .4zm-113.9 6.5c-2.5 2.5-2.7 1.5-.4-1.9.9-1.3 1.8-1.9 2.1-1.2.2.6-.6 2-1.7 3.1zm7.9 2.1c-2.8 2.2-4 2.5-4 1 0-1.1 5.3-4.1 6-3.3.3.2-.6 1.3-2 2.3zm99.1 1.7c-1.2 2-1.4 1.4-.5-1.2.4-.9.9-1.4 1.1-1.1.3.2 0 1.3-.6 2.3zm-63.4 4c-.3 1-.5.2-.5-1.7s.2-2.7.5-1.8c.2 1 .2 2.6 0 3.5zm54.3-2.4c0 .2-1.2 1.4-2.7 2.8l-2.8 2.4 2.4-2.8c2.3-2.5 3.1-3.2 3.1-2.4zm-58.5 2.7c.3.5-.3 1-1.5 1s-1.8-.5-1.5-1c.3-.6 1-1 1.5-1s1.2.4 1.5 1zm216.7 2.2c-.7.7-1.2.8-1.2.2 0-1.4 1.2-2.6 1.9-1.9.2.3-.1 1.1-.7 1.7zm-106 1c-.7.7-1.2.8-1.2.2 0-1.4 1.2-2.6 1.9-1.9.2.3-.1 1.1-.7 1.7zm-101.2.9c0 .5-.4.9-1 .9-.5 0-1-.7-1-1.6 0-.8.5-1.2 1-.9.6.3 1 1 1 1.6zm209-.1c0 .5-.8 1-1.7 1-1.5 0-1.6-.2-.3-1 1.9-1.2 2-1.2 2 0zm-10.9 2.3c-1 .9-1.1.8-.5-.6.3-1 .9-1.5 1.2-1.2.3.3 0 1.1-.7 1.8zm3.9.3c0 .8-.4 1.2-1 .9-.5-.3-1-1-1-1.6 0-.5.5-.9 1-.9.6 0 1 .7 1 1.6zm-63 6.1c-1.1 1.7-1.1 1.7-.6 0 .3-1 .7-2.6.7-3.5.1-1.5.2-1.5.6 0 .2 1-.1 2.5-.7 3.5zm69.6-3.1c1.4 1.2 1.5 1.4.3 1.1-.9-.3-2.2 0-2.9.6-1 .9-1.1.9-.6-.1.6-1 .1-1.1-1.8-.6-1.6.4-2.6.2-2.6-.4 0-.6 1-1.3 2.3-1.5 1.2-.2 2.5-.5 2.8-.6.3 0 1.4.6 2.5 1.5zm6.4 2.8c0 .3-.4.8-1 1.1-.5.3-1 .1-1-.4 0-.6.5-1.1 1-1.1.6 0 1 .2 1 .4zM248.5 448c1 1.1 1.6 2 1.3 2-.3 0-1.3-.9-2.3-2-1-1.1-1.6-2-1.3-2 .3 0 1.3.9 2.3 2zm87-1c-.3.5-1.2 1-1.8 1-.7 0-.6-.4.3-1 1.9-1.2 2.3-1.2 1.5 0zm106.1 5.7c-1 1-1.9-.5-1-1.8.6-1.1.8-1.1 1.2 0 .2.7.1 1.5-.2 1.8zm66.1 1.5c-.3.7-.5.2-.5-1.2s.2-1.9.5-1.3c.2.7.2 1.9 0 2.5zm-133.5 2.2c-1.5 2.4-3.6 5-4.7 5.7-1.7 1-1.8 1-.9-.2 8.1-10.8 10-12.7 5.6-5.5zm-2.2-3c0 .3-.4.8-1 1.1-.5.3-1 .1-1-.4 0-.6.5-1.1 1-1.1.6 0 1 .2 1 .4zm-2.7 5.1c-.3.9-.8 1.4-1 1.1-.3-.3-.2-.9.2-1.5.9-1.6 1.5-1.3.8.4zm123.1 1.2c-.5 1.7-.9 1.9-1.9 1-1-.9-.9-1.4.4-2.4 2-1.4 2.2-1.3 1.5 1.4zm-4.4 1.8c0 .2-1 .9-2.2 1.5-2.2 1.1-2.2 1-.4-.4 2.1-1.7 2.6-1.9 2.6-1.1zm42 .9c0 .2-.7.7-1.6 1-.8.3-1.2.2-.9-.4.6-1 2.5-1.4 2.5-.6zm-155.6 4.1c-.4.8-1.1 1.5-1.6 1.5-.6 0-.5-.6.2-1.5.7-.8 1.4-1.5 1.6-1.5.2 0 .1.7-.2 1.5zm133.6 3c0 1.9-.4 3.5-.8 3.5s-.6-1.6-.4-3.5c.2-1.9.6-3.5.8-3.5.2 0 .4 1.6.4 3.5zm22.7-.9c-.3.3-1.2.4-1.9.1-.8-.3-.5-.6.6-.6 1.1-.1 1.7.2 1.3.5zm-159.6 2.1c-1.5 2.8-4 5.9-4.1 5 0-.8 4.1-6.7 4.7-6.7.2 0-.1.8-.6 1.7zm135.6 8.5c-.2 1.3-.4.5-.4-1.7-.1-2.2.1-3.2.4-2.3.2 1 .2 2.8 0 4zm-14 0c-.3.8-.6.5-.6-.6-.1-1.1.2-1.7.5-1.3.3.3.4 1.2.1 1.9zM365 480.3c0 .2-1 1.2-2.2 2.3l-2.3 1.9 1.9-2.3c1.8-2.1 2.6-2.7 2.6-1.9zm105.5 2.7c.3.5.1 1-.4 1-.6 0-1.1-.5-1.1-1 0-.6.2-1 .4-1 .3 0 .8.4 1.1 1zM359 487.9c-1.2 2.3-.1 2.8 1.9.8 1-1 1.1-.9.6.5-.7 1.8-2.9 3-5.8 3.3-.9.1-2.6 1-3.7 2-4.1 3.8-1.8-.1 2.8-4.5 5-4.9 6-5.4 4.2-2.1zm117.5-1.9c1.6.7 1.2.8-1.7.7-2-.1-3.4-.5-3.1-1 .5-.9 2.2-.8 4.8.3zm53 3.8c-.3.3-1.1 0-1.8-.7-.9-1-.8-1.1.6-.5 1 .3 1.5.9 1.2 1.2zm-144.6 3.1c-1.3 1.1-2.6 1.7-2.9 1.4-.6-.6 3-3.3 4.3-3.3.5 0-.1.9-1.4 1.9zm-29.7 2.3c-.7.7-1.2.8-1.2.2 0-1.4 1.2-2.6 1.9-1.9.2.3-.1 1.1-.7 1.7zm174.8-.5c0 1.5.2 1.6 1 .3.9-1.3 1.1-1.3 2 0 .5.8 1 1.2 1 .8 0-1.1 4.3 3.3 6.2 6.4 1.6 2.4 1.6 2.7.1 3.2-2.1.9-8.3-.4-8.3-1.6 0-.6-.6-.8-1.4-.5-1.1.4-1.5-.7-1.8-4.9-.1-3 0-5.4.5-5.4.4 0 .7.8.7 1.7zm21.5 10.3c.4.6-.6 1-2.2.9-2.5 0-2.6-.1-.8-.9 1.1-.5 2.1-.9 2.2-.9.1-.1.5.3.8.9z"/><path d="M441 169.9c0 .5 1.5 2 3.3 3.2l3.2 2.2-2.9-3.1c-3.2-3.4-3.6-3.7-3.6-2.3zM332.8 280.7c.6.2 1.8.2 2.5 0 .6-.3.1-.5-1.3-.5-1.4 0-1.9.2-1.2.5zm21.9 15.4c.7.7 1.5 1 1.8.7.3-.3-.2-.9-1.2-1.2-1.4-.6-1.5-.5-.6.5zm.3 2.9c0 .5.5 1 1.1 1 .5 0 .7-.5.4-1-.3-.6-.8-1-1.1-1-.2 0-.4.4-.4 1zm3 2c0 .5.5 1 1 1 .6 0 1-.5 1-1 0-.6-.4-1-1-1-.5 0-1 .4-1 1zm2 11.1c0 .5.5.7 1 .4.6-.3 1-.8 1-1.1 0-.2-.4-.4-1-.4-.5 0-1 .5-1 1.1zM402.5 146c-.3.5.1 1 .9 1 .9 0 1.6-.5 1.6-1 0-.6-.4-1-.9-1-.6 0-1.3.4-1.6 1zm-9.9 8.5c.4.8 1.1 1.5 1.6 1.5.6 0 .5-.6-.2-1.5-.7-.8-1.4-1.5-1.6-1.5-.2 0-.1.7.2 1.5zm52.5 2.9c.8.7 9.4 7.2 10.4 7.8.6.4 1.1-.2 1.1-1.2s-.4-1.6-.8-1.4c-1.2.8-5.8-2.7-5.1-3.9.4-.6 0-.8-1-.4-1 .3-1.7.2-1.7-.3 0-.6-.7-1-1.7-1-.9 0-1.4.2-1.2.4zm12.9 9.5c0 .4 2.4 2.9 5.3 5.5 2.8 2.6 8.2 7.7 11.9 11.4 3.7 3.6 7 6.3 7.4 6 .3-.4-.7-1.9-2.2-3.4-1.6-1.5-2.2-2.4-1.4-1.9.8.4-.3-1.1-2.5-3.4-3.8-4-6-5.6-3.5-2.6 2.6 3.2-.4 1.3-4.4-2.8-5.9-5.9-10.6-9.8-10.6-8.8zm18 14.6c.7.9.8 1.5.2 1.5-.5 0-1.2-.7-1.6-1.5-.3-.8-.4-1.5-.2-1.5s.9.7 1.6 1.5zm-127.2-13.8c.7.3 1.6.2 1.9-.1.4-.3-.2-.6-1.3-.5-1.1 0-1.4.3-.6.6zm14.9.7c-.4.9-1.4 1.2-2.5.9-2.2-.5-3.7 1.1-2.6 2.8.4.8.9.7 1.5-.2.8-1.2 1-1.2 1.8-.1.8 1.4 1 1.3 6-1.5.6-.4-2-3.3-2.9-3.3-.4 0-1 .6-1.3 1.4zm101.3.9c0 .2 1.5 1.6 3.3 3.3l3.2 2.9-2.9-3.3c-2.8-3-3.6-3.7-3.6-2.9zm-120 14.1c0 .2.7.7 1.6 1 .8.3 1.2.2.9-.4-.6-1-2.5-1.4-2.5-.6zm10 2c0 .8.5 1.8 1 2.1.6.3 1-.1 1-.9s-.4-1.8-1-2.1c-.5-.3-1 .1-1 .9zm116 1c0 .2.7.9 1.5 1.6 1.3 1.1 1.4 1 .9-.4-.5-1.4-2.4-2.3-2.4-1.2zm159.5 30.9l-8.9 11.2-.3 13.5-.2 13.5 4.2-4.9c2.3-2.7 6.6-7.7 9.5-11l5.2-6.1v-15.7l-3.5 4.4c-2 2.3-5.3 6.3-7.3 8.7-2 2.4-4.2 5.3-4.9 6.5-1.1 1.9-1.2 1.8-1-1.4.1-2.5 1.3-4.5 4.2-7.5 10.4-10.7 11.6-12.4 10.4-14.8-1.1-1.9-1-2 .2-1 1.3 1 1.5.6 1.6-2.8.1-2.1.1-3.9 0-3.9-.1.1-4.2 5.1-9.2 11.3zm7.5-1.8c0 .2-.6.5-1.3.8-.8.3-1.4-.1-1.4-.8 0-.7.6-1.1 1.4-.8.7.3 1.3.6 1.3.8zm-6.3 5.4c0 1.1-.5 1.7-.9 1.5-.5-.3-1.3.8-1.9 2.5-.6 1.8-1.8 3.1-2.7 3.1-1.5-.1-1.5-.2.1-1.1.9-.5 1.7-1.5 1.7-2 0-.9 3.1-5.8 3.7-5.9.1 0 .1.9 0 1.9zM362 213.5c0 .8.6 1.5 1.3 1.5.8 0 .7.4-.3 1.1-1.2.9-1.2 1 .3.5 1-.3 2.1-.6 2.3-.6.2 0-.1-.9-.8-2-1.5-2.4-2.8-2.6-2.8-.5zm5.5 3.5c.3.5.8 1 1.1 1 .2 0 .4-.5.4-1 0-.6-.5-1-1.1-1-.5 0-.7.4-.4 1zm-3.5 1.9c0 .6.5 1.3 1 1.6.6.3 1-.1 1-.9 0-.9-.4-1.6-1-1.6-.5 0-1 .4-1 .9zm138.5 9.1c0 3.4.1 3.8.9 2.1.5-1.3.5-2.9 0-4.2-.8-1.7-.9-1.3-.9 2.1zm-2.1 1.9c0 2.1.7 3.6 1.6 3.8 1 .3 1.1.2.3-.4-.6-.4-1.3-2.2-1.6-3.8-.4-2.7-.5-2.7-.3.4zm117.3 2.7c-.4 1.2-2.6 4.6-5 7.7-2.3 3.1-6 8.1-8.1 11.2-2.2 3-5.3 6.8-6.8 8.3-1.6 1.5-4 4.9-5.3 7.7-3.1 6.2-8.3 13.5-9.6 13.5-.5 0-.9.6-.9 1.3 0 .7-1 1.7-2.2 2.2-2.4 1.1-3.4 2.7-4.3 6.8-.3 1.5-.9 2.6-1.3 2.3-.5-.3-1.7 1.2-2.8 3.2-1 2-2.5 4.3-3.1 5-.7.7-1.3 2-1.3 2.8 0 .8-.4 1.4-.9 1.4s-1.6 1.2-2.4 2.7c-3.6 7-4.4 8.2-5 7.6-.4-.3-.7-.1-.7.5s-1.3 3.3-3 5.9c-3 4.6-3.9 8-2 6.8.6-.4 1 1.2 1 4 0 3.8-.5 5.2-2.9 7.6-1.9 1.9-4 2.9-5.8 2.9-1.6 0-3.6.6-4.4 1.2-2.1 1.8-19.9 33-19.9 35 0 .4 1.2 1.1 2.8 1.4 1.5.4 3.2 1.1 3.9 1.6 1.8 1.4 2.6-.9 1.8-5.9-.8-5.4.9-7.8 6.7-9.3l3.8-1.1V361c0-7 .6-7.5 9.8-8.6 4.5-.5 6.2-1.1 6.2-2.1 0-1.7 3.8-7.4 5.7-8.6.7-.4 1.3-1.5 1.3-2.3 0-.9 1-3 2.2-4.7 1.3-1.7 2.1-4.2 1.9-5.5-.1-1.3.9-4.2 2.5-6.5 5-7.8 22.6-31.1 36.1-47.9l13.4-16.8-.3-13.7c-.2-8-.6-12.9-1.1-11.7zm-11.1 27.1c-1.1 1.1-1.7-.4-.9-2.3.7-1.8.8-1.8 1.1-.1.2 1 .1 2.1-.2 2.4zM605 262c0 .5-.4 1-1 1-.5 0-1-.5-1-1 0-.6.5-1 1-1 .6 0 1 .4 1 1zm-2.6 1.8c.7 1.2-5.2 7.8-6.1 6.8-.4-.4 0-1.3 1-2 .9-.7 1.7-1.9 1.7-2.5 0-.7.5-.9 1-.6.6.3 1 .2 1-.4 0-.5-.6-1.2-1.2-1.4-.8-.3-.7-.6.4-.6.9-.1 1.9.3 2.2.7zM362 245c0 .5.4 1 .9 1 .6 0 1.3-.5 1.6-1 .3-.6-.1-1-.9-1-.9 0-1.6.4-1.6 1zm-50.2 4.7c.5 2.1.7 2.3 1 .9.2-1 0-2.2-.6-2.8-.6-.6-.7 0-.4 1.9zM264 267.2c0 1-1.2 1.8-3.4 2.2-1.9.4-3.7 1.2-4 1.9-.3.9-.7.8-1.5-.2-.8-1.2-1.1-1-1.6 1.2-.4 1.5-1.6 3.2-2.6 3.8-1.5.8-1.7 1.4-.9 2.9.7 1.4.7 2 0 2-.5 0-1 .7-1 1.6 0 1.4.2 1.5 1.7.3s1.6-1.2 1 .3c-.5 1.5-.1 1.8 2.6 1.7 1.8-.1 2.4-.3 1.4-.6-1.9-.5-2-4.4-.2-7.4 1.4-2.2 7.2-4.9 10.6-4.9 2.6 0 2.8.2 1.9 2.5-.9 2.5.2 3.6 1.5 1.4 1-1.5 3.8 2.8 3.1 4.7-.4 1.2-1 1.3-2.6.4-1.5-.8-2-.8-2 .2 0 .7 1.2 1.8 2.6 2.5 2.2 1 2.5 1 2-.3-.3-.7-.1-1.4.4-1.4.6 0 1 .5 1 1.1 0 1.7 7.9.4 9.9-1.5 1.3-1.3 1.3-2 .3-3.6-.6-1.1-1.2-2.8-1.2-3.9 0-2.5-1.5-3.6-8.5-5.9-3.7-1.3-6.4-1.7-7.1-1.1-.6.5-1.5.4-2.2-.3-.9-.9-1.2-.8-1.2.4zm20.1 7.4c0 1.1.3 1.4.6.6.3-.7.2-1.6-.1-1.9-.3-.4-.6.2-.5 1.3zm-43 23.9c-.1 1.1-.4 3.1-.6 4.5l-.6 2.5 1.1-2.5c.6-1.3.9-3.3.7-4.5-.4-1.9-.4-1.9-.6 0zm54.1.5c0 1.4.2 1.9.5 1.2.2-.6.2-1.8 0-2.5-.3-.6-.5-.1-.5 1.3zm229.9 7.9c-2.4 3.3-2.7 4.6-.8 3.5.9-.6.9-.5 0 .8-.7.8-.9 1.8-.5 2.2.4.4.7 5 .7 10.1 0 11.7 1.6 14.3 4 6.4 3.1-10.6 2.9-25.9-.4-25.9-.5 0-1.9 1.3-3 2.9zm114.1 4.6c0 1.6.2 2.2.5 1.2.2-.9.2-2.3 0-3-.3-.6-.5.1-.5 1.8z"/><path d="M521 320.2c.1 4 .2 4.2 1.5 2.4 2-2.6 1.9-6.6 0-6.6-1.1 0-1.5 1.1-1.5 4.2zm111.7 8.8c-10.3 19.7-11.8 24.4-11.6 36.1.1 5.4.6 9.6 1 9.3.4-.2.7-1.7.7-3.2-.1-4.9 7.6-25.5 13.8-36.9 3.1-5.5 3.5-7 3.2-12.2l-.3-6-6.8 12.9zM295 324c-.8.5-2.8 1-4.5 1.1-1.6 0-2.4.3-1.7.6.6.2 1.2 1.1 1.2 2 0 1 .6 1.2 2.3.7 3.4-1.1 6.7-3.5 6.1-4.5-.7-1.1-1.5-1.1-3.4.1zm227 9.1c.7 1.1 1.4 1.9 1.6 1.6.7-.7-.7-3.7-1.7-3.7-.6 0-.5.9.1 2.1zM224.5 338c.3.5.8 1 1.1 1 .2 0 .4-.5.4-1 0-.6-.5-1-1.1-1-.5 0-.7.4-.4 1zm5.1 7c.3 4.7 1 8.9 1.5 9.4 1.7 1.9 1.4-4.5-.6-12.4l-1.5-5.5.6 8.5zm30.3-4.9c-.9.9-2.2 3.4-2.9 5.5-.7 2.2-1.6 4.4-2.1 5-.5.6-.7 1.3-.4 1.5.2.3.5 2.5.6 4.9.2 2.5.7 4.8 1.3 5.2.7.6.6 1.1-.4 1.7-.8.6-1.2 1.3-.8 1.6 1.7 1.7 3.5-3 4.1-10.4.4-4.5 1.1-9 1.7-10.2.6-1.1 1-3 .8-4.2-.3-2.1-.4-2.1-1.9-.6zm298.7 19.5c-.3.9-.6 2.5-.6 3.7 0 3.3-1.5 4.9-4.7 5.1-4.1.4-5 1.1-5.7 4.8-1.7 8.6-1.7 12.9-.2 15.4 1 1.5 1.2 2.3.5 2.2-1.9-.5-3 4.9-1.3 6.3 1.1.9 1.6.6 2.3-1.2.8-2 1-2 1-.5.1 1.5.4 1.6 1.6.6.9-.7 1.5-.8 1.5-.2 0 1.3 3.2 2.5 3.9 1.4.3-.5 1.4-1.1 2.4-1.5 1.2-.4 1.7-.1 1.8 1.1 0 1.4.1 1.5.7.2 1.1-2.5 12.7-17.3 16.1-20.5l3.1-2.9-1.1 3.2c-.6 1.8-1.5 3.2-2 3.2s-.9.5-.9 1.1c0 .6-.8 1.8-1.8 2.7-.9 1-1.3 1.4-.8.9 2-1.5 2.8-.6 1.1 1.3-1 1.1-2.1 1.7-2.6 1.4-.5-.2-2 1.3-3.4 3.5-2.5 4.1-3.3 8.1-1.5 8.1.6 0 1-.8 1-1.9 0-2.8 2.9-9.3 3.9-8.6 1.1.6 13.1-12.3 13.1-14.1 0-1.3-.4-1.6-3.2-1.8-2.4-.2-5.8-4.9-6.4-8.8l-.7-3.8h-5.8c-3.2 0-6.9-.4-8.2-.9-2-.8-2.7-.6-3.1.5zm-298 .9c-.3.8-.1 1.5.4 1.5 1.3 0 2.2-1.8 1.1-2.4-.5-.3-1.1.1-1.5.9zm24.1.2c-.3.5-.2 1.5.2 2.2.7 1 1 1 1.6.1.4-.6.3-1.6-.3-2.2-.5-.5-1.2-.6-1.5-.1z"/><path d="M616 367.3c-2.4 5-6 7.6-6 4.3 0-5.6-15.7 4-21.1 12.8-1.2 1.9-1.9 2.5-1.9 1.5 0-1.4-.6-1.6-3.5-.9-7.2 1.6-11.1 6.3-10.3 12.2.4 2.4.1 2.7-3.8 3.3-2.3.3-5 1.5-5.9 2.5-1 1.1-2.4 2-3.2 2-2.7 0-25.8 23.1-24.1 24.1 1.4.9-2.2 5-3.6 4.2-.6-.3-.8-.3-.4.2.4.4.2 1.5-.4 2.3-1 1.2-.3 1.3 5.7.7 6.6-.7 6.9-.6 5 .9-1.9 1.6-1.9 1.6 1 1 2.1-.4 2.6-.3 1.6.4-1.1.8-1.1 1.1 0 1.6.8.3.4.3-.8 0-1.2-.3-3-.1-4 .5-1 .5-3.2 1.5-5 2.2-1.7.7-2.9 1.7-2.7 2.1.3.4-.2.5-1 .2-.9-.3-1.6-.1-1.6.5 0 2.4 3.2 2.2 8.5-.3 6.4-3 6.6-3.1 5.9-1.2-.4.9.5 1.5 2.6 1.8 3.2.5 3.2.4 2.7-3.1-.3-2-.3-3 0-2.3.2.6.9 1 1.4.6.5-.3.9.2.9 1.1 0 1.1 3.2-1.2 9.1-6.2 4.9-4.3 10.3-8.5 11.9-9.4 1.7-.9 3.6-2.1 4.3-2.7.8-.7 1.8-.7 2.7-.2.8.5 2.2.4 3.3-.2 1.3-.7 1.6-1.2.8-1.7-1.2-.8-3.4-7.1-2.5-7.1.3 0 1.3.8 2.2 1.7 1.6 1.6 1.7 1.5 2-.9.3-2.6 2.4-3.9 8.4-5.2 3.6-.8 8.5-5.1 10.7-9.5 1.9-3.6 4.1-12.5 4.1-16.2 0-1.9-.1-1.9-1.6-.5-2.1 2.2-2.7 2-1.3-.5.6-1.2.9-3.2.6-4.5-.5-3 1.2-3.6 7.4-2.8l4.9.7v-7.7c0-4.2-.1-7.6-.2-7.6-.2 0-1.4 2.4-2.8 5.3zm-13.3 12.9c-1.1.5-4.8 3.7-8.4 6.9-6.1 5.6-8.2 6.6-8.6 4.5-.1-.5.8-1 2.1-1.1 1.4-.1 4.1-2.2 6.9-5.4 4.3-4.9 8.1-7.5 9.3-6.4.3.2-.3.9-1.3 1.5zm-19.3 12.4c2.4.9 1.9 3.1-.9 3.6-1.9.4-2.5.1-2.5-1.2 0-1.4.8-3 1.6-3 .1 0 .9.3 1.8.6zm8.7 5.9c3.8-1.2 1.7 1.8-4.4 6.4-1.5 1.2-1.7 1.2-1.1-.3.3-.9.2-1.6-.3-1.6-.6 0-1-1.3-.9-2.9.1-2.6.3-2.8 2.5-2 1.3.5 3.2.7 4.2.4zm8.7 3c-1.6 3.5-2.9 3.1-1.5-.4.6-1.7 1.4-2.8 1.9-2.5.4.3.2 1.6-.4 2.9zm-21.9 6.9c-1.2 1.1-12.9 5.3-12.9 4.6 0-.4 1.5-1.3 3.3-2 1.7-.6 4.1-1.6 5.2-2 2-.9 5.2-1.3 4.4-.6zM543 442c0 .5-.4 1-1 1-.5 0-1-.5-1-1 0-.6.5-1 1-1 .6 0 1 .4 1 1zm-305.2-69.4c-1.4 1.4-2 1.5-3.2.5-1.2-1-1.4-.9-.9.8.3 1.2.9 2.1 1.3 2.1 1.2 0 3.3 5.7 2.5 6.9-.3.6-1.4 1.1-2.3 1.1-1.5 0-1.5.1 0 1.6.9.9 2.8 1.6 4.2 1.6 2.1 0 2.3.3 1.1 1.4-.7.8-2.6 1.4-4.2 1.5-2.1 0-2.3.2-1.1.7 1.6.7 1.6 1 .3 3.6-.8 1.5-1.5 3.5-1.5 4.2 0 1.6 1.6 1.9 2.5.4 1.5-2.3 4.3-3 6-1.4 1.5 1.5 1.5 1.4.9-1.2-.4-1.6-1.1-3.7-1.6-4.7-.6-1.2-.5-1.6.3-1.5 1.4.4 5.3-10.6 3.9-11-.5-.2-1-1.5-1-2.8 0-2.8-.8-3.1-2.5-.7-1.2 1.6-1.4 1.5-2.2-1.5-.8-3.1-.9-3.2-2.5-1.6zm72.2.3c0 1.1-.3 2.6-.6 3.5-.5 1.2 0 1.6 2 1.6 2.9 0 3.5-1.4 1-2.4-1-.4-1.4-1.4-1.1-2.6.3-1.1.1-2-.4-2s-.9.9-.9 1.9zM85 384c-.8.5-2.6.6-4.1.3-2.1-.4-3.4.2-5.9 2.6-1.8 1.7-3.6 3.1-4.1 3.1-.4 0-1 .9-1.4 1.9-.5 1.7-3.7 3.5-5.7 3.2-2-.2-6.5 23.9-5.4 28.4.5 2 9.5 7.5 12.3 7.5.7 0 1.4.4 1.7.9 1.1 1.7-6 0-9.6-2.4-2.1-1.4-4.1-2.5-4.6-2.5-.7 0-1.4 6.9-1.6 18l-.1 4.5 9.5 4.7c10.3 5.1 12.8 5.9 9.1 2.8-2.8-2.4-1.5-2.7 1.7-.4 3.6 2.5 4.8 1.1 1.8-2-1.4-1.6-2.6-3.4-2.6-3.9 0-.6.3-.7.6-.4.4.3 1.5.2 2.5-.4 1.1-.5 1.9-.6 1.9-.2 0 .5 1.3 1.4 3 2 3.7 1.4 4.5.4 5.3-6.4.6-5.6.1-6.5-4.3-7.1-1.4-.2-4.3-1.2-6.5-2.2-3.6-1.7-3.8-1.8-1.4-1.9 2.9-.1 13.7-10.3 15.2-14.4.5-1.2 1-5.7 1.1-9.9.2-4.4.9-8.4 1.6-9.3 1.6-2-.4-2-2.4 0-.8.8-1.9 1.5-2.4 1.5-.4 0-3.5 1.3-6.9 2.9-4.9 2.4-21.1 6.5-22.1 5.6-.1-.1 0-.9.4-1.8.7-1.9 6.8-4.3 14.6-5.6 3.2-.6 7.2-1.8 9-2.7l3.3-1.8-3.5-.7c-1.9-.4-3.8-.5-4.2-.3-1.6 1-1.8-1.9-.1-4.6 1.8-3.2 2.8-3.7 3.8-2 .5.8 1.1.7 2.1-.1.7-.6 1.1-1.6.8-2.1-.4-.6.4-.4 1.7.2 1.9 1 2.2 1 1.2 0-.6-.7-.9-1.9-.6-2.6.3-.8-.1-1.4-1-1.4-.8 0-1.7-.4-1.9-1-.2-.6-.9-.6-1.8 0zm-11.9 66c1.1 0 1.9.3 1.9.7 0 1-10.9 1.5-12.3.6-1.7-1 2.4-2.3 5.7-1.8 1.6.3 3.7.5 4.7.5zM525 386c0 .5.5 1 1.1 1 .5 0 .7-.5.4-1-.3-.6-.8-1-1.1-1-.2 0-.4.4-.4 1zm-7.4.9c-.4.6.3 1.5 1.4 2.1 2.3 1.2 2.7-.2.6-1.9-.9-.8-1.6-.8-2-.2zm-4 6.8c-1.1 1.1-.6 2.3.9 2.3.8 0 1.5-.4 1.5-.9 0-1.3-1.6-2.2-2.4-1.4zm3.5 3.8c-1.3 3.1-.2 7.5 1.9 7.5 1.2 0 1.2-5.6 0-8.5-.7-1.8-.9-1.8-1.9 1zm-5.4 2.2c-.4.3-.7 1.1-.7 1.7 0 .6.5.5 1.2-.2.6-.6.9-1.4.7-1.7-.3-.3-.9-.2-1.2.2zm36.4 2.9c-1.4 3.1-.5 5 1.5 3.3 1.5-1.2 2-5.9.6-5.9-.5 0-1.4 1.2-2.1 2.6zm5.7-1.4c1.1 1.1 5.2 2.2 5.2 1.4 0-.2-1.5-.9-3.2-1.5-2.6-.9-3-.9-2 .1zm-49.8 1c0 .9.7 2.2 1.7 2.9 1.5 1.3 1.5 1.2.3-1.1-1.7-3.4-2-3.6-2-1.8zm10.5 1.8c.3.5.8 1 1.1 1 .2 0 .4-.5.4-1 0-.6-.5-1-1.1-1-.5 0-.7.4-.4 1zm39.1 1.5c-.3.8-1.2 1.5-2 1.5-2 0-2.9 1.7-1.2 2.3 1.7.7 6.2-3.8 4.8-4.7-.6-.3-1.2.1-1.6.9zm-42.6 1.4c0 .6.5 1.3 1.1 1.6.6.4 1.4 1.7 1.9 2.9.7 1.9.9 1.9 1.5.3.5-1.1.1-2.5-1-3.7-1.9-2.1-3.5-2.6-3.5-1.1zm-280.2 5.2c1.8 3.5 2.8 4.6 3.3 3.7 1.2-1.8 1.1-3-.1-2.3-.5.3-1.7-1-2.7-2.9-.9-2-2-3.6-2.3-3.6-.4 0 .4 2.3 1.8 5.1zM504 408c0 .8.5 2.2 1 3 .9 1.3 1 1.3 1 0 0-.8-.5-2.2-1-3-.9-1.3-1-1.3-1 0zm-308.8 12c0 1.4.2 1.9.5 1.2.2-.6.2-1.8 0-2.5-.3-.6-.5-.1-.5 1.3zm317.4.6c-.4.9-.4 1.9-.1 2.2.3.3.5-.1.5-.8 0-.9.6-.7 2.1.6 2.1 1.9 2.1 1.9.8-.9-1.4-3.1-2.4-3.4-3.3-1.1zm-1.5 6.8c-.7.8-.8 1.7-.3 2 .6.3 1.3-.1 1.6-1 .9-2.3.2-2.8-1.3-1zM525 432c-1.9 1-3.8 1.6-4.2 1.3-.4-.2-.5.3-.2 1.1.5 1.2 1.1 1.3 3.2.4 2.9-1.2 7.3-4.9 5.7-4.7-.6.1-2.6.9-4.5 1.9z"/><path d="M87.7 432.8c-2.2 2.4-2.1 3.2.3 3.2 1.1 0 2-.4 2-.9s.3-1.6.6-2.5c.8-2.2-.9-2-2.9.2zm272.5 5.1c-1.7 4.8-1.4 7.3.4 3.2.8-1.9 1.3-4.2 1.1-5-.1-.9-.8-.2-1.5 1.8zm-176.2.6c-1 1.3-.8 2 1.4 4 3 2.7 4.6 3.2 4.6 1.2 0-.9.3-.8.9.2.5.7 1.1.9 1.4.4.3-.4-1.2-2.3-3.3-4-3.3-2.8-4-3-5-1.8zm93-.7c0 .4-1 1.2-2.2 1.7-1.4.6-2.6 2.2-2.9 4-.4 1.6-.7 2.2-.8 1.2-.1-1.2-1-1.7-3-1.7-1.6 0-3.6-.2-4.4-.5-2.2-.9-1.7 15.3.6 17 .9.6 1.4 1.5 1.1 1.8-.3.3-.2 1.2.2 1.9.6.9 1.3-.4 2-3.7 1.2-5 1.2-5 1.3-1.2.1 3.4.3 3.7 2.1 2.7 1.6-.9 1.8-.8 1.4.5-.4.8-1 1.5-1.4 1.5-.4 0-1 .9-1.3 2-.6 2.3.1 2.5 2.4.7.9-.7 1.4-1.8 1.1-2.6-.3-.8 0-1.1.7-.7.6.4 1.1.2 1.1-.3 0-.6.7-1.1 1.5-1.1s1.5-.5 1.5-1.1c0-.5.3-.8.8-.6.4.2 1.8-.7 3.2-2l2.5-2.5-2.5.7c-2.3.6-2.3.5.5-1.3l3-2 2.7 3c1.4 1.7 4 5.8 5.7 9.2 1.7 3.5 4.1 7.9 5.5 9.8 1.3 2 2.7 4.5 3.1 5.7 1.2 3.8 2.3 2.2 1.3-2-.7-2.6-1.5-3.8-2.4-3.5-.7.3-1.3-.2-1.3-1.2 0-3.3-1-6.8-3-11.4-2.6-5.7-3.8-13.3-2.2-14.2.6-.4 1.1-1.1 1.1-1.6 0-.8-3.4-2.4-5.5-2.5-1.8-.2-8.4-3.6-9.6-5.1-1.2-1.5-3.9-1.9-3.9-.6zm-1.3 5.4c-.3.8-.6.5-.6-.6-.1-1.1.2-1.7.5-1.3.3.3.4 1.2.1 1.9zm-3 8c-.3.7-.5.2-.5-1.2s.2-1.9.5-1.3c.2.7.2 1.9 0 2.5zm256.1-11.9c-3.3 1.3-3.4 1.8-.8 3.5 1.7 1 2.6.9 5.8-1.1 2-1.3 4.4-2.6 5.2-3 .8-.3-.5-.5-3-.5s-5.7.5-7.2 1.1zm-330.3 8.6c-.2.5.7 1.2 2.1 1.5 3.5.9 4 .2.9-1.2-1.3-.6-2.7-.7-3-.3zm105.5.1c0 .5.5 1 1.1 1 .5 0 .7-.5.4-1-.3-.6-.8-1-1.1-1-.2 0-.4.4-.4 1zm-121.7 2c-1 1.5-.8 2.6 1.1 6.2 1.2 2.4 2.1 4.8 1.9 5.4-.8 2.4 15.2 6.8 22.2 6.2 4.9-.4 6.1-3.2 2.1-4.8-4-1.5-3.1-2.6 1.9-2.2 2.5.2 4.5 0 4.5-.4 0-.5-1.5-1-3.3-1.1-1.9-.1-5.4-1-7.8-2.2-2.4-1.1-7.2-2.9-10.6-4-3.3-1-7.2-2.6-8.5-3.5-2.2-1.4-2.4-1.4-3.5.4zm352.2.8c-.7.5-.7 1.7 0 4 .6 1.8 1.4 3 1.7 2.7.3-.4.9-.2 1.3.4.3.6 0 1.1-.7 1.2-1.6.1 2.1 1.7 4.1 1.8 1.1.1 1.1-.3-.2-1.7-1.9-2.1-1.1-3.8 1-2 1 .8 1.7.8 2.5 0 .9-.9.9-1.2-.1-1.2s-.9-.6.3-2.5c2.2-3.3 2.1-3.5-1.4-3.5-1.7 0-3 .5-3 1.2 0 .9-.3.9-1.2 0-1.4-1.4-2.8-1.5-4.3-.4zm-298 4c-2.7.9-5.9 2.3-7 3-1.9 1.3-1.9 1.3.3.8 1.9-.4 2.1-.2 1.1 1-.9 1.1-.7 1.4 1.2 1.6 1.3 0 2.9.2 3.5.2.6.1 2.6 1.4 4.5 3 2.8 2.4 3.5 2.6 3.7 1.2.2-.9.8-1.6 1.4-1.6.5 0 .7.7.4 1.7-1 2.4 2.4 4.9 8.4 6.2 2.9.6 5.5 1 5.7.7.6-.6-5.9-4.2-9-5-1.5-.3-2.7-1.1-2.7-1.6s2.3-.1 5.1 1.1c2.9 1.1 5.6 1.8 6.2 1.6 1.4-.4-4.9-7.5-7.5-8.3-1.5-.4-1.7-.8-.8-1.4.8-.5 2.4-.2 3.8.8 5.7 3.7 6.2 1.3.8-3.7-3.4-3.2-12-3.8-19.1-1.3zm295.5-.4c0 .8.4 1.7.9 2 .5.4.7-.3.4-1.4-.6-2.3-1.3-2.6-1.3-.6zm-448.3 1.7c.7.7 1.5 1 1.8.7.3-.3-.2-.9-1.2-1.2-1.4-.6-1.5-.5-.6.5zm136.8 4.9c.3.5-.5 1.5-1.9 2.2-1.4.6-2.6 1.7-2.6 2.5 0 1.6.1 1.6 3.4.3 1.4-.5 2.6-.6 2.6-.2 0 1.1-5.8 7.2-6.8 7.2s-2.2 3.3-2.2 6.2c0 1 .7 1.8 1.7 1.8 1.5 0 1.5.1 0 1.8-3 3.3-2.1 4.9 2.9 5.7 2.6.3 5.3.9 6 1.2 1.1.4 1.4-.6 1.4-3.8v-4.4l3 3.6c3.7 4.5 7.5 4.4 8.5-.2.8-3.6 2.5-4.8 2.5-1.7 0 1.8.2 2 1 .8s1-1.2 1-.1c0 .8.3 1.2.6.8.8-.8-1.5-7.8-3.4-10-1.9-2.1.1-2.3 2.2-.1 1.5 1.4 1.6 1.2 1.6-1.8-.1-2.8-.7-3.7-4.3-6-6.5-4-18.7-8.2-17.2-5.8zm13.2 25.2c-.3.8-.6.5-.6-.6-.1-1.1.2-1.7.5-1.3.3.3.4 1.2.1 1.9zM537 462.1c0 .5.5.7 1 .4.6-.3 1-.8 1-1.1 0-.2-.4-.4-1-.4-.5 0-1 .5-1 1.1zm-460.2 1.6c.7.3 1.6.2 1.9-.1.4-.3-.2-.6-1.3-.5-1.1 0-1.4.3-.6.6zm-22.1 4.9c-.3 2.7-.4 5-.2 5.2.2.2 1.6-.3 3.2-1.1 1.5-.8 6.2-2.3 10.3-3.3l7.4-1.8-3.4-1.5c-1.9-.8-6.5-1.6-10.1-1.9l-6.6-.4-.6 4.8zm482.8-3.6c.3.5 1 1 1.6 1 .5 0 .9-.5.9-1 0-.6-.7-1-1.6-1-.8 0-1.2.4-.9 1zm-175.9 4.5c-1.1 1.9-2.3 3.2-2.7 2.9-.5-.3-.9.9-.9 2.6 0 1.7-.5 4.1-1.1 5.3-1.2 2.2-1.2 2.2 1 .3 1.3-1.2 1.9-2.6 1.6-3.6-.3-1.1.1-2 1-2.4.8-.3 1.5-1.1 1.5-1.7 0-.7.7-2 1.4-2.8.8-.9 1.2-2.2.8-2.8-.5-.8-1.4-.1-2.6 2.2zM85 471c0 .6.7 1 1.5 1s1.5-.2 1.5-.4-.7-.6-1.5-1c-.8-.3-1.5-.1-1.5.4zm456.4-.3c1 1.1 3.6 1.2 3.6.2 0-.5-1-.9-2.2-.9-1.2 0-1.8.3-1.4.7zm-475.6 3.8c-9.1 2.7-10.2 3.3-10.9 5.7-1.4 5.2-2.8 30.5-3.5 60.4-.7 31.8-.2 43.4 2.1 43.4.7 0 4.4-.9 8.1-2.1 5.7-1.8 7.9-3.1 13.6-8.7 3.7-3.6 7.6-7.9 8.6-9.6 1.9-3.3 1.8-6.6-.1-6.6-.7 0-.3-.7.7-1.5 1.5-1.2 2.1-3.2 2.6-9.6.5-7.3.4-8.2-1.4-9.5-2-1.4-2-1.4.1-1.4 1.9 0 2.1-.3 1.3-2.9-.4-1.5-.7-6.7-.6-11.4.1-6.9-.1-8.3-1.2-7.4-1.1.8-1.2.5-.6-1.7 1.3-5.4 1.1-5.9-3.5-7.3-6.8-2-6.8-2.9.2-2.5l6.2.4-.3-8.5c-.4-9.3-.7-9.7-7.4-9.7-1.9 0-2.8-.5-2.8-1.6 0-1.4.7-1.5 4.5-1l4.5.7v-3c0-1.7 0-3.4.1-3.9.1-1.1-5.4-3.8-7.9-3.8-1.3 0-6.8 1.4-12.4 3.1zM70 489c0 2-2.5 3.8-3.6 2.7-.7-.6 1.8-4.7 2.8-4.7.5 0 .8.9.8 2zm174.6-15.5c.2 1.1.4 2.5.4 3.1 0 .6 1.3 1.1 2.9 1l3-.1-2.1-2.2c-1.2-1.2-2.4-2-2.9-1.8-.4.3-.9 0-1.2-.7-.2-.7-.3-.4-.1.7zM355 475c-.6 1.1-.8 2-.5 2 .3 0 .1 1-.5 2.2-1.1 2.3-1.1 2.3.9-.1 1.2-1.3 2.1-3.2 2.1-4.2 0-2.4-.7-2.4-2 .1zm-160 .2c0 .5.7 1.1 1.5 1.4.8.4 1.5 1.2 1.5 1.9 0 2.4 1.7 2.5 4.3.5 3.3-2.6 4.5-2.6 2.2 0-1.7 1.9-1.8 2.2-.2 3.7 1.1 1.1 2 1.4 2.6.8 1.2-1.4 2.5-7.6 1.4-7.4-.4.1-1.5 0-2.3-.4-2.8-1-11-1.5-11-.5zm176 1c-1.2 2.2-1.2 2.2.6.6 1-1 1.5-2 1.2-2.4-.4-.3-1.2.5-1.8 1.8zm-28.3 1.4c-1 1.3-1.9 3.4-2 4.7-.2 2.4-4.8 9.5-11 17-2.2 2.6-3.8 5-3.4 5.3.3.3 3-2.7 6-6.8 3-4 6.4-8.2 7.6-9.2 1.1-1.1 2.1-2.7 2.1-3.6 0-.9.7-3.1 1.6-4.9 2-4 1.4-5.6-.9-2.5zm8.8 1.5c-.4.6-.7 2.6-.8 4.4 0 1.9-.5 3.1-.9 2.9-.5-.3-.7-.2-.6.3.1.4-.6 2.3-1.5 4-1 1.8-1.6 3.3-1.4 3.3 1 0 5.8-8 5.3-8.8-.3-.5-.1-2.3.4-4.1.9-3.1.7-4-.5-2zm192.5.9c0 .5.5 1 1 1 .6 0 1-.5 1-1 0-.6-.4-1-1-1-.5 0-1 .4-1 1zm-348.9 2.9c-1.2 2.2-.5 2.7 1.9 1.1 1.1-.7 1.2-1.2.3-2.1-.8-.8-1.4-.6-2.2 1zM537 482c0 .5.5 1 1.1 1 .5 0 .7-.5.4-1-.3-.6-.8-1-1.1-1-.2 0-.4.4-.4 1zm3 0c0 .5.5 1 1 1 .6 0 1-.5 1-1 0-.6-.4-1-1-1-.5 0-1 .4-1 1zm-194.3 4.4c-2.2 6.4-2.1 7.1.4 2.1 1.1-2.2 1.8-4.7 1.6-5.5-.1-.8-1.1.7-2 3.4zm-145-1.3c.9.9 1 1.6.1 2.6-1.9 2.4.1 2.7 2.3.4 2.4-2.5 2.3-2.6-1.1-3.6-2-.6-2.3-.5-1.3.6zm128 3.3c-2.1 1.3-4.6 3.4-5.5 4.7-.9 1.3-1.8 2.6-2.2 2.9-.8.7-6.5 8.2-7.5 9.8-.6 1.2-.3 1.2 1.6.2 3.6-1.9 13-10.1 13.6-11.9.4-.9 1.1-2.3 1.8-3.1 1.1-1.4 2.7-5 2.2-5-.1 0-1.9 1.1-4 2.4zm108.3.6c-1.2.8-1.1 1 .6 1 1.2 0 2.5.7 2.8 1.6.4.9.9 1.4 1.2 1.1.7-.6-1.4-4.7-2.4-4.7-.4 0-1.4.5-2.2 1zm14.6-.2c-.3.6-.1 1.4.5 1.7 1.5 1 2.5-.3 1.2-1.6-.7-.7-1.3-.7-1.7-.1zM211 490c0 .5 1.2 1 2.8 1 2.1 0 2.4-.2 1.2-1-2-1.3-4-1.3-4 0zm61.5 2c1 1.1 2 2 2.3 2 .3 0-.3-.9-1.3-2s-2-2-2.3-2c-.3 0 .3.9 1.3 2zm170.5-1c0 .5.5 1 1 1 .6 0 1-.5 1-1 0-.6-.4-1-1-1-.5 0-1 .4-1 1zm12.4 1.6c.3.9.6 2 .6 2.4 0 .5.9.7 2 .5 1.2-.2 2.4.3 3 1.4.5 1 2.4 2.4 4.2 3.1 1.8.8 4.5 2.2 6 3.2 3.2 2.2 3.9 2.3 3.2.3-.4-.8-1.4-1.5-2.4-1.5s-2-.7-2.4-1.5c-.3-.8-1.2-1.5-1.9-1.5-.8 0-2-.7-2.7-1.5-.7-.8-1.6-1.3-2-1-.4.3-1-.5-1.3-1.6-.4-1.4-1.1-2-2.1-1.6-.8.3-1.7-.1-2-.9-.3-.8-1-1.4-1.7-1.4-.6 0-.8.7-.5 1.6zm-9.9.4c-.4.6-.4 1-.1 1 .2 0 1.1.3 2 .6.9.3 1.6.2 1.6-.4 0-1.4-2.8-2.3-3.5-1.2zm49.5.3c0 1.5 2.9 5.7 3 4.2 0-.6-.3-2-.6-3.3-.7-2.4-2.4-3.1-2.4-.9zm47-.3c0 .5.7 1 1.5 1s1.5-.5 1.5-1c0-.6-.7-1-1.5-1s-1.5.4-1.5 1zm-205.8 2.5c-1.3 1.4-2 2.9-1.7 3.6.5.6 1.5-.2 2.7-2.1 2.4-4 2-4.6-1-1.5zm24.6 0c-.6 1.3-1.4 2.2-1.9 2-.4-.3-1-.1-1.3.4-1.1 1.7 2.7.5 4-1.3.7-1 1.7-1.5 2.3-1.1.7.3.8 0 .5-.9-.9-2.3-2.3-1.9-3.6.9zm77.2-1.1c0 .2.7.9 1.5 1.6 1.2 1 1.5 1 1.5-.4 0-.9-.7-1.6-1.5-1.6s-1.5.2-1.5.4zm13.7 2.6c1.9 2.2 2.9 1.9 2-.5-.4-.8-1.3-1.5-2.2-1.5-1.3 0-1.2.3.2 2zm-20.2 0c.3.5.8 1 1.1 1 .2 0 .4-.5.4-1 0-.6-.5-1-1.1-1-.5 0-.7.4-.4 1zm-153.5.4c0 .2.8 1 1.8 1.7 1.5 1.3 1.6 1.2.3-.4s-2.1-2.1-2.1-1.3zm165.5.6c.3.5 1.1 1 1.6 1 .6 0 .7-.5.4-1-.3-.6-1.1-1-1.6-1-.6 0-.7.4-.4 1zm55.5-.5c0 1.4.8 2.3 7.5 8.5 6.1 5.6 5.3 4.4-2.9-4.5-2.5-2.7-4.6-4.5-4.6-4zm-136.7 1.7c-1.1 1.9-1.3 3.9-.2 3.2 1.5-.9 3.1-4.4 2-4.4-.5 0-1.3.6-1.8 1.2zm73.7-.2c0 .5.5 1 1.1 1 .5 0 .7-.5.4-1-.3-.6-.8-1-1.1-1-.2 0-.4.4-.4 1zm20.2 1c1.4 2.2 2.4 1.9 1.5-.5-.4-.8-1.1-1.5-1.7-1.5-.6 0-.6.7.2 2zm30.9 1.3c5.6 5 9.3 7.6 9.8 7.1.3-.2-.6-1.2-2-2.1-1.3-1-3.9-3.2-5.7-5-1.8-1.8-3.8-3.3-4.5-3.3-.7 0 .4 1.5 2.4 3.3zm-59.1-1.9c0 .4.7 1.4 1.5 2.2.8.9 1.5 1.1 1.5.6 0-.5-.7-1.5-1.5-2.2-.8-.7-1.5-.9-1.5-.6zm19.6.5c-.3.5.3 1.1 1.5 1.4 1.6.4 1.8.3.8-.9-1.3-1.6-1.6-1.7-2.3-.5zm28.9.1c.3.5.8 1 1.1 1 .2 0 .4-.5.4-1 0-.6-.5-1-1.1-1-.5 0-.7.4-.4 1zm-122.3.7c-.6.3-1 .9-.6 1.4.3.5 0 .9-.6.9s-2.5 1-4.3 2.2c-6.6 4.7-7.3 6.6-1.1 2.7 1.9-1.1 3.4-2.5 3.4-3s.3-.8.8-.7c1.5.3 4.2-1.5 3.5-2.5-.3-.6-.1-.7.6-.3 1.6 1-1.9 5.3-6.7 8.3-4.1 2.5-3.8 3 .5 1.1 3.6-1.6 7.9-4.8 6.4-4.8-.7 0-.2-1 1.1-2.3 1.3-1.2 2.2-2.1 2-2-.3.1-1.2-.1-2.1-.6-.9-.5-2.2-.6-2.9-.4zm84.8.3c-1.2.8-1 1 .8 1 1.3 0 2-.4 1.7-1-.7-1.2-.6-1.2-2.5 0zm21 0c0 .5.5 1 1.1 1 .5 0 .7-.5.4-1-.3-.6-.8-1-1.1-1-.2 0-.4.4-.4 1zm-176.3 1.8c1.2 1.1 1.9 2.3 1.5 2.6-.3.4.2.4 1.1 0 1-.3 1.7-.7 1.5-.8-.2-.1-1.6-1-3.3-2-3-1.7-3-1.7-.8.2zm49.2-.8c-.1.8-.3 1.9-.3 2.5-.1.5-.5 1.6-.9 2.2-1.7 2.7.3 1.1 2.4-1.9 1.3-1.7 1.8-2.9 1.2-2.5-.6.4-1.4.1-1.6-.5-.4-.9-.6-.9-.8.2zm148.5.3c.3 1 .6 2.1.6 2.3 0 .2.6.4 1.3.4.6 0 2.3 1.2 3.6 2.5 1.3 1.4 2.8 2.5 3.5 2.5.6 0-.3-1.4-2.1-3-1.8-1.7-3.6-3-4.2-3-.5 0-1.5-.8-2.1-1.8-1.1-1.6-1.1-1.6-.6.1zm-48.9.7c.3.5 1 1 1.6 1 .5 0 .9-.5.9-1 0-.6-.7-1-1.6-1-.8 0-1.2.4-.9 1zm20 0c.3.5 1 1 1.6 1 .5 0 .9-.5.9-1 0-.6-.7-1-1.6-1-.8 0-1.2.4-.9 1zm-133.6 2.9c-1.9 1.6-3.2 3.1-2.9 3.4.3.3 2.1-.7 4-2.3 1.9-1.6 3.2-3.1 2.9-3.4-.3-.3-2.1.7-4 2.3zm125.6-1.9c.3.5 1.1 1 1.6 1 .6 0 .7-.5.4-1-.3-.6-1.1-1-1.6-1-.6 0-.7.4-.4 1zm19.5-.6c0 .2.7.7 1.6 1 .8.3 1.2.2.9-.4-.6-1-2.5-1.4-2.5-.6zm-7 1.6c0 .5.5 1 1 1 .6 0 1-.5 1-1 0-.6-.4-1-1-1-.5 0-1 .4-1 1zm42.6.4c.3.8 1.3 1.7 2.1 2 2.5 1 2.3.3-.3-1.7-1.8-1.3-2.2-1.4-1.8-.3zm-70.6 0c0 .2.8 1 1.8 1.7 1.5 1.3 1.6 1.2.3-.4s-2.1-2.1-2.1-1.3zm39.6.4c-.2.4.4 1.4 1.5 2 1.9 1.2 1.9 1.1.9-.8-1.2-2.2-1.6-2.4-2.4-1.2zm7.9.2c.3.5.8 1 1.1 1 .2 0 .4-.5.4-1 0-.6-.5-1-1.1-1-.5 0-.7.4-.4 1zM302 507.5c-2.4 1.4-2.4 1.4-.4 1.5 1.2 0 2.4-.7 2.8-1.5.6-1.8.7-1.8-2.4 0zm22 0c0 .8.4 1.5 1 1.5.5 0 .7-.7.4-1.5-.4-.8-.8-1.5-1-1.5-.2 0-.4.7-.4 1.5zm137-.5c0 .5.5 1 1.1 1 .5 0 .7-.5.4-1-.3-.6-.8-1-1.1-1-.2 0-.4.4-.4 1zm-96 .9c0 .5-.8 1.2-1.7 1.5-1.1.3-.8.4.6.3 2.4-.2 4.4-2.7 2.2-2.7-.6 0-1.1.4-1.1.9zm57 .1c0 .5.5 1 1.1 1 .5 0 .7-.5.4-1-.3-.6-.8-1-1.1-1-.2 0-.4.4-.4 1zm19.5 0c.3.5.8 1 1.1 1 .2 0 .4-.5.4-1 0-.6-.5-1-1.1-1-.5 0-.7.4-.4 1zm12.5.4c0 .2.7.9 1.5 1.6 1.3 1.1 1.4 1 .9-.4-.5-1.4-2.4-2.3-2.4-1.2zm26 .1c0 .2 1 1 2.3 1.6 2 1.1 2.1 1.1.8-.4-1.3-1.6-3.1-2.3-3.1-1.2zm34 1c0 .3 1.2 1.8 2.6 3.3l2.6 2.7-1.8-3.3c-1.6-2.8-3.4-4.2-3.4-2.7zM400.5 511c-.3.5-.1 1 .4 1 .6 0 1.1-.5 1.1-1 0-.6-.2-1-.4-1-.3 0-.8.4-1.1 1zm91.5 0c0 .6.7 1 1.5 1s1.5-.2 1.5-.4-.7-.6-1.5-1c-.8-.3-1.5-.1-1.5.4zm8-.4c0 1.1 4 4.7 4.6 4.1.2-.2-.7-1.4-2.1-2.7-1.4-1.3-2.5-1.9-2.5-1.4zm6 .4c0 .5.5 1 1 1 .6 0 1-.5 1-1 0-.6-.4-1-1-1-.5 0-1 .4-1 1zm-213.6 1.4c2 .9 2.5 1.5 1.5 1.9-.9.4-.7.6.6.6 1.7.1 1.7.3.5 1.1-1.3.9-1.3 1 .1 1 .8 0 2.1-.6 2.7-1.2 1-1 1.5-1 2.2.2.5.8 1.2 1.1 1.6.7 1.1-1.1-2.8-3.6-4.5-2.9-.8.3-1.2.1-.8-.5.3-.5.1-1-.6-1.1-.7 0-2.3-.3-3.7-.6-2.2-.5-2.1-.4.4.8zm38 .8l-1.9 2.3 2.3-1.9c1.2-1.1 2.2-2.1 2.2-2.3 0-.8-.8-.2-2.6 1.9zm108.4-1.5c.7.3 1.6.2 1.9-.1.4-.3-.2-.6-1.3-.5-1.1 0-1.4.3-.6.6zm46.2.3c0 .5.7 1 1.6 1 .8 0 1.2-.5.9-1-.3-.6-1-1-1.6-1-.5 0-.9.4-.9 1zm-97 1c0 .5.5 1 1.1 1 .5 0 .7-.5.4-1-.3-.6-.8-1-1.1-1-.2 0-.4.4-.4 1zm83 0c0 .5.5 1 1.1 1 .5 0 .7-.5.4-1-.3-.6-.8-1-1.1-1-.2 0-.4.4-.4 1zm26.5 2c1 1.1 2 2 2.2 2 .2 0-.1-.9-.7-2s-1.6-2-2.2-2c-.6 0-.3.9.7 2zM286 515c0 .5.5 1 1 1 .6 0 1-.5 1-1 0-.6-.4-1-1-1-.5 0-1 .4-1 1zm202.8-.3c.7.3 1.6.2 1.9-.1.4-.3-.2-.6-1.3-.5-1.1 0-1.4.3-.6.6zm-183 1c.7.3 1.6.2 1.9-.1.4-.3-.2-.6-1.3-.5-1.1 0-1.4.3-.6.6zm16.7.3c-.3.6.1.7.9.4 1.8-.7 2.1-1.4.7-1.4-.6 0-1.3.4-1.6 1zm69.5.5c-1.1 1.3-1 1.4.4.9.9-.3 1.6-1 1.6-1.5 0-1.3-.6-1.1-2 .6zm19-.5c0 .5.5 1 1.1 1 .5 0 .7-.5.4-1-.3-.6-.8-1-1.1-1-.2 0-.4.4-.4 1zm-130 .4c0 .2.7.6 1.5 1 .8.3 1.5.1 1.5-.4 0-.6-.7-1-1.5-1s-1.5.2-1.5.4z"/><path d="M297.3 517.8c-.6.4-3 .7-5.2.6-2.3 0-4.1.3-4.1.7 0 .4-.8.9-1.7 1.2-1 .2 3.2.2 9.2-.1 6.1-.3 11.9-.9 13-1.4 1.3-.6.3-.7-3.2-.4-3 .3-5.3.1-5.3-.4 0-1.2-1.1-1.3-2.7-.2zm100.3 1.1c-.3.5.1 1.1.9 1.5.9.3 1.5 0 1.5-.9 0-1.6-1.6-2-2.4-.6zm18.9.1c-.3.5.1 1 1 1s1.3-.5 1-1c-.3-.6-.8-1-1-1-.2 0-.7.4-1 1zm26.5 0c0 .5.5 1 1.1 1 .5 0 .7-.5.4-1-.3-.6-.8-1-1.1-1-.2 0-.4.4-.4 1zm-49 2c0 .5.5 1 1 1 .6 0 1-.5 1-1 0-.6-.4-1-1-1-.5 0-1 .4-1 1zm-100.2.7c.7.3 1.6.2 1.9-.1.4-.3-.2-.6-1.3-.5-1.1 0-1.4.3-.6.6zm108 .7c-2.6 1.9-2.2 2.6.7 1.3 1.4-.7 2.5-1.5 2.5-2 0-1.1-1.3-.8-3.2.7zm33.2-.4c0 .5.5 1 1 1 .6 0 1-.5 1-1 0-.6-.4-1-1-1-.5 0-1 .4-1 1zm13 .1c0 .5.5.7 1 .4.6-.3 1-.8 1-1.1 0-.2-.4-.4-1-.4-.5 0-1 .5-1 1.1zm-64.5 2c-1 1.5.3 2.5 1.6 1.2.7-.7.7-1.3.1-1.7-.6-.3-1.4-.1-1.7.5zm57-.1c-.3.5.1 1 1 1s1.3-.5 1-1c-.3-.6-.8-1-1-1-.2 0-.7.4-1 1zm-141.7.7c.7.3 1.6.2 1.9-.1.4-.3-.2-.6-1.3-.5-1.1 0-1.4.3-.6.6zm110.2.3c0 .5.5 1 1.1 1 .5 0 .7-.5.4-1-.3-.6-.8-1-1.1-1-.2 0-.4.4-.4 1zm18.5 0c-.3.5-.1 1 .4 1 .6 0 1.1-.5 1.1-1 0-.6-.2-1-.4-1-.3 0-.8.4-1.1 1zm25.5 0c1.9 1.3 3 1.3 3 0 0-.6-1-1-2.2-1-1.9 0-2 .2-.8 1zm13 0c0 .5.5 1 1.1 1 .5 0 .7-.5.4-1-.3-.6-.8-1-1.1-1-.2 0-.4.4-.4 1zm-86 2c0 .5.5 1 1 1 .6 0 1-.5 1-1 0-.6-.4-1-1-1-.5 0-1 .4-1 1zm8.4.4c-.3.9-1.2 1.6-2 1.6s-1.4.4-1.4 1c0 1.5 1.2 1.2 3.9-.9 1.6-1.2 2-2 1.2-2.5-.6-.4-1.4 0-1.7.8zm89.1-.4c.3.5 1.1 1 1.6 1 .6 0 .7-.5.4-1-.3-.6-1.1-1-1.6-1-.6 0-.7.4-.4 1zm-63.5.9c0 .6.5 1.3 1 1.6.6.3 1-.1 1-.9 0-.9-.4-1.6-1-1.6-.5 0-1 .4-1 .9zm32.5.1c.3.5.8 1 1.1 1 .2 0 .4-.5.4-1 0-.6-.5-1-1.1-1-.5 0-.7.4-.4 1zm11.7.1c.2.7 1 1.5 1.7 1.7.8.3 1.2-.1.9-.9-.2-.7-1-1.5-1.7-1.7-.8-.3-1.2.1-.9.9zm-26.2 1.5c0 .9.7 1.4 1.7 1.2 2.5-.5 2.8-2.8.4-2.8-1.2 0-2.1.6-2.1 1.6zm39-.7c0 .5.5 1.3 1 1.6.6.3 1 .2 1-.4 0-.5-.4-1.3-1-1.6-.5-.3-1-.2-1 .4zm-60 1.2c0 .5.5.7 1 .4.6-.3 1-.8 1-1.1 0-.2-.4-.4-1-.4-.5 0-1 .5-1 1.1zm7.6 1.4c-1.1.8-1.6 1.8-1.3 2.2.9.9 5.8-1.8 5.1-2.9-.7-1.1-1.6-1-3.8.7zm32 .1c-.3.9-.6 1.7-.6 1.8 0 .1.9.2 2 .3 1.1.1 2 0 2-.2 0-1.1-1.3-3.5-2-3.5-.4 0-1.1.7-1.4 1.6zm13.4-.8c0 .5.7 1.5 1.5 2.2.8.7 1.5.8 1.5.2 0-.5-.7-1.5-1.5-2.2-.8-.7-1.5-.8-1.5-.2zm-25.7.9c-1.9.7-1.6 2 .7 2.6 1.5.4 2 0 2-1.4 0-1.9-.5-2.1-2.7-1.2zm-47.3 1.4c0 .5.5.7 1 .4.6-.3 1-.8 1-1.1 0-.2-.4-.4-1-.4-.5 0-1 .5-1 1.1zm8.5-.1c-.3.5.1 1 1 1s1.3-.5 1-1c-.3-.6-.8-1-1-1-.2 0-.7.4-1 1zm-24.4 1.6c0 1.1.3 1.4.6.6.3-.7.2-1.6-.1-1.9-.3-.4-.6.2-.5 1.3zm112.4-.6c.3.5.8 1 1.1 1 .2 0 .4-.5.4-1 0-.6-.5-1-1.1-1-.5 0-.7.4-.4 1zm-208.9 1.5c-1.1.8-1.5 1.5-1 1.5.6 0 1.9-.7 3-1.5 1-.8 1.5-1.4.9-1.4-.5 0-1.9.6-2.9 1.4zm145.6-.3c-.7.7-1.2 1.9-1.2 2.7 0 1.2.3 1.2 1.2.3.7-.7 2-1.2 3-1.2 1.1 0 1.5-.5 1.2-1.5-.7-1.8-2.6-1.9-4.2-.3zm-28.2.8c0 .5.5 1 1 1 .6 0 1-.5 1-1 0-.6-.4-1-1-1-.5 0-1 .4-1 1zm7.8 1.1c-1 1-1.8 2.5-1.8 3.1.1.8.6.6 1.4-.5.7-.9 1.8-1.7 2.5-1.7.6 0 1.1-.7 1.1-1.5 0-2-1.1-1.8-3.2.6zm53.2-.6c.7.8 1.6 1.2 2.1.9 1.3-.8.1-2.4-1.8-2.4-1.3 0-1.3.3-.3 1.5zm11-.5c0 .5.9 1 2.1 1 1.1 0 1.7-.5 1.4-1-.3-.6-1.3-1-2.1-1s-1.4.4-1.4 1zm-25.3.7c-1.4 1.3-.6 2.3 1.8 2.3 1.6 0 2.5-.6 2.5-1.5 0-1.5-3.1-2.1-4.3-.8zm37.3.2c0 .9 2.4 2.1 4.2 2.1.6 0 .6-.6-.2-1.5-1.4-1.6-4-2-4-.6zm-101.3.7c-.8.8.1 2.4 1.4 2.4.5 0 .9-.7.9-1.5 0-1.5-1.2-2-2.3-.9zm113.9.2c-.3.6-.1 1.4.5 1.7 1.5 1 2.5-.3 1.2-1.6-.7-.7-1.3-.7-1.7-.1zM302 540c-2 1.6-2.1 1.9-.5 1.3 2.2-.8 5.1-3.3 3.8-3.3-.4 0-1.9.9-3.3 2zm109.3-.7c-.4.7-1.6 1.7-2.6 2-2 .7-1.9 2.8.1 3.5.7.2 1.2-.3 1.2-1.2 0-.9.8-1.6 2-1.6 1.1 0 2-.6 2-1.4 0-2.1-1.7-2.9-2.7-1.3zm18.7.2c-.7.8-1 1.8-.6 2.2.3.3.6.1.6-.6 0-.6.6-1.1 1.3-.9 1.4.3 2.3-1.5.9-2-.5-.1-1.5.4-2.2 1.3zm30.6 0c-.4 1 .2 1.9 1.7 2.4 2.8 1.1 3.1.8 1.7-1.8-1.3-2.5-2.6-2.7-3.4-.6zm-85.2.9c-.8 2.2.3 3.3 1.8 1.8.9-.9.9-1.5 0-2.4-.9-.9-1.3-.7-1.8.6zm98.3-.7c-1.2 1.1-.8 2.3.8 2.3.8 0 1.5.5 1.5 1.2 0 .8.3.9 1 .2.6-.6.8-1.8.4-2.7-.6-1.7-2.5-2.2-3.7-1zm-89 1c-1.2 1.1-.8 2.3.8 2.3.8 0 1.5-.7 1.5-1.5 0-1.6-1.2-2-2.3-.8zm62.8.3c-1 1.7.3 2.8 2.9 2.3 1.6-.3 2.3-1 1.9-1.9-.6-1.6-3.9-1.9-4.8-.4zm38.1.4c.7 1.9 3.8 2.2 3.2.3-.3-.6-1.2-1.3-2.1-1.5-1.2-.2-1.5.1-1.1 1.2zm-182 2.1c-1 1.5-2.3 2.4-3.1 2.1-.9-.3-1.3.2-1.2 1.3.1 1.8.3 1.8 3.5.3 1.8-.9 2.9-1.8 2.2-2-.8-.3-.8-.8.1-1.8.7-.8 1-1.7.7-2-.3-.2-1.3.7-2.2 2.1zM435 543c-2 1.5-2.2 2-.9 2.5.8.3 2.5.2 3.7-.2 1.9-.7 2.1-1.1 1-2.5-1.2-1.6-1.5-1.6-3.8.2zm-145 1.6c-1.3 1.3-2 2.4-1.4 2.4.6 0 2.1-1.1 3.4-2.5 3-3.2 1.3-3.2-2 .1zm6.5-.6c-1 1.1-1.5 2-1.1 2 1.1 0 3.9-3 3.4-3.6-.3-.2-1.3.5-2.3 1.6zm12.9-.4c-1.8 1.4-1.8 1.5.4.4 1.2-.6 2.2-1.3 2.2-1.5 0-.8-.5-.6-2.6 1.1zm107.1-.6c-.7 1.2.2 3 1.6 3 .5 0 .9-.9.9-2 0-2.1-1.5-2.7-2.5-1zm81 0c-.3.5.1 1 .9 1 .9 0 1.6-.5 1.6-1 0-.6-.4-1-.9-1-.6 0-1.3.4-1.6 1zM271 545.1c-1.1 2-1.1 2 1.4.4 3-2 3.2-2.5 1.1-2.5-.8 0-1.9.9-2.5 2.1zm5.5-.5c-4 2.1-11.7 8.5-11 9.2.3.3-.8 1.1-2.4 1.8-2.6 1.1-6.1 6.5-6.1 9.3 0 .7 7.4 4.1 8.8 4.1 1.1 0 5.8-7.3 10.7-16.5 2-3.9 4.2-7.6 4.7-8.3 1.5-1.7-1-1.6-4.7.4zm-13.3 13.6c-.7.7-1.2.8-1.2.2 0-1.4 1.2-2.6 1.9-1.9.2.3-.1 1.1-.7 1.7zm20.4-14.4c-.3.5.1.9.9.9s1.5-.4 1.5-.9c0-.4-.4-.8-.9-.8-.6 0-1.2.4-1.5.8zm105.2 1.3c-2 2.2-2.3 3.9-.7 3.9.6 0 1.3-.9 1.6-2 .3-1.1.9-2 1.4-2 .5 0 .9-.5.9-1 0-1.5-1.3-1.1-3.2 1.1zm77.9-1.4c-1.6 1.5-.6 3.3 1.8 3.3 2.3 0 2.4-.2 1.5-2-1.1-2.1-2.2-2.5-3.3-1.3zm12.3.6c0 .7.9 1.8 2 2.5 1.6 1 2 1 2-.1 0-1.4-2-3.7-3.2-3.7-.4 0-.8.6-.8 1.3zm-24.7.4c-2.1.8-1.5 3.1 1 3.5 1.4.2 2.3 1.1 2.5 2.5.2 1.6 1 2.3 2.6 2.3 1.2 0 2.6-.3 2.9-.7 1.1-1-1.4-3.3-3.6-3.3-1.1 0-1.7-.3-1.4-.6.7-.8-1-4.4-2.1-4.3-.4 0-1.3.3-1.9.6zm35.7.1c0 1 2.1 3.2 3.2 3.2 1.6 0 .8-1.9-1.2-3-1.1-.6-2-.7-2-.2zm-77 2.3c0 2.4 2.3 2.1 2.8-.4.2-1-.3-1.7-1.2-1.7-1 0-1.6.9-1.6 2.1zm-17 .4c0 .9.5 1.5 1.1 1.3.6-.2 1.1-.8 1.1-1.3s-.5-1.1-1.1-1.3c-.6-.2-1.1.4-1.1 1.3zm25.6 0c-.3.8-1.1 1.4-1.7 1.3-1.6-.4-2.1 1.4-.9 3.2.9 1.3 1.2 1.3 2.4-.3.7-.9 1.8-1.7 2.5-1.7.6 0 1.1-.9 1.1-2 0-2.3-2.5-2.7-3.4-.5zm18.5-.6c-.8.5-1.1 1.6-.8 2.4.8 2.1 5.9 1 5.5-1.2-.4-1.9-2.7-2.5-4.7-1.2zm61.9.1c0 .5.5 1 1.1 1 .5 0 .7-.5.4-1-.3-.6-.8-1-1.1-1-.2 0-.4.4-.4 1zm-139 2.5c-1.3 1.4-2.1 2.8-1.7 3.1.7.7 4.6-3.5 4.7-4.9 0-1.2-.5-.8-3 1.8zm-76 .1c0 .8.5 1.2 1 .9.6-.3 1-1 1-1.6 0-.5-.4-.9-1-.9-.5 0-1 .7-1 1.6zm18.9.1c-1.3 1.5-1.2 1.5.9.4 2.3-1.2 2.8-2.1 1.3-2.1-.5 0-1.5.7-2.2 1.7zm165.1.2c0 1.2.9 2 2.4 2.3 2.4.5 2.8-.5 1.3-3-1.2-1.9-3.7-1.4-3.7.7zm13.3-1.2c-2.1.7-1.5 2.3 1.2 3.3 1.5.6 2.5 1.7 2.5 3s.7 2 2 2c1.5 0 2 .7 2 2.4 0 2.3 3.3 4.6 4.7 3.3.7-.8-1.6-4.7-2.8-4.7-.5 0-1.4-1.1-1.9-2.5s-1.6-2.5-2.5-2.5c-.8 0-1.5-.6-1.5-1.4 0-1.8-2.2-3.5-3.7-2.9zm-221 1.5c-2.3 3-2.4 4.1-.2 2.1 1.2-1.2 2-2.5 1.7-2.8-.3-.3-1 0-1.5.7zm35.5.4c-1.7.9-2.5 2-2.2 2.9.4.8.2 1.5-.2 1.5-.5 0-2.2 1.1-3.9 2.4l-3 2.4 2.8 1.1c2.2.9 3.3.7 6-.9 3.4-2.1 3-2.7-.6-.9-1.9.9-1.9.8.3-1.1 1.9-1.6 2.2-2.3 1.1-2.7-1-.4-.5-1 1.5-1.9 1.9-.9 2.1-1.2.7-.8-3.1.7-2.9-.2.5-2 1.5-.8 2-1.5 1.2-1.5s-2.7.6-4.2 1.5zm93.9.5c-.3 1.3-.1 1.9.6 1.6 1.5-.5 2.2-3.7.9-3.7-.5 0-1.2.9-1.5 2.1zm7.6.4c-1.3 1.2-2.3 2.7-2.3 3.4 0 1.6 3 1.3 3.6-.4.4-.8 1.3-1.5 2.1-1.5 1.6 0 1.4-3.2-.2-3.6-.5-.1-2 .8-3.2 2.1zm-31.8.3c-2.5 2.1-3.8 4.9-2.5 5.7.5.3 1.4-.5 2.1-1.7.7-1.3 1.8-2.7 2.5-3.1 1.5-.8 1.9-2.7.7-2.7-.5.1-1.7.8-2.8 1.8zm127.5-1c0 .4 1.8 2.7 4 5.1 2.2 2.4 4 4.7 4 5.1 0 1.2 3 3.4 3.6 2.7.6-.6-1.4-3.5-7.4-10.4-2.6-3.2-4.2-4.1-4.2-2.5zm-70.2 1.6c-1.8 1.3-2.5 4.6-1 4.6 2.2 0 6.2-2.7 6-4-.4-2-2.9-2.3-5-.6zm19.1-.6c-1.2.5-1.4 1.3-.8 2.9.8 2.3 2.9 3.2 2.9 1.3 0-.5.6-.7 1.4-.4 1.8.7 2.8-.9 2-3-.6-1.7-2.7-2-5.5-.8zm-70.6 2.8c-2.6 3-3.3 5.5-1.5 6.1.6.3 1.2-.3 1.2-1.1 0-.9.9-2.4 2-3.3 2-1.7 2.7-4.3 1.3-4.3-.5 0-1.8 1.2-3 2.6zM288 554c-.8.5-1.2 1.2-.9 1.5.4.3 1.2-.1 1.9-1 1.4-1.7 1.1-1.9-1-.5zm118 1.5c-1.9 2-2.1 2.8-1.2 3.7 1 1 1.8.7 3.8-1.3 2.1-2.1 2.3-2.8 1.1-3.7-1.1-.9-1.9-.6-3.7 1.3zm58.1-1.1c-1.6 1.9-.6 3.6 2 3.6 2.2 0 2.4-.9.6-3.4-1.2-1.6-1.4-1.6-2.6-.2zm12.3-.2c-.4.7.2 1.8 1.4 2.6s2.2 2.2 2.2 3.2c0 1.1 1 2 2.5 2.4 1.6.4 2.5 1.3 2.5 2.6 0 1 .9 2.2 2 2.5 1.1.3 2 1.3 2 2.2 0 .8 1.1 2.4 2.5 3.5 1.3 1 2.4 2.4 2.2 3.1-.1.6.8 1.6 2.1 2.2 1.2.5 2.2 1.7 2.2 2.6 0 .9.9 2.4 2 3.4s2 2.3 2 2.9c0 .7.9 1.8 2 2.6s2 1.8 2 2.3c0 .5 1 2.2 2.3 3.7 3.9 4.8 5.9 8.1 10 16.2 3 5.9 4.7 7.9 5.9 7.2.6-.4.6-.9.2-1.3-.5-.3-2-2.9-3.3-5.6-1.4-2.8-3.5-6.7-4.8-8.7-1.3-2.1-2.3-4.4-2.3-5.2 0-.9-.9-2-2-2.6-1.1-.6-2-1.6-2-2.1 0-1-2.1-3.9-6.3-8.9-.6-.8-1.6-2.2-2.2-3.1-2.4-4-5.1-7.5-6.2-8.2-.7-.4-1.3-1.4-1.3-2.2 0-.8-.9-1.9-2-2.5-1.1-.6-2-1.7-2-2.5s-.9-1.9-2-2.5c-1.2-.6-2.5-2.2-3-3.6-.5-1.3-1.6-2.4-2.3-2.4-.8 0-1.9-1.1-2.5-2.5-1.3-2.7-2.7-3.2-3.8-1.3zm45.1.8c.3.5.8 1 1.1 1 .2 0 .4-.5.4-1 0-.6-.5-1-1.1-1-.5 0-.7.4-.4 1zm-240.4.9c0 .8-.8 2.3-1.8 3.3-.9 1-1.1 1.8-.6 1.8 1.7 0 3.5-2.8 3-4.7-.3-1.1-.5-1.2-.6-.4zm137.4.1c.3.5.8 1 1.1 1 .2 0 .4-.5.4-1 0-.6-.5-1-1.1-1-.5 0-.7.4-.4 1zm13.3.4c-2.1 1.5-2.4 4.6-.5 4.6 2.3 0 5.6-3 5.1-4.5-.7-1.8-2.3-1.9-4.6-.1zm18.7.2c-1.5 1.1-1.7 1.8-.9 3.2.6.9 2.1 1.6 3.2 1.4 1.6-.2 2.1.3 2.4 2.4.4 3.3 1.7 3.9 4.3 2 1.7-1.2 1.7-1.6.6-3-.8-.9-2-1.5-2.8-1.2-.8.4-1.3-.2-1.3-1.7 0-2.1-1.7-4.7-2.9-4.7-.4 0-1.5.7-2.6 1.6zm-69 .4c-.8 1.3.4 3.2 1.6 2.5 1.2-.8 1.2-3.5 0-3.5-.6 0-1.3.4-1.6 1zm30.3 2.1c-1.8 1.9-2.5 5.9-1 5.9 1.3 0 5.2-4.8 5.2-6.4 0-2.1-2.1-1.9-4.2.5zm99.2-1.2c0 .5.5 1.3 1 1.6.6.3 1 .2 1-.4 0-.5-.4-1.3-1-1.6-.5-.3-1-.2-1 .4zm13-.2c0 .5.7 1.8 1.5 2.9 1.2 1.6 1.4 1.6 1.5.3 0-.9-.7-2.2-1.5-2.9-.8-.7-1.5-.8-1.5-.3zm-239.3 2.1c-2.4 2.7-2.2 5.1.2 2.6 1-1 1.7-2.2 1.5-2.6-.2-.3.2-.9.8-1.1.8-.3.8-.6.2-.6-.6-.1-1.8.7-2.7 1.7zm94-.2c-.4.4-.7 1.7-.7 2.8 0 1.9.1 1.9 1.7.3 1.2-1.1 1.4-2 .7-2.7-.6-.6-1.3-.7-1.7-.4zm8.3.8c0 .9.5 1.6 1 1.6.6 0 1-.4 1-.9 0-.6-.4-1.3-1-1.6-.5-.3-1 .1-1 .9zm50.3.3c-1.3.9-2.3 2.2-2.3 3 0 2.4 2.8 2.6 5.2.4 1.9-1.9 2-2.3.8-3.5-1.3-1.2-1.8-1.2-3.7.1zm31.1-.2c-.8 2.1.4 3.5 3.2 3.5 2.7 0 2.8-.3 1.4-3.1-1.3-2.2-3.8-2.5-4.6-.4zm-44.6.2c.7.3 1.6.2 1.9-.1.4-.3-.2-.6-1.3-.5-1.1 0-1.4.3-.6.6zm-5.6 1.9c-2.2 1.5-3 4.8-1.3 5.9.5.3 2.2-.6 3.7-2 2.4-2.3 2.6-2.7 1.3-4-1.3-1.3-1.7-1.3-3.7.1zM537 562c0 .5.5 1 1.1 1 .5 0 .7-.5.4-1-.3-.6-.8-1-1.1-1-.2 0-.4.4-.4 1zm-247.6 1.6c-1.8 1.4-1.8 1.5.6.8 3.1-.8 5-2.4 2.9-2.4-.8 0-2.4.7-3.5 1.6zm66.1-.6c-.3.5-.1 1 .4 1 .6 0 1.1-.5 1.1-1 0-.6-.2-1-.4-1-.3 0-.8.4-1.1 1zm36.6 1.6c-1.6 1.7-2.1 3-1.6 4.6.7 2.1.8 2.1 2.2-.5.7-1.5 1.8-2.7 2.3-2.7 1.2 0 1.3-2.7.2-3.4-.4-.2-1.8.6-3.1 2zm-113 1c-.9 2-.9 2.5 0 2.2 1.4-.5 3.2-4.8 2-4.8-.4 0-1.3 1.2-2 2.6zm104.9-1.2c0 2.2 1.7 2.8 2.4 1 .9-2.2.8-2.4-.9-2.4-.8 0-1.5.6-1.5 1.4zm131.5.6c1 1.1 2 2 2.2 2 .2 0-.1-.9-.7-2s-1.6-2-2.2-2c-.6 0-.3.9.7 2zM275 566.2c-1.2 2.2-1.2 2.2.6.6 1-1 1.5-2 1.2-2.4-.4-.3-1.2.5-1.8 1.8zm174.5-1.2c.3.5 1.1 1 1.6 1 .6 0 .7-.5.4-1-.3-.6-1.1-1-1.6-1-.6 0-.7.4-.4 1zm23.6.4c-1 1.2-.8 1.7.9 2.6 2.8 1.5 4.3.4 3-2.1-1.3-2.3-2.3-2.4-3.9-.5zm23.6-.7c-.9.9 1.2 3.3 3 3.3 1 0 1.2.6.8 2-.5 1.5 0 2.3 1.9 3.2 1.5.6 2.6 2 2.6 3s.7 2.1 1.6 2.5c.8.3 2 1.5 2.5 2.7 1.9 4 3.6 6.7 5.8 8.7 1.1 1.1 2.1 2.6 2.1 3.5 0 .8.7 1.7 1.5 2 .8.4 1.5 1.1 1.5 1.8 0 1.3 5.2 11.7 7.5 15 4.9 6.9-3-10.7-8.5-18.9-1.4-2.2-2.9-4.8-3.3-5.8-.3-.9-1.1-1.7-1.7-1.7-.5 0-1-.6-1-1.3 0-1.2-9.4-15.7-10.9-16.7-.4-.3-1-1.3-1.4-2.3-.6-1.7-2.8-2.3-4-1zM288.5 566c-3.4 1.4-6.8 5.1-5.7 6.2 1.2 1.2 5.4-1.4 7.7-4.8 1.6-2.5 1.3-2.8-2-1.4zm64.2-.3c-.4.3-.7 1.1-.7 1.7 0 .6.5.5 1.2-.2.6-.6.9-1.4.7-1.7-.3-.3-.9-.2-1.2.2zm7.1 1.4c-1.9 2-2.4 5.9-.8 5.9.5 0 1.2-1.1 1.6-2.5.3-1.4 1-2.5 1.5-2.5s.9-.7.9-1.5c0-2-1.1-1.8-3.2.6zm69.7-1.1c.3.5 1 1 1.6 1 .5 0 .9-.5.9-1 0-.6-.7-1-1.6-1-.8 0-1.2.4-.9 1zm12.3.1c-2.2 1.2-2.4 4.9-.4 4.9.8 0 2.6-.4 4-.9 1.8-.8 2.3-1.5 1.9-3-.6-2.3-2.8-2.6-5.5-1zm66.2.3c0 .8 1 2.2 2.2 3 1.2.9 1.9 1.8 1.5 2.2-.3.4.9 2.5 2.8 4.8s3.9 5.3 4.5 6.6c.5 1.4 2.8 5.2 4.9 8.5 2.2 3.3 4 6.8 4 7.7.1 1.6 1.8 3.4 2.6 2.6.2-.2-.1-1.3-.8-2.5-.7-1.2-2.3-4.3-3.7-7-1.4-2.6-2.7-5-3-5.3-.3-.3-1.8-3.1-3.4-6.3-1.6-3.1-3.3-5.7-3.8-5.7-.4 0-.8-.4-.8-.9 0-1.4-5.2-9.1-6.2-9.1-.4 0-.8.6-.8 1.4zm-110.8 2.1c-1.4 1.4-2 2.9-1.6 3.9.8 2 2.4 2.1 2.4.2 0-.7 1-2 2.2-2.8 1.2-.8 1.8-1.9 1.4-2.6-1-1.6-1.7-1.4-4.4 1.3zM424 567c0 .5-.6.7-1.3.4-.8-.3-1.3.5-1.5 2.1-.3 3.4 2.4 4.3 4.9 1.7 2.5-2.7 2.5-5.2-.1-5.2-1.1 0-2 .4-2 1zm36.7-.3c-.4.3-.7 1.5-.7 2.5 0 1.3.8 1.8 3 1.8 3.1 0 3.5-.6 2.4-3.4-.6-1.6-3.5-2.2-4.7-.9zm-376.2 2.1c-1.1.9-2.7 2.6-3.5 3.7-1.5 1.9-1.4 1.9.9.4 1.4-.8 3.1-2.5 3.9-3.7 1.7-2.6 1.4-2.7-1.3-.4zm325-.8c.3.5.8 1 1.1 1 .2 0 .4-.5.4-1 0-.6-.5-1-1.1-1-.5 0-.7.4-.4 1zm125.5 0c0 .5.5 1 1.1 1 .5 0 .7-.5.4-1-.3-.6-.8-1-1.1-1-.2 0-.4.4-.4 1zm-279.7 3.5c-.8 2.5-.8 3.7-.1 4.2.7.4.5 1.1-.7 1.9-1.5 1.1-1.1 1.3 2.6 1.1 3.5-.2 4.3-.5 4.1-1.9-.1-.9.7-2.2 1.8-2.8 1.1-.6 2-1.4 2-1.8 0-.7-6.8-4.2-8.2-4.2-.2 0-.9 1.6-1.5 3.5zm110.2-.5c-1.9 3.7-1.9 5 0 5 .8 0 1.5-.5 1.5-1.2 0-.6.7-1.9 1.6-2.9 1.6-1.7 1.2-3.9-.6-3.9-.5 0-1.6 1.3-2.5 3zm-89.8-1.3c-.9.2-1.5.9-1.2 1.4.9 1.4 4.1 1.1 5.5-.6 1-1.2.9-1.5-.6-1.4-1.1.1-2.7.3-3.7.6zm159.3.3c0 .5.5 1 1 1 .6 0 1-.5 1-1 0-.6-.4-1-1-1-.5 0-1 .4-1 1zm20 .4c0 .9.5 1.6 1 1.6.6 0 1-.4 1-.9 0-.6-.4-1.3-1-1.6-.5-.3-1 .1-1 .9zm22 .4c0 1 .8 2.5 1.8 3.3.9.9 2.5 2.5 3.4 3.5.9 1 2.2 2.4 2.8 3 3.5 3.5 5 5.6 5 6.8 0 .8.8 2.1 1.8 2.8 2.1 1.6 6.2 7.3 6.2 8.7 0 .5 1 1.8 2.3 2.8 1.3 1 2.6 2.5 3 3.3.4.8 1.5 2.6 2.5 4 .9 1.4 2.7 4.2 4 6.2 2.5 4 5 5.4 6.6 3.8.7-.7.5-1-.8-1-.9 0-1.5-.4-1.2-.9.3-.5-.2-1.9-1.2-3.2-.9-1.4-2.2-3.3-2.9-4.4-.6-1.1-1.6-1.9-2.3-1.7-.6.1-.9-.2-.6-.7.7-1.1-1.4-6.1-2.5-6.1-.4 0-1-.8-1.3-1.8-.3-.9-2.1-3.4-4-5.4-1.9-2.1-3.7-4.7-4.1-5.8-.3-1.1-1.1-2-1.6-2s-1.9-1.6-3-3.5c-1.2-1.9-2.5-3.2-3-2.9-.5.3-.9-.2-.9-1.2 0-1.8-7.1-9.4-8.9-9.4-.6 0-1.1.8-1.1 1.8zm-186.2-.1c-1 .2-1.8.9-1.8 1.4 0 1.5 3.6 1 5-.6 1.3-1.6.5-1.8-3.2-.8zm112.7 1.6c-2.1 2.2-2.3 5.7-.3 5.7.5 0 1.2-.9 1.5-2 .3-1.1.9-2 1.4-2 .5 0 .9-.9.9-2 0-2.6-1-2.5-3.5.3zm25.8-1c-1.4.6-2.3 1.9-2.3 3.3 0 3.1 2 4.1 3.7 1.9.7-1.1 1.3-1.5 1.3-.9 0 .5.5.1 1.1-1 1.6-2.7-.8-4.8-3.8-3.3zm18 .2c-1.9 2.1-1.6 3.1 1.4 5.3 2.1 1.5 2.7 2.7 2.6 5.6-.1 2.5.3 3.6 1.3 3.6 1.7 0 1.9-2 .2-2.1-.7 0-.3-.5.8-1.1 2.7-1.2 4.9-5.2 3.9-6.8-.5-.7-1.9-1-3.9-.6-1.9.4-2.6.3-1.8-.3 2-1.2 1-4.6-1.3-4.8-1.1-.2-2.6.4-3.2 1.2zm-75.1 2c-1.3 1.4-2.2 3.2-2 4.2.4 2.4 2.2 2.2 2.7-.2.2-1.1 1.1-2.5 2-3.2 1.1-.8 1.3-1.5.6-2.2-.7-.7-1.8-.2-3.3 1.4zm43.4-1.7c-.3.6-.1 1.4.5 1.7 1.5 1 2.5-.3 1.2-1.6-.7-.7-1.3-.7-1.7-.1zm50.1.3c-2.3 1.3-.5 5.2 2 4.2.9-.4 1.4-.2 1.1.3-.3.5-.2 2 .3 3.3.7 1.8 1.5 2.2 3.4 1.9 2.2-.5 2.4-.2 1.9 1.9-.5 1.9-.2 2.5 1.5 3 1.2.3 2.1 1.3 2.1 2.4 0 1 .9 2.4 2 3.1 1.1.7 2 1.8 2 2.5 0 .6.9 1.8 1.9 2.5 1.1.8 2.5 2.6 3.2 4.2 1 2 1.8 2.7 3.5 2.3 1.6-.3 2 0 1.7 1.4-.3 1 1.2 3.8 3.6 6.9 2.3 2.8 4.1 5.5 4.1 6 0 1.1 4.9 1.9 5.6.9.3-.5 0-.9-.5-.9-.6 0-1.1-.4-1.1-1 0-.9-3.5-6.4-5.8-9-.7-.8-3.6-4.6-6.3-8.5-2.8-3.8-5.4-7.2-5.8-7.5-.5-.3-1.4-1.6-2-2.8-.8-1.6-1.9-2.2-3.1-1.9-1.2.3-1.6 0-1.3-1.2.2-.9-.7-2.7-2.1-4-1.4-1.4-2.6-3-2.6-3.8 0-1.1-1.2-1.7-3.1-1.5-.4.1-1.2-1.2-1.9-2.8-1.4-3.3-1.7-3.4-4.3-1.9zm6.3-.1c0 .5.5 1 1 1 .6 0 1-.5 1-1 0-.6-.4-1-1-1-.5 0-1 .4-1 1zm66 .9c0 1.2.5 2.1 1 2.1.6 0 1-.6 1-1.4 0-.8-.4-1.8-1-2.1-.5-.3-1 .3-1 1.4zm-290 .1c0 .5.5 1 1.1 1 .5 0 .7-.5.4-1-.3-.6-.8-1-1.1-1-.2 0-.4.4-.4 1zm278 0c0 .5.5 1 1.1 1 .5 0 .7-.5.4-1-.3-.6-.8-1-1.1-1-.2 0-.4.4-.4 1zm-4 2c.6 1.1 1.3 2 1.6 2 .2 0 0-.9-.6-2s-1.3-2-1.6-2c-.2 0 0 .9.6 2zm-250.4.5c-1.1.8-1.7 1.7-1.4 2 .7.7 5.4-1.1 6.3-2.4.9-1.6-2.7-1.3-4.9.4zm107.1.5c-1.8 2.1-2.4 8.6-.7 7.5.6-.3 1-1.3 1-2.2 0-.9.8-2.5 1.7-3.5 1.1-1.2 1.3-2.2.7-2.8-.6-.6-1.6-.3-2.7 1zm30.5 0c-2 1.6-2.1 2.2-1.2 4.1l1.2 2.2 2.3-2.8c1.3-1.4 2.1-3.3 1.8-4.1-.7-1.8-1.3-1.7-4.1.6zm31.3-1c.3.5 1 1 1.6 1 .5 0 .9-.5.9-1 0-.6-.7-1-1.6-1-.8 0-1.2.4-.9 1zm104.5.2c0 .9.7 2.2 1.7 2.9 1.5 1.3 1.5 1.2.3-1.1-1.7-3.4-2-3.6-2-1.8zm-266.1.7c.9.6 1 1.1.2 1.5-.6.4-1.5.4-2.1.1-.5-.3-1-.2-1 .3 0 .6-1.6 1.3-3.5 1.6-4.2.8-6.5 3-6.5 6.2 0 1.7-.4 2.3-1.2 1.8-.8-.5-.9-.2-.5 1 .4.9.3 1.4-.2 1.1-.5-.3-1.2-.1-1.5.4-.3.5.3 1.1 1.4 1.4 1.1.3 2.2.1 2.5-.3.3-.4 1.4-.6 2.6-.3 1.5.4 2.2 0 2.6-1.6.3-1.1 1-1.8 1.6-1.4.6.4.8 0 .5-.9-.4-1 .4-2.3 2.2-3.7 3.4-2.5 4.4-2.7 3.6-.6-.6 1.7.9 2.1 1.9.5.4-.6 1.1-.8 1.6-.5.5.4.9.1.9-.5s.6-1 1.3-.8c.6.2 1.4-.2 1.6-.7.2-.6 1.2-1.6 2.2-2.3 3-2.1 2.2-3.1-2.1-3-3.8 0-4 .2-4.1 3.2-.1 2.1-.3 2.5-.6 1.1-.7-2.6-2.2-4.5-3.7-4.5-.6 0-.5.4.3.9zM269 586c0 .5-.2 1-.4 1-.3 0-.8-.5-1.1-1-.3-.6-.1-1 .4-1 .6 0 1.1.4 1.1 1zm151.5-9c.3.5 1.3 1 2.1 1s1.2-.5.9-1c-.3-.6-1.3-1-2.1-1s-1.2.4-.9 1zm13.3.1c-2 1.1-2.3 3.6-.8 5.9.9 1.3 1.3 1.1 3-1 3.5-4.5 2.1-7.5-2.2-4.9zm95.8.2c.3 1 .9 1.5 1.2 1.2.3-.3 0-1.1-.7-1.8-1-.9-1.1-.8-.5.6zm-144.2 1.3c-.4 1-1.3 2.3-2.1 2.7-1.5.9-1.8 4.7-.3 4.7.6 0 1.3-.8 1.7-1.8.3-.9 1.3-2.5 2.1-3.5 1.2-1.3 1.3-2 .4-2.9-.8-.8-1.3-.7-1.8.8zm154.6-.7c0 .5.7 1.4 1.5 2.1.8.7 1.5 1.8 1.5 2.6 0 .7.5 1.6 1.1 1.9.5.4.3-1-.5-3-.9-2.1-1.6-3.9-1.6-4.1 0-.2-.4-.4-1-.4-.5 0-1 .4-1 .9zm41.4.5c-.6 1.6 2.8 10.2 7.8 20.1 1.6 3.3 4.3 8.7 6 12 1.6 3.3 3.3 6.7 3.7 7.5 1.1 2 5.2 2.4 7.5.7 1.6-1.2 1.9-2.8 1.9-10.5.1-8.9 0-9.3-2.9-12.4-1.7-1.8-3.8-4.9-4.7-6.9-2.2-4.7-4.1-6.2-11.6-9.3-7.6-3.1-7-3-7.7-1.2zM78 579.5c-1.8 1-2 1.4-.8 1.5 2.3 0 4.8-1.1 4.8-2.1 0-1.2-1.1-1.1-4 .6zm336.3 1c-1.3 1.5-1.9 3.3-1.6 4.5.7 2.6 2.2 2.6 3.1-.1.5-1.1 1.2-2 1.7-2 1.3.1 1.3-4.1 0-4.5-.5-.2-2 .7-3.2 2.1zM348 580c0 .5.5 1 1 1 .6 0 1-.5 1-1 0-.6-.4-1-1-1-.5 0-1 .4-1 1zm97.5 0c-.3.5.3 1 1.5 1s1.8-.5 1.5-1c-.3-.6-1-1-1.5-1s-1.2.4-1.5 1zm79.5.5c0 .8.4 1.5 1 1.5.5 0 .7-.7.4-1.5-.4-.8-.8-1.5-1-1.5-.2 0-.4.7-.4 1.5zm-98.5.4c-.3.5-.1 1.2.5 1.6.5.3 1-.1 1-.9 0-1.8-.6-2.1-1.5-.7zm12.8-.2c-2.3.4-2.9 2.5-1.7 5.7.8 2 3.4 2.1 3.4.2 0-.7.9-1.6 1.9-1.9 1.4-.3 1.8-1.1 1.4-2.6-.5-2.1-.9-2.2-5-1.4zm18.5.4c-2.5 1.4-2.2 3.7.5 5 1.3.6 2.8 2.4 3.4 4 .6 1.6 1.5 2.8 2 2.7 1-.3 8.3 6.9 8.3 8.2 0 .6.6 1 1.3 1 .6 0 2.7 2.5 4.6 5.5 1.8 3 3.8 5.5 4.3 5.5s1.4 1.3 1.9 3c.8 2.3 1.9 3.1 4.6 3.6 4.1.8 7.3-1.3 3.5-2.2-1.2-.4-2.2-1.4-2.2-2.3 0-.9-1.8-3.5-3.9-5.9-2.1-2.3-4.2-4.9-4.5-5.8-.3-.9-1.5-1.8-2.6-2.1-1.1-.3-2-1.3-2-2.3 0-2.1-2.5-4.4-3.9-3.6-.5.4-1.1-.6-1.3-2.1-.2-2.2-.8-2.8-2.6-2.7-1.2 0-2.1-.4-1.9-1 .6-1.6-1.2-4.6-2.8-4.6-.7 0-1.5-1-1.7-2.2-.3-2.6-2.4-3.3-5-1.7zm89.7-.1c-.3.5-.1 1 .4 1 .6 0 1.1-.5 1.1-1 0-.6-.2-1-.4-1-.3 0-.8.4-1.1 1zM354 582.5c0 .8-.7 1.5-1.5 1.5-1.6 0-1.8 2-.5 6 .9 2.8 1 2.7 1.5-1.4.2-1.6.9-3.4 1.4-3.9 1.4-1.4 1.4-3.7.1-3.7-.5 0-1 .7-1 1.5zm35.5 1.5c-.8 1.6-1.5 3.6-1.5 4.5 0 2.2 2.3 1.4 2.6-.9.1-1 .7-2.3 1.3-2.9.6-.6 1.1-1.7 1.1-2.4 0-2.3-1.9-1.4-3.5 1.7zm-318.9 0c-.6.9-4.3 3.7-8.2 6.3-3.9 2.6-7.7 5.3-8.3 6.1-.8.9-1.1 5.1-.9 12.2l.3 10.9 13.3.3c11.9.2 13.6 0 16-1.7 2.5-1.8 2.7-2.6 2.8-8.8.1-15.4.4-18.4 1.5-17.7.8.5.8.1 0-1.3-.6-1.1-.7-2.3-.4-2.7.3-.3.1-.6-.5-.6-.7 0-1.2.6-1.2 1.3 0 .8-.9 2.4-2 3.7-1.1 1.3-2 3-2 3.9 0 .9-.5 2.3-1 3.1-.7 1-.9-.1-.4-3.7.6-4.9.5-5.1-1.5-4.6-2.8.7-2.7.1.9-3.7 1.9-2 2.8-2.5 2.4-1.4-.4 1.1-.4 1.6 0 1.3.4-.4.8-1.6 1.1-2.7.4-2 0-2.2-5.2-1.9-3.6.1-5.9.7-6.7 1.7zm181.9-.2c-.4.4-2.1.7-3.8.7-2.5 0-3.2.4-3.2 2 0 1.5.9 2.1 3.8 2.6 3.3.5 4 .3 5.7-2.2 1.1-1.5 2-2.9 2-3.1 0-.7-3.8-.7-4.5 0zm31.5.2c-.9.6-1 1-.3 1 .6 0 1.5-.5 1.8-1 .8-1.2.4-1.2-1.5 0zm135.5 1c-1.5 1.7-1.6 2.4-.6 4.7l1.2 2.7 2.4-3c1.4-1.6 2.3-3.6 2.2-4.4-.4-2.3-3.1-2.3-5.2 0zm-60.2 1.7c-1.5 3.2-1.7 7.7-.3 6.8.6-.3 1-1.7 1-3.1 0-1.4.7-2.7 1.5-3 1.8-.7 2-3.4.3-3.4-.7 0-1.9 1.2-2.5 2.7zm36-.3c-2.4 2.5-3 6-1.3 7.1.6.3 1.4-.5 1.9-1.9.6-1.3 1.8-2.9 2.8-3.5 1.6-.9 1.6-1.2.3-2.5s-1.7-1.3-3.7.8zm131.7-1.5c0 .6.4 1.2.8 1.5.5.3.9-.1.9-.9s-.4-1.5-.9-1.5c-.4 0-.8.4-.8.9zm-120.3.7c-.8.8.1 2.4 1.4 2.4.5 0 .9-.7.9-1.5 0-1.5-1.2-2-2.3-.9zm25.9.3c-.4.5-.2 1.2.3 1.5.5.4 1.2.2 1.5-.3.4-.5.2-1.2-.3-1.5-.5-.4-1.2-.2-1.5.3zm11.6.3c-1.9 1.9-1.4 4.6 1.3 6.4 1.4.9 2.5 2.5 2.5 3.5 0 2.2 1.6 3.3 2.6 1.8.4-.7 1.2.1 2 2 .7 1.7 1.9 3.1 2.7 3.1.7 0 2 1.1 2.7 2.5.8 1.4 1.9 2.4 2.5 2.1.6-.2 1.7.9 2.4 2.5s1.7 2.7 2.3 2.6c.6-.1 1.6 1.2 2.1 2.9 1.1 3.6 4.4 4.8 10.7 3.8 2.7-.4 3.7-1.1 3.6-2.2-.2-.9-.9-1.8-1.6-2-.9-.3-1.1.1-.7 1.2.5 1.2.3 1.6-.5 1.2-.7-.3-2.1-.9-3-1.2-1-.4-1.8-1.4-1.8-2.3 0-2.4-1.9-4.1-3.8-3.3-1.1.4-1.4.1-.9-1 .7-1.9-2.7-5.3-4.2-4.3-.7.3-1.1-.3-1.1-1.5 0-1.3-.8-2.4-1.9-2.7-1.1-.3-2.1-1.5-2.3-2.7-.2-1.4-1.1-2.2-2.9-2.4-2.2-.3-2.5-.7-2.1-2.7.5-3-2.1-4.4-4.5-2.4-1.5 1.3-1.6 1.1-1-1 1-4.1-2.4-6.6-5.1-3.9zm24.8-.2c0 .5.5 1 1 1 .6 0 1-.5 1-1 0-.6-.4-1-1-1-.5 0-1 .4-1 1zm81.1.6c0 1.1.3 1.4.6.6.3-.7.2-1.6-.1-1.9-.3-.4-.6.2-.5 1.3zm-272.1.9c-1.4 1.6-1 1.8 1.4.9.9-.3 1.6-1 1.6-1.5 0-1.4-1.6-1.1-3 .6zm87.5 1.4c-1.7 3.4-2 8.1-.5 8.1.6 0 1-1.3 1-2.9 0-1.6.6-3.1 1.5-3.5 1.7-.6 2-3.2.5-4.1-.5-.3-1.6.8-2.5 2.4zm60.3.4c-2.1 1.8-2.5 2.6-1.8 4.4 1 2.5 3 3.1 3 .9 0-.7.9-1.6 2-1.9 2.3-.6 2.6-2.9.7-4.5-1-.8-2-.5-3.9 1.1zm30.2-.4c0 .5.7 1.4 1.5 2.1 1.6 1.4 1.8 1 .9-1.4-.6-1.7-2.4-2.2-2.4-.7zm-404 1c0 1 3 2.4 3.7 1.7.3-.3.2-.9-.2-1.5-.8-1.3-3.5-1.5-3.5-.2zm349.3.8c-2.7 1.8-3.4 7.6-.8 6.7.8-.4 1.5-1.2 1.5-1.9 0-.8.7-2.1 1.6-3 2.3-2.3.4-3.7-2.3-1.8zm35.7-.5c0 1.8 1.8 3.4 2.8 2.4.3-.4-.2-1.4-1.1-2.3-1.6-1.6-1.7-1.6-1.7-.1zm-192 .8c2 1.3 3.3 1.3 2.5 0-.3-.6-1.4-1-2.3-1-1.5 0-1.5.2-.2 1zm4.5 0c-.3.5.1 1 .9 1 .9 0 1.6-.5 1.6-1 0-.6-.4-1-.9-1-.6 0-1.3.4-1.6 1zm30.5-.2c0 .6-.6 1-1.2.8-.7-.1-1-.1-.6.1.4.3 0 1.6-.9 2.9-1.7 2.7-4.8 2.5-7-.3-1.1-1.4-1.5-1.4-3.7.1-2.4 1.5-2.5 1.5-1.9-.1.5-1.4.3-1.5-.7-.6-.7.6-1.9.9-2.6.6-.8-.3-1.5.2-1.5 1.1-.1.9-.3 2-.4 2.6-.1.5-.3 1.5-.4 2.1 0 .6-.8.9-1.6.6-.8-.4-1.7-.1-2.1.5-.4.7-.3.8.5.4 1.7-1.1 2.3 1.6 1.2 6.2-1.1 5-.5 5.1 5.9 1.7 2.5-1.4 5.3-2.7 6.3-3.1 2-.7 2.2-2.1.5-2.7-.7-.2-.5-.3.4-.2 1 .2 2.9-1.1 4.3-2.8 1.4-1.8 2.9-3.7 3.4-4.3 1.7-2.2 3.2-5.6 2.7-6.2-.3-.3-.6 0-.6.6zm132.2.3c.2.6.8 1 1.3 1s1.1-.4 1.3-1c.2-.6-.4-1.1-1.3-1.1s-1.5.5-1.3 1.1zm-41 1.1c-1.1 1.4-1.5 3.3-1.3 6 .2 2.8 2.1 2.1 2.1-.6 0-1.4.5-2.8 1-3.1 1.2-.8 1.3-3.5.1-3.5-.5 0-1.3.6-1.9 1.2zm35.4 2.5c-2.5 2.1-2.7 2.7-1.7 4.9 1.2 2.8 3.1 2.4 3.1-.7 0-1 .7-1.9 1.5-1.9 1.5 0 2.1-3.5.7-4.3-.4-.3-2 .6-3.6 2zm25.6-1.6c-2.9 1.1-3.7 3.2-2.2 5.9.8 1.5 1.7 1.9 3.1 1.5 1.1-.4 1.9-.3 1.8.2-.5 2.9.3 4.3 2.5 4.3 1.6 0 2.6.7 2.9 2.1.3 1.1 1.5 2.3 2.6 2.6 1.2.3 2.1 1.2 2.1 2s.9 1.7 2 2c1 .3 2.6 1.5 3.4 2.8 1.7 2.6 7.7 4.1 10.4 2.6 1.5-.9 1.3-1.1-1.4-2.3-3-1.3-3.4-1.7-3.4-3.8 0-.6-.9-1-1.9-1-1.2 0-2.3-1.1-3-3-1.1-3.3-2.2-3.7-4.1-1.5-.7.8-1.7 1.5-2.3 1.5-.7 0-.7-.4.1-1.2 1.7-1.7 1.5-5.5-.2-6.1-.8-.3-2 .1-2.6.9-1.4 1.6-4 1.9-4 .4 0-.6.6-1 1.4-1 1.8 0 2.7-2.3 1.6-4-.7-1.1-1.4-1.2-3.5-.2-3.5 1.6-3.7 1.5-2.4-.6 1.7-2.8 0-5.2-2.9-4.1zm-55.6 2.3c-1.8 2.8-2.1 7.2-.6 8.1.6.3 1 .1 1-.4 0-2.1.2-2.6 1.8-5.3 2.2-3.8.2-6-2.2-2.4zm41.7.3c.9.9 1.9 1.4 2.3 1.1 1-1-.6-2.8-2.4-2.8-1.5 0-1.5.1.1 1.7z"/><path d="M460 594.9c0 .5.6 1.4 1.4 2 1.6 1.3 3.2-.2 2.1-1.9-.8-1.2-3.5-1.3-3.5-.1zm-17 1.1c0 .5.5 1 1 1 .6 0 1-.5 1-1 0-.6-.4-1-1-1-.5 0-1 .4-1 1zm-201.9 1.4c-.7.8-2.8 1.7-4.8 2.1-5 .9-7.4 2.6-6.7 4.7.4 1.3.1 1.6-1 1.2-1.1-.4-1.6 0-1.6 1.1 0 .9-.6 1.5-1.2 1.3-.7-.3-1.9.1-2.6.9-.7.7-2.2 1.3-3.3 1.3-1 0-1.9.7-1.9 1.5 0 .9-.9 1.5-2.1 1.5-1.7 0-1.9.3-1 1.4 1 1.2 4.4 2.3 8.9 2.8.7.1 1.1.7.8 1.5-.9 2.1.8 1.5 4.5-1.8 1.9-1.7 4.8-4.3 6.5-5.7 1.7-1.5 3.7-3.8 4.4-5.1 1.3-2.6 1.5-2.5-3.7-.4-.7.3-1.3.1-1.3-.5 0-.9 2.8-2.2 5.5-2.6.6-.1 2-.7 3.2-1.4 2-1.1 2.1-1.5 1-3.2-1.4-2.4-2.1-2.5-3.6-.6zm2.9 1.5c0 .5-.7 1.2-1.6 1.5-1.4.5-1.5.4-.4-.9 1.4-1.7 2-1.9 2-.6zm-18 12.5c0 .3-.4.8-1 1.1-.5.3-1 .1-1-.4 0-.6.5-1.1 1-1.1.6 0 1 .2 1 .4zm186.1-13c-1.7 1.8-2.2 3.2-1.7 5 .7 3 2.4 3.4 3.3.8.4-.9 1.2-2 1.9-2.5.7-.4 1.1-1.5.9-2.5-.2-.9-.4-2-.4-2.5-.2-1.4-1.8-.7-4 1.7zm125.9-1.7c0 .4.5 1.5 1 2.3.8 1.3 1 1.3 1-.2 0-.9-.4-2-1-2.3-.5-.3-1-.3-1 .2zm15 .3c0 .5.5 1 1.1 1 .5 0 .7-.5.4-1-.3-.6-.8-1-1.1-1-.2 0-.4.4-.4 1zm-170.2 1.7c-2 2.1-2.4 5.8-.8 6.8.6.3 1-.5 1-1.9 0-1.3.5-2.6 1.1-2.8.6-.2 1-1.2.8-2.2-.4-1.7-.5-1.7-2.1.1zm40.8.8c.4.8.8 1.5 1 1.5.2 0 .4-.7.4-1.5s-.4-1.5-1-1.5c-.5 0-.7.7-.4 1.5zm41.9.5c-.7 1.2.2 3 1.6 3 .5 0 .9-.9.9-2 0-2.1-1.5-2.7-2.5-1zm-18 1c.3.5 1 1 1.6 1 .5 0 .9-.5.9-1 0-.6-.7-1-1.6-1-.8 0-1.2.4-.9 1zm-59.7 1.4c-1.8 1.3-2.5 4.6-1 4.6 1 0 4.2-3.8 4.2-5 0-1.3-1.1-1.2-3.2.4zm29.8.5c-1 1.1-1.6 2.9-1.4 4.2.3 2.5 2.8 3.9 2.8 1.5 0-.8.7-1.9 1.6-2.4 1.7-1 1.6-4.3-.2-4.9-.6-.2-1.8.5-2.8 1.6zm-70.4.8c-.5 1-.6 2.6-.3 3.7.6 1.5.9 1.1 1.8-1.8 1.1-3.7.1-5-1.5-1.9zm6.4.8c-1.8 2.7-2.2 8.5-.6 8.5.6 0 1-1 1-2.3 0-1.3.7-3.2 1.5-4.3 1.6-2.1 1.9-4.4.6-4.4-.5 0-1.6 1.1-2.5 2.5zm197.1-1c-.4.8-.2 1.7.3 2 .6.4 1-.3 1-1.4 0-2.5-.6-2.7-1.3-.6zM253 604.7c-.8 1.3-1.9 2.3-2.5 2.3-.5.1-3.9 2.8-7.5 6.1l-6.5 6.1 4-.5c4.5-.6 5.8-.9 9.9-2.6 3.7-1.5 2.8-2.5-.9-1.1-1.5.6-3 .8-3.2.6-.3-.3 1.4-1 3.7-1.7 4.8-1.5 5.3-2.2 4.8-7.5-.3-3.8-.3-3.9-1.8-1.7zm176-.7c0 .5.5 1 1 1 .6 0 1-.5 1-1 0-.6-.4-1-1-1-.5 0-1 .4-1 1zm-35.7 2.3c-1.9 2.2-2 6.7-.1 6.7.5 0 1.2-.9 1.5-2 .3-1.1.9-2 1.4-2 1.1 0 1.2-3.7 0-4.4-.4-.3-1.7.5-2.8 1.7zm59.2-1.3c-.7 1.2.2 3 1.6 3 .5 0 .9-.9.9-2 0-2.1-1.5-2.7-2.5-1zm18 0c-1 1.7 1.2 3.7 2.5 2.4.8-.8.6-1.5-.4-2.3-1-.9-1.6-.9-2.1-.1zm-47.4 1.9c-1.9 1.4-2.2 2.4-1.7 4.5.3 1.4 1.2 2.6 1.9 2.6 2-.1 4.9-4.8 4.2-7-.8-2.4-1.3-2.5-4.4-.1zM531 606c0 .5.5 1 1.1 1 .5 0 .7-.5.4-1-.3-.6-.8-1-1.1-1-.2 0-.4.4-.4 1zm-171.8 2c-1.4 2.3-1.6 7.4-.3 6.5.5-.3 1.2-1.9 1.6-3.5.4-1.7 1.1-3 1.6-3 .6 0 .7-.5.4-1-.9-1.5-1.9-1.2-3.3 1zm75.3-.1c-1 1.7 1.5 4.5 2.9 3.1.7-.7.5-1.5-.6-2.6s-1.8-1.3-2.3-.5zm-69.5 2c-.6 1.2-.6 2.2-.1 2.6.6.3 1.5-.3 2.1-1.4.6-1.2.6-2.2.1-2.6-.6-.3-1.5.3-2.1 1.4zm33.7-.4c-1.5 1-1.7 2.1-1.2 4.4.7 3.2 2.5 4.3 2.5 1.6 0-.8.6-2.4 1.2-3.5 1.7-2.6-.1-4.3-2.5-2.5zm10.8-.5c-.3.6.1 1.3 1 1.6 1.9.8 3 0 2-1.5-.8-1.4-2.2-1.4-3-.1zm123.5.5c0 .8.4 1.5 1 1.5.5 0 .7-.7.4-1.5-.4-.8-.8-1.5-1-1.5-.2 0-.4.7-.4 1.5zm-162.2 2.8c-2.2 3.4-2.8 6.7-1.3 6.7.8 0 1.7-.9 2-2 .3-1.1 1.1-2 1.6-2 1.2 0 1.2-3.7 0-4.4-.5-.3-1.5.4-2.3 1.7zm57.2-.4c-.5 1.1-.9 3.1-.8 4.4.2 2.1.9 2.6 4.3 3.2 2.3.3 5.1.2 6.3-.2 2.1-.8 2.1-1 .6-3.2-1.2-1.6-1.9-2-2.7-1.2-1.6 1.6-3 1.3-2.3-.4 1.5-4-3.3-6.3-5.4-2.6zm28.6-.4c.4.8 1.2 1.5 2 1.5s1.4-.7 1.4-1.5-.9-1.5-2-1.5c-1.3 0-1.8.5-1.4 1.5zm18-.6c-.3.5.1 1.4.8 2 1.6 1.3 3.2-.2 2.1-1.9-.8-1.2-2.2-1.3-2.9-.1zm-211 2c-1.5 1-2.6 2.2-2.4 2.6.3.8-1.1 1.3-7 2.2-5.6.9-4.3 1.9 2.4 1.8 6.4-.1 6.5-.2 8.5-3.9 1.1-2.1 1.9-4 1.7-4.2-.2-.2-1.6.5-3.2 1.5zm141.6.1c-1.2 1-2.2 2.8-2.2 3.9 0 1.7.6 2.1 2.9 2.1 1.6 0 3.5.2 4.3.5 2.1.8 4.5-1.2 3.2-2.5-.9-.9-1.7-.8-3.2.1-1.2.7-2.5.9-2.9.5-.4-.5-.2-1.1.5-1.3 1.3-.5 1.7-3.9.4-4.6-.4-.3-1.7.3-3 1.3zm9.8.5c0 .8.5 1.5 1 1.5.6 0 1-.7 1-1.5s-.4-1.5-1-1.5c-.5 0-1 .7-1 1.5zm25.5-.5c-.7 1.2.2 3 1.6 3 1.2 0 1.2-2.7 0-3.5-.5-.3-1.2-.1-1.6.5zm-63.5 1.1c0 .7-.7 2.1-1.7 3.1-1.5 1.7-1.5 1.8.6 1.8 1.2 0 1.9-.4 1.6-1-.3-.6-.1-1 .4-1 1.4 0 1.4-2.7.1-3.5-.5-.3-1-.1-1 .6zm172 .7c.6 1.3 1.4 2.1 1.8 1.8.3-.4-.2-1.4-1.2-2.4-1.8-1.6-1.8-1.6-.6.6zm-86.5 1.2c-.3.5.1 1 1 1s1.3-.5 1-1c-.3-.6-.8-1-1-1-.2 0-.7.4-1 1zm66.5-.4c0 1.3 1.8 3.9 2.4 3.4.2-.3-.2-1.4-1-2.4-.8-1.1-1.4-1.6-1.4-1zm-137.4 1.1c-1.1 1.1-.6 2.3.9 2.3.8 0 1.5-.4 1.5-.9 0-1.3-1.6-2.2-2.4-1.4zm29 .9c-.4.9.1 1.4 1.4 1.4 2.3 0 2.7-1.5.6-2.3-.8-.3-1.7.1-2 .9zm22.4.4c-2.1.7-1.8.8 1.8.9 2.6.1 4.1-.3 3.7-.9-.7-1.1-1.9-1.1-5.5 0z"/><path d="M217.4 619.1c1.2.8 2.5.8 4 .1 1.8-.9 1.6-1.1-1.9-1.1-3.3 0-3.7.1-2.1 1zm162.6-.7c0 .2.9.6 2 .9 1.1.3 2 .1 2-.4s-.9-.9-2-.9-2 .2-2 .4zM52.5 630.8v8.7l17.6.3 17.6.2-.3-7.5c-.2-4.1-.6-7.9-.9-8.4-.3-.5.1-1.2.7-1.4.7-.3-.6-.6-2.9-.6-2.3-.1-6.3.8-8.9 1.9-5.5 2.4-12.4 4.1-12.4 3.1 0-.4 2.8-1.7 6.3-2.8l6.2-2.1-11.5-.1-11.5-.1v8.8zm146.3-8.1c.6.2 1.2 1.3 1.2 2.2 0 1.4-.6 1.7-2.5 1.3-2.2-.4-2.5-.1-2.5 2.2 0 2.2-.4 2.7-2.2 2.4-1.3-.2-2.3.1-2.4.7-.2 2.4-1.8 4.6-3 4.1-1-.4-1.1.1-.5 1.7.8 2.2 1 2.2 28.1 2.5 29.3.3 32.6-.2 27.8-4.1-2.2-1.7-2.2-1.8-.1-.8 1.2.6 2.5 1.1 3 1.1 1.8-.1 7-5.9 7.7-8.4.6-2.4.4-2.7-1.4-2.1-1.1.3-3.2.8-4.7 1.1-1.6.2-4.3.6-6.1 1-1.8.3-5.9.5-9.2.5-6.3.1-6-.1-12.2 8-1 1.3-1.8 1.8-1.8 1.2 0-.7.4-1.4.9-1.7.8-.6 5.1-8.1 5.1-9.1 0-.3-1.1-.5-2.5-.5-3.8 0-3-1.7 1.3-2.8 2.9-.7.5-.9-10.8-1-8 0-13.9.2-13.2.5zM217 625c0 .5-.7.7-1.5.4-.8-.4-1.5-.8-1.5-1 0-.2.7-.4 1.5-.4s1.5.4 1.5 1z"/><path d="M231.6 623.5c-3.1 2.3-.9 3.5 5.7 3 8.7-.6 13.5-1.5 17.1-3.1 2.8-1.2 2-1.3-8.9-1.3-8.8 0-12.5.3-13.9 1.4zm26.2.2c-2.5 3-3.1 4.3-1.4 3.7 1.7-.7 5.1-5.4 3.8-5.4-.5 0-1.6.8-2.4 1.7zm83.2 1.8c0 1.9.5 3.5 1 3.5.6 0 1-1.1 1-2.5 0-1.3.8-2.9 1.8-3.4 1.4-.9 1.3-1-1-1.1-2.5 0-2.8.3-2.8 3.5zm7.2-1.5c-2.4 3.9-.3 4.4 2.2.5 1.2-1.8 1.3-2.5.4-2.5-.7 0-1.9.9-2.6 2zm13.6-1.3c.6.2 1.8.2 2.5 0 .6-.3.1-.5-1.3-.5-1.4 0-1.9.2-1.2.5zm13.5 0c2.9.3 3.7.9 3.7 2.4 0 1.1.7 1.9 1.6 1.9 1 0 1.4-.6 1-1.5-.3-.8.2-1.9 1.2-2.4 1.2-.8-.1-1-4.8-.9-4 .1-5.1.3-2.7.5zm9.5 1c-.5 2.5.3 6.3 1.3 6.3.5 0 .9-.9.9-2 0-1 1-2.8 2.2-4l2.2-2h-3.1c-2.2 0-3.3.5-3.5 1.7zm10-1c1.2.2 3 .2 4 0 .9-.3-.1-.5-2.3-.4-2.2 0-3 .2-1.7.4zm9.2 0c1.9.3 3.9.9 4.5 1.4 1.2 1.2 3.8 1.2 3-.1-.3-.6 0-1 .8-1 1 0 1.3.7 1 2-.5 2 1.2 5 2.8 5 .5 0 .9-.9.9-2s.5-2 1-2c.6 0 1-.7 1-1.5 0-1.9 5.2-2 8-.3 1.5.9 2.3 1 2.8.2.4-.6 2.1-1.1 3.9-1.1 2.5 0 3.3.5 3.7 2.3.3 1.2 1.6 2.6 2.7 2.9 1.2.4 3.5 2.1 5 3.9 6.3 7 7.2 7.6 10.6 7.6 3 0 3.4-.3 3.1-2.3-.2-1.2-1.3-2.6-2.5-3.2-1.2-.5-2.7-2-3.2-3.3-.6-1.3-1.6-2-2.1-1.7-.6.3-1 0-1-.8 0-2-3.6-5.1-4.5-3.8-.9 1.6-2.5 1.3-2.5-.4 0-2.1 6.6-2.1 7.4 0 .3.8 1 1.5 1.7 1.5.6 0 .9-.7.5-1.5-.7-1.9.3-1.9 4.2.1 1.8.8 3.2 2.2 3.2 3 0 .7.9 1.9 2 2.6 1.1.7 2 1.7 2 2.2 0 .5 1.6 2.4 3.5 4.2 2.7 2.7 4.2 3.4 7.5 3.4 2.2 0 4-.5 4-1 0-.6-.6-1-1.3-1-.7 0-1.8-1.3-2.4-3-.6-1.6-1.8-3-2.6-3s-1.8-1.1-2.1-2.5c-.6-2.4-3.6-3.6-3.6-1.5 0 .5-.4 1-.8 1-.5 0-.7-1.4-.4-3 .4-2.8.8-3 4.4-3 2.3 0 3.7.4 3.3 1-.3.5 0 .8.7.5.7-.2 2.9 1.6 4.8 4.2 6.9 9.2 9.2 11.3 12.3 11.3 2.9 0 2.9-.1 1.4-1.8-1-1-1.7-2.4-1.7-3 0-.7-.9-1.7-2-2.4s-2-2.1-2-3.1-.7-2-1.5-2.3c-.9-.4-2-1.4-2.5-2.3-.7-1.4-.3-1.7 3-1.8 3.3-.2 4.2.3 6.7 3.5 1.5 2 3.6 5.3 4.6 7.2 2.3 4.3 4.4 6 7.4 6h2.2l-2.2-3.6c-1.2-1.9-2.7-4.5-3.4-5.6-.6-1.1-1.5-2.3-2.1-2.7-.5-.3-1.2-1.6-1.6-2.8-.6-1.7-.2-2.2 1.6-2.6 1.3-.2-20.4-.4-48.2-.4-27.8 0-48.9.2-47 .4zm99.8 1.1c1 1 2.9 3.9 4.1 6.4 1.2 2.6 2.9 5.2 3.7 5.8.7.7 1.4 1.9 1.4 2.6 0 .8.9 1.4 2 1.4 2.3 0 2.6-2.2.6-3.9-.8-.7-1.7-2.3-2-3.6-.4-1.4-1.1-2.5-1.6-2.5-.6 0-1-.6-1-1.4 0-.7-.7-1.9-1.5-2.6-2.1-1.7-1.9-2.8.8-3.3 1.2-.2-.2-.5-3-.6-5.1-.1-5.2 0-3.5 1.7zm10.4-.8c.9.6 3 3.8 4.7 7.3 3.6 7.1 5.8 10.3 6.7 9.4.3-.3-.1-1.8-.9-3.4-3.2-6.2-6.1-12.8-5.9-13.6.1-.4-1.3-.7-3-.7-2.6.1-3 .3-1.6 1zm10.1.7c.8 1 2.8 4.7 4.3 8.3 1.5 3.6 3.1 6.9 3.5 7.4 1.4 1.6-.2-3.8-2.8-9.2-1.4-2.9-2.2-5.9-1.9-6.7.4-1.1-.2-1.5-2.1-1.5-2.4 0-2.5.1-1 1.7zm6.5-1c.7.3 1.6.2 1.9-.1.4-.3-.2-.6-1.3-.5-1.1 0-1.4.3-.6.6zm70.9 1.2c1.3 1.6 1.9 1.7 2.7.7.6-.8 1.8-1.6 2.6-1.9.8-.3-.4-.6-2.7-.6-4.1-.1-4.2 0-2.6 1.8zm-210.6 3.2c-2 2.6-2.1 3.5-1.2 5.6 1.2 2.6 3.1 2.3 3.1-.5 0-1 .7-2.8 1.6-4 1.4-2.1 1.2-4.2-.5-4.2-.4 0-1.8 1.4-3 3.1zm10.9-2.2c0 .6.5 1.3 1 1.6.6.3 1-.1 1-.9 0-.9-.4-1.6-1-1.6-.5 0-1 .4-1 .9zm233-.1c0 .5.7 1.5 1.5 2.2.8.7 1.5.8 1.5.2 0-.5-.7-1.5-1.5-2.2-.8-.7-1.5-.8-1.5-.2zm-281 2.3c-.6 1.1-1 2.8-.8 3.7.3 1.2.8.7 2.1-1.7 2-4 2-4.1.7-4.1-.5 0-1.4.9-2 2.1z"/><path d="M420.8 626.1c-3 1.7-2 7.9 1.2 7.9 1 0 2 .6 2.3 1.4.7 1.7 6.3 4.6 8.9 4.6 2.2 0 3.5-2.7 2-4.2-.7-.7-2-.7-4.1 0-1.9.7-3.1.7-3.1.1 0-.5.7-.9 1.5-.9 1.7 0 2-2.7.5-5-.8-1.2-1.3-1.3-3-.3-2.8 1.8-3.1 1.6-2-1.1 1.3-3.5-.6-4.7-4.2-2.5zm211.6 2.3c0 1.9.3 3 .7 2.4.6-.9 1.1-.8 2.3.1 2.4 2 1.9 0-.7-3.3l-2.3-2.8v3.6zM432.5 627c-.4.6-.3 1.6.3 2.2.6.6 1.2.6 1.7-.2.4-.6.3-1.6-.3-2.2-.6-.6-1.2-.6-1.7.2zm39 0c-.3.6.1 1.3 1 1.6 1.9.8 3 0 2-1.5-.8-1.4-2.2-1.4-3-.1zm16.5.5c0 .8.4 1.5 1 1.5.5 0 .7-.7.4-1.5-.4-.8-.8-1.5-1-1.5-.2 0-.4.7-.4 1.5zm-80 1.2c0 2.5 1.5 3.8 2.5 2.2.4-.6 0-1.8-.9-2.7-1.5-1.5-1.6-1.5-1.6.5zm47.1-.3c-1.2 1.4-.5 2.6 1.6 2.6 1.5 0 1.8-2.6.4-3.4-.5-.3-1.4 0-2 .8zm-57.5 1.5c-1.1 1.2-1.6 3.1-1.4 5.2.3 3.6 2.8 5.3 2.8 1.9 0-1.1.7-3.2 1.6-4.5 2.6-4 .1-6.1-3-2.6zm39.4 2.6c0 .8.7 1.5 1.5 1.5s1.5-.7 1.5-1.5-.7-1.5-1.5-1.5-1.5.7-1.5 1.5zm39.5-.5c-.8 1.3-.1 2.4 1.4 1.9.6-.3.7-1 .2-1.8-.6-1-1-1-1.6-.1zm-73.7 2.1c-2.1 2.2-2.4 5.9-.5 5.9 1.8-.1 5-4.9 4.3-6.6-.7-1.8-1.7-1.7-3.8.7zm56.2-1.4c0 .5.4 1.4.9 2.2 1.1 1.7 3.2.5 2.4-1.4-.5-1.5-3.3-2.1-3.3-.8zm33 .8c0 .8.5 1.5 1 1.5.6 0 1-.7 1-1.5s-.4-1.5-1-1.5c-.5 0-1 .7-1 1.5zm-78.8.7c.6 1.8 2.8 2.1 2.8.4 0-.9-.7-1.6-1.6-1.6-.9 0-1.4.5-1.2 1.2zm-29.2 1.3c0 .8.5 1.5 1 1.5.6 0 1-.7 1-1.5s-.4-1.5-1-1.5c-.5 0-1 .7-1 1.5zm-9.8 2c-1.1 2.3-1 2.5 1.3 2.5 2 0 2.5-.5 2.5-2.5 0-1.4-.6-2.5-1.3-2.5-.8 0-1.9 1.1-2.5 2.5zm-5.9 0c-.3.9-.3 1.8-.1 2.1.3.3.8-.4 1.1-1.6.6-2.3-.1-2.7-1-.5zm73.9-.6c.4 1.3 1.8 1.6 1.9.4 0-.4-.5-.9-1.1-1.2-.7-.2-1.1.2-.8.8zM627 638c0 1.6.7 2 3.5 2 4 0 4.1-.2 1.9-2.4-2.2-2.3-5.4-2-5.4.4zm-218.7-.3c-2.2.8-1.4 2.3 1.2 2.3 1.6 0 2.5-.6 2.5-1.5 0-1.5-1.4-1.8-3.7-.8zm10.3 0c-1.1 1.1-.6 2.3.9 2.3.8 0 1.5-.4 1.5-.9 0-1.3-1.6-2.2-2.4-1.4zm61.6.5c.6 1.8 2.8 2.1 2.8.4 0-.9-.7-1.6-1.6-1.6-.9 0-1.4.5-1.2 1.2zm-90.2.8c0 .5.5 1 1 1 .6 0 1-.5 1-1 0-.6-.4-1-1-1-.5 0-1 .4-1 1zm74.5 0c-.3.5.1 1 .9 1 .9 0 1.6-.5 1.6-1 0-.6-.4-1-.9-1-.6 0-1.3.4-1.6 1zm-217.7.7c.6.2 1.8.2 2.5 0 .6-.3.1-.5-1.3-.5-1.4 0-1.9.2-1.2.5zm192 0c.7.3 1.6.2 1.9-.1.4-.3-.2-.6-1.3-.5-1.1 0-1.4.3-.6.6z"/></svg>